<svg viewBox="0 0 330 200" xmlns="http://www.w3.org/2000/svg"><g><g><g><g><g><line x1="70" y1="178" x2="65" y2="178" style="visibility: inherit;" fill="rgb(0, 0, 0)" stroke="rgb(204, 204, 204)" stroke-width="1px"></line><line x1="70" y1="161.8181818181818" x2="65" y2="161.8181818181818" style="visibility: inherit;" fill="rgb(0, 0, 0)" stroke="rgb(204, 204, 204)" stroke-width="1px"></line><line x1="70" y1="145.63636363636363" x2="65" y2="145.63636363636363" style="visibility: inherit;" fill="rgb(0, 0, 0)" stroke="rgb(204, 204, 204)" stroke-width="1px"></line><line x1="70" y1="129.45454545454547" x2="65" y2="129.45454545454547" style="visibility: inherit;" fill="rgb(0, 0, 0)" stroke="rgb(204, 204, 204)" stroke-width="1px"></line><line x1="70" y1="113.27272727272727" x2="65" y2="113.27272727272727" style="visibility: inherit;" fill="rgb(0, 0, 0)" stroke="rgb(204, 204, 204)" stroke-width="1px"></line><line x1="70" y1="97.09090909090908" x2="65" y2="97.09090909090908" style="visibility: inherit;" fill="rgb(0, 0, 0)" stroke="rgb(204, 204, 204)" stroke-width="1px"></line><line x1="70" y1="80.90909090909092" x2="65" y2="80.90909090909092" style="visibility: inherit;" fill="rgb(0, 0, 0)" stroke="rgb(204, 204, 204)" stroke-width="1px"></line><line x1="70" y1="64.72727272727273" x2="65" y2="64.72727272727273" style="visibility: inherit;" fill="rgb(0, 0, 0)" stroke="rgb(204, 204, 204)" stroke-width="1px"></line><line x1="70" y1="48.54545454545454" x2="65" y2="48.54545454545454" style="visibility: inherit;" fill="rgb(0, 0, 0)" stroke="rgb(204, 204, 204)" stroke-width="1px"></line><line x1="70" y1="32.36363636363635" x2="65" y2="32.36363636363635" style="visibility: inherit;" fill="rgb(0, 0, 0)" stroke="rgb(204, 204, 204)" stroke-width="1px"></line><line x1="70" y1="16.181818181818187" x2="65" y2="16.181818181818187" style="visibility: inherit;" fill="rgb(0, 0, 0)" stroke="rgb(204, 204, 204)" stroke-width="1px"></line><line x1="70" y1="0" x2="65" y2="0" style="visibility: inherit;" fill="rgb(0, 0, 0)" stroke="rgb(204, 204, 204)" stroke-width="1px"></line></g><g transform="translate(60, 0)"><text x="0" y="178" dx="0em" dy="0.3em" style="text-anchor: end; visibility: hidden; font-family: Roboto, sans-serif; font-size: 12px; font-weight: 200;" fill="rgb(50, 49, 63)" stroke="none" stroke-width="1px">-200</text><text x="0" y="161.8181818181818" dx="0em" dy="0.3em" style="text-anchor: end; visibility: inherit; font-family: Roboto, sans-serif; font-size: 12px; font-weight: 200;" fill="rgb(50, 49, 63)" stroke="none" stroke-width="1px">0</text><text x="0" y="145.63636363636363" dx="0em" dy="0.3em" style="text-anchor: end; visibility: hidden; font-family: Roboto, sans-serif; font-size: 12px; font-weight: 200;" fill="rgb(50, 49, 63)" stroke="none" stroke-width="1px">200</text><text x="0" y="129.45454545454547" dx="0em" dy="0.3em" style="text-anchor: end; visibility: inherit; font-family: Roboto, sans-serif; font-size: 12px; font-weight: 200;" fill="rgb(50, 49, 63)" stroke="none" stroke-width="1px">400</text><text x="0" y="113.27272727272727" dx="0em" dy="0.3em" style="text-anchor: end; visibility: hidden; font-family: Roboto, sans-serif; font-size: 12px; font-weight: 200;" fill="rgb(50, 49, 63)" stroke="none" stroke-width="1px">600</text><text x="0" y="97.09090909090908" dx="0em" dy="0.3em" style="text-anchor: end; visibility: inherit; font-family: Roboto, sans-serif; font-size: 12px; font-weight: 200;" fill="rgb(50, 49, 63)" stroke="none" stroke-width="1px">800</text><text x="0" y="80.90909090909092" dx="0em" dy="0.3em" style="text-anchor: end; visibility: hidden; font-family: Roboto, sans-serif; font-size: 12px; font-weight: 200;" fill="rgb(50, 49, 63)" stroke="none" stroke-width="1px">1e+3</text><text x="0" y="64.72727272727273" dx="0em" dy="0.3em" style="text-anchor: end; visibility: inherit; font-family: Roboto, sans-serif; font-size: 12px; font-weight: 200;" fill="rgb(50, 49, 63)" stroke="none" stroke-width="1px">1.2e+3</text><text x="0" y="48.54545454545454" dx="0em" dy="0.3em" style="text-anchor: end; visibility: hidden; font-family: Roboto, sans-serif; font-size: 12px; font-weight: 200;" fill="rgb(50, 49, 63)" stroke="none" stroke-width="1px">1.4e+3</text><text x="0" y="32.36363636363635" dx="0em" dy="0.3em" style="text-anchor: end; visibility: inherit; font-family: Roboto, sans-serif; font-size: 12px; font-weight: 200;" fill="rgb(50, 49, 63)" stroke="none" stroke-width="1px">1.6e+3</text><text x="0" y="16.181818181818187" dx="0em" dy="0.3em" style="text-anchor: end; visibility: hidden; font-family: Roboto, sans-serif; font-size: 12px; font-weight: 200;" fill="rgb(50, 49, 63)" stroke="none" stroke-width="1px">1.8e+3</text><text x="0" y="0" dx="0em" dy="0.3em" style="text-anchor: end; visibility: hidden; font-family: Roboto, sans-serif; font-size: 12px; font-weight: 200;" fill="rgb(50, 49, 63)" stroke="none" stroke-width="1px">2e+3</text></g><line x1="70" y1="0" x2="70" y2="178" fill="rgb(0, 0, 0)" stroke="rgb(204, 204, 204)" stroke-width="1px"></line></g></g><g transform="translate(70, 0)" clip-path="url(#clip_0)"><clipPath id="clip_0"><rect width="260" height="178"></rect></clipPath><g><g><g><line x1="0" y1="0" x2="0" y2="178" fill="rgb(0, 0, 0)" stroke="rgb(60, 60, 60)" stroke-width="1px" opacity="0.25"></line><line x1="32.5" y1="0" x2="32.5" y2="178" fill="rgb(0, 0, 0)" stroke="rgb(60, 60, 60)" stroke-width="1px" opacity="0.25"></line><line x1="65" y1="0" x2="65" y2="178" fill="rgb(0, 0, 0)" stroke="rgb(60, 60, 60)" stroke-width="1px" opacity="0.25"></line><line x1="97.5" y1="0" x2="97.5" y2="178" fill="rgb(0, 0, 0)" stroke="rgb(60, 60, 60)" stroke-width="1px" opacity="0.25"></line><line x1="130" y1="0" x2="130" y2="178" fill="rgb(0, 0, 0)" stroke="rgb(60, 60, 60)" stroke-width="1px" opacity="0.25"></line><line x1="162.5" y1="0" x2="162.5" y2="178" fill="rgb(0, 0, 0)" stroke="rgb(60, 60, 60)" stroke-width="1px" opacity="0.25"></line><line x1="195" y1="0" x2="195" y2="178" fill="rgb(0, 0, 0)" stroke="rgb(60, 60, 60)" stroke-width="1px" opacity="0.25"></line><line x1="227.5" y1="0" x2="227.5" y2="178" fill="rgb(0, 0, 0)" stroke="rgb(60, 60, 60)" stroke-width="1px" opacity="0.25"></line><line x1="260" y1="0" x2="260" y2="178" fill="rgb(0, 0, 0)" stroke="rgb(60, 60, 60)" stroke-width="1px" opacity="0.25"></line></g><g><line x1="0" y1="178" x2="260" y2="178" fill="rgb(0, 0, 0)" stroke="rgb(60, 60, 60)" stroke-width="1px" opacity="0.25"></line><line x1="0" y1="161.8181818181818" x2="260" y2="161.8181818181818" fill="rgb(0, 0, 0)" stroke="rgb(60, 60, 60)" stroke-width="1px" opacity="0.25"></line><line x1="0" y1="145.63636363636363" x2="260" y2="145.63636363636363" fill="rgb(0, 0, 0)" stroke="rgb(60, 60, 60)" stroke-width="1px" opacity="0.25"></line><line x1="0" y1="129.45454545454547" x2="260" y2="129.45454545454547" fill="rgb(0, 0, 0)" stroke="rgb(60, 60, 60)" stroke-width="1px" opacity="0.25"></line><line x1="0" y1="113.27272727272727" x2="260" y2="113.27272727272727" fill="rgb(0, 0, 0)" stroke="rgb(60, 60, 60)" stroke-width="1px" opacity="0.25"></line><line x1="0" y1="97.09090909090908" x2="260" y2="97.09090909090908" fill="rgb(0, 0, 0)" stroke="rgb(60, 60, 60)" stroke-width="1px" opacity="0.25"></line><line x1="0" y1="80.90909090909092" x2="260" y2="80.90909090909092" fill="rgb(0, 0, 0)" stroke="rgb(60, 60, 60)" stroke-width="1px" opacity="0.25"></line><line x1="0" y1="64.72727272727273" x2="260" y2="64.72727272727273" fill="rgb(0, 0, 0)" stroke="rgb(60, 60, 60)" stroke-width="1px" opacity="0.25"></line><line x1="0" y1="48.54545454545454" x2="260" y2="48.54545454545454" fill="rgb(0, 0, 0)" stroke="rgb(60, 60, 60)" stroke-width="1px" opacity="0.25"></line><line x1="0" y1="32.36363636363635" x2="260" y2="32.36363636363635" fill="rgb(0, 0, 0)" stroke="rgb(60, 60, 60)" stroke-width="1px" opacity="0.25"></line><line x1="0" y1="16.181818181818187" x2="260" y2="16.181818181818187" fill="rgb(0, 0, 0)" stroke="rgb(60, 60, 60)" stroke-width="1px" opacity="0.25"></line><line x1="0" y1="0" x2="260" y2="0" fill="rgb(0, 0, 0)" stroke="rgb(60, 60, 60)" stroke-width="1px" opacity="0.25"></line></g></g></g><g><g><line x1="0" y1="161.8181818181818" x2="260" y2="161.8181818181818" fill="rgb(0, 0, 0)" stroke="rgb(153, 153, 153)" stroke-width="1.5px"></line></g></g><g><g><line x1="32.5" y1="0" x2="32.5" y2="178" fill="rgb(0, 0, 0)" stroke="rgb(153, 153, 153)" stroke-width="1.5px"></line></g></g><g><g><g><g><g><path stroke="rgb(238, 51, 119)" stroke-width="2px" d="M32.825,161.43067125753925L33.15,161.35036332737317L33.475,161.34857793780557L33.800000000000004,161.3645947516538L34.125,161.34195325407484L34.45,161.33992386721656L34.775,161.27872215282977L35.1,161.2491459178332L35.425000000000004,161.22327031321305L35.75,161.22294758297727L36.075,161.20013221065506L36.400000000000006,161.12053011292443L36.724999999999994,161.02625120668048L37.05,160.97160684067336L37.375,161.04080351990092L37.699999999999996,161.00355804805116L38.025,160.92957312310935L38.35,160.95470235132353L38.675,160.90789605418175L39,160.8601126235859L39.324999999999996,160.81185944137184L39.65,160.78788503102496L39.975,160.74403460415806L40.3,160.69374580448354L40.625,160.6978614525764L40.95,160.55222062368625L41.275,160.48713778994428L41.6,160.34411810887738L41.925000000000004,160.3463890381325L42.25,160.083105068221L42.575,159.85730143691208L42.9,159.63860917934255L43.225,159.10977093168216L43.550000000000004,158.80867549704894L43.875,158.43666334958456L44.2,157.66220633417123L44.525000000000006,157.02669537860103L44.849999999999994,156.07620540056664L45.175,155.94576669708061L45.5,155.90384194845691L45.824999999999996,155.36115706683222L46.15,154.92095710720818L46.475,154.82519880653356L46.8,154.41733496822005L47.125,153.8501914194384L47.449999999999996,153.35941754161823L47.775,152.51403410870174L48.1,151.87302898571448L48.425,151.33187393217068L48.75,151.1859517685253L49.075,150.32596751774275L49.4,150.19953468434025L49.725,149.6122039981919L50.050000000000004,148.9934411455853L50.375,148.2477477761735L50.7,148.3026821961995L51.025,148.0981551107328L51.35,148.070939142434L51.675000000000004,147.76448943316987L52,147.9284798093604L52.325,147.56719247213078L52.650000000000006,148.37538674459773L52.974999999999994,148.19908679973273L53.3,147.97884990143942L53.625,147.09746459285228L53.949999999999996,146.30652824967441L54.275,145.9149298670632L54.6,146.35163481121805L54.925,146.0896173391456L55.25,145.72672077635667L55.574999999999996,145.60150582119397L55.9,145.84995938427355L56.225,145.75551955368203L56.55,146.2699585772465L56.875,145.596593332605L57.2,146.15864226221393L57.525,146.05042174093987L57.85,145.9372447160394L58.175000000000004,145.59539228971775L58.5,144.56599922326248L58.825,144.67875854718548L59.15,144.59441675495367L59.475,144.049790173045L59.800000000000004,145.31839690323218L60.125,145.43568329463818L60.45,145.4044027135993L60.775000000000006,144.5537744406596L61.099999999999994,144.29629715174482L61.425,144.30712922654936L61.75,143.80761875019633L62.074999999999996,144.2323599408582L62.4,143.73226268859162L62.725,143.88828884317982L63.05,144.11315415307587L63.375,144.0763173242763L63.699999999999996,144.5902917817284L64.025,144.5293978640033L64.35,143.66911817729758L64.675,143.47315559876137L65,143.15844905661123L65.32499999999999,143.0043640895065L65.65,143.2209187744159L65.975,142.76382808127775L66.3,143.12541126749002L66.625,143.48478666084026L66.95,143.54174830043704L67.27499999999999,143.59047993285455L67.60000000000001,143.43434504422976L67.925,143.68420972096257L68.25,143.27220689059422L68.575,141.97570801219746L68.9,142.50111221299142L69.225,142.31598158671707L69.55,142.1572086253257L69.875,142.30548052076537L70.2,141.7176552114294L70.52499999999999,141.80939261527206L70.85000000000001,140.87310363113056L71.175,141.44675283697023L71.5,140.05536729832917L71.825,139.457019262609L72.15,139.74467180703272L72.475,139.5339199720925L72.80000000000001,140.733630303568L73.125,140.62020249632758L73.44999999999999,140.97279110894712L73.775,140.63294664912183L74.1,139.99746128226428L74.425,140.89779198819735L74.75,141.2732146826645L75.075,140.89158740112924L75.39999999999999,141.24083053682457L75.72500000000001,141.32851401367853L76.05,141.25745872226074L76.375,141.00116757177975L76.7,140.62212052042935L77.025,139.6856118119913L77.35,139.57126265049376L77.675,138.5415653517487L78,138.16610881110248L78.325,138.48247542293635L78.64999999999999,138.3369918011695L78.97500000000001,138.69806559739203L79.3,138.51709680472428L79.625,137.6437359770107L79.95,137.9480223479252L80.275,136.49788585193693L80.6,136.2007523186018L80.92500000000001,135.50766242853678L81.25,134.65562434588273L81.57499999999999,134.97404461818303L81.9,134.96877964289135L82.225,136.57555551655867L82.55,136.17685989906872L82.875,136.4666983036103L83.2,136.3170351065447L83.52499999999999,134.69620449565625L83.85000000000001,134.7778729659484L84.175,134.48045829883395L84.5,135.7416560051349L84.825,134.60207077371305L85.15,135.7671219919267L85.475,132.0928050000211L85.8,131.23692747355668L86.125,131.87528784288756L86.45,130.99878201414873L86.77499999999999,131.596316849203L87.10000000000001,132.21573104968516L87.425,132.05134499078412L87.75,130.53264325379217L88.075,131.66234119020146L88.4,132.0838474187551L88.725,131.79262961824526L89.05000000000001,132.60892073303876L89.375,131.83540641709598L89.69999999999999,130.5794949155985L90.025,130.98785372093224L90.35,129.53912429754513L90.675,129.72948560924442L91,130.13904922021638L91.325,129.86475882234646L91.64999999999999,129.11825246581554L91.97500000000001,129.43118842906318L92.3,128.32166478417798L92.625,129.41282355534344L92.95,129.11188487361798L93.275,129.88282126507988L93.6,129.6632785744776L93.925,130.25530709940958L94.25,127.31212171525654L94.575,126.267665352041L94.89999999999999,126.50594843219407L95.22500000000001,126.83507832556289L95.55,126.83391713471983L95.875,128.7429959551039L96.2,127.56590887899276L96.525,127.10292020532533L96.85,127.7216613583692L97.17500000000001,129.65226186296186L97.5,127.8353157803304L97.82499999999999,128.08377382988147L98.15,127.81515350247433L98.475,127.23667034855491L98.8,128.31929011751365L99.125,127.40610565342722L99.45,127.0801250952701L99.77499999999999,126.00910671776221L100.10000000000001,126.26843551059339L100.425,125.29596529250662L100.75,125.90333618899828L101.075,126.66928589308647L101.4,126.47545850983981L101.725,127.20004674564109L102.05,127.22661668152882L102.375,126.37163726744004L102.7,125.75627077932056L103.02499999999999,127.32806313786931L103.35000000000001,126.17460840163137L103.675,126.33574621995609L104,126.69683827929255L104.325,126.68277025939017L104.65,125.92552331729958L104.975,125.8750262817505L105.30000000000001,126.96593033092886L105.625,124.54871151886981L105.94999999999999,123.71020091034534L106.275,124.24006817804313L106.6,124.36705908420512L106.925,124.41048208804084L107.25,122.98122904996583L107.575,123.21457809492978L107.89999999999999,123.60227284683712L108.22500000000001,124.63710451953695L108.55,126.3115718381426L108.875,125.65162274599635L109.2,123.74432243577253L109.525,121.89902971856579L109.85,123.58369180130993L110.175,123.3959194375864L110.5,124.07720314071234L110.825,123.51826922773351L111.14999999999999,124.3524146283482L111.47500000000001,125.8130049737419L111.8,125.35370238721033L112.125,125.14855085571041L112.45,124.09527205950224L112.775,123.69034702920277L113.1,123.9718482543647L113.42500000000001,123.56053539970691L113.75,122.8599762802183L114.07499999999999,122.4375104263341L114.4,121.36366685594251L114.725,121.24484609856196L115.05,121.16712299116843L115.375,120.8618348520519L115.7,120.95548029466511L116.02499999999999,119.7301898325164L116.35000000000001,119.5029749169104L116.675,120.21636129957805L117,120.14002292321275L117.325,119.82930188425435L117.65,120.03784231663215L117.975,118.90017240880033L118.3,117.87679030163673L118.625,118.3031539705772L118.95,117.89077685944149L119.27499999999999,118.16211297734813L119.60000000000001,119.21613045730732L119.925,120.29747479427077L120.25,120.41336288393106L120.575,117.98213618295097L120.9,115.79871663519671L121.225,115.12584770128848L121.55000000000001,116.64266045404725L121.875,117.54109372004906L122.19999999999999,117.38156017379082L122.525,116.43321309291086L122.85,116.02600919896385L123.175,115.29039524771636L123.5,117.06935919674771L123.825,118.67182893024679L124.14999999999999,118.20001590395773L124.47500000000001,119.94798627133416L124.8,119.75299171397236L125.125,121.03420421916822L125.45,119.33744742496684L125.775,118.9842009878281L126.1,120.85234071654276L126.425,120.03764936955633L126.75,119.57404161480909L127.075,118.26895768372921L127.39999999999999,118.22765563829151L127.72500000000001,115.96636027306724L128.05,117.75382272234532L128.375,117.86325583599952L128.7,116.54461962819772L129.025,116.80563337137886L129.35,114.86825468990828L129.675,116.33523861383841L130,118.28700034603743L130.325,118.2950385865287L130.64999999999998,116.76460362954506L130.975,117.98029227360773L131.3,116.71550970365325L131.625,116.46465088167349L131.95,115.76641106788904L132.275,116.47593368796353L132.6,115.70851668916308L132.92499999999998,117.07244006942824L133.25,115.53455781385155L133.57500000000002,115.93222492268593L133.9,113.47077465087717L134.225,114.58561862131468L134.54999999999998,114.77998014828597L134.875,114.14275979529259L135.20000000000002,113.67792440966846L135.525,113.29463741391187L135.85,112.36076402682723L136.175,113.67280593917873L136.5,112.80174632984246L136.825,112.7089855420461L137.15,110.75101727959556L137.47500000000002,111.52131180596757L137.8,113.24840023166293L138.125,115.19485685597218L138.45,112.56570630552224L138.77499999999998,113.06947394311447L139.1,113.16836747133743L139.425,115.39434672126126L139.75,111.45012225949682L140.075,112.96202095424213L140.4,112.52015120447L140.725,110.70230172676578L141.04999999999998,111.64658407228107L141.375,113.4605124994766L141.70000000000002,112.17969690398283L142.025,112.26365672104737L142.35,112.4704028616412L142.67499999999998,112.51951482156569L143,110.81936449929594L143.32500000000002,112.19106239187161L143.65,109.36451026005193L143.975,111.26526856725278L144.3,110.88788006790848L144.625,110.88807143563146L144.95,111.63887486599535L145.275,112.39441145635149L145.60000000000002,112.50396261422281L145.925,112.60443325479079L146.25,112.82168836196539L146.575,113.17791527215083L146.89999999999998,114.95758405764418L147.225,113.02617658870582L147.55,112.02129049246355L147.875,109.984968165329L148.2,110.12529393186784L148.525,108.53015562936217L148.85,107.57366721905909L149.17499999999998,107.68253944276357L149.5,106.34911131214253L149.82500000000002,107.48133379722869L150.15,107.45540312812415L150.475,106.5092440075563L150.79999999999998,108.71302662914316L151.125,104.76874451086658L151.45000000000002,105.19511518130687L151.775,105.27830650225003L152.1,106.02826468526337L152.425,108.01933851641371L152.75,108.15790979486242L153.075,107.82074998291887L153.4,108.38149832959508L153.72500000000002,106.12311219910649L154.05,108.22354265682185L154.375,107.57860517505901L154.7,109.93189295233654L155.02499999999998,111.02156259579823L155.35,109.43365712867922L155.675,110.84315115309532L156,109.5833030453728L156.325,112.69621564735863L156.65,113.20180651465807L156.975,112.6285951836528L157.29999999999998,112.85575896122151L157.625,111.31315013436786L157.95000000000002,112.22380836009515L158.275,111.26757569876305L158.6,111.04129877064277L158.92499999999998,110.91981219917542L159.25,110.91016998995981L159.57500000000002,111.56410190519749L159.9,109.29267145916963L160.225,107.77926815870491L160.55,105.99728157615334L160.875,107.69103631518774L161.2,106.33720588446066L161.525,103.67038474338946L161.85000000000002,104.87093377128225L162.175,106.85656008521254L162.5,105.93557649857071L162.825,106.28681555912111L163.14999999999998,105.96137231665165L163.475,107.15126171119127L163.8,105.93532784969062L164.125,102.70481340903312L164.45,105.49580901044118L164.775,105.79272564063973L165.1,106.0568118980557L165.42499999999998,103.24857459888314L165.75,103.80981752211396L166.07500000000002,102.99582306387207L166.4,103.08318069467978L166.725,102.37444537082065L167.04999999999998,102.30041402646965L167.375,105.52196099578236L167.70000000000002,101.09390178390407L168.025,100.73798569037085L168.35,101.20350943180065L168.675,101.63050844672243L169,101.25793992243688L169.325,99.82245529312831L169.65,102.03699195251049L169.97500000000002,101.49649863830318L170.3,101.66434957804582L170.625,102.05235852612438L170.95,103.02625245143456L171.27499999999998,104.17348575708232L171.6,105.23832955794259L171.925,103.81027720919737L172.25,104.64482308599428L172.575,104.78546565113491L172.9,104.99055111919658L173.225,105.67653293092845L173.54999999999998,103.87801000180991L173.875,104.27702987803907L174.20000000000002,103.61628471038168L174.525,103.22007464813952L174.85,102.5244853295442L175.17499999999998,103.86463284811715L175.5,104.40442754711603L175.82500000000002,105.53576168629519L176.15,107.47825708279986L176.475,107.31091334502793L176.8,108.4730662065906L177.125,108.1637923384785L177.45,108.10262376956437L177.775,106.15123743645454L178.10000000000002,106.42618155988407L178.425,107.77175507850859L178.75,108.79670434770883L179.075,107.97119579310683L179.39999999999998,106.65636611311551L179.725,108.5408164718466L180.05,107.82546360469887L180.375,109.04664918998552L180.7,110.27702651239328L181.025,108.89685892945303L181.35,107.9516397051505L181.67499999999998,107.82871409208889L182,108.05265914151043L182.32500000000002,105.57670650230683L182.65,105.27610741967246L182.975,105.92077970837306L183.29999999999998,101.63616555673548L183.625,100.61676962434669L183.95000000000002,102.73374572347164L184.275,102.1359486725418L184.6,101.72429829620974L184.925,100.26672555087924L185.25,101.44877405566959L185.575,100.31551787356511L185.9,102.99566577119163L186.22500000000002,101.58838172922776L186.55,102.33534852883638L186.875,101.54737557681885L187.2,103.18352202577881L187.52499999999998,103.89936940776133L187.85,104.86265067519656L188.175,106.01281224016765L188.5,107.47837027201254L188.825,102.78088599932258L189.15,104.80701885989185L189.475,105.3884886374905L189.79999999999998,103.48812148061221L190.125,103.54524511404203L190.45000000000002,104.80673598000192L190.775,105.36311975739036L191.1,104.59078882442712L191.42499999999998,104.45117082661649L191.75,104.62263304905939L192.07500000000002,106.48541940685041L192.4,104.92231980373383L192.725,105.19318181032979L193.05,106.01629132163819L193.375,105.774636897919L193.7,105.78032754890765L194.025,107.06961969163153L194.35000000000002,106.69345625212381L194.675,106.46783522588366L195,105.13336459877593L195.325,106.06991852844169L195.64999999999998,107.22259589245563L195.975,105.23271187673758L196.3,102.03150909514767L196.625,102.45673229480167L196.95,103.72410689286112L197.275,105.33985886671809L197.6,103.2034557807908L197.92499999999998,103.75353322966056L198.25,102.34510486766138L198.57500000000002,99.82448102251446L198.9,99.93387571400584L199.225,101.53231510791345L199.54999999999998,102.72526053580631L199.875,102.40129461605056L200.20000000000002,98.83998082680361L200.525,95.66893101206229L200.85,95.24598735812515L201.175,96.35611614090493L201.5,98.11244933653158L201.825,96.01147816903543L202.15,96.87760949108745L202.47500000000002,99.95794841837404L202.8,98.67120104676309L203.125,97.6167095751459L203.45,97.22837357889436L203.77499999999998,96.74112266917612L204.1,97.70248969703123L204.425,97.81440264279263L204.75,101.49049092871535L205.075,101.60490069181726L205.4,102.20739840070827L205.725,104.14653738470763L206.04999999999998,104.50777237311863L206.375,105.40272749968794L206.70000000000002,105.2276926743511L207.025,105.62348443451123L207.35,102.26188964419396L207.67499999999998,102.32028255693541L208,100.8703322871797L208.32500000000002,100.56969071641294L208.65,102.51117038687903L208.975,103.40090406984048L209.3,103.66486426363724L209.625,103.9705616911724L209.95,103.02194621214662L210.275,102.60236195225248L210.60000000000002,107.09951083257307L210.925,107.31792072184497L211.25,105.79716687291523L211.575,103.5307929770872L211.89999999999998,101.28217753518699L212.225,100.87990142523151L212.55,100.46169329654515L212.875,101.68604574088874L213.2,100.60457404432016L213.525,97.94417764303385L213.85,98.3205571673189L214.17499999999998,97.37193293320382L214.5,96.38195803318224L214.82500000000002,97.35291017147185L215.15,98.0605172099499L215.475,98.78938534372561L215.79999999999998,98.00965058212317L216.125,98.34618949700118L216.45000000000002,94.88335374614107L216.775,95.72525960652696L217.1,97.08082561920736L217.425,98.86127775344913L217.75,96.8673019192925L218.075,98.23474891613516L218.4,97.9621424072095L218.72500000000002,97.68319613324617L219.05,97.77321448836389L219.375,100.10212009926833L219.7,99.47368234897861L220.02499999999998,97.30991348875506L220.35,97.12205043256412L220.675,94.06854393585239L221,93.1093713011421L221.325,95.69461217166538L221.65,92.5338530185532L221.975,92.72542293950549L222.29999999999998,94.73668553749592L222.625,93.70215856148901L222.95000000000002,92.27477913458519L223.275,92.52943122364883L223.6,93.36790529402596L223.92499999999998,94.0052443083403L224.25,95.49543065371866L224.57500000000002,95.64486079812609L224.9,96.3420936139964L225.225,97.13444229233248L225.55,95.15208181272195L225.875,94.15726216025391L226.2,91.22515938688387L226.525,94.26049025215873L226.85000000000002,94.93771007814183L227.175,95.8488586019277L227.5,93.3725640292319L227.825,98.12681400791556L228.14999999999998,96.89605244949367L228.475,96.42254513269336L228.8,96.42337466928221L229.125,94.56847246669716L229.45,96.48033410146716L229.775,97.12687151468L230.1,94.92331094147846L230.42499999999998,94.85970800043395L230.75,96.2753281294507L231.07500000000002,96.90095378019174L231.4,96.48280773065056L231.725,99.0992762577085L232.04999999999998,97.78077789063362L232.375,98.30690691992706L232.70000000000002,96.21986088224743L233.025,98.99614548886551L233.35,98.04147504633778L233.675,94.28043583124726L234,93.71654268216456L234.325,97.16574978365954L234.65,96.85592059551531L234.97500000000002,95.12349005706061L235.3,97.967703653377L235.625,98.96353552210432L235.95,100.5081194045268L236.27499999999998,101.57303346356125L236.6,99.77722271041658L236.925,96.89559982830961L237.25,97.75399057880395L237.575,100.45780556887327L237.9,100.69153179657964L238.225,101.39296965944638L238.54999999999998,100.50041076850162L238.875,99.23449310971603L239.20000000000002,100.04824507126285L239.525,101.057344570279L239.85,101.43467855946145L240.17499999999998,104.11141946255898L240.5,104.44423817433936L240.82500000000002,104.01518912264339L241.15,103.62094708065278L241.475,104.37116881213458L241.8,100.70696396039864L242.125,100.42649218572072L242.45,99.62103225212847L242.775,100.44335761033247L243.10000000000002,99.01444685046793L243.425,100.1256584778234L243.75,100.18673468630341L244.075,100.00011991334455L244.39999999999998,101.5620842882056L244.725,103.34433031812932L245.05,100.46750690447844L245.375,100.84071141807769L245.7,100.87049378976708L246.025,100.26044466697103L246.35,98.95350725650364L246.67499999999998,100.41643678465503" style="fill: none;" fill="none"></path></g></g></g></g><g opacity="0.2"><g><g><g><path stroke="rgb(238, 51, 119)" stroke-width="2px" d="M32.825,161.43067125753925L33.15,161.3021785692735L33.475,161.3468639638207L33.800000000000004,161.38343052473937L34.125,161.3123925148357L34.45,161.33711649461225L34.775,161.19120272202926L35.1,161.20602348327637L35.425000000000004,161.18510882247577L35.75,161.22246836618945L36.075,161.16611608591947L36.400000000000006,161.00156015742908L36.724999999999994,160.8851406843012L37.05,160.8897473456643L37.375,161.14451720064338L37.699999999999996,160.94771610866894L38.025,160.81862704363738L38.35,160.99238981333647L38.675,160.83769373893736L39,160.78844184528697L39.324999999999996,160.7394823143699L39.65,160.75192420439288L39.975,160.67825982960787L40.3,160.61831320069052L40.625,160.70403489546342L40.95,160.33376000144264L41.275,160.38951370586048L41.6,160.12958880684593L41.925000000000004,160.34979542992332L42.25,159.68817925886674L42.575,159.51859606482765L42.9,159.3105708365007L43.225,158.3165136233243L43.550000000000004,158.35703236666592L43.875,157.8786451443759L44.2,156.5005208310214L44.525000000000006,156.07342895507813L44.849999999999994,154.65047044233842L45.175,155.75010864257814L45.5,155.84095482566138L45.824999999999996,154.5471297454834L46.15,154.26065716830166L46.475,154.68156135559082L46.8,153.8055392109264L47.125,152.99947609641336L47.449999999999996,152.62325672496448L47.775,151.2459589594061L48.1,150.91152130126952L48.425,150.52014135187324L48.75,150.9670685230602L49.075,149.03599114157936L49.4,150.0098854342374L49.725,148.73120796897194L50.050000000000004,148.06529686667702L50.375,147.129207722057L50.7,148.38508382623846L51.025,147.79136448253286L51.35,148.0301151899858L51.675000000000004,147.3048148692738L52,148.17446537364611L52.325,147.0252614662864L52.650000000000006,149.58767815329813L52.974999999999994,147.9346368824352L53.3,147.64849455399946L53.625,145.7753866299716L53.949999999999996,145.12012373490768L54.275,145.3275322931463L54.6,147.0066922274503L54.925,145.6965911310369L55.25,145.1823759321733L55.574999999999996,145.41368338844993L55.9,146.22263972889294L56.225,145.61385980779477L56.55,147.0416171125932L56.875,144.58654546564276L57.2,147.0017156566273L57.525,145.88809095902877L57.85,145.76747917868875L58.175000000000004,145.08261365023526L58.5,143.02190962357955L58.825,144.84789753306995L59.15,144.467904066606L59.475,143.232850300182L59.800000000000004,147.22130699851297L60.125,145.61161288174716L60.45,145.357481842041L60.775000000000006,143.27783203125L61.099999999999994,143.91008121837268L61.425,144.32337733875622L61.75,143.05835303566673L62.074999999999996,144.86947172685103L62.4,142.98211681019177L62.725,144.12232807506214L63.05,144.45045211791992L63.375,144.02106208107688L63.699999999999996,145.3612534679066L64.025,144.43805698741565L64.35,142.378698647239L64.675,143.17921173095704L65,142.686389243386L65.32499999999999,142.77323663884945L65.65,143.54575080178L65.975,142.0781920415705L66.3,143.6677860468084L66.625,144.0238497508656L66.95,143.6271907598322L67.27499999999999,143.66357738148082L67.60000000000001,143.2001427112926L67.925,144.0590067360618L68.25,142.65420264504172L68.575,140.03095969460227L68.9,143.28921851418235L69.225,142.03828564730557L69.55,141.91904918323863L69.875,142.5278883639249L70.2,140.8359172474254L70.52499999999999,141.94699872103604L70.85000000000001,139.46867015491833L71.175,142.30722664572977L71.5,137.96828899036754L71.825,138.55949720902876L72.15,140.17615062366832L72.475,139.21779221968217L72.80000000000001,142.53319580078124L73.125,140.45006078546697L73.44999999999999,141.50167402787642L73.775,140.12317995938386L74.1,139.04423323197798L74.425,142.24828804709693L74.75,141.83634872436525L75.075,140.31914647882633L75.39999999999999,141.76469524036756L75.72500000000001,141.46003922895952L76.05,141.15087578513405L76.375,140.61673084605823L76.7,140.05354994340377L77.025,138.28084874933418L77.35,139.3997389082475L77.675,136.99701940363101L78,137.60292400013316L78.325,138.95702534068715L78.64999999999999,138.11876636851918L78.97500000000001,139.23967629172586L79.3,138.24564361572266L79.625,136.33369473544033L79.95,138.40445190429688L80.275,134.32268110795454L80.6,135.75505201859906L80.92500000000001,134.46802759343927L81.25,133.37756722190164L81.57499999999999,135.45167502663352L81.9,134.96088217995384L82.225,138.98571932705966L82.55,135.5788164728338L82.875,136.90145591042258L83.2,136.09254031094636L83.52499999999999,132.26495857932352L83.85000000000001,134.9003756713867L84.175,134.0343362981623L84.5,137.6334525645863L84.825,132.89269292658025L85.15,137.51469881924714L85.475,126.58132951216264L85.8,129.95311118386007L86.125,132.83282839688388L86.45,129.68402327104047L86.77499999999999,132.49261910178444L87.10000000000001,133.1448523504084L87.425,131.80476590243254L87.75,128.25459064830434L88.075,133.35688809481533L88.4,132.7161067615856L88.725,131.35580291748047L89.05000000000001,133.83335740522907L89.375,130.67513494318183L89.69999999999999,128.69562766335227L90.025,131.60039192893288L90.35,127.36603016246448L90.675,130.01502757679333L91,130.75339463667436L91.325,129.45332322554157L91.64999999999999,127.99849293101917L91.97500000000001,129.90059237393464L92.3,126.65737931685014L92.625,131.04956171209164L92.95,128.66047685102984L93.275,131.03922585227272L93.6,129.33396453857424L93.925,131.14334988680753L94.25,122.89734363902699L94.575,124.70098080721768L94.89999999999999,126.86337305242365L95.22500000000001,127.32877316561611L95.55,126.83217534845525L95.875,131.60661418568003L96.2,125.80027826482599L96.525,126.40843719482422L96.85,128.64977308793502L97.17500000000001,132.54816261985084L97.5,125.10989665638317L97.82499999999999,128.4564609042081L98.15,127.41222301136364L98.475,126.36894561767579L98.8,129.9432197709517L99.125,126.03632895729757L99.45,126.59115425803445L99.77499999999999,124.40257915150036L100.10000000000001,126.6574286998402L100.425,123.83725996537642L100.75,126.8143925337358L101.075,127.81821044921875L101.4,126.1847174349698L101.725,128.28692909934304L102.05,127.26647158536045L102.375,125.08916814630682L102.7,124.83322104714135L103.02499999999999,129.68575167569247L103.35000000000001,124.44442629727452L103.675,126.57745294744318L104,127.23847636829723L104.325,126.66166822953657L104.65,124.78965290416372L104.975,125.79928072842684L105.30000000000001,128.60228640469637L105.625,120.92288330078125L105.94999999999999,122.45243499755858L106.275,125.03486907958984L106.6,124.55754544344816L106.925,124.47561659379437L107.25,120.83734949285333L107.575,123.56460166237571L107.89999999999999,124.18381497469814L108.22500000000001,126.18935202858664L108.55,128.82327281605114L108.875,124.661699107777L109.2,120.8833719704368L109.525,119.13109064275568L109.85,126.11068492542614L110.175,123.11426089200106L110.5,125.09912869540126L110.825,122.67986835826528L111.14999999999999,125.60363272927023L111.47500000000001,128.00389049183238L111.8,124.66474850741301L112.125,124.84082355846058L112.45,122.51535386518998L112.775,123.08295948375356L113.1,124.39410009210759L113.42500000000001,122.94356611772018L113.75,121.80913760098542L114.07499999999999,121.8038116455078L114.4,119.75290150035511L114.725,121.06661496249112L115.05,121.05053833007813L115.375,120.40390264337712L115.7,121.09594845858486L116.02499999999999,117.89225413929333L116.35000000000001,119.16215254350142L116.675,121.28644087357955L117,120.02551535866476L117.325,119.36322032581677L117.65,120.35065296519886L117.975,117.19366754705256L118.3,116.34171714089133L118.625,118.94269947398793L118.95,117.27221119273793L119.27499999999999,118.56911715420809L119.60000000000001,120.7971566772461L119.925,121.91949129971592L120.25,120.58719501842153L120.575,114.33529613148082L120.9,112.52358731356533L121.225,114.11654430042614L121.55000000000001,118.91787958318537L121.875,118.88874361905184L122.19999999999999,117.14225985440339L122.525,115.01069247159091L122.85,115.41520335804333L123.175,114.18697432084518L123.5,119.73780512029474L123.825,121.07553353049539L124.14999999999999,117.49229636452417L124.47500000000001,122.56994182239879L124.8,119.46049987792969L125.125,122.95602297696202L125.45,116.79231223366479L125.775,118.45433133212002L126.1,123.6545503096147L126.425,118.8156123490767L126.75,118.87862998268821L127.075,116.31133178710937L127.39999999999999,118.16570257013494L127.72500000000001,112.57441722523083L128.05,120.43501639626243L128.375,118.02740550648082L128.7,114.56666531649502L129.025,117.19715398615057L129.35,111.9621866677024L129.675,118.53571449973367L130,121.21464294433594L130.325,118.30709594726562L130.64999999999998,114.4689511940696L130.975,119.80382523970172L131.3,114.8183358487216L131.625,116.08836264870382L131.95,114.71905134721236L132.275,117.54021761807527L132.6,114.55739119096236L132.92499999999998,119.118325139826L133.25,113.2277344304865L133.57500000000002,116.52872558593751L133.9,109.77859924316405L134.225,116.25788457697088L134.54999999999998,115.07152243874292L134.875,113.18692926580256L135.20000000000002,112.98067133123224L135.525,112.71970692027699L135.85,110.95995394620027L136.175,115.64086880770596L136.5,111.49515691583807L136.825,112.56984436035157L137.15,107.81406488591975L137.47500000000002,112.67675359552557L137.8,115.83903287020598L138.125,118.11454179243607L138.45,108.62198047984731L138.77499999999998,113.82512539950285L139.1,113.31670776367187L139.425,118.73331559614704L139.75,105.53378556685014L140.075,115.22986899636008L140.4,111.8573465798118L140.725,107.97552751020952L141.04999999999998,113.06300759055398L141.375,116.18140514026987L141.70000000000002,110.25847351074219L142.025,112.38959644664418L142.35,112.78052207253198L142.67499999999998,112.59318276145243L143,108.26913901589135L143.32500000000002,114.24860923073507L143.65,105.12468206232244L143.975,114.11640602805396L144.3,110.32179731889205L144.625,110.8883584872159L144.95,112.7650800115412L145.275,113.52771634188566L145.60000000000002,112.66828935102983L145.925,112.75513921564276L146.25,113.14757102272729L146.575,113.71225563742898L146.89999999999998,117.62708723588425L147.225,110.12906538529828L147.55,110.51396134810014L147.875,106.93048467462712L148.2,110.33578258167614L148.525,106.1374481756037L148.85,106.1389346036044L149.17499999999998,107.84584777832032L149.5,104.34896911621094L149.82500000000002,109.17966752485795L150.15,107.41650712446732L150.475,105.09000532670454L150.79999999999998,112.01870056152345L151.125,98.8523213334517L151.45000000000002,105.83467118696733L151.775,105.40309348366479L152.1,107.15320195978337L152.425,111.0059492631392L152.75,108.3657667125355L153.075,107.31501026500355L153.4,109.22262084960937L153.72500000000002,102.73553300337358L154.05,111.37418834339488L154.375,106.61119895241477L154.7,113.46182461825283L155.02499999999998,112.65606706099076L155.35,107.05179892800071L155.675,112.95739218971946L156,107.69353088378907L156.325,117.36558455033736L156.65,113.96019281560724L156.975,111.76877818714487L157.29999999999998,113.19650462757457L157.625,108.99923689408736L157.95000000000002,113.58979569868607L158.275,109.83322670676492L158.6,110.70188337846237L158.92499999999998,110.73758234197443L159.25,110.89570667613637L159.57500000000002,112.54499977805398L159.9,105.88552579012783L160.225,105.5091632080078L160.55,103.324301702326L160.875,110.23166842373934L161.2,104.30646023837002L161.525,99.67015303178268L161.85000000000002,106.67175731312145L162.175,109.83499955610795L162.5,104.55410111860797L162.825,106.81367414994673L163.14999999999998,105.47320745294745L163.475,108.93609580300073L163.8,104.11142705743963L164.125,97.85904174804688L164.45,109.68230241255326L164.775,106.2381005859375L165.1,106.45294128417969L165.42499999999998,99.0362186501243L165.75,104.65168190696023L166.07500000000002,101.77483137650921L166.4,103.21421714089132L166.725,101.31134238503198L167.04999999999998,102.18936700994318L167.375,110.35428144975143L167.70000000000002,94.45181296608664L168.025,100.20411155007102L168.35,101.90179504394531L168.675,102.27100696910512L169,100.69908713600852L169.325,97.6692283491655L169.65,105.3587969415838L169.97500000000002,100.68575866699219L170.3,101.9161259876598L170.625,102.63437194824219L170.95,104.48709333939986L171.27499999999998,105.89433571555398L171.6,106.83559525923297L171.925,101.66819868607955L172.25,105.89664190118962L172.575,104.99642949884587L172.9,105.29817932128907L173.225,106.70550564852627L173.54999999999998,101.1802256081321L173.875,104.87555969238281L174.20000000000002,102.6251669588956L174.525,102.6257595547763L174.85,101.48110135165129L175.17499999999998,105.87485412597655L175.5,105.21411959561433L175.82500000000002,107.2327628950639L176.15,110.39200017755682L176.475,107.05989773837004L176.8,110.21629549893464L177.125,107.69988153631037L177.45,108.01087091619318L177.775,103.22415793678977L178.10000000000002,106.83859774502842L178.425,109.79011535644531L178.75,110.33412825150921L179.075,106.73293296120383L179.39999999999998,104.68412159312855L179.725,111.36749200994318L180.05,106.75243430397727L180.375,110.8784275679155L180.7,112.12259249600496L181.025,106.82660755504261L181.35,106.53381086869673L181.67499999999998,107.64432567249645L182,108.38857671564276L182.32500000000002,101.86277754350142L182.65,104.82520879572088L182.975,106.887788141424L183.29999999999998,95.20924432927912L183.625,99.0876757257635L183.95000000000002,105.90920987215908L184.275,101.23925309614701L184.6,101.10682273171165L184.925,98.08036643288352L185.25,103.22184681285512L185.575,98.61563360040837L185.9,107.01588761763138L186.22500000000002,99.47745566628195L186.55,103.45579872824929L186.875,100.36541614879262L187.2,105.63774169921875L187.52499999999998,104.97314048073508L187.85,106.30757257634944L188.175,107.7380545876243L188.5,109.67670731977982L188.825,95.73465959028766L189.15,107.84621815074574L189.475,106.26069330388849L189.79999999999998,100.63757074529475L190.125,103.6309305641868L190.45000000000002,106.69897227894177L190.775,106.19769542347301L191.1,103.43229242498224L191.42499999999998,104.24174382990056L191.75,104.8798263827237L192.07500000000002,109.27959894353693L192.4,102.57767039905895L192.725,105.59947482022373L193.05,107.25095558860086L193.375,105.4121552623402L193.7,105.78886352539062L194.025,109.00355790571733L194.35000000000002,106.1292110928622L194.675,106.12940368652343L195,103.13165865811433L195.325,107.47474942294033L195.64999999999998,108.95161193847656L195.975,102.24788585316051L196.3,97.22970492276279L196.625,103.09456709428268L196.95,105.6251687899503L197.275,107.76348682750356L197.6,99.99885115189987L197.92499999999998,104.5786494029652L198.25,100.23246232466266L198.57500000000002,96.04354525479404L198.9,100.09796775124289L199.225,103.92997419877487L199.54999999999998,104.5146786776456L199.875,101.9153457364169L200.20000000000002,93.49801014293324L200.525,90.9123562899503L200.85,94.61157187721948L201.175,98.02130931507457L201.5,100.74694912997158L201.825,92.8600214177912L202.15,98.17680647416549L202.47500000000002,104.57845680930399L202.8,96.7410799893466L203.125,96.03497236772017L203.45,96.64586958451706L203.77499999999998,96.01024630459874L204.1,99.14454023881392L204.425,97.98227206143467L204.75,107.00462335759944L205.075,101.77651533647018L205.4,103.11114496404475L205.725,107.05524586070668L206.04999999999998,105.0496248557351L206.375,106.74516018954189L206.70000000000002,104.96514043634588L207.025,106.21717207475142L207.35,97.21949745871805L207.67499999999998,102.4078719260476L208,98.69540688254617L208.32500000000002,100.11872836026279L208.65,105.42338989257811L208.975,104.73550459428267L209.3,104.06080455433238L209.625,104.42910783247514L209.95,101.59902299360797L210.275,101.97298556241121L210.60000000000002,113.84523415305398L210.925,107.64553555575283L211.25,103.5160360995206L211.575,100.13123213334515L211.89999999999998,97.90925437233665L212.225,100.2764872602983L212.55,99.83438110351562L212.875,103.52257440740412L213.2,98.98236649946732L213.525,93.9535830411044L213.85,98.88512645374644L214.17499999999998,95.94899658203124L214.5,94.89699568314984L214.82500000000002,98.80933837890625L215.15,99.12192776766689L215.475,99.8826875443892L215.79999999999998,96.84004843971945L216.125,98.85099786931819L216.45000000000002,89.68910011985083L216.775,96.98811839710582L217.1,99.114174638228L217.425,101.53195595481179L217.75,93.87633816805754L218.075,100.28591941139914L218.4,97.55323264382102L218.72500000000002,97.26477672230114L219.05,97.9082420210405L219.375,103.59547851562499L219.7,98.53102572354402L220.02499999999998,94.06426019841975L220.35,96.8402558482777L220.675,89.48828419078481L221,91.6706123490767L221.325,99.57247347745027L221.65,87.79271428888494L221.975,93.01277782093395L222.29999999999998,97.75357943448152L222.625,92.15036809747869L222.95000000000002,90.13370999422939L223.275,92.91140935724432L223.6,94.62561639959162L223.92499999999998,94.9612528298118L224.25,97.73071017178623L224.57500000000002,95.86900601473721L224.9,97.38794283780183L225.225,98.32296530983663L225.55,92.17854109330611L225.875,92.66503268155184L226.2,86.82700522682883L226.525,98.81348655007102L226.85000000000002,95.95353981711648L227.175,97.21558138760655L227.5,89.65812217018821L227.825,105.25818897594105L228.14999999999998,95.0499101118608L228.475,95.71228415749289L228.8,96.42461897416548L229.125,91.7861191628196L229.45,99.34812655362217L229.775,98.09667763449927L230.1,91.61797008167613L230.42499999999998,94.7643035888672L230.75,98.39875832297584L231.07500000000002,97.83939225630327L231.4,95.8555886563388L231.725,103.02397904829547L232.04999999999998,95.80303034002131L232.375,99.09610046386719L232.70000000000002,93.08929182572798L233.025,103.16057239879262L233.35,96.60946938254617L233.675,88.6388770086115L234,92.87070295854049L234.325,102.339560435902L234.65,96.391176813299L234.97500000000002,92.52484424937856L235.3,102.23402404785156L235.625,100.4572833251953L235.95,102.8249952281605L236.27499999999998,103.17040455211293L236.6,97.08350658069958L236.925,92.57316550514916L237.25,99.04157670454545L237.575,104.51352805397727L237.9,101.0421211381392L238.225,102.44512645374644L238.54999999999998,99.16157243208451L238.875,97.33561662153764L239.20000000000002,101.2688730135831L239.525,102.57099381880329L239.85,102.00067954323508L240.17499999999998,108.12653081720525L240.5,104.94346624200993L240.82500000000002,103.37161554509943L241.15,103.02958401766689L241.475,105.49650140935724L241.8,95.21065668279475L242.125,100.00578452370382L242.45,98.41284235174005L242.775,101.6768456476385L243.10000000000002,96.87108071067118L243.425,101.79247591885652L243.75,100.27834899902344L244.075,99.72019775390625L244.39999999999998,103.90503085049717L244.725,106.0176993630149L245.05,96.15227178400214L245.375,101.40051818847655L245.7,100.91516734730114L246.025,99.34537098277698L246.35,96.99310114080255L246.67499999999998,102.6108310768821" style="fill: none;" fill="none"></path></g></g></g></g></g></g><g transform="translate(70, 178)" clip-path="url(#clip_1)"><clipPath id="clip_1"><rect width="260" height="22"></rect></clipPath><g><g><line x1="0" y1="0" x2="0" y2="5" style="visibility: inherit;" fill="rgb(0, 0, 0)" stroke="rgb(204, 204, 204)" stroke-width="1px"></line><line x1="32.5" y1="0" x2="32.5" y2="5" style="visibility: inherit;" fill="rgb(0, 0, 0)" stroke="rgb(204, 204, 204)" stroke-width="1px"></line><line x1="65" y1="0" x2="65" y2="5" style="visibility: inherit;" fill="rgb(0, 0, 0)" stroke="rgb(204, 204, 204)" stroke-width="1px"></line><line x1="97.5" y1="0" x2="97.5" y2="5" style="visibility: inherit;" fill="rgb(0, 0, 0)" stroke="rgb(204, 204, 204)" stroke-width="1px"></line><line x1="130" y1="0" x2="130" y2="5" style="visibility: inherit;" fill="rgb(0, 0, 0)" stroke="rgb(204, 204, 204)" stroke-width="1px"></line><line x1="162.5" y1="0" x2="162.5" y2="5" style="visibility: inherit;" fill="rgb(0, 0, 0)" stroke="rgb(204, 204, 204)" stroke-width="1px"></line><line x1="195" y1="0" x2="195" y2="5" style="visibility: inherit;" fill="rgb(0, 0, 0)" stroke="rgb(204, 204, 204)" stroke-width="1px"></line><line x1="227.5" y1="0" x2="227.5" y2="5" style="visibility: inherit;" fill="rgb(0, 0, 0)" stroke="rgb(204, 204, 204)" stroke-width="1px"></line><line x1="260" y1="0" x2="260" y2="5" style="visibility: inherit;" fill="rgb(0, 0, 0)" stroke="rgb(204, 204, 204)" stroke-width="1px"></line></g><g transform="translate(0, 8)"><text x="0" y="0" dx="0em" dy="0.95em" style="text-anchor: middle; visibility: hidden; font-family: Roboto, sans-serif; font-size: 12px; font-weight: 200;" fill="rgb(50, 49, 63)" stroke="none" stroke-width="1px">-5M</text><text x="32.5" y="0" dx="0em" dy="0.95em" style="text-anchor: middle; visibility: inherit; font-family: Roboto, sans-serif; font-size: 12px; font-weight: 200;" fill="rgb(50, 49, 63)" stroke="none" stroke-width="1px">0</text><text x="65" y="0" dx="0em" dy="0.95em" style="text-anchor: middle; visibility: inherit; font-family: Roboto, sans-serif; font-size: 12px; font-weight: 200;" fill="rgb(50, 49, 63)" stroke="none" stroke-width="1px">5M</text><text x="97.5" y="0" dx="0em" dy="0.95em" style="text-anchor: middle; visibility: inherit; font-family: Roboto, sans-serif; font-size: 12px; font-weight: 200;" fill="rgb(50, 49, 63)" stroke="none" stroke-width="1px">10M</text><text x="130" y="0" dx="0em" dy="0.95em" style="text-anchor: middle; visibility: inherit; font-family: Roboto, sans-serif; font-size: 12px; font-weight: 200;" fill="rgb(50, 49, 63)" stroke="none" stroke-width="1px">15M</text><text x="162.5" y="0" dx="0em" dy="0.95em" style="text-anchor: middle; visibility: inherit; font-family: Roboto, sans-serif; font-size: 12px; font-weight: 200;" fill="rgb(50, 49, 63)" stroke="none" stroke-width="1px">20M</text><text x="195" y="0" dx="0em" dy="0.95em" style="text-anchor: middle; visibility: inherit; font-family: Roboto, sans-serif; font-size: 12px; font-weight: 200;" fill="rgb(50, 49, 63)" stroke="none" stroke-width="1px">25M</text><text x="227.5" y="0" dx="0em" dy="0.95em" style="text-anchor: middle; visibility: inherit; font-family: Roboto, sans-serif; font-size: 12px; font-weight: 200;" fill="rgb(50, 49, 63)" stroke="none" stroke-width="1px">30M</text><text x="260" y="0" dx="0em" dy="0.95em" style="text-anchor: middle; visibility: hidden; font-family: Roboto, sans-serif; font-size: 12px; font-weight: 200;" fill="rgb(50, 49, 63)" stroke="none" stroke-width="1px">35M</text></g><line x1="0" y1="0" x2="260" y2="0" fill="rgb(0, 0, 0)" stroke="rgb(204, 204, 204)" stroke-width="1px"></line></g></g></g></g></svg>