<svg viewBox="0 0 330 200" xmlns="http://www.w3.org/2000/svg"><g><g><g><g><g><line x1="40" y1="178" x2="35" y2="178" style="visibility: inherit;" fill="rgb(0, 0, 0)" stroke="rgb(204, 204, 204)" stroke-width="1px"></line><line x1="40" y1="163.16666666666666" x2="35" y2="163.16666666666666" style="visibility: inherit;" fill="rgb(0, 0, 0)" stroke="rgb(204, 204, 204)" stroke-width="1px"></line><line x1="40" y1="148.33333333333334" x2="35" y2="148.33333333333334" style="visibility: inherit;" fill="rgb(0, 0, 0)" stroke="rgb(204, 204, 204)" stroke-width="1px"></line><line x1="40" y1="133.5" x2="35" y2="133.5" style="visibility: inherit;" fill="rgb(0, 0, 0)" stroke="rgb(204, 204, 204)" stroke-width="1px"></line><line x1="40" y1="118.66666666666669" x2="35" y2="118.66666666666669" style="visibility: inherit;" fill="rgb(0, 0, 0)" stroke="rgb(204, 204, 204)" stroke-width="1px"></line><line x1="40" y1="103.83333333333331" x2="35" y2="103.83333333333331" style="visibility: inherit;" fill="rgb(0, 0, 0)" stroke="rgb(204, 204, 204)" stroke-width="1px"></line><line x1="40" y1="89" x2="35" y2="89" style="visibility: inherit;" fill="rgb(0, 0, 0)" stroke="rgb(204, 204, 204)" stroke-width="1px"></line><line x1="40" y1="74.16666666666666" x2="35" y2="74.16666666666666" style="visibility: inherit;" fill="rgb(0, 0, 0)" stroke="rgb(204, 204, 204)" stroke-width="1px"></line><line x1="40" y1="59.33333333333334" x2="35" y2="59.33333333333334" style="visibility: inherit;" fill="rgb(0, 0, 0)" stroke="rgb(204, 204, 204)" stroke-width="1px"></line><line x1="40" y1="44.5" x2="35" y2="44.5" style="visibility: inherit;" fill="rgb(0, 0, 0)" stroke="rgb(204, 204, 204)" stroke-width="1px"></line><line x1="40" y1="29.66666666666666" x2="35" y2="29.66666666666666" style="visibility: inherit;" fill="rgb(0, 0, 0)" stroke="rgb(204, 204, 204)" stroke-width="1px"></line><line x1="40" y1="14.83333333333334" x2="35" y2="14.83333333333334" style="visibility: inherit;" fill="rgb(0, 0, 0)" stroke="rgb(204, 204, 204)" stroke-width="1px"></line><line x1="40" y1="0" x2="35" y2="0" style="visibility: inherit;" fill="rgb(0, 0, 0)" stroke="rgb(204, 204, 204)" stroke-width="1px"></line></g><g transform="translate(30, 0)"><text x="0" y="178" dx="0em" dy="0.3em" style="text-anchor: end; visibility: hidden; font-family: Roboto, sans-serif; font-size: 12px; font-weight: 200;" fill="rgb(50, 49, 63)" stroke="none" stroke-width="1px">-50</text><text x="0" y="163.16666666666666" dx="0em" dy="0.3em" style="text-anchor: end; visibility: inherit; font-family: Roboto, sans-serif; font-size: 12px; font-weight: 200;" fill="rgb(50, 49, 63)" stroke="none" stroke-width="1px">0</text><text x="0" y="148.33333333333334" dx="0em" dy="0.3em" style="text-anchor: end; visibility: hidden; font-family: Roboto, sans-serif; font-size: 12px; font-weight: 200;" fill="rgb(50, 49, 63)" stroke="none" stroke-width="1px">50</text><text x="0" y="133.5" dx="0em" dy="0.3em" style="text-anchor: end; visibility: inherit; font-family: Roboto, sans-serif; font-size: 12px; font-weight: 200;" fill="rgb(50, 49, 63)" stroke="none" stroke-width="1px">100</text><text x="0" y="118.66666666666669" dx="0em" dy="0.3em" style="text-anchor: end; visibility: hidden; font-family: Roboto, sans-serif; font-size: 12px; font-weight: 200;" fill="rgb(50, 49, 63)" stroke="none" stroke-width="1px">150</text><text x="0" y="103.83333333333331" dx="0em" dy="0.3em" style="text-anchor: end; visibility: inherit; font-family: Roboto, sans-serif; font-size: 12px; font-weight: 200;" fill="rgb(50, 49, 63)" stroke="none" stroke-width="1px">200</text><text x="0" y="89" dx="0em" dy="0.3em" style="text-anchor: end; visibility: hidden; font-family: Roboto, sans-serif; font-size: 12px; font-weight: 200;" fill="rgb(50, 49, 63)" stroke="none" stroke-width="1px">250</text><text x="0" y="74.16666666666666" dx="0em" dy="0.3em" style="text-anchor: end; visibility: inherit; font-family: Roboto, sans-serif; font-size: 12px; font-weight: 200;" fill="rgb(50, 49, 63)" stroke="none" stroke-width="1px">300</text><text x="0" y="59.33333333333334" dx="0em" dy="0.3em" style="text-anchor: end; visibility: hidden; font-family: Roboto, sans-serif; font-size: 12px; font-weight: 200;" fill="rgb(50, 49, 63)" stroke="none" stroke-width="1px">350</text><text x="0" y="44.5" dx="0em" dy="0.3em" style="text-anchor: end; visibility: inherit; font-family: Roboto, sans-serif; font-size: 12px; font-weight: 200;" fill="rgb(50, 49, 63)" stroke="none" stroke-width="1px">400</text><text x="0" y="29.66666666666666" dx="0em" dy="0.3em" style="text-anchor: end; visibility: hidden; font-family: Roboto, sans-serif; font-size: 12px; font-weight: 200;" fill="rgb(50, 49, 63)" stroke="none" stroke-width="1px">450</text><text x="0" y="14.83333333333334" dx="0em" dy="0.3em" style="text-anchor: end; visibility: inherit; font-family: Roboto, sans-serif; font-size: 12px; font-weight: 200;" fill="rgb(50, 49, 63)" stroke="none" stroke-width="1px">500</text><text x="0" y="0" dx="0em" dy="0.3em" style="text-anchor: end; visibility: hidden; font-family: Roboto, sans-serif; font-size: 12px; font-weight: 200;" fill="rgb(50, 49, 63)" stroke="none" stroke-width="1px">550</text></g><line x1="40" y1="0" x2="40" y2="178" fill="rgb(0, 0, 0)" stroke="rgb(204, 204, 204)" stroke-width="1px"></line></g></g><g transform="translate(40, 0)" clip-path="url(#clip_0)"><clipPath id="clip_0"><rect width="290" height="178"></rect></clipPath><g><g><g><line x1="0" y1="0" x2="0" y2="178" fill="rgb(0, 0, 0)" stroke="rgb(60, 60, 60)" stroke-width="1px" opacity="0.25"></line><line x1="36.25" y1="0" x2="36.25" y2="178" fill="rgb(0, 0, 0)" stroke="rgb(60, 60, 60)" stroke-width="1px" opacity="0.25"></line><line x1="72.5" y1="0" x2="72.5" y2="178" fill="rgb(0, 0, 0)" stroke="rgb(60, 60, 60)" stroke-width="1px" opacity="0.25"></line><line x1="108.75" y1="0" x2="108.75" y2="178" fill="rgb(0, 0, 0)" stroke="rgb(60, 60, 60)" stroke-width="1px" opacity="0.25"></line><line x1="145" y1="0" x2="145" y2="178" fill="rgb(0, 0, 0)" stroke="rgb(60, 60, 60)" stroke-width="1px" opacity="0.25"></line><line x1="181.25" y1="0" x2="181.25" y2="178" fill="rgb(0, 0, 0)" stroke="rgb(60, 60, 60)" stroke-width="1px" opacity="0.25"></line><line x1="217.5" y1="0" x2="217.5" y2="178" fill="rgb(0, 0, 0)" stroke="rgb(60, 60, 60)" stroke-width="1px" opacity="0.25"></line><line x1="253.75" y1="0" x2="253.75" y2="178" fill="rgb(0, 0, 0)" stroke="rgb(60, 60, 60)" stroke-width="1px" opacity="0.25"></line><line x1="290" y1="0" x2="290" y2="178" fill="rgb(0, 0, 0)" stroke="rgb(60, 60, 60)" stroke-width="1px" opacity="0.25"></line></g><g><line x1="0" y1="178" x2="290" y2="178" fill="rgb(0, 0, 0)" stroke="rgb(60, 60, 60)" stroke-width="1px" opacity="0.25"></line><line x1="0" y1="163.16666666666666" x2="290" y2="163.16666666666666" fill="rgb(0, 0, 0)" stroke="rgb(60, 60, 60)" stroke-width="1px" opacity="0.25"></line><line x1="0" y1="148.33333333333334" x2="290" y2="148.33333333333334" fill="rgb(0, 0, 0)" stroke="rgb(60, 60, 60)" stroke-width="1px" opacity="0.25"></line><line x1="0" y1="133.5" x2="290" y2="133.5" fill="rgb(0, 0, 0)" stroke="rgb(60, 60, 60)" stroke-width="1px" opacity="0.25"></line><line x1="0" y1="118.66666666666669" x2="290" y2="118.66666666666669" fill="rgb(0, 0, 0)" stroke="rgb(60, 60, 60)" stroke-width="1px" opacity="0.25"></line><line x1="0" y1="103.83333333333331" x2="290" y2="103.83333333333331" fill="rgb(0, 0, 0)" stroke="rgb(60, 60, 60)" stroke-width="1px" opacity="0.25"></line><line x1="0" y1="89" x2="290" y2="89" fill="rgb(0, 0, 0)" stroke="rgb(60, 60, 60)" stroke-width="1px" opacity="0.25"></line><line x1="0" y1="74.16666666666666" x2="290" y2="74.16666666666666" fill="rgb(0, 0, 0)" stroke="rgb(60, 60, 60)" stroke-width="1px" opacity="0.25"></line><line x1="0" y1="59.33333333333334" x2="290" y2="59.33333333333334" fill="rgb(0, 0, 0)" stroke="rgb(60, 60, 60)" stroke-width="1px" opacity="0.25"></line><line x1="0" y1="44.5" x2="290" y2="44.5" fill="rgb(0, 0, 0)" stroke="rgb(60, 60, 60)" stroke-width="1px" opacity="0.25"></line><line x1="0" y1="29.66666666666666" x2="290" y2="29.66666666666666" fill="rgb(0, 0, 0)" stroke="rgb(60, 60, 60)" stroke-width="1px" opacity="0.25"></line><line x1="0" y1="14.83333333333334" x2="290" y2="14.83333333333334" fill="rgb(0, 0, 0)" stroke="rgb(60, 60, 60)" stroke-width="1px" opacity="0.25"></line><line x1="0" y1="0" x2="290" y2="0" fill="rgb(0, 0, 0)" stroke="rgb(60, 60, 60)" stroke-width="1px" opacity="0.25"></line></g></g></g><g><g><line x1="0" y1="163.16666666666666" x2="290" y2="163.16666666666666" fill="rgb(0, 0, 0)" stroke="rgb(153, 153, 153)" stroke-width="1.5px"></line></g></g><g><g><line x1="36.25" y1="0" x2="36.25" y2="178" fill="rgb(0, 0, 0)" stroke="rgb(153, 153, 153)" stroke-width="1.5px"></line></g></g><g><g><g><g><g><path stroke="rgb(238, 51, 119)" stroke-width="2px" d="M36.6125,148.25095962524412L36.975,149.8462110821406L37.3375,150.81330476151032L37.7,151.28325049484476L38.0625,151.38071003536425L38.425000000000004,151.28869586941678L38.7875,151.15084751092581L39.150000000000006,150.62762124423278L39.5125,150.108940724542L39.875,149.18789776395306L40.237500000000004,148.01663704369372L40.6,146.73222350283226L40.9625,145.81632921014463L41.324999999999996,145.08936621431104L41.6875,144.24281967688682L42.05,142.57588387839303L42.412499999999994,140.9868083975738L42.775,139.4738894859304L43.137499999999996,138.10639232956052L43.5,136.29770830543413L43.8625,134.99477496939835L44.225,134.4564302428592L44.5875,132.59228368074128L44.95,131.01271482548907L45.3125,127.94579286474806L45.675,124.40895855691225L46.0375,123.90946393769806L46.4,123.11995393979703L46.7625,120.67946377423398L47.125,118.53699053503607L47.487500000000004,117.60870563180916L47.85,117.03800958854853L48.212500000000006,114.71520428316114L48.575,114.18416137304104L48.9375,114.57768774855836L49.300000000000004,112.98081494386211L49.6625,114.35595180441736L50.025,115.21469138613205L50.387499999999996,116.04265193069182L50.75,117.98780946342413L51.1125,118.16236168324006L51.474999999999994,117.64770175904533L51.8375,121.37362317238843L52.199999999999996,121.78109624643983L52.5625,121.64083326461368L52.925,121.34575677434225L53.2875,121.06500972865734L53.65,119.50096610327256L54.0125,119.80079914438944L54.375,119.90971371921918L54.7375,117.27727531403828L55.1,118.16558316531359L55.4625,117.8498158415704L55.825,115.89903834934124L56.1875,115.09674344417455L56.550000000000004,114.62684277874415L56.9125,115.01511844393927L57.275000000000006,114.2039471853413L57.6375,114.67076955632201L58,115.39061916380626L58.362500000000004,116.1749853695403L58.725,116.97523210714087L59.0875,116.83244171382879L59.449999999999996,117.41725152732073L59.8125,115.58793256108643L60.175,114.73754831432112L60.537499999999994,112.89958957615778L60.9,113.8737906312741L61.262499999999996,113.21870306935692L61.625,112.28278348712196L61.9875,112.09040646108829L62.35,113.7753199468027L62.7125,114.16808633657119L63.075,115.8990971836159L63.4375,113.8374265718883L63.8,115.30306043532048L64.1625,114.67072454651131L64.525,115.0175678659276L64.8875,114.80385275162037L65.25,112.59543337541884L65.6125,113.24232240318099L65.97500000000001,112.99239795851015L66.3375,110.86191082100454L66.7,114.1978426595949L67.0625,114.4489923796111L67.425,113.66746189505182L67.78750000000001,109.1185910896678L68.14999999999999,109.61346526171084L68.5125,108.13612428235203L68.875,106.67776903148804L69.2375,110.03310955935507L69.6,109.12352432529404L69.96249999999999,110.62444001428449L70.325,110.2374463165134L70.6875,110.89484268818279L71.05,113.06879886242139L71.4125,114.50460654727055L71.775,112.72981743584931L72.1375,112.24962392098223L72.5,111.7766470332534L72.8625,112.01487581353929L73.225,112.56017630192565L73.58749999999999,111.66495738434548L73.95,112.24828048122579L74.3125,112.71257538508962L74.675,113.21097247714752L75.0375,113.61600967443954L75.4,113.69910830710513L75.76249999999999,114.77179028130084L76.125,113.99083271370237L76.4875,111.58828085787637L76.85000000000001,113.32283222322191L77.21249999999999,113.06679255496181L77.575,112.50538970127134L77.9375,112.34029741939563L78.30000000000001,111.79917177846029L78.6625,111.70108497625586L79.025,109.93499626163242L79.3875,111.36286514792997L79.75,108.47728423361475L80.1125,107.1787966876298L80.47500000000001,108.73029388171851L80.8375,108.90199967294386L81.2,111.4009287873275L81.5625,112.65094791774155L81.925,114.66031519026082L82.2875,114.26542757851195L82.64999999999999,112.26218216559678L83.0125,114.46275206872656L83.375,115.05800257994035L83.7375,115.12361596039912L84.1,115.72384767682539L84.4625,116.0560528891356L84.82499999999999,115.28255777921704L85.1875,115.74186830603934L85.55,115.17546558811578L85.91250000000001,114.06305209863771L86.27499999999999,114.55461570335581L86.6375,112.9611738409588L87,111.76451792355316L87.36250000000001,111.5095083412087L87.725,110.70093516829945L88.0875,110.68708276846016L88.45,110.05928048383L88.8125,108.28090162363132L89.175,108.88094215826084L89.53750000000001,106.22329031123255L89.9,105.07714317274213L90.2625,102.98066122916612L90.625,102.06071204511684L90.9875,102.94705076222635L91.35,104.24950106687358L91.71249999999999,108.39793873826868L92.075,108.30794242183488L92.4375,108.42608879701372L92.8,107.78425958110536L93.1625,104.83973303544707L93.525,104.06258622019402L93.88749999999999,103.6319075467323L94.25,104.76477900883364L94.6125,102.62280425425853L94.97500000000001,104.72333859910458L95.33749999999999,98.83092338651355L95.7,96.5112897293365L96.0625,97.36063933646258L96.42500000000001,95.66820165607677L96.7875,97.97453838459658L97.15,98.78751964127225L97.5125,98.26792552174253L97.875,96.67517889702988L98.2375,97.32833737972184L98.60000000000001,96.38383279078882L98.9625,96.4073308430931L99.325,97.63816317463841L99.6875,96.38372493115024L100.05,94.47368354674354L100.4125,95.39714048693283L100.77499999999999,92.44531322282377L101.1375,92.84056435784791L101.5,91.61576618632334L101.8625,92.70823190824582L102.225,92.13762552596964L102.5875,90.81698054832917L102.94999999999999,88.94493259169283L103.3125,91.2580975351589L103.675,90.26385949765786L104.03750000000001,91.3912353763291L104.39999999999999,91.59032887228182L104.7625,91.34192844316077L105.125,86.78386816615688L105.48750000000001,83.85950140099621L105.85,85.92044671055216L106.2125,87.70833876607739L106.575,90.08185339799277L106.9375,94.23942392844414L107.3,92.96804510413678L107.66250000000001,93.25496223500811L108.025,94.18386601287986L108.3875,97.19150401527999L108.75,96.53453570994925L109.1125,96.47925981708283L109.475,95.31704801671454L109.83749999999999,94.65005937643498L110.2,97.18897747970215L110.5625,95.04550009459211L110.925,94.7334957761563L111.2875,93.6776215338904L111.65,94.59088483032774L112.01249999999999,94.11428535376304L112.375,95.19801162160026L112.7375,94.94239461944454L113.10000000000001,94.54265745444668L113.46249999999999,94.80214006592972L113.825,95.5441392234771L114.1875,95.26685470921646L114.55000000000001,93.87370830485932L114.9125,96.37082084880099L115.275,95.38765748730795L115.6375,96.59765916930536L116,96.62713088162877L116.3625,97.85233632927024L116.72500000000001,97.15726334948272L117.0875,98.2390724872287L117.45,100.22516423615232L117.8125,95.93483430015493L118.175,94.53301831690936L118.5375,95.4984212196378L118.89999999999999,95.48809590398321L119.2625,94.85725659024148L119.625,94.27856818754334L119.9875,95.82967234563148L120.35,95.92939837808201L120.7125,97.84200641779972L121.07499999999999,100.15634545224233L121.4375,97.98167873130633L121.8,95.10158847657678L122.16250000000001,93.9313161840906L122.52499999999999,96.80661529232283L122.8875,96.49222772031557L123.25,97.88943640432477L123.61250000000001,96.4527099789881L123.975,96.85283470728216L124.3375,99.64267118162842L124.7,98.29079759423097L125.0625,98.6169185996701L125.425,96.99986443698305L125.78750000000001,96.1103642391755L126.15,96.71920741476183L126.5125,96.47675225240528L126.875,95.34607023165147L127.2375,94.60342790559244L127.6,94.31492157082943L127.96249999999999,95.18043176329843L128.325,94.2794516442421L128.6875,93.70142352967675L129.05,94.06883564449879L129.4125,92.56060928871749L129.775,92.1447479584844L130.1375,93.86543896470653L130.5,92.84519691153878L130.86249999999998,92.11201298334905L131.225,93.77269601022425L131.5875,91.80894322869315L131.95000000000002,90.72067658581615L132.3125,90.806620123853L132.675,90.036987780692L133.0375,89.62761393306363L133.4,91.09532110642019L133.7625,94.28981322863078L134.125,95.22685845719798L134.4875,91.75849845648025L134.85,89.5369424169871L135.2125,89.59925291357119L135.57500000000002,91.52018102060364L135.9375,93.2967844749924L136.29999999999998,93.19461249407748L136.6625,91.97291060354283L137.025,90.30786289858403L137.3875,90.05906016672205L137.75,93.00903440732489L138.1125,94.61574907457072L138.475,93.62490859187784L138.8375,96.4441985527504L139.2,97.23654877439114L139.5625,98.99820373973232L139.92499999999998,97.29693729917794L140.2875,96.74087071284009L140.65,99.95565127291891L141.01250000000002,98.56466497436332L141.375,98.21095421736538L141.7375,95.9844780683424L142.1,94.68266088071898L142.4625,91.83892241547565L142.825,94.28822716754713L143.1875,94.55407017097097L143.55,92.184259058149L143.9125,92.83079851757168L144.275,90.3390601245404L144.63750000000002,91.77284716684663L145,93.66565483331111L145.36249999999998,93.73872991577443L145.725,92.15318798201672L146.0875,94.04877096385196L146.45,92.6712931365794L146.8125,92.82688102517682L147.17499999999998,91.60489263284697L147.53750000000002,92.5824870323449L147.9,90.92919766374287L148.2625,93.08515722943062L148.625,91.66796846282114L148.9875,93.12676628683981L149.35,89.56630794104919L149.7125,90.57850752260478L150.075,90.61337504172042L150.4375,90.64670434632131L150.8,89.38565383337874L151.1625,88.48427539735796L151.52499999999998,86.4043379028028L151.88750000000002,87.73370690834835L152.25,86.41643756460535L152.6125,86.65593879201843L152.975,83.90743648484647L153.3375,84.43751690392872L153.70000000000002,88.30908100417363L154.0625,91.33990553202891L154.42499999999998,88.36787276257674L154.7875,88.17201532421272L155.15,87.39903845885055L155.5125,90.92644386795357L155.875,86.2516033406289L156.23749999999998,87.96493380613515L156.60000000000002,87.75303960903916L156.9625,84.79982535233756L157.325,86.61620905417597L157.6875,90.02789956580636L158.05,88.91061368154112L158.4125,88.61508982757702L158.775,88.55228117112303L159.1375,89.5157264704147L159.5,85.72042831388946L159.8625,89.063168833223L160.225,86.09823231393119L160.58749999999998,89.18190396762303L160.95000000000002,88.4805128843173L161.3125,89.1900481277258L161.675,90.21141307259902L162.0375,91.47063546156073L162.4,92.0677680160315L162.76250000000002,91.36221580229466L163.125,90.64823298479477L163.48749999999998,91.0410779744706L163.85,93.52306442791152L164.2125,89.4697211844162L164.575,88.41437966702993L164.9375,86.71870104240547L165.29999999999998,86.95373094038469L165.66250000000002,85.25703613096256L166.025,84.42732218313483L166.3875,85.25797888116996L166.75,83.7259300288973L167.1125,85.50162151424593L167.475,85.91351689455016L167.8375,84.10255809408689L168.2,85.99632758106151L168.5625,81.3365113516968L168.925,82.8149791580233L169.2875,82.61282746063428L169.64999999999998,82.06809837253941L170.01250000000002,86.35990498299631L170.375,86.01034704253216L170.7375,86.30458709107917L171.1,88.66792333619048L171.4625,85.0867531472221L171.82500000000002,88.1054415164257L172.1875,87.75489719338405L172.54999999999998,90.71569354470883L172.9125,91.82184845918208L173.275,89.635842962228L173.6375,90.69029575536416L174,89.248685469169L174.36249999999998,92.77709478573317L174.72500000000002,95.31966076141386L175.0875,95.10900322361263L175.45,94.52974841040457L175.8125,92.3213907942896L176.175,94.6542505125438L176.5375,92.95325103181014L176.9,91.92129095111734L177.2625,91.58909246210919L177.625,92.40407677446605L177.9875,92.60719071393092L178.35,89.65519658981687L178.71249999999998,86.34529528136409L179.07500000000002,83.95036588952158L179.4375,85.97021953371294L179.8,83.81631222152984L180.1625,80.23494476293092L180.525,82.46110658757625L180.88750000000002,83.4287298705145L181.25,82.63156747146236L181.61249999999998,82.59356218697897L181.975,83.24193837826812L182.3375,85.79884344688274L182.7,83.53271618368954L183.0625,80.57516100090385L183.42499999999998,83.4710510072806L183.78750000000002,83.78082416719388L184.15,84.57252977863665L184.5125,81.93102852798927L184.875,83.70300599211907L185.2375,81.85755542632613L185.6,82.86654835182432L185.9625,81.05270204169356L186.325,80.76399276635729L186.6875,84.13407607973625L187.05,78.02290365565425L187.4125,76.70988009215556L187.77499999999998,76.30769640653031L188.13750000000002,76.41022184782445L188.5,75.67174024573893L188.8625,74.80111376821158L189.225,77.76326750409099L189.5875,78.08172531365253L189.95000000000002,79.4773709629311L190.3125,79.48979904260241L190.67499999999998,80.6005792139729L191.0375,82.76300853912593L191.4,82.9638026006891L191.7625,81.58351219192389L192.125,82.46065703846162L192.48749999999998,82.0766893484025L192.85000000000002,82.62489577049982L193.2125,82.28372668756032L193.575,79.10079900081743L193.9375,81.46676520778213L194.3,81.88430184114064L194.6625,82.10968392857761L195.025,80.18019357654762L195.3875,81.14684201669681L195.75,82.91798830734879L196.1125,85.43994327330903L196.475,88.6225941581586L196.83749999999998,89.56332285231701L197.20000000000002,90.27394771122746L197.5625,90.19446286501774L197.925,90.47649856048199L198.2875,87.78175314019545L198.65,87.96903902604433L199.01250000000002,89.65945849049639L199.375,90.43651807118586L199.73749999999998,90.12862293987949L200.1,88.97769663176624L200.4625,90.93453051568083L200.825,89.38762134489028L201.1875,92.31177869886126L201.54999999999998,91.78174059985061L201.91250000000002,91.1484333573062L202.275,90.21316230930559L202.6375,89.65017086377345L203,90.22135404414297L203.3625,85.16751730116027L203.725,84.77460701969355L204.0875,84.44044878212864L204.45,79.53982603197251L204.8125,79.04627879789443L205.175,81.53685793628875L205.5375,81.6128475905493L205.89999999999998,81.70014926884781L206.26250000000002,80.06205538162119L206.625,82.65900096985813L206.9875,81.40334003503988L207.35,84.54775851728043L207.7125,84.19956115691774L208.07500000000002,84.97099353008815L208.4375,83.54077413725862L208.79999999999998,85.46915080234216L209.1625,87.14279761031155L209.525,88.90323038503458L209.8875,89.29678661969263L210.25,90.48573206703041L210.61249999999998,85.5669250393719L210.97500000000002,86.64676755210623L211.3375,88.11860388656972L211.7,86.20811207966318L212.0625,86.51744285001145L212.425,88.05259760697952L212.7875,87.30271872043772L213.15,84.84370764827827L213.5125,85.00805792230028L213.875,85.46243631588015L214.2375,87.28339572914399L214.6,85.92414921320254L214.96249999999998,86.66863991854652L215.32500000000002,88.36154981619953L215.6875,88.66486480589812L216.05,87.87104608080449L216.4125,88.84716850134727L216.775,89.27320073866645L217.13750000000002,88.68483564502277L217.5,87.37753277536002L217.86249999999998,88.71423442758581L218.225,90.71505202943558L218.5875,88.0066496258645L218.95,82.63029222506296L219.3125,82.76880887995964L219.67499999999998,85.29125800457085L220.03750000000002,86.53015690235188L220.4,83.8753664395882L220.7625,83.87123052456022L221.125,82.1830036549054L221.4875,78.01257379938855L221.85,77.98134424708105L222.2125,80.42187612832676L222.575,81.07830369620179L222.9375,80.97893017507785L223.3,76.29942528440867L223.6625,72.68029628392644L224.02499999999998,72.25759862810325L224.38750000000002,73.36213538942705L224.75,74.26655821119529L225.1125,72.72550519852706L225.475,73.61303159405117L225.8375,78.56420042615726L226.20000000000002,77.15026834325947L226.5625,76.97245470712755L226.92499999999998,76.27805725624268L227.2875,76.18975114248259L227.65,78.56064857774217L228.0125,78.0583882107729L228.375,83.77459772545464L228.73749999999998,84.18332280356705L229.10000000000002,84.5170979301871L229.4625,86.32067758135445L229.825,86.24592315037518L230.1875,88.01231247583706L230.55,86.7899348894736L230.9125,88.10678210067634L231.275,84.6587362119032L231.6375,85.30808079777995L232,83.41161231330338L232.3625,83.4105092174091L232.725,86.47992365381788L233.08749999999998,86.88819102904202L233.45000000000002,87.55400201976896L233.8125,87.07166577891866L234.175,86.29514692828869L234.5375,87.48250586123754L234.9,93.14059755157326L235.26250000000002,93.85379159572258L235.625,91.62374018773956L235.98749999999998,87.56802068328174L236.35,85.09771568959144L236.7125,84.84334954721841L237.075,85.00621342299249L237.4375,85.61898086141268L237.79999999999998,83.90914535278513L238.16250000000002,80.16851589819451L238.525,80.26830464796618L238.8875,78.13220357328491L239.25,75.79077079305948L239.6125,77.475796582281L239.975,77.27453471206393L240.3375,77.0333110778894L240.7,75.98542390259301L241.0625,76.97958356518862L241.425,73.77166615473817L241.7875,74.87758733932726L242.14999999999998,76.69481196577084L242.51250000000002,78.08687253102502L242.875,76.4428128089796L243.2375,78.1450309064164L243.6,77.67793309463109L243.9625,77.95498548340626L244.32500000000002,78.63180081966615L244.6875,80.79810258652624L245.04999999999998,81.13863848876471L245.4125,78.58858096109736L245.775,77.41388010335112L246.1375,73.9406692485341L246.5,73.98603224573506L246.86249999999998,77.45854158865197L247.22500000000002,73.4740441426443L247.5875,74.85120427692772L247.95,77.77220893497173L248.3125,76.08035673305335L248.675,75.12559636405076L249.0375,74.25409618106067L249.4,74.05357843617547L249.7625,74.84152698520789L250.125,76.61807585909347L250.4875,77.48953496858108L250.85,79.10630358206011L251.21249999999998,79.59245622150169L251.57500000000002,77.95062135659894L251.9375,76.58354037580833L252.3,74.39803120790687L252.6625,77.25203869544725L253.025,78.13815481720326L253.38750000000002,79.9344784209209L253.75,76.79810664890671L254.11249999999998,81.09405004484533L254.475,80.4509593644723L254.8375,79.28281320820162L255.2,78.92366798676993L255.5625,75.84079177513487L255.92499999999998,77.75392347002885L256.2875,78.94799731118395L256.65,75.70914921678849L257.0125,76.32780618046374L257.375,77.75997480528345L257.7375,77.27553749547477L258.1,77.12791030652966L258.4625,80.39341285058445L258.825,78.46828953163974L259.1875,79.91838851390571L259.55,77.76912580040072L259.9125,80.8588853109696L260.275,79.34772185227187L260.6375,76.14210698831624L261,76.43728107938298L261.3625,80.89900074805297L261.72499999999997,80.06832403281615L262.08750000000003,77.57265095452041L262.45,80.53266015279037L262.8125,82.67541404414818L263.175,84.54655390744593L263.53749999999997,85.59889356679828L263.90000000000003,84.65733390212323L264.2625,81.94911905058385L264.625,83.2464763131628L264.9875,84.90094096367893L265.35,84.47857190242611L265.7125,85.17302798846087L266.075,85.10686505154008L266.4375,84.41770195735633L266.8,85.74119431487604L267.1625,86.09153368690738L267.525,87.20733838434495L267.8875,90.31147059652496L268.25,91.27357455762198L268.6125,92.05057993558232L268.975,91.21148423250823L269.3375,90.99563268631485L269.7,86.17763681393734L270.0625,85.42063022475563L270.425,85.2622455258039L270.78749999999997,86.85361188253964L271.15000000000003,86.6559729563467L271.5125,87.78005970561142L271.875,88.17725589579523L272.2375,87.84228845365551L272.59999999999997,89.75684696949148L272.96250000000003,91.67311835422095L273.325,89.1096661785482L273.6875,88.53686788339844L274.05,87.58776908615887L274.4125,86.98259537096617L274.775,84.95452552498854L275.1375,86.26180922775356" style="fill: none;" fill="none"></path></g></g></g></g><g opacity="0.2"><g><g><g><path stroke="rgb(238, 51, 119)" stroke-width="2px" d="M36.6125,148.25095962524412L36.975,150.80336195627848L37.3375,151.74171469370523L37.7,151.8359066772461L38.0625,151.50795321146649L38.425000000000004,151.16140715281168L38.7875,150.95372215270996L39.150000000000006,149.8647523244222L39.5125,149.34398770650228L39.875,147.82025630950926L40.237500000000004,146.27036921183267L40.6,144.81259291330974L40.9625,144.44547832489013L41.324999999999996,144.00034591674805L41.6875,142.97399495442707L42.05,140.07665583292643L42.412499999999994,138.60386761983236L42.775,137.20489524841307L43.137499999999996,136.0553549194336L43.5,133.5848475901286L43.8625,133.04044642130535L44.225,133.64893086751303L44.5875,129.7961006418864L44.95,128.6433802541097L45.3125,123.34543172200522L45.675,119.10372217814127L46.0375,123.16022328694662L46.4,121.9356901550293L46.7625,117.01873077392578L47.125,115.32328186035156L47.487500000000004,116.21627858479819L47.85,116.18196563720703L48.212500000000006,111.23099660237631L48.575,113.38759704589845L48.9375,115.16797729492188L49.300000000000004,110.58550577799478L49.6625,116.4186570739746L50.025,116.50280075073242L50.387499999999996,117.28459274291993L50.75,120.90554575602214L51.1125,118.42419001261392L51.474999999999994,116.8757118733724L51.8375,126.96250528971356L52.199999999999996,122.39230585734049L52.5625,121.4304387919108L52.925,120.90314203898112L53.2875,120.64388916015625L53.65,117.15490066528321L54.0125,120.25054870605469L54.375,120.07308558146158L54.7375,113.32861770629883L55.1,119.49804494222006L55.4625,117.37616485595703L55.825,112.9728721110026L56.1875,113.89330108642578L56.550000000000004,113.92199178059896L56.9125,115.59753194173177L57.275000000000006,112.98719029744464L57.6375,115.37100311279298L58,116.47039357503256L58.362500000000004,117.35153467814129L58.725,118.17560221354167L59.0875,116.61825612386069L59.449999999999996,118.2944662475586L59.8125,112.84395411173502L60.175,113.46197194417319L60.537499999999994,110.14265146891275L60.9,115.33509221394857L61.262499999999996,112.23607172648111L61.625,110.87890411376952L61.9875,111.80184092203775L62.35,116.30269017537435L62.7125,114.75723592122397L63.075,118.49561345418294L63.4375,110.74492065429688L63.8,117.50151123046875L64.1625,113.72222071329752L64.525,115.53783284505207L64.8875,114.48328008015949L65.25,109.28280431111655L65.6125,114.21265594482422L65.97500000000001,112.61751129150392L66.3375,107.66618011474608L66.7,119.20174041748047L67.0625,114.82571695963541L67.425,112.49516616821289L67.78750000000001,102.2952848815918L68.14999999999999,110.35577651977539L68.5125,105.9201128133138L68.875,104.49023615519205L69.2375,115.0661203511556L69.6,107.75914647420248L69.96249999999999,112.87581354777018L70.325,109.65695576985675L70.6875,111.88093724568685L71.05,116.3297331237793L71.4125,116.65831807454428L71.775,110.06763376871744L72.1375,111.52933364868164L72.5,111.06718170166016L72.8625,112.37221898396808L73.225,113.37812703450521L73.58749999999999,110.32212900797525L73.95,113.12326512654623L74.3125,113.4090177408854L74.675,113.95856811523439L75.0375,114.22356547037762L75.4,113.82375625610351L75.76249999999999,116.3808132425944L76.125,112.81939636230469L76.4875,107.98445307413736L76.85000000000001,115.92465927124024L77.21249999999999,112.68273305257162L77.575,111.66328542073566L77.9375,112.09265899658203L78.30000000000001,110.98748331705728L78.6625,111.55395477294923L79.025,107.28586318969727L79.3875,113.50466847737631L79.75,104.14891286214193L80.1125,105.23106536865234L80.47500000000001,111.05753967285156L80.8375,109.1595583597819L81.2,115.14932245890301L81.5625,114.52597661336263L81.925,117.67436609903973L82.2875,113.67309616088866L82.64999999999999,109.25731404622394L83.0125,117.76360692342121L83.375,115.95087834676107L83.7375,115.22203603108724L84.1,116.62419525146484L84.4625,116.55436070760089L84.82499999999999,114.1223151143392L85.1875,116.43083409627279L85.55,114.32586151123047L85.91250000000001,112.39443186442057L86.27499999999999,115.29196111043295L86.6375,110.57101104736327L87,109.96953404744467L87.36250000000001,111.12699396769207L87.725,109.48807540893554L88.0875,110.66630416870117L88.45,109.11757705688476L88.8125,105.61333333333332L89.175,109.78100296020509L89.53750000000001,102.23681254069012L89.9,103.3579224650065L90.2625,99.83593831380209L90.625,100.68078826904298L90.9875,104.27655883789063L91.35,106.20317652384439L91.71249999999999,114.62059524536133L92.075,108.17294794718424L92.4375,108.60330835978192L92.8,106.82151575724284L93.1625,100.42294321695965L93.525,102.89686599731445L93.88749999999999,102.98588953653973L94.25,106.46408620198568L94.6125,99.40984212239582L94.97500000000001,107.8741401163737L95.33749999999999,89.99230056762696L95.7,93.03183924357096L96.0625,98.63466374715168L96.42500000000001,93.12954513549805L96.7875,101.4340434773763L97.15,100.0069915262858L97.5125,97.48853434244793L97.875,94.28605895996094L98.2375,98.30807510375976L98.60000000000001,94.96707590738932L98.9625,96.44257792154947L99.325,99.48441167195638L99.6875,94.50206756591797L100.05,91.60862147013346L100.4125,96.7823258972168L100.77499999999999,88.01757232666016L101.1375,93.4334410603841L101.5,89.77856892903647L101.8625,94.34693049112956L102.225,91.28171595255533L102.5875,88.8360130818685L102.94999999999999,86.13686065673828L103.3125,94.72784495035806L103.675,88.77250244140625L104.03750000000001,93.08229919433595L104.39999999999999,91.88896911621094L104.7625,90.96932779947916L105.125,79.94677775065104L105.48750000000001,79.47295125325522L105.85,89.01186467488607L106.2125,90.39017684936523L106.575,93.64212534586588L106.9375,100.4757797241211L107.3,91.06097686767578L107.66250000000001,93.68533793131509L108.025,95.5772216796875L108.3875,101.70296101888019L108.75,95.54908325195314L109.1125,96.3963459777832L109.475,93.57373031616211L109.83749999999999,93.64957641601563L110.2,100.99735463460287L110.5625,91.83028401692707L110.925,94.2654892985026L111.2875,92.09381017049155L111.65,95.9607797749837L112.01249999999999,93.39938613891601L112.375,96.82360102335612L112.7375,94.55896911621093L113.10000000000001,93.94305170694989L113.46249999999999,95.1913639831543L113.825,96.65713795979819L114.1875,94.8509279378255L114.55000000000001,91.78398869832357L114.9125,100.11648966471354L115.275,93.91291244506836L115.6375,98.41266169230143L116,96.67133845011395L116.3625,99.69014450073243L116.72500000000001,96.11465387980142L117.0875,99.86178619384765L117.45,103.20430185953775L117.8125,89.49933939615885L118.175,92.43029434204101L118.5375,96.94652557373047L118.89999999999999,95.47260793050128L119.2625,93.91099761962892L119.625,93.41053558349608L119.9875,98.15632858276368L120.35,96.0789874267578L120.7125,100.71091847737628L121.07499999999999,103.62785400390625L121.4375,94.71967864990233L121.8,90.78145309448243L122.16250000000001,92.17590774536133L122.52499999999999,101.11956395467121L122.8875,96.02064636230469L123.25,99.98524943033853L123.61250000000001,94.29762034098307L123.975,97.4530217997233L124.3375,103.82742589314779L124.7,96.26298721313476L125.0625,99.10610010782877L125.425,94.57428319295248L125.78750000000001,94.77611394246419L126.15,97.63247217814127L126.5125,96.11306950887045L126.875,93.65004720052082L127.2375,93.4894644165039L127.6,93.8821620686849L127.96249999999999,96.47869705200196L128.325,92.92798146565757L128.6875,92.83438135782878L129.05,94.61995381673178L129.4125,90.29826975504557L129.775,91.52095596313477L130.1375,96.4464754740397L130.5,91.31483383178711L130.86249999999998,91.01223709106446L131.225,96.2637205505371L131.5875,88.86331405639649L131.95000000000002,89.08827662150064L132.3125,90.9355354309082L132.675,88.88253926595053L133.0375,89.0135531616211L133.4,93.29688186645508L133.7625,99.08155141194662L134.125,96.63242630004882L134.4875,86.55595845540365L134.85,86.2046083577474L135.2125,89.69271865844726L135.57500000000002,94.40157318115234L135.9375,95.96168965657553L136.29999999999998,93.04135452270508L136.6625,90.14035776774088L137.025,87.81029134114584L137.3875,89.68585606892904L137.75,97.43399576822917L138.1125,97.02582107543945L138.475,92.13864786783856L138.8375,100.67313349405924L139.2,98.42507410685221L139.5625,101.64068618774414L139.92499999999998,94.74503763834635L140.2875,95.90677083333334L140.65,104.7778221130371L141.01250000000002,96.47818552652994L141.375,97.68038808186847L141.7375,92.64476384480793L142.1,92.72993509928385L142.4625,87.57331471761069L142.825,97.9621842956543L143.1875,94.95283467610678L143.55,88.62954238891602L143.9125,93.80060770670572L144.275,86.6014525349935L144.63750000000002,93.92352773030599L145,96.50486633300781L145.36249999999998,93.8483425394694L145.725,89.77487508138022L146.0875,96.89214543660482L146.45,90.60507639567057L146.8125,93.0602628580729L147.17499999999998,89.77191004435221L147.53750000000002,94.0488786315918L147.9,88.44926361083985L148.2625,96.31909657796224L148.625,89.5421853129069L148.9875,95.31496302286786L149.35,84.22562042236328L149.7125,92.09680689493817L150.075,90.66567632039389L150.4375,90.69669830322266L150.8,87.49407806396485L151.1625,87.13220774332682L151.52499999999998,83.28443166097006L151.88750000000002,89.72776041666668L152.25,84.44053354899089L152.6125,87.015190633138L152.975,79.78468302408854L153.3375,85.23263753255209L153.70000000000002,94.11642715454101L154.0625,95.88614232381185L154.42499999999998,83.90982360839844L154.7875,87.87822916666666L155.15,86.23957316080728L155.5125,96.21755198160807L155.875,79.23934254964193L156.23749999999998,90.53492950439454L156.60000000000002,87.43519831339518L156.9625,80.37000396728516L157.325,89.3407846069336L157.6875,95.14543533325195L158.05,87.23468485514323L158.4125,88.17180404663085L158.775,88.45806818644205L159.1375,90.96089441935223L159.5,80.02748107910156L159.8625,94.07727961222331L160.225,81.6508275349935L160.58749999999998,93.8074114481608L160.95000000000002,87.42842625935873L161.3125,90.25435099283854L161.675,91.74346048990887L162.0375,93.35946904500324L162.4,92.96346684773764L162.76250000000002,90.30388748168946L163.125,89.57725875854493L163.48749999999998,91.63034545898438L163.85,97.24604410807294L164.2125,83.38970631917319L164.575,86.83136739095053L164.9375,84.17518310546875L165.29999999999998,87.30627578735351L165.66250000000002,82.71199391682943L166.025,83.18275126139322L166.3875,86.50396392822266L166.75,81.42785675048827L167.1125,88.16515874226889L167.475,86.5313599650065L167.8375,81.38611989339194L168.2,88.83698181152344L168.5625,74.34678700764972L168.925,85.03268086751302L169.2875,82.30959991455079L169.64999999999998,81.25100474039714L170.01250000000002,92.79761489868164L170.375,85.48601013183594L170.7375,86.74594716389974L171.1,92.21292770385742L171.4625,79.71499786376953L171.82500000000002,92.63347407023112L172.1875,87.2290807088216L172.54999999999998,95.15688807169596L172.9125,93.48108083089194L173.275,86.35683471679687L173.6375,92.27197494506837L174,87.08627003987631L174.36249999999998,98.06970876057943L174.72500000000002,99.13350972493491L175.0875,94.7930169169108L175.45,93.66086619059244L175.8125,89.00885437011718L176.175,98.15354008992513L176.5375,90.40175181070963L176.9,90.37335083007812L177.2625,91.09079472859699L177.625,93.62655324300131L177.9875,92.91186162312826L178.35,85.22720540364584L178.71249999999998,81.3804433186849L179.07500000000002,80.35797180175781L179.4375,89L179.8,80.58545125325521L180.1625,74.86289357503256L180.525,85.80034932454427L180.88750000000002,84.88016479492188L181.25,81.43582387288411L181.61249999999998,82.53655426025391L181.975,84.21450266520182L182.3375,89.63420104980469L182.7,80.13352528889975L183.0625,76.13882822672525L183.42499999999998,87.8148860168457L183.78750000000002,84.24548390706379L184.15,85.76008819580078L184.5125,77.96877665201822L184.875,86.36097218831381L185.2375,79.08937957763672L185.6,84.38003774007161L185.9625,78.33193257649738L186.325,80.33092885335287L186.6875,89.1892010498047L187.05,68.85614501953125L187.4125,74.74034474690755L187.77499999999998,75.70442087809246L188.13750000000002,76.56401000976562L188.5,74.56401784261068L188.8625,73.49517405192057L189.225,82.20649810791015L189.5875,78.55941202799478L189.95000000000002,81.57083943684894L190.3125,79.50844116210938L190.67499999999998,82.26674947102865L191.0375,86.00665252685548L191.4,83.26499369303384L191.7625,79.51307657877604L192.125,83.77637430826825L192.48749999999998,81.5007378133138L192.85000000000002,83.44720540364584L193.2125,81.77197306315104L193.575,74.32640747070313L193.9375,85.01571451822916L194.3,82.51060679117838L194.6625,82.44775705973306L195.025,77.2859580485026L195.3875,82.59681467692057L195.75,85.57470774332681L196.1125,89.22287572224936L196.475,93.39657048543295L196.83749999999998,90.97441589355469L197.20000000000002,91.33988499959311L197.5625,90.07523559570313L197.925,90.89955210367837L198.2875,83.73963500976562L198.65,88.24996785481771L199.01250000000002,92.19508768717448L199.375,91.60210744222006L199.73749999999998,89.66678024291991L200.1,87.25130716959634L200.4625,93.86978134155274L200.825,87.06725758870444L201.1875,96.69801472981771L201.54999999999998,90.98668345133463L201.91250000000002,90.19847249348959L202.275,88.81025573730469L202.6375,88.80568369547525L203,91.07812881469727L203.3625,77.58676218668619L203.725,84.1852415974935L204.0875,83.93921142578125L204.45,72.18889190673828L204.8125,78.30595794677734L205.175,85.27272664388022L205.5375,81.7268320719401L205.89999999999998,81.83110178629556L206.26250000000002,77.60491455078125L206.625,86.55441935221356L206.9875,79.5198486328125L207.35,89.26438624064127L207.7125,83.67726511637369L208.07500000000002,86.12814208984375L208.4375,81.39544504801432L208.79999999999998,88.36171579996744L209.1625,89.65326782226563L209.525,91.54387954711913L209.8875,89.88712097167968L210.25,92.2691502380371L210.61249999999998,78.18871449788412L210.97500000000002,88.26653132120768L211.3375,90.32635838826498L211.7,83.34237436930339L212.0625,86.98143900553384L212.425,90.35532974243165L212.7875,86.177900390625L213.15,81.15519104003906L213.5125,85.25458333333334L213.875,86.14400390625L214.2375,90.0148348490397L214.6,83.88527943929037L214.96249999999998,87.7853759765625L215.32500000000002,90.90091466267904L215.6875,89.11983729044596L216.05,86.68031799316407L216.4125,90.31135213216146L216.775,89.91224909464518L217.13750000000002,87.80228800455728L217.5,85.41657847086589L217.86249999999998,90.71928690592448L218.225,93.71627843221029L218.5875,83.94404602050781L218.95,74.56575612386068L219.3125,82.9765838623047L219.67499999999998,89.07493169148763L220.03750000000002,88.38850524902344L220.4,79.89318074544272L220.7625,83.86502665201823L221.125,79.65066335042319L221.4875,71.75692901611328L221.85,77.93449991861979L222.2125,84.08267395019531L222.575,82.06294504801431L222.9375,80.82986989339193L223.3,69.28016794840494L223.6625,67.25160278320313L224.02499999999998,71.62355214436849L224.38750000000002,75.01894053141275L224.75,75.62319244384766L225.1125,70.41392567952472L225.475,74.94432118733722L225.8375,85.9909536743164L226.20000000000002,75.02937021891276L226.5625,76.70573425292969L226.92499999999998,75.23646107991537L227.2875,76.05729197184245L227.65,82.1169947306315L228.0125,77.304997660319L228.375,92.3489119974772L228.73749999999998,84.79641042073568L229.10000000000002,85.01776062011719L229.4625,89.02604705810546L229.825,86.13379150390625L230.1875,90.66189646402994L230.55,84.95636850992838L230.9125,90.08205291748047L231.275,79.48666737874349L231.6375,86.28209767659506L232,80.56690958658854L232.3625,83.40885457356771L232.725,91.08404530843097L233.08749999999998,87.50059209187826L233.45000000000002,88.55271850585937L233.8125,86.34816141764323L234.175,85.13036865234375L234.5375,89.2635442606608L234.9,101.62773508707684L235.26250000000002,94.9235826619466L235.625,88.27866307576498L235.98749999999998,81.48444142659505L236.35,81.39225819905597L236.7125,84.46180033365884L237.075,85.25050923665366L237.4375,86.53813201904296L237.79999999999998,81.34439208984375L238.16250000000002,74.55757171630859L238.525,80.41798777262369L238.8875,74.92805196126302L239.25,72.27862162272135L239.6125,80.00333526611328L239.975,76.97264190673827L240.3375,76.6714756266276L240.7,74.41359313964844L241.0625,78.47082305908204L241.425,68.9597900390625L241.7875,76.53646911621094L242.14999999999998,79.4206489054362L242.51250000000002,80.17496337890626L242.875,73.97672322591144L243.2375,80.69835805257162L243.6,76.97728637695313L243.9625,78.370564066569L244.32500000000002,79.64702382405599L244.6875,84.04755523681641L245.04999999999998,81.6494423421224L245.4125,74.76349466959635L245.775,75.65182881673178L246.1375,68.73085296630859L246.5,74.05407674153646L246.86249999999998,82.66730560302734L247.22500000000002,67.49729797363281L247.5875,76.91694447835287L247.95,82.15371592203778L248.3125,73.54257843017578L248.675,73.69345581054688L249.0375,72.94684590657553L249.4,73.75280181884766L249.7625,76.02344980875651L250.125,79.28289916992188L250.4875,78.7967236328125L250.85,81.53145650227863L251.21249999999998,80.32168518066406L251.57500000000002,75.48786905924479L251.9375,74.5329189046224L252.3,71.11976745605469L252.6625,81.53304992675781L253.025,79.46732899983725L253.38750000000002,82.6289638264974L253.75,72.09354899088541L254.11249999999998,87.53796513875326L254.475,79.48632334391276L254.8375,77.53059397379556L255.2,78.3849501546224L255.5625,71.21647745768229L255.92499999999998,80.62362101236978L256.2875,80.73910807291666L256.65,70.85087707519531L257.0125,77.25579162597656L257.375,79.90822774251302L257.7375,76.54888153076172L258.1,76.90646952311198L258.4625,85.29166666666666L258.825,75.58060455322266L259.1875,82.09353698730469L259.55,74.54523173014323L259.9125,85.4935245768229L260.275,77.08097666422526L260.6375,71.33368469238282L261,76.88004221598307L261.3625,87.59158025105795L261.72499999999997,78.82230895996094L262.08750000000003,73.82914133707682L262.45,84.97267395019531L262.8125,85.8895448811849L263.175,87.35326370239258L263.53749999999997,87.17740305582682L263.90000000000003,83.24499440511069L264.2625,77.88679677327474L264.625,85.19251220703126L264.9875,87.38263793945312L265.35,83.84501831054688L265.7125,86.21471211751303L266.075,85.00762064615887L266.4375,83.38395731608072L266.8,87.72643285115561L267.1625,86.61704274495443L267.525,88.8810454305013L267.8875,94.96766891479493L268.25,92.71673049926758L268.6125,93.2160880025228L268.975,89.95284067789713L269.3375,90.67185536702475L269.7,78.95064300537109L270.0625,84.28512034098307L270.425,85.02466847737631L270.78749999999997,89.24066141764322L271.15000000000003,86.35951456705729L271.5125,89.46618982950845L271.875,88.77305018107096L272.2375,87.33983729044596L272.59999999999997,92.62868474324544L272.96250000000003,94.5475254313151L273.325,85.26448791503907L273.6875,87.67767044067382L274.05,86.16412089029947L274.4125,86.0748347981771L274.775,81.91242075602213L275.1375,88.22273478190104" style="fill: none;" fill="none"></path></g></g></g></g></g></g><g transform="translate(40, 178)" clip-path="url(#clip_1)"><clipPath id="clip_1"><rect width="290" height="22"></rect></clipPath><g><g><line x1="0" y1="0" x2="0" y2="5" style="visibility: inherit;" fill="rgb(0, 0, 0)" stroke="rgb(204, 204, 204)" stroke-width="1px"></line><line x1="36.25" y1="0" x2="36.25" y2="5" style="visibility: inherit;" fill="rgb(0, 0, 0)" stroke="rgb(204, 204, 204)" stroke-width="1px"></line><line x1="72.5" y1="0" x2="72.5" y2="5" style="visibility: inherit;" fill="rgb(0, 0, 0)" stroke="rgb(204, 204, 204)" stroke-width="1px"></line><line x1="108.75" y1="0" x2="108.75" y2="5" style="visibility: inherit;" fill="rgb(0, 0, 0)" stroke="rgb(204, 204, 204)" stroke-width="1px"></line><line x1="145" y1="0" x2="145" y2="5" style="visibility: inherit;" fill="rgb(0, 0, 0)" stroke="rgb(204, 204, 204)" stroke-width="1px"></line><line x1="181.25" y1="0" x2="181.25" y2="5" style="visibility: inherit;" fill="rgb(0, 0, 0)" stroke="rgb(204, 204, 204)" stroke-width="1px"></line><line x1="217.5" y1="0" x2="217.5" y2="5" style="visibility: inherit;" fill="rgb(0, 0, 0)" stroke="rgb(204, 204, 204)" stroke-width="1px"></line><line x1="253.75" y1="0" x2="253.75" y2="5" style="visibility: inherit;" fill="rgb(0, 0, 0)" stroke="rgb(204, 204, 204)" stroke-width="1px"></line><line x1="290" y1="0" x2="290" y2="5" style="visibility: inherit;" fill="rgb(0, 0, 0)" stroke="rgb(204, 204, 204)" stroke-width="1px"></line></g><g transform="translate(0, 8)"><text x="0" y="0" dx="0em" dy="0.95em" style="text-anchor: middle; visibility: hidden; font-family: Roboto, sans-serif; font-size: 12px; font-weight: 200;" fill="rgb(50, 49, 63)" stroke="none" stroke-width="1px">-5M</text><text x="36.25" y="0" dx="0em" dy="0.95em" style="text-anchor: middle; visibility: inherit; font-family: Roboto, sans-serif; font-size: 12px; font-weight: 200;" fill="rgb(50, 49, 63)" stroke="none" stroke-width="1px">0</text><text x="72.5" y="0" dx="0em" dy="0.95em" style="text-anchor: middle; visibility: inherit; font-family: Roboto, sans-serif; font-size: 12px; font-weight: 200;" fill="rgb(50, 49, 63)" stroke="none" stroke-width="1px">5M</text><text x="108.75" y="0" dx="0em" dy="0.95em" style="text-anchor: middle; visibility: inherit; font-family: Roboto, sans-serif; font-size: 12px; font-weight: 200;" fill="rgb(50, 49, 63)" stroke="none" stroke-width="1px">10M</text><text x="145" y="0" dx="0em" dy="0.95em" style="text-anchor: middle; visibility: inherit; font-family: Roboto, sans-serif; font-size: 12px; font-weight: 200;" fill="rgb(50, 49, 63)" stroke="none" stroke-width="1px">15M</text><text x="181.25" y="0" dx="0em" dy="0.95em" style="text-anchor: middle; visibility: inherit; font-family: Roboto, sans-serif; font-size: 12px; font-weight: 200;" fill="rgb(50, 49, 63)" stroke="none" stroke-width="1px">20M</text><text x="217.5" y="0" dx="0em" dy="0.95em" style="text-anchor: middle; visibility: inherit; font-family: Roboto, sans-serif; font-size: 12px; font-weight: 200;" fill="rgb(50, 49, 63)" stroke="none" stroke-width="1px">25M</text><text x="253.75" y="0" dx="0em" dy="0.95em" style="text-anchor: middle; visibility: inherit; font-family: Roboto, sans-serif; font-size: 12px; font-weight: 200;" fill="rgb(50, 49, 63)" stroke="none" stroke-width="1px">30M</text><text x="290" y="0" dx="0em" dy="0.95em" style="text-anchor: middle; visibility: hidden; font-family: Roboto, sans-serif; font-size: 12px; font-weight: 200;" fill="rgb(50, 49, 63)" stroke="none" stroke-width="1px">35M</text></g><line x1="0" y1="0" x2="290" y2="0" fill="rgb(0, 0, 0)" stroke="rgb(204, 204, 204)" stroke-width="1px"></line></g></g></g></g></svg>