<svg viewBox="0 0 330 200" xmlns="http://www.w3.org/2000/svg"><g><g><g><g><g><line x1="72.34375" y1="178" x2="67.34375" y2="178" style="visibility: inherit;" fill="rgb(0, 0, 0)" stroke="rgb(204, 204, 204)" stroke-width="1px"></line><line x1="72.34375" y1="161.8181818181818" x2="67.34375" y2="161.8181818181818" style="visibility: inherit;" fill="rgb(0, 0, 0)" stroke="rgb(204, 204, 204)" stroke-width="1px"></line><line x1="72.34375" y1="145.63636363636363" x2="67.34375" y2="145.63636363636363" style="visibility: inherit;" fill="rgb(0, 0, 0)" stroke="rgb(204, 204, 204)" stroke-width="1px"></line><line x1="72.34375" y1="129.45454545454547" x2="67.34375" y2="129.45454545454547" style="visibility: inherit;" fill="rgb(0, 0, 0)" stroke="rgb(204, 204, 204)" stroke-width="1px"></line><line x1="72.34375" y1="113.27272727272727" x2="67.34375" y2="113.27272727272727" style="visibility: inherit;" fill="rgb(0, 0, 0)" stroke="rgb(204, 204, 204)" stroke-width="1px"></line><line x1="72.34375" y1="97.09090909090908" x2="67.34375" y2="97.09090909090908" style="visibility: inherit;" fill="rgb(0, 0, 0)" stroke="rgb(204, 204, 204)" stroke-width="1px"></line><line x1="72.34375" y1="80.90909090909092" x2="67.34375" y2="80.90909090909092" style="visibility: inherit;" fill="rgb(0, 0, 0)" stroke="rgb(204, 204, 204)" stroke-width="1px"></line><line x1="72.34375" y1="64.72727272727273" x2="67.34375" y2="64.72727272727273" style="visibility: inherit;" fill="rgb(0, 0, 0)" stroke="rgb(204, 204, 204)" stroke-width="1px"></line><line x1="72.34375" y1="48.54545454545454" x2="67.34375" y2="48.54545454545454" style="visibility: inherit;" fill="rgb(0, 0, 0)" stroke="rgb(204, 204, 204)" stroke-width="1px"></line><line x1="72.34375" y1="32.36363636363635" x2="67.34375" y2="32.36363636363635" style="visibility: inherit;" fill="rgb(0, 0, 0)" stroke="rgb(204, 204, 204)" stroke-width="1px"></line><line x1="72.34375" y1="16.181818181818187" x2="67.34375" y2="16.181818181818187" style="visibility: inherit;" fill="rgb(0, 0, 0)" stroke="rgb(204, 204, 204)" stroke-width="1px"></line><line x1="72.34375" y1="0" x2="67.34375" y2="0" style="visibility: inherit;" fill="rgb(0, 0, 0)" stroke="rgb(204, 204, 204)" stroke-width="1px"></line></g><g transform="translate(62.34375, 0)"><text x="0" y="178" dx="0em" dy="0.3em" style="text-anchor: end; visibility: hidden; font-family: Roboto, sans-serif; font-size: 12px; font-weight: 200;" fill="rgb(50, 49, 63)" stroke="none" stroke-width="1px">-200</text><text x="0" y="161.8181818181818" dx="0em" dy="0.3em" style="text-anchor: end; visibility: inherit; font-family: Roboto, sans-serif; font-size: 12px; font-weight: 200;" fill="rgb(50, 49, 63)" stroke="none" stroke-width="1px">0</text><text x="0" y="145.63636363636363" dx="0em" dy="0.3em" style="text-anchor: end; visibility: hidden; font-family: Roboto, sans-serif; font-size: 12px; font-weight: 200;" fill="rgb(50, 49, 63)" stroke="none" stroke-width="1px">200</text><text x="0" y="129.45454545454547" dx="0em" dy="0.3em" style="text-anchor: end; visibility: inherit; font-family: Roboto, sans-serif; font-size: 12px; font-weight: 200;" fill="rgb(50, 49, 63)" stroke="none" stroke-width="1px">400</text><text x="0" y="113.27272727272727" dx="0em" dy="0.3em" style="text-anchor: end; visibility: hidden; font-family: Roboto, sans-serif; font-size: 12px; font-weight: 200;" fill="rgb(50, 49, 63)" stroke="none" stroke-width="1px">600</text><text x="0" y="97.09090909090908" dx="0em" dy="0.3em" style="text-anchor: end; visibility: inherit; font-family: Roboto, sans-serif; font-size: 12px; font-weight: 200;" fill="rgb(50, 49, 63)" stroke="none" stroke-width="1px">800</text><text x="0" y="80.90909090909092" dx="0em" dy="0.3em" style="text-anchor: end; visibility: hidden; font-family: Roboto, sans-serif; font-size: 12px; font-weight: 200;" fill="rgb(50, 49, 63)" stroke="none" stroke-width="1px">1e+3</text><text x="0" y="64.72727272727273" dx="0em" dy="0.3em" style="text-anchor: end; visibility: inherit; font-family: Roboto, sans-serif; font-size: 12px; font-weight: 200;" fill="rgb(50, 49, 63)" stroke="none" stroke-width="1px">1.2e+3</text><text x="0" y="48.54545454545454" dx="0em" dy="0.3em" style="text-anchor: end; visibility: hidden; font-family: Roboto, sans-serif; font-size: 12px; font-weight: 200;" fill="rgb(50, 49, 63)" stroke="none" stroke-width="1px">1.4e+3</text><text x="0" y="32.36363636363635" dx="0em" dy="0.3em" style="text-anchor: end; visibility: inherit; font-family: Roboto, sans-serif; font-size: 12px; font-weight: 200;" fill="rgb(50, 49, 63)" stroke="none" stroke-width="1px">1.6e+3</text><text x="0" y="16.181818181818187" dx="0em" dy="0.3em" style="text-anchor: end; visibility: hidden; font-family: Roboto, sans-serif; font-size: 12px; font-weight: 200;" fill="rgb(50, 49, 63)" stroke="none" stroke-width="1px">1.8e+3</text><text x="0" y="0" dx="0em" dy="0.3em" style="text-anchor: end; visibility: hidden; font-family: Roboto, sans-serif; font-size: 12px; font-weight: 200;" fill="rgb(50, 49, 63)" stroke="none" stroke-width="1px">2e+3</text></g><line x1="72.34375" y1="0" x2="72.34375" y2="178" fill="rgb(0, 0, 0)" stroke="rgb(204, 204, 204)" stroke-width="1px"></line></g></g><g transform="translate(72, 0)" clip-path="url(#clip_0)"><clipPath id="clip_0"><rect width="257" height="178"></rect></clipPath><g><g><g><line x1="0" y1="0" x2="0" y2="178" fill="rgb(0, 0, 0)" stroke="rgb(60, 60, 60)" stroke-width="1px" opacity="0.25"></line><line x1="32.20703125" y1="0" x2="32.20703125" y2="178" fill="rgb(0, 0, 0)" stroke="rgb(60, 60, 60)" stroke-width="1px" opacity="0.25"></line><line x1="64.4140625" y1="0" x2="64.4140625" y2="178" fill="rgb(0, 0, 0)" stroke="rgb(60, 60, 60)" stroke-width="1px" opacity="0.25"></line><line x1="96.62109375" y1="0" x2="96.62109375" y2="178" fill="rgb(0, 0, 0)" stroke="rgb(60, 60, 60)" stroke-width="1px" opacity="0.25"></line><line x1="128.828125" y1="0" x2="128.828125" y2="178" fill="rgb(0, 0, 0)" stroke="rgb(60, 60, 60)" stroke-width="1px" opacity="0.25"></line><line x1="161.03515625" y1="0" x2="161.03515625" y2="178" fill="rgb(0, 0, 0)" stroke="rgb(60, 60, 60)" stroke-width="1px" opacity="0.25"></line><line x1="193.2421875" y1="0" x2="193.2421875" y2="178" fill="rgb(0, 0, 0)" stroke="rgb(60, 60, 60)" stroke-width="1px" opacity="0.25"></line><line x1="225.44921875" y1="0" x2="225.44921875" y2="178" fill="rgb(0, 0, 0)" stroke="rgb(60, 60, 60)" stroke-width="1px" opacity="0.25"></line><line x1="257.65625" y1="0" x2="257.65625" y2="178" fill="rgb(0, 0, 0)" stroke="rgb(60, 60, 60)" stroke-width="1px" opacity="0.25"></line></g><g><line x1="0" y1="178" x2="257.65625" y2="178" fill="rgb(0, 0, 0)" stroke="rgb(60, 60, 60)" stroke-width="1px" opacity="0.25"></line><line x1="0" y1="161.8181818181818" x2="257.65625" y2="161.8181818181818" fill="rgb(0, 0, 0)" stroke="rgb(60, 60, 60)" stroke-width="1px" opacity="0.25"></line><line x1="0" y1="145.63636363636363" x2="257.65625" y2="145.63636363636363" fill="rgb(0, 0, 0)" stroke="rgb(60, 60, 60)" stroke-width="1px" opacity="0.25"></line><line x1="0" y1="129.45454545454547" x2="257.65625" y2="129.45454545454547" fill="rgb(0, 0, 0)" stroke="rgb(60, 60, 60)" stroke-width="1px" opacity="0.25"></line><line x1="0" y1="113.27272727272727" x2="257.65625" y2="113.27272727272727" fill="rgb(0, 0, 0)" stroke="rgb(60, 60, 60)" stroke-width="1px" opacity="0.25"></line><line x1="0" y1="97.09090909090908" x2="257.65625" y2="97.09090909090908" fill="rgb(0, 0, 0)" stroke="rgb(60, 60, 60)" stroke-width="1px" opacity="0.25"></line><line x1="0" y1="80.90909090909092" x2="257.65625" y2="80.90909090909092" fill="rgb(0, 0, 0)" stroke="rgb(60, 60, 60)" stroke-width="1px" opacity="0.25"></line><line x1="0" y1="64.72727272727273" x2="257.65625" y2="64.72727272727273" fill="rgb(0, 0, 0)" stroke="rgb(60, 60, 60)" stroke-width="1px" opacity="0.25"></line><line x1="0" y1="48.54545454545454" x2="257.65625" y2="48.54545454545454" fill="rgb(0, 0, 0)" stroke="rgb(60, 60, 60)" stroke-width="1px" opacity="0.25"></line><line x1="0" y1="32.36363636363635" x2="257.65625" y2="32.36363636363635" fill="rgb(0, 0, 0)" stroke="rgb(60, 60, 60)" stroke-width="1px" opacity="0.25"></line><line x1="0" y1="16.181818181818187" x2="257.65625" y2="16.181818181818187" fill="rgb(0, 0, 0)" stroke="rgb(60, 60, 60)" stroke-width="1px" opacity="0.25"></line><line x1="0" y1="0" x2="257.65625" y2="0" fill="rgb(0, 0, 0)" stroke="rgb(60, 60, 60)" stroke-width="1px" opacity="0.25"></line></g></g></g><g><g><line x1="0" y1="161.8181818181818" x2="257.65625" y2="161.8181818181818" fill="rgb(0, 0, 0)" stroke="rgb(153, 153, 153)" stroke-width="1.5px"></line></g></g><g><g><line x1="32.20703125" y1="0" x2="32.20703125" y2="178" fill="rgb(0, 0, 0)" stroke="rgb(153, 153, 153)" stroke-width="1.5px"></line></g></g><g><g><g><g><g><path stroke="rgb(238, 51, 119)" stroke-width="2px" d="M32.5291015625,158.083671281988L32.851171875,156.4925839428468L33.1732421875,156.1954887845211L33.495312500000004,156.42012427699757L33.8173828125,156.27910016078226L34.139453125,156.38055374435677L34.4615234375,155.4797432161825L34.78359375,155.42575754262234L35.105664062500004,155.56506912822417L35.427734375,156.06897521743934L35.7498046875,156.4403939063843L36.071875000000006,156.33224012168276L36.393945312499994,156.1102757158365L36.716015625,156.17619726581935L37.0380859375,156.98749847642333L37.360156249999996,157.13879597164308L37.6822265625,157.11911426173936L38.004296875,157.54208196067955L38.3263671875,157.69562472004105L38.6484375,157.99051897564226L38.970507812499996,157.94582229008589L39.292578125,157.93301751415103L39.6146484375,157.9341867273301L39.93671875,158.08169630274858L40.2587890625,158.2364394404604L40.580859375,158.14308183887644L40.9029296875,157.8708344772601L41.225,157.6184880358305L41.547070312500004,157.78066731085303L41.869140625,157.04683670887795L42.1912109375,156.8302876239332L42.51328125,156.35193450195436L42.8353515625,155.14954493774584L43.157421875000004,154.20966409170248L43.4794921875,152.9851516777124L43.8015625,151.41309143985322L44.123632812500006,149.84102416015773L44.445703124999994,147.8490061235523L44.7677734375,146.74177110330518L45.08984375,145.94048908580547L45.411914062499996,144.54020168677707L45.733984375,143.8181538541815L46.0560546875,142.09938073752755L46.378125,140.73082018144845L46.7001953125,139.2210903975083L47.022265624999996,138.4483317841777L47.3443359375,136.98881923868709L47.66640625,136.62601924872612L47.9884765625,135.2675349001584L48.310546875,134.65168490271438L48.6326171875,133.91439607346098L48.9546875,133.15774646420934L49.2767578125,131.7216712494393L49.598828125000004,130.20084419142336L49.9208984375,129.65389566391264L50.24296875,129.71223733398324L50.5650390625,129.16263366015545L50.887109375,128.6991956524142L51.209179687500004,127.8560314406317L51.53125,127.44702332771354L51.8533203125,126.09284687571187L52.175390625000006,126.05302381035256L52.497460937499994,125.86836068402758L52.81953125,125.08556105485901L53.1416015625,123.75180932245732L53.463671874999996,123.12570838511144L53.7857421875,123.69907531071885L54.1078125,123.6718884681252L54.4298828125,123.60519978675225L54.751953125,122.70681638305987L55.074023437499996,121.93781074380964L55.39609375,120.78035510306846L55.7181640625,121.1433947468553L56.040234375,120.66331243848961L56.3623046875,120.55999000437573L56.684375,120.12194211164531L57.0064453125,119.44015203900423L57.328515625,119.26142791551904L57.650585937500004,118.02235111188244L57.97265625,118.9215077241252L58.2947265625,118.67958501000778L58.616796875,118.40584400138818L58.9388671875,118.89302622061275L59.260937500000004,117.83865746265884L59.5830078125,117.7010157444632L59.905078125,118.49794769241656L60.227148437500006,118.96286826921414L60.549218749999994,118.5665931650086L60.8712890625,119.11429616445258L61.193359375,119.67445110066018L61.515429687499996,117.81840547928815L61.8375,118.09564804609563L62.1595703125,116.82545425734487L62.481640625,116.85928511655183L62.8037109375,116.35118563846802L63.125781249999996,115.4093643926689L63.4478515625,115.07586009067944L63.769921875,114.47543331293039L64.0919921875,113.92515742650114L64.4140625,113.48651326804556L64.73613281249999,113.48494995301483L65.058203125,112.9081075339538L65.3802734375,112.10513831298591L65.70234375,111.96002432745775L66.0244140625,112.28796465861952L66.346484375,112.14592203913479L66.66855468749999,112.80012180480189L66.99062500000001,111.8914946915459L67.3126953125,111.34486458836504L67.634765625,112.78716202805455L67.9568359375,112.68703587539098L68.27890625,112.13993723457408L68.6009765625,111.57781206109246L68.923046875,110.85639655394948L69.2451171875,110.8306309898981L69.5671875,110.99892970810791L69.88925781249999,109.97625035860054L70.21132812500001,110.70583044864753L70.5333984375,110.05547567508341L70.85546875,110.79817971435402L71.1775390625,111.17629954114793L71.499609375,108.52701128097428L71.8216796875,107.01146935292405L72.14375000000001,105.38569972698879L72.4658203125,104.5233566037714L72.78789062499999,103.30130286940062L73.1099609375,103.06184917103667L73.43203125,103.82561507346718L73.7541015625,103.10592042458457L74.076171875,103.85945144686721L74.3982421875,103.21455063995982L74.72031249999999,101.58237855514066L75.04238281250001,101.20098281934148L75.364453125,101.08533514171143L75.6865234375,100.63905753033936L76.00859375,100.53672002956725L76.3306640625,99.8118215019378L76.652734375,99.36188773425927L76.9748046875,97.39080198537089L77.296875,97.87853610066858L77.6189453125,98.46116731469802L77.94101562499999,98.67093687230602L78.26308593750001,99.08092660314215L78.58515625,98.71044887292932L78.9072265625,98.72048747450333L79.229296875,98.4916214309023L79.5513671875,99.07438678787376L79.8734375,99.90994499442169L80.19550781250001,100.87558076618427L80.517578125,99.51760629440518L80.83964843749999,99.76804431197692L81.16171875,99.01165912891199L81.4837890625,95.5575940879651L81.805859375,96.73175085530038L82.1279296875,96.77424025483505L82.45,97.07056601458427L82.77207031249999,97.45045641894231L83.09414062500001,97.73201861343924L83.4162109375,98.05065355087606L83.73828125,97.71767555559664L84.0603515625,98.92860473410373L84.382421875,98.56097345392104L84.7044921875,100.33084918687678L85.0265625,100.61015102491015L85.3486328125,100.00701970319183L85.670703125,99.26951018395346L85.99277343749999,97.0124778610823L86.31484375000001,97.73519048529285L86.6369140625,98.14819572317143L86.958984375,98.60871313258893L87.2810546875,99.23836874869399L87.603125,101.09916689019651L87.9251953125,100.55933633795313L88.24726562500001,100.71321646008722L88.5693359375,100.0764560434884L88.89140624999999,99.96148868291122L89.2134765625,99.1213257159612L89.535546875,98.75024003184944L89.8576171875,98.21848073342075L90.1796875,99.94029178699847L90.5017578125,100.22453278260392L90.82382812499999,100.46004959232513L91.14589843750001,101.06436866697179L91.46796875,101.18532914141177L91.7900390625,101.09509365849762L92.112109375,101.93830253298921L92.4341796875,101.70486375523386L92.75625,101.02898516986619L93.0783203125,101.60491334091118L93.400390625,101.13024840848848L93.7224609375,102.2721872420036L94.04453124999999,101.15054150447062L94.36660156250001,99.47372824518948L94.688671875,97.78507057637506L95.0107421875,96.55254833836764L95.3328125,95.35583937233876L95.6548828125,94.3868772917271L95.976953125,93.9206157438218L96.29902343750001,92.13556651216665L96.62109375,91.93191956372753L96.94316406249999,91.48114290478482L97.265234375,92.05020551826152L97.5873046875,90.7510413906799L97.909375,90.00161122911675L98.2314453125,90.75488918952973L98.553515625,89.66031898957011L98.87558593749999,89.09882480549632L99.19765625000001,87.91224654345406L99.5197265625,87.95669884492895L99.841796875,87.1081456164389L100.1638671875,87.07375804191591L100.4859375,85.70695506485124L100.8080078125,85.70183681288091L101.130078125,85.82734929120866L101.4521484375,85.59476371179908L101.77421875,86.04556823240614L102.09628906249999,82.74846571749765L102.41835937500001,82.74995445269317L102.7404296875,80.88422400329205L103.0625,82.23402610119398L103.3845703125,80.93850506057433L103.706640625,80.99190716897957L104.0287109375,79.90063355920022L104.35078125000001,77.9095419785599L104.6728515625,79.17284832278935L104.99492187499999,80.71731945620914L105.3169921875,80.10538224101951L105.6390625,80.50114760189153L105.9611328125,80.30839603627697L106.283203125,79.36990596338552L106.6052734375,78.39349604607108L106.92734374999999,78.05720012231595L107.24941406250001,75.51926343276459L107.571484375,73.48239683806784L107.8935546875,72.90233476477253L108.215625,74.71439641994307L108.5376953125,75.94074727135505L108.859765625,75.27714260997212L109.1818359375,75.33529444382417L109.50390625,74.2033445018769L109.8259765625,74.51669757470567L110.14804687499999,72.67951299617282L110.47011718750001,68.1444167820787L110.7921875,69.60920351384951L111.1142578125,68.37919274041198L111.436328125,69.87852412258525L111.7583984375,69.4233658052273L112.08046875,71.12889315146025L112.40253906250001,71.64647243206932L112.724609375,73.736850122949L113.04667968749999,73.87004335679494L113.36875,72.58830828502869L113.6908203125,70.37072587123028L114.012890625,71.07361387856203L114.3349609375,70.98837300575937L114.65703125,69.29973593946414L114.97910156249999,69.84955298945974L115.30117187500001,69.78300052592016L115.6232421875,67.6594782274839L115.9453125,68.92005940630567L116.2673828125,67.31624489449362L116.589453125,67.10162255814505L116.9115234375,68.20969157465976L117.23359375,69.35872332547767L117.5556640625,69.86292850878093L117.877734375,69.93711257401857L118.19980468749999,67.67545318006454L118.52187500000001,68.46969910974327L118.8439453125,63.79477907166983L119.166015625,64.03396048277462L119.4880859375,67.37700905777555L119.81015625,66.10509557138407L120.1322265625,68.20861424979067L120.45429687500001,63.45249947139428L120.7763671875,61.37149661998145L121.09843749999999,61.6791307045883L121.4205078125,62.208953564798435L121.742578125,62.81049132389327L122.0646484375,63.84239054185017L122.38671875,60.276910310550434L122.7087890625,58.645978572693906L123.03085937499999,59.938871145747015L123.35292968750001,57.037537398030615L123.675,53.83097889300872L123.9970703125,52.392766978916L124.319140625,52.78243344729279L124.6412109375,52.7014701003359L124.96328125,48.97244895473279L125.2853515625,50.84236572404706L125.607421875,51.780393777468L125.9294921875,54.75222348238989L126.25156249999999,56.14996805605326L126.57363281250001,59.854752184839334L126.895703125,57.37343458505135L127.2177734375,56.691384303942726L127.53984375,59.38015453478042L127.8619140625,58.44466574110974L128.183984375,60.00578226604369L128.5060546875,58.3646166430069L128.828125,56.532781704554125L129.1501953125,55.552709550076244L129.47226562499998,58.03537169062814L129.7943359375,57.4105552675729L130.11640625,56.687298048682955L130.4384765625,55.453003474096136L130.760546875,54.12435828119064L131.0826171875,55.1733838785155L131.4046875,55.62828370068885L131.72675781249998,52.965665577302524L132.048828125,53.489710425926965L132.37089843750002,51.29787552757324L132.69296875,55.0451868754928L133.0150390625,53.7770662712474L133.33710937499998,57.69386924605809L133.6591796875,55.958275027748485L133.98125000000002,53.99805907737352L134.3033203125,54.031164858711065L134.625390625,56.24596396316697L134.9474609375,54.788935622218354L135.26953125,56.35835884314636L135.5916015625,57.72137215070316L135.913671875,58.91723260327699L136.23574218750002,59.61633099484975L136.5578125,55.265681586966664L136.8798828125,54.034799843515216L137.201953125,54.410552535725614L137.52402343749998,57.14807339821094L137.84609375,57.61962435675327L138.1681640625,54.649069225202524L138.490234375,58.603850448473786L138.8123046875,55.59935403683996L139.134375,55.32025575484545L139.4564453125,58.10325266277942L139.77851562499998,57.2788621534205L140.1005859375,54.68426162798979L140.42265625000002,51.22833028112627L140.7447265625,52.72535918607631L141.066796875,52.241694293606L141.38886718749998,50.54984412410395L141.7109375,52.226774638524866L142.03300781250002,47.454068289862064L142.355078125,49.92191505062179L142.6771484375,46.09122968555773L142.99921875,47.47380284151931L143.3212890625,47.869230746104776L143.643359375,46.366716847875935L143.9654296875,46.91899632854089L144.28750000000002,44.47506763022113L144.6095703125,45.79481574681166L144.931640625,46.33733582592788L145.2537109375,45.322451300244246L145.57578124999998,42.38099603760393L145.8978515625,48.14570144891181L146.219921875,50.141828184687995L146.5419921875,50.07059446940655L146.8640625,49.404316953305866L147.1861328125,52.45434736303466L147.508203125,50.53167318167023L147.83027343749998,49.69826402974076L148.15234375,50.858589232830255L148.47441406250002,48.04498117641692L148.796484375,47.84596633369106L149.1185546875,49.977833129404985L149.44062499999998,48.2621316514356L149.7626953125,53.56534046990964L150.08476562500002,51.6445490528975L150.4068359375,52.64785110254815L150.72890625,54.473791716216404L151.0509765625,47.624269037187226L151.373046875,47.476185312582224L151.6951171875,47.02904370708061L152.0171875,43.241853292785294L152.33925781250002,43.647317852801855L152.661328125,42.14271923618396L152.9833984375,42.315031710389356L153.30546875,39.17204068816542L153.62753906249998,40.49276658264357L153.949609375,42.146066155196934L154.2716796875,39.81498943566079L154.59375,43.829382821552706L154.9158203125,39.14841507112766L155.237890625,34.03169716945216L155.5599609375,35.93567131125935L155.88203124999998,35.949077680221514L156.2041015625,38.27932697922667L156.52617187500002,35.2442865284451L156.8482421875,37.046741128714785L157.1703125,41.27014539633398L157.49238281249998,39.104065087587315L157.814453125,37.179453434654675L158.13652343750002,36.80968240347747L158.45859375,39.20815629933081L158.7806640625,43.771433774271785L159.102734375,47.93713756392387L159.4248046875,45.16819282777193L159.746875,47.15972131633645L160.0689453125,51.46392183454619L160.39101562500002,49.59534781841237L160.7130859375,48.709215083092886L161.03515625,49.15356851185857L161.3572265625,50.357758117058324L161.67929687499998,48.83226335745092L162.0013671875,43.734088971501784L162.3234375,47.73194645818516L162.6455078125,48.45116126091963L162.967578125,47.16897396713417L163.2896484375,47.131766393774825L163.61171875,45.504079855796135L163.93378906249998,47.73415041702882L164.255859375,46.489245088640594L164.57792968750002,46.46663578720424L164.9,43.55892278979413L165.2220703125,47.82666612948727L165.54414062499998,50.20115801398499L165.8662109375,46.147643982751795L166.18828125000002,51.943575292349955L166.5103515625,51.55507410829349L166.832421875,52.87397015744769L167.1544921875,53.526024051144766L167.4765625,54.51191450170957L167.7986328125,54.43684951778711L168.120703125,49.141762631481924L168.44277343750002,48.69096760197155L168.76484375,46.291309387532365L169.0869140625,48.06121523124099L169.408984375,44.87177317283551L169.73105468749998,42.43557664340302L170.053125,42.299069041794674L170.3751953125,44.456276164068264L170.697265625,43.20406581385289L171.0193359375,45.18124857034298L171.34140625,44.174368771112036L171.6634765625,45.96947988305075L171.98554687499998,50.64699319439011L172.3076171875,49.674825399943714L172.62968750000002,45.762882056372476L172.9517578125,46.909823338937116L173.273828125,48.27045801259521L173.59589843749998,43.82845112147759L173.91796875,42.402977322389376L174.24003906250002,40.74067226878873L174.562109375,34.94547496106017L174.8841796875,34.08741703451964L175.20625,31.986163599618035L175.5283203125,32.39004892326515L175.850390625,33.36972346795056L176.1724609375,36.719273889008974L176.49453125000002,36.70043387353323L176.8166015625,31.43418317568244L177.138671875,32.10441548957139L177.4607421875,33.305769188984314L177.78281249999998,36.472331275464455L178.1048828125,34.512983903773L178.426953125,35.051348447732536L178.7490234375,31.44220905976166L179.07109375,30.10859967236268L179.3931640625,32.69933483005114L179.715234375,36.578193760246585L180.03730468749998,36.377518795210456L180.359375,33.8955994784757L180.68144531250002,38.98183647153144L181.003515625,37.684296263245585L181.3255859375,37.56547357648428L181.64765624999998,42.234923306046795L181.9697265625,43.87229631317355L182.29179687500002,43.34804904145527L182.6138671875,40.67751328495841L182.9359375,41.395769645335854L183.2580078125,42.76196618173274L183.580078125,41.54840467352829L183.9021484375,42.144008446872654L184.22421875,40.871265863578124L184.54628906250002,41.068202433629835L184.868359375,37.58287573929721L185.1904296875,40.75634893434537L185.5125,36.85497644157312L185.83457031249998,35.26894626977341L186.156640625,33.57361243515951L186.4787109375,31.67575934674909L186.80078125,27.725855599171616L187.1228515625,32.04656578315355L187.444921875,33.91195576073019L187.7669921875,31.45423755444947L188.08906249999998,35.656133930041854L188.4111328125,34.50137975433192L188.73320312500002,31.882460265596315L189.0552734375,31.4229685688038L189.37734375,33.76489202551523L189.69941406249998,33.60087591133187L190.021484375,34.31348111320536L190.34355468750002,33.21509008837778L190.665625,34.65079104698974L190.9876953125,34.545276874287595L191.309765625,33.92305563984244L191.6318359375,29.524752417996353L191.95390625,32.78841261912169L192.2759765625,28.52236482111789L192.59804687500002,30.926497017670734L192.9201171875,30.029858171539953L193.2421875,31.646620646887058L193.5642578125,32.00732759054699L193.88632812499998,30.873798587353768L194.2083984375,32.74237285802306L194.53046875,37.39012661786782L194.8525390625,40.369104868092855L195.174609375,37.55553394358297L195.4966796875,36.68165368468672L195.81875,38.6115613691927L196.14082031249998,40.1790568943139L196.462890625,39.93024983261108L196.78496093750002,43.406672626839374L197.10703125,44.69052679165761L197.4291015625,43.979171810079805L197.75117187499998,42.20644715565015L198.0732421875,44.38575776427078L198.39531250000002,47.61799678391757L198.7173828125,52.51738427418578L199.039453125,54.40534871081828L199.3615234375,51.411637315979604L199.68359375,53.13409864491446L200.0056640625,52.05395186272994L200.327734375,50.938933795194764L200.64980468750002,43.53671423663392L200.971875,45.21934734524739L201.2939453125,44.30696494123936L201.616015625,43.91329042603622L201.93808593749998,43.931743920039345L202.26015625,40.558216495844626L202.5822265625,38.23513937016301L202.904296875,29.57087645768019L203.2263671875,31.45288738028993L203.5484375,30.220512435276234L203.8705078125,26.890933837231096L204.19257812499998,29.497123335009125L204.5146484375,25.01456546052252L204.83671875000002,25.58849180649817L205.1587890625,27.306089801583582L205.480859375,29.841210033293894L205.80292968749998,32.22473831578599L206.125,33.284301130451716L206.44707031250002,35.02566075639603L206.769140625,32.337312114348975L207.0912109375,30.595120977771327L207.41328125,30.196036054347445L207.7353515625,29.5036403648528L208.057421875,27.178945937661684L208.3794921875,25.32720230158849L208.70156250000002,16.399721638410476L209.0236328125,16.094698306199703L209.345703125,22.213973103038L209.6677734375,26.28395994491938L209.98984374999998,32.67947917185219L210.3119140625,34.31085254217381L210.633984375,33.861536294480416L210.9560546875,32.61232629550927L211.278125,33.94812939768907L211.6001953125,38.78146375367026L211.922265625,39.03366695958852L212.24433593749998,41.26780142752866L212.56640625,46.39203841155981L212.88847656250002,46.6416167791802L213.210546875,45.76070524151382L213.5326171875,46.059465625377044L213.85468749999998,50.25312042636259L214.1767578125,49.96772146568972L214.49882812500002,52.632088934101326L214.8208984375,49.940007089153994L215.14296875,49.25933699496966L215.4650390625,43.0994363589136L215.787109375,45.621197637436225L216.1091796875,45.15605873693617L216.43125,43.07173081211907L216.75332031250002,41.92349116837941L217.075390625,39.747281845914024L217.3974609375,36.05046347899727L217.71953125,36.80302400359155L218.04160156249998,39.81228315215494L218.363671875,42.350591349034445L218.6857421875,45.90606952000305L219.0078125,45.598224852981936L219.3298828125,42.42318837414714L219.651953125,42.914292374630314L219.9740234375,43.00351363500546L220.29609374999998,36.94560507375896L220.6181640625,41.84505049986617L220.94023437500002,42.15428340716402L221.2623046875,43.99982643634388L221.584375,44.17067298361031L221.90644531249998,44.09552856822016L222.228515625,40.7665046853213L222.55058593750002,41.482863437968355L222.87265625,38.20368033195714L223.1947265625,36.12012044171689L223.516796875,37.29802365885117L223.8388671875,38.877201047228304L224.1609375,44.649986599572784L224.4830078125,40.64790983971526L224.80507812500002,38.637259531314946L225.1271484375,34.810082458845784L225.44921875,38.7744568794268L225.7712890625,34.86326095294016L226.09335937499998,37.42998498085501L226.4154296875,36.83573002437948L226.7375,41.62012804481233L227.0595703125,45.180283769359L227.381640625,43.12361912525177L227.7037109375,43.47123108985277L228.02578125,44.05162847990599L228.34785156249998,41.07960355278735L228.669921875,37.148200874570115L228.99199218750002,38.91162609114833L229.3140625,38.59577927684808L229.6361328125,35.22234438606626L229.95820312499998,36.25668264371364L230.2802734375,35.86946963594408L230.60234375000002,41.5496605635267L230.9244140625,36.15090748868419L231.246484375,39.75166594207416L231.5685546875,38.945957395500194L231.890625,40.31890207401888L232.2126953125,33.45590623020678L232.534765625,32.95924486560987L232.85683593750002,37.17448197795968L233.17890625,32.09082941227297L233.5009765625,27.255588955957514L233.823046875,25.164673375350073L234.14511718749998,25.00914839665892L234.4671875,27.872088824927168L234.7892578125,33.58494882940232L235.111328125,32.10594723620674L235.4333984375,26.93520399513316L235.75546875,25.945093721653755L236.0775390625,28.0604786406627L236.39960937499998,27.064452578573782L236.7216796875,27.115768937059045L237.04375000000002,26.479283938584857L237.3658203125,27.203907721105455L237.687890625,22.631313959722924L238.00996093749998,17.686813145009896L238.33203125,15.110447661508761L238.65410156250002,12.526771748538787L238.976171875,12.885230618370421L239.2982421875,13.215443369246671L239.6203125,19.88338667140597L239.9423828125,21.513836290840736L240.264453125,21.844442221947617L240.5865234375,18.965656854830513L240.90859375000002,17.796847992514795L241.2306640625,17.372221987980467L241.552734375,16.42869984761783L241.8748046875,17.99521271751956L242.19687499999998,12.755712325113999L242.5189453125,10.753150273264408L242.841015625,14.622373029725715L243.1630859375,16.292699119682016L243.48515625,16.621769063428506L243.8072265625,16.16345628003153L244.129296875,19.876125303885406L244.45136718749998,18.78138532082555" style="fill: none;" fill="none"></path></g></g></g></g><g opacity="0.2"><g><g><g><path stroke="rgb(238, 51, 119)" stroke-width="2px" d="M32.5291015625,158.083671281988L32.851171875,155.53793153936215L33.1732421875,155.9102774325284L33.495312500000004,156.6842956161499L33.8173828125,156.09497907465155L34.139453125,156.52090057373047L34.4615234375,154.1915697479248L34.78359375,155.34704591230914L35.105664062500004,155.7705266571045L35.427734375,156.81721703269264L35.7498046875,156.99415319962935L36.071875000000006,156.1705980127508L36.393945312499994,155.7780538593639L36.716015625,156.2749504436146L37.0380859375,158.20349663821133L37.360156249999996,157.365635507757L37.6822265625,157.0896000255238L38.004296875,158.17642611763694L38.3263671875,157.92591546838935L38.6484375,158.43283340454101L38.970507812499996,157.8787797130238L39.292578125,157.91381077159534L39.6146484375,157.93594052401457L39.93671875,158.30295891848476L40.2587890625,158.4685530471802L40.580859375,158.003045834628L40.9029296875,157.46246413144198L41.225,157.2399687610973L41.547070312500004,158.0239360739968L41.869140625,155.94609121149236L42.1912109375,156.5054640683261L42.51328125,155.6344049141624L42.8353515625,153.34596073497426L43.157421875000004,152.79984288995917L43.4794921875,151.1483831093528L43.8015625,149.05500112360176L44.123632812500006,147.48292326493697L44.445703124999994,144.860979087136L44.7677734375,145.08091857910156L45.08984375,144.73856606223367L45.411914062499996,142.43977059104225L45.733984375,142.7350821061568L46.0560546875,139.52122106378727L46.378125,138.6779793479226L46.7001953125,136.9564957219904L47.022265624999996,137.2891938643022L47.3443359375,134.79955042058774L47.66640625,136.08181926380504L47.9884765625,133.2298083773526L48.310546875,133.72790990656074L48.6326171875,132.80846282958984L48.9546875,132.02277205033735L49.2767578125,129.56755842729046L49.598828125000004,127.91960360440339L49.9208984375,128.83347287264738L50.24296875,129.79974983908915L50.5650390625,128.33822814941408L50.887109375,128.00403864080258L51.209179687500004,126.59128512295808L51.53125,126.8335111583363L51.8533203125,124.06158219770951L52.175390625000006,125.99328921231356L52.497460937499994,125.59136599454014L52.81953125,123.91136161110617L53.1416015625,121.75118172385474L53.463671874999996,122.1865569790927L53.7857421875,124.55912569912998L54.1078125,123.63110820423472L54.4298828125,123.50516676469283L54.751953125,121.3592412775213L55.074023437499996,120.7843022849343L55.39609375,119.04417164195668L55.7181640625,121.68795421253552L56.040234375,119.94318897594106L56.3623046875,120.40500635320491L56.684375,119.4648702725497L57.0064453125,118.41746693004262L57.328515625,118.99334173029119L57.650585937500004,116.16373590642756L57.97265625,120.27024264248934L58.2947265625,118.31670093883167L58.616796875,117.99523248845881L58.9388671875,119.62379954944957L59.260937500000004,116.25710432572798L59.5830078125,117.49455316716974L59.905078125,119.69334561434658L60.227148437500006,119.6602491344105L60.549218749999994,117.97218050870029L60.8712890625,119.93585066361861L61.193359375,120.5146835049716L61.515429687499996,115.03433704723011L61.8375,118.51151189630681L62.1595703125,114.92016357421875L62.481640625,116.9100314053622L62.8037109375,115.58903642134233L63.125781249999996,113.99663252397018L63.4478515625,114.57560363769531L63.769921875,113.57479314630682L64.0919921875,113.09974359685724L64.4140625,112.8285470303622L64.73613281249999,113.48260498046875L65.058203125,112.0428439053622L65.3802734375,110.90068448153409L65.70234375,111.74235334916548L66.0244140625,112.7798751553622L66.346484375,111.93285810990768L66.66855468749999,113.78142145330256L66.99062500000001,110.52855402166193L67.3126953125,110.52491943359375L67.634765625,114.95060818758877L67.9568359375,112.5368466463956L68.27890625,111.31928927334873L68.6009765625,110.73462430087004L68.923046875,109.77427329323508L69.2451171875,110.79198264382102L69.5671875,111.2513777854226L69.88925781249999,108.44223133433948L70.21132812500001,111.80020058371802L70.5333984375,109.07994351473721L70.85546875,111.91223577325995L71.1775390625,111.74347928133876L71.499609375,104.55307889071376L71.8216796875,104.73815646084873L72.14375000000001,102.94704528808595L72.4658203125,103.22984191894531L72.78789062499999,101.46822226784445L73.1099609375,102.70266862349077L73.43203125,104.97126392711293L73.7541015625,102.02637845126064L74.076171875,104.9897479802912L74.3982421875,102.24719942959871L74.72031249999999,99.13412042791192L75.04238281250001,100.62888921564276L75.364453125,100.91186362526634L75.6865234375,99.96964111328126L76.00859375,100.3832137784091L76.3306640625,98.72447371049361L76.652734375,98.68698708274148L76.9748046875,94.43417336203836L77.296875,98.61013727361505L77.6189453125,99.33511413574219L77.94101562499999,98.98559120871802L78.26308593750001,99.6959111993963L78.58515625,98.15473227761008L78.9072265625,98.73554537686434L79.229296875,98.1483223655007L79.5513671875,99.94853482333096L79.8734375,101.16328230424361L80.19550781250001,102.32403442382812L80.517578125,97.4806445867365L80.83964843749999,100.14370133833451L81.16171875,97.87708135431463L81.4837890625,90.37649652654476L81.805859375,98.49298600630327L82.1279296875,96.83797435413707L82.45,97.51505465420809L82.77207031249999,98.02029202547942L83.09414062500001,98.15436190518467L83.4162109375,98.52860595703126L83.73828125,97.21820856267756L84.0603515625,100.74499850186433L84.382421875,98.00952653364702L84.7044921875,102.98566278631037L85.0265625,101.02910378196023L85.3486328125,99.10232272061435L85.670703125,98.16324590509588L85.99277343749999,93.62692937677556L86.31484375000001,98.81925942160868L86.6369140625,98.76770357998933L86.958984375,99.2994892467152L87.2810546875,100.18285217285157L87.603125,103.89036410245029L87.9251953125,99.74959050958806L88.24726562500001,100.94403664328836L88.5693359375,99.1213154185902L88.89140624999999,99.78903764204544L89.2134765625,97.86108126553623L89.535546875,98.19361150568182L89.8576171875,97.4208417857777L90.1796875,102.52300836736505L90.5017578125,100.65089427601208L90.82382812499999,100.81332480690698L91.14589843750001,101.97084727894176L91.46796875,101.36676985307174L91.7900390625,100.95974043412643L92.112109375,103.20311584472657L92.4341796875,101.35470558860086L92.75625,100.01516729181462L93.0783203125,102.46880559747869L93.400390625,100.41825100985439L93.7224609375,103.98509549227627L94.04453124999999,99.46807289817117L94.36660156250001,96.95850835626776L94.688671875,95.2520840731534L95.0107421875,94.70376498135654L95.3328125,93.56077592329545L95.6548828125,92.93343417080965L95.976953125,93.22122342196377L96.29902343750001,89.45799266468396L96.62109375,91.62644914106889L96.94316406249999,90.80497791637075L97.265234375,92.90379943847657L97.5873046875,88.80229519930752L97.909375,88.87746598677201L98.2314453125,91.88480613014914L98.553515625,88.01846368963068L98.87558593749999,88.25658352938567L99.19765625000001,86.13237915039062L99.5197265625,88.02337729714132L99.841796875,85.83531577370383L100.1638671875,87.0221766801314L100.4859375,83.65675059925425L100.8080078125,85.69415943492542L101.130078125,86.01561800870027L101.4521484375,85.24588534268464L101.77421875,86.72177501331676L102.09628906249999,77.80281194513495L102.41835937500001,82.7521875554865L102.7404296875,78.08562832919033L103.0625,84.25872924804688L103.3845703125,78.99522349964488L103.706640625,81.07201033158736L104.0287109375,78.26372314453126L104.35078125000001,74.92290460759943L104.6728515625,81.06780783913352L104.99492187499999,83.03402615633877L105.3169921875,79.18747641823508L105.6390625,81.09479564319957L105.9611328125,80.01926868785512L106.283203125,77.9621708540483L106.6052734375,76.92888117009943L106.92734374999999,77.55275623668324L107.24941406250001,71.7123583984375L107.571484375,70.42709694602273L107.8935546875,72.03224165482955L108.215625,77.43248890269886L108.5376953125,77.780273548473L108.859765625,74.28173561789774L109.1818359375,75.42252219460227L109.50390625,72.50541958895596L109.8259765625,74.98672718394887L110.14804687499999,69.92373612837358L110.47011718750001,61.341772460937506L110.7921875,71.80638361150568L111.1142578125,66.53417658025569L111.436328125,72.12752119584518L111.7583984375,68.74062832919033L112.08046875,73.68718417080967L112.40253906250001,72.42284135298296L112.724609375,76.87241665926845L113.04667968749999,74.06983320756393L113.36875,70.66570567737926L113.6908203125,67.04435225053267L114.012890625,72.12794588955967L114.3349609375,70.86051169655539L114.65703125,66.76678034002131L114.97910156249999,70.67427856445312L115.30117187500001,69.6831718306108L115.6232421875,64.47419477982955L115.9453125,70.81093117453835L116.2673828125,64.91052312677557L116.589453125,66.77968905362215L116.9115234375,69.87179509943182L117.23359375,71.08227095170454L117.5556640625,70.6192362837358L117.877734375,70.048388671875L118.19980468749999,64.28296408913351L118.52187500000001,69.66106800426137L118.8439453125,56.782399014559665L119.166015625,64.39273259943182L119.4880859375,72.39158192027699L119.81015625,64.19722534179688L120.1322265625,71.36389226740057L120.45429687500001,56.31832730379971L120.7763671875,58.24999234286222L121.09843749999999,62.14058183149859L121.4205078125,63.00368785511365L121.742578125,63.712797962535504L122.0646484375,65.39023936878552L122.38671875,54.92868996360085L122.7087890625,56.199580965909085L123.03085937499999,61.878210005326714L123.35292968750001,52.68553677645597L123.675,49.02114113547585L123.9970703125,50.23544910777698L124.319140625,53.366933149857964L124.6412109375,52.580025079900565L124.96328125,43.37891723632812L125.2853515625,53.64724087801847L125.607421875,53.18743585759944L125.9294921875,59.209968039772725L126.25156249999999,58.2465849165483L126.57363281250001,65.41192837801846L126.895703125,53.65145818536932L127.2177734375,55.66830888227984L127.53984375,63.41330988103694L127.8619140625,57.04143255060369L128.183984375,62.347457053444614L128.5060546875,55.902868208451714L128.828125,53.785029296874995L129.1501953125,54.08260131835938L129.47226562499998,61.75936490145596L129.7943359375,56.473330632990056L130.11640625,55.60241222034802L130.4384765625,53.60156161221591L130.760546875,52.13139049183238L131.0826171875,56.74692227450284L131.4046875,56.310633433948865L131.72675781249998,48.971738392223L132.048828125,54.275777698863635L132.37089843750002,48.010123180042605L132.69296875,60.66615389737216L133.0150390625,51.87488536487927L133.33710937499998,63.56907370827415L133.6591796875,53.3548837002841L133.98125000000002,51.05773515181107L134.3033203125,54.080823530717325L134.625390625,59.568162619850845L134.9474609375,52.60339311079546L135.26953125,58.712493674538344L135.5916015625,59.76589211203835L135.913671875,60.71102328213778L136.23574218750002,60.6649785822088L136.5578125,48.739707475142055L136.8798828125,52.18847722833807L137.201953125,54.9741815740412L137.52402343749998,61.25435469193893L137.84609375,58.326950794566756L138.1681640625,50.193236527876415L138.490234375,64.53602228338069L138.8123046875,51.09260941938921L139.134375,54.901608331853694L139.4564453125,62.2777480246804L139.77851562499998,56.0422763893821L140.1005859375,50.79236083984375L140.42265625000002,46.044433260830964L140.7447265625,54.97090254350142L141.066796875,51.516196954900565L141.38886718749998,48.012068869850864L141.7109375,54.74217041015625L142.03300781250002,40.2950087668679L142.355078125,53.62368519176137L142.6771484375,40.34520163796164L142.99921875,49.54766257546165L143.3212890625,48.46237260298296L143.643359375,44.112946000532666L143.9654296875,47.74741554953835L144.28750000000002,40.80917458274147L144.6095703125,47.77443792169744L144.931640625,47.151115944602275L145.2537109375,43.80012451171875L145.57578124999998,37.968813143643466L145.8978515625,56.79275956587359L146.219921875,53.13601828835226L146.5419921875,49.963743896484374L146.8640625,48.40490067915482L147.1861328125,57.02939297762784L147.508203125,47.64766190962359L147.83027343749998,48.44815030184659L148.15234375,52.5990770374645L148.47441406250002,43.824569091796874L148.796484375,47.54744406960227L149.1185546875,53.17563332297585L149.44062499999998,45.68857943448153L149.7626953125,61.52015369762074L150.08476562500002,48.76336192737927L150.4068359375,54.15280417702414L150.72890625,57.212702636718745L151.0509765625,37.34998501864347L151.373046875,47.254059725674715L151.6951171875,46.35833129882812L152.0171875,37.561067671342336L152.33925781250002,44.255514692826694L152.661328125,39.8858213112571L152.9833984375,42.573500421697446L153.30546875,34.45755415482955L153.62753906249998,42.473855424360806L153.949609375,44.62601551402699L154.2716796875,36.318374356356536L154.59375,49.85097290039063L154.9158203125,32.12696344549006L155.237890625,26.35662031693893L155.5599609375,38.79163252397018L155.88203124999998,35.969187233664776L156.2041015625,41.77470092773437L156.52617187500002,30.691725852272736L156.8482421875,39.75042302911932L157.1703125,47.60525179776278L157.49238281249998,35.85494462446732L157.814453125,34.29253595525569L158.13652343750002,36.25502585671165L158.45859375,42.8058671431108L158.7806640625,50.61634998668325L159.102734375,54.18569324840199L159.4248046875,41.01477572354403L159.746875,50.14701404918324L160.0689453125,57.92022261186079L160.39101562500002,46.79248679421165L160.7130859375,47.38001598011365L161.03515625,49.820098655007094L161.3572265625,52.16404252485795L161.67929687499998,46.54402121803978L162.0013671875,36.08682739257813L162.3234375,53.72873268821022L162.6455078125,49.5299834650213L162.967578125,45.24569302645596L163.2896484375,47.07595503373579L163.61171875,43.06255004882813L163.93378906249998,51.07925625887784L164.255859375,44.621887096058245L164.57792968750002,46.43272183504971L164.9,39.19735329367899L165.2220703125,54.22828113902699L165.54414062499998,53.76289584073154L165.8662109375,40.06737293590198L166.18828125000002,60.63747225674715L166.5103515625,50.972322332208805L166.832421875,54.85231423117897L167.1544921875,54.50410489169034L167.4765625,55.99075017755682L167.7986328125,54.324252041903414L168.120703125,41.19913230202415L168.44277343750002,48.01477505770597L168.76484375,42.69182206587359L169.0869140625,50.71607399680398L169.408984375,40.087610085227276L169.73105468749998,38.781281849254256L170.053125,42.0943076393821L170.3751953125,47.69208684747869L170.697265625,41.32575028852984L171.0193359375,48.14702270507813L171.34140625,42.66404907226563L171.6634765625,48.66214655095881L171.98554687499998,57.66326316139915L172.3076171875,48.21657370827415L172.62968750000002,39.89496704101562L172.9517578125,48.63023526278409L173.273828125,50.311410023082395L173.59589843749998,37.165440784801135L173.91796875,40.26476662375711L174.24003906250002,38.24721468838778L174.562109375,26.252678999467324L174.8841796875,32.80033014470881L175.20625,28.834283447265616L175.5283203125,32.99587690873579L175.850390625,34.839235284978706L176.1724609375,41.7435995205966L176.49453125000002,36.6721738503196L176.8166015625,23.53480712890625L177.138671875,33.10976396040482L177.4607421875,35.107799738103694L177.78281249999998,41.22217440518465L178.1048828125,31.573962846235798L178.426953125,35.85889526367187L178.7490234375,26.028499977805403L179.07109375,28.108185591264206L179.3931640625,36.585437566583806L179.715234375,42.39648215553978L180.03730468749998,36.07650634765625L180.359375,30.17272050337357L180.68144531250002,46.611191961115054L181.003515625,35.73798595081677L181.3255859375,37.387239546342336L181.64765624999998,49.23909790039062L181.9697265625,46.32835582386363L182.29179687500002,42.56167813387784L182.6138671875,36.67170965021306L182.9359375,42.47315418590199L183.2580078125,44.81126098632812L183.580078125,39.72806241122159L183.9021484375,43.03741410688921L184.22421875,38.962151988636364L184.54628906250002,41.363607288707385L184.868359375,32.35488569779829L185.1904296875,45.51655872691762L185.5125,31.002917702414766L185.83457031249998,32.889901012073864L186.156640625,31.030611683238636L186.4787109375,28.82897971413353L186.80078125,21.800999977805393L187.1228515625,38.52763105912641L187.444921875,36.710040727095176L187.7669921875,27.767660245028402L188.08906249999998,41.9589784934304L188.4111328125,32.769248490767055L188.73320312500002,27.9540810324929L189.0552734375,30.733731023615064L189.37734375,37.277777210582386L189.69941406249998,33.354851740056816L190.021484375,35.38238891601563L190.34355468750002,31.56750355113637L190.665625,36.80434248490768L190.9876953125,34.38700561523437L191.309765625,32.98972378817472L191.6318359375,22.92729758522727L191.95390625,37.683902920809665L192.2759765625,22.123293124112216L192.59804687500002,34.532695312499996L192.9201171875,28.68489990234374L193.2421875,34.071764359907675L193.5642578125,32.54838800603693L193.88632812499998,29.173505082563914L194.2083984375,35.54523426402698L194.53046875,44.361757257634956L194.8525390625,44.83757224343039L195.174609375,33.33517755681818L195.4966796875,35.37083329634233L195.81875,41.50642289595171L196.14082031249998,42.53030018199574L196.462890625,39.55703924005683L196.78496093750002,48.62130681818182L197.10703125,46.61630803888494L197.4291015625,42.91213933771307L197.75117187499998,39.54736017400569L198.0732421875,47.65472367720171L198.39531250000002,52.46635531338779L198.7173828125,59.86646550958807L199.039453125,57.237295365767054L199.3615234375,46.92107022372159L199.68359375,55.71779063831676L200.0056640625,50.433731689453126L200.327734375,49.26640669389205L200.64980468750002,32.4333848987926L200.971875,47.743297008167616L201.2939453125,42.93839133522727L201.616015625,43.32277865323153L201.93808593749998,43.95942416104403L202.26015625,35.49792535955255L202.5822265625,34.75052368164063L202.904296875,16.574482088955968L203.2263671875,34.275903764204536L203.5484375,28.371950017755676L203.8705078125,21.89656594016335L204.19257812499998,33.406407581676135L204.5146484375,18.290728648792623L204.83671875000002,26.44938132546165L205.1587890625,29.88248679421165L205.480859375,33.643890380859375L205.80292968749998,35.80003073952415L206.125,34.87364535245029L206.44707031250002,37.637700195312505L206.769140625,28.304789151278406L207.0912109375,27.98183427290482L207.41328125,29.597408669211653L207.7353515625,28.4650468306108L208.057421875,23.69190429687499L208.3794921875,22.549586847478693L208.70156250000002,3.0085006436434645L209.0236328125,15.637163307883515L209.345703125,31.392885298295457L209.6677734375,32.38894020774148L209.98984374999998,42.27275801225143L210.3119140625,36.757912597656244L210.633984375,33.18756192294034L210.9560546875,30.73851129705255L211.278125,35.95183405095881L211.6001953125,46.03146528764204L211.922265625,39.41197176846591L212.24433593749998,44.619003129438916L212.56640625,54.07839388760653L212.88847656250002,47.015984330610806L213.210546875,44.439337935014194L213.5326171875,46.50760620117188L213.85468749999998,56.543602627840905L214.1767578125,49.5396230246804L214.49882812500002,56.628640136718744L214.8208984375,45.90188432173296L215.14296875,48.23833185369318L215.4650390625,33.85958540482954L215.787109375,49.403839555220166L216.1091796875,44.45835038618607L216.43125,39.94523892489347L216.75332031250002,40.201131702769885L217.075390625,36.48296786221591L217.3974609375,30.505235928622167L217.71953125,37.93186479048295L218.04160156249998,44.326171875L218.363671875,46.158053644353686L218.6857421875,51.23928677645596L219.0078125,45.136457852450285L219.3298828125,37.660633655894884L219.651953125,43.650948375355114L219.9740234375,43.13734552556818L220.29609374999998,27.858742231889195L220.6181640625,49.19421863902698L220.94023437500002,42.61813276811079L221.2623046875,46.76814098011363L221.584375,44.426942804509956L221.90644531249998,43.98281194513494L222.228515625,35.77296886097301L222.55058593750002,42.557401566938914L222.87265625,33.28490567294035L223.1947265625,32.994780606356535L223.516796875,39.064878484552544L223.8388671875,41.24596712979403L224.1609375,53.30916492808948L224.4830078125,34.64479469992897L224.80507812500002,35.62128406871448L225.1271484375,29.069316850142037L225.44921875,44.721018510298286L225.7712890625,28.99646706321023L226.09335937499998,41.28007102272728L226.4154296875,35.944347589666194L226.7375,48.79672507546164L227.0595703125,50.52051735617898L227.381640625,40.03862215909091L227.7037109375,43.99264903675426L228.02578125,44.92222456498579L228.34785156249998,36.621566162109374L228.669921875,31.251096857244324L228.99199218750002,41.556763916015626L229.3140625,38.12200905539772L229.6361328125,30.16219204989347L229.95820312499998,37.808190030184655L230.2802734375,35.28865012428978L230.60234375000002,50.06994695490057L230.9244140625,28.052777876420453L231.246484375,45.15280362215909L231.5685546875,37.73739457563921L231.890625,42.37831909179687L232.2126953125,23.161412464488638L232.534765625,32.21425281871448L232.85683593750002,43.49733764648437L233.17890625,24.46535056374289L233.5009765625,20.002728271484372L233.823046875,22.02830000443891L234.14511718749998,24.77586092862216L234.4671875,32.16649946732954L234.7892578125,42.154238836115056L235.111328125,29.887444846413356L235.4333984375,19.179089133522734L235.75546875,24.45992831143466L236.0775390625,31.233556019176138L236.39960937499998,25.570413485440348L236.7216796875,27.192743474786937L237.04375000000002,25.52455644087359L237.3658203125,28.290843394886362L237.687890625,15.772423317649148L238.00996093749998,10.270061922940332L238.33203125,11.245899436257098L238.65410156250002,8.651257879083817L238.976171875,13.422918923117894L239.2982421875,13.710762495561072L239.6203125,29.88530162464488L239.9423828125,23.959510719992895L240.264453125,22.340351118607963L240.5865234375,14.647478804154835L240.90859375000002,16.043634699041192L241.2306640625,16.73528298117898L241.552734375,15.013416637073854L241.8748046875,20.344982022372157L242.19687499999998,4.896461736505685L242.5189453125,7.749307195490061L242.841015625,20.42620716441762L243.1630859375,18.79818825461647L243.48515625,17.115373979048297L243.8072265625,15.475987104936086L244.129296875,25.4451288396662L244.45136718749998,17.139275346235806" style="fill: none;" fill="none"></path></g></g></g></g></g></g><g transform="translate(72, 178)" clip-path="url(#clip_1)"><clipPath id="clip_1"><rect width="257" height="22"></rect></clipPath><g><g><line x1="0" y1="0" x2="0" y2="5" style="visibility: inherit;" fill="rgb(0, 0, 0)" stroke="rgb(204, 204, 204)" stroke-width="1px"></line><line x1="32.20703125" y1="0" x2="32.20703125" y2="5" style="visibility: inherit;" fill="rgb(0, 0, 0)" stroke="rgb(204, 204, 204)" stroke-width="1px"></line><line x1="64.4140625" y1="0" x2="64.4140625" y2="5" style="visibility: inherit;" fill="rgb(0, 0, 0)" stroke="rgb(204, 204, 204)" stroke-width="1px"></line><line x1="96.62109375" y1="0" x2="96.62109375" y2="5" style="visibility: inherit;" fill="rgb(0, 0, 0)" stroke="rgb(204, 204, 204)" stroke-width="1px"></line><line x1="128.828125" y1="0" x2="128.828125" y2="5" style="visibility: inherit;" fill="rgb(0, 0, 0)" stroke="rgb(204, 204, 204)" stroke-width="1px"></line><line x1="161.03515625" y1="0" x2="161.03515625" y2="5" style="visibility: inherit;" fill="rgb(0, 0, 0)" stroke="rgb(204, 204, 204)" stroke-width="1px"></line><line x1="193.2421875" y1="0" x2="193.2421875" y2="5" style="visibility: inherit;" fill="rgb(0, 0, 0)" stroke="rgb(204, 204, 204)" stroke-width="1px"></line><line x1="225.44921875" y1="0" x2="225.44921875" y2="5" style="visibility: inherit;" fill="rgb(0, 0, 0)" stroke="rgb(204, 204, 204)" stroke-width="1px"></line><line x1="257.65625" y1="0" x2="257.65625" y2="5" style="visibility: inherit;" fill="rgb(0, 0, 0)" stroke="rgb(204, 204, 204)" stroke-width="1px"></line></g><g transform="translate(0, 8)"><text x="0" y="0" dx="0em" dy="0.95em" style="text-anchor: middle; visibility: hidden; font-family: Roboto, sans-serif; font-size: 12px; font-weight: 200;" fill="rgb(50, 49, 63)" stroke="none" stroke-width="1px">-5M</text><text x="32.20703125" y="0" dx="0em" dy="0.95em" style="text-anchor: middle; visibility: inherit; font-family: Roboto, sans-serif; font-size: 12px; font-weight: 200;" fill="rgb(50, 49, 63)" stroke="none" stroke-width="1px">0</text><text x="64.4140625" y="0" dx="0em" dy="0.95em" style="text-anchor: middle; visibility: inherit; font-family: Roboto, sans-serif; font-size: 12px; font-weight: 200;" fill="rgb(50, 49, 63)" stroke="none" stroke-width="1px">5M</text><text x="96.62109375" y="0" dx="0em" dy="0.95em" style="text-anchor: middle; visibility: inherit; font-family: Roboto, sans-serif; font-size: 12px; font-weight: 200;" fill="rgb(50, 49, 63)" stroke="none" stroke-width="1px">10M</text><text x="128.828125" y="0" dx="0em" dy="0.95em" style="text-anchor: middle; visibility: inherit; font-family: Roboto, sans-serif; font-size: 12px; font-weight: 200;" fill="rgb(50, 49, 63)" stroke="none" stroke-width="1px">15M</text><text x="161.03515625" y="0" dx="0em" dy="0.95em" style="text-anchor: middle; visibility: inherit; font-family: Roboto, sans-serif; font-size: 12px; font-weight: 200;" fill="rgb(50, 49, 63)" stroke="none" stroke-width="1px">20M</text><text x="193.2421875" y="0" dx="0em" dy="0.95em" style="text-anchor: middle; visibility: inherit; font-family: Roboto, sans-serif; font-size: 12px; font-weight: 200;" fill="rgb(50, 49, 63)" stroke="none" stroke-width="1px">25M</text><text x="225.44921875" y="0" dx="0em" dy="0.95em" style="text-anchor: middle; visibility: inherit; font-family: Roboto, sans-serif; font-size: 12px; font-weight: 200;" fill="rgb(50, 49, 63)" stroke="none" stroke-width="1px">30M</text><text x="257.65625" y="0" dx="0em" dy="0.95em" style="text-anchor: middle; visibility: hidden; font-family: Roboto, sans-serif; font-size: 12px; font-weight: 200;" fill="rgb(50, 49, 63)" stroke="none" stroke-width="1px">35M</text></g><line x1="0" y1="0" x2="257.65625" y2="0" fill="rgb(0, 0, 0)" stroke="rgb(204, 204, 204)" stroke-width="1px"></line></g></g></g></g></svg>