<svg viewBox="0 0 330 200" xmlns="http://www.w3.org/2000/svg"><g><g><g><g><g><line x1="72.34375" y1="178" x2="67.34375" y2="178" style="visibility: inherit;" fill="rgb(0, 0, 0)" stroke="rgb(204, 204, 204)" stroke-width="1px"></line><line x1="72.34375" y1="155.74999999999991" x2="67.34375" y2="155.74999999999991" style="visibility: inherit;" fill="rgb(0, 0, 0)" stroke="rgb(204, 204, 204)" stroke-width="1px"></line><line x1="72.34375" y1="133.49999999999983" x2="67.34375" y2="133.49999999999983" style="visibility: inherit;" fill="rgb(0, 0, 0)" stroke="rgb(204, 204, 204)" stroke-width="1px"></line><line x1="72.34375" y1="111.24999999999976" x2="67.34375" y2="111.24999999999976" style="visibility: inherit;" fill="rgb(0, 0, 0)" stroke="rgb(204, 204, 204)" stroke-width="1px"></line><line x1="72.34375" y1="88.99999999999969" x2="67.34375" y2="88.99999999999969" style="visibility: inherit;" fill="rgb(0, 0, 0)" stroke="rgb(204, 204, 204)" stroke-width="1px"></line><line x1="72.34375" y1="66.75000000000024" x2="67.34375" y2="66.75000000000024" style="visibility: inherit;" fill="rgb(0, 0, 0)" stroke="rgb(204, 204, 204)" stroke-width="1px"></line><line x1="72.34375" y1="44.500000000000156" x2="67.34375" y2="44.500000000000156" style="visibility: inherit;" fill="rgb(0, 0, 0)" stroke="rgb(204, 204, 204)" stroke-width="1px"></line><line x1="72.34375" y1="22.250000000000078" x2="67.34375" y2="22.250000000000078" style="visibility: inherit;" fill="rgb(0, 0, 0)" stroke="rgb(204, 204, 204)" stroke-width="1px"></line><line x1="72.34375" y1="0" x2="67.34375" y2="0" style="visibility: inherit;" fill="rgb(0, 0, 0)" stroke="rgb(204, 204, 204)" stroke-width="1px"></line></g><g transform="translate(62.34375, 0)"><text x="0" y="178" dx="0em" dy="0.3em" style="text-anchor: end; visibility: hidden; font-family: Roboto, sans-serif; font-size: 12px; font-weight: 200;" fill="rgb(50, 49, 63)" stroke="none" stroke-width="1px">0.068</text><text x="0" y="155.74999999999991" dx="0em" dy="0.3em" style="text-anchor: end; visibility: inherit; font-family: Roboto, sans-serif; font-size: 12px; font-weight: 200;" fill="rgb(50, 49, 63)" stroke="none" stroke-width="1px">0.0685</text><text x="0" y="133.49999999999983" dx="0em" dy="0.3em" style="text-anchor: end; visibility: hidden; font-family: Roboto, sans-serif; font-size: 12px; font-weight: 200;" fill="rgb(50, 49, 63)" stroke="none" stroke-width="1px">0.069</text><text x="0" y="111.24999999999976" dx="0em" dy="0.3em" style="text-anchor: end; visibility: inherit; font-family: Roboto, sans-serif; font-size: 12px; font-weight: 200;" fill="rgb(50, 49, 63)" stroke="none" stroke-width="1px">0.0695</text><text x="0" y="88.99999999999969" dx="0em" dy="0.3em" style="text-anchor: end; visibility: hidden; font-family: Roboto, sans-serif; font-size: 12px; font-weight: 200;" fill="rgb(50, 49, 63)" stroke="none" stroke-width="1px">0.07</text><text x="0" y="66.75000000000024" dx="0em" dy="0.3em" style="text-anchor: end; visibility: inherit; font-family: Roboto, sans-serif; font-size: 12px; font-weight: 200;" fill="rgb(50, 49, 63)" stroke="none" stroke-width="1px">0.0705</text><text x="0" y="44.500000000000156" dx="0em" dy="0.3em" style="text-anchor: end; visibility: hidden; font-family: Roboto, sans-serif; font-size: 12px; font-weight: 200;" fill="rgb(50, 49, 63)" stroke="none" stroke-width="1px">0.071</text><text x="0" y="22.250000000000078" dx="0em" dy="0.3em" style="text-anchor: end; visibility: inherit; font-family: Roboto, sans-serif; font-size: 12px; font-weight: 200;" fill="rgb(50, 49, 63)" stroke="none" stroke-width="1px">0.0715</text><text x="0" y="0" dx="0em" dy="0.3em" style="text-anchor: end; visibility: hidden; font-family: Roboto, sans-serif; font-size: 12px; font-weight: 200;" fill="rgb(50, 49, 63)" stroke="none" stroke-width="1px">0.072</text></g><line x1="72.34375" y1="0" x2="72.34375" y2="178" fill="rgb(0, 0, 0)" stroke="rgb(204, 204, 204)" stroke-width="1px"></line></g></g><g transform="translate(72, 0)" clip-path="url(#clip_0)"><clipPath id="clip_0"><rect width="257" height="178"></rect></clipPath><g><g><g><line x1="0" y1="0" x2="0" y2="178" fill="rgb(0, 0, 0)" stroke="rgb(60, 60, 60)" stroke-width="1px" opacity="0.25"></line><line x1="32.20703125" y1="0" x2="32.20703125" y2="178" fill="rgb(0, 0, 0)" stroke="rgb(60, 60, 60)" stroke-width="1px" opacity="0.25"></line><line x1="64.4140625" y1="0" x2="64.4140625" y2="178" fill="rgb(0, 0, 0)" stroke="rgb(60, 60, 60)" stroke-width="1px" opacity="0.25"></line><line x1="96.62109375" y1="0" x2="96.62109375" y2="178" fill="rgb(0, 0, 0)" stroke="rgb(60, 60, 60)" stroke-width="1px" opacity="0.25"></line><line x1="128.828125" y1="0" x2="128.828125" y2="178" fill="rgb(0, 0, 0)" stroke="rgb(60, 60, 60)" stroke-width="1px" opacity="0.25"></line><line x1="161.03515625" y1="0" x2="161.03515625" y2="178" fill="rgb(0, 0, 0)" stroke="rgb(60, 60, 60)" stroke-width="1px" opacity="0.25"></line><line x1="193.2421875" y1="0" x2="193.2421875" y2="178" fill="rgb(0, 0, 0)" stroke="rgb(60, 60, 60)" stroke-width="1px" opacity="0.25"></line><line x1="225.44921875" y1="0" x2="225.44921875" y2="178" fill="rgb(0, 0, 0)" stroke="rgb(60, 60, 60)" stroke-width="1px" opacity="0.25"></line><line x1="257.65625" y1="0" x2="257.65625" y2="178" fill="rgb(0, 0, 0)" stroke="rgb(60, 60, 60)" stroke-width="1px" opacity="0.25"></line></g><g><line x1="0" y1="178" x2="257.65625" y2="178" fill="rgb(0, 0, 0)" stroke="rgb(60, 60, 60)" stroke-width="1px" opacity="0.25"></line><line x1="0" y1="155.74999999999991" x2="257.65625" y2="155.74999999999991" fill="rgb(0, 0, 0)" stroke="rgb(60, 60, 60)" stroke-width="1px" opacity="0.25"></line><line x1="0" y1="133.49999999999983" x2="257.65625" y2="133.49999999999983" fill="rgb(0, 0, 0)" stroke="rgb(60, 60, 60)" stroke-width="1px" opacity="0.25"></line><line x1="0" y1="111.24999999999976" x2="257.65625" y2="111.24999999999976" fill="rgb(0, 0, 0)" stroke="rgb(60, 60, 60)" stroke-width="1px" opacity="0.25"></line><line x1="0" y1="88.99999999999969" x2="257.65625" y2="88.99999999999969" fill="rgb(0, 0, 0)" stroke="rgb(60, 60, 60)" stroke-width="1px" opacity="0.25"></line><line x1="0" y1="66.75000000000024" x2="257.65625" y2="66.75000000000024" fill="rgb(0, 0, 0)" stroke="rgb(60, 60, 60)" stroke-width="1px" opacity="0.25"></line><line x1="0" y1="44.500000000000156" x2="257.65625" y2="44.500000000000156" fill="rgb(0, 0, 0)" stroke="rgb(60, 60, 60)" stroke-width="1px" opacity="0.25"></line><line x1="0" y1="22.250000000000078" x2="257.65625" y2="22.250000000000078" fill="rgb(0, 0, 0)" stroke="rgb(60, 60, 60)" stroke-width="1px" opacity="0.25"></line><line x1="0" y1="0" x2="257.65625" y2="0" fill="rgb(0, 0, 0)" stroke="rgb(60, 60, 60)" stroke-width="1px" opacity="0.25"></line></g></g></g><g><g><line x1="0" y1="3204.000000000008" x2="257.65625" y2="3204.000000000008" fill="rgb(0, 0, 0)" stroke="rgb(153, 153, 153)" stroke-width="1.5px"></line></g></g><g><g><line x1="32.20703125" y1="0" x2="32.20703125" y2="178" fill="rgb(0, 0, 0)" stroke="rgb(153, 153, 153)" stroke-width="1.5px"></line></g></g><g><g><g><g><g><path stroke="rgb(238, 51, 119)" stroke-width="2px" d="M32.5291015625,79.10153651237484L32.851171875,30.16960629820808L33.1732421875,2.457707753594912L33.495312500000004,44.490560718428476L33.8173828125,75.30442007052488L34.139453125,69.41107834729955L34.4615234375,90.54964756772125L34.78359375,78.68495210250212L35.105664062500004,85.57779491709202L35.427734375,91.07989840617554L35.7498046875,81.25431368418928L36.071875000000006,94.42910859909863L36.393945312499994,90.90530229893213L36.716015625,102.97662416227693L37.0380859375,65.49716071480596L37.360156249999996,14.869859059217744L37.6822265625,8.638169235254638L38.004296875,69.4455411158814L38.3263671875,44.96123793949387L38.6484375,96.45489318450855L38.970507812499996,82.83767463170763L39.292578125,59.64821672070716L39.6146484375,64.20650864318601L39.93671875,78.71303005756572L40.2587890625,105.88844425618693L40.580859375,102.91910149662387L40.9029296875,187.31321975941572L42.1912109375,192.7101790642552L42.51328125,146.7212509470866L42.8353515625,167.41536042312762L43.157421875000004,174.15328782563452L43.4794921875,172.48289265005317L43.8015625,112.5405974986553L44.123632812500006,117.66060286366942L44.445703124999994,97.3455404457348L44.7677734375,29.40928001866097L45.08984375,52.14534444072458L45.411914062499996,65.00293165557842L45.733984375,84.47759215644348L46.0560546875,120.15221340858707L46.378125,101.29119800839179L46.7001953125,113.0298382253533L47.022265624999996,112.71776597563948L47.3443359375,51.12120715664487L47.66640625,70.51895686363974L47.9884765625,37.53219028890825L48.310546875,17.57103941770575L48.6326171875,86.94087712757971L48.9546875,75.13641270868432L49.2767578125,77.91299497409592L49.598828125000004,94.5306934793408L49.9208984375,130.3222264933586L50.24296875,115.9488088898603L50.5650390625,159.65090707617523L50.887109375,190.7816381554497L51.209179687500004,138.97157322768152L51.53125,164.1990460002666L51.8533203125,129.44999293352546L52.175390625000006,129.5097482911672L52.497460937499994,127.53799488019416L52.81953125,97.2949098698584L53.1416015625,78.17018817378813L53.463671874999996,112.46515242167523L53.7857421875,128.18902244513168L54.1078125,129.47793612685777L54.4298828125,130.1370982277812L54.751953125,85.98210957934926L55.074023437499996,80.7258758145005L55.39609375,85.81753962024621L55.7181640625,152.94964402189575L56.040234375,61.359203131620866L56.3623046875,68.48000814415538L56.684375,65.34524760185191L57.0064453125,83.60225860797473L57.328515625,59.912585678834304L57.650585937500004,78.55706126876974L57.97265625,87.4284608208436L58.2947265625,95.56019923945097L58.616796875,123.17036764538206L58.9388671875,127.94585783908309L59.260937500000004,110.3321851231426L59.5830078125,168.86474588738517L59.905078125,155.23543450371386L60.227148437500006,141.10001176080672L60.549218749999994,161.95755902219776L60.8712890625,114.00411104732102L61.193359375,88.64873994334556L61.515429687499996,106.21952924098996L61.8375,79.51173585037242L62.1595703125,94.19914428818089L62.481640625,115.24806976573403L62.8037109375,136.6697553769155L63.125781249999996,100.71132210346477L63.4478515625,96.3655002918981L63.769921875,88.19909325880647L64.0919921875,125.33207051541099L64.4140625,118.02757572284754L64.73613281249999,110.89260904283138L65.058203125,86.97692325288513L65.3802734375,66.43029616221445L65.70234375,20.946573149827906L66.0244140625,70.76418905953601L66.346484375,113.40063372552424L66.66855468749999,128.28693577826073L66.99062500000001,104.4500890086893L67.3126953125,101.23955001299367L67.634765625,85.70638028302682L67.9568359375,80.5595098943643L68.27890625,89.5200776822051L68.6009765625,82.97796150247338L68.923046875,99.32702545046882L69.2451171875,105.77148806881965L69.5671875,88.59224687714611L69.88925781249999,65.73616609990145L70.21132812500001,82.2860801340317L70.5333984375,101.37890009410287L70.85546875,111.94059839443631L71.1775390625,86.41611246226013L71.499609375,74.26892497514376L71.8216796875,82.79691359028035L72.14375000000001,107.0668681062745L72.4658203125,112.49938960060354L72.78789062499999,80.02475119343345L73.1099609375,57.94140531248398L73.43203125,61.81414180771399L73.7541015625,77.03908985719565L74.076171875,91.82845927396731L74.3982421875,120.98476966094597L74.72031249999999,58.84641072673535L75.04238281250001,110.91634581996756L75.364453125,150.37864569731832L75.6865234375,109.37881249134726L76.00859375,93.644847178131L76.3306640625,89.3213583610474L76.652734375,75.8041238297235L76.9748046875,84.9315089648493L77.296875,94.09014363679456L77.6189453125,105.84725877996179L77.94101562499999,144.7709899983166L78.26308593750001,181.7404301429606L78.58515625,139.6629003921043L78.9072265625,147.5487881206807L79.229296875,139.9694403352337L79.5513671875,134.1611427630186L79.8734375,90.7978926995514L80.19550781250001,98.58261141175724L80.517578125,103.85911970731412L80.83964843749999,114.97110465405466L81.16171875,88.901761741865L81.4837890625,78.18978645290642L81.805859375,89.44566621712312L82.1279296875,108.45410871703298L82.45,108.32929494499488L82.77207031249999,71.54098682713109L83.09414062500001,99.55273442930915L83.4162109375,92.46358799616668L83.73828125,149.56835677433145L84.0603515625,143.04409936790523L84.382421875,141.07163710430234L84.7044921875,137.26174663922177L85.0265625,148.09965543401836L85.3486328125,105.76615606816154L85.670703125,81.6093720857591L85.99277343749999,96.02693250562497L86.31484375000001,92.06859044304909L86.6369140625,71.50483893198604L86.958984375,72.98430068995219L87.2810546875,51.58685457531018L87.603125,106.87863569154429L87.9251953125,84.71336064752388L88.24726562500001,117.82176407585408L88.5693359375,111.13581727987447L88.89140624999999,101.06336728957879L89.2134765625,87.38892324106445L89.535546875,74.80526598296514L89.8576171875,81.07490621806353L90.1796875,93.9250292706562L90.5017578125,43.89579015541474L90.82382812499999,92.66162171106583L91.14589843750001,90.70786392772835L91.46796875,83.05750377228651L91.7900390625,94.38504334241615L92.112109375,121.61119915217458L92.4341796875,65.80527659160053L92.75625,44.97834469021681L93.0783203125,92.11505163396212L93.400390625,139.68922325780923L93.7224609375,110.33566674477406L94.04453124999999,64.55033205083937L94.36660156250001,89.79306184132048L94.688671875,110.87717305945884L95.0107421875,125.06762711600983L95.3328125,107.713374938944L95.6548828125,104.52863186978007L95.976953125,36.46318236817574L96.29902343750001,13.102874909816L96.62109375,37.07353074251292L96.94316406249999,32.79624316035895L97.265234375,77.78102421128283L97.5873046875,69.37685173370579L97.909375,115.77724556695328L98.2314453125,92.55507228714764L98.553515625,107.80712749923782L98.87558593749999,58.84877170542179L99.19765625000001,98.53115577351599L99.5197265625,78.82002982408714L99.841796875,91.83977394646952L100.1638671875,118.22111967412567L100.4859375,110.84044020895921L100.8080078125,117.85027115061777L101.130078125,91.52895798990053L101.4521484375,95.02142129366948L101.77421875,140.99314340368124L102.09628906249999,117.82038530358811L102.41835937500001,86.74425379424757L102.7404296875,74.83701409095215L103.0625,104.99770943637904L103.3845703125,94.22453648040461L103.706640625,108.72936643475184L104.0287109375,107.37964304276626L104.35078125000001,109.96900080435432L104.6728515625,114.48376229282023L104.99492187499999,77.78236482665388L105.3169921875,38.731483937056936L105.6390625,43.296710181684496L105.9611328125,72.82581662443367L106.283203125,66.25691647116626L106.6052734375,66.1557307886138L106.92734374999999,59.06216303390596L107.24941406250001,55.772957240833556L107.571484375,70.03057127910465L107.8935546875,66.32810313533284L108.215625,93.19994291681401L108.5376953125,94.3659928263325L108.859765625,136.09411045438625L109.1818359375,120.7644014389912L109.50390625,122.2513985295055L109.8259765625,155.3130461131906L110.14804687499999,86.58617520066319L110.47011718750001,139.275752244784L110.7921875,99.61800444030409L111.1142578125,64.39771606864696L111.436328125,135.51386064494926L111.7583984375,110.54319812181781L112.08046875,88.3451934416485L112.40253906250001,79.80125316139447L112.724609375,107.09777578208633L113.04667968749999,96.80215931233042L113.36875,107.56783290085959L113.6908203125,43.267127033339634L114.012890625,61.93054688946383L114.3349609375,48.16162722692481L114.65703125,95.6782662474251L114.97910156249999,82.44202072639106L115.30117187500001,66.0849827004605L115.6232421875,65.19769984919576L115.9453125,28.691666510335722L116.2673828125,38.4040711800051L116.589453125,19.454719965445435L116.9115234375,72.11858326482016L117.23359375,85.77602237634193L117.5556640625,81.68851665361112L117.877734375,68.83844636501908L118.19980468749999,56.6033983744505L118.52187500000001,90.62413216336523L118.8439453125,81.09169660034199L119.166015625,93.28088738931693L119.4880859375,55.33399930246735L119.81015625,45.60377154736515L120.1322265625,61.90142756693811L120.45429687500001,81.38862539525755L120.7763671875,97.75541302678532L121.09843749999999,72.46438463400364L121.4205078125,48.388025497618706L121.742578125,44.68724214745982L122.0646484375,26.801525591095608L122.38671875,36.92795878546264L122.7087890625,103.26411158977021L123.03085937499999,86.89393006049409L123.35292968750001,78.27495281864911L123.675,75.29233247619669L123.9970703125,31.59897837985645L124.319140625,19.293114959889845L124.6412109375,67.98638133984475L124.96328125,83.3094327734812L125.2853515625,64.73415700715204L125.607421875,104.95205142570371L125.9294921875,68.27716037316823L126.25156249999999,118.44182467868174L126.57363281250001,96.3432488585124L126.895703125,65.23552825120761L127.2177734375,123.93324402611098L127.53984375,75.79296430135133L127.8619140625,109.40785322299229L128.183984375,93.11733466214324L128.5060546875,99.81977389947431L128.828125,78.69562627491885L129.1501953125,90.28309957753169L129.47226562499998,73.05478532654392L129.7943359375,84.10269311393708L130.11640625,88.54771135643368L130.4384765625,144.3026422524175L130.760546875,142.26082919023764L131.0826171875,109.32926961173037L131.4046875,122.83310523265285L131.72675781249998,92.64990530391749L132.048828125,126.00595860469502L132.37089843750002,143.6625293778665L132.69296875,157.22172990365505L133.0150390625,85.97283983781159L133.33710937499998,89.96832776400008L133.6591796875,107.11485841472509L133.98125000000002,111.07241037249284L134.3033203125,30.375420622585324L134.625390625,27.89332993779012L134.9474609375,31.018865310868023L135.26953125,85.1846604130984L135.5916015625,51.313495289225386L135.913671875,66.92401064094271L136.23574218750002,41.68025850448768L136.5578125,16.44836339470042L136.8798828125,67.34513478944507L137.201953125,13.30444659870718L137.52402343749998,11.965709639083514L137.84609375,66.31846891194061L138.1681640625,101.18307872026827L138.490234375,124.76910477524792L138.8123046875,107.80348081377585L139.134375,87.25385937087198L139.4564453125,103.62843173141731L139.77851562499998,123.98389281866257L140.1005859375,81.48266111634547L140.42265625000002,32.1873142768286L140.7447265625,58.519523742756036L141.066796875,94.17410282073075L141.38886718749998,112.58342321978567L141.7109375,75.6794703737885L142.03300781250002,119.612527986526L142.355078125,105.8862749696726L142.6771484375,79.35355869298897L142.99921875,62.235571583304576L143.3212890625,45.81318509590222L143.643359375,33.142366814682376L143.9654296875,35.23999236110983L144.28750000000002,34.66044985106067L144.6095703125,42.58770274430819L144.931640625,61.80524100846248L145.2537109375,70.99766746751199L145.57578124999998,30.45752925629441L145.8978515625,24.33651559922093L146.219921875,25.847505804139274L146.5419921875,72.39392926468727L146.8640625,69.2370357285398L147.1861328125,40.6952305299318L147.508203125,-20.955273254974326L147.83027343749998,-2.446352651276706L148.15234375,40.96398702230532L148.47441406250002,56.898288172283756L148.796484375,56.66154164183076L149.1185546875,90.45544591014325L149.44062499999998,117.54993249454958L149.7626953125,88.08549884247122L150.08476562500002,75.14828085474556L150.4068359375,62.89635387404215L150.72890625,53.117582460304874L151.0509765625,55.47092367414291L151.373046875,70.33381322147615L151.6951171875,34.84641292764012L152.0171875,72.26565799160737L152.33925781250002,69.76707623627134L152.661328125,50.54918737546405L152.9833984375,27.39467959008124L153.30546875,67.58971957207604L153.62753906249998,61.8688923349434L153.949609375,77.1740578311956L154.2716796875,62.550480860368424L154.59375,48.25680897110432L154.9158203125,20.9482488123998L155.237890625,42.62992308666867L155.5599609375,13.575073016467918L155.88203124999998,61.32558792399402L156.2041015625,55.28652856091861L156.52617187500002,86.09531042182596L156.8482421875,129.1702462625752L157.1703125,90.05604380322987L157.49238281249998,97.74308919878861L157.814453125,72.25368336422498L158.13652343750002,97.85338742484582L158.45859375,60.09558295577727L158.7806640625,60.57771123272118L159.102734375,71.63403530610775L159.4248046875,89.79757640178941L159.746875,77.57241737494456L160.0689453125,49.526402161416854L160.39101562500002,44.04406479948612L160.7130859375,57.736298370086615L161.03515625,61.79014503224075L161.3572265625,104.91846153297062L161.67929687499998,58.34111663793337L162.0013671875,99.6987810676979L162.3234375,101.61793777618878L162.6455078125,101.14828083082531L162.967578125,122.76276701190773L163.2896484375,92.59364461599976L163.61171875,119.70058656751635L163.93378906249998,114.51606501948538L164.255859375,136.81169483549414L164.57792968750002,109.17437755755776L164.9,75.6572988014946L165.2220703125,96.13882046827855L165.54414062499998,68.66325019531959L165.8662109375,68.26037815054352L166.18828125000002,66.46315101885874L166.5103515625,65.86582869353312L166.832421875,76.49874339140878L167.1544921875,90.07128867886892L167.4765625,80.76940655340236L167.7986328125,37.2955974079937L168.120703125,46.767884596453406L168.44277343750002,121.14805976406713L168.76484375,106.83836195383073L169.0869140625,129.17469834991425L169.408984375,100.28705836360479L169.73105468749998,118.1979304374747L170.053125,85.1253689182696L170.3751953125,68.84321847277262L170.697265625,56.323117224677866L171.0193359375,55.60161546963715L171.34140625,9.625830543626888L171.6634765625,-2.922616390831045L171.98554687499998,8.45016126129241L172.3076171875,49.45870840724251L172.62968750000002,31.30518412694849L172.9517578125,60.09798063102686L173.273828125,41.725445206542545L173.59589843749998,66.08900783990595L173.91796875,95.23623355945826L174.24003906250002,97.8031899018339L174.562109375,80.19895530243213L174.8841796875,58.57070644199563L175.20625,86.198257598279L175.5283203125,36.02471932947481L175.850390625,26.739734358667082L176.1724609375,65.94799936239622L176.49453125000002,96.18089488997859L176.8166015625,109.66539322051317L177.138671875,81.11163493819723L177.4607421875,146.11287726657233L177.78281249999998,117.99858254013417L178.1048828125,136.02931200157397L178.426953125,119.71959712917112L178.7490234375,73.71435909756735L179.07109375,31.838218005232424L179.3931640625,26.592321510155617L179.715234375,65.7604842633243L180.03730468749998,132.95222281517042L180.359375,95.15097120464732L180.68144531250002,24.105440885191452L181.003515625,28.07387940309369L181.3255859375,31.74029879702228L181.64765624999998,103.03017258008244L181.9697265625,53.65166375255539L182.29179687500002,100.18311181793167L182.6138671875,69.83258423286429L182.9359375,57.23316879914857L183.2580078125,74.05218731073508L183.580078125,106.62606064503194L183.9021484375,88.8485026957085L184.22421875,48.41108996877017L184.54628906250002,64.6995641899643L184.868359375,58.99346850589126L185.1904296875,121.55943505928082L185.5125,99.44851040223324L185.83457031249998,52.87356284486664L186.156640625,29.54046644704006L186.4787109375,76.89727380237849L186.80078125,33.0101999065985L187.1228515625,65.36988037953996L187.444921875,69.87465396005095L187.7669921875,69.5703520207294L188.08906249999998,21.807308162968365L188.4111328125,51.86501307828525L188.73320312500002,58.06671929087217L189.0552734375,95.94769095019107L189.37734375,104.86532491824406L189.69941406249998,108.33813398111715L190.021484375,90.44932964461331L190.34355468750002,82.99800246368218L190.665625,78.14857509976817L190.9876953125,130.1884302690402L191.309765625,116.0815194126832L191.6318359375,57.71234097938929L191.95390625,19.39548384464485L192.2759765625,59.75611410925809L192.59804687500002,32.69921635621791L192.9201171875,97.32807219644772L193.2421875,115.64631191861892L193.5642578125,51.44722869379637L193.88632812499998,31.942219235797424L194.2083984375,57.40539923804993L194.53046875,54.7018465489034L194.8525390625,71.04592428743173L195.174609375,75.26759601914458L195.4966796875,40.60510428716822L195.81875,79.03014801722794L196.14082031249998,90.76258056629939L196.462890625,114.51472204488097L196.78496093750002,124.94256268478411L197.10703125,101.84654102645474L197.4291015625,83.99427093221026L197.75117187499998,77.04402156563565L198.0732421875,45.07253857786623L198.39531250000002,36.32090120515307L198.7173828125,4.73536631465576L199.039453125,74.88634340167464L199.3615234375,74.83443116069076L199.68359375,69.74103302312047L200.0056640625,43.14316068024766L200.327734375,68.44540840346404L200.64980468750002,49.686826240770785L200.971875,71.69537665352392L201.2939453125,113.72832165899956L201.616015625,47.78526850189577L201.93808593749998,83.4350593903409L202.26015625,73.38595739714752L202.5822265625,63.57761238642003L202.904296875,23.374706629677778L203.2263671875,-5.568449089667967L203.5484375,56.906281811152645L203.8705078125,46.11188111433651L204.19257812499998,41.33331146078846L204.5146484375,54.5796729459617L204.83671875000002,78.3439235648068L205.1587890625,108.03656323913083L205.480859375,93.61187845565904L205.80292968749998,70.38885644732724L206.125,99.64431403672017L206.44707031250002,114.59014019128848L206.769140625,153.32546357367735L207.0912109375,92.58947241338649L207.41328125,90.74494227190375L207.7353515625,78.82011825096342L208.057421875,85.52431404740639L208.3794921875,139.4744089016382L208.70156250000002,160.97384222561539L209.0236328125,116.72196259626382L209.345703125,108.83674905615231L209.6677734375,94.9261718506641L209.98984374999998,102.15714479178376L210.3119140625,81.32332808190692L210.633984375,39.49259222992736L210.9560546875,68.3862761106999L211.278125,71.44312238972861L211.6001953125,3.014181150683801L211.922265625,29.587351771407477L212.24433593749998,57.52198907864903L212.56640625,43.07919603069306L212.88847656250002,61.84364925312818L213.210546875,62.516300836132984L213.5326171875,66.66217238839101L213.85468749999998,29.121960682485042L214.1767578125,54.10562040973516L214.49882812500002,56.321427753977936L214.8208984375,38.55292087281491L215.14296875,20.21270150831154L215.4650390625,80.2315334134747L215.787109375,87.11821348985717L216.1091796875,95.19912461948803L216.43125,107.04458753175959L216.75332031250002,58.588719403192094L217.075390625,52.02895915236736L217.3974609375,86.64251876906519L217.71953125,114.83049702069758L218.04160156249998,93.95948539627534L218.363671875,105.422990002948L218.6857421875,75.62162371797407L219.0078125,71.91990702344812L219.3298828125,80.37998613711511L219.651953125,63.20061739084878L219.9740234375,63.62781650899489L220.29609374999998,80.56870241808106L220.6181640625,116.83371153978838L220.94023437500002,46.59094061558431L221.2623046875,86.76311762395497L221.584375,94.5802488759936L221.90644531249998,90.44159409021L222.228515625,71.83627761968776L222.55058593750002,67.25278039913691L222.87265625,102.75436518276553L223.1947265625,116.34145428946537L223.516796875,58.13977573043694L223.8388671875,71.2047842724716L224.1609375,120.36536801955684L224.4830078125,105.20659491480363L224.80507812500002,58.194912141925066L225.1271484375,52.99288882396597L225.44921875,58.56705969322928L225.7712890625,83.13174409716828L226.09335937499998,85.11579405694953L226.4154296875,87.10300700324638L226.7375,77.25429405246925L227.0595703125,111.23726293727626L227.381640625,96.4813293891247L227.7037109375,64.84531983596624L228.02578125,89.6552138379964L228.34785156249998,56.635900345549324L228.669921875,63.16443477100474L228.99199218750002,80.02994179741349L229.3140625,48.531791424845515L229.6361328125,34.7329487896529L229.95820312499998,5.34167951921027L230.2802734375,67.38216473209509L230.60234375000002,72.84706860511054L230.9244140625,75.56290498810154L231.246484375,50.0118692364524L231.5685546875,14.502931251896959L231.890625,72.83607940362303L232.2126953125,57.91435883335149L232.534765625,75.9336501472703L232.85683593750002,89.69629262170302L233.17890625,65.06682014632891L233.5009765625,42.481379700711926L233.823046875,78.90291634381485L234.14511718749998,96.02129238355552L234.4671875,64.30962701742875L234.7892578125,52.91665211978541L235.111328125,112.75706661738782L235.4333984375,102.20825808643012L235.75546875,65.50082649826213L236.0775390625,58.54376162313937L236.39960937499998,96.4174628926722L236.7216796875,108.00780870159903L237.04375000000002,83.20912732863682L237.3658203125,128.59140497555896L237.687890625,106.91211621827246L238.00996093749998,66.06925879041138L238.33203125,59.827884197949146L238.65410156250002,65.58358235402032L238.976171875,60.26655327822685L239.2982421875,45.68862555948417L239.6203125,97.00959709005053L239.9423828125,92.55646939704688L240.264453125,61.06380690115592L240.5865234375,108.07640448199498L240.90859375000002,103.96146983496396L241.2306640625,144.87129429931656L241.552734375,113.35379919979127L241.8748046875,62.91865287764747L242.19687499999998,57.06156334009118L242.5189453125,81.45460663274761L242.841015625,64.49085285684946L243.1630859375,122.48475740207125L243.48515625,119.8873379579359L243.8072265625,123.09260871119334L244.129296875,116.13604403798041L244.45136718749998,112.05838759699036" style="fill: none;" fill="none"></path></g></g></g></g><g opacity="0.2"><g><g><g><path stroke="rgb(238, 51, 119)" stroke-width="2px" d="M32.5291015625,79.10153651237484L32.851171875,0.8104481697080148L33.1732421875,-24.145714849233944L33.495312500000004,93.92119580507278L33.8173828125,115.534994840622L34.139453125,61.25846514105789L34.4615234375,120.77813977003106L34.78359375,61.38611221313469L35.105664062500004,95.74339920282364L35.427734375,99.2498808503151L35.7498046875,66.6050539314746L36.071875000000006,114.11960431933407L36.393945312499994,85.63109868764876L36.716015625,121.0599579811097L37.0380859375,9.322021245956204L37.360156249999996,-61.035387128591935L37.6822265625,-0.7067284584047782L38.004296875,160.64115995168703L38.3263671875,8.23851311206796L38.6484375,173.69066932797452L38.970507812499996,62.41259360313408L39.292578125,24.864792913198293L39.6146484375,71.04385653138155L39.93671875,100.47264033555986L40.2587890625,146.65137240290656L40.580859375,98.46510002017021L40.9029296875,313.9041812121874L41.547070312500004,248.2783348262314L41.869140625,168.72801640629788L42.1912109375,187.72587934136413L42.51328125,77.73786792159076L42.8353515625,198.45652216672926L43.157421875000004,184.26017844676994L43.4794921875,169.97729995846768L43.8015625,22.62715631723386L44.123632812500006,125.34061083197602L44.445703124999994,66.8729470074176L44.7677734375,-72.49511024355932L45.08984375,86.24944099783896L45.411914062499996,84.28931245207785L45.733984375,113.68958288431172L46.0560546875,173.66414526104947L46.378125,72.99967491626734L46.7001953125,130.63779854774484L47.022265624999996,112.24965760111813L47.3443359375,-41.27363106608426L47.66640625,99.61558142304422L47.9884765625,-11.947959572077075L48.6326171875,190.99563369154953L48.9546875,57.42971608042707L49.2767578125,82.07786837220188L49.598828125000004,119.45724123716363L49.9208984375,184.00952601432823L50.24296875,94.38868248462677L50.5650390625,225.20405435562165L50.887109375,237.47773477435152L51.209179687500004,61.25647583603851L51.53125,202.04025515913992L51.8533203125,77.32641333341594L52.175390625000006,129.59938132762917L52.497460937499994,124.58036476373681L52.81953125,51.93028235435476L53.1416015625,49.48310562968242L53.463671874999996,163.9075987935068L53.7857421875,151.77482748031633L54.1078125,131.41130664944657L54.4298828125,131.12584137916573L54.751953125,19.749626606702606L55.074023437499996,72.84152516722673L55.39609375,93.45503532886505L55.7181640625,253.64780062437097L56.040234375,-76.02645820379301L56.3623046875,79.1612156629562L56.684375,60.64310678839676L57.0064453125,110.98777511715893L57.328515625,24.378076285123647L57.650585937500004,106.52377465367321L57.97265625,100.7355601489544L58.2947265625,107.75780686736111L58.616796875,164.58562025427835L58.9388671875,135.10909312963497L59.260937500000004,83.91167604923247L59.5830078125,256.6635870337491L59.905078125,134.79146742820748L60.227148437500006,119.89687764644631L60.549218749999994,193.24387991428398L60.8712890625,42.07393908500658L61.193359375,50.615683287382005L61.515429687499996,132.57571318745622L61.8375,39.45004576444612L62.1595703125,116.23025694489485L62.481640625,146.82145798206344L62.8037109375,168.80228379368802L63.125781249999996,46.77367219328868L63.4478515625,89.84676757454872L63.769921875,75.94948270916935L64.0919921875,181.03153640031837L64.4140625,107.07083353400235L64.73613281249999,100.19015902280809L65.058203125,51.10339456796634L65.3802734375,35.61035552620872L65.70234375,-47.27901136875188L66.0244140625,145.4906129240991L66.346484375,177.3553007245066L66.66855468749999,150.61638885736483L66.99062500000001,68.69481885433191L67.3126953125,96.42374151945114L67.634765625,62.40662568807594L67.9568359375,72.83920431137079L68.27890625,102.960929363966L68.6009765625,73.16478723287577L68.923046875,123.8506213724614L69.2451171875,115.43818199634558L69.5671875,62.82338508963577L69.88925781249999,31.45204493403419L70.21132812500001,107.11095118522648L70.5333984375,130.01813003420838L70.85546875,127.78314584493646L71.1775390625,48.12938356399524L71.499609375,56.04814374446859L71.8216796875,95.58889651298523L72.14375000000001,143.4717998802663L72.4658203125,120.64817184209832L72.78789062499999,31.312793582677685L73.1099609375,24.81638649106008L73.43203125,67.62324655055994L73.7541015625,99.87651193141939L74.076171875,114.01251339912419L74.3982421875,164.7192352414133L74.72031249999999,-34.36112767457993L75.364453125,209.57209551334412L75.6865234375,47.87906268239009L76.00859375,70.04389920830721L76.3306640625,82.83612513542174L76.652734375,55.52827203273763L76.9748046875,98.62258666753769L77.296875,107.82809564471249L77.6189453125,123.48293149471291L77.94101562499999,203.1565868258479L78.26308593750001,237.1945903599266L78.58515625,76.5466057658195L78.9072265625,159.37761971354502L79.229296875,128.60041865706452L79.5513671875,125.4486964046956L79.8734375,25.753017604350866L80.19550781250001,110.25968948006634L80.517578125,111.77388215065007L80.83964843749999,131.63908207416543L81.16171875,49.79774737358081L81.4837890625,62.12182351946823L81.805859375,106.32948586344723L82.1279296875,136.96677246689808L82.45,108.14207428693776L82.77207031249999,16.358524650335113L83.09414062500001,141.57035583257687L83.4162109375,81.82986834645267L83.73828125,235.22550994157828L84.0603515625,133.25771325826653L84.382421875,138.11294370889675L84.7044921875,131.54691094160088L85.0265625,164.35651862621324L85.3486328125,42.26590701937662L85.670703125,45.37419611215579L85.99277343749999,117.65327313542372L86.31484375000001,86.13107734918593L86.6369140625,40.65921166539179L86.958984375,75.20349332690235L87.2810546875,19.490685403346816L87.603125,189.81630736589455L87.9251953125,51.46544808149326L88.24726562500001,167.48436921834966L88.5693359375,101.10689708590509L88.89140624999999,85.95469230413435L89.2134765625,66.87725716829291L89.535546875,55.92978009581556L89.8576171875,90.47936657071114L90.1796875,113.20021384954457L90.5017578125,-31.148068517446834L90.82382812499999,165.81036904454248L91.14589843750001,87.77722725272177L91.46796875,71.58196353912348L91.7900390625,111.3763526976109L92.112109375,162.45043286681192L92.4341796875,-17.903607249260226L92.75625,13.73794683814029L93.0783203125,162.8201120495798L93.400390625,211.05048069357903L93.7224609375,66.30533197522155L94.04453124999999,-4.127669990062951L94.36660156250001,127.65715652704247L94.688671875,142.50333988666546L95.0107421875,146.35330820083632L95.3328125,81.68199667334552L95.6548828125,99.7515172660351L95.976953125,-65.63499188423197L96.29902343750001,-21.93758627772363L96.62109375,73.02951449155802L96.94316406249999,26.38031178712827L97.265234375,145.25819578766837L97.5873046875,56.77059301733961L97.909375,185.3778363168242L98.2314453125,57.72181236743917L98.553515625,130.68521031737336L98.87558593749999,-14.588761985302249L99.19765625000001,158.0547318756582L99.5197265625,49.253340899944185L99.841796875,111.36939013004307L100.1638671875,157.7931382656099L100.4859375,99.7694210112095L100.8080078125,128.36501756310471L101.130078125,52.046988248824974L101.4521484375,100.2601162493229L101.77421875,209.9507265686992L102.09628906249999,83.06124815344809L102.41835937500001,40.13005653023706L102.7404296875,56.976154536008735L103.0625,150.2387524545194L103.3845703125,78.06477704644199L103.706640625,130.48661136627206L104.0287109375,105.35505795478825L104.35078125000001,113.85303744673733L104.6728515625,121.2559045255185L104.99492187499999,22.73026862740499L105.3169921875,-19.844837397337237L105.6390625,50.144549548625825L105.9611328125,117.11947628855711L106.283203125,56.403566241264244L106.6052734375,66.00395226478568L106.92734374999999,48.421811401843904L107.24941406250001,50.83914855122554L107.571484375,91.41699233651161L107.8935546875,60.77440091967575L108.215625,133.50770258903512L108.5376953125,96.11506769061089L108.859765625,198.6862868964675L109.1818359375,97.76983791589737L109.50390625,124.48189416527757L109.8259765625,204.90551748871832L110.47011718750001,218.3101178109649L110.7921875,40.131382733583315L111.1142578125,11.567283511161587L111.436328125,242.18807750940363L111.7583984375,73.08720433712L112.08046875,55.04818642139425L112.40253906250001,66.98534274101249L112.724609375,148.04255971312537L113.04667968749999,81.35873460769649L113.36875,123.71634328365334L113.6908203125,-53.18393176794092L114.012890625,89.92567667365074L114.3349609375,27.508247733115972L114.65703125,166.95322477817555L114.97910156249999,62.5876524448394L115.30117187500001,41.54942566156374L115.6232421875,63.86677557229988L115.9453125,-26.06738349795373L116.2673828125,52.97267818450918L116.589453125,-8.969306856394091L116.9115234375,151.11437821388262L117.23359375,106.26218104362492L117.5556640625,75.55725806951519L117.877734375,49.56334093213069L118.19980468749999,38.25082638859735L118.52187500000001,141.65523284673702L118.8439453125,66.79304325580588L119.166015625,111.56467357277874L119.4880859375,-1.58633282780671L119.81015625,31.00842991471275L120.1322265625,86.3479115962982L120.45429687500001,110.61942213773732L120.7763671875,122.30559447407731L121.09843749999999,34.527842044830166L121.4205078125,12.273486793041013L121.742578125,39.13606712222086L122.0646484375,-0.02704924345040194L122.38671875,52.117608577012916L122.7087890625,202.7683407962325L123.03085937499999,62.3386577665805L123.35292968750001,65.34648695588103L123.675,70.81840196251864L123.9970703125,-33.94105276465447L124.319140625,0.8343198299405588L124.6412109375,141.0262809097768L124.96328125,106.29400992393498L125.2853515625,36.87124335765825L125.607421875,165.27889305353182L125.9294921875,13.264823794364712L126.25156249999999,193.68882113695167L126.57363281250001,63.19538512825958L126.895703125,18.573947340249816L127.2177734375,211.97981768846543L127.53984375,3.5825447142121805L127.8619140625,159.83018660545366L128.183984375,68.68155682086939L128.5060546875,109.87343275547032L128.828125,47.009404838085054L129.1501953125,107.66430953145031L129.47226562499998,47.21231395006168L129.7943359375,100.6745547950268L130.11640625,95.2152387201786L130.4384765625,227.93503859639205L130.760546875,139.1981095969678L131.0826171875,59.931930243968885L131.4046875,143.0888586640359L131.72675781249998,47.375105410814164L132.048828125,176.04003855586075L132.37089843750002,170.14738553762456L132.69296875,177.56053069233917L133.0150390625,-20.90049526095418L133.33710937499998,95.96155965328217L133.6591796875,132.834654390812L133.98125000000002,117.00873830914503L134.3033203125,-90.67006400227594L134.625390625,24.170193910598577L134.9474609375,35.70716837048515L135.26953125,166.4333530664446L135.5916015625,0.5067476034162057L135.913671875,90.33978366851807L136.23574218750002,3.8146302998063577L136.5578125,-21.3994792699817L136.8798828125,143.6902918815614L137.201953125,-67.75658568739935L137.52402343749998,9.957604199647687L137.84609375,147.84760782122626L138.1681640625,153.4799934327604L138.490234375,160.14814385771768L138.8123046875,82.35504487156867L139.134375,56.429427206516166L139.4564453125,128.19029027223596L139.77851562499998,154.51708444952982L140.1005859375,17.730813562869827L140.42265625000002,-41.755705982447026L140.7447265625,98.01783794164658L141.066796875,147.65597143769278L141.38886718749998,140.19740381836903L141.7109375,20.32354110479335L142.03300781250002,185.51211440563225L142.355078125,85.29689544439314L142.6771484375,39.5544842779635L142.99921875,36.55859091877924L143.3212890625,21.179605364799322L143.643359375,14.136139392852586L143.9654296875,38.386430680751666L144.28750000000002,33.791136085986935L144.6095703125,54.478582084178825L144.931640625,90.6315484046936L145.2537109375,84.78630715608595L145.57578124999998,-30.352678060531932L145.8978515625,15.154995113611024L146.219921875,28.113991111516775L146.5419921875,142.2135644555093L146.8640625,64.50169542431823L147.1861328125,-2.1174772679808127L147.508203125,-113.43102893233355L147.83027343749998,25.317028254270376L148.15234375,106.07949653267865L148.47441406250002,80.79973989725109L148.796484375,56.30642184615125L149.1185546875,141.14630231261265L149.44062499999998,158.19166237115877L149.7626953125,43.888848364353045L150.08476562500002,55.7424538731574L150.4068359375,44.518463402986406L150.72890625,38.44942533969866L151.0509765625,59.00093549489965L151.373046875,92.62814754247665L151.6951171875,-18.3846875131133L152.0171875,128.39452558755883L152.33925781250002,66.01920360326758L152.661328125,21.722354084253134L152.9833984375,-7.337082087993899L153.30546875,127.88227954506883L153.62753906249998,53.28765147924413L153.949609375,100.13180607557298L154.2716796875,40.61511540412889L154.59375,26.81630113720876L154.9158203125,-20.01459142565755L155.237890625,75.15243449807163L155.5599609375,-30.00720208883317L155.88203124999998,132.95136028528222L156.2041015625,46.2279395163058L156.52617187500002,132.30848321318635L156.8482421875,193.78265002369903L157.1703125,31.38474011421188L157.49238281249998,109.27365729212765L157.814453125,34.01957461237892L158.13652343750002,136.2529435157777L158.45859375,3.4588762521741403L158.7806640625,61.30090364813797L159.102734375,88.21852141618727L159.4248046875,117.04288804531103L159.746875,59.23467883467664L160.0689453125,7.457379341125271L160.39101562500002,35.82055875658973L160.7130859375,78.27464872598644L161.03515625,67.87091502547258L161.3572265625,169.61093628406545L161.67929687499998,-11.524900704622546L162.0013671875,161.7352777123453L162.3234375,104.49667283892636L162.6455078125,100.44379541277887L162.967578125,155.18449628353136L163.2896484375,47.339961022138475L163.61171875,160.3609994947912L163.93378906249998,106.73928269743924L164.255859375,170.25513955950757L164.57792968750002,67.71840164065355L164.9,25.381680667400182L165.2220703125,126.86110296845445L165.54414062499998,27.449894785880865L165.8662109375,67.65607008337969L166.18828125000002,63.767310321330946L166.5103515625,64.96984520554534L166.832421875,92.44811543822289L167.1544921875,110.43010661005978L167.4765625,66.81658336520186L167.7986328125,-27.915116310119945L168.120703125,60.97631537914268L168.44277343750002,232.71832251548804L168.76484375,85.37381523847579L169.0869140625,162.67920294404047L169.408984375,56.95559838414182L169.73105468749998,145.06423854827895L170.053125,35.51652663946136L170.3751953125,44.41999280452716L170.697265625,37.54296535253511L171.0193359375,54.51936283707609L171.34140625,-59.33784684538881L171.6634765625,-21.745286792517025L171.98554687499998,25.50932773947698L172.3076171875,110.97152912616734L172.62968750000002,4.074897706508399L172.9517578125,103.2871753871441L173.273828125,14.166642069816392L173.59589843749998,102.63435178995134L173.91796875,138.95707213878643L174.24003906250002,101.65362441539766L174.562109375,53.79260340332975L174.8841796875,26.128333151340307L175.20625,127.63958433270463L175.5283203125,-39.235588073730824L175.850390625,12.812256902456067L176.1724609375,124.76039686799058L176.49453125000002,141.53023818135273L176.8166015625,129.8921407163144L177.138671875,38.280997514724596L177.4607421875,243.6147407591347L177.78281249999998,75.82714045047756L178.1048828125,163.0754061937334L178.426953125,95.25502482056618L178.7490234375,4.7065020501611246L179.07109375,-30.97599363327058L179.3931640625,18.72347676753978L179.715234375,124.51272839307794L180.03730468749998,233.73983064293898L180.359375,38.44909378886209L180.68144531250002,-82.4628545939927L181.003515625,34.02653717994674L181.3255859375,37.23992788791643L181.64765624999998,209.9649832546714L181.9697265625,-20.416099488735476L182.29179687500002,169.98028391599675L182.6138671875,24.30679285526258L182.9359375,38.334045648574694L183.2580078125,99.28071507811546L183.580078125,155.48687064647692L183.9021484375,62.182165771722715L184.22421875,-12.245029121637621L184.54628906250002,89.13227552175522L184.868359375,50.434324979781984L185.1904296875,215.40838488936456L185.5125,66.28212341666213L185.83457031249998,-16.988858491182604L186.156640625,-5.459178149700402L186.4787109375,147.93248483538642L186.80078125,-32.82041093707116L187.1228515625,113.90940108895306L187.444921875,76.63181433081623L187.7669921875,69.11389911174768L188.08906249999998,-49.83725762367284L188.4111328125,96.95157045125961L188.73320312500002,67.3692786097526L189.0552734375,152.7691484391691L189.37734375,118.24177587032324L189.69941406249998,113.54734757542614L190.021484375,63.61612313985817L190.34355468750002,71.82101169228548L190.665625,70.8744340538978L190.9876953125,208.24821302294762L191.309765625,94.92115312814713L191.6318359375,-29.841426670551616L191.95390625,-38.07980185747182L192.2759765625,120.29705950617799L192.59804687500002,-7.88613027334241L192.9201171875,194.27135595679312L193.2421875,143.12367150187504L193.5642578125,-44.85139614343679L193.88632812499998,2.6847050487992776L194.2083984375,95.60016924142838L194.53046875,50.646517515182374L194.8525390625,95.56204089522362L195.174609375,81.60010361671443L195.4966796875,-11.388633310795107L195.81875,136.66771361231815L196.14082031249998,108.36122938990597L196.462890625,150.14293426275268L196.78496093750002,140.58432364463818L197.10703125,67.20250853896135L197.4291015625,57.215865790843864L197.75117187499998,66.61864751577369L198.0732421875,-2.88468590378785L198.39531250000002,23.193445146083654L198.7173828125,-42.64293602108991L199.039453125,180.112809032202L199.3615234375,74.75656279921527L199.68359375,62.10093581676475L200.0056640625,3.2463521659371866L200.327734375,106.39877998828892L200.64980468750002,21.548952996730627L200.971875,104.70820227265362L201.2939453125,176.77773916721367L201.616015625,-51.12931123375928L201.93808593749998,136.90974572300922L202.26015625,58.31230440735807L202.5822265625,48.86509487032878L202.904296875,-36.92965200543439L203.2263671875,-48.98318266868627L203.5484375,150.6183781623842L203.8705078125,29.92028006911262L204.19257812499998,34.165456980466686L204.5146484375,74.44921517372126L204.83671875000002,113.99029949307446L205.1587890625,152.57552275061624L205.480859375,71.97485128045076L205.80292968749998,35.554323434829556L206.125,143.5275004208089L206.44707031250002,137.0088794231416L206.769140625,211.42844864726098L207.0912109375,1.4854856729505075L207.41328125,87.97814705967902L207.7353515625,60.932882219552916L208.057421875,95.58060774207115L208.3794921875,220.39955118298562L208.70156250000002,193.2229922115805L209.0236328125,50.34414315223682L209.345703125,97.00892874598503L209.6677734375,74.06030604243273L209.98984374999998,113.00360420346264L210.3119140625,50.07260301709163L210.633984375,-23.253511548042614L210.9560546875,111.7268019318581L211.278125,76.02839180827137L211.6001953125,-99.62923070788435L211.922265625,69.44710770249361L212.24433593749998,99.42394503951073L212.56640625,21.41500645875913L212.88847656250002,89.99032908678055L213.210546875,63.525278210639875L213.5326171875,72.88097971677774L213.85468749999998,-27.188356876373607L214.1767578125,91.58111000061035L214.49882812500002,59.645138770341795L214.8208984375,11.90016055107095L215.14296875,-7.297627538442889L215.4650390625,170.25978127121945L215.787109375,97.44823360443115L216.1091796875,107.32049131393437L216.43125,124.81278190016755L216.75332031250002,-14.095082789659777L217.075390625,42.18931877613054L217.3974609375,138.5628581941129L217.71953125,157.11246439814585L218.04160156249998,62.65296795964233L218.363671875,122.61824691295632L218.6857421875,30.919574290513836L219.0078125,66.36733198165885L219.3298828125,93.07010480761528L219.651953125,37.43156427144991L219.9740234375,64.26861518621436L220.29609374999998,105.98003128170971L220.6181640625,171.23122522234937L220.94023437500002,-58.77321577072183L221.2623046875,147.021383136511L221.584375,106.30594575405125L221.90644531249998,84.23361191153525L222.228515625,43.928302913904055L222.55058593750002,60.377534568309706L222.87265625,156.00674235820787L223.1947265625,136.7220879495145L223.516796875,-29.16274210810693L223.8388671875,90.8022970855236L224.1609375,194.1062436401847L224.4830078125,82.46843525767325L224.80507812500002,-12.32261201739339L225.1271484375,45.189853847026704L225.44921875,66.92831599712363L225.7712890625,119.9787707030774L226.09335937499998,88.09186899662016L226.4154296875,90.08382642269135L226.7375,62.48122462630264L227.0595703125,162.21171626448648L227.381640625,74.34742906689638L227.7037109375,17.3913055062292L228.02578125,126.87005484104165L228.34785156249998,7.106930106878063L228.669921875,72.95723640918726L228.99199218750002,105.32820233702664L229.3140625,1.2845658659932626L229.6361328125,14.034684836864274L229.95820312499998,-38.745224386453984L230.2802734375,160.4428925514223L230.60234375000002,81.04442441463466L230.9244140625,79.6366595625877L231.246484375,11.685315608978055L231.5685546875,-38.76047572493589L231.890625,160.3358016312124L232.2126953125,35.531777977943264L232.534765625,102.96258711814882L232.85683593750002,110.34025633335118L233.17890625,28.122611433267416L233.5009765625,8.603219032287381L233.823046875,133.53522130846986L234.14511718749998,121.69885644316682L234.4671875,16.74212896823863L234.7892578125,35.827189773320995L235.111328125,202.5176883637908L235.4333984375,86.38504528999327L235.75546875,10.43967911601045L236.0775390625,48.1081643104552L236.39960937499998,153.22801479697245L236.7216796875,125.39332741498956L237.04375000000002,46.01110526919353L237.3658203125,196.6648214459422L237.687890625,74.39318308234209L238.00996093749998,4.804972648620368L238.33203125,50.46582230925548L238.65410156250002,74.21712958812708L238.976171875,52.29100966453542L239.2982421875,23.82173398137075L239.6203125,173.9910543859007L239.9423828125,85.87677785754202L240.264453125,13.824813157319825L240.5865234375,178.59530085325264L240.90859375000002,97.78906786441803L241.2306640625,206.23603099584608L241.552734375,66.07755655050269L241.8748046875,-12.73406660556821L242.19687499999998,48.275929033756135L242.5189453125,118.04417157173162L242.841015625,39.045222193002566L243.1630859375,209.47561421990426L243.48515625,115.99120879173284L243.8072265625,127.9005148410798L244.129296875,105.70119702816014L244.45136718749998,105.94190293550496" style="fill: none;" fill="none"></path></g></g></g></g></g></g><g transform="translate(72, 178)" clip-path="url(#clip_1)"><clipPath id="clip_1"><rect width="257" height="22"></rect></clipPath><g><g><line x1="0" y1="0" x2="0" y2="5" style="visibility: inherit;" fill="rgb(0, 0, 0)" stroke="rgb(204, 204, 204)" stroke-width="1px"></line><line x1="32.20703125" y1="0" x2="32.20703125" y2="5" style="visibility: inherit;" fill="rgb(0, 0, 0)" stroke="rgb(204, 204, 204)" stroke-width="1px"></line><line x1="64.4140625" y1="0" x2="64.4140625" y2="5" style="visibility: inherit;" fill="rgb(0, 0, 0)" stroke="rgb(204, 204, 204)" stroke-width="1px"></line><line x1="96.62109375" y1="0" x2="96.62109375" y2="5" style="visibility: inherit;" fill="rgb(0, 0, 0)" stroke="rgb(204, 204, 204)" stroke-width="1px"></line><line x1="128.828125" y1="0" x2="128.828125" y2="5" style="visibility: inherit;" fill="rgb(0, 0, 0)" stroke="rgb(204, 204, 204)" stroke-width="1px"></line><line x1="161.03515625" y1="0" x2="161.03515625" y2="5" style="visibility: inherit;" fill="rgb(0, 0, 0)" stroke="rgb(204, 204, 204)" stroke-width="1px"></line><line x1="193.2421875" y1="0" x2="193.2421875" y2="5" style="visibility: inherit;" fill="rgb(0, 0, 0)" stroke="rgb(204, 204, 204)" stroke-width="1px"></line><line x1="225.44921875" y1="0" x2="225.44921875" y2="5" style="visibility: inherit;" fill="rgb(0, 0, 0)" stroke="rgb(204, 204, 204)" stroke-width="1px"></line><line x1="257.65625" y1="0" x2="257.65625" y2="5" style="visibility: inherit;" fill="rgb(0, 0, 0)" stroke="rgb(204, 204, 204)" stroke-width="1px"></line></g><g transform="translate(0, 8)"><text x="0" y="0" dx="0em" dy="0.95em" style="text-anchor: middle; visibility: hidden; font-family: Roboto, sans-serif; font-size: 12px; font-weight: 200;" fill="rgb(50, 49, 63)" stroke="none" stroke-width="1px">-5M</text><text x="32.20703125" y="0" dx="0em" dy="0.95em" style="text-anchor: middle; visibility: inherit; font-family: Roboto, sans-serif; font-size: 12px; font-weight: 200;" fill="rgb(50, 49, 63)" stroke="none" stroke-width="1px">0</text><text x="64.4140625" y="0" dx="0em" dy="0.95em" style="text-anchor: middle; visibility: inherit; font-family: Roboto, sans-serif; font-size: 12px; font-weight: 200;" fill="rgb(50, 49, 63)" stroke="none" stroke-width="1px">5M</text><text x="96.62109375" y="0" dx="0em" dy="0.95em" style="text-anchor: middle; visibility: inherit; font-family: Roboto, sans-serif; font-size: 12px; font-weight: 200;" fill="rgb(50, 49, 63)" stroke="none" stroke-width="1px">10M</text><text x="128.828125" y="0" dx="0em" dy="0.95em" style="text-anchor: middle; visibility: inherit; font-family: Roboto, sans-serif; font-size: 12px; font-weight: 200;" fill="rgb(50, 49, 63)" stroke="none" stroke-width="1px">15M</text><text x="161.03515625" y="0" dx="0em" dy="0.95em" style="text-anchor: middle; visibility: inherit; font-family: Roboto, sans-serif; font-size: 12px; font-weight: 200;" fill="rgb(50, 49, 63)" stroke="none" stroke-width="1px">20M</text><text x="193.2421875" y="0" dx="0em" dy="0.95em" style="text-anchor: middle; visibility: inherit; font-family: Roboto, sans-serif; font-size: 12px; font-weight: 200;" fill="rgb(50, 49, 63)" stroke="none" stroke-width="1px">25M</text><text x="225.44921875" y="0" dx="0em" dy="0.95em" style="text-anchor: middle; visibility: inherit; font-family: Roboto, sans-serif; font-size: 12px; font-weight: 200;" fill="rgb(50, 49, 63)" stroke="none" stroke-width="1px">30M</text><text x="257.65625" y="0" dx="0em" dy="0.95em" style="text-anchor: middle; visibility: hidden; font-family: Roboto, sans-serif; font-size: 12px; font-weight: 200;" fill="rgb(50, 49, 63)" stroke="none" stroke-width="1px">35M</text></g><line x1="0" y1="0" x2="257.65625" y2="0" fill="rgb(0, 0, 0)" stroke="rgb(204, 204, 204)" stroke-width="1px"></line></g></g></g></g></svg>