<svg viewBox="0 0 330 200" xmlns="http://www.w3.org/2000/svg"><g><g><g><g><g><line x1="41.171875" y1="178" x2="36.171875" y2="178" style="visibility: inherit;" fill="rgb(0, 0, 0)" stroke="rgb(204, 204, 204)" stroke-width="1px"></line><line x1="41.171875" y1="155.75" x2="36.171875" y2="155.75" style="visibility: inherit;" fill="rgb(0, 0, 0)" stroke="rgb(204, 204, 204)" stroke-width="1px"></line><line x1="41.171875" y1="133.5" x2="36.171875" y2="133.5" style="visibility: inherit;" fill="rgb(0, 0, 0)" stroke="rgb(204, 204, 204)" stroke-width="1px"></line><line x1="41.171875" y1="111.25" x2="36.171875" y2="111.25" style="visibility: inherit;" fill="rgb(0, 0, 0)" stroke="rgb(204, 204, 204)" stroke-width="1px"></line><line x1="41.171875" y1="89" x2="36.171875" y2="89" style="visibility: inherit;" fill="rgb(0, 0, 0)" stroke="rgb(204, 204, 204)" stroke-width="1px"></line><line x1="41.171875" y1="66.75" x2="36.171875" y2="66.75" style="visibility: inherit;" fill="rgb(0, 0, 0)" stroke="rgb(204, 204, 204)" stroke-width="1px"></line><line x1="41.171875" y1="44.5" x2="36.171875" y2="44.5" style="visibility: inherit;" fill="rgb(0, 0, 0)" stroke="rgb(204, 204, 204)" stroke-width="1px"></line><line x1="41.171875" y1="22.25" x2="36.171875" y2="22.25" style="visibility: inherit;" fill="rgb(0, 0, 0)" stroke="rgb(204, 204, 204)" stroke-width="1px"></line><line x1="41.171875" y1="0" x2="36.171875" y2="0" style="visibility: inherit;" fill="rgb(0, 0, 0)" stroke="rgb(204, 204, 204)" stroke-width="1px"></line></g><g transform="translate(31.171875, 0)"><text x="0" y="178" dx="0em" dy="0.3em" style="text-anchor: end; visibility: hidden; font-family: Roboto, sans-serif; font-size: 12px; font-weight: 200;" fill="rgb(50, 49, 63)" stroke="none" stroke-width="1px">-50</text><text x="0" y="155.75" dx="0em" dy="0.3em" style="text-anchor: end; visibility: inherit; font-family: Roboto, sans-serif; font-size: 12px; font-weight: 200;" fill="rgb(50, 49, 63)" stroke="none" stroke-width="1px">0</text><text x="0" y="133.5" dx="0em" dy="0.3em" style="text-anchor: end; visibility: hidden; font-family: Roboto, sans-serif; font-size: 12px; font-weight: 200;" fill="rgb(50, 49, 63)" stroke="none" stroke-width="1px">50</text><text x="0" y="111.25" dx="0em" dy="0.3em" style="text-anchor: end; visibility: inherit; font-family: Roboto, sans-serif; font-size: 12px; font-weight: 200;" fill="rgb(50, 49, 63)" stroke="none" stroke-width="1px">100</text><text x="0" y="89" dx="0em" dy="0.3em" style="text-anchor: end; visibility: hidden; font-family: Roboto, sans-serif; font-size: 12px; font-weight: 200;" fill="rgb(50, 49, 63)" stroke="none" stroke-width="1px">150</text><text x="0" y="66.75" dx="0em" dy="0.3em" style="text-anchor: end; visibility: inherit; font-family: Roboto, sans-serif; font-size: 12px; font-weight: 200;" fill="rgb(50, 49, 63)" stroke="none" stroke-width="1px">200</text><text x="0" y="44.5" dx="0em" dy="0.3em" style="text-anchor: end; visibility: hidden; font-family: Roboto, sans-serif; font-size: 12px; font-weight: 200;" fill="rgb(50, 49, 63)" stroke="none" stroke-width="1px">250</text><text x="0" y="22.25" dx="0em" dy="0.3em" style="text-anchor: end; visibility: inherit; font-family: Roboto, sans-serif; font-size: 12px; font-weight: 200;" fill="rgb(50, 49, 63)" stroke="none" stroke-width="1px">300</text><text x="0" y="0" dx="0em" dy="0.3em" style="text-anchor: end; visibility: hidden; font-family: Roboto, sans-serif; font-size: 12px; font-weight: 200;" fill="rgb(50, 49, 63)" stroke="none" stroke-width="1px">350</text></g><line x1="41.171875" y1="0" x2="41.171875" y2="178" fill="rgb(0, 0, 0)" stroke="rgb(204, 204, 204)" stroke-width="1px"></line></g></g><g transform="translate(41, 0)" clip-path="url(#clip_0)"><clipPath id="clip_0"><rect width="288" height="178"></rect></clipPath><g><g><g><line x1="0" y1="0" x2="0" y2="178" fill="rgb(0, 0, 0)" stroke="rgb(60, 60, 60)" stroke-width="1px" opacity="0.25"></line><line x1="36.103515625" y1="0" x2="36.103515625" y2="178" fill="rgb(0, 0, 0)" stroke="rgb(60, 60, 60)" stroke-width="1px" opacity="0.25"></line><line x1="72.20703125" y1="0" x2="72.20703125" y2="178" fill="rgb(0, 0, 0)" stroke="rgb(60, 60, 60)" stroke-width="1px" opacity="0.25"></line><line x1="108.310546875" y1="0" x2="108.310546875" y2="178" fill="rgb(0, 0, 0)" stroke="rgb(60, 60, 60)" stroke-width="1px" opacity="0.25"></line><line x1="144.4140625" y1="0" x2="144.4140625" y2="178" fill="rgb(0, 0, 0)" stroke="rgb(60, 60, 60)" stroke-width="1px" opacity="0.25"></line><line x1="180.517578125" y1="0" x2="180.517578125" y2="178" fill="rgb(0, 0, 0)" stroke="rgb(60, 60, 60)" stroke-width="1px" opacity="0.25"></line><line x1="216.62109375" y1="0" x2="216.62109375" y2="178" fill="rgb(0, 0, 0)" stroke="rgb(60, 60, 60)" stroke-width="1px" opacity="0.25"></line><line x1="252.724609375" y1="0" x2="252.724609375" y2="178" fill="rgb(0, 0, 0)" stroke="rgb(60, 60, 60)" stroke-width="1px" opacity="0.25"></line><line x1="288.828125" y1="0" x2="288.828125" y2="178" fill="rgb(0, 0, 0)" stroke="rgb(60, 60, 60)" stroke-width="1px" opacity="0.25"></line></g><g><line x1="0" y1="178" x2="288.828125" y2="178" fill="rgb(0, 0, 0)" stroke="rgb(60, 60, 60)" stroke-width="1px" opacity="0.25"></line><line x1="0" y1="155.75" x2="288.828125" y2="155.75" fill="rgb(0, 0, 0)" stroke="rgb(60, 60, 60)" stroke-width="1px" opacity="0.25"></line><line x1="0" y1="133.5" x2="288.828125" y2="133.5" fill="rgb(0, 0, 0)" stroke="rgb(60, 60, 60)" stroke-width="1px" opacity="0.25"></line><line x1="0" y1="111.25" x2="288.828125" y2="111.25" fill="rgb(0, 0, 0)" stroke="rgb(60, 60, 60)" stroke-width="1px" opacity="0.25"></line><line x1="0" y1="89" x2="288.828125" y2="89" fill="rgb(0, 0, 0)" stroke="rgb(60, 60, 60)" stroke-width="1px" opacity="0.25"></line><line x1="0" y1="66.75" x2="288.828125" y2="66.75" fill="rgb(0, 0, 0)" stroke="rgb(60, 60, 60)" stroke-width="1px" opacity="0.25"></line><line x1="0" y1="44.5" x2="288.828125" y2="44.5" fill="rgb(0, 0, 0)" stroke="rgb(60, 60, 60)" stroke-width="1px" opacity="0.25"></line><line x1="0" y1="22.25" x2="288.828125" y2="22.25" fill="rgb(0, 0, 0)" stroke="rgb(60, 60, 60)" stroke-width="1px" opacity="0.25"></line><line x1="0" y1="0" x2="288.828125" y2="0" fill="rgb(0, 0, 0)" stroke="rgb(60, 60, 60)" stroke-width="1px" opacity="0.25"></line></g></g></g><g><g><line x1="0" y1="155.75" x2="288.828125" y2="155.75" fill="rgb(0, 0, 0)" stroke="rgb(153, 153, 153)" stroke-width="1.5px"></line></g></g><g><g><line x1="36.103515625" y1="0" x2="36.103515625" y2="178" fill="rgb(0, 0, 0)" stroke="rgb(153, 153, 153)" stroke-width="1.5px"></line></g></g><g><g><g><g><g><path stroke="rgb(238, 51, 119)" stroke-width="2px" d="M36.46455078125,155.67977777153254L36.8255859375,155.61248191187158L37.18662109375,155.5893469195372L37.54765625,155.5784676532283L37.90869140625,155.58467663251386L38.269726562500004,155.57826606122805L38.63076171875,155.5638531452699L38.991796875000006,155.52854283238622L39.35283203125,155.48201214713743L39.7138671875,155.44681925313134L40.074902343750004,155.40049109795336L40.4359375,155.35415977178428L40.79697265625,155.28416431777848L41.158007812499996,155.1264272627221L41.51904296875,155.05650698818204L41.880078125,155.02022104102446L42.241113281249994,154.86628283659664L42.6021484375,154.7620141921852L42.963183593749996,154.7282985910023L43.32421875,154.66864610727524L43.68525390625,154.65811265616702L44.0462890625,154.5924590151889L44.40732421875,154.46813036969246L44.768359375,154.34470862874122L45.12939453125,154.37392963759063L45.4904296875,154.22647813792832L45.85146484375,154.13671166528297L46.2125,154.02364376342229L46.57353515625,153.9614610554695L46.9345703125,153.82490294834525L47.295605468750004,153.7716597633104L47.656640625,153.4923336682065L48.017675781250006,153.07767604858532L48.3787109375,152.60336716074298L48.73974609375,152.01120875138457L49.100781250000004,151.23060296838042L49.46181640625,150.42602976577987L49.8228515625,149.43199265359792L50.183886718749996,148.6009580986996L50.544921875,147.91176300679703L50.90595703125,147.00555491562557L51.266992187499994,146.11165534045517L51.62802734375,145.258799364L51.989062499999996,144.35551823518685L52.35009765625,143.22613339735457L52.7111328125,142.444524078281L53.07216796875,141.31579655447032L53.433203125,140.43642169639534L53.79423828125,139.33308753778084L54.1552734375,138.48845818977594L54.51630859375,137.2157354668379L54.87734375,136.40169303486113L55.23837890625,135.49598908751665L55.5994140625,134.51525114446454L55.96044921875,133.44219797366534L56.321484375000004,132.39508414217002L56.68251953125,131.65637455146395L57.043554687500006,130.91449646091976L57.40458984375,130.1743893896133L57.765625,129.37177883640467L58.126660156250004,128.30139960775097L58.4876953125,128.09218811517547L58.84873046875,127.62012602523322L59.209765624999996,126.93261344167801L59.57080078125,126.08793658002145L59.9318359375,125.37506129493669L60.292871093749994,124.85347844261143L60.65390625,124.6028420399321L61.014941406249996,123.88306308833916L61.3759765625,123.52516094260308L61.73701171875,123.12709209473665L62.098046875,122.9664123308166L62.45908203125,122.5925204636755L62.8201171875,122.37904416907445L63.18115234375,121.73282020872006L63.5421875,121.3911285571168L63.90322265625,121.2460964915699L64.2642578125,121.04886478886283L64.62529296875,120.99216956606672L64.986328125,120.53624712843398L65.34736328125,120.46970666634263L65.70839843750001,120.49495435564053L66.06943359375,120.30864839463432L66.43046875,120.36635674613119L66.79150390625,119.92964543805957L67.1525390625,119.94763539210818L67.51357421875001,119.51437727103153L67.87460937499999,119.14256399994801L68.23564453125,118.75897835663386L68.5966796875,118.73082475812095L68.95771484375,118.84010329908644L69.31875,118.1489857312829L69.67978515624999,118.17207008867209L70.0408203125,118.42220065610853L70.40185546875,118.17996385679989L70.762890625,118.39392043749304L71.12392578125,118.19156872367745L71.4849609375,117.74002277717521L71.84599609375,117.04368482414203L72.20703125,116.68083346833777L72.56806640625,116.18086516278977L72.9291015625,115.94673787819144L73.29013671874999,115.53100874559162L73.651171875,115.4568552015786L74.01220703125,115.08524706259755L74.3732421875,114.73517579493158L74.73427734375,114.61375685940524L75.0953125,114.354223598065L75.45634765624999,114.17853649343374L75.8173828125,114.184662133487L76.17841796875,113.96168872906681L76.53945312500001,113.79163707777211L76.90048828124999,113.24927364375799L77.2615234375,112.9810993577636L77.62255859375,112.65053989419917L77.98359375000001,112.62313973241794L78.34462890625,112.19964033969492L78.7056640625,111.69563018160015L79.06669921875,111.57064284895031L79.427734375,110.73505190810067L79.78876953125,109.87142187667193L80.14980468750001,109.19874732155978L80.51083984375,108.62960525023567L80.871875,108.49007569591777L81.23291015625,108.33360817695008L81.5939453125,107.88879176774232L81.95498046875,107.53008536337975L82.31601562499999,107.25102449988822L82.67705078125,107.63154855308234L83.0380859375,107.84267165504276L83.39912109375,107.92156858445634L83.76015625,107.90267822647945L84.12119140625,107.6308707145742L84.48222656249999,107.29826711868591L84.84326171875,107.3130581258258L85.204296875,107.02112315979726L85.56533203125001,106.27195862488226L85.92636718749999,105.54839270422623L86.28740234375,104.5478179101334L86.6484375,103.63389660240327L87.00947265625001,103.47721660829255L87.3705078125,103.25979607520503L87.73154296875,103.60855937730074L88.092578125,103.42481777054549L88.45361328125,103.20907950510075L88.8146484375,102.90773411053114L89.17568359375001,102.89483805237826L89.53671875,102.81618533264765L89.89775390625,102.49134672815305L90.2587890625,102.12054308327856L90.61982421875,101.7009425186683L90.980859375,101.44921613070781L91.34189453124999,101.8534579468573L91.7029296875,101.69425907902747L92.06396484375,101.40834364016551L92.425,101.29819644594012L92.78603515625,100.69421057691466L93.1470703125,100.14600358003551L93.50810546874999,100.34783232685432L93.869140625,100.72951694677178L94.23017578125,100.54191738241853L94.59121093750001,100.89692406531537L94.95224609374999,100.38966852305153L95.31328125,100.11110287164341L95.67431640625,99.74848560604269L96.03535156250001,98.98042058725844L96.39638671875,98.57055395757966L96.757421875,98.58537616727241L97.11845703125,98.32065859220914L97.4794921875,97.57443022002278L97.84052734375,97.45518761199412L98.20156250000001,97.86883980108321L98.56259765625,97.89671754642141L98.9236328125,97.96395756032356L99.28466796875,97.7326163574832L99.645703125,97.2158087976442L100.00673828125,96.84723381374278L100.36777343749999,96.86941017349957L100.72880859375,96.55238008237124L101.08984375,96.98585190806531L101.45087890625,96.69391934796418L101.8119140625,96.45142314198165L102.17294921875,96.1297397494468L102.53398437499999,95.5879544453712L102.89501953125,95.84011214476179L103.2560546875,95.56507970751137L103.61708984375001,95.44254220927245L103.97812499999999,95.24154122522168L104.33916015625,95.50211312014277L104.7001953125,94.93550508522041L105.06123046875001,94.92817396177679L105.422265625,94.30597383507387L105.78330078125,93.38626578908143L106.1443359375,93.14792097247228L106.50537109375,93.37287291429391L106.86640625,93.2721032651779L107.22744140625001,92.71198611071809L107.5884765625,92.21637147600117L107.94951171875,92.37020075425303L108.310546875,91.55338265958306L108.67158203125,90.7762146543436L109.0326171875,90.54260995715693L109.39365234374999,89.57949590593479L109.7546875,89.23808804649055L110.11572265625,88.48704276930057L110.4767578125,88.14524287349441L110.83779296875,87.56986828879391L111.198828125,87.29540244910642L111.55986328124999,86.71389668186622L111.9208984375,86.20955828499864L112.28193359375,86.27721186919256L112.64296875000001,86.2240509069159L113.00400390624999,86.18676837373938L113.3650390625,86.41318220954635L113.72607421875,85.98477626908718L114.08710937500001,86.22418582981169L114.44814453125,86.31296706429328L114.8091796875,85.82953060478691L115.17021484375,85.65169922835067L115.53125,85.77394019130726L115.89228515625,85.43834867288983L116.25332031250001,85.26391539269873L116.61435546875,84.82862346657627L116.975390625,84.78519248204536L117.33642578125,84.25761530612176L117.6974609375,83.61119210847774L118.05849609375,82.80595513325072L118.41953124999999,82.6871485499211L118.78056640625,82.39597473786282L119.1416015625,82.19667105487592L119.50263671875,81.5134891746736L119.863671875,81.14423953141548L120.22470703125,81.27582972959149L120.58574218749999,81.44889548179783L120.94677734375,81.2067870876627L121.3078125,80.58427965005855L121.66884765625001,79.84462253857029L122.02988281249999,79.78521114521247L122.39091796875,79.96216425426614L122.751953125,79.91431082062608L123.11298828125001,79.83101129706316L123.4740234375,79.72038729581601L123.83505859375,79.39667665239196L124.19609375,79.23222104880821L124.55712890625,78.6005417662478L124.9181640625,78.56525215325455L125.27919921875001,78.56740937911091L125.640234375,78.87482319094312L126.00126953125,78.49526439796432L126.3623046875,78.38258704454032L126.72333984375,78.41012165421441L127.084375,77.9372619268548L127.44541015624999,78.19030832798788L127.8064453125,77.94372482223218L128.16748046875,77.16223367263618L128.528515625,77.1601136715993L128.88955078125,76.5837231712213L129.2505859375,75.92990345839684L129.61162109375,75.62973782088771L129.97265625,76.08260367886075L130.33369140624998,75.79476231107623L130.6947265625,75.36957757097191L131.05576171875,74.82354091514175L131.41679687500002,74.44340653150692L131.77783203125,74.6022048380936L132.1388671875,74.41433138674289L132.49990234375,74.2204322976219L132.8609375,74.20929145254775L133.22197265625,74.10337553070835L133.5830078125,73.80473701886446L133.94404296875,73.31235637147493L134.305078125,72.6764448592619L134.66611328125,71.99792074856495L135.02714843750002,71.74855802164872L135.38818359375,71.18641636816501L135.74921874999998,71.09563595371151L136.11025390625,70.72259507320346L136.4712890625,70.62739249314083L136.83232421875,70.01766590359934L137.193359375,69.94098217155414L137.55439453125,69.74612888423131L137.9154296875,69.74660250143722L138.27646484375,69.99372260926077L138.6375,69.71614292834944L138.99853515625,69.865766750662L139.35957031249998,70.0071299722722L139.72060546875,69.9751136767227L140.081640625,69.71345440598478L140.44267578125002,69.64451636917681L140.8037109375,69.43165580539281L141.16474609375,69.26761210506187L141.52578125,69.26198837509766L141.88681640625,69.08110031265623L142.2478515625,69.49242764364841L142.60888671875,69.11189191944102L142.969921875,68.50171083525836L143.33095703125,68.08879352996362L143.6919921875,67.4758166758395L144.05302734375002,67.7691749725447L144.4140625,68.61809763489401L144.77509765624998,68.18293710266494L145.1361328125,67.52093065759506L145.49716796875,67.79380161965469L145.858203125,67.34504894664633L146.21923828125,67.11209211212842L146.58027343749998,67.56620180048017L146.94130859375002,67.45751414059083L147.30234375,67.32927526902247L147.66337890625,67.37076050443108L148.0244140625,67.05160232926995L148.38544921875,67.0236063560581L148.746484375,66.64592800430869L149.10751953125,66.25499366171607L149.4685546875,65.87759794263512L149.82958984375,65.07916005342285L150.190625,64.89324487238575L150.55166015625,64.53963195150762L150.91269531249998,63.938689449224874L151.27373046875002,64.02641581797243L151.634765625,64.03234347882058L151.99580078125,63.71146617640368L152.3568359375,63.84743692630119L152.71787109375,63.84394408937447L153.07890625000002,63.69457250831218L153.43994140625,63.827454991803705L153.80097656249998,63.21176605538494L154.16201171875,63.27318841741066L154.523046875,63.43331041983117L154.88408203125,63.56351097113697L155.2451171875,63.32767597965485L155.60615234374998,63.035971188378845L155.96718750000002,62.58712284364253L156.32822265625,62.21800933240622L156.6892578125,62.115507564775754L157.05029296875,62.75357236113108L157.411328125,62.68961592034076L157.77236328125,62.62726735493884L158.1333984375,62.28743258703556L158.49443359375,62.20127312033658L158.85546875,62.068923906381634L159.21650390625,61.923071293291876L159.5775390625,61.45775244394386L159.93857421874998,60.91271002959873L160.29960937500002,61.04411280364791L160.66064453125,60.84360180694462L161.0216796875,60.594314740172614L161.38271484375,60.54438404063678L161.74375,60.64164879596409L162.10478515625002,61.36662221214878L162.4658203125,62.03008431972091L162.82685546874998,61.80848333109034L163.187890625,62.18437469714054L163.54892578125,62.069100465256966L163.9099609375,62.05983601157606L164.27099609375,61.56387560596907L164.63203124999998,61.26257292217518L164.99306640625002,60.64876915613714L165.3541015625,59.85147636794987L165.71513671875,59.19926985397305L166.076171875,58.35513726028421L166.43720703125,57.81073601217638L166.7982421875,57.872226305792175L167.15927734375,57.59488540505733L167.5203125,57.69105639562229L167.88134765625,57.09006447091828L168.2423828125,56.40847938689667L168.60341796875,56.38563591094659L168.96445312499998,56.09599940545466L169.32548828125002,55.830618228477874L169.6865234375,56.18765090534844L170.04755859375,55.95479272216416L170.40859375,56.136040580808256L170.76962890625,55.47980702670762L171.13066406250002,55.65590264864175L171.49169921875,55.23397264997607L171.85273437499998,56.02625773549346L172.21376953125,56.521059511901555L172.5748046875,56.34846612095929L172.93583984375,56.63383693575918L173.296875,56.50579529500041L173.65791015624998,56.71036273608229L174.01894531250002,56.947789022264615L174.37998046875,57.51939927395449L174.741015625,57.44360260758558L175.10205078125,57.02124350424861L175.4630859375,57.028472451426126L175.82412109375,57.01270551065059L176.18515625,57.15364741527709L176.54619140625,57.40854782416624L176.9072265625,56.66035492130639L177.26826171875,56.52428091543032L177.629296875,56.48375229559607L177.99033203124998,56.05350027872484L178.35136718750002,55.28900675292826L178.71240234375,55.79938613793859L179.0734375,55.09976003969675L179.43447265625,55.13065280726532L179.7955078125,54.63322041971074L180.15654296875002,54.99047598351588L180.517578125,54.984534766134935L180.87861328124998,54.82807461944658L181.2396484375,54.75984632806444L181.60068359375,54.62676415059843L181.96171875,54.38258479651141L182.32275390625,54.11365329489903L182.68378906249998,54.313742819224586L183.04482421875002,53.93473327088045L183.405859375,53.83808703284079L183.76689453125,52.89907316697008L184.1279296875,52.55438408572894L184.48896484375,52.371469288107306L184.85,51.82558564390929L185.21103515625,51.31744260338661L185.5720703125,51.13231077687571L185.93310546875,51.02887740240473L186.294140625,50.360075739538544L186.65517578125,49.88613186950437L187.01621093749998,49.36269212219089L187.37724609375002,49.33378788073642L187.73828125,49.62031862687936L188.09931640625,49.633053969096366L188.4603515625,49.67376325914334L188.82138671875,49.543221059734066L189.18242187500002,49.403545276221294L189.54345703125,49.41688799947302L189.90449218749998,49.89004683166623L190.26552734375,49.65895458215405L190.6265625,49.79965732570843L190.98759765625,49.90575588224146L191.3486328125,49.723793159471825L191.70966796874998,49.81176378020458L192.07070312500002,49.86474170928485L192.43173828125,50.38927416375449L192.7927734375,50.754933425254656L193.15380859375,51.01564847068013L193.51484375,50.88727641150962L193.87587890625,50.427220186505366L194.2369140625,50.22293129403213L194.59794921875,50.3328340632845L194.958984375,50.235002470441415L195.32001953125,50.70921437288983L195.6810546875,50.90252248970069L196.04208984374998,51.26962924699423L196.40312500000002,51.84929381406569L196.76416015625,51.707652307726526L197.1251953125,51.68481095861054L197.48623046875,51.135590585176075L197.847265625,51.345531230988456L198.20830078125002,51.347102582587226L198.5693359375,51.19996555956209L198.93037109374998,51.17514147562983L199.29140625,51.06633094861031L199.65244140625,51.326019028150554L200.0134765625,51.34225332362861L200.37451171875,51.41565573563225L200.73554687499998,51.59673893088129L201.09658203125002,51.407387688362775L201.4576171875,51.50954653513681L201.81865234375,51.49654933221488L202.1796875,51.156981021448075L202.54072265625,50.804516493728215L202.9017578125,50.93657647338539L203.26279296875,50.78258943871872L203.623828125,50.511558942772254L203.98486328125,50.167168031678976L204.3458984375,50.22581150015973L204.70693359375,50.46727724433413L205.06796874999998,50.515766279461786L205.42900390625002,49.9257491048353L205.7900390625,49.47727136231525L206.15107421875,49.13126848755516L206.512109375,48.60788624512098L206.87314453125,48.31667184106672L207.23417968750002,47.878183463526746L207.59521484375,47.74686030394613L207.95624999999998,47.79209549144971L208.31728515625,48.08733932611984L208.6783203125,48.22424169991995L209.03935546875,48.67975778850665L209.400390625,49.09151067896338L209.76142578124998,48.05553702261239L210.12246093750002,47.94421714154596L210.48349609375,47.64578293995686L210.84453125,47.004812201718266L211.20556640625,46.878054893052436L211.5666015625,46.835516743204515L211.92763671875,46.965178911889495L212.288671875,46.9962110153466L212.64970703125,47.1251622476357L213.0107421875,47.41993493403064L213.37177734375,47.89219771578947L213.7328125,47.52565005037211L214.09384765624998,47.73859965546741L214.45488281250002,48.03718814411053L214.81591796875,47.404107594718255L215.176953125,47.33831236566884L215.53798828125,47.18689534786813L215.8990234375,47.18786441209001L216.26005859375002,47.41462068582821L216.62109375,47.441418041379734L216.98212890624998,47.511880213255566L217.3431640625,47.84222331227953L217.70419921875,47.49216711725053L218.065234375,46.90891083553585L218.42626953125,46.761312016458234L218.78730468749998,46.73730542886908L219.14833984375002,46.64490425341519L219.509375,46.31283509965654L219.87041015625,46.222388285135736L220.2314453125,46.07850364979238L220.59248046875,45.431300126887145L220.953515625,45.774761826620576L221.31455078125,45.874868875757514L221.6755859375,46.17853692604042L222.03662109375,46.55349956651294L222.39765625,46.429837685464406L222.75869140625,45.67596172382747L223.11972656249998,45.31171268493124L223.48076171875002,45.69778908556812L223.841796875,46.017025288499084L224.20283203125,45.68767473730844L224.5638671875,45.46246647568586L224.92490234375,45.44303500015761L225.28593750000002,45.581851517672675L225.64697265625,45.3935893041583L226.00800781249998,45.640912493627795L226.36904296875,45.602077220297765L226.730078125,45.27150225258881L227.09111328125,45.04238426170953L227.4521484375,45.14911210609798L227.81318359374998,44.96889585252598L228.17421875000002,44.883627214884726L228.53525390625,45.38280859211444L228.8962890625,45.35245953881359L229.25732421875,45.75216007997763L229.618359375,46.19390350037915L229.97939453125,46.4348662091142L230.3404296875,46.658432420781025L230.70146484375,46.56696225398229L231.0625,46.073623153170644L231.42353515625,45.58450207793752L231.7845703125,45.5218541703465L232.14560546874998,45.72409120093839L232.50664062500002,45.476241494244654L232.86767578125,45.195615135804616L233.2287109375,44.51828686712731L233.58974609375,43.98491117667287L233.95078125,44.00911705512482L234.31181640625002,44.1348145323913L234.6728515625,44.43385203730588L235.03388671874998,44.18760748703194L235.394921875,43.77378421878167L235.75595703125,43.12388753566354L236.1169921875,43.059059724767266L236.47802734375,42.97366401479199L236.83906249999998,43.203156294617386L237.20009765625002,42.87172214591105L237.5611328125,43.01377935077905L237.92216796875,42.84479275695179L238.283203125,43.125969343135935L238.64423828125,42.43609472844015L239.0052734375,42.3493660960973L239.36630859375,42.50254659857634L239.72734375,42.72706674698759L240.08837890625,42.67208889462812L240.4494140625,42.35358677183545L240.81044921875,42.02752968761299L241.17148437499998,41.662038198309986L241.53251953125002,41.72776167631021L241.8935546875,41.618594444750975L242.25458984375,41.741298359965825L242.615625,41.554816796741214L242.97666015625,41.5159736962088L243.33769531250002,41.15808672016669L243.69873046875,41.18095042077188L244.05976562499998,41.124105286642816L244.42080078125,40.97604300597007L244.7818359375,40.80854297887501L245.14287109375,40.34307994992267L245.50390625,39.957555123273934L245.86494140624998,40.24803423363234L246.22597656250002,39.79653501771846L246.58701171875,39.470282094615435L246.948046875,39.08342804583177L247.30908203125,38.76175067515532L247.6701171875,38.13010527569867L248.03115234375,38.136131036512964L248.3921875,38.13644375862654L248.75322265625,37.720992048632965L249.1142578125,37.890250258476655L249.47529296875,38.221345223445375L249.836328125,38.25986304227034L250.19736328124998,38.13024942936612L250.55839843750002,38.045392333400926L250.91943359375,37.81411509974758L251.28046875,37.28454510965322L251.64150390625,37.54380384801851L252.0025390625,37.809001180881424L252.36357421875002,38.133294324251494L252.724609375,37.685428620918074L253.08564453124998,38.51648172089069L253.4466796875,38.53699389093286L253.80771484375,38.634498702723775L254.16875,38.58287060835302L254.52978515625,38.73709132253134L254.89082031249998,38.87056570660474L255.25185546875002,39.00307038099408L255.612890625,38.792910343830826L255.97392578125,39.00010802270475L256.3349609375,38.82304125405254L256.69599609375,39.0660870815331L257.05703125,39.77393893104877L257.41806640625,40.155328812730815L257.7791015625,40.2742544775799L258.14013671875,40.43136689553232L258.501171875,40.3255853350733L258.86220703125,40.38054224108306L259.2232421875,39.787985012618584L259.58427734375,39.30797344165318L259.9453125,38.48269635747236L260.30634765625,38.58567811721778L260.66738281249997,38.500756235565035L261.02841796875003,38.532746282842936L261.389453125,38.891312564627626L261.75048828125,39.277982668171106L262.1115234375,39.14934026008237L262.47255859374997,39.36346902421349L262.83359375000003,39.18997423679373L263.19462890625,38.92734611434187L263.5556640625,38.87727107192542L263.91669921875,38.91316122713964L264.277734375,39.30112500776816L264.63876953125,39.39572621315698L264.9998046875,39.27882177525748L265.36083984375,39.08647250851388L265.721875,39.07019930100677L266.08291015625,39.16714411673688L266.4439453125,39.23226413117494L266.80498046875,39.66694722382214L267.166015625,39.2878359978675L267.52705078125,39.41388677938454L267.8880859375,39.426743566654174L268.24912109375,39.57152111557843L268.61015625,39.019536692784555L268.97119140625,38.90490872221369L269.3322265625,38.44376383684384L269.69326171874997,38.14126342905945L270.05429687500003,37.75331512530677L270.41533203125,37.76035290575045L270.7763671875,38.07662965116512L271.13740234375,38.238724433765455L271.49843749999997,38.18389799033741L271.85947265625003,38.77714189478837L272.2205078125,38.33419590347459L272.58154296875,38.197968286713646L272.942578125,37.97305166294616L273.30361328125,37.73235986739659L273.6646484375,37.54880630129733L274.02568359375,37.703159085954184" style="fill: none;" fill="none"></path></g></g></g></g><g opacity="0.2"><g><g><g><path stroke="rgb(238, 51, 119)" stroke-width="2px" d="M36.46455078125,155.67977777153254L36.8255859375,155.572104396075L37.18662109375,155.5671373268962L37.54765625,155.565673636049L37.90869140625,155.59278307586908L38.269726562500004,155.56939793333413L38.63076171875,155.54324244484306L38.991796875000006,155.47706005722284L39.35283203125,155.41338842451572L39.7138671875,155.39456190705297L40.074902343750004,155.3314190581441L40.4359375,155.28491491556167L40.79697265625,155.17939968407154L41.158007812499996,154.89013070344924L41.51904296875,154.9517087650299L41.880078125,154.96581771194934L42.241113281249994,154.63544067144394L42.6021484375,154.60563769936562L42.963183593749996,154.67773032546043L43.32421875,154.57917283415796L43.68525390625,154.64231305718423L44.0462890625,154.4939807140827L44.40732421875,154.2816398561001L44.768359375,154.15957747936247L45.12939453125,154.41776094317436L45.4904296875,154.00530151724817L45.85146484375,154.00206218600275L46.2125,153.85404208421707L46.57353515625,153.86818705081942L46.9345703125,153.62006586313248L47.295605468750004,153.69179500341417L47.656640625,153.07334458112717L48.017675781250006,152.4556896686554L48.3787109375,151.89190386295317L48.73974609375,151.122971162796L49.100781250000004,150.059694314003L49.46181640625,149.2191699743271L49.8228515625,147.94093699455263L50.183886718749996,147.35440627098083L50.544921875,146.87797037124633L50.90595703125,145.64624278068544L51.266992187499994,144.77080597877503L51.62802734375,143.97951539993286L51.989062499999996,143.00059654235838L52.35009765625,141.53205614089964L52.7111328125,141.27211009979249L53.07216796875,139.62270526885985L53.433203125,139.1173594093323L53.79423828125,137.67808629989622L54.1552734375,137.22151416778564L54.51630859375,135.3066513824463L54.87734375,135.18062938690187L55.23837890625,134.1374331665039L55.5994140625,133.0441442298889L55.96044921875,131.83261821746825L56.321484375000004,130.82441339492797L56.68251953125,130.54831016540527L57.043554687500006,129.80167932510378L57.40458984375,129.0642287826538L57.765625,128.1678630065918L58.126660156250004,126.6958307647705L58.4876953125,127.77837087631227L58.84873046875,126.91203289031982L59.209765624999996,125.90134456634522L59.57080078125,124.82092128753662L59.9318359375,124.30574836730958L60.292871093749994,124.07110416412354L60.65390625,124.22688743591308L61.014941406249996,122.8033946609497L61.3759765625,122.98830772399901L61.73701171875,122.52998882293701L62.098046875,122.72539268493652L62.45908203125,122.03168266296387L62.8201171875,122.05882972717285L63.18115234375,120.76348426818848L63.5421875,120.87859107971192L63.90322265625,121.02854839324951L64.2642578125,120.75301723480224L64.62529296875,120.90712673187255L64.986328125,119.85236347198486L65.34736328125,120.36989597320556L65.70839843750001,120.5328258895874L66.06943359375,120.029189453125L66.43046875,120.45291927337647L66.79150390625,119.27457847595215L67.1525390625,119.97462032318114L67.51357421875001,118.8644900894165L67.87460937499999,118.58484409332274L68.23564453125,118.1835998916626L68.5966796875,118.68859436035157L68.95771484375,119.00402111053467L69.31875,117.11230937957764L69.67978515624999,118.20669662475586L70.0408203125,118.79739650726319L70.40185546875,117.81660865783692L70.762890625,118.71485530853272L71.12392578125,117.8880411529541L71.4849609375,117.06270385742187L71.84599609375,115.9991778945923L72.20703125,116.13655643463134L72.56806640625,115.43091270446777L72.9291015625,115.59554695129395L73.29013671874999,114.9074150466919L73.651171875,115.34562488555909L74.01220703125,114.52783485412598L74.3732421875,114.21006889343262L74.73427734375,114.43162845611573L75.0953125,113.96492370605469L75.45634765624999,113.91500583648681L75.8173828125,114.19385059356689L76.17841796875,113.62722862243652L76.53945312500001,113.53655960083009L76.90048828124999,112.43572849273681L77.2615234375,112.57883792877197L77.62255859375,112.15470069885254L77.98359375000001,112.5820394897461L78.34462890625,111.56439125061036L78.7056640625,110.93961494445801L79.06669921875,111.38316184997558L79.427734375,109.48166549682617L79.78876953125,108.5759768295288L80.14980468750001,108.1897354888916L80.51083984375,107.77589214324951L80.871875,108.28078136444091L81.23291015625,108.09890689849854L81.5939453125,107.22156715393066L81.95498046875,106.99202575683594L82.31601562499999,106.83243320465087L82.67705078125,108.20233463287354L83.0380859375,108.1593563079834L83.39912109375,108.03991397857666L83.76015625,107.87434268951415L84.12119140625,107.22315944671631L84.48222656249999,106.79936172485353L84.84326171875,107.33524463653563L85.204296875,106.5832207107544L85.56533203125001,105.14821182250977L85.92636718749999,104.46304382324219L86.28740234375,103.04695571899414L86.6484375,102.26301464080811L87.00947265625001,103.24219661712647L87.3705078125,102.93366527557373L87.73154296875,104.13170433044434L88.092578125,103.1492053604126L88.45361328125,102.88547210693359L88.8146484375,102.45571601867675L89.17568359375001,102.87549396514893L89.53671875,102.69820625305175L89.89775390625,102.00408882141113L90.2587890625,101.56433761596679L90.61982421875,101.07154167175293L90.980859375,101.07162654876709L91.34189453124999,102.45982067108154L91.7029296875,101.45546077728272L92.06396484375,100.97947048187257L92.425,101.13297565460205L92.78603515625,99.78823177337647L93.1470703125,99.3236930847168L93.50810546874999,100.65057544708252L93.869140625,101.30204387664796L94.23017578125,100.26051803588868L94.59121093750001,101.42943408966065L94.95224609374999,99.62878520965576L95.31328125,99.69325439453125L95.67431640625,99.20455970764161L96.03535156250001,97.82832305908204L96.39638671875,97.95575401306152L96.757421875,98.60760948181152L97.11845703125,97.92358222961425L97.4794921875,96.45508766174316L97.84052734375,97.27632369995118L98.20156250000001,98.4893180847168L98.56259765625,97.93853416442872L98.9236328125,98.06481758117675L99.28466796875,97.38560455322266L99.645703125,96.44059745788574L100.00673828125,96.29437133789062L100.36777343749999,96.90267471313476L100.72880859375,96.07683494567871L101.08984375,97.63605964660644L101.45087890625,96.25602050781251L101.8119140625,96.08767883300781L102.17294921875,95.64721466064452L102.53398437499999,94.7752764892578L102.89501953125,96.21834869384766L103.2560546875,95.15253105163575L103.61708984375001,95.25873596191406L103.97812499999999,94.94003974914551L104.33916015625,95.89297096252442L104.7001953125,94.08559303283691L105.06123046875001,94.91717727661133L105.422265625,93.37267364501953L105.78330078125,92.00670372009277L106.1443359375,92.7904037475586L106.50537109375,93.71030082702637L106.86640625,93.1209487915039L107.22744140625001,91.87181037902832L107.5884765625,91.47294952392579L107.94951171875,92.60094467163086L108.310546875,90.32815551757812L108.67158203125,89.61046264648436L109.0326171875,90.19220291137695L109.39365234374999,88.13482482910156L109.7546875,88.72597625732422L110.11572265625,87.36047485351563L110.4767578125,87.63254302978515L110.83779296875,86.70680641174316L111.198828125,86.8837036895752L111.55986328124999,85.84163803100586L111.9208984375,85.45305068969726L112.28193359375,86.37869224548339L112.64296875000001,86.14430946350097L113.00400390624999,86.13084457397461L113.3650390625,86.75280296325684L113.72607421875,85.34216735839844L114.08710937500001,86.58330017089844L114.44814453125,86.44613891601563L114.8091796875,85.10437591552734L115.17021484375,85.38495216369628L115.53125,85.95730163574218L115.89228515625,84.93496139526367L116.25332031250001,85.0022654724121L116.61435546875,84.17568557739258L116.975390625,84.72004600524902L117.33642578125,83.46624954223633L117.6974609375,82.64155731201171L118.05849609375,81.59809967041015L118.41953124999999,82.50893867492675L118.78056640625,81.95921401977539L119.1416015625,81.8977155303955L119.50263671875,80.48871635437011L119.863671875,80.59036506652832L120.22470703125,81.47321502685547L120.58574218749999,81.70849411010742L120.94677734375,80.84362449645997L121.3078125,79.65051849365234L121.66884765625001,78.73513687133789L122.02988281249999,79.69609405517578L122.39091796875,80.22759391784668L122.751953125,79.84253067016601L123.11298828125001,79.70606201171876L123.4740234375,79.5544512939453L123.83505859375,78.91111068725586L124.19609375,78.98553764343262L124.55712890625,77.65302284240722L124.9181640625,78.51231773376465L125.27919921875001,78.5706452178955L125.640234375,79.3359439086914L126.00126953125,77.9259262084961L126.3623046875,78.2135710144043L126.72333984375,78.45142356872559L127.084375,77.22797233581542L127.44541015624999,78.5698779296875L127.8064453125,77.57384956359863L128.16748046875,75.9899969482422L128.528515625,77.15693367004394L128.88955078125,75.71913742065429L129.2505859375,74.94917388916015L129.61162109375,75.17948936462402L129.97265625,76.76190246582031L130.33369140624998,75.36300025939941L130.6947265625,74.73180046081544L131.05576171875,74.00448593139649L131.41679687500002,73.87320495605469L131.77783203125,74.84040229797364L132.1388671875,74.1325212097168L132.49990234375,73.92958366394043L132.8609375,74.19258018493652L133.22197265625,73.94450164794922L133.5830078125,73.35677925109863L133.94404296875,72.57378540039062L134.305078125,71.72257759094238L134.66611328125,70.98013458251953L135.02714843750002,71.37451393127441L135.38818359375,70.34320388793945L135.74921874999998,70.95946533203124L136.11025390625,70.16303375244141L136.4712890625,70.48458862304688L136.83232421875,69.10307601928712L137.193359375,69.82595657348632L137.55439453125,69.45384895324707L137.9154296875,69.7473129272461L138.27646484375,70.3644027709961L138.6375,69.29977340698242L138.99853515625,70.09020248413086L139.35957031249998,70.2191748046875L139.72060546875,69.92708923339843L140.081640625,69.32096549987793L140.44267578125002,69.54110931396484L140.8037109375,69.1123649597168L141.16474609375,69.02154655456543L141.52578125,69.25355278015137L141.88681640625,68.80976821899414L142.2478515625,70.10941864013672L142.60888671875,68.54108833312988L142.969921875,67.58643920898437L143.33095703125,67.46941757202148L143.6919921875,66.55635139465332L144.05302734375002,68.20921241760254L144.4140625,69.89148162841796L144.77509765624998,67.5301963043213L145.1361328125,66.52792098999024L145.49716796875,68.20310806274414L145.858203125,66.6719199371338L146.21923828125,66.76265686035157L146.58027343749998,68.24736633300782L146.94130859375002,67.29448265075683L147.30234375,67.13691696166993L147.66337890625,67.43298835754395L148.0244140625,66.57286506652832L148.38544921875,66.98161239624024L148.746484375,66.07941047668457L149.10751953125,65.66859214782716L149.4685546875,65.31150436401367L149.82958984375,63.8815032196045L150.190625,64.61437210083008L150.55166015625,64.00921257019043L150.91269531249998,63.03727569580079L151.27373046875002,64.15800537109375L151.634765625,64.04123497009277L151.99580078125,63.23015022277832L152.3568359375,64.05139305114746L152.71787109375,63.83870483398438L153.07890625000002,63.470515136718745L153.43994140625,64.02677871704101L153.80097656249998,62.28823265075684L154.16201171875,63.36532196044922L154.523046875,63.67349342346192L154.88408203125,63.75881179809571L155.2451171875,62.97392349243164L155.60615234374998,62.598414001464846L155.96718750000002,61.91385032653808L156.32822265625,61.66433906555176L156.6892578125,61.96175491333008L157.05029296875,63.71066955566407L157.411328125,62.593681259155275L157.77236328125,62.533744506835944L158.1333984375,61.77768043518067L158.49443359375,62.07203392028809L158.85546875,61.87040008544922L159.21650390625,61.704292373657225L159.5775390625,60.75977416992187L159.93857421874998,60.09514640808105L160.29960937500002,61.24121696472167L160.66064453125,60.54283531188965L161.0216796875,60.220384140014644L161.38271484375,60.46948799133301L161.74375,60.78754592895508L162.10478515625002,62.454082336425785L162.4658203125,63.0252774810791L162.82685546874998,61.47608184814453L163.187890625,62.748211746215816L163.54892578125,61.896189117431646L163.9099609375,62.04593933105468L164.27099609375,60.81993499755859L164.63203124999998,60.81061889648437L164.99306640625002,59.72806350708008L165.3541015625,58.65553718566895L165.71513671875,58.22096008300781L166.076171875,57.08893836975098L166.43720703125,56.99413414001465L166.7982421875,57.96446174621582L167.15927734375,57.178874053955084L167.5203125,57.83531288146973L167.88134765625,56.1885765838623L168.2423828125,55.386101760864264L168.60341796875,56.35137069702148L168.96445312499998,55.6615446472168L169.32548828125002,55.4325464630127L169.6865234375,56.723199920654295L170.04755859375,55.6055054473877L170.40859375,56.40791236877442L170.76962890625,54.49545669555664L171.13066406250002,55.920046081542964L171.49169921875,54.60107765197753L171.85273437499998,57.21468536376953L172.21376953125,57.26326217651368L172.5748046875,56.0895760345459L172.93583984375,57.06189315795899L173.296875,56.3137328338623L173.65791015624998,57.017213897705076L174.01894531250002,57.303928451538084L174.37998046875,58.376814651489255L174.741015625,57.32990760803223L175.10205078125,56.387704849243164L175.4630859375,57.03931587219239L175.82412109375,56.9890550994873L176.18515625,57.365060272216795L176.54619140625,57.790898437500005L176.9072265625,55.5380655670166L177.26826171875,56.320169906616215L177.629296875,56.42295936584473L177.99033203124998,55.40812225341797L178.35136718750002,54.1422664642334L178.71240234375,56.564955215454106L179.0734375,54.050320892333986L179.43447265625,55.17699195861816L179.7955078125,53.8870718383789L180.15654296875002,55.52635932922364L180.517578125,54.975622940063474L180.87861328124998,54.59338439941406L181.2396484375,54.65750389099121L181.60068359375,54.42714088439942L181.96171875,54.01631576538085L182.32275390625,53.71025604248047L182.68378906249998,54.61387710571289L183.04482421875002,53.36621894836426L183.405859375,53.69311767578125L183.76689453125,51.49055236816406L184.1279296875,52.037350463867185L184.48896484375,52.09709709167481L184.85,51.00676017761231L185.21103515625,50.555228042602536L185.5720703125,50.854613037109374L185.93310546875,50.87372734069824L186.294140625,49.35687324523926L186.65517578125,49.175216064453124L187.01621093749998,48.5775325012207L187.37724609375002,49.29043151855468L187.73828125,50.050114746093755L188.09931640625,49.65215698242187L188.4603515625,49.734827194213864L188.82138671875,49.347407760620115L189.18242187500002,49.194031600952144L189.54345703125,49.43690208435059L189.90449218749998,50.59978507995605L190.26552734375,49.31231620788574L190.6265625,50.010711441040044L190.98759765625,50.06490371704102L191.3486328125,49.45084907531738L191.70966796874998,49.943719711303714L192.07070312500002,49.94420860290528L192.43173828125,51.17607284545899L192.7927734375,51.30342231750488L193.15380859375,51.40672103881836L193.51484375,50.6947183227539L193.87587890625,49.73713584899902L194.2369140625,49.91649795532227L194.59794921875,50.49768821716309L194.958984375,50.088255081176754L195.32001953125,51.4205322265625L195.6810546875,51.19248466491699L196.04208984374998,51.820289382934575L196.40312500000002,52.71879066467285L196.76416015625,51.49519004821778L197.1251953125,51.65054893493652L197.48623046875,50.31176002502441L197.847265625,51.660442199707035L198.20830078125002,51.349459609985345L198.5693359375,50.979260025024416L198.93037109374998,51.13790534973144L199.29140625,50.90311515808105L199.65244140625,51.71555114746094L200.0134765625,51.3666047668457L200.37451171875,51.525759353637696L200.73554687499998,51.86836372375488L201.09658203125002,51.123360824584964L201.4576171875,51.662784805297846L201.81865234375,51.47705352783203L202.1796875,50.64762855529786L202.54072265625,50.27581970214844L202.9017578125,51.134666442871094L203.26279296875,50.55160888671875L203.623828125,50.10501319885253L203.98486328125,49.650581665039056L204.3458984375,50.31377670288086L204.70693359375,50.82947586059571L205.06796874999998,50.58849983215332L205.42900390625002,49.040723342895504L205.7900390625,48.80455474853515L206.15107421875,48.612264175415035L206.512109375,47.82281288146973L206.87314453125,47.879850234985355L207.23417968750002,47.22045089721679L207.59521484375,47.54987556457519L207.95624999999998,47.85994827270508L208.31728515625,48.53020507812499L208.6783203125,48.42959526062012L209.03935546875,49.36303192138672L209.400390625,49.70914001464844L209.76142578124998,46.50157653808594L210.12246093750002,47.777237319946295L210.48349609375,47.19813163757324L210.84453125,46.04335609436035L211.20556640625,46.68791893005371L211.5666015625,46.771709518432615L211.92763671875,47.159672164917L212.288671875,47.04275917053222L212.64970703125,47.31858909606933L213.0107421875,47.86209396362305L213.37177734375,48.60059188842773L213.7328125,46.9758285522461L214.09384765624998,48.05802406311035L214.45488281250002,48.4850708770752L214.81591796875,46.454486770629885L215.176953125,47.23961952209473L215.53798828125,46.95976982116699L215.8990234375,47.189318008422845L216.26005859375002,47.754755096435545L216.62109375,47.481614074707025L216.98212890624998,47.617573471069335L217.3431640625,48.33773796081543L217.70419921875,46.967082824707035L218.065234375,46.03402641296387L218.42626953125,46.5399137878418L218.78730468749998,46.70129554748536L219.14833984375002,46.506302490234376L219.509375,45.81473136901856L219.87041015625,46.086718063354496L220.2314453125,45.86267669677734L220.59248046875,44.4604948425293L220.953515625,46.289954376220706L221.31455078125,46.02502944946289L221.6755859375,46.63403900146484L222.03662109375,47.115943527221674L222.39765625,46.2443448638916L222.75869140625,44.545147781372066L223.11972656249998,44.76533912658691L223.48076171875002,46.27690368652344L223.841796875,46.495879592895506L224.20283203125,45.193648910522455L224.5638671875,45.124654083251954L224.92490234375,45.41388778686523L225.28593750000002,45.79007629394532L225.64697265625,45.11119598388672L226.00800781249998,46.011897277832034L226.36904296875,45.54382431030274L226.730078125,44.77563980102539L227.09111328125,44.69870727539063L227.4521484375,45.30920387268067L227.81318359374998,44.69857147216797L228.17421875000002,44.755724258422845L228.53525390625,46.13158065795898L228.8962890625,45.30693595886231L229.25732421875,46.35171089172363L229.618359375,46.85651863098144L229.97939453125,46.7963102722168L230.3404296875,46.99378173828126L230.70146484375,46.429757003784175L231.0625,45.33361450195312L231.42353515625,44.85082046508789L231.7845703125,45.427882308959965L232.14560546874998,46.02744674682617L232.50664062500002,45.1044669342041L232.86767578125,44.774675598144526L233.2287109375,43.50229446411133L233.58974609375,43.18484764099121L233.95078125,44.04542587280274L234.31181640625002,44.32336074829101L234.6728515625,44.88240829467773L235.03388671874998,43.81824066162109L235.394921875,43.15304931640625L235.75595703125,42.149042510986334L236.1169921875,42.96181800842285L236.47802734375,42.8455704498291L236.83906249999998,43.54739471435546L237.20009765625002,42.37457092285156L237.5611328125,43.226865158081054L237.92216796875,42.59131286621094L238.283203125,43.5477342224121L238.64423828125,41.40128280639648L239.0052734375,42.21927314758301L239.36630859375,42.73231735229493L239.72734375,43.0638469696045L240.08837890625,42.58962211608886L240.4494140625,41.87583358764648L240.81044921875,41.53844406127929L241.17148437499998,41.11380096435546L241.53251953125002,41.82634689331054L241.8935546875,41.45484359741211L242.25458984375,41.92535423278808L242.615625,41.275094451904295L242.97666015625,41.457709045410155L243.33769531250002,40.62125625610352L243.69873046875,41.21524597167969L244.05976562499998,41.038837585449215L244.42080078125,40.753949584960935L244.7818359375,40.55729293823242L245.14287109375,39.64488540649414L245.50390625,39.379267883300784L245.86494140624998,40.68375289916992L246.22597656250002,39.11928619384766L246.58701171875,38.980902709960944L246.948046875,38.50314697265625L247.30908203125,38.279234619140624L247.6701171875,37.182637176513666L248.03115234375,38.14516967773437L248.3921875,38.13691284179687L248.75322265625,37.09781448364258L249.1142578125,38.14413757324219L249.47529296875,38.71798767089844L249.836328125,38.31763977050781L250.19736328124998,37.93582901000977L250.55839843750002,37.918106689453126L250.91943359375,37.46719924926758L251.28046875,36.49019012451171L251.64150390625,37.93269195556641L252.0025390625,38.20679718017578L252.36357421875002,38.619734039306636L252.724609375,37.013630065917965L253.08564453124998,39.76306137084961L253.4466796875,38.5677621459961L253.80771484375,38.78075592041016L254.16875,38.50542846679687L254.52978515625,38.96842239379883L254.89082031249998,39.07077728271484L255.25185546875002,39.201827392578124L255.612890625,38.47767028808593L255.97392578125,39.31090454101563L256.3349609375,38.55744110107422L256.69599609375,39.430655822753906L257.05703125,40.83571670532227L257.41806640625,40.72741363525391L257.7791015625,40.45264297485352L258.14013671875,40.667035522460935L258.501171875,40.16691299438476L258.86220703125,40.46297760009766L259.2232421875,38.89914916992187L259.58427734375,38.58795608520508L259.9453125,37.244780731201175L260.30634765625,38.74015075683593L260.66738281249997,38.37337341308594L261.02841796875003,38.58073135375976L261.389453125,39.42916198730468L261.75048828125,39.857987823486326L262.1115234375,38.95637664794921L262.47255859374997,39.68466217041015L262.83359375000003,38.92973205566406L263.19462890625,38.533403930664065L263.5556640625,38.80215850830078L263.91669921875,38.96699645996094L264.277734375,39.883070678710936L264.63876953125,39.53762802124024L264.9998046875,39.10346511840821L265.36083984375,38.79794860839844L265.721875,39.0457894897461L266.08291015625,39.312561340332024L266.4439453125,39.32994415283203L266.80498046875,40.318971862792964L267.166015625,38.71916915893554L267.52705078125,39.60296295166016L267.8880859375,39.4460287475586L268.24912109375,39.78868743896484L268.61015625,38.19156005859375L268.97119140625,38.73296676635742L269.3322265625,37.752046508789064L269.69326171874997,37.68751281738281L270.05429687500003,37.17139266967773L270.41533203125,37.77090957641602L270.7763671875,38.5510447692871L271.13740234375,38.48186660766602L271.49843749999997,38.10165832519532L271.85947265625003,39.66700775146484L272.2205078125,37.669776916503906L272.58154296875,37.99362686157227L272.942578125,37.63567672729492L273.30361328125,37.37132217407226L273.6646484375,37.27347595214843L274.02568359375,37.93468826293946" style="fill: none;" fill="none"></path></g></g></g></g></g></g><g transform="translate(41, 178)" clip-path="url(#clip_1)"><clipPath id="clip_1"><rect width="288" height="22"></rect></clipPath><g><g><line x1="0" y1="0" x2="0" y2="5" style="visibility: inherit;" fill="rgb(0, 0, 0)" stroke="rgb(204, 204, 204)" stroke-width="1px"></line><line x1="36.103515625" y1="0" x2="36.103515625" y2="5" style="visibility: inherit;" fill="rgb(0, 0, 0)" stroke="rgb(204, 204, 204)" stroke-width="1px"></line><line x1="72.20703125" y1="0" x2="72.20703125" y2="5" style="visibility: inherit;" fill="rgb(0, 0, 0)" stroke="rgb(204, 204, 204)" stroke-width="1px"></line><line x1="108.310546875" y1="0" x2="108.310546875" y2="5" style="visibility: inherit;" fill="rgb(0, 0, 0)" stroke="rgb(204, 204, 204)" stroke-width="1px"></line><line x1="144.4140625" y1="0" x2="144.4140625" y2="5" style="visibility: inherit;" fill="rgb(0, 0, 0)" stroke="rgb(204, 204, 204)" stroke-width="1px"></line><line x1="180.517578125" y1="0" x2="180.517578125" y2="5" style="visibility: inherit;" fill="rgb(0, 0, 0)" stroke="rgb(204, 204, 204)" stroke-width="1px"></line><line x1="216.62109375" y1="0" x2="216.62109375" y2="5" style="visibility: inherit;" fill="rgb(0, 0, 0)" stroke="rgb(204, 204, 204)" stroke-width="1px"></line><line x1="252.724609375" y1="0" x2="252.724609375" y2="5" style="visibility: inherit;" fill="rgb(0, 0, 0)" stroke="rgb(204, 204, 204)" stroke-width="1px"></line><line x1="288.828125" y1="0" x2="288.828125" y2="5" style="visibility: inherit;" fill="rgb(0, 0, 0)" stroke="rgb(204, 204, 204)" stroke-width="1px"></line></g><g transform="translate(0, 8)"><text x="0" y="0" dx="0em" dy="0.95em" style="text-anchor: middle; visibility: hidden; font-family: Roboto, sans-serif; font-size: 12px; font-weight: 200;" fill="rgb(50, 49, 63)" stroke="none" stroke-width="1px">-5M</text><text x="36.103515625" y="0" dx="0em" dy="0.95em" style="text-anchor: middle; visibility: inherit; font-family: Roboto, sans-serif; font-size: 12px; font-weight: 200;" fill="rgb(50, 49, 63)" stroke="none" stroke-width="1px">0</text><text x="72.20703125" y="0" dx="0em" dy="0.95em" style="text-anchor: middle; visibility: inherit; font-family: Roboto, sans-serif; font-size: 12px; font-weight: 200;" fill="rgb(50, 49, 63)" stroke="none" stroke-width="1px">5M</text><text x="108.310546875" y="0" dx="0em" dy="0.95em" style="text-anchor: middle; visibility: inherit; font-family: Roboto, sans-serif; font-size: 12px; font-weight: 200;" fill="rgb(50, 49, 63)" stroke="none" stroke-width="1px">10M</text><text x="144.4140625" y="0" dx="0em" dy="0.95em" style="text-anchor: middle; visibility: inherit; font-family: Roboto, sans-serif; font-size: 12px; font-weight: 200;" fill="rgb(50, 49, 63)" stroke="none" stroke-width="1px">15M</text><text x="180.517578125" y="0" dx="0em" dy="0.95em" style="text-anchor: middle; visibility: inherit; font-family: Roboto, sans-serif; font-size: 12px; font-weight: 200;" fill="rgb(50, 49, 63)" stroke="none" stroke-width="1px">20M</text><text x="216.62109375" y="0" dx="0em" dy="0.95em" style="text-anchor: middle; visibility: inherit; font-family: Roboto, sans-serif; font-size: 12px; font-weight: 200;" fill="rgb(50, 49, 63)" stroke="none" stroke-width="1px">25M</text><text x="252.724609375" y="0" dx="0em" dy="0.95em" style="text-anchor: middle; visibility: inherit; font-family: Roboto, sans-serif; font-size: 12px; font-weight: 200;" fill="rgb(50, 49, 63)" stroke="none" stroke-width="1px">30M</text><text x="288.828125" y="0" dx="0em" dy="0.95em" style="text-anchor: middle; visibility: hidden; font-family: Roboto, sans-serif; font-size: 12px; font-weight: 200;" fill="rgb(50, 49, 63)" stroke="none" stroke-width="1px">35M</text></g><line x1="0" y1="0" x2="288.828125" y2="0" fill="rgb(0, 0, 0)" stroke="rgb(204, 204, 204)" stroke-width="1px"></line></g></g></g></g></svg>