<svg viewBox="0 0 330 200" xmlns="http://www.w3.org/2000/svg"><g><g><g><g><g><line x1="51.5625" y1="178" x2="46.5625" y2="178" style="visibility: inherit;" fill="rgb(0, 0, 0)" stroke="rgb(204, 204, 204)" stroke-width="1px"></line><line x1="51.5625" y1="161.8181818181818" x2="46.5625" y2="161.8181818181818" style="visibility: inherit;" fill="rgb(0, 0, 0)" stroke="rgb(204, 204, 204)" stroke-width="1px"></line><line x1="51.5625" y1="145.63636363636363" x2="46.5625" y2="145.63636363636363" style="visibility: inherit;" fill="rgb(0, 0, 0)" stroke="rgb(204, 204, 204)" stroke-width="1px"></line><line x1="51.5625" y1="129.45454545454547" x2="46.5625" y2="129.45454545454547" style="visibility: inherit;" fill="rgb(0, 0, 0)" stroke="rgb(204, 204, 204)" stroke-width="1px"></line><line x1="51.5625" y1="113.27272727272727" x2="46.5625" y2="113.27272727272727" style="visibility: inherit;" fill="rgb(0, 0, 0)" stroke="rgb(204, 204, 204)" stroke-width="1px"></line><line x1="51.5625" y1="97.09090909090908" x2="46.5625" y2="97.09090909090908" style="visibility: inherit;" fill="rgb(0, 0, 0)" stroke="rgb(204, 204, 204)" stroke-width="1px"></line><line x1="51.5625" y1="80.90909090909092" x2="46.5625" y2="80.90909090909092" style="visibility: inherit;" fill="rgb(0, 0, 0)" stroke="rgb(204, 204, 204)" stroke-width="1px"></line><line x1="51.5625" y1="64.72727272727273" x2="46.5625" y2="64.72727272727273" style="visibility: inherit;" fill="rgb(0, 0, 0)" stroke="rgb(204, 204, 204)" stroke-width="1px"></line><line x1="51.5625" y1="48.54545454545454" x2="46.5625" y2="48.54545454545454" style="visibility: inherit;" fill="rgb(0, 0, 0)" stroke="rgb(204, 204, 204)" stroke-width="1px"></line><line x1="51.5625" y1="32.36363636363635" x2="46.5625" y2="32.36363636363635" style="visibility: inherit;" fill="rgb(0, 0, 0)" stroke="rgb(204, 204, 204)" stroke-width="1px"></line><line x1="51.5625" y1="16.181818181818187" x2="46.5625" y2="16.181818181818187" style="visibility: inherit;" fill="rgb(0, 0, 0)" stroke="rgb(204, 204, 204)" stroke-width="1px"></line><line x1="51.5625" y1="0" x2="46.5625" y2="0" style="visibility: inherit;" fill="rgb(0, 0, 0)" stroke="rgb(204, 204, 204)" stroke-width="1px"></line></g><g transform="translate(41.5625, 0)"><text x="0" y="178" dx="0em" dy="0.3em" style="text-anchor: end; visibility: hidden; font-family: Roboto, sans-serif; font-size: 12px; font-weight: 200;" fill="rgb(50, 49, 63)" stroke="none" stroke-width="1px">-100</text><text x="0" y="161.8181818181818" dx="0em" dy="0.3em" style="text-anchor: end; visibility: inherit; font-family: Roboto, sans-serif; font-size: 12px; font-weight: 200;" fill="rgb(50, 49, 63)" stroke="none" stroke-width="1px">0</text><text x="0" y="145.63636363636363" dx="0em" dy="0.3em" style="text-anchor: end; visibility: hidden; font-family: Roboto, sans-serif; font-size: 12px; font-weight: 200;" fill="rgb(50, 49, 63)" stroke="none" stroke-width="1px">100</text><text x="0" y="129.45454545454547" dx="0em" dy="0.3em" style="text-anchor: end; visibility: inherit; font-family: Roboto, sans-serif; font-size: 12px; font-weight: 200;" fill="rgb(50, 49, 63)" stroke="none" stroke-width="1px">200</text><text x="0" y="113.27272727272727" dx="0em" dy="0.3em" style="text-anchor: end; visibility: hidden; font-family: Roboto, sans-serif; font-size: 12px; font-weight: 200;" fill="rgb(50, 49, 63)" stroke="none" stroke-width="1px">300</text><text x="0" y="97.09090909090908" dx="0em" dy="0.3em" style="text-anchor: end; visibility: inherit; font-family: Roboto, sans-serif; font-size: 12px; font-weight: 200;" fill="rgb(50, 49, 63)" stroke="none" stroke-width="1px">400</text><text x="0" y="80.90909090909092" dx="0em" dy="0.3em" style="text-anchor: end; visibility: hidden; font-family: Roboto, sans-serif; font-size: 12px; font-weight: 200;" fill="rgb(50, 49, 63)" stroke="none" stroke-width="1px">500</text><text x="0" y="64.72727272727273" dx="0em" dy="0.3em" style="text-anchor: end; visibility: inherit; font-family: Roboto, sans-serif; font-size: 12px; font-weight: 200;" fill="rgb(50, 49, 63)" stroke="none" stroke-width="1px">600</text><text x="0" y="48.54545454545454" dx="0em" dy="0.3em" style="text-anchor: end; visibility: hidden; font-family: Roboto, sans-serif; font-size: 12px; font-weight: 200;" fill="rgb(50, 49, 63)" stroke="none" stroke-width="1px">700</text><text x="0" y="32.36363636363635" dx="0em" dy="0.3em" style="text-anchor: end; visibility: inherit; font-family: Roboto, sans-serif; font-size: 12px; font-weight: 200;" fill="rgb(50, 49, 63)" stroke="none" stroke-width="1px">800</text><text x="0" y="16.181818181818187" dx="0em" dy="0.3em" style="text-anchor: end; visibility: hidden; font-family: Roboto, sans-serif; font-size: 12px; font-weight: 200;" fill="rgb(50, 49, 63)" stroke="none" stroke-width="1px">900</text><text x="0" y="0" dx="0em" dy="0.3em" style="text-anchor: end; visibility: hidden; font-family: Roboto, sans-serif; font-size: 12px; font-weight: 200;" fill="rgb(50, 49, 63)" stroke="none" stroke-width="1px">1e+3</text></g><line x1="51.5625" y1="0" x2="51.5625" y2="178" fill="rgb(0, 0, 0)" stroke="rgb(204, 204, 204)" stroke-width="1px"></line></g></g><g transform="translate(51, 0)" clip-path="url(#clip_0)"><clipPath id="clip_0"><rect width="278" height="178"></rect></clipPath><g><g><g><line x1="0" y1="0" x2="0" y2="178" fill="rgb(0, 0, 0)" stroke="rgb(60, 60, 60)" stroke-width="1px" opacity="0.25"></line><line x1="34.8046875" y1="0" x2="34.8046875" y2="178" fill="rgb(0, 0, 0)" stroke="rgb(60, 60, 60)" stroke-width="1px" opacity="0.25"></line><line x1="69.609375" y1="0" x2="69.609375" y2="178" fill="rgb(0, 0, 0)" stroke="rgb(60, 60, 60)" stroke-width="1px" opacity="0.25"></line><line x1="104.4140625" y1="0" x2="104.4140625" y2="178" fill="rgb(0, 0, 0)" stroke="rgb(60, 60, 60)" stroke-width="1px" opacity="0.25"></line><line x1="139.21875" y1="0" x2="139.21875" y2="178" fill="rgb(0, 0, 0)" stroke="rgb(60, 60, 60)" stroke-width="1px" opacity="0.25"></line><line x1="174.0234375" y1="0" x2="174.0234375" y2="178" fill="rgb(0, 0, 0)" stroke="rgb(60, 60, 60)" stroke-width="1px" opacity="0.25"></line><line x1="208.828125" y1="0" x2="208.828125" y2="178" fill="rgb(0, 0, 0)" stroke="rgb(60, 60, 60)" stroke-width="1px" opacity="0.25"></line><line x1="243.6328125" y1="0" x2="243.6328125" y2="178" fill="rgb(0, 0, 0)" stroke="rgb(60, 60, 60)" stroke-width="1px" opacity="0.25"></line><line x1="278.4375" y1="0" x2="278.4375" y2="178" fill="rgb(0, 0, 0)" stroke="rgb(60, 60, 60)" stroke-width="1px" opacity="0.25"></line></g><g><line x1="0" y1="178" x2="278.4375" y2="178" fill="rgb(0, 0, 0)" stroke="rgb(60, 60, 60)" stroke-width="1px" opacity="0.25"></line><line x1="0" y1="161.8181818181818" x2="278.4375" y2="161.8181818181818" fill="rgb(0, 0, 0)" stroke="rgb(60, 60, 60)" stroke-width="1px" opacity="0.25"></line><line x1="0" y1="145.63636363636363" x2="278.4375" y2="145.63636363636363" fill="rgb(0, 0, 0)" stroke="rgb(60, 60, 60)" stroke-width="1px" opacity="0.25"></line><line x1="0" y1="129.45454545454547" x2="278.4375" y2="129.45454545454547" fill="rgb(0, 0, 0)" stroke="rgb(60, 60, 60)" stroke-width="1px" opacity="0.25"></line><line x1="0" y1="113.27272727272727" x2="278.4375" y2="113.27272727272727" fill="rgb(0, 0, 0)" stroke="rgb(60, 60, 60)" stroke-width="1px" opacity="0.25"></line><line x1="0" y1="97.09090909090908" x2="278.4375" y2="97.09090909090908" fill="rgb(0, 0, 0)" stroke="rgb(60, 60, 60)" stroke-width="1px" opacity="0.25"></line><line x1="0" y1="80.90909090909092" x2="278.4375" y2="80.90909090909092" fill="rgb(0, 0, 0)" stroke="rgb(60, 60, 60)" stroke-width="1px" opacity="0.25"></line><line x1="0" y1="64.72727272727273" x2="278.4375" y2="64.72727272727273" fill="rgb(0, 0, 0)" stroke="rgb(60, 60, 60)" stroke-width="1px" opacity="0.25"></line><line x1="0" y1="48.54545454545454" x2="278.4375" y2="48.54545454545454" fill="rgb(0, 0, 0)" stroke="rgb(60, 60, 60)" stroke-width="1px" opacity="0.25"></line><line x1="0" y1="32.36363636363635" x2="278.4375" y2="32.36363636363635" fill="rgb(0, 0, 0)" stroke="rgb(60, 60, 60)" stroke-width="1px" opacity="0.25"></line><line x1="0" y1="16.181818181818187" x2="278.4375" y2="16.181818181818187" fill="rgb(0, 0, 0)" stroke="rgb(60, 60, 60)" stroke-width="1px" opacity="0.25"></line><line x1="0" y1="0" x2="278.4375" y2="0" fill="rgb(0, 0, 0)" stroke="rgb(60, 60, 60)" stroke-width="1px" opacity="0.25"></line></g></g></g><g><g><line x1="0" y1="161.8181818181818" x2="278.4375" y2="161.8181818181818" fill="rgb(0, 0, 0)" stroke="rgb(153, 153, 153)" stroke-width="1.5px"></line></g></g><g><g><line x1="34.8046875" y1="0" x2="34.8046875" y2="178" fill="rgb(0, 0, 0)" stroke="rgb(153, 153, 153)" stroke-width="1.5px"></line></g></g><g><g><g><g><g><path stroke="rgb(238, 51, 119)" stroke-width="2px" d="M35.152734375,161.04316069689665L35.50078125,160.8825448365645L35.848828125000004,160.87897405742933L36.196875,160.9110076851258L36.544921875,160.86572468996786L36.89296875,160.86166591625127L37.241015625,160.73926248747773L37.589062500000004,160.68011001748462L37.937109375000006,160.6283588082443L38.28515625,160.62771334777275L38.633203125,160.5820826031283L38.98125,160.422878407667L39.329296875,160.23432059517913L39.67734375,160.12503186316488L40.025390625,160.26342522162L40.373437499999994,160.18893427792048L40.721484374999996,160.0409644280369L41.06953125,160.09122288446522L41.417578125,159.99761029018168L41.765625,159.90204342899L42.113671875,159.80553706456186L42.461718749999996,159.75758824386813L42.809765625,159.6698873901343L43.1578125,159.56930979078527L43.505859375,159.57754108697097L43.85390625,159.2862594291907L44.201953125,159.15609376170676L44.550000000000004,158.87005439957295L44.898046875,158.8745962580832L45.24609375,158.34802831826013L45.594140625,157.89642105564232L45.9421875,157.45903654050326L46.290234375000004,156.40136004518254L46.638281250000006,155.79916917591606L46.986328125,155.0551448809873L47.334375,153.50623085016062L47.682421875,152.23520893902023L48.03046875,150.33422898295146L48.378515625,150.07335157597944L48.7265625,149.98950207873196L49.074609374999994,148.90413231548266L49.422656249999996,148.02373239623452L49.770703125,147.83221579488534L50.11875,147.01648811825828L50.466796875,145.88220102069502L50.81484375,144.90065326505467L51.162890624999996,143.20988639922166L51.5109375,141.92787615324713L51.858984375,140.84556604615955L52.20703125,140.5537217188688L52.555078125,138.83375321730372L52.903125,138.5808875504987L53.251171875000004,137.406226178202L53.59921875,136.16870047298877L53.947265625,134.6773137341652L54.2953125,134.7871825742172L54.643359375,134.37812840328377L54.991406250000004,134.32369646668616L55.339453125000006,133.71079704815796L55.6875,134.03877780053895L56.035546875,133.31620312607976L56.38359375,134.93259167101365L56.731640625,134.5799917812836L57.0796875,134.13951798469702L57.427734375,132.37674736752274L57.775781249999994,130.79487468116707L58.123828124999996,130.01167791594455L58.471875,130.88508780425425L58.819921875,130.36105286010937L59.16796875,129.63525973453153L59.516015625,129.38482982420612L59.864062499999996,129.8817369503653L60.212109375,129.69285728918223L60.56015625,130.72173533631118L60.908203125,129.37500484702818L61.25625,130.49910270624605L61.604296875,130.2826616636979L61.952343750000004,130.05630761389702L62.300390625,129.3726027612537L62.6484375,127.31381662834315L62.996484375,127.5393352761891L63.34453125,127.37065169172556L63.692578125000004,126.28139852790818L64.040625,128.81861198828256L64.388671875,129.05318477109455L64.73671875000001,128.9906236090168L65.084765625,127.28936706313735L65.4328125,126.77441248530785L65.78085937499999,126.79607663491694L66.12890625,125.79705568221081L66.476953125,126.64653806353458L66.825,125.64634355900144L67.173046875,125.95839586817783L67.52109374999999,126.40812648796992L67.869140625,126.33445283037072L68.2171875,127.36240174527501L68.565234375,127.2406139098248L68.91328125,125.52005453641334L69.261328125,125.12812937934092L69.609375,124.49871629504062L69.957421875,124.1905463608312L70.30546875,124.62365573064999L70.653515625,123.70947434437366L71.0015625,124.43264071679819L71.349609375,125.15139150349866L71.69765625000001,125.26531478269224L72.04570312499999,125.36277804752727L72.39375,125.05050827027773L72.74179687499999,125.55023762374334L73.08984375,124.72623196300667L73.437890625,122.13323420621307L73.7859375,123.184042607801L74.133984375,122.81378135525235L74.48203125,122.49623543246959L74.830078125,122.79277922334894L75.17812500000001,121.61712860467696L75.526171875,121.80060341236228L75.87421875000001,119.92802544407931L76.22226562499999,121.07532385575865L76.5703125,118.29255277847649L76.918359375,117.09585670703618L77.26640625,117.67116179588365L77.614453125,117.2496581260032L77.9625,119.64907878895418L78.310546875,119.42222317447336L78.65859375,120.12740039971241L79.006640625,119.44771148006183L79.3546875,118.17674074634678L79.702734375,119.97740215821288L80.05078125,120.72824754714722L80.39882812500001,119.96499298407666L80.74687499999999,120.6634792554673L81.094921875,120.83884620917527L81.44296874999999,120.69673562633969L81.791015625,120.18415332537768L82.1390625,119.42605922267688L82.487109375,117.55304180580073L82.83515625,117.32434348280572L83.183203125,115.26494888531555L83.53125,114.51403580402314L83.87929687500001,115.14676902769087L84.22734375,114.85580178415715L84.57539062500001,115.57794937660225L84.92343749999999,115.21601179126674L85.271484375,113.46929013583957L85.61953125,114.07786287766852L85.967578125,111.17758988569203L86.315625,110.58332281902175L86.663671875,109.19714303889172L87.01171875,107.49306687358362L87.359765625,108.12990741818426L87.7078125,108.11937746760088L88.055859375,111.33292921493553L88.40390625,110.53553797995563L88.751953125,111.11521478903872L89.10000000000001,110.81588839490762L89.44804687499999,107.57422717313064L89.79609375,107.73756411371504L90.14414062499999,107.14273477948612L90.4921875,109.66513019208796L90.840234375,107.38595972924426L91.18828125,109.71606216567156L91.536328125,102.36742818186032L91.884375,100.65567312893151L92.232421875,101.9323938675933L92.58046875000001,100.17938221011562L92.928515625,101.37445188022421L93.27656250000001,102.61328028118851L93.62460937499999,102.28450816338639L93.97265625,99.24710468940258L94.320703125,101.50650056222109L94.66875,102.3495130193284L95.016796875,101.76707741830867L95.36484375,103.39965964789573L95.712890625,101.85263101601016L96.0609375,99.34080801301518L96.408984375,100.1575256236827L96.75703125,97.26006677690847L97.105078125,97.64078940030701L97.453125,98.45991662225096L97.80117187500001,97.91133582651109L98.14921874999999,96.41832311344926L98.497265625,97.04419503994455L98.84531249999999,94.82514775017412L99.193359375,97.00746529250503L99.54140625,96.40558792905416L99.889453125,97.94746071197794L100.2375,97.50837533077343L100.585546875,98.69243238063734L100.93359375,92.80606161233128L101.28164062500001,90.71714888590019L101.6296875,91.19371504620631L101.97773437500001,91.85197483294394L102.32578124999999,91.84965245125785L102.673828125,95.66781009202602L103.021875,93.31363593980367L103.369921875,92.38765859246885L103.71796875,93.6251408985566L104.066015625,97.48634190774192L104.4140625,93.85244974247897L104.762109375,94.34936584158112L105.11015625,93.81212518676683L105.458203125,92.65515887892802L105.80625,94.82039841684545L106.154296875,92.99402948867261L106.50234375000001,92.3420683723584L106.85039062499999,90.20003161734259L107.1984375,90.718689203005L107.54648437499999,88.7737487668314L107.89453125,89.98849055981475L108.242578125,91.52038996799111L108.590625,91.1327352014978L108.938671875,92.5819116731004L109.28671875,92.63505154487586L109.634765625,90.92509271669823L109.98281250000001,89.69435974045928L110.330859375,92.83794445755682L110.67890625000001,90.53103498508096L111.02695312499999,90.8533106217304L111.375,91.57549474040327L111.723046875,91.54735870059851L112.07109375,90.03286481641733L112.419140625,89.93187074531915L112.7671875,92.11367884367588L113.115234375,87.27924121955779L113.46328125,85.60222000250883L113.811328125,86.66195453790444L114.159375,86.91593635022844L114.507421875,87.00278235789985L114.85546875,84.14427628174985L115.20351562500001,84.61097437167776L115.55156249999999,85.38636387549244L115.899609375,87.45602722089205L116.24765624999999,90.80496185810341L116.595703125,89.4850636738109L116.94375,85.67046305336325L117.291796875,81.97987761894977L117.63984375,85.34920178443804L117.987890625,84.97365705699096L118.3359375,86.33622446324286L118.68398437500001,85.2183566372852L119.03203125,86.88664743851459L119.38007812500001,89.80782812930195L119.72812499999999,88.88922295623883L120.076171875,88.47891989323902L120.42421875,86.37236230082269L120.772265625,85.56251224022374L121.1203125,86.12551469054759L121.468359375,85.30288898123197L121.81640625,83.90177074225481L122.164453125,83.05683903448642L122.5125,80.90915189370321L122.860546875,80.67151037894209L123.20859375,80.51606416415503L123.556640625,79.90548788592199L123.90468750000001,80.09277877114837L124.25273437499999,77.64219784685096L124.60078125,77.187768015639L124.94882812499999,78.6145407809743L125.296875,78.46186402824367L125.644921875,77.84042195032688L125.99296875,78.2575028150825L126.341015625,75.98216299941882L126.6890625,73.93539878509162L127.037109375,74.78812612297259L127.38515625000001,73.96337190070115L127.733203125,74.50604413651445L128.08125,76.61407909643282L128.429296875,78.77676777035968L128.77734375,79.00854394968032L129.125390625,74.1460905477201L129.47343750000002,69.77925145221162L129.821484375,68.43351358439516L130.16953125,71.46713908991266L130.517578125,73.26400562191634L130.865625,72.94493852939979L131.213671875,71.04824436763988L131.56171874999998,70.23383657974587L131.909765625,68.76260867725092L132.2578125,72.32053657531362L132.605859375,75.52547604231175L132.95390625,74.58184998973366L133.301953125,78.0777907244865L133.65,77.68780160976291L133.998046875,80.25022662015463L134.34609375,76.85671303175185L134.69414062500002,76.15022015747441L135.04218749999998,79.88649961490368L135.390234375,78.25711692093084L135.73828125,77.32990141143635L136.086328125,74.71973354927658L136.434375,74.63712945840118L136.782421875,70.11453872795263L137.13046875,73.68946362650881L137.478515625,73.90832985381722L137.8265625,71.27105743821363L138.17460937500002,71.7930849245759L138.52265625,67.91832756163474L138.870703125,70.85229540949504L139.21875,74.75581887389306L139.566796875,74.7718953548756L139.91484375,71.7110254409083L140.262890625,74.14240272903362L140.6109375,71.61283758912471L140.958984375,71.11111994516519L141.30703125,69.71464031759626L141.65507812500002,71.13368555774527L142.003125,69.59885156014433L142.351171875,72.32669832067465L142.69921875,69.25093380952127L143.04726562500002,70.04626802719004L143.39531250000002,65.12336748357255L143.74335937499998,67.35305542444752L144.09140624999998,67.7417784783901L144.439453125,66.46733777240338L144.7875,65.5376670011551L145.135546875,64.77109300964193L145.48359374999998,62.90334623547267L145.831640625,65.52743006017565L146.1796875,63.785310841503104L146.527734375,63.59978926591039L146.87578125,59.6838527410093L147.223828125,61.224441793753314L147.571875,64.67861864514403L147.919921875,68.57153189376255L148.26796875,63.31323079286264L148.616015625,64.32076606804713L148.9640625,64.51855312449307L149.312109375,68.97051162434072L149.66015625,61.08206270081182L150.008203125,64.10586009030243L150.35625000000002,63.222120590758166L150.704296875,59.58642163534978L151.05234375,61.47498632638032L151.400390625,65.10284318077136L151.74843750000002,62.54121198978385L152.09648437500002,62.70913162391293L152.44453124999998,63.122623905100575L152.79257812499998,63.220847824949566L153.140625,59.820547180410074L153.488671875,62.56394296556141L153.83671875,56.910838701922074L154.18476562499998,60.71235531632369L154.5328125,59.95757831763513L154.880859375,59.95796105308107L155.22890625,61.45956791380889L155.576953125,62.97064109452115L155.925,63.18974341026381L156.273046875,63.390684691399755L156.62109375,63.82519490574893L156.969140625,64.53764872611983L157.3171875,68.09698629710654L157.665234375,64.23417135922983L158.01328125,62.224399166745286L158.361328125,58.151754512476145L158.709375,58.432406045553854L159.05742187500002,55.24212944054254L159.40546875,53.32915261993634L159.753515625,53.546897067345334L160.1015625,50.88004080610321L160.44960937500002,53.14448577627557L160.79765625000002,53.09262443806647L161.14570312499998,51.2003061969308L161.49374999999998,55.60787144010449L161.841796875,47.71930720355134L162.18984375,48.572048544431944L162.537890625,48.73843118631826L162.88593749999998,50.23834755234492L163.233984375,54.22049521464558L163.58203125,54.49763777154303L163.930078125,53.823318147655925L164.278125,54.94481484100832L164.626171875,50.42804258003113L164.97421875,54.62890349546186L165.322265625,53.33902853193623L165.6703125,58.04560408649129L166.018359375,60.22494337341465L166.36640625,57.04913243917663L166.714453125,59.86812048800883L167.0625,57.3484242725638L167.410546875,63.57424947653544L167.75859375000002,64.58543121113433L168.106640625,63.43900854912376L168.4546875,63.89333610426121L168.802734375,60.80811845055389L169.15078125000002,62.62943490200846L169.49882812500002,60.716969579344294L169.84687499999998,60.26441572310373L170.19492187499998,60.02144258016905L170.54296875,60.002158161737796L170.891015625,61.31002199221313L171.2390625,56.76716110015742L171.58710937499998,53.740354499227976L171.93515625,50.176381334124855L172.283203125,53.56389081219366L172.63125,50.85622995073949L172.979296875,45.522587668597104L173.32734375,47.923685724382686L173.675390625,51.89493835224326L174.0234375,50.05297117895961L174.371484375,50.75544930006042L174.71953125,50.1045628151215L175.067578125,52.48434160420073L175.415625,50.05247388119941L175.763671875,43.591444999884416L176.11171875,49.17343620270054L176.45976562500002,49.76726946309761L176.8078125,50.29544197792958L177.155859375,44.678967379584456L177.50390625,45.801453226046114L177.85195312500002,44.173464309562334L178.20000000000002,44.348179571177766L178.54804687499998,42.9307089234595L178.89609374999998,42.78264623475752L179.244140625,49.22574017338292L179.5921875,40.36962174962634L179.940234375,39.6577895625599L180.28828124999998,40.588837045419446L180.636328125,41.44283507526302L180.984375,40.69769802669191L181.332421875,37.82672876807481L181.68046875,42.2558020868392L182.028515625,41.174815458424526L182.3765625,41.51051733790984L182.724609375,42.286535234066946L183.07265625,44.23432308468731L183.420703125,46.52878969598285L183.76875,48.65847729770336L184.116796875,45.80237260021293L184.46484375,47.47146435380673L184.812890625,47.752749484088014L185.16093750000002,48.16292042021133L185.508984375,49.534884043675085L185.85703125,45.93783818543801L186.205078125,46.73587793789633L186.55312500000002,45.41438760258154L186.90117187500002,44.62196747809721L187.24921874999998,43.23078884090663L187.59726562499998,45.911083878052494L187.9453125,46.990673276050245L188.293359375,49.25334155440856L188.64140625,53.13833234741787L188.98945312499998,52.80364487187402L189.3375,55.1279505949994L189.685546875,54.509402858775196L190.03359375,54.38706572094694L190.381640625,50.48429305472724L190.7296875,51.03418130158636L191.077734375,53.72532833883534L191.42578125,55.77522687723585L191.773828125,54.124209768031854L192.121875,51.494550408049236L192.469921875,55.26345112551135L192.81796875,53.832745391215894L193.166015625,56.27511656178918L193.5140625,58.73587120660475L193.86210937500002,55.9755360407242L194.21015625,54.085097592119176L194.558203125,53.83924636599595L194.90625,54.287136464839044L195.25429687500002,49.33523118643185L195.60234375000002,48.73403302116308L195.95039062499998,50.02337759856433L196.29843749999998,41.454149295289156L196.646484375,39.41535743051156L196.99453125,43.64930962876148L197.342578125,42.45371552690177L197.69062499999998,41.63041477423767L198.038671875,38.71526928357668L198.38671875,41.07936629315737L198.734765625,38.81285392894842L199.0828125,44.17314972420143L199.430859375,41.3585816402737L199.77890625,42.85251523949091L200.126953125,41.27656933545592L200.475,44.548862233375814L200.823046875,45.98055699734084L201.17109375,47.907119532211304L201.519140625,50.207442662153504L201.8671875,53.138558725843254L202.215234375,43.74359018046334L202.56328125000002,47.79585590160187L202.911328125,48.95879545679919L203.259375,45.15806114304258L203.607421875,45.272308409902266L203.95546875000002,47.795290141822036L204.30351562500002,48.9080576965989L204.65156249999998,47.36339583067243L204.99960937499998,47.084159835051196L205.34765625,47.427084279936956L205.695703125,51.15265699551899L206.04375,48.02645778928582L206.39179687499998,48.56818180247774L206.73984375,50.21440082509461L207.087890625,49.7310919776562L207.4359375,49.7424732796335L207.783984375,52.32105756508121L208.13203125,51.56873068606577L208.480078125,51.117488633585474L208.828125,48.448547379370034L209.176171875,50.32165523870156L209.52421875,52.62700996672947L209.872265625,48.64724193529335L210.2203125,42.244836372113525L210.568359375,43.09528277142151L210.91640625,45.630031967540425L211.26445312500002,48.86153591525436L211.6125,44.58872974339979L211.960546875,45.6888846411393L212.30859375,42.87202791714095L212.65664062500002,37.83078022684706L213.00468750000002,38.04956960982983L213.35273437499998,41.24644839764506L213.70078124999998,43.6323392534308L214.048828125,42.984407413919286L214.396875,35.86177983542544L214.744921875,29.519680205942752L215.09296874999998,28.673792898068502L215.441015625,30.894050463628044L215.7890625,34.406716854881374L216.137109375,30.204774519889053L216.48515625,31.937037163993086L216.833203125,38.09771501856631L217.18125,35.524220275344334L217.529296875,33.41523733211001L217.87734375,32.63856533960691L218.225390625,31.66406352017041L218.5734375,33.58679757588067L218.921484375,33.810623467403424L219.26953125,41.16280003924886L219.617578125,41.391619565452736L219.96562500000002,42.59661498323471L220.313671875,46.47489295123344L220.66171875,47.197362928055405L221.009765625,48.98727318119404L221.35781250000002,48.6372035305204L221.70585937500002,49.428787050840654L222.05390624999998,42.705597470206094L222.40195312499998,42.82238329568898L222.75,39.92248275617758L223.098046875,39.32119961464407L223.44609375,43.204158955576226L223.79414062499998,44.983626321499145L224.1421875,45.511546709092656L224.490234375,46.12294156416297L224.83828125,44.22571060611143L225.186328125,43.38654208632311L225.534375,52.380839846964335L225.882421875,52.817659625508156L226.23046875,49.77615192764864L226.578515625,45.24340413599259L226.9265625,40.746173252192136L227.274609375,39.9416210322812L227.62265625,39.10520477490849L227.970703125,41.55390966359567L228.31875,39.39096627045851L228.66679687500002,34.0701734678859L229.01484375,34.82293251645597L229.362890625,32.925684048225854L229.7109375,30.94573424818267L230.05898437500002,32.88763852476189L230.40703125000002,34.30285260171792L230.75507812499998,35.76058886926939L231.10312499999998,34.20111934606448L231.451171875,34.874197175820505L231.79921875,27.94852567410027L232.147265625,29.632337394872106L232.49531249999998,32.343469420232914L232.843359375,35.904373688716454L233.19140625,31.916422020403164L233.539453125,34.6513160140885L233.8875,34.10610299623719L234.235546875,33.5482104483105L234.58359375,33.72824715854595L234.931640625,38.38605838035483L235.2796875,37.129182879775406L235.627734375,32.80164515932831L235.97578125,32.4259190469464L236.323828125,26.318906053522976L236.671875,24.400560784102407L237.019921875,29.571042525148943L237.36796875000002,23.249524218924584L237.716015625,23.632664060829185L238.0640625,27.655189256810015L238.412109375,25.586135304796233L238.76015625000002,22.731376450988527L239.10820312500002,23.240680629115847L239.45624999999998,24.917628769870102L239.80429687499998,26.192306798498766L240.15234375,29.1726794892555L240.500390625,29.471539778070365L240.8484375,30.866005409810956L241.19648437499998,32.450702766483175L241.54453125,28.485981807262068L241.892578125,26.496342502325994L242.240625,20.632136955585942L242.588671875,26.70279868613566L242.93671875,28.057238338101854L243.284765625,29.8795353856736L243.6328125,24.926946240282L243.980859375,34.43544619764931L244.32890625,31.9739230808055L244.676953125,31.026908447204896L245.025,31.028567520382623L245.373046875,27.31876311521251L245.72109375,31.1424863847525L246.06914062500002,32.435561211178204L246.4171875,28.028440064775094L246.765234375,27.901234182686085L247.11328125,30.732474440719585L247.46132812500002,31.98372574220164L247.80937500000002,31.147433643119278L248.15742187499998,36.3803706972352L248.50546874999998,33.74337396308542L248.853515625,34.79563202167226L249.2015625,30.621539946313018L249.549609375,36.17410915954918L249.89765624999998,34.26476827449372L250.245703125,26.74268984431272L250.59375,25.6149035461473L250.941796875,32.51331774913723L251.28984375,31.893659372848802L251.637890625,28.4287982959394L251.9859375,34.11722548857216L252.333984375,36.10888922602684L252.68203125,39.19805699087178L253.030078125,41.327885108940684L253.378125,37.73626360265134L253.726171875,31.973017838437386L254.07421875,33.68979933942605L254.422265625,39.09742931956473L254.77031250000002,39.56488177497747L255.118359375,40.96775750071093L255.46640625,39.18263971882143L255.814453125,36.65080440125024L256.1625,38.278308324343904L256.510546875,40.296507322376215L256.85859375,41.05117530074108L257.206640625,46.404657106936135L257.5546875,47.0702945304969L257.902734375,46.21219642710495L258.25078125,45.423712343123775L258.598828125,46.92415580608734L258.94687500000003,39.595746102615465L259.294921875,39.034802553259624L259.64296875,37.42388268607508L259.991015625,39.06853340248312L260.3390625,36.210711882754076L260.68710937500003,38.433135137464966L261.03515625,38.55528755442501L261.38320312499997,38.18205800850729L261.73125,41.30598675822938L262.079296875,44.87047881807683L262.42734375,39.11683199077508L262.775390625,39.86324101797356L263.12343749999997,39.92280576135232L263.471484375,38.702707515760245L263.81953125,36.08883269482548L264.167578125,39.01469175112824" style="fill: none;" fill="none"></path></g></g></g></g><g opacity="0.2"><g><g><g><path stroke="rgb(238, 51, 119)" stroke-width="2px" d="M35.152734375,161.04316069689665L35.50078125,160.7861753203652L35.848828125000004,160.8755461094596L36.196875,160.9486792312969L36.544921875,160.8066032114896L36.89296875,160.8560511710427L37.241015625,160.56422362587668L37.589062500000004,160.59386514837092L37.937109375000006,160.55203582676975L38.28515625,160.62675491419705L38.633203125,160.51405035365713L38.98125,160.18493849667635L39.329296875,159.9520995504206L39.67734375,159.96131287314674L40.025390625,160.47085258310491L40.373437499999994,160.07725039915604L40.721484374999996,159.8190722690929L41.06953125,160.1665978084911L41.417578125,159.85720565969294L41.765625,159.75870187239215L42.113671875,159.66078281055798L42.461718749999996,159.68566659060392L42.809765625,159.53833784103395L43.1578125,159.41844458319923L43.505859375,159.58988797274503L43.85390625,158.84933818470347L44.201953125,158.96084559353915L44.550000000000004,158.44099579551002L44.898046875,158.88140904166482L45.24609375,157.55817669955167L45.594140625,157.2190103114735L45.9421875,156.80295985481956L46.290234375000004,154.81484542846678L46.638281250000006,154.89588291515003L46.986328125,153.93910847056995L47.334375,151.18285984386097L47.682421875,150.32867609197442L48.03046875,147.48275906649502L48.378515625,149.6820354669744L48.7265625,149.86372783314098L49.074609374999994,147.27607767278496L49.422656249999996,146.7031325184215L49.770703125,147.54494089299982L50.11875,145.79289660367098L50.466796875,144.18077037464488L50.81484375,143.42833163174717L51.162890624999996,140.67373610063032L51.5109375,140.00486078435725L51.858984375,139.22210088556463L52.20703125,140.11595522793857L52.555078125,136.25380046497693L52.903125,138.20158905029297L53.251171875000004,135.64423411976207L53.59921875,134.31241191517222L53.947265625,132.4402336259322L54.2953125,134.9519858342951L54.643359375,133.76454714688387L54.991406250000004,134.24204856178977L55.339453125000006,132.79144792036578L55.6875,134.53074892911044L56.035546875,132.23234111439098L56.38359375,137.35717448841442L56.731640625,134.05109194668856L57.0796875,133.47880728981713L57.427734375,129.73259144176137L57.775781249999994,128.42206565163352L58.123828124999996,128.8368827681108L58.471875,132.19520263671873L58.819921875,129.57500044389204L59.16796875,128.54657004616476L59.516015625,129.00918495871804L59.864062499999996,130.62709763960405L60.212109375,129.40953779740767L60.56015625,132.26505240700462L60.908203125,127.35490911310369L61.25625,132.1852494950728L61.604296875,129.9580000998757L61.952343750000004,129.71677653919568L62.300390625,128.3470454822887L62.6484375,124.22563742897727L62.996484375,127.87761324795811L63.34453125,127.11762631503018L63.692578125000004,124.64751878218216L64.040625,132.6244321788441L64.388671875,129.40504394531249L64.73671875000001,128.89678186590024L65.084765625,124.73748224431817L65.4328125,126.00198061856355L65.78085937499999,126.8285728593306L66.12890625,124.29852425315164L66.476953125,127.92076163552024L66.825,124.14605180220173L67.173046875,126.42647433194249L67.52109374999999,127.08272241765802L67.869140625,126.22394234397193L68.2171875,128.9043251176314L68.565234375,127.05793215664949L68.91328125,122.93921547629617L69.261328125,124.54024164373224L69.609375,123.5545966685902L69.957421875,123.72829145951705L70.30546875,125.27331978537818L70.653515625,122.33820226495915L71.0015625,125.51739027543502L71.349609375,126.22951768354936L71.69765625000001,125.43619970148261L72.04570312499999,125.50897294477983L72.39375,124.58210360440341L72.74179687499999,126.29983165394177L73.08984375,123.49022347190161L73.437890625,118.24373757102273L73.7859375,124.76025521018289L74.133984375,122.25838947642933L74.48203125,122.01991654829546L74.830078125,123.23759490966796L75.17812500000001,119.85365267666904L75.526171875,122.07581562389026L75.87421875000001,117.11915849165483L76.22226562499999,122.7962714732777L76.5703125,114.11839616255325L76.918359375,115.30081259987573L77.26640625,118.53411942915483L77.614453125,116.61740262118252L77.9625,123.24820978338069L78.310546875,119.08193975275212L78.65859375,121.18516623757104L79.006640625,118.42817810058594L79.3546875,116.27028464577414L79.702734375,122.67839427601207L80.05078125,121.85451563054865L80.39882812500001,118.82011113947088L80.74687499999999,121.71120866255326L81.094921875,121.1018966397372L81.44296874999999,120.48356975208628L81.791015625,119.41527987393467L82.1390625,118.2889180686257L82.487109375,114.74351568048651L82.83515625,116.98129599831323L83.183203125,112.17585698908026L83.53125,113.38766618208452L83.87929687500001,116.09586886319248L84.22734375,114.41935091885652L84.57539062500001,116.66117076526989L84.92343749999999,114.67310541326349L85.271484375,110.84920765269887L85.61953125,114.99072199041193L85.967578125,106.82718039772726L86.315625,109.69192221901633L86.663671875,107.11787336869673L87.01171875,104.93695262562144L87.359765625,109.08516823508523L87.7078125,108.10358254172586L88.055859375,116.1532568359375L88.40390625,109.3394511274858L88.751953125,111.98473000266335L89.10000000000001,110.36689880371094L89.44804687499999,102.7117353404652L89.79609375,107.98256952459163L90.14414062499999,106.25049077814275L90.4921875,113.44872331099076L90.840234375,103.96720403497869L91.18828125,113.2112158203125L91.536328125,91.34447720614345L91.884375,98.08804054953836L92.232421875,103.84747497558594L92.58046875000001,97.54986472389913L92.928515625,103.16705638538707L93.27656250000001,104.47152288263494L93.62460937499999,101.79134998668324L93.97265625,94.69099947842686L94.320703125,104.89559437144887L94.66875,103.61403170498936L95.016796875,100.89342401677912L95.36484375,105.84853299227629L95.712890625,99.5320880681818L96.0609375,95.57307350852271L96.408984375,101.38260203968395L96.75703125,92.91387850674717L97.105078125,98.21187333540483L97.453125,99.68860745516689L97.80117187500001,97.08846463290129L98.14921874999999,94.17880404385654L98.497265625,97.9830029296875L98.84531249999999,91.49657681551845L99.193359375,100.28094160600143L99.54140625,95.50277188387783L99.889453125,100.26026988636363L100.2375,96.84974725896662L100.585546875,100.46851795543324L100.93359375,83.97650545987217L101.28164062500001,87.58377979625355L101.6296875,91.90856428666548L101.97773437500001,92.83936451305043L102.32578124999999,91.84616887872869L102.673828125,101.39504655317826L103.021875,89.78237471147018L103.369921875,90.99869257146662L103.71796875,95.48136435768821L104.066015625,103.27814342151989L104.4140625,88.40161149458451L104.762109375,95.09473999023437L105.11015625,93.00626420454545L105.458203125,90.91970941716976L105.80625,98.0682577237216L106.154296875,90.25447609641336L106.50234375000001,91.36412669788707L106.85039062499999,86.98697648481888L107.1984375,91.49667558149858L107.54648437499999,85.85633811257104L107.89453125,91.81060324928977L108.242578125,93.81823908025568L108.590625,90.55125305175781L108.938671875,94.75567638050427L109.28671875,92.71476135253906L109.634765625,88.36015447443182L109.98281250000001,87.84826027610086L110.330859375,97.55332153320313L110.67890625000001,87.0706707763672L111.02695312499999,91.33672407670456L111.375,92.65877091841263L111.723046875,91.50515464089133L112.07109375,87.7611239901456L112.419140625,89.78037963867187L112.7671875,95.38639099121093L113.115234375,80.02758478338069L113.46328125,83.08668817693537L113.811328125,88.25155634099787L114.159375,87.29690906871448L114.507421875,87.13305136940696L114.85546875,79.85651716752486L115.20351562500001,85.3110215065696L115.55156249999999,86.54944813121449L115.899609375,90.56052223899148L116.24765624999999,95.82836381392048L116.595703125,87.50521639737217L116.94375,79.94856212269175L117.291796875,76.44399946732955L117.63984375,90.40318803267046L117.987890625,84.41033996582031L118.3359375,88.38007557262074L118.68398437500001,83.5415548983487L119.03203125,89.38908364035868L119.38007812500001,94.18959916548297L119.72812499999999,87.51131519664418L120.076171875,87.86346529873936L120.42421875,83.21252591219815L120.772265625,84.3477371493253L121.1203125,86.97001836603339L121.468359375,84.06895041725852L121.81640625,81.80009338378906L122.164453125,81.78944147283381L122.5125,77.68762118252842L122.860546875,80.31504810680043L123.20859375,80.28289484197444L123.556640625,78.98962346857245L123.90468750000001,80.37371509898793L124.25273437499999,73.96632646040483L124.60078125,76.50612326882101L124.94882812499999,80.75469992897729L125.296875,78.23284889914771L125.644921875,76.9082588334517L125.99296875,78.8831241122159L126.341015625,72.5691532759233L126.6890625,70.86525246360085L127.037109375,76.06721712979405L127.38515625000001,72.72624056729404L127.733203125,75.32005249023437L128.08125,79.77613153631037L128.429296875,82.02080078125L128.77734375,79.35620821866121L129.125390625,66.85241044477982L129.47343750000002,63.22899280894885L129.821484375,66.41490678267046L130.16953125,76.01757734818892L130.517578125,75.95930541992188L130.865625,72.466337890625L131.213671875,68.203203125L131.56171874999998,69.01222489790483L131.909765625,66.55576682350852L132.2578125,77.65742842240768L132.605859375,80.33288524280894L132.95390625,73.16641091086649L133.301953125,83.32170182661577L133.65,77.10281793767756L133.998046875,84.0938641357422L134.34609375,71.76644264914773L134.69414062500002,75.09048084605824L135.04218749999998,85.49091880104758L135.390234375,75.8130428799716L135.73828125,75.9390781471946L136.086328125,70.80448175603694L136.434375,74.51322332208807L136.782421875,63.33065263227982L137.13046875,79.05185097434304L137.478515625,74.23662919477982L137.8265625,67.31514881480824L138.17460937500002,72.57612615411932L138.52265625,62.10619151722301L138.870703125,75.2532471812855L139.21875,80.61110407049006L139.566796875,74.79601007634943L139.91484375,67.11972056995738L140.262890625,77.7894686612216L140.6109375,67.81848987926136L140.958984375,70.35854347922586L141.30703125,67.61992087624289L141.65507812500002,73.26225341796875L142.003125,67.29660056374291L142.351171875,76.41846846147017L142.69921875,64.63728704279119L143.04726562500002,71.23926935369319L143.39531250000002,57.739016668146306L143.74335937499998,70.69758733575995L144.09140624999998,68.32486305930398L144.439453125,64.5556767134233L144.7875,64.14316084428268L145.135546875,63.62123202237216L145.48359374999998,60.101726074218746L145.831640625,69.46355579723011L146.1796875,61.17213201349432L146.527734375,63.32150690252131L146.87578125,53.80994795365766L147.223828125,63.53532537286933L147.571875,69.85988392223011L147.919921875,74.41090176669033L148.26796875,55.425779141512784L148.616015625,65.83206898082386L148.9640625,64.81523370916193L149.312109375,75.6484493741122L149.66015625,49.249389315518464L150.008203125,68.64155617453834L150.35625000000002,61.89651134144177L150.704296875,54.132873202237214L151.05234375,64.30783336292613L151.400390625,70.54462846235795L151.74843750000002,58.69876520330256L152.09648437500002,62.96101107510653L152.44453124999998,63.7428623268821L152.79257812499998,63.36818370472301L153.140625,54.72009621360085L153.488671875,66.67903664328836L153.83671875,48.43118230646307L154.18476562499998,66.41463023792613L154.5328125,58.82541281960226L154.880859375,59.958535156249994L155.22890625,63.71197820490056L155.576953125,65.23725086558949L155.925,63.51839688387785L156.273046875,63.692096613103686L156.62109375,64.47696022727271L156.969140625,65.60632945667614L157.3171875,73.43599265358664L157.665234375,58.439948952414774L158.01328125,59.20974087801847L158.361328125,52.042787531072456L158.709375,58.853383345170464L159.05742187500002,50.45671453302556L159.40546875,50.459687389026996L159.753515625,53.87351373845881L160.1015625,46.87975641424006L160.44960937500002,56.54115323153409L160.79765625000002,53.01483243075284L161.14570312499998,48.36182883522728L161.49374999999998,62.219219304865064L161.841796875,35.88646084872159L162.18984375,49.85116055575285L162.537890625,48.98800514914774L162.88593749999998,52.488222101384956L163.233984375,60.193716708096595L163.58203125,54.913351606889194L163.930078125,52.81183871182528L164.278125,56.62705988103693L164.626171875,43.652884188565345L164.97421875,60.93019486860796L165.322265625,51.40421608664773L165.6703125,65.10546741832387L166.018359375,63.49395230379972L166.36640625,52.285416037819594L166.714453125,64.09660256125711L167.0625,53.568879949396305L167.410546875,72.91298728249289L167.75859375000002,66.10220381303267L168.106640625,61.71937455610796L168.4546875,64.57482743696733L168.802734375,56.1802919699929L169.15078125000002,65.36140957919035L169.49882812500002,57.84827159534801L169.84687499999998,59.585584938742905L170.19492187499998,59.65698286576704L170.54296875,59.97323153409091L170.891015625,63.27181773792613L171.2390625,49.95286976207385L171.58710937499998,49.20014459783381L171.93515625,44.83042158647018L172.283203125,58.64515502929687L172.63125,46.794738658558245L172.979296875,37.52212424538353L173.32734375,51.52533280806109L173.675390625,57.851817294034085L174.0234375,47.290020419034086L174.371484375,51.80916648171165L174.71953125,49.12823308771307L175.067578125,56.0540097878196L175.415625,46.40467229669744L175.763671875,33.89990167791193L176.11171875,57.54642300692472L176.45976562500002,50.65801935369318L176.8078125,51.08770075017756L177.155859375,36.25425548206675L177.50390625,47.48518199573863L177.85195312500002,41.73148093483665L178.20000000000002,44.61025246360085L178.54804687499998,40.804502951882114L178.89609374999998,42.56055220170455L179.244140625,58.89038108132103L179.5921875,27.085444113991482L179.940234375,38.59004128196024L180.28828124999998,41.98540826970881L180.636328125,42.72383212002841L180.984375,39.579992453835224L181.332421875,33.52027488014915L181.68046875,48.89941206498579L182.028515625,39.55333551580256L182.3765625,42.01407015713779L182.724609375,43.45056207830255L183.07265625,47.156004860617905L183.420703125,49.97048961292613L183.76875,51.853008700284086L184.116796875,41.51821555397728L184.46484375,49.97510198419744L184.812890625,48.17467717950994L185.16093750000002,48.77817682439631L185.508984375,51.59282947887074L185.85703125,40.54226939808238L186.205078125,47.9329375665838L186.55312500000002,43.43215209960937L186.90117187500002,43.43333729137075L187.24921874999998,41.14402088512074L187.59726562499998,49.93152643377131L187.9453125,48.61005737304687L188.293359375,52.64734397194602L188.64140625,58.96581853693182L188.98945312499998,52.30161365855824L189.3375,58.6144091796875L189.685546875,53.58158125443893L190.03359375,54.203560014204555L190.381640625,44.630134055397725L190.7296875,51.859013671875005L191.077734375,57.76204889470881L191.42578125,58.85007468483665L191.773828125,51.64768410422585L192.121875,47.55006136807528L192.469921875,60.916802201704556L192.81796875,51.68668678977273L193.166015625,59.938673317649155L193.5140625,62.427003173828126L193.86210937500002,51.83503329190341L194.21015625,51.249439919211646L194.558203125,53.47046952681107L194.90625,54.958971613103685L195.25429687500002,41.907373268821026L195.60234375000002,47.83223577325994L195.95039062499998,51.957394464666194L196.29843749999998,28.600306840376412L196.646484375,36.35716963334518L196.99453125,50.000237926136364L197.342578125,40.660324374112214L197.69062499999998,40.39546364524147L198.038671875,34.342551047585225L198.38671875,44.625511807528405L198.734765625,35.41308538263495L199.0828125,52.213593417080965L199.430859375,37.136729514382104L199.77890625,45.093415638316756L200.126953125,38.9126504794034L200.475,49.45730158025569L200.823046875,48.128099143288345L201.17109375,50.79696333451704L201.519140625,53.657927357066754L201.8671875,57.53523282137784L202.215234375,29.65113736239346L202.56328125000002,53.87425448330966L202.911328125,50.703204789595176L203.259375,39.45695967240768L203.607421875,45.443679310191754L203.95546875000002,51.579762739701714L204.30351562500002,50.57720902876421L204.65156249999998,45.04640303178267L204.99960937499998,46.665305841619315L205.34765625,47.94147094726563L205.695703125,56.74101606889205L206.04375,43.337158979936085L206.39179687499998,49.380767822265625L206.73984375,52.68372935901988L207.087890625,49.00612870649857L207.4359375,49.759545232599436L207.783984375,56.18893399325284L208.13203125,50.440240367542614L208.480078125,50.440625554865065L208.828125,44.44513549804688L209.176171875,53.13131702769887L209.52421875,56.08504205877131L209.872265625,42.677589888139195L210.2203125,32.64122802734374L210.568359375,44.37095237038353L210.91640625,49.43215576171875L211.26445312500002,53.70879183682528L211.6125,38.179520485617886L211.960546875,47.33911698774859L212.30859375,38.64674283114346L212.65664062500002,30.268908691406253L213.00468750000002,38.377753684303975L213.35273437499998,46.04176657936789L213.70078124999998,47.21117553710937L214.048828125,42.01250965465199L214.396875,25.17783846768466L214.744921875,20.00653076171875L215.09296874999998,27.404961936257106L215.441015625,34.22443681196732L215.7890625,39.67571644176137L216.137109375,23.901861017400563L216.48515625,34.535431130149156L216.833203125,47.33873180042613L217.18125,31.66397816051136L217.529296875,30.25176291725852L217.87734375,31.473557350852264L218.225390625,30.202310791015616L218.5734375,36.47089865944603L218.921484375,34.1463623046875L219.26953125,52.191064897017036L219.617578125,41.73484885475851L219.96562500000002,44.40410810990766L220.313671875,52.29230990323153L220.66171875,48.281067893288345L221.009765625,51.67213856090198L221.35781250000002,48.11209905450994L221.70585937500002,50.61616233132103L222.05390624999998,32.62081309925427L222.40195312499998,42.99756203391335L222.75,35.572631946910505L223.098046875,38.419274902343744L223.44609375,49.02859796697443L223.79414062499998,47.65282737038353L224.1421875,46.303427290482944L224.490234375,47.04003384676847L224.83828125,41.379864169034086L225.186328125,42.12778930664062L225.534375,65.87228648792613L225.882421875,53.47288929332385L226.23046875,45.21389038085937L226.578515625,38.444282448508524L226.9265625,34.000326926491475L227.274609375,38.73479270241477L227.62265625,37.85058038884944L227.970703125,45.22696699662643L228.31875,36.146551180752844L228.66679687500002,26.088984264026987L229.01484375,35.95207108931108L229.362890625,30.079811345880685L229.7109375,27.9758095481179L230.05898437500002,35.80049493963068L230.40703125000002,36.425673717151994L230.75507812499998,37.94719327059659L231.10312499999998,31.861915061257104L231.451171875,35.883813920454536L231.79921875,17.56001842151989L232.147265625,32.15805497602984L232.49531249999998,36.41016745827415L232.843359375,41.24573009144176L233.19140625,25.934494517933246L233.539453125,38.75365700461648L233.8875,33.28828346946024L234.235546875,32.711371626420444L234.58359375,33.99830222389915L234.931640625,45.37277521306818L235.2796875,35.24386962890625L235.627734375,26.310338578657674L235.97578125,31.862329878373576L236.323828125,17.158386563387786L236.671875,21.52304287997159L237.019921875,37.32676513671875L237.36796875000002,13.767246759588062L237.716015625,24.20737382368607L238.0640625,33.68897705078125L238.412109375,22.482554376775568L238.76015625000002,18.44923817027698L239.10820312500002,24.004636896306824L239.45624999999998,27.433050981001426L239.80429687499998,28.104323841441754L240.15234375,33.64323852539063L240.500390625,29.91983021129262L240.8484375,32.957703857421876L241.19648437499998,34.827748801491474L241.54453125,22.538900368430394L241.892578125,23.511883544921872L242.240625,11.83582863547586L242.588671875,35.80879128196024L242.93671875,30.08889781605113L243.284765625,32.612980957031255L243.6328125,17.498062522194594L243.980859375,48.698196133700286L244.32890625,28.28163840553977L244.676953125,29.60638649680397L245.025,31.031056130149143L245.373046875,21.754056507457378L245.72109375,36.878071289062504L246.06914062500002,34.37517345081676L246.4171875,21.417758345170462L246.765234375,27.71042535955256L247.11328125,34.9793348277699L247.46132812500002,33.86060269442472L247.80937500000002,29.892995494495732L248.15742187499998,44.2297762784091L248.50546874999998,29.7878788618608L248.853515625,36.37401910955256L249.2015625,24.360401833274143L249.549609375,44.502962979403414L249.89765624999998,31.400756946910505L250.245703125,15.45957219904119L250.59375,23.923224098899144L250.941796875,42.860939053622154L251.28984375,30.9641718084162L251.637890625,23.231506680575286L251.9859375,42.64986627752131L252.333984375,39.09638483220881L252.68203125,43.831808638139194L253.030078125,44.522627286044035L253.378125,32.348831343217334L253.726171875,23.32814919211648L254.07421875,36.26497159090909L254.422265625,47.20887428977274L254.77031250000002,40.2660604580966L255.118359375,43.07207108931109L255.46640625,36.50496304598722L255.814453125,32.85305142489347L256.1625,40.71956420898438L256.510546875,43.32380581942471L256.85859375,42.183177268288354L257.206640625,54.43487981622869L257.5546875,48.06875066583807L257.902734375,44.92504927201704L258.25078125,44.24098621715198L258.598828125,49.17482100053267L258.94687500000003,28.603131547407664L259.294921875,38.19338722922586L259.64296875,35.00750288529829L259.991015625,41.535509477095175L260.3390625,31.923979603160504L260.68710937500003,41.76677001953125L261.03515625,38.73851617986506L261.38320312499997,37.622213689630684L261.73125,45.9918798828125L262.079296875,50.21721690784802L262.42734375,30.486361749822436L262.775390625,40.98285455877131L263.12343749999997,40.012152876420444L263.471484375,36.87256014737216L263.81953125,32.168020463423304L264.167578125,43.403480335582394" style="fill: none;" fill="none"></path></g></g></g></g></g></g><g transform="translate(51, 178)" clip-path="url(#clip_1)"><clipPath id="clip_1"><rect width="278" height="22"></rect></clipPath><g><g><line x1="0" y1="0" x2="0" y2="5" style="visibility: inherit;" fill="rgb(0, 0, 0)" stroke="rgb(204, 204, 204)" stroke-width="1px"></line><line x1="34.8046875" y1="0" x2="34.8046875" y2="5" style="visibility: inherit;" fill="rgb(0, 0, 0)" stroke="rgb(204, 204, 204)" stroke-width="1px"></line><line x1="69.609375" y1="0" x2="69.609375" y2="5" style="visibility: inherit;" fill="rgb(0, 0, 0)" stroke="rgb(204, 204, 204)" stroke-width="1px"></line><line x1="104.4140625" y1="0" x2="104.4140625" y2="5" style="visibility: inherit;" fill="rgb(0, 0, 0)" stroke="rgb(204, 204, 204)" stroke-width="1px"></line><line x1="139.21875" y1="0" x2="139.21875" y2="5" style="visibility: inherit;" fill="rgb(0, 0, 0)" stroke="rgb(204, 204, 204)" stroke-width="1px"></line><line x1="174.0234375" y1="0" x2="174.0234375" y2="5" style="visibility: inherit;" fill="rgb(0, 0, 0)" stroke="rgb(204, 204, 204)" stroke-width="1px"></line><line x1="208.828125" y1="0" x2="208.828125" y2="5" style="visibility: inherit;" fill="rgb(0, 0, 0)" stroke="rgb(204, 204, 204)" stroke-width="1px"></line><line x1="243.6328125" y1="0" x2="243.6328125" y2="5" style="visibility: inherit;" fill="rgb(0, 0, 0)" stroke="rgb(204, 204, 204)" stroke-width="1px"></line><line x1="278.4375" y1="0" x2="278.4375" y2="5" style="visibility: inherit;" fill="rgb(0, 0, 0)" stroke="rgb(204, 204, 204)" stroke-width="1px"></line></g><g transform="translate(0, 8)"><text x="0" y="0" dx="0em" dy="0.95em" style="text-anchor: middle; visibility: hidden; font-family: Roboto, sans-serif; font-size: 12px; font-weight: 200;" fill="rgb(50, 49, 63)" stroke="none" stroke-width="1px">-5M</text><text x="34.8046875" y="0" dx="0em" dy="0.95em" style="text-anchor: middle; visibility: inherit; font-family: Roboto, sans-serif; font-size: 12px; font-weight: 200;" fill="rgb(50, 49, 63)" stroke="none" stroke-width="1px">0</text><text x="69.609375" y="0" dx="0em" dy="0.95em" style="text-anchor: middle; visibility: inherit; font-family: Roboto, sans-serif; font-size: 12px; font-weight: 200;" fill="rgb(50, 49, 63)" stroke="none" stroke-width="1px">5M</text><text x="104.4140625" y="0" dx="0em" dy="0.95em" style="text-anchor: middle; visibility: inherit; font-family: Roboto, sans-serif; font-size: 12px; font-weight: 200;" fill="rgb(50, 49, 63)" stroke="none" stroke-width="1px">10M</text><text x="139.21875" y="0" dx="0em" dy="0.95em" style="text-anchor: middle; visibility: inherit; font-family: Roboto, sans-serif; font-size: 12px; font-weight: 200;" fill="rgb(50, 49, 63)" stroke="none" stroke-width="1px">15M</text><text x="174.0234375" y="0" dx="0em" dy="0.95em" style="text-anchor: middle; visibility: inherit; font-family: Roboto, sans-serif; font-size: 12px; font-weight: 200;" fill="rgb(50, 49, 63)" stroke="none" stroke-width="1px">20M</text><text x="208.828125" y="0" dx="0em" dy="0.95em" style="text-anchor: middle; visibility: inherit; font-family: Roboto, sans-serif; font-size: 12px; font-weight: 200;" fill="rgb(50, 49, 63)" stroke="none" stroke-width="1px">25M</text><text x="243.6328125" y="0" dx="0em" dy="0.95em" style="text-anchor: middle; visibility: inherit; font-family: Roboto, sans-serif; font-size: 12px; font-weight: 200;" fill="rgb(50, 49, 63)" stroke="none" stroke-width="1px">30M</text><text x="278.4375" y="0" dx="0em" dy="0.95em" style="text-anchor: middle; visibility: hidden; font-family: Roboto, sans-serif; font-size: 12px; font-weight: 200;" fill="rgb(50, 49, 63)" stroke="none" stroke-width="1px">35M</text></g><line x1="0" y1="0" x2="278.4375" y2="0" fill="rgb(0, 0, 0)" stroke="rgb(204, 204, 204)" stroke-width="1px"></line></g></g></g></g></svg>