<svg viewBox="0 0 330 200" xmlns="http://www.w3.org/2000/svg"><g><g><g><g><g><line x1="72.34375" y1="178" x2="67.34375" y2="178" style="visibility: inherit;" fill="rgb(0, 0, 0)" stroke="rgb(204, 204, 204)" stroke-width="1px"></line><line x1="72.34375" y1="158.22222222222214" x2="67.34375" y2="158.22222222222214" style="visibility: inherit;" fill="rgb(0, 0, 0)" stroke="rgb(204, 204, 204)" stroke-width="1px"></line><line x1="72.34375" y1="138.44444444444431" x2="67.34375" y2="138.44444444444431" style="visibility: inherit;" fill="rgb(0, 0, 0)" stroke="rgb(204, 204, 204)" stroke-width="1px"></line><line x1="72.34375" y1="118.66666666666649" x2="67.34375" y2="118.66666666666649" style="visibility: inherit;" fill="rgb(0, 0, 0)" stroke="rgb(204, 204, 204)" stroke-width="1px"></line><line x1="72.34375" y1="98.88888888888866" x2="67.34375" y2="98.88888888888866" style="visibility: inherit;" fill="rgb(0, 0, 0)" stroke="rgb(204, 204, 204)" stroke-width="1px"></line><line x1="72.34375" y1="79.11111111111082" x2="67.34375" y2="79.11111111111082" style="visibility: inherit;" fill="rgb(0, 0, 0)" stroke="rgb(204, 204, 204)" stroke-width="1px"></line><line x1="72.34375" y1="59.33333333333352" x2="67.34375" y2="59.33333333333352" style="visibility: inherit;" fill="rgb(0, 0, 0)" stroke="rgb(204, 204, 204)" stroke-width="1px"></line><line x1="72.34375" y1="39.55555555555567" x2="67.34375" y2="39.55555555555567" style="visibility: inherit;" fill="rgb(0, 0, 0)" stroke="rgb(204, 204, 204)" stroke-width="1px"></line><line x1="72.34375" y1="19.777777777777846" x2="67.34375" y2="19.777777777777846" style="visibility: inherit;" fill="rgb(0, 0, 0)" stroke="rgb(204, 204, 204)" stroke-width="1px"></line><line x1="72.34375" y1="0" x2="67.34375" y2="0" style="visibility: inherit;" fill="rgb(0, 0, 0)" stroke="rgb(204, 204, 204)" stroke-width="1px"></line></g><g transform="translate(62.34375, 0)"><text x="0" y="178" dx="0em" dy="0.3em" style="text-anchor: end; visibility: hidden; font-family: Roboto, sans-serif; font-size: 12px; font-weight: 200;" fill="rgb(50, 49, 63)" stroke="none" stroke-width="1px">0.0675</text><text x="0" y="158.22222222222214" dx="0em" dy="0.3em" style="text-anchor: end; visibility: inherit; font-family: Roboto, sans-serif; font-size: 12px; font-weight: 200;" fill="rgb(50, 49, 63)" stroke="none" stroke-width="1px">0.068</text><text x="0" y="138.44444444444431" dx="0em" dy="0.3em" style="text-anchor: end; visibility: hidden; font-family: Roboto, sans-serif; font-size: 12px; font-weight: 200;" fill="rgb(50, 49, 63)" stroke="none" stroke-width="1px">0.0685</text><text x="0" y="118.66666666666649" dx="0em" dy="0.3em" style="text-anchor: end; visibility: inherit; font-family: Roboto, sans-serif; font-size: 12px; font-weight: 200;" fill="rgb(50, 49, 63)" stroke="none" stroke-width="1px">0.069</text><text x="0" y="98.88888888888866" dx="0em" dy="0.3em" style="text-anchor: end; visibility: hidden; font-family: Roboto, sans-serif; font-size: 12px; font-weight: 200;" fill="rgb(50, 49, 63)" stroke="none" stroke-width="1px">0.0695</text><text x="0" y="79.11111111111082" dx="0em" dy="0.3em" style="text-anchor: end; visibility: inherit; font-family: Roboto, sans-serif; font-size: 12px; font-weight: 200;" fill="rgb(50, 49, 63)" stroke="none" stroke-width="1px">0.07</text><text x="0" y="59.33333333333352" dx="0em" dy="0.3em" style="text-anchor: end; visibility: hidden; font-family: Roboto, sans-serif; font-size: 12px; font-weight: 200;" fill="rgb(50, 49, 63)" stroke="none" stroke-width="1px">0.0705</text><text x="0" y="39.55555555555567" dx="0em" dy="0.3em" style="text-anchor: end; visibility: inherit; font-family: Roboto, sans-serif; font-size: 12px; font-weight: 200;" fill="rgb(50, 49, 63)" stroke="none" stroke-width="1px">0.071</text><text x="0" y="19.777777777777846" dx="0em" dy="0.3em" style="text-anchor: end; visibility: hidden; font-family: Roboto, sans-serif; font-size: 12px; font-weight: 200;" fill="rgb(50, 49, 63)" stroke="none" stroke-width="1px">0.0715</text><text x="0" y="0" dx="0em" dy="0.3em" style="text-anchor: end; visibility: hidden; font-family: Roboto, sans-serif; font-size: 12px; font-weight: 200;" fill="rgb(50, 49, 63)" stroke="none" stroke-width="1px">0.072</text></g><line x1="72.34375" y1="0" x2="72.34375" y2="178" fill="rgb(0, 0, 0)" stroke="rgb(204, 204, 204)" stroke-width="1px"></line></g></g><g transform="translate(72, 0)" clip-path="url(#clip_0)"><clipPath id="clip_0"><rect width="257" height="178"></rect></clipPath><g><g><g><line x1="0" y1="0" x2="0" y2="178" fill="rgb(0, 0, 0)" stroke="rgb(60, 60, 60)" stroke-width="1px" opacity="0.25"></line><line x1="28.62847222222222" y1="0" x2="28.62847222222222" y2="178" fill="rgb(0, 0, 0)" stroke="rgb(60, 60, 60)" stroke-width="1px" opacity="0.25"></line><line x1="57.25694444444444" y1="0" x2="57.25694444444444" y2="178" fill="rgb(0, 0, 0)" stroke="rgb(60, 60, 60)" stroke-width="1px" opacity="0.25"></line><line x1="85.88541666666666" y1="0" x2="85.88541666666666" y2="178" fill="rgb(0, 0, 0)" stroke="rgb(60, 60, 60)" stroke-width="1px" opacity="0.25"></line><line x1="114.51388888888889" y1="0" x2="114.51388888888889" y2="178" fill="rgb(0, 0, 0)" stroke="rgb(60, 60, 60)" stroke-width="1px" opacity="0.25"></line><line x1="143.14236111111111" y1="0" x2="143.14236111111111" y2="178" fill="rgb(0, 0, 0)" stroke="rgb(60, 60, 60)" stroke-width="1px" opacity="0.25"></line><line x1="171.77083333333331" y1="0" x2="171.77083333333331" y2="178" fill="rgb(0, 0, 0)" stroke="rgb(60, 60, 60)" stroke-width="1px" opacity="0.25"></line><line x1="200.39930555555557" y1="0" x2="200.39930555555557" y2="178" fill="rgb(0, 0, 0)" stroke="rgb(60, 60, 60)" stroke-width="1px" opacity="0.25"></line><line x1="229.02777777777777" y1="0" x2="229.02777777777777" y2="178" fill="rgb(0, 0, 0)" stroke="rgb(60, 60, 60)" stroke-width="1px" opacity="0.25"></line><line x1="257.65625" y1="0" x2="257.65625" y2="178" fill="rgb(0, 0, 0)" stroke="rgb(60, 60, 60)" stroke-width="1px" opacity="0.25"></line></g><g><line x1="0" y1="178" x2="257.65625" y2="178" fill="rgb(0, 0, 0)" stroke="rgb(60, 60, 60)" stroke-width="1px" opacity="0.25"></line><line x1="0" y1="158.22222222222214" x2="257.65625" y2="158.22222222222214" fill="rgb(0, 0, 0)" stroke="rgb(60, 60, 60)" stroke-width="1px" opacity="0.25"></line><line x1="0" y1="138.44444444444431" x2="257.65625" y2="138.44444444444431" fill="rgb(0, 0, 0)" stroke="rgb(60, 60, 60)" stroke-width="1px" opacity="0.25"></line><line x1="0" y1="118.66666666666649" x2="257.65625" y2="118.66666666666649" fill="rgb(0, 0, 0)" stroke="rgb(60, 60, 60)" stroke-width="1px" opacity="0.25"></line><line x1="0" y1="98.88888888888866" x2="257.65625" y2="98.88888888888866" fill="rgb(0, 0, 0)" stroke="rgb(60, 60, 60)" stroke-width="1px" opacity="0.25"></line><line x1="0" y1="79.11111111111082" x2="257.65625" y2="79.11111111111082" fill="rgb(0, 0, 0)" stroke="rgb(60, 60, 60)" stroke-width="1px" opacity="0.25"></line><line x1="0" y1="59.33333333333352" x2="257.65625" y2="59.33333333333352" fill="rgb(0, 0, 0)" stroke="rgb(60, 60, 60)" stroke-width="1px" opacity="0.25"></line><line x1="0" y1="39.55555555555567" x2="257.65625" y2="39.55555555555567" fill="rgb(0, 0, 0)" stroke="rgb(60, 60, 60)" stroke-width="1px" opacity="0.25"></line><line x1="0" y1="19.777777777777846" x2="257.65625" y2="19.777777777777846" fill="rgb(0, 0, 0)" stroke="rgb(60, 60, 60)" stroke-width="1px" opacity="0.25"></line><line x1="0" y1="0" x2="257.65625" y2="0" fill="rgb(0, 0, 0)" stroke="rgb(60, 60, 60)" stroke-width="1px" opacity="0.25"></line></g></g></g><g><g><line x1="0" y1="2848.0000000000064" x2="257.65625" y2="2848.0000000000064" fill="rgb(0, 0, 0)" stroke="rgb(153, 153, 153)" stroke-width="1.5px"></line></g></g><g><g><line x1="28.62847222222222" y1="0" x2="28.62847222222222" y2="178" fill="rgb(0, 0, 0)" stroke="rgb(153, 153, 153)" stroke-width="1.5px"></line></g></g><g><g><g><g><g><path stroke="rgb(51, 187, 238)" stroke-width="2px" d="M31.491319444444443,79.13614983028832L34.354166666666664,56.41602705143126L37.217013888888886,78.98045776760772L40.079861111111114,76.72953282462221L42.94270833333333,100.14402842265282L45.80555555555556,107.33839961544751L48.66840277777778,90.52661449911295L51.53125,59.397424632427814L54.39409722222222,62.83876997295962L57.25694444444444,80.64900344169361L60.119791666666664,93.13654115695283L62.982638888888886,118.55333963389486L65.8454861111111,128.71827387534557L68.70833333333333,129.05480719462537L71.57118055555556,136.19689053536598L74.43402777777777,143.90131292521954L77.296875,150.04410131657957L80.15972222222223,101.1258805262937L83.02256944444444,162.13601602732004L85.88541666666666,79.06380212184662L88.74826388888889,105.86144607820803L91.61111111111111,107.08173024057822L94.47395833333333,92.53749201531738L97.33680555555556,82.32385500572737L100.19965277777779,40.9234183227023L103.0625,70.4975075291542L105.92534722222221,75.5447669984916L108.78819444444444,51.19922209793169L111.65104166666667,100.97473433785774L114.51388888888889,109.92712567672993L117.37673611111111,149.40462742643328L120.23958333333333,124.5720415044133L123.10243055555556,84.94117174390743L125.96527777777777,111.10049149468728L128.828125,97.60878319042948L131.6909722222222,125.49717149426398L134.55381944444446,135.3018429344112L137.41666666666666,70.80808351075396L140.27951388888889,135.67701186236147L143.14236111111111,148.48941339468965L146.00520833333334,140.7932098445725L148.86805555555554,114.75477896816084L151.73090277777777,100.29412784851036L154.59375,149.57332687250644L157.45659722222223,99.32104457420593L160.31944444444446,47.54455247025864L163.18229166666666,71.14756289373425L166.04513888888889,93.85090167944924L168.90798611111111,99.0979097135791L171.77083333333331,123.33322346117441L174.63368055555557,155.74974875271198L177.49652777777777,139.24307989719782L180.359375,119.64274963890456L183.22222222222223,62.83678046111421L186.08506944444443,28.31292536148164L188.94791666666666,-9.994965157796784L191.81076388888889,10.333636759772908L194.67361111111111,11.839745494584708L197.53645833333334,22.131738463802627L200.39930555555557,44.08603615881508L203.26215277777777,28.61058570604241L206.125,92.9539279755324L208.98784722222223,55.38719614759233L211.85069444444443,81.24560313960816L214.71354166666669,33.70671241916298L217.57638888888889,68.50594337170529L220.43923611111111,92.20900335271402L223.30208333333334,108.3574321850766L226.16493055555554,101.5668227168234L229.02777777777777,76.8304010907301L231.890625,40.88922050990098L234.75347222222223,90.08758787677077L237.61631944444446,107.8373733445936L240.47916666666666,111.05541938302916L243.34201388888889,153.53950309302093L246.20486111111111,104.27143899374016L249.06770833333334,119.14323635783204L251.93055555555554,71.79942168735658" style="fill: none;" fill="none"></path></g></g></g></g><g opacity="0.2"><g><g><g><path stroke="rgb(51, 187, 238)" stroke-width="2px" d="M31.491319444444443,79.13614983028832L34.354166666666664,45.05596566200244L37.217013888888886,95.90378080474007L40.079861111111114,74.75997349950998L42.94270833333333,122.09511804580693L45.80555555555556,114.3079467084673L48.66840277777778,73.97751352522103L51.53125,28.511431561575847L54.39409722222222,66.2666725582546L57.25694444444444,98.42445129818385L60.119791666666664,105.61188401116269L62.982638888888886,143.95772756470586L65.8454861111111,138.88072644339675L68.70833333333333,129.39129943317846L71.57118055555556,143.3385379579333L74.43402777777777,151.60550019476162L77.296875,156.186795976427L80.15972222222223,52.208032952414506L83.02256944444444,223.14591879314872L85.88541666666666,-4.008253335952996L88.74826388888889,132.65906447834448L91.61111111111111,108.30201382107208L94.47395833333333,77.99325725767343L97.33680555555556,72.11021921369759L100.19965277777779,-0.47701589266480227L103.0625,100.07159585422939L105.92534722222221,80.59202639261876L108.78819444444444,26.853677378760295L111.65104166666667,150.75024639235616L114.51388888888889,118.87951699892685L117.37673611111111,188.8821291393706L120.23958333333333,99.73945559395683L123.10243055555556,45.31030199262819L125.96527777777777,137.25981124242156L128.828125,84.11707488695778L131.6909722222222,153.3855597972871L134.55381944444446,145.10651437441518L137.41666666666666,6.314324087566598L140.27951388888889,200.5459402137335L143.14236111111111,161.30181492699532L146.00520833333334,133.0970062944625L148.86805555555554,88.71634809176125L151.73090277777777,85.83347672886316L154.59375,198.85252589649647L157.45659722222223,49.06876227590763L160.31944444444446,-4.231939633687562L163.18229166666666,94.75057331720987L166.04513888888889,116.55424046516423L168.90798611111111,104.3449177477095L171.77083333333331,147.56853720876916L174.63368055555557,188.166274044249L177.49652777777777,122.73641104168368L180.359375,100.04241938061183L183.22222222222223,6.0308112833233L186.08506944444443,-6.2109297381509485L188.94791666666666,-48.302855677075165L191.81076388888889,30.662238677342582L194.67361111111111,13.345854229397062L197.53645833333334,32.42373143302055L200.39930555555557,66.04033385382752L203.26215277777777,13.135135253270276L206.125,157.2972702450224L208.98784722222223,17.8204643196528L211.85069444444443,107.10401013162404L214.71354166666669,-13.832178301281632L217.57638888888889,103.30517432424759L220.43923611111111,115.91206333372332L223.30208333333334,124.50586101743916L226.16493055555554,94.77621324857074L229.02777777777777,52.093979464636796L231.890625,4.948039929071858L234.75347222222223,139.28595524364056L237.61631944444446,125.58715881241699L240.47916666666666,114.27346542146473L243.34201388888889,196.02358680301262L246.20486111111111,55.00337489445995L249.06770833333334,134.0150337219239L251.93055555555554,24.455607016881135" style="fill: none;" fill="none"></path></g></g></g></g></g></g><g transform="translate(72, 178)" clip-path="url(#clip_1)"><clipPath id="clip_1"><rect width="257" height="22"></rect></clipPath><g><g><line x1="0" y1="0" x2="0" y2="5" style="visibility: inherit;" fill="rgb(0, 0, 0)" stroke="rgb(204, 204, 204)" stroke-width="1px"></line><line x1="28.62847222222222" y1="0" x2="28.62847222222222" y2="5" style="visibility: inherit;" fill="rgb(0, 0, 0)" stroke="rgb(204, 204, 204)" stroke-width="1px"></line><line x1="57.25694444444444" y1="0" x2="57.25694444444444" y2="5" style="visibility: inherit;" fill="rgb(0, 0, 0)" stroke="rgb(204, 204, 204)" stroke-width="1px"></line><line x1="85.88541666666666" y1="0" x2="85.88541666666666" y2="5" style="visibility: inherit;" fill="rgb(0, 0, 0)" stroke="rgb(204, 204, 204)" stroke-width="1px"></line><line x1="114.51388888888889" y1="0" x2="114.51388888888889" y2="5" style="visibility: inherit;" fill="rgb(0, 0, 0)" stroke="rgb(204, 204, 204)" stroke-width="1px"></line><line x1="143.14236111111111" y1="0" x2="143.14236111111111" y2="5" style="visibility: inherit;" fill="rgb(0, 0, 0)" stroke="rgb(204, 204, 204)" stroke-width="1px"></line><line x1="171.77083333333331" y1="0" x2="171.77083333333331" y2="5" style="visibility: inherit;" fill="rgb(0, 0, 0)" stroke="rgb(204, 204, 204)" stroke-width="1px"></line><line x1="200.39930555555557" y1="0" x2="200.39930555555557" y2="5" style="visibility: inherit;" fill="rgb(0, 0, 0)" stroke="rgb(204, 204, 204)" stroke-width="1px"></line><line x1="229.02777777777777" y1="0" x2="229.02777777777777" y2="5" style="visibility: inherit;" fill="rgb(0, 0, 0)" stroke="rgb(204, 204, 204)" stroke-width="1px"></line><line x1="257.65625" y1="0" x2="257.65625" y2="5" style="visibility: inherit;" fill="rgb(0, 0, 0)" stroke="rgb(204, 204, 204)" stroke-width="1px"></line></g><g transform="translate(0, 8)"><text x="0" y="0" dx="0em" dy="0.95em" style="text-anchor: middle; visibility: hidden; font-family: Roboto, sans-serif; font-size: 12px; font-weight: 200;" fill="rgb(50, 49, 63)" stroke="none" stroke-width="1px">-500k</text><text x="28.62847222222222" y="0" dx="0em" dy="0.95em" style="text-anchor: middle; visibility: inherit; font-family: Roboto, sans-serif; font-size: 12px; font-weight: 200;" fill="rgb(50, 49, 63)" stroke="none" stroke-width="1px">0</text><text x="57.25694444444444" y="0" dx="0em" dy="0.95em" style="text-anchor: middle; visibility: inherit; font-family: Roboto, sans-serif; font-size: 12px; font-weight: 200;" fill="rgb(50, 49, 63)" stroke="none" stroke-width="1px">500k</text><text x="85.88541666666666" y="0" dx="0em" dy="0.95em" style="text-anchor: middle; visibility: inherit; font-family: Roboto, sans-serif; font-size: 12px; font-weight: 200;" fill="rgb(50, 49, 63)" stroke="none" stroke-width="1px">1M</text><text x="114.51388888888889" y="0" dx="0em" dy="0.95em" style="text-anchor: middle; visibility: inherit; font-family: Roboto, sans-serif; font-size: 12px; font-weight: 200;" fill="rgb(50, 49, 63)" stroke="none" stroke-width="1px">1.5M</text><text x="143.14236111111111" y="0" dx="0em" dy="0.95em" style="text-anchor: middle; visibility: inherit; font-family: Roboto, sans-serif; font-size: 12px; font-weight: 200;" fill="rgb(50, 49, 63)" stroke="none" stroke-width="1px">2M</text><text x="171.77083333333331" y="0" dx="0em" dy="0.95em" style="text-anchor: middle; visibility: inherit; font-family: Roboto, sans-serif; font-size: 12px; font-weight: 200;" fill="rgb(50, 49, 63)" stroke="none" stroke-width="1px">2.5M</text><text x="200.39930555555557" y="0" dx="0em" dy="0.95em" style="text-anchor: middle; visibility: inherit; font-family: Roboto, sans-serif; font-size: 12px; font-weight: 200;" fill="rgb(50, 49, 63)" stroke="none" stroke-width="1px">3M</text><text x="229.02777777777777" y="0" dx="0em" dy="0.95em" style="text-anchor: middle; visibility: inherit; font-family: Roboto, sans-serif; font-size: 12px; font-weight: 200;" fill="rgb(50, 49, 63)" stroke="none" stroke-width="1px">3.5M</text><text x="257.65625" y="0" dx="0em" dy="0.95em" style="text-anchor: middle; visibility: hidden; font-family: Roboto, sans-serif; font-size: 12px; font-weight: 200;" fill="rgb(50, 49, 63)" stroke="none" stroke-width="1px">4M</text></g><line x1="0" y1="0" x2="257.65625" y2="0" fill="rgb(0, 0, 0)" stroke="rgb(204, 204, 204)" stroke-width="1px"></line></g></g></g></g></svg>