<svg viewBox="0 0 330 200" xmlns="http://www.w3.org/2000/svg"><g><g><g><g><g><line x1="40" y1="178" x2="35" y2="178" style="visibility: inherit;" fill="rgb(0, 0, 0)" stroke="rgb(204, 204, 204)" stroke-width="1px"></line><line x1="40" y1="163.16666666666666" x2="35" y2="163.16666666666666" style="visibility: inherit;" fill="rgb(0, 0, 0)" stroke="rgb(204, 204, 204)" stroke-width="1px"></line><line x1="40" y1="148.33333333333334" x2="35" y2="148.33333333333334" style="visibility: inherit;" fill="rgb(0, 0, 0)" stroke="rgb(204, 204, 204)" stroke-width="1px"></line><line x1="40" y1="133.5" x2="35" y2="133.5" style="visibility: inherit;" fill="rgb(0, 0, 0)" stroke="rgb(204, 204, 204)" stroke-width="1px"></line><line x1="40" y1="118.66666666666669" x2="35" y2="118.66666666666669" style="visibility: inherit;" fill="rgb(0, 0, 0)" stroke="rgb(204, 204, 204)" stroke-width="1px"></line><line x1="40" y1="103.83333333333331" x2="35" y2="103.83333333333331" style="visibility: inherit;" fill="rgb(0, 0, 0)" stroke="rgb(204, 204, 204)" stroke-width="1px"></line><line x1="40" y1="89" x2="35" y2="89" style="visibility: inherit;" fill="rgb(0, 0, 0)" stroke="rgb(204, 204, 204)" stroke-width="1px"></line><line x1="40" y1="74.16666666666666" x2="35" y2="74.16666666666666" style="visibility: inherit;" fill="rgb(0, 0, 0)" stroke="rgb(204, 204, 204)" stroke-width="1px"></line><line x1="40" y1="59.33333333333334" x2="35" y2="59.33333333333334" style="visibility: inherit;" fill="rgb(0, 0, 0)" stroke="rgb(204, 204, 204)" stroke-width="1px"></line><line x1="40" y1="44.5" x2="35" y2="44.5" style="visibility: inherit;" fill="rgb(0, 0, 0)" stroke="rgb(204, 204, 204)" stroke-width="1px"></line><line x1="40" y1="29.66666666666666" x2="35" y2="29.66666666666666" style="visibility: inherit;" fill="rgb(0, 0, 0)" stroke="rgb(204, 204, 204)" stroke-width="1px"></line><line x1="40" y1="14.83333333333334" x2="35" y2="14.83333333333334" style="visibility: inherit;" fill="rgb(0, 0, 0)" stroke="rgb(204, 204, 204)" stroke-width="1px"></line><line x1="40" y1="0" x2="35" y2="0" style="visibility: inherit;" fill="rgb(0, 0, 0)" stroke="rgb(204, 204, 204)" stroke-width="1px"></line></g><g transform="translate(30, 0)"><text x="0" y="178" dx="0em" dy="0.3em" style="text-anchor: end; visibility: hidden; font-family: Roboto, sans-serif; font-size: 12px; font-weight: 200;" fill="rgb(50, 49, 63)" stroke="none" stroke-width="1px">-50</text><text x="0" y="163.16666666666666" dx="0em" dy="0.3em" style="text-anchor: end; visibility: inherit; font-family: Roboto, sans-serif; font-size: 12px; font-weight: 200;" fill="rgb(50, 49, 63)" stroke="none" stroke-width="1px">0</text><text x="0" y="148.33333333333334" dx="0em" dy="0.3em" style="text-anchor: end; visibility: hidden; font-family: Roboto, sans-serif; font-size: 12px; font-weight: 200;" fill="rgb(50, 49, 63)" stroke="none" stroke-width="1px">50</text><text x="0" y="133.5" dx="0em" dy="0.3em" style="text-anchor: end; visibility: inherit; font-family: Roboto, sans-serif; font-size: 12px; font-weight: 200;" fill="rgb(50, 49, 63)" stroke="none" stroke-width="1px">100</text><text x="0" y="118.66666666666669" dx="0em" dy="0.3em" style="text-anchor: end; visibility: hidden; font-family: Roboto, sans-serif; font-size: 12px; font-weight: 200;" fill="rgb(50, 49, 63)" stroke="none" stroke-width="1px">150</text><text x="0" y="103.83333333333331" dx="0em" dy="0.3em" style="text-anchor: end; visibility: inherit; font-family: Roboto, sans-serif; font-size: 12px; font-weight: 200;" fill="rgb(50, 49, 63)" stroke="none" stroke-width="1px">200</text><text x="0" y="89" dx="0em" dy="0.3em" style="text-anchor: end; visibility: hidden; font-family: Roboto, sans-serif; font-size: 12px; font-weight: 200;" fill="rgb(50, 49, 63)" stroke="none" stroke-width="1px">250</text><text x="0" y="74.16666666666666" dx="0em" dy="0.3em" style="text-anchor: end; visibility: inherit; font-family: Roboto, sans-serif; font-size: 12px; font-weight: 200;" fill="rgb(50, 49, 63)" stroke="none" stroke-width="1px">300</text><text x="0" y="59.33333333333334" dx="0em" dy="0.3em" style="text-anchor: end; visibility: hidden; font-family: Roboto, sans-serif; font-size: 12px; font-weight: 200;" fill="rgb(50, 49, 63)" stroke="none" stroke-width="1px">350</text><text x="0" y="44.5" dx="0em" dy="0.3em" style="text-anchor: end; visibility: inherit; font-family: Roboto, sans-serif; font-size: 12px; font-weight: 200;" fill="rgb(50, 49, 63)" stroke="none" stroke-width="1px">400</text><text x="0" y="29.66666666666666" dx="0em" dy="0.3em" style="text-anchor: end; visibility: hidden; font-family: Roboto, sans-serif; font-size: 12px; font-weight: 200;" fill="rgb(50, 49, 63)" stroke="none" stroke-width="1px">450</text><text x="0" y="14.83333333333334" dx="0em" dy="0.3em" style="text-anchor: end; visibility: inherit; font-family: Roboto, sans-serif; font-size: 12px; font-weight: 200;" fill="rgb(50, 49, 63)" stroke="none" stroke-width="1px">500</text><text x="0" y="0" dx="0em" dy="0.3em" style="text-anchor: end; visibility: hidden; font-family: Roboto, sans-serif; font-size: 12px; font-weight: 200;" fill="rgb(50, 49, 63)" stroke="none" stroke-width="1px">550</text></g><line x1="40" y1="0" x2="40" y2="178" fill="rgb(0, 0, 0)" stroke="rgb(204, 204, 204)" stroke-width="1px"></line></g></g><g transform="translate(40, 0)" clip-path="url(#clip_0)"><clipPath id="clip_0"><rect width="290" height="178"></rect></clipPath><g><g><g><line x1="0" y1="0" x2="0" y2="178" fill="rgb(0, 0, 0)" stroke="rgb(60, 60, 60)" stroke-width="1px" opacity="0.25"></line><line x1="32.22222222222222" y1="0" x2="32.22222222222222" y2="178" fill="rgb(0, 0, 0)" stroke="rgb(60, 60, 60)" stroke-width="1px" opacity="0.25"></line><line x1="64.44444444444444" y1="0" x2="64.44444444444444" y2="178" fill="rgb(0, 0, 0)" stroke="rgb(60, 60, 60)" stroke-width="1px" opacity="0.25"></line><line x1="96.66666666666666" y1="0" x2="96.66666666666666" y2="178" fill="rgb(0, 0, 0)" stroke="rgb(60, 60, 60)" stroke-width="1px" opacity="0.25"></line><line x1="128.88888888888889" y1="0" x2="128.88888888888889" y2="178" fill="rgb(0, 0, 0)" stroke="rgb(60, 60, 60)" stroke-width="1px" opacity="0.25"></line><line x1="161.11111111111111" y1="0" x2="161.11111111111111" y2="178" fill="rgb(0, 0, 0)" stroke="rgb(60, 60, 60)" stroke-width="1px" opacity="0.25"></line><line x1="193.33333333333331" y1="0" x2="193.33333333333331" y2="178" fill="rgb(0, 0, 0)" stroke="rgb(60, 60, 60)" stroke-width="1px" opacity="0.25"></line><line x1="225.55555555555557" y1="0" x2="225.55555555555557" y2="178" fill="rgb(0, 0, 0)" stroke="rgb(60, 60, 60)" stroke-width="1px" opacity="0.25"></line><line x1="257.77777777777777" y1="0" x2="257.77777777777777" y2="178" fill="rgb(0, 0, 0)" stroke="rgb(60, 60, 60)" stroke-width="1px" opacity="0.25"></line><line x1="290" y1="0" x2="290" y2="178" fill="rgb(0, 0, 0)" stroke="rgb(60, 60, 60)" stroke-width="1px" opacity="0.25"></line></g><g><line x1="0" y1="178" x2="290" y2="178" fill="rgb(0, 0, 0)" stroke="rgb(60, 60, 60)" stroke-width="1px" opacity="0.25"></line><line x1="0" y1="163.16666666666666" x2="290" y2="163.16666666666666" fill="rgb(0, 0, 0)" stroke="rgb(60, 60, 60)" stroke-width="1px" opacity="0.25"></line><line x1="0" y1="148.33333333333334" x2="290" y2="148.33333333333334" fill="rgb(0, 0, 0)" stroke="rgb(60, 60, 60)" stroke-width="1px" opacity="0.25"></line><line x1="0" y1="133.5" x2="290" y2="133.5" fill="rgb(0, 0, 0)" stroke="rgb(60, 60, 60)" stroke-width="1px" opacity="0.25"></line><line x1="0" y1="118.66666666666669" x2="290" y2="118.66666666666669" fill="rgb(0, 0, 0)" stroke="rgb(60, 60, 60)" stroke-width="1px" opacity="0.25"></line><line x1="0" y1="103.83333333333331" x2="290" y2="103.83333333333331" fill="rgb(0, 0, 0)" stroke="rgb(60, 60, 60)" stroke-width="1px" opacity="0.25"></line><line x1="0" y1="89" x2="290" y2="89" fill="rgb(0, 0, 0)" stroke="rgb(60, 60, 60)" stroke-width="1px" opacity="0.25"></line><line x1="0" y1="74.16666666666666" x2="290" y2="74.16666666666666" fill="rgb(0, 0, 0)" stroke="rgb(60, 60, 60)" stroke-width="1px" opacity="0.25"></line><line x1="0" y1="59.33333333333334" x2="290" y2="59.33333333333334" fill="rgb(0, 0, 0)" stroke="rgb(60, 60, 60)" stroke-width="1px" opacity="0.25"></line><line x1="0" y1="44.5" x2="290" y2="44.5" fill="rgb(0, 0, 0)" stroke="rgb(60, 60, 60)" stroke-width="1px" opacity="0.25"></line><line x1="0" y1="29.66666666666666" x2="290" y2="29.66666666666666" fill="rgb(0, 0, 0)" stroke="rgb(60, 60, 60)" stroke-width="1px" opacity="0.25"></line><line x1="0" y1="14.83333333333334" x2="290" y2="14.83333333333334" fill="rgb(0, 0, 0)" stroke="rgb(60, 60, 60)" stroke-width="1px" opacity="0.25"></line><line x1="0" y1="0" x2="290" y2="0" fill="rgb(0, 0, 0)" stroke="rgb(60, 60, 60)" stroke-width="1px" opacity="0.25"></line></g></g></g><g><g><line x1="0" y1="163.16666666666666" x2="290" y2="163.16666666666666" fill="rgb(0, 0, 0)" stroke="rgb(153, 153, 153)" stroke-width="1.5px"></line></g></g><g><g><line x1="32.22222222222222" y1="0" x2="32.22222222222222" y2="178" fill="rgb(0, 0, 0)" stroke="rgb(153, 153, 153)" stroke-width="1.5px"></line></g></g><g><g><g><g><g><path stroke="rgb(0, 119, 187)" stroke-width="2px" d="M32.544444444444444,151.77611704508465L32.86666666666667,149.86243989732532L33.18888888888889,133.26395524524509L33.35,96.00434605238172L33.672222222222224,62.92427646267799L33.99444444444445,43.603617032974476L34.15555555555555,33.33149274650833L34.31666666666666,29.349172418930937L34.47777777777778,37.705393087806385L34.63888888888889,47.587372141937834L34.8,63.55649173239003L34.96111111111111,74.70310124978488L35.12222222222222,83.16722467662098L35.28333333333334,79.80731565196865L35.44444444444444,86.81061247574905L35.605555555555554,82.16381006067294L35.92777777777778,79.05973692878568L36.25,90.37177046749116L36.41111111111111,102.8747400800062L36.733333333333334,107.72726271908022L37.21666666666666,114.54171635025781L37.37777777777778,110.91368931595855L37.53888888888889,110.33231491541557L37.7,86.88242833781766L37.861111111111114,77.62358668553571L38.18333333333333,88.01073664838665L38.666666666666664,68.36433337760464L38.827777777777776,65.17765429696681L39.150000000000006,71.65194061472567L39.31111111111112,70.23835754359514L39.47222222222222,65.97147547187771L39.63333333333333,67.48023612903103L39.794444444444444,64.38228191303183L39.955555555555556,56.96163971503581L40.27777777777778,66.92344386090025L40.43888888888889,85.87984426043792L40.92222222222222,93.92950546361084L41.083333333333336,101.77256136627405L41.24444444444445,105.60982794469999L41.40555555555556,104.96650401446368L41.56666666666667,105.74850578632562L42.05,105.63675861520868L42.21111111111111,103.06952809096992L42.37222222222222,98.81358769457327L42.53333333333333,104.33850934207845L42.69444444444444,113.36305367718356L42.855555555555554,121.15016736949597L43.01666666666667,127.04449385625679L43.17777777777778,130.6919501828281L43.33888888888889,133.69122725561897L43.5,134.54942529874862L43.82222222222222,133.48187548099864L43.983333333333334,132.35455334871466L44.144444444444446,131.1293800729983L44.30555555555556,131.4146055155234L44.62777777777777,130.6654358194886L44.95,125.62476993712873L45.111111111111114,124.75129551645661L45.43333333333334,120.72580876388423L45.59444444444445,118.90624320843952L45.916666666666664,114.77473494141864L46.077777777777776,113.1846248051006L46.23888888888889,108.6805800213654L46.4,108.38664092214104L46.56111111111111,105.65195454513626L46.72222222222223,100.64878110048967L47.044444444444444,100.90973522085844L47.205555555555556,98.95192085851679L47.36666666666667,98.21870886777566L47.52777777777778,91.17512693551544L47.85,90.45252331171118L48.33333333333333,85.43174276547472L48.49444444444444,79.12172770597955L48.65555555555555,76.7540755737743L48.81666666666667,75.83993207399652L49.13888888888889,74.91986187033157L49.300000000000004,75.42708522186828L49.46111111111111,76.22816042913074L49.94444444444444,75.45331208712396L50.105555555555554,72.11088674628009L50.588888888888896,62.275283918794344L51.07222222222222,54.28575393856383L51.233333333333334,55.74030601591277L51.394444444444446,55.388815575095066L51.55555555555556,56.28381539049349L51.71666666666667,58.6327641202142L52.199999999999996,58.070387695686534L52.36111111111111,53.06762472552883L52.522222222222226,50.35753632109774L52.68333333333334,48.09218048354691L52.84444444444445,52.89329310228777L53.166666666666664,56.1380339311081L53.327777777777776,62.54868564638086L53.81111111111111,61.93868786510124L54.29444444444445,61.04111613917497L54.45555555555555,56.467393396735915L54.77777777777778,51.44091024003461L55.1,48.57537699501731L55.26111111111111,50.00138137877494L55.422222222222224,51.0045769503738L55.583333333333336,48.303242149503305L55.74444444444444,50.34554131197496L55.90555555555555,50.02430772467238L56.227777777777774,46.51369250776261L56.38888888888889,43.81662576437935L56.550000000000004,43.506117905383036L56.711111111111116,51.14596442957955L57.03333333333333,50.63246117800591L57.19444444444444,43.60560202861883L57.355555555555554,41.34926667186151L57.67777777777778,46.42349019831682L57.83888888888889,47.920480552446165L58,44.11395909743078L58.32222222222222,45.386651383025296L58.483333333333334,45.091659024845995L58.80555555555556,42.29764774972768L58.96666666666667,47.64377458897518L59.28888888888889,46.41926741126818L59.449999999999996,51.37162329913995L59.61111111111111,50.52251900634081L59.93333333333333,43.95637475789044L60.09444444444445,42.15272483418612L60.57777777777778,40.093933370462196L60.73888888888889,36.21656751530921L60.9,41.71253160107911L61.06111111111111,47.17037641658773L61.38333333333333,46.30588217802042L61.544444444444444,43.876702990865674L61.86666666666667,42.00521962897776L62.18888888888889,40.59328847456375L62.35,35.57497757061522L62.51111111111111,39.39266792349118L62.672222222222224,38.73284946467529L62.99444444444445,34.67468456917033L63.15555555555555,33.28057272281759L63.638888888888886,38.35045044425384L64.28333333333333,42.85194219193487L64.44444444444444,46.997301458923154L64.92777777777778,47.13704855661002L65.08888888888889,46.87663508763118L65.41111111111111,43.70330447211962L65.57222222222222,35.13521277276227L65.73333333333333,31.384343955554318L65.89444444444445,43.45996103010462L66.05555555555556,38.5199666804169L66.53888888888889,37.65739982376965L66.7,33.295246847919984L66.86111111111111,33.077178782846715L67.02222222222223,34.245102452946796L67.50555555555556,32.24185898607625L67.66666666666667,34.35930682254659L67.82777777777778,31.69925413962616L67.9888888888889,30.340116114002534L68.14999999999999,29.84989753454033L68.3111111111111,29.52783761207811L68.63333333333333,32.60167662871158L68.79444444444445,36.01813989923536L68.95555555555556,32.39190777920752L69.27777777777779,37.295782075638904L69.43888888888888,35.710126450417114L69.6,32.08544835704449L69.7611111111111,30.43240649053396L69.92222222222222,32.95945107851893L70.08333333333333,30.731753178012713L70.24444444444444,38.64961071986573L70.56666666666668,33.53301835228314L70.72777777777777,36.39893827363506L71.05,31.901932820899564L71.69444444444444,40.96279202283584L71.85555555555555,38.93864739488147L72.17777777777778,38.063704648368464L72.33888888888889,34.43928925452278L72.5,36.226423751203455L72.6611111111111,40.17571741962843L72.82222222222222,36.40712827158179L72.98333333333333,37.717907804410686L73.14444444444445,38.24648904828281L73.46666666666667,39.835856981416796L73.95,39.143373436997464L74.1111111111111,38.47553605321551L74.27222222222223,40.86931562385711L74.43333333333332,42.66831615746891L74.75555555555556,35.490720578734475L75.07777777777778,30.42920926804563L75.4,31.941211435373717L75.72222222222223,31.780359695144547L76.04444444444445,35.289439338539076L76.20555555555555,36.981301446206395L76.36666666666666,36.28032967818131L76.52777777777779,34.08732451723193L76.68888888888888,36.69296716991153L77.0111111111111,32.051667860265006L77.17222222222223,32.337104682085624L77.49444444444445,41.55377796767042L77.65555555555555,36.995116421172455L77.81666666666666,29.572206902399376L78.13888888888889,28.466354254829238L78.94444444444444,26.0352919955787L79.26666666666667,23.932983929104445L79.42777777777778,24.509671438429187L79.75,24.238456121232815L79.91111111111111,30.905132296456262L80.07222222222221,31.667253648228126L80.23333333333333,35.27424292315378L80.39444444444445,32.478263480212945L80.55555555555556,33.791055466506215L80.71666666666667,37.56167285450962L80.87777777777778,41.34035007878475L81.03888888888889,42.84483141146269L81.2,36.246043635418836L81.84444444444443,34.181340960368914L82.00555555555556,36.41171636844945L82.32777777777778,40.780337350891394L82.81111111111112,35.33376969880183L82.97222222222221,41.432168154251166L83.29444444444444,40.39704924639641L83.45555555555556,37.69923242756019L83.61666666666666,37.40903236164794L83.77777777777777,38.265064632565505L83.9388888888889,38.10582689229187L84.26111111111112,38.47416853240897L84.42222222222222,37.43059673772139L84.58333333333334,43.968477995325536L84.74444444444444,39.45374374823243L84.90555555555557,37.15167473056153L85.06666666666666,34.475316531947435L85.55,37.998091564720454L85.71111111111111,35.614809993379104L86.03333333333335,36.6658507872983L86.35555555555555,35.54217232154629L86.67777777777778,30.920160766079128L87,32.82832572402264L87.32222222222222,49.09984833767864L87.48333333333333,46.40919113661276L87.64444444444445,40.21348294827058L87.80555555555554,44.7648404324686L87.96666666666667,38.34860139909564L88.12777777777778,33.95685268115589L88.28888888888889,33.24741249577L88.45,29.959972015300355L88.61111111111111,30.752335250814234L88.93333333333332,29.79275708260113L89.25555555555555,28.792456879923613L89.41666666666667,25.051041468933157L89.7388888888889,28.32041783936567L90.0611111111111,28.938967464604715L90.22222222222223,27.50784702372488L90.38333333333333,31.010036131898246L90.54444444444445,28.627022562205635L90.70555555555555,29.773286773453076L90.86666666666667,26.659700892016247L91.02777777777777,27.97342593632387L91.1888888888889,29.063260819724437L91.35,29.725774798696854L91.5111111111111,27.15584490870714L91.67222222222223,27.495634246345762L91.99444444444445,30.541270797489283L92.15555555555555,26.26378404986769L92.47777777777777,29.733618709504153L92.8,30.613183968196097L92.96111111111111,32.537766605680076L93.12222222222222,27.69478703005359L93.28333333333333,31.859835023002052L93.44444444444446,30.6692161666931L93.76666666666667,30.126353943128443L93.92777777777778,27.73331435152842L94.25,30.233629882876834L94.41111111111111,31.58706599938113L94.57222222222222,26.31321276857078L94.73333333333333,25.527872558601793L94.89444444444445,27.115525787357537L95.21666666666665,28.71227084859413L95.37777777777778,27.791659767151877L95.53888888888889,26.897046466827902L95.7,28.385976897557835L96.18333333333334,30.729552220344672L96.50555555555556,30.796693834781696L96.66666666666666,36.33363139208161L96.98888888888888,29.571529593745883L97.15,27.26224678132933L97.3111111111111,28.070650012165316L97.63333333333334,25.35103799843293L97.79444444444444,24.241358893829098L98.11666666666666,28.437346113581206L98.43888888888888,31.479045371243735L99.24444444444444,32.75094505907564L99.40555555555557,30.767889013099005L99.88888888888889,31.556252347532585L100.05,28.630534112405602L100.21111111111111,33.83593462822429L100.37222222222222,36.55925983527101L100.53333333333333,33.063082727287195L100.69444444444444,34.536319043086955L101.01666666666667,35.693189327044784L101.33888888888889,40.85893058067733L101.66111111111111,36.58218577984063L101.98333333333333,37.43721970062996L102.46666666666667,32.49891141484947L102.62777777777777,33.39843769188112L102.94999999999999,33.579047896640425L103.11111111111111,37.41035153417633L103.27222222222223,38.43818073128087L103.43333333333334,34.03319396264565L103.59444444444445,29.87551442110147L103.91666666666667,33.404600828307906L104.07777777777777,33.91021194369497L104.39999999999999,28.450219548100748L104.56111111111112,24.018201560752853L104.72222222222221,23.9624053763237L104.88333333333334,27.995761505707428L105.04444444444445,30.6834116061252L105.20555555555555,36.405039136395935L105.52777777777777,33.61112893302544L105.6888888888889,36.329613538778354L106.01111111111112,34.56417307187942L106.17222222222222,33.02715743844622L106.33333333333333,33.3423185975597L106.49444444444444,33.13232512112685L106.65555555555555,36.1310793493004L106.81666666666668,37.95897351254083L106.97777777777777,41.85318569018967L107.1388888888889,38.29997154789431L107.3,31.656756403829963L107.46111111111112,31.55558192709402L107.62222222222222,32.861066822108214L107.78333333333333,31.65357672566999L107.94444444444444,30.467837913209344L108.10555555555555,28.129213552958838L108.26666666666667,29.981912379506774L108.5888888888889,29.789093854548298L108.75,29.30175690855671L109.23333333333333,29.380376643568706L109.39444444444445,30.02234047225637L110.03888888888888,31.580648182091725L110.52222222222223,26.674110406963816L110.68333333333332,31.30159438805223L111.00555555555556,27.39596977093041L111.16666666666667,26.82756267477185L111.48888888888888,31.422968094791532L111.65,29.746199369254487L111.8111111111111,28.580764632137015L112.29444444444445,29.54678795571695L112.45555555555555,30.37268917439168L112.77777777777779,31.00990522562357L113.42222222222223,30.029908514911387L113.58333333333333,28.60339755579553L113.90555555555555,26.759050615055983L114.06666666666666,26.140429034741537L114.22777777777777,27.33909533605567L114.38888888888889,27.225638111956876L114.55000000000001,31.573515009347556L114.71111111111111,35.35802988423108L114.87222222222223,35.28705256011684L115.19444444444444,35.1816840864549L115.35555555555555,33.10704377459138L115.51666666666667,32.25639420174882L115.67777777777778,30.039847542362043L115.83888888888889,28.96325710451435L116,29.650038230398433L116.16111111111111,28.62278950094141L116.64444444444445,29.914121241763024L116.80555555555556,27.04414949824154L116.96666666666667,27.617715923437185L117.93333333333334,24.611012960497884L118.25555555555556,30.578400462182532L118.41666666666667,29.379567713594525L118.57777777777778,26.88983385476276L118.7388888888889,30.464840582573437L118.89999999999999,32.02198093988698L119.06111111111112,27.64256365109583L119.22222222222221,26.30927086973737L119.38333333333334,28.494881457410994L119.54444444444444,27.06171059564886L119.70555555555556,25.452458894829654L119.86666666666666,27.524502915432404L120.02777777777777,28.2948711883477L120.1888888888889,24.57023334401112L120.35,24.562447757210634L120.51111111111112,26.394492311222507L120.67222222222222,27.68226232992765L120.83333333333334,26.747529938157193L121.15555555555557,28.9410241853872L121.31666666666666,24.850993558351146L121.47777777777777,27.000672713013465L121.8,26.463319805806858L122.12222222222222,26.941705933583773L122.44444444444444,31.119771881586797L122.60555555555555,32.06295158410395L123.08888888888889,37.8562532680448L123.25,37.406223812163674L123.41111111111111,37.90905550959746L123.73333333333333,38.099255792315006L123.89444444444445,31.780673021483018L124.05555555555554,32.44562754671157L124.37777777777778,31.222334037027654L124.53888888888889,36.28883277982567L124.7,35.67716017449945L124.86111111111111,38.22244915666704L125.18333333333332,40.63984238635761L125.34444444444445,37.67879158502452L125.50555555555555,40.5358573301913L125.66666666666667,39.390357813451764L125.82777777777777,35.947909416165984L125.9888888888889,35.70473127872101L126.15,29.929667631141104L126.3111111111111,27.93651772466886L126.47222222222223,29.936608369984164L126.63333333333333,36.77675358684756L126.79444444444445,36.185819166063766L126.95555555555555,33.1001977910397L127.11666666666667,31.22123791326074L127.6,31.794429330572417L127.7611111111111,40.15427765356746L127.92222222222223,37.74768214139962L128.24444444444444,38.29115333673171L128.40555555555557,40.537187131826144L128.56666666666666,36.0066253347119L128.7277777777778,36.743170557167154L129.05,36.180457755797114L129.2111111111111,33.83475204074035L129.37222222222223,30.28625266831939L129.53333333333333,32.173805604586136L129.69444444444446,32.66182645748511L130.01666666666665,32.85706994667875L130.33888888888887,31.96189770527298L130.6611111111111,36.45217560841449L130.82222222222222,43.24058874007964L130.98333333333332,48.77906934359127L131.46666666666667,41.972837996177134L132.11111111111111,37.68260587756448L132.27222222222224,34.40869795831348L132.43333333333334,35.77691993252588L132.59444444444443,34.50319207278963L132.75555555555556,35.30463365439611L133.07777777777778,29.33815697612384L133.23888888888888,29.65581514170776L133.72222222222223,37.09309037114685L133.88333333333333,41.14501172813528L134.20555555555555,32.75067343608913L134.52777777777777,24.389922340196257L134.6888888888889,22.170377836764793L135.17222222222222,22.326934422125888L135.33333333333334,27.249544532433383L135.49444444444444,27.904603351421784L135.65555555555557,27.01237537566206L135.81666666666666,29.930849603928042L135.9777777777778,27.57237294242626L136.13888888888889,25.13950337591692L136.29999999999998,24.075199889455867L136.4611111111111,26.624160715398503L136.6222222222222,24.330728327263046L136.78333333333333,27.69049269349805L136.94444444444443,28.18594896312271L137.10555555555555,29.519641148228022L137.26666666666665,30.356010403622477L137.42777777777778,29.472303857003304L137.5888888888889,25.717137137648773L138.07222222222222,29.71960245350863L138.23333333333335,25.143780922392345L138.55555555555557,26.077090910821806L138.87777777777777,27.711626459235767L139.0388888888889,27.428313229617892L139.2,28.32566896425557L139.36111111111111,36.13470948212779L139.5222222222222,35.33464396632432L139.68333333333334,30.578944653653686L139.84444444444443,29.514221624922556L140.00555555555556,30.90837820748081L140.16666666666666,32.55562637994484L140.48888888888888,34.04298871690927L140.65,37.222481754694876L140.8111111111111,45.41808179938518L140.97222222222223,51.94409323733909L141.13333333333335,49.28567556560965L141.45555555555555,38.79675211996302L141.61666666666667,35.884928031417054L141.77777777777777,37.4800843566916L141.9388888888889,32.889393527222744L142.1,28.91818202362113L142.26111111111112,29.952572864024113L142.42222222222222,31.587062137985363L142.58333333333331,35.233997784487485L142.74444444444444,35.035007060782156L142.90555555555554,33.49196418306035L143.06666666666666,33.49058281988304L143.2277777777778,36.44989086672863L143.38888888888889,38.928902698582405L143.87222222222223,36.70564372193118L144.19444444444446,36.62676605448773L144.51666666666668,34.03151057037537L145,32.423545303905144L145.1611111111111,29.031040077489674L145.3222222222222,26.58767508838677L145.48333333333335,27.91027049707425L145.64444444444445,30.63733892285353L145.80555555555554,29.869523038086925L145.96666666666667,27.15354783496143L146.1277777777778,29.309138165120697L146.2888888888889,27.819854065877404L146.45,28.112169210266185L146.61111111111111,26.226687937652617L146.7722222222222,32.18582469188948L146.93333333333334,32.88060343684643L147.41666666666666,25.956572216063208L147.57777777777775,26.541347784056995L147.7388888888889,27.509347547220546L148.0611111111111,26.70403615967799L148.2222222222222,31.337117872319464L148.54444444444445,27.83621081197352L148.70555555555555,23.430342547913824L148.86666666666665,25.14954581619324L149.02777777777777,24.32411917071055L149.1888888888889,27.406261042061004L149.35,28.68907498921085L149.83333333333334,31.7737041612721L149.99444444444444,30.547796803129543L150.15555555555557,27.64302793851139L150.8,28.628592012875473L150.9611111111111,29.288221889413L151.28333333333333,27.585112379032676L151.44444444444446,25.65362323663546L151.60555555555555,28.397941226472035L151.76666666666665,29.650131654495773L152.0888888888889,28.64066717612483L152.4111111111111,30.074403717456953L152.57222222222222,27.72990973429814L152.73333333333332,25.87859230814841L153.05555555555557,22.984429668478523L153.21666666666667,22.125593587901367L153.37777777777777,20.447451334966313L153.5388888888889,20.420940684166098L153.70000000000002,21.652738357626642L153.86111111111111,21.97355037184719L154.0222222222222,21.24930249915603L154.1833333333333,23.55392381224077L154.66666666666666,22.264415570264266L154.82777777777778,19.91777998972197L155.15,23.56847332819431L155.3111111111111,27.74958944730027L155.47222222222223,29.572329971452866L155.63333333333333,27.429879585335808L155.79444444444445,28.819268456811784L155.95555555555555,30.17811307972426L156.27777777777777,31.752270396877094L156.43888888888887,37.079626511101296L156.60000000000002,33.99771013665418L156.76111111111112,31.70566959265976L156.92222222222222,30.743630999943164L157.08333333333331,30.386731322318592L157.24444444444447,35.04407580520225L157.40555555555557,37.818173563408415L157.88888888888889,40.22670712268727L158.05,34.66839893080978L158.3722222222222,31.612265108715437L158.53333333333333,32.801086523677384L158.69444444444446,33.3199815858133L158.85555555555555,32.199858499205476L159.17777777777778,32.7605764257095L159.5,34.111327336389905L159.66111111111113,31.23820079791501L159.82222222222222,32.4884092266756L159.98333333333332,28.53159871734171L160.14444444444442,27.67975814976786L160.30555555555557,31.6284670774067L160.46666666666667,30.75352054635309L160.62777777777777,35.691193154849714L160.95000000000002,34.55180120795871L161.11111111111111,31.45683072889797L161.2722222222222,29.920309336210046L161.59444444444443,34.240862472467015L161.91666666666666,33.84469316860653L162.07777777777778,31.063907354973846L162.23888888888888,29.057013085039003L162.4,34.016101503050116L162.56111111111113,29.857240153787433L162.72222222222223,28.765044586577964L163.04444444444442,24.92398489908326L163.20555555555558,25.49272359985088L163.36666666666667,26.819486799925425L163.68888888888887,25.0727867145786L163.85,27.518060023955968L164.17222222222222,26.503949699884892L164.65555555555557,27.493287614428116L164.9777777777778,28.430281248213408L165.13888888888889,25.427145222088473L165.29999999999998,23.503337829143177L165.78333333333333,23.598743702983054L165.94444444444443,25.171145634857403L166.26666666666668,25.372193148239234L166.42777777777778,27.445955837221838L166.75,27.72226217967863L166.91111111111113,26.6303912420203L167.07222222222222,30.505520633217174L167.39444444444445,28.03392135786835L167.55555555555554,23.431677526671788L168.0388888888889,22.7616337971087L168.2,23.031850681513333L168.52222222222224,22.18554092099756L168.68333333333334,29.06373313750073L168.84444444444443,27.859549572493854L169.00555555555553,25.615614935172704L169.32777777777778,24.418389997290124L169.48888888888888,24.254981589221224L169.64999999999998,24.105407461277284L169.81111111111113,22.202342351651L170.13333333333333,28.302722587772113L170.45555555555555,28.48114080438412L170.77777777777777,28.963355385509118L170.9388888888889,23.722557361944013L171.1,23.593219497215514L171.2611111111111,25.2214554313877L171.42222222222222,26.47376965701872L172.0666666666667,22.228167228004793L172.2277777777778,23.461131546945108L172.38888888888889,21.964167000279193L172.54999999999998,23.14261928708621L172.7111111111111,24.128295778390136L173.03333333333333,24.007022797642325L173.19444444444443,23.638497767636267L173.35555555555555,20.04094800084289L173.51666666666668,18.969440115737193L173.67777777777778,20.48029053312902L173.8388888888889,22.08279739669147L174,27.497367784039096L174.1611111111111,33.2387097302357L174.32222222222222,27.931505286260407L174.48333333333335,37.589660266421234L174.80555555555554,40.444263014883795L174.96666666666667,35.335065569128105L175.1277777777778,29.957221963030843L175.2888888888889,36.44244612555838L175.45,84.84352502912847L175.6111111111111,110.27034721101606L175.77222222222224,127.01066109838726L176.09444444444443,132.06315889290295L176.25555555555556,129.71589978183965L176.41666666666666,119.8700563667499L176.57777777777778,111.47051331114189L176.73888888888888,110.19618764515428L176.9,103.78671335993064L177.22222222222223,100.9725711829357L177.38333333333335,113.29249663069312L178.0277777777778,112.91037675874661L178.1888888888889,113.40871735581372L178.5111111111111,113.51900169853675L178.67222222222225,108.49453523240639L178.83333333333334,105.94940366865275L178.99444444444444,101.59313373943705L179.15555555555554,107.94103291382659L179.31666666666666,107.12519698873295L179.4777777777778,102.91621698903609L179.8,108.73344357752585L179.9611111111111,103.91134977948559L180.1222222222222,97.46703770305658L180.28333333333333,92.21754778219238L180.60555555555555,93.48140814300861L180.76666666666665,98.59165329534059L180.9277777777778,95.40144399284443L181.0888888888889,98.6605780043161L181.25,93.0930291500666L181.4111111111111,86.067601763754L182.21666666666667,69.56934317924028L182.3777777777778,58.31823385565204L182.5388888888889,49.89925217155974L182.7,49.421149523279865L182.86111111111111,47.44054861824801L183.0222222222222,40.8873000150973L183.34444444444446,44.15546758363915L183.66666666666666,38.72880231395499L184.15,36.40419282364416L184.3111111111111,35.07009247505451L184.4722222222222,32.6850907931913L184.63333333333335,30.356641262481073L185.11666666666665,28.245388197158512L185.27777777777777,27.923511003283014L185.6,26.1536663597958L185.76111111111112,27.402357522752723L185.92222222222222,24.827563954247463L186.08333333333334,24.938768345938836L186.40555555555557,23.83559785705142L186.56666666666666,24.376386575010088L186.72777777777776,25.047346119536282L186.8888888888889,23.542321029331944L187.05,22.065207755876894L187.2111111111111,21.776974605477513L187.3722222222222,21.403997912683394L187.53333333333333,21.15804586185928L187.69444444444446,23.188691662619092L188.01666666666665,24.147226182058237L188.17777777777778,21.86797690125045L188.5,20.705623328148025L188.82222222222222,22.07114499740732L188.98333333333332,22.249573404058488L189.30555555555557,24.449599731000585L189.62777777777777,26.799251515484027L189.7888888888889,23.751878260183425L189.95000000000002,21.708318789108617L190.11111111111111,22.066254528017858L190.59444444444446,24.08237744711441L190.75555555555556,21.84587357870044L190.91666666666666,25.468792807416612L191.07777777777778,28.58487324086651L191.4,25.72003788792998L191.5611111111111,25.728936027705227L191.72222222222223,24.363900132586338L191.88333333333333,22.06150776486087L192.04444444444445,21.174471482935L192.52777777777777,23.71901354298118L192.85000000000002,20.907840104823936L193.01111111111112,21.087742429934742L193.33333333333331,24.438215799114513L193.49444444444447,26.70585330157548L193.81666666666666,29.32392432127928L193.97777777777776,27.656497225336917L194.13888888888889,28.150504624631342L194.3,26.987056053770743L194.6222222222222,26.363146760609336L194.78333333333333,25.289281713638008L194.94444444444446,23.002547300097017L195.26666666666668,24.875546212711267L195.42777777777778,25.742242812573075L195.58888888888887,23.505799344112084L195.75,21.776200555031295L196.07222222222222,22.3982246366465L196.23333333333332,26.899725772506187L196.55555555555557,27.198164684755703L197.0388888888889,25.039978745372625L197.36111111111111,23.320691276983172L197.5222222222222,22.516935095685596L197.68333333333334,21.499116961905283L197.84444444444443,19.806619434728685L198.16666666666666,22.445398238685954L198.48888888888888,26.95498188504936L198.65,27.96514169936061L198.81111111111113,26.23085815233329L198.97222222222223,22.118001250238898L199.13333333333333,24.48721422782128L199.29444444444442,27.653207842263498L199.45555555555558,25.015974648670824L199.61666666666667,28.807121794957144L199.77777777777777,24.834964044858133L200.26111111111112,24.092838162565787L200.42222222222222,23.486278853011406L200.58333333333334,24.2314589252036L201.2277777777778,24.756592194535397L201.38888888888889,25.238385971535287L201.54999999999998,25.45903912631126L201.7111111111111,23.514649364587918L201.87222222222223,22.29192922534409L202.19444444444443,24.544532371868005L202.35555555555558,26.227735800598722L202.51666666666668,24.882606863108613L202.67777777777778,22.383955307368083L202.83888888888887,23.348380495887813L203.64444444444445,21.321560649962137L203.80555555555554,20.554031515166614L203.96666666666667,20.622917195978495L204.1277777777778,24.264230255297182L204.2888888888889,23.503874109989084L204.45,29.020987195375394L204.77222222222224,28.692510148387584L204.93333333333334,25.6867566814529L205.09444444444443,25.027507674222534L205.25555555555553,24.79170961714055L205.41666666666669,23.14022553610934L205.57777777777778,26.444164434314427L205.73888888888888,25.947735954543294L205.89999999999998,26.44968513628857L206.06111111111113,25.813584023222433L206.38333333333333,24.915975106907432L206.54444444444445,24.901351658678326L206.70555555555555,25.249527503736946L206.86666666666667,24.534977985266917L207.02777777777777,24.319219237587888L207.1888888888889,24.02902403733236L207.35,22.192234746123834L207.67222222222222,20.905021181655663L207.99444444444444,20.439823619799196L208.15555555555554,22.869212448734245L208.3166666666667,21.832203422853453L208.4777777777778,19.48125170532322L208.63888888888889,17.817223753052215L208.9611111111111,21.35007020985944L209.28333333333333,21.51488907831837L209.44444444444443,20.28127474952702L209.76666666666668,20.208762374763495L210.0888888888889,22.109490185998276L210.25,22.009809993715297L210.4111111111111,22.85538844615775L210.73333333333335,25.337755766861424L211.21666666666667,21.990379399137105L211.3777777777778,24.49768313828927L211.8611111111111,26.270705379365975L212.02222222222224,26.070292773504598L212.18333333333334,24.30568217369893L212.66666666666666,26.983594158952336L212.82777777777778,25.33598831279322L213.15,25.59437411041678L213.3111111111111,27.670351473746802L213.47222222222223,25.153287919490605L213.63333333333335,22.671784747505722L213.79444444444445,30.765146269830343L213.95555555555555,26.837882786607864L214.11666666666665,25.38000035326488L214.2777777777778,25.829066084428664L214.4388888888889,25.760472220681134L214.6,29.091134700428462L214.92222222222225,25.633121874953815L215.08333333333334,26.590371107968448L215.24444444444444,24.977807166533044L215.7277777777778,25.229880450942307L215.88888888888889,25.74655958989172L216.2111111111111,26.33315818239704L216.3722222222222,23.196407582409446L216.53333333333333,23.07121765635771L216.69444444444446,20.89877024582209L217.01666666666665,25.048507691677347L217.1777777777778,25.818280284233857L217.5,27.289076309516023L217.6611111111111,22.67358743047417L217.8222222222222,23.753087711412217L217.98333333333335,26.079111960767943L218.14444444444445,28.662236491858586L218.30555555555554,29.89228895108879L218.46666666666667,28.542917038207168L218.6277777777778,27.468675366841197L218.7888888888889,28.932701025705754L218.95,27.42644588028452L219.11111111111111,29.840498432492524L219.2722222222222,29.052973723895995L219.43333333333334,28.940618280811936L219.59444444444446,26.982498318872764L219.91666666666666,25.249046909273634L220.07777777777775,28.32816532068498L220.2388888888889,26.462911395694043L220.4,26.680343077811216L220.7222222222222,26.159647196050788L220.88333333333335,25.568007293500656L221.52777777777777,28.7711845346084L222.01111111111112,27.848544334361502L222.33333333333334,29.403055583928793L222.49444444444444,30.864261505750207L222.65555555555557,28.889261388454532L222.81666666666666,29.77809560918494L222.97777777777776,28.625249535956392L223.3,27.710255484937843L223.4611111111111,30.284013138790534L223.6222222222222,29.85639438677808L223.78333333333333,32.69999991759152L223.94444444444446,30.879604857884303L224.26666666666665,36.44473584975921L224.42777777777778,32.95726202888352L224.5888888888889,28.258646171505553L224.75,28.446137915261232L224.9111111111111,25.978834185902123L225.07222222222222,25.59094668482931L225.23333333333332,25.45737199353768L225.39444444444445,27.630690493025355L225.55555555555557,28.4010142426878L225.71666666666667,27.790018738368644L225.87777777777777,26.11681957019344L226.20000000000002,25.618709518576527L226.36111111111111,25.461901095144405L226.6833333333333,25.815296810186123L226.84444444444446,28.05486372695179L227.00555555555556,25.110844389924466L227.32777777777778,24.75689812676561L227.4888888888889,28.483774228177722L227.65,27.40576879743847L227.8111111111111,25.25927691580908L227.97222222222223,22.664115946104427L228.13333333333333,25.460079162423963L228.77777777777777,27.548932505202867L229.10000000000002,24.667229161536998L229.58333333333331,24.526887997923424L229.74444444444447,25.23047438429699L229.90555555555557,30.8803496494239L230.06666666666666,28.406254587488647L230.22777777777776,24.90411794519287L230.38888888888889,22.71924433636597L230.7111111111111,21.88986290101178L230.8722222222222,21.495139783839214L231.03333333333333,23.4668182439704L231.19444444444446,27.136061252112164L231.35555555555555,23.731661505776138L231.51666666666668,28.813565941690147L231.67777777777778,25.840925426899762L231.83888888888887,22.78255159080992L232,25.493829353754542L232.16111111111113,27.30194646602115L232.48333333333332,26.504680355813303L232.64444444444442,24.00002450407852L232.80555555555557,24.05855981877104L233.12777777777777,21.781834434125123L233.2888888888889,21.425354269471413L233.45000000000002,22.301399872365916L233.61111111111111,23.77640702846812L233.7722222222222,22.689068382398133L233.93333333333334,20.649775534379405L234.25555555555556,23.773775147153888L234.41666666666666,23.734147959726027L234.57777777777778,23.136043502974985L234.73888888888888,22.59182118996405L234.9,23.445115866385013L235.06111111111113,24.602606354416473L235.22222222222223,24.866088943809814L235.54444444444442,25.920875689352815L235.70555555555558,25.362214476349582L235.86666666666667,22.88886058493588L236.02777777777777,25.94768936636117L236.18888888888887,26.2944432854755L236.35,25.083777174557426L236.51111111111112,25.076734270058672L236.67222222222222,23.99676404665043L236.83333333333334,23.095125899464534L237.15555555555557,23.9218303752694L237.31666666666666,25.39057735804486L237.63888888888889,25.8044190297711L238.28333333333333,24.907857199618636L238.44444444444443,24.063863800818435L238.76666666666668,23.823739303973653L238.92777777777778,26.93030277780063L239.08888888888887,26.656736929671798L239.41111111111113,24.476717565584583L239.73333333333332,25.087561765376954L239.89444444444445,23.57760259899707L240.05555555555554,30.38793083644515L240.3777777777778,31.617907577239503L240.5388888888889,30.411254152796186L240.7,31.746092927228165L240.86111111111111,30.670296880687648L241.18333333333334,29.60261690551308L241.34444444444443,24.530762849322283L241.50555555555553,24.071366684670913L241.66666666666669,22.737497866668114L241.82777777777778,21.157386374333413L242.14999999999998,25.64091832551304L242.31111111111113,23.317776667639336L242.47222222222223,22.792204017820335L242.79444444444445,26.808455015908873L242.95555555555555,28.900547647521485L243.4388888888889,28.13368431570411L243.6,25.62860342901089L243.7611111111111,26.433155881172105L243.92222222222222,28.53806501130546L244.24444444444444,28.724402836463273L244.40555555555554,26.64285515561771L244.5666666666667,31.9459115764254L244.7277777777778,41.73389913741517L244.88888888888889,43.1414756307193L245.04999999999998,37.90248769328934L245.2111111111111,37.95660609029703L245.37222222222223,38.31414243113484L245.69444444444443,33.866579170482794L245.85555555555555,33.72333459866913L246.01666666666668,34.11777991937037L246.17777777777778,30.1808944559417L246.3388888888889,32.22488016050666L246.5,33.622454932141345L246.6611111111111,27.79209045231742L246.98333333333335,29.932251077395676L247.14444444444445,31.870684356243405L247.30555555555554,31.219071426168576L247.46666666666667,27.649722684112927L247.6277777777778,26.388696486099423L247.7888888888889,25.78466048873657L248.27222222222224,25.11758984723285L248.59444444444443,25.129370434277224L248.75555555555556,26.40868754664707L248.91666666666666,25.897644656298798L249.07777777777778,24.746921947696936L249.23888888888888,23.167232387015783L249.4,22.98350907680866L249.5611111111111,22.45429314314066L249.72222222222223,28.698783432735688L249.88333333333335,32.18322029913153L250.04444444444445,33.32476297142447L250.5277777777778,27.655376226516264L250.6888888888889,27.1374858325778L251.17222222222225,22.30186791628893L251.33333333333334,22.54550335511712L251.49444444444444,24.006494760240844L251.65555555555554,24.316285659335918L251.81666666666666,26.885522488684895L251.9777777777778,25.24624772505535L252.3,22.557220135314143L252.4611111111111,21.682105652780788L252.6222222222222,20.47000378464235L252.78333333333333,20.860427103909714L252.94444444444446,19.448593221144286L253.10555555555555,19.185842936255746L253.26666666666665,22.41026954145143L253.5888888888889,22.826033818577272L253.75,24.94387964122222L253.9111111111111,28.710605642958125L254.23333333333335,29.083850388210845L254.39444444444445,27.02369897747131L254.55555555555554,26.057799348354806L254.8777777777778,25.30382251556737L255.0388888888889,27.842293897350736" style="fill: none;" fill="none"></path></g></g></g></g><g opacity="0.2"><g><g><g><path stroke="rgb(0, 119, 187)" stroke-width="2px" d="M32.544444444444444,151.77611704508465L32.86666666666667,148.90560132344564L33.18888888888889,120.8150917561849L33.35,63.40218800862631L33.672222222222224,31.911711222330727L33.99444444444445,24.88672821044922L34.15555555555555,23.219870402018238L34.31666666666666,25.39796396891277L34.47777777777778,46.028972269694016L34.63888888888889,57.450050455729155L34.8,79.5100164794922L34.96111111111111,85.84426808675131L35.12222222222222,91.62928166707357L35.28333333333334,76.44781677246094L35.44444444444444,93.81348185221354L35.605555555555554,77.5171494547526L35.92777777777778,75.95571116129557L36.25,101.68371770222983L36.41111111111111,115.3776619974772L36.733333333333334,112.57977610270181L37.21666666666666,121.356163482666L37.37777777777778,107.28566401163737L37.53888888888889,109.75094065348307L37.7,63.432544555664066L37.861111111111114,68.36474558512371L38.18333333333333,98.39788630167642L38.666666666666664,48.717930399576815L38.827777777777776,61.99097524007161L39.150000000000006,78.12622690836588L39.31111111111112,68.82477447509766L39.47222222222222,61.70459340413411L39.63333333333333,68.98899678548177L39.794444444444444,61.28432769775391L39.955555555555556,49.54099751790364L40.27777777777778,76.8852480061849L40.43888888888889,104.83624465942383L40.92222222222222,101.97916666666669L41.083333333333336,109.61561726888021L41.24444444444445,109.44709452311197L41.40555555555556,104.32318008422851L41.56666666666667,106.53050755818686L42.05,105.5250114440918L42.21111111111111,100.50229756673176L42.37222222222222,94.55764729817709L42.53333333333333,109.86343098958334L42.69444444444444,122.38759801228842L42.855555555555554,128.93728106180828L43.01666666666667,132.93882034301757L43.17777777777778,134.3394065093994L43.33888888888889,136.69050432840984L43.5,135.40762334187826L43.82222222222222,132.41432566324872L43.983333333333334,131.22723121643068L44.144444444444446,129.90420679728192L44.30555555555556,131.69983095804852L44.62777777777777,129.9162661234538L44.95,120.58410405476889L45.111111111111114,123.87782109578451L45.43333333333334,116.70032201131185L45.59444444444445,117.08667765299481L45.916666666666664,110.64322667439777L46.077777777777776,111.59451466878257L46.23888888888889,104.17653523763019L46.4,108.09270182291665L46.56111111111111,102.91726816813153L46.72222222222223,95.64560765584311L47.044444444444444,101.1706893412272L47.205555555555556,96.99410649617514L47.36666666666667,97.4854968770345L47.52777777777778,84.13154500325521L47.85,89.7299196879069L48.33333333333333,80.41096221923829L48.49444444444444,72.81171264648438L48.65555555555555,74.38642344156901L48.81666666666667,74.92578857421876L49.13888888888889,73.99979166666667L49.300000000000004,75.93430857340495L49.46111111111111,77.02923563639322L49.94444444444444,74.67846374511718L50.105555555555554,68.7684614054362L50.588888888888896,52.4396810913086L51.07222222222222,46.29622395833334L51.233333333333334,57.194858093261715L51.394444444444446,55.03732513427734L51.55555555555556,57.17881520589194L51.71666666666667,60.98171284993489L52.199999999999996,57.50801127115886L52.36111111111111,48.0648617553711L52.522222222222226,47.64744791666667L52.68333333333334,45.8268246459961L52.84444444444445,57.69440572102864L53.166666666666664,59.38277475992839L53.327777777777776,68.95933736165365L53.81111111111111,61.328690083821606L54.29444444444445,60.1435444132487L54.45555555555555,51.89367065429687L54.77777777777778,46.41442708333333L55.1,45.709843750000005L55.26111111111111,51.427385762532545L55.422222222222224,52.007772521972655L55.583333333333336,45.60190734863281L55.74444444444444,52.38784047444661L55.90555555555555,49.70307413736978L56.227777777777774,43.003077290852865L56.38888888888889,41.11955902099609L56.550000000000004,43.19561004638672L56.711111111111116,58.78581095377604L57.03333333333333,50.118957926432294L57.19444444444444,36.57874287923178L57.355555555555554,39.092931315104174L57.67777777777778,51.497713724772126L57.83888888888889,49.41747090657553L58,40.30743764241536L58.32222222222222,46.65934366861978L58.483333333333334,44.796666666666674L58.80555555555556,39.50363647460938L58.96666666666667,52.98990142822265L59.28888888888889,45.194760233561205L59.449999999999996,56.323979187011716L59.61111111111111,49.67341471354167L59.93333333333333,37.39023050944011L60.09444444444445,40.34907491048177L60.57777777777778,38.035141906738275L60.73888888888889,32.33920166015625L60.9,47.208495686848956L61.06111111111111,52.62822123209636L61.38333333333333,45.44138793945312L61.544444444444444,41.447523803710936L61.86666666666667,40.133736267089844L62.18888888888889,39.181357320149736L62.35,30.55666666666666L62.51111111111111,43.21035827636719L62.672222222222224,38.07303100585938L62.99444444444445,30.61651967366536L63.15555555555555,31.886460876464835L63.638888888888886,43.420328165690094L64.28333333333333,47.35343393961589L64.44444444444444,51.14266072591147L64.92777777777778,47.276795654296876L65.08888888888889,46.61622161865235L65.41111111111111,40.52997385660807L65.57222222222222,26.567121073404955L65.73333333333333,27.633475138346363L65.89444444444445,55.53557810465495L66.05555555555556,33.57997233072917L66.53888888888889,36.794832967122396L66.7,28.933093872070316L66.86111111111111,32.85911071777343L67.02222222222223,35.413026123046876L67.50555555555556,30.238615519205727L67.66666666666667,36.476754659016926L67.82777777777778,29.039201456705733L67.9888888888889,28.980978088378905L68.14999999999999,29.359678955078124L68.3111111111111,29.205777689615893L68.63333333333333,35.67551564534505L68.79444444444445,39.43460316975911L68.95555555555556,28.765675659179692L69.27777777777779,42.19965637207031L69.43888888888888,34.12447082519532L69.6,28.460770263671876L69.7611111111111,28.779364624023447L69.92222222222222,35.48649566650391L70.08333333333333,28.504055277506517L70.24444444444444,46.567468261718744L70.56666666666668,28.416425984700517L70.72777777777777,39.26485819498697L71.05,27.404927368164067L71.69444444444444,50.023651224772124L71.85555555555555,36.91450276692708L72.17777777777778,37.18876190185547L72.33888888888889,30.814873860677075L72.5,38.01355824788411L72.6611111111111,44.12501108805339L72.82222222222222,32.63853912353515L72.98333333333333,39.02868733723958L73.14444444444445,38.775070292154936L73.46666666666667,41.42522491455078L73.95,38.45088989257812L74.1111111111111,37.80769866943359L74.27222222222223,43.26309519449869L74.43333333333332,44.46731669108073L74.75555555555556,28.313125L75.07777777777778,25.36769795735678L75.4,33.45321360270183L75.72222222222223,31.619507954915356L76.04444444444445,38.7985189819336L76.20555555555555,38.6731635538737L76.36666666666666,35.57935791015625L76.52777777777779,31.894319356282544L76.68888888888888,39.29860982259114L77.0111111111111,27.410368550618497L77.17222222222223,32.62254150390625L77.49444444444445,50.77045125325522L77.65555555555555,32.43645487467447L77.81666666666666,22.149297383626298L78.13888888888889,27.36050160725912L78.94444444444444,23.604229736328122L79.26666666666667,21.830675862630212L79.42777777777778,25.086358947753908L79.75,23.96724080403646L79.91111111111111,37.57180847167969L80.07222222222221,32.42937499999999L80.23333333333333,38.881232198079424L80.39444444444445,29.68228403727213L80.55555555555556,35.10384745279947L80.71666666666667,41.33229024251302L80.87777777777778,45.11902730305989L81.03888888888889,44.34931274414062L81.2,29.64725585937499L81.84444444444443,32.116638285319L82.00555555555556,38.64209177652994L82.32777777777778,45.14895833333333L82.81111111111112,29.887202046712243L82.97222222222221,47.53056660970053L83.29444444444444,39.361930338541676L83.45555555555556,35.00141560872395L83.61666666666666,37.118832295735686L83.77777777777777,39.121096903483064L83.9388888888889,37.94658915201822L84.26111111111112,38.84251017252603L84.42222222222222,36.38702494303386L84.58333333333334,50.506359252929684L84.74444444444444,34.93900950113933L84.90555555555557,34.84960571289062L85.06666666666666,31.798958333333324L85.55,41.52086659749349L85.71111111111111,33.23152842203776L86.03333333333335,37.71689158121744L86.35555555555555,34.41849385579428L86.67777777777778,26.29814921061197L87,34.73649068196614L87.32222222222222,65.37137095133463L87.48333333333333,43.71853393554687L87.64444444444445,34.01777475992839L87.80555555555554,49.316197916666674L87.96666666666667,31.932362365722653L88.12777777777778,29.56510396321614L88.28888888888889,32.53797231038411L88.45,26.67253153483073L88.61111111111111,31.544698486328134L88.93333333333332,28.833178914388025L89.25555555555555,27.792156677246098L89.41666666666667,21.3096260579427L89.7388888888889,31.589794209798182L90.0611111111111,29.55751708984376L90.22222222222223,26.076726582845048L90.38333333333333,34.51222524007161L90.54444444444445,26.244008992513027L90.70555555555555,30.919550984700514L90.86666666666667,23.54611501057942L91.02777777777777,29.287150980631516L91.1888888888889,30.153095703125004L91.35,30.388288777669267L91.5111111111111,24.585915018717447L91.67222222222223,27.83542358398438L91.99444444444445,33.586907348632806L92.15555555555555,21.986297302246104L92.47777777777777,33.20345336914062L92.8,31.492749226888016L92.96111111111111,34.462349243164056L93.12222222222222,22.851807454427085L93.28333333333333,36.024883015950515L93.44444444444446,29.47859731038411L93.76666666666667,29.583491719563806L93.92777777777778,25.34027475992838L94.25,32.73394541422527L94.41111111111111,32.94050211588541L94.57222222222222,21.039359537760426L94.73333333333333,24.742532348632803L94.89444444444445,28.703179016113282L95.21666666666665,30.309015909830723L95.37777777777778,26.871048685709628L95.53888888888889,26.002433166503906L95.7,29.87490732828777L96.18333333333334,33.07312754313151L96.50555555555556,30.863835449218755L96.66666666666666,41.870568949381514L96.98888888888888,22.80942779541016L97.15,24.95296396891276L97.3111111111111,28.879053243001305L97.63333333333334,22.631425984700524L97.79444444444444,23.131679789225267L98.11666666666666,32.63333333333333L98.43888888888888,34.52074462890624L99.24444444444444,34.022844746907545L99.40555555555557,28.78483296712239L99.88888888888889,32.34461568196614L100.05,25.70481587727864L100.21111111111111,39.041335144042975L100.37222222222222,39.28258504231772L100.53333333333333,29.56690561930339L100.69444444444444,36.009555358886715L101.01666666666667,36.85005961100259L101.33888888888889,46.02467183430989L101.66111111111111,32.305440979003905L101.98333333333333,38.29225362141927L102.46666666666667,27.560603129069015L102.62777777777777,34.29796396891276L102.94999999999999,33.75965810139975L103.11111111111111,41.24165517171223L103.27222222222223,39.466009928385425L103.43333333333334,29.62820719401042L103.59444444444445,25.71783487955729L103.91666666666667,36.93368723551431L104.07777777777777,34.41582305908203L104.39999999999999,22.99022715250651L104.56111111111112,19.58618357340494L104.72222222222221,23.906609191894532L104.88333333333334,32.029117635091154L105.04444444444445,33.371061706542974L105.20555555555555,42.12666666666667L105.52777777777777,30.817218729654943L105.6888888888889,39.04809814453125L106.01111111111112,32.79873260498047L106.17222222222222,31.49014180501302L106.33333333333333,33.657479756673176L106.49444444444444,32.92233164469402L106.65555555555555,39.12983357747395L106.81666666666668,39.78686767578125L106.97777777777777,45.74739786783855L107.1388888888889,34.74675740559897L107.3,25.013541259765635L107.46111111111112,31.454407450358065L107.62222222222222,34.166551717122395L107.78333333333333,30.446086629231765L107.94444444444444,29.282099100748702L108.10555555555555,25.790589192708335L108.26666666666667,31.83461120605469L108.5888888888889,29.596275329589844L108.75,28.8144199625651L109.23333333333333,29.458996378580725L109.39444444444445,30.664304300944018L110.03888888888888,33.138955891927075L110.52222222222223,21.76757263183593L110.68333333333332,35.929078369140626L111.00555555555556,23.49034515380859L111.16666666666667,26.25915557861327L111.48888888888888,36.01837351481119L111.65,28.069430643717443L111.8111111111111,27.41532989501952L112.29444444444445,30.512811279296866L112.45555555555555,31.19859039306641L112.77777777777779,31.647121276855472L113.42222222222223,29.04991180419921L113.58333333333333,27.176886596679697L113.90555555555555,24.914703674316396L114.06666666666666,25.521807454427087L114.22777777777777,28.537761637369787L114.38888888888889,27.11218088785808L114.55000000000001,35.92139190673828L114.71111111111111,39.14254475911458L114.87222222222223,35.216075236002595L115.19444444444444,35.07631561279297L115.35555555555555,31.032403462727867L115.51666666666667,31.40574462890625L115.67777777777778,27.823300882975268L115.83888888888889,27.88666666666666L116,30.336819356282557L116.16111111111111,27.595540771484384L116.64444444444445,31.205452982584635L116.80555555555556,24.17417775472006L116.96666666666667,28.19128234863281L117.93333333333334,21.604309997558584L118.25555555555556,36.545787963867184L118.41666666666667,28.180734965006515L118.57777777777778,24.400099995930997L118.7388888888889,34.03984731038411L118.89999999999999,33.57912129720053L119.06111111111112,23.263146362304678L119.22222222222221,24.97597808837891L119.38333333333334,30.68049204508464L119.54444444444444,25.62853973388673L119.70555555555556,23.843207194010425L119.86666666666666,29.596546936035153L120.02777777777777,29.065239461263012L120.1888888888889,20.845595499674477L120.35,24.554662170410154L120.51111111111112,28.22653686523438L120.67222222222222,28.970032348632813L120.83333333333334,25.81279754638672L121.15555555555557,31.134518432617185L121.31666666666666,20.760962931315113L121.47777777777777,29.15035186767578L121.8,25.925966898600254L122.12222222222222,27.42009206136067L122.44444444444444,35.29783782958984L122.60555555555555,33.0061312866211L123.08888888888889,43.64955495198567L123.25,36.956194356282545L123.41111111111111,38.411887207031256L123.73333333333333,38.28945607503256L123.89444444444445,25.462090250651034L124.05555555555554,33.11058207194011L124.37777777777778,29.99904052734375L124.53888888888889,41.355331522623686L124.7,35.065487569173186L124.86111111111111,40.76773813883464L125.18333333333332,43.05723561604819L125.34444444444445,34.71774078369141L125.50555555555555,43.39292307535808L125.66666666666667,38.24485829671223L125.82777777777777,32.505461018880204L125.9888888888889,35.46155314127605L126.15,24.15460398356119L126.3111111111111,25.943367818196617L126.47222222222223,31.93669901529947L126.63333333333333,43.61689880371094L126.79444444444445,35.59488474527995L126.95555555555555,30.01457641601563L127.11666666666667,29.342278035481762L127.6,32.36762074788411L127.7611111111111,48.5141259765625L127.92222222222223,35.34108662923178L128.24444444444444,38.83462453206381L128.40555555555557,42.78322092692056L128.56666666666666,31.476063537597653L128.7277777777778,37.47971577962239L129.05,35.617744954427074L129.2111111111111,31.489046325683585L129.37222222222223,26.737753295898447L129.53333333333333,34.06135854085286L129.69444444444446,33.14984731038411L130.01666666666665,33.052313435872406L130.33888888888887,31.066725463867186L130.6611111111111,40.94245351155599L130.82222222222222,50.02900187174478L130.98333333333332,54.317549947102876L131.46666666666667,35.166606648763015L132.11111111111111,33.39237375895183L132.27222222222224,31.13479003906249L132.43333333333334,37.145141906738274L132.59444444444443,33.229464213053376L132.75555555555556,36.106075236002596L133.07777777777778,23.371680297851572L133.23888888888888,29.97347330729166L133.72222222222223,44.53036560058594L133.88333333333333,45.19693308512369L134.20555555555555,24.356335144042973L134.52777777777777,16.02917124430339L134.6888888888889,19.95083333333333L135.17222222222222,22.48349100748698L135.33333333333334,32.172154642740885L135.49444444444444,28.559662170410146L135.65555555555557,26.120147399902354L135.81666666666666,32.849323832194L135.9777777777778,25.213896280924477L136.13888888888889,22.70663380940756L136.29999999999998,23.010896402994796L136.4611111111111,29.17312154134114L136.6222222222222,22.03729593912761L136.78333333333333,31.050257059733077L136.94444444444443,28.681405232747387L137.10555555555555,30.853333333333335L137.26666666666665,31.192379659016932L137.42777777777778,28.58859731038411L137.5888888888889,21.961970418294264L138.07222222222222,33.722067769368486L138.23333333333335,20.567959391276037L138.55555555555557,27.010400899251305L138.87777777777777,29.34616200764973L139.0388888888889,27.144999999999996L139.2,29.223024698893234L139.36111111111111,43.943749999999994L139.5222222222222,34.53457845052083L139.68333333333334,25.823245340983068L139.84444444444443,28.449498596191404L140.00555555555556,32.30253479003906L140.16666666666666,34.202874552408844L140.48888888888888,35.53035105387369L140.65,40.40197479248047L140.8111111111111,53.61368184407553L140.97222222222223,58.47010467529297L141.13333333333335,46.627257893880206L141.45555555555555,28.307828674316415L141.61666666666667,32.97310394287109L141.77777777777777,39.07524068196614L141.9388888888889,28.29870269775391L142.1,24.946970520019534L142.26111111111112,30.986963704427076L142.42222222222222,33.22155141194661L142.58333333333331,38.88093343098958L142.74444444444444,34.83601633707681L142.90555555555554,31.948921305338533L143.06666666666666,33.489201456705736L143.2277777777778,39.409198913574215L143.38888888888889,41.40791453043619L143.87222222222223,34.48238474527995L144.19444444444446,36.54788838704428L144.51666666666668,31.436255086263028L145,30.81558003743489L145.1611111111111,25.63853485107421L145.3222222222222,24.144310099283846L145.48333333333335,29.23286590576171L145.64444444444445,33.36440734863281L145.80555555555554,29.101707153320323L145.96666666666667,24.437572631835934L146.1277777777778,31.464728495279946L146.2888888888889,26.33056996663411L146.45,28.404484354654944L146.61111111111111,24.341206665039067L146.7722222222222,38.144961446126295L146.93333333333334,33.57538218180338L147.41666666666666,19.032540995279952L147.57777777777775,27.126123352050783L147.7388888888889,28.477347310384115L148.0611111111111,25.898724772135413L148.2222222222222,35.97019958496094L148.54444444444445,24.335303751627613L148.70555555555555,19.024474283854165L148.86666666666665,26.868749084472654L149.02777777777777,23.49869252522786L149.1888888888889,30.48840291341146L149.35,29.97188893636068L149.83333333333334,34.85833333333333L149.99444444444444,29.321889444986986L150.15555555555557,24.73825907389322L150.8,29.61415608723959L150.9611111111111,29.947851765950528L151.28333333333333,25.882002868652354L151.44444444444446,23.722134094238285L151.60555555555555,31.142259216308585L151.76666666666665,30.902322082519532L152.0888888888889,27.631202697753906L152.4111111111111,31.508140258789073L152.57222222222222,25.385415751139327L152.73333333333332,24.027274881998697L153.05555555555557,20.090267028808597L153.21666666666667,21.266757507324215L153.37777777777777,18.76930908203126L153.5388888888889,20.394430033365882L153.70000000000002,22.884536031087247L153.86111111111111,22.294362386067714L154.0222222222222,20.525054626464854L154.1833333333333,25.858545125325513L154.66666666666666,20.97490732828776L154.82777777777778,17.571144409179677L155.15,27.219166666666673L155.3111111111111,31.930705566406246L155.47222222222223,31.395070495605466L155.63333333333333,25.28742919921875L155.79444444444445,30.20865732828776L155.95555555555555,31.53695770263671L156.27777777777777,33.326427714029954L156.43888888888887,42.40698262532552L156.60000000000002,30.91579376220703L156.76111111111112,29.413629048665367L156.92222222222222,29.781592407226572L157.08333333333331,30.029831644694003L157.24444444444447,39.70142028808594L157.40555555555557,40.59227132161458L157.88888888888889,42.635240681966145L158.05,29.11009073893229L158.3722222222222,28.556131286621095L158.53333333333333,33.98990793863933L158.69444444444446,33.83887664794922L158.85555555555555,31.079735412597657L159.17777777777778,33.32129435221355L159.5,35.46207824707031L159.66111111111113,28.365074259440096L159.82222222222222,33.73861765543619L159.98333333333332,24.574788208007817L160.14444444444442,26.827917582194008L160.30555555555557,35.57717600504558L160.46666666666667,29.878574015299485L160.62777777777777,40.62886576334636L160.95000000000002,33.4124092610677L161.11111111111111,28.361860249837246L161.2722222222222,28.383787943522144L161.59444444444443,38.561415608723955L161.91666666666666,33.44852386474609L162.07777777777778,28.28312154134114L162.23888888888888,27.05011881510416L162.4,38.97518992106119L162.56111111111113,25.698378804524747L162.72222222222223,27.672849019368496L163.04444444444442,21.082925211588535L163.20555555555558,26.061462300618498L163.36666666666667,28.14624999999999L163.68888888888887,23.326086629231778L163.85,29.963333333333335L164.17222222222222,25.489839375813794L164.65555555555557,28.48262552897136L164.9777777777778,29.367274881998704L165.13888888888889,22.42400919596354L165.29999999999998,21.57953043619792L165.78333333333333,23.694149576822912L165.94444444444443,26.743547566731774L166.26666666666668,25.573240661621103L166.42777777777778,29.51971852620442L166.75,27.99856852213542L166.91111111111113,25.538520304361988L167.07222222222222,34.38065002441407L167.39444444444445,25.56232208251953L167.55555555555554,18.829433695475267L168.0388888888889,22.09159006754557L168.2,23.302067565917966L168.52222222222224,21.339231160481766L168.68333333333334,35.9419253540039L168.84444444444443,26.65536600748698L169.00555555555553,23.371680297851572L169.32777777777778,23.221165059407546L169.48888888888888,24.09157318115234L169.64999999999998,23.95583333333334L169.81111111111113,20.29927724202474L170.13333333333333,34.40310282389322L170.45555555555555,28.659559020996102L170.77777777777777,29.44556996663412L170.9388888888889,18.481759338378907L171.1,23.463881632486977L171.2611111111111,26.849691365559902L171.42222222222222,27.726083882649743L172.0666666666667,17.982564798990882L172.2277777777778,24.694095865885423L172.38888888888889,20.467202453613282L172.54999999999998,24.321071573893224L172.7111111111111,25.113972269694006L173.03333333333333,23.88574981689453L173.19444444444443,23.26997273763021L173.35555555555555,16.44339823404947L173.51666666666668,17.89793223063152L173.67777777777778,21.99114095052084L173.8388888888889,23.685304260253897L174,32.91193817138672L174.1611111111111,38.98005167643228L174.32222222222222,22.62430084228515L174.48333333333335,47.247815246582036L174.80555555555554,43.29886576334636L174.96666666666667,30.225868123372404L175.1277777777778,24.579378356933585L175.2888888888889,42.927670288085935L175.45,133.24460393269857L175.6111111111111,135.69716939290365L175.77222222222224,143.75097498575846L176.09444444444443,137.11565668741864L176.25555555555556,127.36864067077636L176.41666666666666,110.02421295166016L176.57777777777778,103.07097025553385L176.73888888888888,108.92186197916666L176.9,97.37723907470703L177.22222222222223,98.15842900594076L177.38333333333335,125.61242207845054L178.0277777777778,112.52825688680014L178.1888888888889,113.90705795288086L178.5111111111111,113.62928604125977L178.67222222222225,103.47006876627606L178.83333333333334,103.40427210489908L178.99444444444444,97.23686381022135L179.15555555555554,114.28893208821616L179.31666666666666,106.30936106363932L179.4777777777778,98.7072369893392L179.8,114.55067016601564L179.9611111111111,99.08925598144532L180.1222222222222,91.0227256266276L180.28333333333333,86.96805786132812L180.60555555555555,94.74526850382489L180.76666666666665,103.70189844767252L180.9277777777778,92.2112346903483L181.0888888888889,101.91971201578778L181.25,87.52548029581705L181.4111111111111,79.04217437744141L182.21666666666667,53.07108459472656L182.3777777777778,47.067124532063794L182.5388888888889,41.480270487467436L182.7,48.94304687499999L182.86111111111111,45.459947713216145L183.0222222222222,34.33405141194661L183.34444444444446,47.423635152180985L183.66666666666666,33.30213704427083L184.15,34.079583333333325L184.3111111111111,33.73599212646485L184.4722222222222,30.300089111328116L184.63333333333335,28.028191731770825L185.11666666666665,26.134135131835933L185.27777777777777,27.601633809407556L185.6,24.383821716308585L185.76111111111112,28.65104868570963L185.92222222222222,22.252770385742178L186.08333333333334,25.04997273763021L186.40555555555557,22.73242736816407L186.56666666666666,24.91717529296875L186.72777777777776,25.7183056640625L186.8888888888889,22.03729593912761L187.05,20.588094482421884L187.2111111111111,21.488741455078127L187.3722222222222,21.031021219889315L187.53333333333333,20.912093811035167L187.69444444444446,25.219337463378906L188.01666666666665,25.1057607014974L188.17777777777778,19.588727620442704L188.5,19.54326975504558L188.82222222222222,23.436666666666675L188.98333333333332,22.428001810709635L189.30555555555557,26.649626057942704L189.62777777777777,29.148903299967447L189.7888888888889,20.704505004882822L189.95000000000002,19.66475931803385L190.11111111111111,22.424190266927077L190.59444444444446,26.098500366210942L190.75555555555556,19.60936971028645L190.91666666666666,29.091712036132822L191.07777777777778,31.70095367431641L191.4,22.85520253499349L191.5611111111111,25.73783416748047L191.72222222222223,22.998864237467448L191.88333333333333,19.759115397135425L192.04444444444445,20.28743520100911L192.52777777777777,26.263555603027342L192.85000000000002,18.09666666666667L193.01111111111112,21.26764475504557L193.33333333333331,27.788689168294262L193.49444444444447,28.97349080403645L193.81666666666666,31.941995340983077L193.97777777777776,25.989070129394534L194.13888888888889,28.644512023925785L194.3,25.823607482910166L194.6222222222222,25.73923746744791L194.78333333333333,24.21541666666666L194.94444444444446,20.71581288655599L195.26666666666668,26.748545125325514L195.42777777777778,26.608939412434903L195.58888888888887,21.269355875651033L195.75,20.046601765950523L196.07222222222222,23.02024871826171L196.23333333333332,31.401226908365892L196.55555555555557,27.496603597005215L197.0388888888889,22.881792805989587L197.36111111111111,21.60140380859374L197.5222222222222,21.713178914388017L197.68333333333334,20.48129882812501L197.84444444444443,18.114121907552086L198.16666666666666,25.084177042643223L198.48888888888888,31.464565531412767L198.65,28.975301513671884L198.81111111111113,24.49657460530599L198.97222222222223,18.005144348144523L199.13333333333333,26.85642720540364L199.29444444444442,30.819201456705734L199.45555555555558,22.378741455078128L199.61666666666667,32.59826894124348L199.77777777777777,20.86280629475912L200.26111111111112,23.35071228027344L200.42222222222222,22.87971954345703L200.58333333333334,24.976638997395835L201.2277777777778,25.28172546386719L201.38888888888889,25.72017974853516L201.54999999999998,25.679692281087235L201.7111111111111,21.570259602864574L201.87222222222223,21.069209086100265L202.19444444444443,26.79713551839192L202.35555555555558,27.910939229329422L202.51666666666668,23.537477925618482L202.67777777777778,19.88530375162761L202.83888888888887,24.312805684407543L203.64444444444445,19.29474080403646L203.80555555555554,19.78650238037109L203.96666666666667,20.691802876790373L204.1277777777778,27.90554331461589L204.2888888888889,22.743517964680983L204.45,34.538100280761725L204.77222222222224,28.364033101399734L204.93333333333334,22.681003214518235L205.09444444444443,24.36825866699219L205.25555555555553,24.55591156005859L205.41666666666669,21.488741455078127L205.57777777777778,29.748103332519534L205.73888888888888,25.451307474772143L205.89999999999998,26.95163431803386L206.06111111111113,25.17748291015624L206.38333333333333,24.018366190592452L206.54444444444445,24.88672821044922L206.70555555555555,25.597703348795566L206.86666666666667,23.820428466796866L207.02777777777777,24.103460489908862L207.1888888888889,23.73882883707683L207.35,20.355445454915365L207.67222222222222,19.61780761718749L207.99444444444444,19.97462605794271L208.15555555555554,25.298601277669274L208.3166666666667,20.795194396972665L208.4777777777778,17.130299987792966L208.63888888888889,16.153195800781248L208.9611111111111,24.882916666666663L209.28333333333333,21.67970794677734L209.44444444444443,19.047660420735678L209.76666666666668,20.136250000000004L210.0888888888889,24.010217997233077L210.25,21.910129801432298L210.4111111111111,23.70096689860026L210.73333333333335,27.820123087565097L211.21666666666667,18.643003031412768L211.3777777777778,27.00498687744141L211.8611111111111,28.043727620442702L212.02222222222224,25.869880167643238L212.18333333333334,22.541071573893223L212.66666666666666,29.661506144205738L212.82777777777778,23.68838246663412L213.15,25.852759908040365L213.3111111111111,29.74632883707682L213.47222222222223,22.636224365234366L213.63333333333335,20.19028157552084L213.79444444444445,38.85850779215494L213.95555555555555,22.910619303385424L214.11666666666665,23.922117919921874L214.2777777777778,26.278131815592452L214.4388888888889,25.691878356933604L214.6,32.42179718017579L214.92222222222225,22.175109049479165L215.08333333333334,27.54762034098308L215.24444444444444,23.365243225097657L215.7277777777778,25.481953735351567L215.88888888888889,26.263238728841138L216.2111111111111,26.91975677490234L216.3722222222222,20.05965698242187L216.53333333333333,22.946027730305996L216.69444444444446,18.726322835286464L217.01666666666665,29.198245137532545L217.1777777777778,26.588052876790368L217.5,28.759872334798185L217.6611111111111,18.058098551432284L217.8222222222222,24.83258799235026L217.98333333333335,28.40513621012369L218.14444444444445,31.24536102294923L218.30555555555554,31.122341410319017L218.46666666666667,27.193545125325524L218.6277777777778,26.394433695475264L218.7888888888889,30.39672668457031L218.95,25.920190734863283L219.11111111111111,32.25455098470053L219.2722222222222,28.265449015299488L219.43333333333334,28.828262837727856L219.59444444444446,25.024378356933596L219.91666666666666,23.51559549967448L220.07777777777775,31.40728373209635L220.2388888888889,24.597657470703126L220.4,26.897774759928385L220.7222222222222,25.63895131429036L220.88333333333335,24.976367390950525L221.52777777777777,31.97436177571614L222.01111111111112,26.925904134114585L222.33333333333334,30.957566833496085L222.49444444444444,32.325467427571624L222.65555555555557,26.914261271158853L222.81666666666666,30.66692982991537L222.97777777777776,27.472403462727865L223.3,26.795261433919276L223.4611111111111,32.85777079264323L223.6222222222222,29.42877563476563L223.78333333333333,35.54360544840495L223.94444444444446,29.05920979817709L224.26666666666665,42.009866841634114L224.42777777777778,29.469788208007813L224.5888888888889,23.56003031412761L224.75,28.63362965901693L224.9111111111111,23.51153045654297L225.07222222222222,25.203059183756515L225.23333333333332,25.323797302246092L225.39444444444445,29.804008992513012L225.55555555555557,29.171337992350267L225.71666666666667,27.179023234049488L225.87777777777777,24.443620402018233L226.20000000000002,25.12059946695964L226.36111111111111,25.30509267171224L226.6833333333333,26.168692525227865L226.84444444444446,30.294430643717455L227.00555555555556,22.166825052897128L227.32777777777778,24.402951863606766L227.4888888888889,32.21065032958984L227.65,26.327763366699216L227.8111111111111,23.112785034179698L227.97222222222223,20.06895497639973L228.13333333333333,28.256042378743498L228.77777777777777,29.63778584798177L229.10000000000002,21.78552581787109L229.58333333333331,24.38654683430989L229.74444444444447,25.934060770670577L229.90555555555557,36.530224914550786L230.06666666666666,25.932159525553377L230.22777777777776,21.40198130289713L230.38888888888889,20.534370727539052L230.7111111111111,21.060481465657556L230.8722222222222,21.100416666666664L231.03333333333333,25.438496704101567L231.19444444444446,30.805304260253905L231.35555555555555,20.327261759440113L231.51666666666668,33.895470377604155L231.67777777777778,22.868284912109374L231.83888888888887,19.724177754720056L232,28.205107116699228L232.16111111111113,29.110063578287754L232.48333333333332,25.70741424560546L232.64444444444442,21.49536865234376L232.80555555555557,24.11709513346354L233.12777777777777,19.505109049479163L233.2888888888889,21.068874104817702L233.45000000000002,23.177445475260416L233.61111111111111,25.251414184570308L233.7722222222222,21.601729736328124L233.93333333333334,18.61048268636068L234.25555555555556,26.897774759928385L234.41666666666666,23.69452077229817L234.57777777777778,22.537939046223965L234.73888888888888,22.047598876953135L234.9,24.298410542805993L235.06111111111113,25.76009684244791L235.22222222222223,25.129571533203116L235.54444444444442,26.975662434895835L235.70555555555558,24.80355326334635L235.86666666666667,20.41550669352214L236.02777777777777,29.006518147786462L236.18888888888887,26.641197204589844L236.35,23.873111063639318L236.51111111111112,25.0696913655599L236.67222222222222,22.916793823242188L236.83333333333334,22.193487752278653L237.15555555555557,24.74853485107423L237.31666666666666,26.859324340820308L237.63888888888889,26.218260701497396L238.28333333333333,24.01129536946615L238.44444444444443,23.219870402018238L238.76666666666668,23.58361480712891L238.92777777777778,30.036866251627604L239.08888888888887,26.38317108154297L239.41111111111113,22.296698201497403L239.73333333333332,25.698405965169265L239.89444444444445,22.06764343261719L240.05555555555554,37.19825907389323L240.3777777777778,32.847884318033856L240.5388888888889,29.20460072835287L240.7,33.08093170166016L240.86111111111111,29.59450083414713L241.18333333333334,28.534936930338535L241.34444444444443,19.458908793131503L241.50555555555553,23.611970520019522L241.66666666666669,21.40362904866536L241.82777777777778,19.577274881998694L242.14999999999998,30.12445027669271L242.31111111111113,20.994635009765634L242.47222222222223,22.26663136800131L242.79444444444445,30.824706013997396L242.95555555555555,30.99264027913412L243.4388888888889,27.36682098388673L243.6,23.123522542317712L243.7611111111111,27.23770833333334L243.92222222222222,30.64297414143881L244.24444444444444,28.91074066162109L244.40555555555554,24.561307474772143L244.5666666666667,37.24896799723307L244.7277777777778,51.52188669840495L244.88888888888889,44.54905212402343L245.04999999999998,32.66349975585938L245.2111111111111,38.010724487304685L245.37222222222223,38.67167877197265L245.69444444444443,29.419015909830723L245.85555555555555,33.58009002685547L246.01666666666668,34.51222524007161L246.17777777777778,26.244008992513027L246.3388888888889,34.26886586507161L246.5,35.02002970377603L246.6611111111111,21.961725972493493L246.98333333333335,32.07241170247395L247.14444444444445,33.809117635091155L247.30555555555554,30.56745849609375L247.46666666666667,24.0803739420573L247.6277777777778,25.127670288085938L247.7888888888889,25.180624491373695L248.27222222222224,24.450519205729172L248.59444444444443,25.141151021321615L248.75555555555556,27.68800465901692L248.91666666666666,25.386601765950527L249.07777777777778,23.596199239095053L249.23888888888888,21.58754282633463L249.4,22.79978576660156L249.5611111111111,21.925077209472665L249.72222222222223,34.94327372233074L249.88333333333335,35.667657165527345L250.04444444444445,34.466305643717455L250.5277777777778,21.98598948160808L250.6888888888889,26.61959543863933L251.17222222222225,17.466250000000002L251.33333333333334,22.789138793945312L251.49444444444444,25.467486165364587L251.65555555555554,24.62607655843099L251.81666666666666,29.454759318033858L251.9777777777778,23.606972961425782L252.3,19.868192545572914L252.4611111111111,20.806991170247397L252.6222222222222,19.257901916503915L252.78333333333333,21.250850423177077L252.94444444444446,18.036759338378896L253.10555555555555,18.923092651367185L253.26666666666665,25.634696146647133L253.5888888888889,23.241798095703135L253.75,27.06172546386719L253.9111111111111,32.47733164469401L254.23333333333335,29.457095133463547L254.39444444444445,24.963547566731773L254.55555555555554,25.091899719238285L254.8777777777778,24.549845682779953L255.0388888888889,30.38076527913412" style="fill: none;" fill="none"></path></g></g></g></g></g></g><g transform="translate(40, 178)" clip-path="url(#clip_1)"><clipPath id="clip_1"><rect width="290" height="22"></rect></clipPath><g><g><line x1="0" y1="0" x2="0" y2="5" style="visibility: inherit;" fill="rgb(0, 0, 0)" stroke="rgb(204, 204, 204)" stroke-width="1px"></line><line x1="32.22222222222222" y1="0" x2="32.22222222222222" y2="5" style="visibility: inherit;" fill="rgb(0, 0, 0)" stroke="rgb(204, 204, 204)" stroke-width="1px"></line><line x1="64.44444444444444" y1="0" x2="64.44444444444444" y2="5" style="visibility: inherit;" fill="rgb(0, 0, 0)" stroke="rgb(204, 204, 204)" stroke-width="1px"></line><line x1="96.66666666666666" y1="0" x2="96.66666666666666" y2="5" style="visibility: inherit;" fill="rgb(0, 0, 0)" stroke="rgb(204, 204, 204)" stroke-width="1px"></line><line x1="128.88888888888889" y1="0" x2="128.88888888888889" y2="5" style="visibility: inherit;" fill="rgb(0, 0, 0)" stroke="rgb(204, 204, 204)" stroke-width="1px"></line><line x1="161.11111111111111" y1="0" x2="161.11111111111111" y2="5" style="visibility: inherit;" fill="rgb(0, 0, 0)" stroke="rgb(204, 204, 204)" stroke-width="1px"></line><line x1="193.33333333333331" y1="0" x2="193.33333333333331" y2="5" style="visibility: inherit;" fill="rgb(0, 0, 0)" stroke="rgb(204, 204, 204)" stroke-width="1px"></line><line x1="225.55555555555557" y1="0" x2="225.55555555555557" y2="5" style="visibility: inherit;" fill="rgb(0, 0, 0)" stroke="rgb(204, 204, 204)" stroke-width="1px"></line><line x1="257.77777777777777" y1="0" x2="257.77777777777777" y2="5" style="visibility: inherit;" fill="rgb(0, 0, 0)" stroke="rgb(204, 204, 204)" stroke-width="1px"></line><line x1="290" y1="0" x2="290" y2="5" style="visibility: inherit;" fill="rgb(0, 0, 0)" stroke="rgb(204, 204, 204)" stroke-width="1px"></line></g><g transform="translate(0, 8)"><text x="0" y="0" dx="0em" dy="0.95em" style="text-anchor: middle; visibility: hidden; font-family: Roboto, sans-serif; font-size: 12px; font-weight: 200;" fill="rgb(50, 49, 63)" stroke="none" stroke-width="1px">-10M</text><text x="32.22222222222222" y="0" dx="0em" dy="0.95em" style="text-anchor: middle; visibility: inherit; font-family: Roboto, sans-serif; font-size: 12px; font-weight: 200;" fill="rgb(50, 49, 63)" stroke="none" stroke-width="1px">0</text><text x="64.44444444444444" y="0" dx="0em" dy="0.95em" style="text-anchor: middle; visibility: inherit; font-family: Roboto, sans-serif; font-size: 12px; font-weight: 200;" fill="rgb(50, 49, 63)" stroke="none" stroke-width="1px">10M</text><text x="96.66666666666666" y="0" dx="0em" dy="0.95em" style="text-anchor: middle; visibility: inherit; font-family: Roboto, sans-serif; font-size: 12px; font-weight: 200;" fill="rgb(50, 49, 63)" stroke="none" stroke-width="1px">20M</text><text x="128.88888888888889" y="0" dx="0em" dy="0.95em" style="text-anchor: middle; visibility: inherit; font-family: Roboto, sans-serif; font-size: 12px; font-weight: 200;" fill="rgb(50, 49, 63)" stroke="none" stroke-width="1px">30M</text><text x="161.11111111111111" y="0" dx="0em" dy="0.95em" style="text-anchor: middle; visibility: inherit; font-family: Roboto, sans-serif; font-size: 12px; font-weight: 200;" fill="rgb(50, 49, 63)" stroke="none" stroke-width="1px">40M</text><text x="193.33333333333331" y="0" dx="0em" dy="0.95em" style="text-anchor: middle; visibility: inherit; font-family: Roboto, sans-serif; font-size: 12px; font-weight: 200;" fill="rgb(50, 49, 63)" stroke="none" stroke-width="1px">50M</text><text x="225.55555555555557" y="0" dx="0em" dy="0.95em" style="text-anchor: middle; visibility: inherit; font-family: Roboto, sans-serif; font-size: 12px; font-weight: 200;" fill="rgb(50, 49, 63)" stroke="none" stroke-width="1px">60M</text><text x="257.77777777777777" y="0" dx="0em" dy="0.95em" style="text-anchor: middle; visibility: inherit; font-family: Roboto, sans-serif; font-size: 12px; font-weight: 200;" fill="rgb(50, 49, 63)" stroke="none" stroke-width="1px">70M</text><text x="290" y="0" dx="0em" dy="0.95em" style="text-anchor: middle; visibility: hidden; font-family: Roboto, sans-serif; font-size: 12px; font-weight: 200;" fill="rgb(50, 49, 63)" stroke="none" stroke-width="1px">80M</text></g><line x1="0" y1="0" x2="290" y2="0" fill="rgb(0, 0, 0)" stroke="rgb(204, 204, 204)" stroke-width="1px"></line></g></g></g></g></svg>