<svg viewBox="0 0 330 200" xmlns="http://www.w3.org/2000/svg"><g><g><g><g><g><line x1="70" y1="178" x2="65" y2="178" style="visibility: inherit;" fill="rgb(0, 0, 0)" stroke="rgb(204, 204, 204)" stroke-width="1px"></line><line x1="70" y1="161.8181818181818" x2="65" y2="161.8181818181818" style="visibility: inherit;" fill="rgb(0, 0, 0)" stroke="rgb(204, 204, 204)" stroke-width="1px"></line><line x1="70" y1="145.63636363636363" x2="65" y2="145.63636363636363" style="visibility: inherit;" fill="rgb(0, 0, 0)" stroke="rgb(204, 204, 204)" stroke-width="1px"></line><line x1="70" y1="129.45454545454547" x2="65" y2="129.45454545454547" style="visibility: inherit;" fill="rgb(0, 0, 0)" stroke="rgb(204, 204, 204)" stroke-width="1px"></line><line x1="70" y1="113.27272727272727" x2="65" y2="113.27272727272727" style="visibility: inherit;" fill="rgb(0, 0, 0)" stroke="rgb(204, 204, 204)" stroke-width="1px"></line><line x1="70" y1="97.09090909090908" x2="65" y2="97.09090909090908" style="visibility: inherit;" fill="rgb(0, 0, 0)" stroke="rgb(204, 204, 204)" stroke-width="1px"></line><line x1="70" y1="80.90909090909092" x2="65" y2="80.90909090909092" style="visibility: inherit;" fill="rgb(0, 0, 0)" stroke="rgb(204, 204, 204)" stroke-width="1px"></line><line x1="70" y1="64.72727272727273" x2="65" y2="64.72727272727273" style="visibility: inherit;" fill="rgb(0, 0, 0)" stroke="rgb(204, 204, 204)" stroke-width="1px"></line><line x1="70" y1="48.54545454545454" x2="65" y2="48.54545454545454" style="visibility: inherit;" fill="rgb(0, 0, 0)" stroke="rgb(204, 204, 204)" stroke-width="1px"></line><line x1="70" y1="32.36363636363635" x2="65" y2="32.36363636363635" style="visibility: inherit;" fill="rgb(0, 0, 0)" stroke="rgb(204, 204, 204)" stroke-width="1px"></line><line x1="70" y1="16.181818181818187" x2="65" y2="16.181818181818187" style="visibility: inherit;" fill="rgb(0, 0, 0)" stroke="rgb(204, 204, 204)" stroke-width="1px"></line><line x1="70" y1="0" x2="65" y2="0" style="visibility: inherit;" fill="rgb(0, 0, 0)" stroke="rgb(204, 204, 204)" stroke-width="1px"></line></g><g transform="translate(60, 0)"><text x="0" y="178" dx="0em" dy="0.3em" style="text-anchor: end; visibility: hidden; font-family: Roboto, sans-serif; font-size: 12px; font-weight: 200;" fill="rgb(50, 49, 63)" stroke="none" stroke-width="1px">-200</text><text x="0" y="161.8181818181818" dx="0em" dy="0.3em" style="text-anchor: end; visibility: inherit; font-family: Roboto, sans-serif; font-size: 12px; font-weight: 200;" fill="rgb(50, 49, 63)" stroke="none" stroke-width="1px">0</text><text x="0" y="145.63636363636363" dx="0em" dy="0.3em" style="text-anchor: end; visibility: hidden; font-family: Roboto, sans-serif; font-size: 12px; font-weight: 200;" fill="rgb(50, 49, 63)" stroke="none" stroke-width="1px">200</text><text x="0" y="129.45454545454547" dx="0em" dy="0.3em" style="text-anchor: end; visibility: inherit; font-family: Roboto, sans-serif; font-size: 12px; font-weight: 200;" fill="rgb(50, 49, 63)" stroke="none" stroke-width="1px">400</text><text x="0" y="113.27272727272727" dx="0em" dy="0.3em" style="text-anchor: end; visibility: hidden; font-family: Roboto, sans-serif; font-size: 12px; font-weight: 200;" fill="rgb(50, 49, 63)" stroke="none" stroke-width="1px">600</text><text x="0" y="97.09090909090908" dx="0em" dy="0.3em" style="text-anchor: end; visibility: inherit; font-family: Roboto, sans-serif; font-size: 12px; font-weight: 200;" fill="rgb(50, 49, 63)" stroke="none" stroke-width="1px">800</text><text x="0" y="80.90909090909092" dx="0em" dy="0.3em" style="text-anchor: end; visibility: hidden; font-family: Roboto, sans-serif; font-size: 12px; font-weight: 200;" fill="rgb(50, 49, 63)" stroke="none" stroke-width="1px">1e+3</text><text x="0" y="64.72727272727273" dx="0em" dy="0.3em" style="text-anchor: end; visibility: inherit; font-family: Roboto, sans-serif; font-size: 12px; font-weight: 200;" fill="rgb(50, 49, 63)" stroke="none" stroke-width="1px">1.2e+3</text><text x="0" y="48.54545454545454" dx="0em" dy="0.3em" style="text-anchor: end; visibility: hidden; font-family: Roboto, sans-serif; font-size: 12px; font-weight: 200;" fill="rgb(50, 49, 63)" stroke="none" stroke-width="1px">1.4e+3</text><text x="0" y="32.36363636363635" dx="0em" dy="0.3em" style="text-anchor: end; visibility: inherit; font-family: Roboto, sans-serif; font-size: 12px; font-weight: 200;" fill="rgb(50, 49, 63)" stroke="none" stroke-width="1px">1.6e+3</text><text x="0" y="16.181818181818187" dx="0em" dy="0.3em" style="text-anchor: end; visibility: hidden; font-family: Roboto, sans-serif; font-size: 12px; font-weight: 200;" fill="rgb(50, 49, 63)" stroke="none" stroke-width="1px">1.8e+3</text><text x="0" y="0" dx="0em" dy="0.3em" style="text-anchor: end; visibility: hidden; font-family: Roboto, sans-serif; font-size: 12px; font-weight: 200;" fill="rgb(50, 49, 63)" stroke="none" stroke-width="1px">2e+3</text></g><line x1="70" y1="0" x2="70" y2="178" fill="rgb(0, 0, 0)" stroke="rgb(204, 204, 204)" stroke-width="1px"></line></g></g><g transform="translate(70, 0)" clip-path="url(#clip_0)"><clipPath id="clip_0"><rect width="260" height="178"></rect></clipPath><g><g><g><line x1="0" y1="0" x2="0" y2="178" fill="rgb(0, 0, 0)" stroke="rgb(60, 60, 60)" stroke-width="1px" opacity="0.25"></line><line x1="28.888888888888886" y1="0" x2="28.888888888888886" y2="178" fill="rgb(0, 0, 0)" stroke="rgb(60, 60, 60)" stroke-width="1px" opacity="0.25"></line><line x1="57.77777777777777" y1="0" x2="57.77777777777777" y2="178" fill="rgb(0, 0, 0)" stroke="rgb(60, 60, 60)" stroke-width="1px" opacity="0.25"></line><line x1="86.66666666666666" y1="0" x2="86.66666666666666" y2="178" fill="rgb(0, 0, 0)" stroke="rgb(60, 60, 60)" stroke-width="1px" opacity="0.25"></line><line x1="115.55555555555554" y1="0" x2="115.55555555555554" y2="178" fill="rgb(0, 0, 0)" stroke="rgb(60, 60, 60)" stroke-width="1px" opacity="0.25"></line><line x1="144.44444444444446" y1="0" x2="144.44444444444446" y2="178" fill="rgb(0, 0, 0)" stroke="rgb(60, 60, 60)" stroke-width="1px" opacity="0.25"></line><line x1="173.33333333333331" y1="0" x2="173.33333333333331" y2="178" fill="rgb(0, 0, 0)" stroke="rgb(60, 60, 60)" stroke-width="1px" opacity="0.25"></line><line x1="202.22222222222223" y1="0" x2="202.22222222222223" y2="178" fill="rgb(0, 0, 0)" stroke="rgb(60, 60, 60)" stroke-width="1px" opacity="0.25"></line><line x1="231.1111111111111" y1="0" x2="231.1111111111111" y2="178" fill="rgb(0, 0, 0)" stroke="rgb(60, 60, 60)" stroke-width="1px" opacity="0.25"></line><line x1="260" y1="0" x2="260" y2="178" fill="rgb(0, 0, 0)" stroke="rgb(60, 60, 60)" stroke-width="1px" opacity="0.25"></line></g><g><line x1="0" y1="178" x2="260" y2="178" fill="rgb(0, 0, 0)" stroke="rgb(60, 60, 60)" stroke-width="1px" opacity="0.25"></line><line x1="0" y1="161.8181818181818" x2="260" y2="161.8181818181818" fill="rgb(0, 0, 0)" stroke="rgb(60, 60, 60)" stroke-width="1px" opacity="0.25"></line><line x1="0" y1="145.63636363636363" x2="260" y2="145.63636363636363" fill="rgb(0, 0, 0)" stroke="rgb(60, 60, 60)" stroke-width="1px" opacity="0.25"></line><line x1="0" y1="129.45454545454547" x2="260" y2="129.45454545454547" fill="rgb(0, 0, 0)" stroke="rgb(60, 60, 60)" stroke-width="1px" opacity="0.25"></line><line x1="0" y1="113.27272727272727" x2="260" y2="113.27272727272727" fill="rgb(0, 0, 0)" stroke="rgb(60, 60, 60)" stroke-width="1px" opacity="0.25"></line><line x1="0" y1="97.09090909090908" x2="260" y2="97.09090909090908" fill="rgb(0, 0, 0)" stroke="rgb(60, 60, 60)" stroke-width="1px" opacity="0.25"></line><line x1="0" y1="80.90909090909092" x2="260" y2="80.90909090909092" fill="rgb(0, 0, 0)" stroke="rgb(60, 60, 60)" stroke-width="1px" opacity="0.25"></line><line x1="0" y1="64.72727272727273" x2="260" y2="64.72727272727273" fill="rgb(0, 0, 0)" stroke="rgb(60, 60, 60)" stroke-width="1px" opacity="0.25"></line><line x1="0" y1="48.54545454545454" x2="260" y2="48.54545454545454" fill="rgb(0, 0, 0)" stroke="rgb(60, 60, 60)" stroke-width="1px" opacity="0.25"></line><line x1="0" y1="32.36363636363635" x2="260" y2="32.36363636363635" fill="rgb(0, 0, 0)" stroke="rgb(60, 60, 60)" stroke-width="1px" opacity="0.25"></line><line x1="0" y1="16.181818181818187" x2="260" y2="16.181818181818187" fill="rgb(0, 0, 0)" stroke="rgb(60, 60, 60)" stroke-width="1px" opacity="0.25"></line><line x1="0" y1="0" x2="260" y2="0" fill="rgb(0, 0, 0)" stroke="rgb(60, 60, 60)" stroke-width="1px" opacity="0.25"></line></g></g></g><g><g><line x1="0" y1="161.8181818181818" x2="260" y2="161.8181818181818" fill="rgb(0, 0, 0)" stroke="rgb(153, 153, 153)" stroke-width="1.5px"></line></g></g><g><g><line x1="28.888888888888886" y1="0" x2="28.888888888888886" y2="178" fill="rgb(0, 0, 0)" stroke="rgb(153, 153, 153)" stroke-width="1.5px"></line></g></g><g><g><g><g><g><path stroke="rgb(0, 119, 187)" stroke-width="2px" d="M29.177777777777777,161.83681645210493L29.466666666666665,161.81001218413314L29.755555555555556,161.78168669880404L29.900000000000002,161.7757265987694L30.18888888888889,161.6797491781597L30.477777777777778,161.63746688632932L30.62222222222222,161.52823099380413L30.766666666666666,161.55678287659615L30.91111111111111,161.42790119646796L31.055555555555557,161.28641759926126L31.2,161.07052468292858L31.344444444444445,160.82294873460643L31.48888888888889,160.48488804543342L31.633333333333336,160.2662412116168L31.777777777777775,159.96483700246256L31.92222222222222,159.83465881299597L32.211111111111116,159.94316022399144L32.5,159.71713623373037L32.644444444444446,159.45547871523294L32.93333333333334,159.22324704747842L33.36666666666667,158.91213128498904L33.51111111111111,159.06619938089847L33.65555555555556,159.09359268784985L33.800000000000004,159.50249070648877L33.94444444444445,159.7477571320161L34.23333333333333,159.79602997188843L34.666666666666664,160.08702126901133L34.81111111111111,160.527688346507L35.1,160.17529767889346L35.24444444444445,160.07427429052728L35.388888888888886,160.02982999119436L35.53333333333333,160.42991064780244L35.67777777777778,160.86138613366603L35.82222222222222,160.89716381166167L36.111111111111114,160.46537087312424L36.25555555555556,159.86715229793148L36.68888888888889,159.3713271040236L36.833333333333336,159.07417179557152L36.977777777777774,159.07898480726786L37.12222222222222,159.1199768667188L37.266666666666666,159.10425818932976L37.699999999999996,159.01433280886218L37.84444444444444,159.12646227113726L37.98888888888889,159.04653897921042L38.13333333333333,159.21816955667452L38.27777777777778,158.61810603972586L38.422222222222224,158.2749792890474L38.56666666666667,157.90068762835216L38.71111111111111,157.41617487025073L38.855555555555554,157.04978292587575L39,156.4904848668408L39.28888888888889,155.61396400698996L39.43333333333334,155.0637782646755L39.57777777777778,154.74594472426782L39.72222222222223,154.33751854493974L40.011111111111106,153.43685683786072L40.3,151.08295338508358L40.44444444444444,150.14422026443012L40.733333333333334,147.66034869922055L40.87777777777778,146.3227407808292L41.166666666666664,143.22549865579546L41.31111111111111,141.16810316534446L41.455555555555556,138.09366937774945L41.6,137.7868321503671L41.74444444444445,135.4897189260802L41.88888888888889,132.20811837972155L42.17777777777778,131.99267539802395L42.32222222222222,130.4174519374042L42.46666666666667,128.86720140760036L42.611111111111114,124.19540143511232L42.9,122.47424189686637L43.33333333333333,119.11004206326805L43.477777777777774,114.33000643868303L43.62222222222222,111.51442577127688L43.766666666666666,112.30793407149604L44.05555555555556,110.99164414867415L44.2,109.76823432242834L44.34444444444444,110.0182354251524L44.77777777777778,107.46798656467138L44.922222222222224,101.08588811876146L45.35555555555556,91.05491205476424L45.78888888888889,83.83609821710158L45.93333333333333,81.63333860939419L46.077777777777776,81.83144008994213L46.22222222222222,80.34863020122107L46.36666666666667,83.25851465227957L46.8,82.10998811116286L46.94444444444444,77.20444895614962L47.08888888888889,75.61111130779783L47.233333333333334,74.47114181334493L47.37777777777778,77.51926603051835L47.666666666666664,79.56439028954007L47.81111111111111,84.04811977190073L48.24444444444445,82.99968971327635L48.677777777777784,82.57317152234307L48.822222222222216,77.93362366955222L49.11111111111111,71.62669181746433L49.4,70.21194171173289L49.544444444444444,70.32596380908022L49.68888888888889,70.579509281582L49.833333333333336,68.86907676215108L49.977777777777774,71.0080944002517L50.12222222222222,72.54113171717128L50.41111111111111,68.04020880292158L50.55555555555556,66.42798792418806L50.7,65.66630242267642L50.84444444444445,72.68998717658147L51.13333333333333,72.30035852303861L51.27777777777778,65.94057171757399L51.422222222222224,61.14608664003699L51.71111111111111,65.61203279977703L51.855555555555554,67.7197311104709L52,63.2325075452035L52.288888888888884,64.50502391420332L52.43333333333333,63.76364482508814L52.72222222222222,61.082631350310415L52.86666666666667,64.21639141423546L53.15555555555556,63.859769415391874L53.3,68.50784568958512L53.44444444444444,68.12179471535366L53.733333333333334,61.38831318464771L53.87777777777778,59.78705875851705L54.31111111111112,56.83660727121518L54.455555555555556,54.21530109432563L54.6,58.602269743274306L54.74444444444444,64.66334589791556L55.03333333333333,62.521805894625395L55.17777777777778,59.35401191171254L55.46666666666667,58.749093191740506L55.75555555555555,56.102354157571256L55.9,51.64896233491133L56.044444444444444,54.2841600670473L56.18888888888889,54.917221801545665L56.47777777777778,51.33572610185593L56.62222222222222,48.73792686040951L57.05555555555556,52.89502788332977L57.63333333333334,59.3392026179788L57.77777777777777,63.800743776141395L58.21111111111111,62.81589157468291L58.355555555555554,62.19629439795936L58.644444444444446,57.8012978337453L58.78888888888889,51.46246793098842L58.93333333333333,46.344538464340076L59.077777777777776,58.41680553144206L59.22222222222222,52.640503151907104L59.65555555555556,50.28378700963609L59.800000000000004,47.362308155475L59.94444444444445,46.9407399264591L60.08888888888889,48.24184074403564L60.522222222222226,47.73308101654907L60.666666666666664,48.69818446246489L60.81111111111111,47.70908357533756L60.955555555555556,45.90963206421353L61.099999999999994,44.79997921791997L61.24444444444444,44.584562085433724L61.53333333333333,49.711840590834754L61.67777777777778,54.1274654281411L61.82222222222222,51.08596476973462L62.111111111111114,54.71525783097882L62.25555555555555,50.57955035769467L62.4,47.638180663133554L62.544444444444444,46.2583259494645L62.68888888888889,47.178940862250016L62.833333333333336,45.97386623856463L62.97777777777778,53.074611175479056L63.26666666666667,50.27466692696183L63.41111111111111,51.721411832621556L63.699999999999996,47.818862321672995L64.27777777777779,55.55255488464687L64.42222222222223,54.386933736712635L64.71111111111111,53.627969098913844L64.85555555555555,52.37679799272753L65,56.46843367542982L65.14444444444443,60.250359915218446L65.28888888888889,61.96701095681021L65.43333333333332,66.96291499101164L65.57777777777778,64.42023163213578L65.86666666666667,59.274517837996164L66.3,55.012026874431335L66.44444444444444,53.44431538368228L66.58888888888889,53.967696521297825L66.73333333333333,57.832389797847064L67.02222222222223,51.73816350465862L67.31111111111112,46.46812938194579L67.60000000000001,45.278206758622034L67.8888888888889,44.368394317254904L68.17777777777778,46.51236671429152L68.32222222222222,48.827204253363796L68.46666666666665,46.90030961292125L68.61111111111111,45.40199512739457L68.75555555555555,48.04019001309358L69.04444444444444,44.06940625255176L69.1888888888889,43.26882094632205L69.47777777777779,52.73660280048703L69.62222222222222,49.3817426733259L69.76666666666667,43.45479273447901L70.05555555555556,41.996738463741636L70.77777777777777,37.2395457677373L71.06666666666666,33.76614828337151L71.21111111111111,33.423101718479074L71.5,34.69255433269478L71.64444444444445,41.33506212284596L71.78888888888888,42.69264092470424L71.93333333333334,46.376933421780386L72.07777777777777,43.614525726337625L72.22222222222223,45.732679566826484L72.36666666666666,49.517307412585836L72.51111111111112,52.476239599403705L72.65555555555555,55.491753721931964L72.80000000000001,47.62745878124297L73.37777777777778,47.0177198691371L73.52222222222223,48.16472513565166L73.81111111111112,51.46263300905453L74.24444444444444,46.32862585289373L74.38888888888889,51.71753308580411L74.67777777777778,50.09961709554765L74.82222222222222,48.254589154130365L74.96666666666667,48.30235711035709L75.1111111111111,49.11841832346689L75.25555555555556,48.6339303975289L75.54444444444445,47.96336307030209L75.68888888888888,46.77213885493089L75.83333333333334,53.68475606187595L75.97777777777777,49.631615590863404L76.12222222222223,45.73340534070868L76.26666666666667,44.999250166803215L76.7,46.967143560408L76.84444444444445,44.04624389934462L77.13333333333334,46.40371648758068L77.42222222222222,46.108726086031126L77.71111111111111,42.971678494897674L78,44.329121551692445L78.28888888888889,61.074727290849765L78.43333333333334,57.725321908475316L78.57777777777778,51.5450929832682L78.72222222222221,56.52552700477331L78.86666666666667,49.10696310954219L79.0111111111111,45.64382573756585L79.15555555555557,44.989453151986055L79.3,41.53186430459743L79.44444444444446,43.621100942249015L79.73333333333332,42.13594719964013L80.02222222222221,40.027446699962105L80.16666666666667,36.53245204316287L80.45555555555556,39.33737997444009L80.74444444444444,40.05774138991891L80.88888888888889,37.8477745035532L81.03333333333333,42.37217538210329L81.17777777777778,40.47107864675123L81.32222222222222,40.30311733740262L81.46666666666667,37.83886668539164L81.61111111111111,39.20595578143871L81.75555555555556,40.45441704421724L81.9,39.48666847194882L82.04444444444444,38.76039284082171L82.1888888888889,39.425596533603326L82.47777777777779,40.959444551425236L82.62222222222222,36.55226577713307L82.91111111111111,39.561618894869795L83.2,40.03289712721118L83.34444444444443,42.14919853031369L83.4888888888889,36.95449478406665L83.63333333333333,42.05877576783234L83.77777777777779,40.30403804149785L84.06666666666666,39.10444022991086L84.21111111111111,35.67978614389721L84.5,39.5560629494344L84.64444444444445,40.83059767011848L84.78888888888889,35.32570749317358L84.93333333333334,34.06161140372457L85.07777777777778,34.286007617256466L85.36666666666666,36.28978659005578L85.51111111111112,34.27392599877434L85.65555555555555,33.85393476785308L85.8,35.21058488215097L86.23333333333333,41.99445986605774L86.52222222222223,41.73001657631722L86.66666666666666,49.28888451995903L86.95555555555555,41.47684676770324L87.10000000000001,39.06991275263713L87.24444444444444,36.232886063818576L87.53333333333333,35.92126281173882L87.67777777777778,34.16661268472241L87.96666666666667,40.33771191542583L88.25555555555556,42.44001163065326L88.97777777777777,44.45894957420447L89.12222222222222,39.13141054482596L89.55555555555556,40.824341747022366L89.69999999999999,36.67113022409713L89.84444444444445,42.18558880478649L89.98888888888888,47.45661475928245L90.13333333333334,43.462757619342916L90.27777777777777,45.64629175134405L90.56666666666666,46.80357029195397L90.85555555555555,52.687922952262504L91.14444444444445,49.2750664898919L91.43333333333334,49.582061776107174L91.86666666666666,44.01517212340515L92.0111111111111,44.821762031606696L92.3,45.4229099353701L92.44444444444444,48.160598644442885L92.58888888888889,48.2382901558507L92.73333333333333,43.62914962781881L92.87777777777778,40.343067744928575L93.16666666666667,44.929700875749106L93.3111111111111,45.05638319710751L93.6,39.1486294980566L93.74444444444445,32.99185092623001L93.88888888888889,31.816968498448812L94.03333333333335,36.47654899087925L94.17777777777778,41.36987444883096L94.32222222222222,47.486053834855824L94.6111111111111,44.55240657829438L94.75555555555556,46.382588898167086L95.04444444444445,44.026664377616925L95.18888888888888,42.976781840353226L95.33333333333333,42.05181366076609L95.47777777777777,43.49546854247466L95.62222222222222,44.53238415138647L95.76666666666667,46.79605657764637L95.91111111111111,52.84208302071238L96.05555555555556,50.6854576258569L96.2,43.94325177324449L96.34444444444445,43.646620226998685L96.4888888888889,43.746093483083854L96.63333333333333,42.87387931655969L96.77777777777779,43.3714070433118L96.92222222222222,41.44638106737677L97.06666666666668,42.99033136953711L97.35555555555557,41.703203737414164L97.5,39.57825886222626L97.93333333333332,39.338116913357446L98.07777777777778,38.80128313263752L98.65555555555555,41.320694056553144L99.08888888888889,38.64514805366721L99.23333333333333,41.8089901534316L99.52222222222223,38.714346983232126L99.66666666666667,38.28636000395626L99.95555555555555,43.52257453322814L100.10000000000001,39.895570602906666L100.24444444444444,37.67043672412734L100.67777777777778,38.480670577084986L100.82222222222222,40.81365499069092L101.11111111111111,41.13510547164164L101.6888888888889,39.82781269009994L101.83333333333333,39.80883648753933L102.12222222222222,37.62178568650759L102.26666666666667,35.90503213657766L102.41111111111111,36.641291370135406L102.55555555555556,35.65950238561812L102.7,41.93134665179344L102.84444444444445,46.99479552937684L102.9888888888889,46.79398628785958L103.27777777777777,44.62038004023659L103.42222222222222,43.13682409771062L103.56666666666666,43.09367222508047L103.71111111111111,39.954370347714246L103.85555555555555,40.636598570519055L104,41.15411366070341L104.14444444444445,42.19199651652003L104.57777777777777,41.64253695454907L104.72222222222223,37.931911565875396L104.86666666666666,38.21995891237661L105.73333333333333,33.19258105198021L106.02222222222223,39.3679329265583L106.16666666666667,37.815578179809684L106.31111111111112,37.214359801907676L106.45555555555555,41.20707320040341L106.6,44.82961670052131L106.74444444444444,41.36002951947229L106.88888888888889,37.49866610472905L107.03333333333333,38.16756425353639L107.17777777777778,38.39026949803951L107.32222222222222,34.00879225301477L107.46666666666667,34.64033595694062L107.6111111111111,36.820957662419175L107.75555555555556,32.39655149633743L107.89999999999999,33.15870565761473L108.04444444444445,36.41949254382866L108.18888888888888,37.34690924687883L108.33333333333334,37.44975633686272L108.62222222222223,39.035316789258765L108.76666666666667,36.432655953223126L108.91111111111111,38.28341709903699L109.2,37.070924081301165L109.48888888888888,38.957940789318926L109.77777777777777,43.228697234591976L109.92222222222222,43.903662415680216L110.35555555555555,47.8418662198252L110.5,47.947372596329515L110.64444444444445,47.68456847811859L110.93333333333334,46.632652669457L111.07777777777778,41.394950102928085L111.22222222222221,42.88337099207128L111.5111111111111,42.63410925757683L111.65555555555557,46.985532855883584L111.8,47.719523075225176L111.94444444444446,50.855634784239015L112.23333333333332,51.08115479446325L112.37777777777778,48.49980108553064L112.52222222222221,51.07082960881644L112.66666666666667,49.00067093011846L112.8111111111111,46.27853531635539L112.95555555555556,47.212087648855956L113.1,41.60457332105439L113.24444444444444,38.392749695417116L113.38888888888889,40.34123291322702L113.53333333333333,47.05264215796293L113.67777777777778,46.722454723779066L113.82222222222222,42.278132324602595L113.96666666666667,41.76156083559675L114.4,41.84400784588787L114.54444444444444,48.26088154190698L114.6888888888889,46.38615932120207L114.97777777777779,47.3506458005158L115.12222222222222,51.3645777719731L115.26666666666668,46.914579535400605L115.41111111111111,48.174829385065365L115.7,48.415510173711674L115.84444444444443,44.47696878758382L115.9888888888889,41.14530041163636L116.13333333333333,42.316400483250696L116.27777777777779,42.08753612363884L116.56666666666666,42.44559051609855L116.85555555555555,42.56024204649033L117.14444444444445,47.6664847150953L117.28888888888889,55.863306499948216L117.43333333333334,61.205502071440726L117.86666666666666,54.05018484031909L118.44444444444444,52.329780974403164L118.58888888888889,49.501731085568075L118.73333333333333,48.368147203384176L118.87777777777777,46.133355883741096L119.02222222222223,46.61149994116032L119.31111111111112,38.85023622102404L119.45555555555555,38.73370919715975L119.8888888888889,47.307483704581294L120.03333333333333,51.71691484811805L120.32222222222222,43.510293638991556L120.61111111111111,39.07141080209521L120.75555555555556,44.29269215087005L121.18888888888888,48.61988555963247L121.33333333333333,48.856083915292075L121.47777777777777,44.456523458445055L121.62222222222222,42.140579622510884L121.76666666666667,42.155142605555874L121.91111111111111,38.057882804020814L122.05555555555556,33.71052903739748L122.19999999999999,32.90802519430243L122.34444444444445,36.247618720642L122.48888888888888,34.529223844518434L122.63333333333334,38.14059936011432L122.77777777777777,39.01028686267435L122.92222222222223,38.606913617327955L123.06666666666666,38.521686900105735L123.21111111111112,38.081742941796485L123.35555555555555,33.67743663425052L123.78888888888889,37.346624700292864L123.93333333333334,33.913490739262194L124.22222222222223,34.82576797483352L124.5111111111111,37.956968349099995L124.65555555555555,38.28426536906349L124.8,37.405483403636865L124.94444444444444,44.02959828029853L125.08888888888889,42.47602872111518L125.23333333333333,37.99537647659097L125.37777777777778,37.20534975951354L125.52222222222221,39.93671918018291L125.66666666666667,40.582582612552386L125.95555555555556,42.56160746838557L126.1,46.648811158287245L126.24444444444445,55.2096047202125L126.38888888888889,62.984746818114075L126.53333333333335,58.910698382423504L126.82222222222222,48.53533654028845L126.96666666666667,46.128673519167656L127.1111111111111,46.406115656956L127.25555555555556,41.52445825239489L127.39999999999999,37.07390481866904L127.54444444444445,37.253999472988625L127.68888888888888,40.77602633672514L127.83333333333333,43.816681436739685L127.97777777777777,43.894117030070845L128.1222222222222,42.89864637236852L128.26666666666668,43.721496148719766L128.4111111111111,47.684471607296686L128.55555555555557,50.178480698889814L128.98888888888888,46.41642535255216L129.27777777777777,46.69470842600975L129.56666666666666,44.811665902901886L130,42.28219508967892L130.14444444444445,39.327662652705236L130.28888888888886,36.03535920277307L130.43333333333334,37.63651438476721L130.57777777777778,39.745889361240145L130.72222222222223,39.40807529585445L130.86666666666665,35.793514576638174L131.01111111111112,36.87881816811312L131.15555555555557,36.31273788599192L131.3,37.21979817550662L131.44444444444443,34.05690825412404L131.58888888888887,40.02295208515861L131.73333333333335,41.608400813974896L132.16666666666666,36.506929510769396L132.3111111111111,38.059382058296634L132.45555555555558,38.89389013692531L132.74444444444444,37.69429076049035L132.88888888888889,41.24264742214858L133.17777777777778,35.550655930978415L133.32222222222222,29.736135072200852L133.46666666666667,31.9991502442858L133.6111111111111,30.161787036205396L133.75555555555556,34.43508485776889L133.9,35.75020328426442L134.33333333333334,40.513839601560484L134.4777777777778,39.94661423659345L134.62222222222223,36.80398815966746L135.20000000000002,35.98124717598075L135.34444444444443,34.989562353082704L135.63333333333333,33.3949632277665L135.7777777777778,32.13627345070853L135.92222222222222,35.034009861007675L136.06666666666666,36.8687419355642L136.35555555555555,36.49377981455057L136.64444444444445,36.91650954727883L136.7888888888889,33.70362331501015L136.9333333333333,32.30642086604555L137.22222222222223,29.79067375644252L137.36666666666667,29.404651952795138L137.5111111111111,27.144592544668157L137.65555555555557,28.590364787071294L137.8,29.13678079330482L137.94444444444446,28.423005542248998L138.08888888888887,27.164073405446242L138.23333333333332,29.378321881167732L138.66666666666666,29.922791145218092L138.8111111111111,27.760271526976943L139.1,29.784041292163902L139.24444444444444,34.0648776462595L139.38888888888889,35.523785869028195L139.53333333333333,31.387385821144058L139.67777777777778,36.538988820106844L139.82222222222222,38.75752413972316L140.11111111111111,40.70304335315348L140.25555555555553,45.65342996848014L140.4,41.12408070689632L140.54444444444445,39.59797807539418L140.6888888888889,37.8949462354066L140.83333333333331,37.16758902901367L140.9777777777778,43.90814737539108L141.12222222222223,48.322536045650075L141.55555555555554,50.59588877255871L141.70000000000002,44.195654180757344L141.98888888888888,40.93406000053493L142.13333333333333,42.94396459277456L142.2777777777778,43.01065489271185L142.42222222222222,40.52678113731828L142.7111111111111,41.04799972171313L143,43.786815357127864L143.14444444444445,41.92243239225358L143.2888888888889,43.468797872263146L143.43333333333334,38.15789253298881L143.57777777777775,36.36801997476856L143.72222222222223,41.30153578860943L143.86666666666667,41.2401858408601L144.01111111111112,46.154590157202065L144.3,45.926295933093236L144.44444444444446,41.34556107467871L144.5888888888889,38.42877535489972L144.87777777777777,43.298990449555674L145.16666666666666,42.59878183477429L145.3111111111111,38.968649451211704L145.45555555555555,37.37542152736367L145.60000000000002,44.46006611036152L145.74444444444444,39.16121835791514L145.88888888888889,38.60081841857049L146.17777777777778,34.455540212925165L146.32222222222222,34.117286042187004L146.46666666666667,35.1158246950104L146.75555555555556,33.30721454920973L146.89999999999998,36.05794210237475L147.1888888888889,34.76080709966038L147.62222222222223,34.677250140739275L147.9111111111111,38.332030443682854L148.05555555555554,34.64049614558078L148.2,30.56047462419309L148.63333333333333,31.597606863321694L148.77777777777777,31.25386696370985L149.06666666666666,33.077000676013306L149.2111111111111,35.512546358514456L149.5,36.280267319882235L149.64444444444445,34.03031071738073L149.7888888888889,38.628327133814665L150.07777777777778,35.926176728306466L150.2222222222222,30.318895193432358L150.65555555555557,27.63928474382201L150.79999999999998,28.246759459535287L151.0888888888889,28.066592897825167L151.23333333333332,35.94069701709441L151.37777777777777,35.723716151036555L151.5222222222222,34.148708938888305L151.8111111111111,34.17458268544203L151.95555555555555,34.2628829398446L152.1,33.47336918210269L152.24444444444447,29.884806927699078L152.53333333333333,38.35951117425437L152.82222222222222,38.05235906946027L153.11111111111111,37.463728751260696L153.25555555555556,30.537979265989L153.4,31.772113301318356L153.54444444444442,32.78335534561658L153.6888888888889,35.444227832609414L154.26666666666668,28.85557322250146L154.41111111111113,31.003814387795476L154.55555555555554,30.10759811186648L154.7,30.844790377843765L154.84444444444443,30.783482890892763L155.13333333333333,29.253240579856893L155.27777777777777,28.69356253957334L155.42222222222222,25.30442725478313L155.5666666666667,23.6699932793802L155.7111111111111,25.340444415790934L155.85555555555555,27.679411661020463L156,32.667232519519466L156.14444444444445,40.78922355956441L156.2888888888889,35.412453132765165L156.43333333333334,44.6439414656191L156.7222222222222,49.50932652338126L156.86666666666667,45.04294867317856L157.01111111111112,39.734972316880466L157.15555555555557,44.14014429498143L157.29999999999998,92.95174383799808L157.44444444444443,119.39841913107956L157.5888888888889,136.19267689994032L157.87777777777777,141.6817066237428L158.0222222222222,140.17487876075722L158.16666666666666,131.39405115239566L158.31111111111113,123.60151229827702L158.45555555555555,123.12736926670331L158.6,117.77569035955905L158.8888888888889,114.3817679092717L159.03333333333333,125.37447215598529L159.61111111111111,125.35291218106437L159.75555555555556,126.19445173761582L160.04444444444442,127.52353149402984L160.1888888888889,123.23337474470668L160.33333333333334,121.08272843791619L160.4777777777778,117.70598757655752L160.6222222222222,123.38815680763247L160.76666666666665,122.17608313126651L160.91111111111113,118.80586305444717L161.2,123.62237674539654L161.34444444444443,120.49092877908144L161.48888888888888,114.83319690574277L161.63333333333335,109.93807505976059L161.92222222222222,111.90512875524428L162.06666666666666,116.86122702799058L162.21111111111114,114.579438642724L162.35555555555555,117.50607195752589L162.5,112.85644481998276L162.64444444444445,107.86100408723748L163.36666666666665,92.74831742891703L163.51111111111112,82.73962962843224L163.65555555555557,73.78396997668061L163.8,72.89564154906473L163.94444444444443,70.98860502080369L164.08888888888887,66.10683286152046L164.3777777777778,69.57607340208479L164.66666666666666,64.43573206902892L165.1,61.04144324953576L165.24444444444444,57.23632664962585L165.38888888888889,53.52072619102386L165.53333333333336,50.536988850128395L165.96666666666667,46.39582646741151L166.1111111111111,44.470055956095656L166.4,42.47908104534186L166.54444444444445,45.03020092306155L166.68888888888887,41.693878482216164L166.83333333333334,41.683074605987336L167.12222222222223,39.37084011504978L167.26666666666665,39.43926793572091L167.4111111111111,40.449447755147396L167.55555555555557,37.43791568332654L167.70000000000002,34.72363429984862L167.84444444444443,34.29703210464733L167.98888888888888,33.116105884976356L168.13333333333333,32.64497677061317L168.2777777777778,34.61713310521071L168.56666666666666,36.530194193763016L168.7111111111111,34.25455865583039L169,32.23931873443153L169.2888888888889,32.843860805426L169.4333333333333,33.353515707666844L169.72222222222223,36.64755508394706L170.0111111111111,39.26230359843661L170.15555555555557,36.03355392102227L170.3,32.60735668352252L170.44444444444446,32.75426344696367L170.8777777777778,34.15482542687317L171.02222222222224,30.315851600599224L171.16666666666666,34.05425780935502L171.3111111111111,37.34334533534156L171.6,34.2108798764776L171.74444444444444,34.608406191346035L171.88888888888889,33.098112952295885L172.03333333333333,30.300401912937737L172.17777777777778,30.234309343809056L172.61111111111111,33.865673515121856L172.9,31.22655557414474L173.04444444444445,32.46279843914979L173.33333333333331,38.2640202356438L173.4777777777778,38.78113642730343L173.76666666666668,40.930830942256115L173.9111111111111,36.805436999892265L174.05555555555554,36.475515075318995L174.20000000000002,36.36420379343009L174.48888888888888,36.36362993959502L174.63333333333333,34.34123302732592L174.7777777777778,31.90296986282845L175.06666666666666,33.92691800359108L175.2111111111111,35.45190232787865L175.35555555555555,32.607372006890316L175.5,30.968843918040324L175.7888888888889,33.10670739270269L175.93333333333334,39.24953394981371L176.22222222222223,39.08075147197717L176.65555555555554,36.27040930532453L176.94444444444446,33.562490252804295L177.0888888888889,32.93931502830202L177.23333333333332,31.022483941263932L177.37777777777777,28.60499363522714L177.66666666666666,31.348566708416143L177.95555555555555,36.54605842301133L178.10000000000002,37.68258382132456L178.24444444444444,36.436204352956324L178.38888888888889,31.95000553008257L178.53333333333333,32.38619012077635L178.67777777777778,35.39375468396773L178.82222222222222,34.129294445144374L178.96666666666667,39.23969372026394L179.11111111111111,36.336527268956544L179.54444444444445,33.98336867043353L179.6888888888889,32.45535532243267L179.83333333333334,34.33299293554161L180.4111111111111,35.329120702057025L180.55555555555554,35.63937613582964L180.7,37.16495096297875L180.84444444444446,33.36776739599577L180.98888888888888,31.800337943825298L181.27777777777777,34.58082077189488L181.42222222222225,36.596161950666904L181.56666666666666,35.66161435601527L181.7111111111111,34.714041597396836L181.85555555555555,33.13292561714657L182.57777777777778,31.009555293480965L182.7222222222222,28.289209076516737L182.86666666666667,28.08508188866676L183.01111111111112,32.51827802707486L183.15555555555557,34.30218727570008L183.29999999999998,38.49038241182021L183.5888888888889,38.324818059159405L183.73333333333332,35.163100280467475L183.87777777777777,34.86522628769467L184.0222222222222,36.029442256507146L184.16666666666669,33.69365256912715L184.3111111111111,35.91425060096983L184.45555555555555,34.77069513580098L184.6,35.10205327857165L184.74444444444447,34.79801122513455L185.03333333333333,34.14439235351188L185.17777777777778,35.495468770861045L185.32222222222222,34.52535834228422L185.46666666666667,33.377489573752186L185.61111111111111,32.45500016906715L185.75555555555556,32.71804096699097L185.9,30.21821837056935L186.1888888888889,27.9625928500574L186.47777777777776,26.28630297243639L186.6222222222222,28.239743893444754L186.76666666666668,27.754150067283458L186.91111111111113,25.143991870467L187.05555555555554,23.567276696952256L187.34444444444443,28.245359317936362L187.63333333333333,29.7884357180946L187.77777777777777,27.741128647843478L188.0666666666667,26.34400143551619L188.35555555555555,28.54920702768352L188.5,27.877716029377975L188.64444444444445,28.496123972608014L188.93333333333334,30.58633535722021L189.36666666666667,29.831529827935373L189.51111111111112,33.79507954464952L189.94444444444443,34.415271539459L190.0888888888889,34.20675231358603L190.23333333333335,33.27610293014175L190.66666666666666,36.04717150457726L190.81111111111113,32.705020300406524L191.1,32.545296294113065L191.24444444444444,35.14483681227315L191.3888888888889,33.503662358107455L191.53333333333333,30.61286117505869L191.67777777777778,40.61673892604143L191.82222222222222,34.71009875545677L191.96666666666664,33.06846496055865L192.11111111111111,34.868373715630895L192.25555555555556,33.40184088835521L192.4,36.93794631198654L192.6888888888889,32.77994145100392L192.83333333333334,34.04078965083932L192.9777777777778,32.261600380728616L193.41111111111113,33.92231125437354L193.55555555555557,34.1580806760149L193.84444444444443,34.26505668433203L193.98888888888888,30.578810357879792L194.13333333333335,31.594858614664325L194.27777777777777,28.818726248915965L194.56666666666666,33.59224487161707L194.71111111111114,34.92214399786463L195,36.72089738289895L195.14444444444445,32.95617412202476L195.28888888888886,35.54883485264945L195.43333333333334,36.63106526457047L195.57777777777778,39.43061275479945L195.72222222222223,41.10147442383083L195.86666666666665,38.59643240234511L196.01111111111112,36.121568806818864L196.15555555555557,38.086954780273764L196.3,37.65338311856373L196.44444444444443,39.31689907881312L196.58888888888887,38.74721224581636L196.73333333333335,39.64640502871428L196.8777777777778,35.708085715262676L197.16666666666666,33.37487959413701L197.3111111111111,37.79109269568356L197.45555555555558,36.36319388646038L197.6,38.19430057870604L197.88888888888889,36.08517047534379L198.03333333333336,35.742337767856554L198.6111111111111,41.26111101150285L199.04444444444445,40.196757898329544L199.33333333333334,39.72345574248865L199.4777777777778,42.653992608460236L199.62222222222223,38.23244319254688L199.76666666666665,38.3949359739368L199.9111111111111,37.010045834535866L200.20000000000002,35.169564765190515L200.34444444444443,38.221795654967416L200.48888888888888,37.84140175592831L200.63333333333333,43.20385289989242L200.7777777777778,43.451178547336134L201.06666666666666,47.6249724856709L201.2111111111111,46.569289054891556L201.35555555555555,40.8332209101695L201.5,38.64813877539724L201.64444444444445,35.818807824310845L201.7888888888889,34.36354953094093L201.9333333333333,31.757786506415066L202.07777777777778,33.94763054679774L202.22222222222223,36.09801521347343L202.36666666666667,35.54136145528074L202.5111111111111,34.47345488646496L202.8,32.8954464262758L202.94444444444446,31.533184694405666L203.23333333333332,31.068336510022437L203.3777777777778,32.843385284929525L203.52222222222224,31.344308775721156L203.8111111111111,32.169673086812985L203.95555555555558,35.898645248129505L204.1,37.423618333848125L204.24444444444444,33.55731376120675L204.38888888888889,31.026340873856206L204.53333333333333,33.08147532417954L205.11111111111111,36.21539497743068L205.4,33.20280346794119L205.83333333333331,33.99141427392088L205.9777777777778,35.26955667975165L206.12222222222223,41.46904885878562L206.26666666666668,37.95938049739708L206.4111111111111,33.1480355301261L206.55555555555554,30.09415698070581L206.84444444444443,27.751721823094385L206.98888888888888,27.778896078894505L207.13333333333333,29.200362623520395L207.2777777777778,34.211643214725385L207.42222222222222,31.42737267714253L207.56666666666666,36.45540142646188L207.7111111111111,33.49456567017342L207.85555555555555,31.547137793360864L208,34.51081360326778L208.14444444444445,35.86238411875038L208.43333333333334,34.692346789044926L208.57777777777775,32.29632548303452L208.72222222222223,32.86050238551583L209.01111111111112,29.590482238567578L209.15555555555554,28.83081529364457L209.3,31.16045858343451L209.44444444444446,33.35269827476056L209.5888888888889,31.714299243914372L209.73333333333332,30.47609493445719L210.02222222222224,33.32276509640119L210.16666666666666,33.433737340015234L210.3111111111111,34.67727943660916L210.45555555555555,35.161676883166095L210.60000000000002,35.628657100585194L210.74444444444444,36.92029629043818L210.88888888888889,38.41468849500603L211.17777777777778,37.18581437356836L211.32222222222222,34.363982348804775L211.46666666666667,33.555815359860475L211.61111111111111,37.6558408075936L211.75555555555556,37.57237502693244L211.89999999999998,35.84935873372545L212.04444444444445,35.955431264501236L212.1888888888889,34.6741440768529L212.33333333333334,33.076300110159394L212.62222222222223,33.873233895189784L212.76666666666668,38.54991711849333L213.05555555555554,35.50722146540788L213.63333333333333,35.363871408307624L213.77777777777777,34.26047213659345L214.06666666666666,35.787095143669596L214.2111111111111,37.30579355461179L214.35555555555555,37.065196471020386L214.64444444444445,35.540672853763034L214.93333333333334,37.047791538298426L215.07777777777778,34.71871155395035L215.2222222222222,40.74404849270671L215.51111111111112,42.0573100018576L215.65555555555557,40.254465381344296L215.79999999999998,41.92632648506134L215.94444444444446,40.289981590808374L216.23333333333332,41.17807046292904L216.37777777777777,33.95420074771096L216.5222222222222,33.383566715741125L216.66666666666669,32.64962004998705L216.8111111111111,30.610351018423923L217.1,34.315616793391655L217.24444444444447,33.11266729451189L217.38888888888889,32.44541440231631L217.67777777777778,35.805768946541676L217.82222222222222,36.649650220341144L218.25555555555556,38.04820862180054L218.4,34.50701984934133L218.54444444444442,36.06581183784538L218.6888888888889,39.69433969022951L218.97777777777776,40.12952929779585L219.1222222222222,37.98484926581908L219.26666666666668,45.02980367232716L219.41111111111113,54.447760500936305L219.55555555555554,58.68214368929983L219.7,54.57075751359521L219.84444444444443,51.31827260001493L219.9888888888889,50.58199063683275L220.27777777777777,44.26122403379279L220.42222222222222,46.49267805693545L220.5666666666667,50.40493416563037L220.7111111111111,50.06548898888764L220.85555555555555,50.29695381173785L221,59.49702798674605L221.14444444444445,54.482512961324026L221.43333333333334,48.65781481917409L221.57777777777778,47.63922440399401L221.7222222222222,44.84704245545936L221.86666666666667,40.47213001457273L222.01111111111112,37.33077220499589L222.15555555555557,35.604383794259306L222.5888888888889,37.81071773164669L222.87777777777777,37.958871993930586L223.0222222222222,39.4053666166386L223.16666666666666,37.97769335137683L223.31111111111113,38.02827083673245L223.45555555555555,34.66375311634208L223.6,34.66902954556449L223.74444444444444,34.43778991926662L223.8888888888889,40.79064056510206L224.03333333333333,45.614023174507686L224.17777777777778,47.42164692993851L224.61111111111111,40.073131537146104L224.75555555555556,39.05005398323925L225.1888888888889,32.230662922461235L225.33333333333334,32.39267116071571L225.4777777777778,33.63783976404038L225.6222222222222,34.135035715649444L225.76666666666665,37.04712501336449L225.91111111111113,35.88866626644787L226.2,32.79136366189935L226.34444444444443,31.127210484181212L226.48888888888888,29.408867249370438L226.63333333333335,29.473666190825135L226.77777777777777,27.943271805018398L226.92222222222222,27.024923145051822L227.06666666666666,30.374120563559295L227.35555555555555,31.506977995291717L227.5,34.34110324436107L227.64444444444445,38.67770305595184L227.93333333333334,39.07324744638857L228.07777777777778,36.30449453951174L228.22222222222223,34.53859991979138L228.51111111111112,34.69838432157893L228.65555555555557,38.65093010912044" style="fill: none;" fill="none"></path></g></g></g></g><g opacity="0.2"><g><g><g><path stroke="rgb(0, 119, 187)" stroke-width="2px" d="M29.177777777777777,161.83681645210493L29.466666666666665,161.79661005014725L29.755555555555556,161.76044258480724L29.900000000000002,161.77051151123914L30.18888888888889,161.5897703463381L30.477777777777778,161.59650591611862L30.62222222222222,161.42070191209964L30.766666666666666,161.58511169780385L30.91111111111111,161.29952296040275L31.055555555555557,161.14521033720538L31.2,160.854842599522L31.344444444444445,160.57549367297779L31.48888888888889,160.14690989060836L31.633333333333336,160.0476210680875L31.777777777777775,159.66345118956133L31.92222222222222,159.70448459625246L32.211111111111116,160.05165997938676L32.5,159.4911139678955L32.644444444444446,159.1938221948797L32.93333333333334,158.99101582267068L33.36666666666667,158.60101581920276L33.51111111111111,159.22026740334252L33.65555555555556,159.12098598827015L33.800000000000004,159.91138867638327L33.94444444444445,159.99302354292436L34.23333333333333,159.84430281032215L34.666666666666664,160.3780125617981L34.81111111111111,160.9683554207195L35.1,159.82290701259265L35.24444444444445,159.9732509023493L35.388888888888886,159.98538569190285L35.53333333333333,160.8299913042242L35.67777777777778,161.29286161942915L35.82222222222222,160.93294148965316L36.111111111111114,160.03357793461194L36.25555555555556,159.26893372275612L36.68888888888889,158.87550191012295L36.833333333333336,158.77701648712159L36.977777777777774,159.0837978189642L37.12222222222222,159.16096892616966L37.266666666666666,159.0885395119407L37.699999999999996,158.92440742839466L37.84444444444444,159.2385917334123L37.98888888888889,158.9666156872836L38.13333333333333,159.38980013413862L38.27777777777778,158.01804252277722L38.422222222222224,157.93185253836893L38.56666666666667,157.5263959676569L38.71111111111111,156.93166211214933L38.855555555555554,156.68339098150082L39,155.93118680780586L39.28888888888889,154.73744314713912L39.43333333333334,154.51359252236105L39.57777777777778,154.4281111838601L39.72222222222223,153.9290923656117L40.011111111111106,152.5361951307817L40.3,148.72904993230645L40.44444444444444,149.20548714377662L40.733333333333334,145.176477134011L40.87777777777778,144.98513286243787L41.166666666666664,140.12825653076172L41.31111111111111,139.11070767489346L41.455555555555556,135.0192355901545L41.6,137.47999492298473L41.74444444444445,133.19260570179333L41.88888888888889,128.92651783336294L42.17777777777778,131.77723241632637L42.32222222222222,128.84222847678444L42.46666666666667,127.31695087779653L42.611111111111114,119.5236014626243L42.9,120.75308235862039L43.33333333333333,115.74584222966975L43.477777777777774,109.549970814098L43.62222222222222,108.69884510387074L43.766666666666666,113.1014423717152L44.05555555555556,109.67535422585226L44.2,108.54482449618254L44.34444444444444,110.26823652787643L44.77777777777778,104.91773770419036L44.922222222222224,94.70378967285157L45.35555555555556,81.02393599076704L45.78888888888889,76.61728437943893L45.93333333333333,79.4305790016868L46.077777777777776,82.02954157049005L46.22222222222222,78.8658203125L46.36666666666667,86.16839910333806L46.8,80.96146157004617L46.94444444444444,72.29890980113636L47.08888888888889,74.01777365944602L47.233333333333334,73.33117231889204L47.37777777777778,80.56739024769176L47.666666666666664,81.60951454856179L47.81111111111111,88.53184925426136L48.24444444444445,81.95125965465199L48.677777777777784,82.14665333140981L48.822222222222216,73.29407581676136L49.11111111111111,65.31975996537642L49.4,68.79719160600142L49.544444444444444,70.43998590642755L49.68888888888889,70.8330547540838L49.833333333333336,67.15864424272017L49.977777777777774,73.14711203835226L50.12222222222222,74.07416903409091L50.41111111111111,63.53928588867187L50.55555555555556,64.81576704545455L50.7,64.90461692116479L50.84444444444445,79.7136719304865L51.13333333333333,71.91072986949574L51.27777777777778,59.58078491210938L51.422222222222224,56.351601562499994L51.71111111111111,70.07797895951705L51.855555555555554,69.82742942116477L52,58.74528397993608L52.288888888888884,65.77754028320312L52.43333333333333,63.02226573597301L52.72222222222222,58.40161787553268L52.86666666666667,67.35015147816051L53.15555555555556,63.5031474165483L53.3,73.1559219637784L53.44444444444444,67.73574374112215L53.733333333333334,54.654831653941756L53.87777777777778,58.18580433238637L54.31111111111112,53.886155783913345L54.455555555555556,51.593994917436085L54.6,62.98923839222302L54.74444444444444,70.72442205255682L55.03333333333333,60.38026589133522L55.17777777777778,56.186217928799714L55.46666666666667,58.14417447176847L55.75555555555555,53.455615123402L55.9,47.195570512251415L56.044444444444444,56.919357799183246L56.18888888888889,55.55028353604403L56.47777777777778,47.754230402166186L56.62222222222222,46.140127618963064L57.05555555555556,57.052128906250005L57.63333333333334,65.78337735262785L57.77777777777777,68.26228493430398L58.21111111111111,61.83103937322443L58.355555555555554,61.576697221235804L58.644444444444446,53.406301269531255L58.78888888888889,45.12363802823153L58.93333333333333,41.226608997691756L59.077777777777776,70.48907259854404L59.22222222222222,46.864200772372165L59.65555555555556,47.92707086736506L59.800000000000004,44.440829301313926L59.94444444444445,46.519171697443184L60.08888888888889,49.54294156161222L60.522222222222226,47.2243212890625L60.666666666666664,49.66328790838068L60.81111111111111,46.71998268821024L60.955555555555556,44.11018055308949L61.099999999999994,43.690326371626426L61.24444444444444,44.36914495294744L61.53333333333333,54.839119096235805L61.67777777777778,58.54309026544745L61.82222222222222,48.044464111328125L62.111111111111114,58.34455089222302L62.25555555555555,46.44384288441052L62.4,44.696810968572436L62.544444444444444,44.878471235795445L62.68888888888889,48.09955577503552L62.833333333333336,44.76879161487927L62.97777777777778,60.175356112393466L63.26666666666667,47.4747226784446L63.41111111111111,53.168156738281255L63.699999999999996,43.916312810724435L64.27777777777779,63.28624744762073L64.42222222222223,53.22131258877841L64.71111111111111,52.869004461115054L64.85555555555555,51.125626886541205L65,60.560069358132104L65.14444444444443,64.03228615500711L65.28888888888889,63.68366199840198L65.43333333333332,71.95881902521306L65.57777777777778,61.87754827325995L65.86666666666667,54.12880404385654L66.3,50.74953591086648L66.44444444444444,51.87660389293325L66.58888888888889,54.49107765891335L66.73333333333333,61.6970830743963L67.02222222222223,45.64393721147017L67.31111111111112,41.198095259232964L67.60000000000001,44.08828413529829L67.8888888888889,43.45858187588778L68.17777777777778,48.65633911132812L68.32222222222222,51.142041792436075L68.46666666666665,44.97341497247869L68.61111111111111,43.9036806418679L68.75555555555555,50.678384898792615L69.04444444444444,40.09862249200994L69.1888888888889,42.46823564009234L69.47777777777779,62.20438465465199L69.62222222222222,46.02688254616478L69.76666666666667,37.527842795632104L70.05555555555556,40.53868419300426L70.77777777777777,32.482353071732945L71.06666666666666,30.292750799005688L71.21111111111111,33.08005515358665L71.5,35.962006946910506L71.64444444444445,47.97756991299716L71.78888888888888,44.0502197265625L71.93333333333334,50.06122591885653L72.07777777777777,40.852118030894886L72.22222222222223,47.85083340731534L72.36666666666666,53.30193525834516L72.51111111111112,55.435171786221595L72.65555555555555,58.50726784446022L72.80000000000001,39.76316384055398L73.37777777777778,46.407980957031256L73.52222222222223,49.31173040216619L73.81111111111112,54.76054088245738L74.24444444444444,41.194618696732945L74.38888888888889,57.10644031871449L74.67777777777778,48.481701105291194L74.82222222222222,46.40956121271307L74.96666666666667,48.350125066583814L75.1111111111111,49.93447953657671L75.25555555555556,48.14944247159091L75.54444444444445,47.29279574307528L75.68888888888888,45.58091463955966L75.83333333333334,60.59737326882102L75.97777777777777,45.578475119850864L76.12222222222223,41.835195090553974L76.26666666666667,44.26509499289772L76.7,48.93503695401278L76.84444444444445,41.125344238281244L77.13333333333334,48.76118907581676L77.42222222222222,45.813735684481536L77.71111111111111,39.834630903764214L78,45.68656460848721L78.28888888888889,77.8203330300071L78.43333333333334,54.375916526100845L78.57777777777778,45.36486405806107L78.72222222222221,61.505961026278406L78.86666666666667,41.68839921431108L79.0111111111111,42.18068836558949L79.15555555555557,44.33508056640625L79.3,38.07427545720881L79.44444444444446,45.71033757990057L79.73333333333332,40.650793457031256L80.02222222222221,37.91894620028409L80.16666666666667,33.03745738636363L80.45555555555556,42.14230790571734L80.74444444444444,40.77810280539774L80.88888888888889,35.637807617187505L81.03333333333333,46.89657626065341L81.17777777777778,38.56998191139915L81.32222222222222,40.13515602805398L81.46666666666667,35.37461603338069L81.61111111111111,40.57304487748579L81.75555555555556,41.70287830699574L81.9,38.518919899680405L82.04444444444444,38.034117209694614L82.1888888888889,40.09080022638494L82.47777777777779,42.49329256924715L82.62222222222222,32.1450870028409L82.91111111111111,42.57097201260654L83.2,40.50417535955256L83.34444444444443,44.265499933416194L83.4888888888889,31.759791037819607L83.63333333333333,47.163056751598006L83.77777777777779,38.549300315163364L84.06666666666666,37.90484241832387L84.21111111111111,32.25513205788352L84.5,43.432339754971586L84.64444444444445,42.10513239080255L84.78888888888889,29.820817316228702L84.93333333333334,32.79751531427557L85.07777777777778,34.51040383078836L85.36666666666666,38.29356556285512L85.51111111111112,32.2580654074929L85.65555555555555,33.43394353693182L85.8,36.56723499644885L86.23333333333333,48.778334849964494L86.52222222222223,41.4655732865767L86.66666666666666,56.84775246360085L86.95555555555555,33.664809015447446L87.10000000000001,36.66297873757103L87.24444444444444,33.395859375L87.53333333333333,35.609639559659094L87.67777777777778,32.41196255770597L87.96666666666667,46.50881114612926L88.25555555555556,44.54231134588067L88.97777777777777,46.47788751775569L89.12222222222222,33.80387151544744L89.55555555555556,42.51727294921875L89.69999999999999,32.51791870117188L89.84444444444445,47.70004738547585L89.98888888888888,52.727640713778406L90.13333333333334,39.46890047940341L90.27777777777777,47.82982588334518L90.56666666666666,47.960848832563926L90.85555555555555,58.572275612571026L91.14444444444445,45.862210027521314L91.43333333333334,49.889057062322436L91.86666666666666,38.44828247070312L92.0111111111111,45.62835193980824L92.3,46.024057839133526L92.44444444444444,50.89828735351563L92.58888888888889,48.31598166725851L92.73333333333333,39.02000909978693L92.87777777777778,37.05698586203835L93.16666666666667,49.5163340065696L93.3111111111111,45.1830655184659L93.6,33.24087579900568L93.74444444444445,26.83507235440342L93.88888888888889,30.642086070667613L94.03333333333335,41.13612948330965L94.17777777777778,46.26319990678267L94.32222222222222,53.60223322088068L94.6111111111111,41.61875932173296L94.75555555555556,48.21277121803976L95.04444444444445,41.67073985706677L95.18888888888888,41.92689930308948L95.33333333333333,41.12684548117899L95.47777777777777,44.93912342418323L95.62222222222222,45.569299760298286L95.76666666666667,49.059729003906256L95.91111111111111,58.88810946377841L96.05555555555556,48.52883223100143L96.2,37.20104592063211L96.34444444444445,43.34998868075284L96.4888888888889,43.84556673916904L96.63333333333333,42.00166515003551L96.77777777777779,43.86893477006393L96.92222222222222,39.52135509144177L97.06666666666668,44.53428167169744L97.35555555555557,40.4160761052912L97.5,37.45331398703835L97.93333333333332,39.09797496448863L98.07777777777778,38.26444935191762L98.65555555555555,43.84010498046875L99.08888888888889,35.96960205078125L99.23333333333333,44.972832253196025L99.52222222222223,35.619703813032665L99.66666666666667,37.8583730246804L99.95555555555555,48.7587890625L100.10000000000001,36.26856667258524L100.24444444444444,35.44530284534801L100.67777777777778,39.290904430042616L100.82222222222222,43.14663940429688L101.11111111111111,41.456555952592325L101.6888888888889,38.52051990855824L101.83333333333333,39.78986028497869L102.12222222222222,35.43473488547586L102.26666666666667,34.18827858664772L102.41111111111111,37.37755060369318L102.55555555555556,34.67771340110085L102.7,48.203190917968755L102.84444444444445,52.05824440696022L102.9888888888889,46.59317704634232L103.27777777777777,42.44677379261365L103.42222222222222,41.653268155184655L103.56666666666666,43.050520352450285L103.71111111111111,36.81506847034801L103.85555555555555,41.318826793323865L104,41.671628750887784L104.14444444444445,43.22987937233665L104.57777777777777,41.093077392578124L104.72222222222223,34.22128617720171L104.86666666666666,38.508006258877835L105.73333333333333,28.165203191583814L106.02222222222223,45.543284801136366L106.16666666666667,36.26322343306107L106.31111111111112,36.61314142400569L106.45555555555555,45.19978659889914L106.6,48.4521602006392L106.74444444444444,37.89044233842329L106.88888888888889,33.6373026899858L107.03333333333333,38.836462402343756L107.17777777777778,38.61297474254262L107.32222222222222,29.627315007990063L107.46666666666667,35.27187966086649L107.6111111111111,39.001579367897726L107.75555555555556,27.972145330255685L107.89999999999999,33.920859818892055L108.04444444444445,39.68027943004262L108.18888888888888,38.27432594992897L108.33333333333334,37.552603426846595L108.62222222222223,40.620877241654824L108.76666666666667,33.829995117187494L108.91111111111111,40.13417824485085L109.2,35.85843106356534L109.48888888888888,40.84495749733664L109.77777777777777,47.499453679865056L109.92222222222222,44.57862759676846L110.35555555555555,51.78007002397016L110.5,48.05287897283381L110.64444444444445,47.42176435990766L110.93333333333334,45.58073686079546L111.07777777777778,36.15724753639915L111.22222222222221,44.37179188121449L111.5111111111111,42.384847523082385L111.65555555555557,51.336956454190336L111.8,48.45351329456676L111.94444444444446,53.99174649325284L112.23333333333332,51.3066748046875L112.37777777777778,45.91844737659801L112.52222222222221,53.64185813210228L112.66666666666667,46.93051225142046L112.8111111111111,43.55639970259234L112.95555555555556,48.14563998135653L113.1,35.99705899325284L113.24444444444444,35.18092606977984L113.38888888888889,42.28971613103694L113.53333333333333,53.76405140269887L113.67777777777778,46.39226728959516L113.82222222222222,37.833809925426145L113.96666666666667,41.244989346590906L114.4,41.92645485617897L114.54444444444444,54.677755237926135L114.6888888888889,44.511437100497155L114.97777777777779,48.315132279829555L115.12222222222222,55.378509743430406L115.26666666666668,42.46458129882812L115.41111111111111,49.435079234730104L115.7,48.65619096235796L115.84444444444443,40.53842740145597L115.9888888888889,37.813632035688926L116.13333333333333,43.487500554865065L116.27777777777779,41.858671764026994L116.56666666666666,42.80364490855824L116.85555555555555,42.67489357688211L117.14444444444445,52.77272738370028L117.28888888888889,64.06012828480114L117.43333333333334,66.54769764293324L117.86666666666666,46.89486760919745L118.44444444444444,50.609377108487216L118.58888888888889,46.673681196732964L118.73333333333333,47.23456332120028L118.87777777777777,43.89856456409801L119.02222222222223,47.08964399857954L119.31111111111112,31.088972500887785L119.45555555555555,38.61718217329545L119.8888888888889,55.88125821200284L120.03333333333333,56.12634599165484L120.32222222222222,35.30367242986506L120.61111111111111,34.632527965198854L120.75555555555556,49.5139734996449L121.18888888888888,52.9470789683949L121.33333333333333,49.0922822709517L121.47777777777777,40.05696300159801L121.62222222222222,39.824635786576714L121.76666666666667,42.16970558860086L121.91111111111111,33.960623002485804L122.05555555555556,29.36317527077414L122.19999999999999,32.105521351207386L122.34444444444445,39.58721224698153L122.48888888888888,32.810828968394894L122.63333333333334,41.751974875710225L122.77777777777777,39.879974365234375L122.92222222222223,38.20354037198154L123.06666666666666,38.43646018288353L123.21111111111112,37.64179898348721L123.35555555555555,29.273130326704543L123.78888888888889,41.01581276633522L123.93333333333334,30.48035677823153L124.22222222222223,35.73804521040482L124.5111111111111,41.08816872336647L124.65555555555555,38.61156238902698L124.8,36.52670143821024L124.94444444444444,50.65371315696024L125.08888888888889,40.92245916193181L125.23333333333333,33.514724232066754L125.37777777777778,36.41532304243607L125.52222222222221,42.66808860085228L125.66666666666667,41.22844604492188L125.95555555555556,44.54063232421875L126.1,50.73601484818893L126.24444444444445,63.77039828213778L126.38888888888889,70.75988891601563L126.53333333333335,54.83664994673295L126.82222222222222,38.15997469815341L126.96666666666667,43.72201049804687L127.1111111111111,46.68355779474432L127.25555555555556,36.64280084783381L127.39999999999999,32.62335138494318L127.54444444444445,37.43409412730824L127.68888888888888,44.29805320046164L127.83333333333333,46.85733653675426L127.97777777777777,43.97155262340199L128.1222222222222,41.90317571466619L128.26666666666668,44.54434592507101L128.4111111111111,51.647447065873585L128.55555555555557,52.67248979048296L128.98888888888888,42.65437000621449L129.27777777777777,46.972991499467334L129.56666666666666,42.92862337979404L130,39.75272427645597L130.14444444444445,36.37313021573153L130.28888888888886,32.74305575284091L130.43333333333334,39.23766956676137L130.57777777777778,41.855264337713066L130.72222222222223,39.070261230468745L130.86666666666665,32.178953857421874L131.01111111111112,37.96412175958807L131.15555555555557,35.746657603870744L131.3,38.126858465021314L131.44444444444443,30.894018332741474L131.58888888888887,45.98899591619319L131.73333333333335,43.193849542791206L132.16666666666666,31.40545820756392L132.3111111111111,39.61183460582387L132.45555555555558,39.72839821555397L132.74444444444444,36.494691384055386L132.88888888888889,44.79100408380681L133.17777777777778,29.858664439808233L133.32222222222222,23.921614213423293L133.46666666666667,34.26216541637073L133.6111111111111,28.32442382812501L133.75555555555556,38.708382679332395L133.9,37.065321710759946L134.33333333333334,45.27747591885653L134.4777777777778,39.37938887162641L134.62222222222223,33.66136208274147L135.20000000000002,35.158506192294034L135.34444444444443,33.99787753018466L135.63333333333333,31.80036410245028L135.7777777777778,30.877583673650562L135.92222222222222,37.93174627130682L136.06666666666666,38.70347401012074L136.35555555555555,36.11881769353694L136.64444444444445,37.3392392800071L136.7888888888889,30.490737082741486L136.9333333333333,30.90921841708097L137.22222222222223,27.274926646839486L137.36666666666667,29.018630149147736L137.5111111111111,24.884533136541197L137.65555555555557,30.036137029474432L137.8,29.683196799538344L137.94444444444446,27.709230291193176L138.08888888888887,25.90514126864347L138.23333333333332,31.5925703568892L138.66666666666666,30.46726040926847L138.8111111111111,25.5977519087358L139.1,31.807811057350857L139.24444444444444,38.345714000355116L139.38888888888889,36.98269409179687L139.53333333333333,27.25098577325994L139.67777777777778,41.6905918190696L139.82222222222222,40.976059459339496L140.11111111111111,42.648562566583806L140.25555555555553,50.60381658380682L140.4,36.594731445312505L140.54444444444445,38.071875443892054L140.6888888888889,36.19191439541904L140.83333333333331,36.440231822620746L140.9777777777778,50.64870572176847L141.12222222222223,52.73692471590909L141.55555555555554,52.86924149946732L141.70000000000002,37.79541958895597L141.98888888888888,37.672465820312496L142.13333333333333,44.9538691850142L142.2777777777778,43.077345192649155L142.42222222222222,38.042907381924714L142.7111111111111,41.56921830610796L143,46.52563099254262L143.14444444444445,40.05804942737926L143.2888888888889,45.01516335227274L143.43333333333334,32.8469871937145L143.57777777777775,34.578147416548305L143.72222222222223,46.23505160245028L143.86666666666667,41.1788358931108L144.01111111111112,51.06899447354403L144.3,45.69800170898438L144.44444444444446,36.7648262162642L144.5888888888889,35.51198963512074L144.87777777777777,48.169205544211636L145.16666666666666,41.898573219992905L145.3111111111111,35.338517067649136L145.45555555555555,35.78219360351562L145.60000000000002,51.54471069335938L145.74444444444444,33.862370605468755L145.88888888888889,38.04041847922586L146.17777777777778,30.31026200727984L146.32222222222222,33.779031871448865L146.46666666666667,36.114363347833795L146.75555555555556,31.498604403409097L146.89999999999998,38.80866965553978L147.1888888888889,33.46367209694601L147.62222222222223,34.59369318181818L147.9111111111111,41.98681074662641L148.05555555555554,30.948961847478685L148.2,26.480453102805406L148.63333333333333,32.63473910245029L148.77777777777777,30.910127064098006L149.06666666666666,34.90013438831676L149.2111111111111,37.94809204101563L149.5,37.04798828125L149.64444444444445,31.780354114879263L149.7888888888889,43.22634355024857L150.07777777777778,33.22402632279829L150.2222222222222,24.711613658558232L150.65555555555557,24.95967429421164L150.79999999999998,28.854234175248582L151.0888888888889,27.886426336115065L151.23333333333332,43.81480113636363L151.37777777777777,35.50673528497869L151.5222222222222,32.573701726740055L151.8111111111111,34.20045643199575L151.95555555555555,34.35118319424716L152.1,32.6838554243608L152.24444444444447,26.29624467329545L152.53333333333333,46.83421542080966L152.82222222222222,37.745206964666195L153.11111111111111,36.87509843306107L153.25555555555556,23.612229780717332L153.4,33.006247336647725L153.54444444444442,33.79459738991478L153.6888888888889,38.10510031960228L154.26666666666668,22.266918612393457L154.41111111111113,33.1520555530895L154.55555555555554,29.2113818359375L154.7,31.58198264382103L154.84444444444443,30.722175403941765L155.13333333333333,27.72299826882102L155.27777777777777,28.133884499289767L155.42222222222222,21.9152919699929L155.5666666666667,22.03555930397727L155.7111111111111,27.010895552201706L155.85555555555555,30.01837890625001L156,37.65505337801847L156.14444444444445,48.91121459960938L156.2888888888889,30.035682705965904L156.43333333333334,53.87542979847301L156.7222222222222,54.374711581143465L156.86666666666667,40.576570822975846L157.01111111111112,34.426995960582396L157.15555555555557,48.54531627308238L157.29999999999998,141.76334338101472L157.44444444444443,145.84509442416103L157.5888888888889,152.98693466880104L157.87777777777777,147.17073634754527L158.0222222222222,138.66805089777168L158.16666666666666,122.61322354403408L158.31111111111113,115.80897344415838L158.45555555555555,122.65322623512961L158.6,112.42401145241476L158.8888888888889,110.98784545898437L159.03333333333333,136.36717640269887L159.61111111111111,125.33135220614345L159.75555555555556,127.03599129416726L160.04444444444442,128.85261125044389L160.1888888888889,118.94321799538352L160.33333333333334,118.9320821311257L160.4777777777778,114.32924671519886L160.6222222222222,129.07032603870738L160.76666666666665,120.96400945490056L160.91111111111113,115.43564297762785L161.2,128.4388904363459L161.34444444444443,117.35948081276632L161.48888888888888,109.17546503240412L161.63333333333335,105.04295321377842L161.92222222222222,113.87218245072796L162.06666666666666,121.81732530073685L162.21111111111114,112.29765025745738L162.35555555555555,120.43270527232778L162.5,108.20681768243962L162.64444444444445,102.8655633544922L163.36666666666665,77.63563077059658L163.51111111111112,72.73094182794745L163.65555555555557,64.82831032492898L163.8,72.00731312144886L163.94444444444443,69.08156849254262L164.08888888888887,61.22506070223722L164.3777777777778,73.04531394264914L164.66666666666666,59.29539073597302L165.1,57.64715443004262L165.24444444444444,53.43121004971591L165.38888888888889,49.80512573242187L165.53333333333336,47.55325150923296L165.96666666666667,42.2546640846946L166.1111111111111,42.54428544477984L166.4,40.488106134588065L166.54444444444445,47.581320800781256L166.68888888888887,38.35755604137074L166.83333333333334,41.67227072975853L167.12222222222223,37.05860562411221L167.26666666666665,39.50769575639205L167.4111111111111,41.45962757457387L167.55555555555557,34.426383611505685L167.70000000000002,32.009352916370744L167.84444444444443,33.870429909446024L167.98888888888888,31.935179665305405L168.13333333333333,32.173847656250004L168.2777777777778,36.58928943980824L168.56666666666666,38.44325528231534L168.7111111111111,31.978923117897732L169,30.224078813032673L169.2888888888889,33.448402876420445L169.4333333333333,33.86317060990766L169.72222222222223,39.94159446022727L170.0111111111111,41.877052112926144L170.15555555555557,32.80480424360795L170.3,29.18115944602273L170.44444444444446,32.901170210404835L170.8777777777778,35.555387406782664L171.02222222222224,26.47687777432528L171.16666666666666,37.79266401811079L171.3111111111111,40.63243286132813L171.6,31.07841441761363L171.74444444444444,35.00593250621449L171.88888888888889,31.587819713245732L172.03333333333333,27.50269087357955L172.17777777777778,30.168216774680392L172.61111111111111,37.49703768643466L172.9,28.587437633167607L173.04444444444445,33.69904130415484L173.33333333333331,44.06524203213778L173.4777777777778,39.29825261896306L173.76666666666668,43.08052545720881L173.9111111111111,32.680043057528415L174.05555555555554,36.14559315074574L174.20000000000002,36.25289251154119L174.48888888888888,36.363056085759936L174.63333333333333,32.31883611505681L174.7777777777778,29.464706698330964L175.06666666666666,35.9508661443537L175.2111111111111,36.976886652166186L175.35555555555555,29.762841685901986L175.5,29.330315829190347L175.7888888888889,35.244570867365056L175.93333333333334,45.39236050692471L176.22222222222223,38.91196899414062L176.65555555555554,33.460067138671874L176.94444444444446,30.85457120028409L177.0888888888889,32.31613980379972L177.23333333333332,29.105652854225845L177.37777777777777,26.187503329190342L177.66666666666666,34.092139781605105L177.95555555555555,41.74355013760654L178.10000000000002,38.81910921963779L178.24444444444444,35.18982488458806L178.38888888888889,27.4638067072088L178.53333333333333,32.822374711470175L178.67777777777778,38.40131924715909L178.82222222222222,32.86483420632103L178.96666666666667,44.35009299538353L179.11111111111111,33.43336081764915L179.54444444444445,31.630210071910515L179.6888888888889,30.927341974431812L179.83333333333334,36.21063054865057L180.4111111111111,36.32524846857244L180.55555555555554,35.94963156960226L180.7,38.69052579012784L180.84444444444446,29.570583829012783L180.98888888888888,30.23290849165483L181.27777777777777,37.36130359996448L181.42222222222225,38.61150312943893L181.56666666666666,34.72706676136363L181.7111111111111,33.766468838778415L181.85555555555555,31.55180963689631L182.57777777777778,28.88618496981534L182.7222222222222,25.56886285955255L182.86666666666667,27.880954700816762L183.01111111111112,36.95147416548295L183.15555555555557,36.08609652432528L183.29999999999998,42.67857754794034L183.5888888888889,38.159253706498575L183.73333333333332,32.001382501775566L183.87777777777777,34.567352294921875L184.0222222222222,37.1936582253196L184.16666666666669,31.35786288174716L184.3111111111111,38.134848632812506L184.45555555555555,33.6271396706321L184.6,35.433411421342335L184.74444444444447,34.493969171697444L185.03333333333333,33.490773481889214L185.17777777777778,36.84654518821022L185.32222222222222,33.5552479137074L185.46666666666667,32.22962080522018L185.61111111111111,31.532510764382106L185.75555555555556,32.98108176491476L185.9,27.718395774147734L186.1888888888889,25.706967329545453L186.47777777777776,24.610013094815333L186.6222222222222,30.193184814453115L186.76666666666668,27.268556241122166L186.91111111111113,22.533833673650562L187.05555555555554,21.99056152343751L187.34444444444443,32.92344193892045L187.63333333333333,31.33151211825284L187.77777777777777,25.693821577592338L188.0666666666667,24.946874223188924L188.35555555555555,30.754412619850847L188.5,27.206225031072435L188.64444444444445,29.114531915838075L188.93333333333334,32.67654674183238L189.36666666666667,29.07672429865056L189.51111111111112,37.758629261363645L189.94444444444443,35.035463534268466L190.0888888888889,33.99823308771306L190.23333333333335,32.34545354669744L190.66666666666666,38.81824007901279L190.81111111111113,29.362869096235794L191.1,32.38557228781961L191.24444444444444,37.74437733043323L191.3888888888889,31.862487903941755L191.53333333333333,27.72205999200995L191.67777777777778,50.62061667702415L191.82222222222222,28.803458584872153L191.96666666666664,31.426831165660502L192.11111111111111,36.66828247070312L192.25555555555556,31.93530806107955L192.4,40.4740517356179L192.6888888888889,28.621936590021303L192.83333333333334,35.301637850674716L192.9777777777778,30.482411110617893L193.41111111111113,35.58302212801846L193.55555555555557,34.393850097656255L193.84444444444443,34.37203269264915L193.98888888888888,26.89256403142755L194.13333333333335,32.610906871448854L194.27777777777777,26.04259388316761L194.56666666666666,38.36576349431819L194.71111111111114,36.25204312411221L195,38.51965076793324L195.14444444444445,29.191450861150575L195.28888888888886,38.141495583274136L195.43333333333334,37.71329567649148L195.57777777777778,42.23016024502841L195.72222222222223,42.77233609286221L195.86666666666665,36.09139038085938L196.01111111111112,33.646705211292605L196.15555555555557,40.052340753728686L196.3,37.21981145685369L196.44444444444443,40.98041503906251L196.58888888888887,38.1775254128196L196.73333333333335,40.54559781161222L196.8777777777778,31.76976640181107L197.16666666666666,31.04167347301137L197.3111111111111,42.20730579723012L197.45555555555558,34.93529507723722L197.6,40.02540727095171L197.88888888888889,33.97604037198153L198.03333333333336,35.39950506036932L198.6111111111111,46.77988425514915L199.04444444444445,39.132404785156254L199.33333333333334,39.25015358664772L199.4777777777778,45.58452947443182L199.62222222222223,33.81089377663353L199.76666666666665,38.5574287553267L199.9111111111111,35.625155695134936L200.20000000000002,33.32908369584516L200.34444444444443,41.274026544744316L200.48888888888888,37.461007856889196L200.63333333333333,48.56630404385654L200.7777777777778,43.69850419477984L201.06666666666666,51.79876642400568L201.2111111111111,45.51360562411222L201.35555555555555,35.09715276544745L201.5,36.463056640625L201.64444444444445,32.98947687322443L201.7888888888889,32.90829123757103L201.9333333333333,29.152023481889206L202.07777777777778,36.1374745871804L202.22222222222223,38.24839988014914L202.36666666666667,34.98470769708807L202.5111111111111,33.405548317649156L202.8,31.31743796608665L202.94444444444446,30.170922962535517L203.23333333333332,30.603488325639212L203.3777777777778,34.61843405983665L203.52222222222224,29.84523226651279L203.8111111111111,32.995037397904824L203.95555555555558,39.627617409446025L204.1,38.94859141956675L204.24444444444444,29.69100918856534L204.38888888888889,28.495367986505684L204.53333333333333,35.13660977450284L205.11111111111111,39.34931463068182L205.4,30.1902119584517L205.83333333333331,34.78002507990057L205.9777777777778,36.54769908558238L206.12222222222223,47.6685410378196L206.26666666666668,34.44971213600852L206.4111111111111,28.336690562855107L206.55555555555554,27.040278431285518L206.84444444444443,25.409286665482956L206.98888888888888,27.806070334694606L207.13333333333333,30.621829168146302L207.2777777777778,39.2229238059304L207.42222222222222,28.643102139559648L207.56666666666666,41.48343017578125L207.7111111111111,30.53372991388494L207.85555555555555,29.599709916548306L208,37.474489413174716L208.14444444444445,37.21395463423295L208.43333333333334,33.522309459339496L208.57777777777775,29.900304177024143L208.72222222222223,33.42467928799716L209.01111111111112,26.320462091619323L209.15555555555554,28.071148348721582L209.3,33.49010187322443L209.44444444444446,35.544937966086636L209.5888888888889,30.075900213068177L209.73333333333332,29.23789062500001L210.02222222222224,36.16943525834517L210.16666666666666,33.544709583629256L210.3111111111111,35.920821533203124L210.45555555555555,35.64607432972301L210.60000000000002,36.09563731800427L210.74444444444444,38.21193548029119L210.88888888888889,39.909080699573856L211.17777777777778,35.95694025213068L211.32222222222222,31.542150324041188L211.46666666666667,32.747648370916195L211.61111111111111,41.755866255326694L211.75555555555556,37.488909246271305L211.89999999999998,34.126342440518464L212.04444444444445,36.06150379527699L212.1888888888889,33.39285688920455L212.33333333333334,31.478456143465916L212.62222222222223,34.67016768022017L212.76666666666668,43.22660034179688L213.05555555555554,32.464525812322435L213.63333333333333,35.22052135120738L213.77777777777777,33.157072864879254L214.06666666666666,37.31371815074574L214.2111111111111,38.82449196555399L214.35555555555555,36.82459938742899L214.64444444444445,34.01614923650568L214.93333333333334,38.55491022283381L215.07777777777778,32.38963156960228L215.2222222222222,46.769385431463064L215.51111111111112,43.37057151100853L215.65555555555557,38.45162076083097L215.79999999999998,43.59818758877841L215.94444444444446,38.6536366965554L216.23333333333332,42.06615933504971L216.37777777777777,26.730331032492906L216.5222222222222,32.81293268377131L216.66666666666669,31.91567338423295L216.8111111111111,28.5710819868608L217.1,38.02088256835937L217.24444444444447,31.909717795632098L217.38888888888889,31.778161510120736L217.67777777777778,39.16612349076704L217.82222222222222,37.493531494140626L218.25555555555556,39.44676702325994L218.4,30.965831076882107L218.54444444444442,37.62460382634943L218.6888888888889,43.322867542613636L218.97777777777776,40.56471890536222L219.1222222222222,35.84016923384234L219.26666666666668,52.074758078835224L219.41111111111113,63.86571732954545L219.55555555555554,62.91652687766335L219.7,50.45937133789063L219.84444444444443,48.06578768643465L219.9888888888889,49.84570867365056L220.27777777777777,37.940457430752836L220.42222222222222,48.72413208007812L220.5666666666667,54.31719027432528L220.7111111111111,49.72604381214488L220.85555555555555,50.528418634588064L221,68.69710216175426L221.14444444444445,49.46799793590199L221.43333333333334,42.83311667702414L221.57777777777778,46.620633988813914L221.7222222222222,42.05486050692472L221.86666666666667,36.09721757368609L222.01111111111112,34.18941439541903L222.15555555555557,33.87799538352272L222.5888888888889,40.017051669034096L222.87777777777777,38.107026256214496L223.0222222222222,40.8518612393466L223.16666666666666,36.550020086115055L223.31111111111113,38.078848322088064L223.45555555555555,31.2992353959517L223.6,34.67430597478693L223.74444444444444,34.20655029296876L223.8888888888889,47.1434912109375L224.03333333333333,50.43740578391336L224.17777777777778,49.229270685369315L224.61111111111111,32.72461614435369L224.75555555555556,38.02697642933238L225.1888888888889,25.411271861683247L225.33333333333334,32.55467939897018L225.4777777777778,34.883008367365065L225.6222222222222,34.63223166725853L225.76666666666665,39.95921431107954L225.91111111111113,34.73020751953125L226.2,29.694061057350844L226.34444444444443,29.463057306463075L226.48888888888888,27.690524014559667L226.63333333333335,29.53846513227983L226.77777777777777,26.412877419211643L226.92222222222222,26.10657448508523L227.06666666666666,33.72331798206676L227.35555555555555,32.63983542702414L227.5,37.1752284934304L227.64444444444445,43.014302867542604L227.93333333333334,39.46879183682528L228.07777777777778,33.53574163263494L228.22222222222223,32.77270530007103L228.51111111111112,34.85816872336649L228.65555555555557,42.603475896661934" style="fill: none;" fill="none"></path></g></g></g></g></g></g><g transform="translate(70, 178)" clip-path="url(#clip_1)"><clipPath id="clip_1"><rect width="260" height="22"></rect></clipPath><g><g><line x1="0" y1="0" x2="0" y2="5" style="visibility: inherit;" fill="rgb(0, 0, 0)" stroke="rgb(204, 204, 204)" stroke-width="1px"></line><line x1="28.888888888888886" y1="0" x2="28.888888888888886" y2="5" style="visibility: inherit;" fill="rgb(0, 0, 0)" stroke="rgb(204, 204, 204)" stroke-width="1px"></line><line x1="57.77777777777777" y1="0" x2="57.77777777777777" y2="5" style="visibility: inherit;" fill="rgb(0, 0, 0)" stroke="rgb(204, 204, 204)" stroke-width="1px"></line><line x1="86.66666666666666" y1="0" x2="86.66666666666666" y2="5" style="visibility: inherit;" fill="rgb(0, 0, 0)" stroke="rgb(204, 204, 204)" stroke-width="1px"></line><line x1="115.55555555555554" y1="0" x2="115.55555555555554" y2="5" style="visibility: inherit;" fill="rgb(0, 0, 0)" stroke="rgb(204, 204, 204)" stroke-width="1px"></line><line x1="144.44444444444446" y1="0" x2="144.44444444444446" y2="5" style="visibility: inherit;" fill="rgb(0, 0, 0)" stroke="rgb(204, 204, 204)" stroke-width="1px"></line><line x1="173.33333333333331" y1="0" x2="173.33333333333331" y2="5" style="visibility: inherit;" fill="rgb(0, 0, 0)" stroke="rgb(204, 204, 204)" stroke-width="1px"></line><line x1="202.22222222222223" y1="0" x2="202.22222222222223" y2="5" style="visibility: inherit;" fill="rgb(0, 0, 0)" stroke="rgb(204, 204, 204)" stroke-width="1px"></line><line x1="231.1111111111111" y1="0" x2="231.1111111111111" y2="5" style="visibility: inherit;" fill="rgb(0, 0, 0)" stroke="rgb(204, 204, 204)" stroke-width="1px"></line><line x1="260" y1="0" x2="260" y2="5" style="visibility: inherit;" fill="rgb(0, 0, 0)" stroke="rgb(204, 204, 204)" stroke-width="1px"></line></g><g transform="translate(0, 8)"><text x="0" y="0" dx="0em" dy="0.95em" style="text-anchor: middle; visibility: hidden; font-family: Roboto, sans-serif; font-size: 12px; font-weight: 200;" fill="rgb(50, 49, 63)" stroke="none" stroke-width="1px">-10M</text><text x="28.888888888888886" y="0" dx="0em" dy="0.95em" style="text-anchor: middle; visibility: inherit; font-family: Roboto, sans-serif; font-size: 12px; font-weight: 200;" fill="rgb(50, 49, 63)" stroke="none" stroke-width="1px">0</text><text x="57.77777777777777" y="0" dx="0em" dy="0.95em" style="text-anchor: middle; visibility: inherit; font-family: Roboto, sans-serif; font-size: 12px; font-weight: 200;" fill="rgb(50, 49, 63)" stroke="none" stroke-width="1px">10M</text><text x="86.66666666666666" y="0" dx="0em" dy="0.95em" style="text-anchor: middle; visibility: inherit; font-family: Roboto, sans-serif; font-size: 12px; font-weight: 200;" fill="rgb(50, 49, 63)" stroke="none" stroke-width="1px">20M</text><text x="115.55555555555554" y="0" dx="0em" dy="0.95em" style="text-anchor: middle; visibility: inherit; font-family: Roboto, sans-serif; font-size: 12px; font-weight: 200;" fill="rgb(50, 49, 63)" stroke="none" stroke-width="1px">30M</text><text x="144.44444444444446" y="0" dx="0em" dy="0.95em" style="text-anchor: middle; visibility: inherit; font-family: Roboto, sans-serif; font-size: 12px; font-weight: 200;" fill="rgb(50, 49, 63)" stroke="none" stroke-width="1px">40M</text><text x="173.33333333333331" y="0" dx="0em" dy="0.95em" style="text-anchor: middle; visibility: inherit; font-family: Roboto, sans-serif; font-size: 12px; font-weight: 200;" fill="rgb(50, 49, 63)" stroke="none" stroke-width="1px">50M</text><text x="202.22222222222223" y="0" dx="0em" dy="0.95em" style="text-anchor: middle; visibility: inherit; font-family: Roboto, sans-serif; font-size: 12px; font-weight: 200;" fill="rgb(50, 49, 63)" stroke="none" stroke-width="1px">60M</text><text x="231.1111111111111" y="0" dx="0em" dy="0.95em" style="text-anchor: middle; visibility: inherit; font-family: Roboto, sans-serif; font-size: 12px; font-weight: 200;" fill="rgb(50, 49, 63)" stroke="none" stroke-width="1px">70M</text><text x="260" y="0" dx="0em" dy="0.95em" style="text-anchor: middle; visibility: hidden; font-family: Roboto, sans-serif; font-size: 12px; font-weight: 200;" fill="rgb(50, 49, 63)" stroke="none" stroke-width="1px">80M</text></g><line x1="0" y1="0" x2="260" y2="0" fill="rgb(0, 0, 0)" stroke="rgb(204, 204, 204)" stroke-width="1px"></line></g></g></g></g></svg>