<svg viewBox="0 0 330 200" xmlns="http://www.w3.org/2000/svg"><g><g><g><g><g><line x1="51.5625" y1="171.68028163972699" x2="46.5625" y2="171.68028163972699" style="visibility: inherit;" fill="rgb(0, 0, 0)" stroke="rgb(204, 204, 204)" stroke-width="1px"></line><line x1="51.5625" y1="156.6915289264575" x2="46.5625" y2="156.6915289264575" style="visibility: inherit;" fill="rgb(0, 0, 0)" stroke="rgb(204, 204, 204)" stroke-width="1px"></line><line x1="51.5625" y1="141.702776213188" x2="46.5625" y2="141.702776213188" style="visibility: inherit;" fill="rgb(0, 0, 0)" stroke="rgb(204, 204, 204)" stroke-width="1px"></line><line x1="51.5625" y1="126.71402349991851" x2="46.5625" y2="126.71402349991851" style="visibility: inherit;" fill="rgb(0, 0, 0)" stroke="rgb(204, 204, 204)" stroke-width="1px"></line><line x1="51.5625" y1="111.72527078664902" x2="46.5625" y2="111.72527078664902" style="visibility: inherit;" fill="rgb(0, 0, 0)" stroke="rgb(204, 204, 204)" stroke-width="1px"></line><line x1="51.5625" y1="96.73651807337951" x2="46.5625" y2="96.73651807337951" style="visibility: inherit;" fill="rgb(0, 0, 0)" stroke="rgb(204, 204, 204)" stroke-width="1px"></line><line x1="51.5625" y1="81.74776536011002" x2="46.5625" y2="81.74776536011002" style="visibility: inherit;" fill="rgb(0, 0, 0)" stroke="rgb(204, 204, 204)" stroke-width="1px"></line><line x1="51.5625" y1="66.75901264684055" x2="46.5625" y2="66.75901264684055" style="visibility: inherit;" fill="rgb(0, 0, 0)" stroke="rgb(204, 204, 204)" stroke-width="1px"></line><line x1="51.5625" y1="51.77025993357104" x2="46.5625" y2="51.77025993357104" style="visibility: inherit;" fill="rgb(0, 0, 0)" stroke="rgb(204, 204, 204)" stroke-width="1px"></line><line x1="51.5625" y1="36.78150722030156" x2="46.5625" y2="36.78150722030156" style="visibility: inherit;" fill="rgb(0, 0, 0)" stroke="rgb(204, 204, 204)" stroke-width="1px"></line><line x1="51.5625" y1="21.792754507032058" x2="46.5625" y2="21.792754507032058" style="visibility: inherit;" fill="rgb(0, 0, 0)" stroke="rgb(204, 204, 204)" stroke-width="1px"></line><line x1="51.5625" y1="6.804001793762577" x2="46.5625" y2="6.804001793762577" style="visibility: inherit;" fill="rgb(0, 0, 0)" stroke="rgb(204, 204, 204)" stroke-width="1px"></line></g><g transform="translate(41.5625, 0)"><text x="0" y="171.68028163972699" dx="0em" dy="0.3em" style="text-anchor: end; visibility: inherit; font-family: Roboto, sans-serif; font-size: 12px; font-weight: 200;" fill="rgb(50, 49, 63)" stroke="none" stroke-width="1px">-200</text><text x="0" y="156.6915289264575" dx="0em" dy="0.3em" style="text-anchor: end; visibility: hidden; font-family: Roboto, sans-serif; font-size: 12px; font-weight: 200;" fill="rgb(50, 49, 63)" stroke="none" stroke-width="1px">-100</text><text x="0" y="141.702776213188" dx="0em" dy="0.3em" style="text-anchor: end; visibility: inherit; font-family: Roboto, sans-serif; font-size: 12px; font-weight: 200;" fill="rgb(50, 49, 63)" stroke="none" stroke-width="1px">0</text><text x="0" y="126.71402349991851" dx="0em" dy="0.3em" style="text-anchor: end; visibility: hidden; font-family: Roboto, sans-serif; font-size: 12px; font-weight: 200;" fill="rgb(50, 49, 63)" stroke="none" stroke-width="1px">100</text><text x="0" y="111.72527078664902" dx="0em" dy="0.3em" style="text-anchor: end; visibility: inherit; font-family: Roboto, sans-serif; font-size: 12px; font-weight: 200;" fill="rgb(50, 49, 63)" stroke="none" stroke-width="1px">200</text><text x="0" y="96.73651807337951" dx="0em" dy="0.3em" style="text-anchor: end; visibility: hidden; font-family: Roboto, sans-serif; font-size: 12px; font-weight: 200;" fill="rgb(50, 49, 63)" stroke="none" stroke-width="1px">300</text><text x="0" y="81.74776536011002" dx="0em" dy="0.3em" style="text-anchor: end; visibility: inherit; font-family: Roboto, sans-serif; font-size: 12px; font-weight: 200;" fill="rgb(50, 49, 63)" stroke="none" stroke-width="1px">400</text><text x="0" y="66.75901264684055" dx="0em" dy="0.3em" style="text-anchor: end; visibility: hidden; font-family: Roboto, sans-serif; font-size: 12px; font-weight: 200;" fill="rgb(50, 49, 63)" stroke="none" stroke-width="1px">500</text><text x="0" y="51.77025993357104" dx="0em" dy="0.3em" style="text-anchor: end; visibility: inherit; font-family: Roboto, sans-serif; font-size: 12px; font-weight: 200;" fill="rgb(50, 49, 63)" stroke="none" stroke-width="1px">600</text><text x="0" y="36.78150722030156" dx="0em" dy="0.3em" style="text-anchor: end; visibility: hidden; font-family: Roboto, sans-serif; font-size: 12px; font-weight: 200;" fill="rgb(50, 49, 63)" stroke="none" stroke-width="1px">700</text><text x="0" y="21.792754507032058" dx="0em" dy="0.3em" style="text-anchor: end; visibility: inherit; font-family: Roboto, sans-serif; font-size: 12px; font-weight: 200;" fill="rgb(50, 49, 63)" stroke="none" stroke-width="1px">800</text><text x="0" y="6.804001793762577" dx="0em" dy="0.3em" style="text-anchor: end; visibility: hidden; font-family: Roboto, sans-serif; font-size: 12px; font-weight: 200;" fill="rgb(50, 49, 63)" stroke="none" stroke-width="1px">900</text></g><line x1="51.5625" y1="0" x2="51.5625" y2="178" fill="rgb(0, 0, 0)" stroke="rgb(204, 204, 204)" stroke-width="1px"></line></g></g><g transform="translate(51, 0)" clip-path="url(#clip_0)"><clipPath id="clip_0"><rect width="278" height="178"></rect></clipPath><g><g><g><line x1="9.833111556905886" y1="0" x2="9.833111556905886" y2="178" fill="rgb(0, 0, 0)" stroke="rgb(60, 60, 60)" stroke-width="1px" opacity="0.25"></line><line x1="33.2793521951136" y1="0" x2="33.2793521951136" y2="178" fill="rgb(0, 0, 0)" stroke="rgb(60, 60, 60)" stroke-width="1px" opacity="0.25"></line><line x1="56.725592833321315" y1="0" x2="56.725592833321315" y2="178" fill="rgb(0, 0, 0)" stroke="rgb(60, 60, 60)" stroke-width="1px" opacity="0.25"></line><line x1="80.17183347152903" y1="0" x2="80.17183347152903" y2="178" fill="rgb(0, 0, 0)" stroke="rgb(60, 60, 60)" stroke-width="1px" opacity="0.25"></line><line x1="103.61807410973674" y1="0" x2="103.61807410973674" y2="178" fill="rgb(0, 0, 0)" stroke="rgb(60, 60, 60)" stroke-width="1px" opacity="0.25"></line><line x1="127.06431474794447" y1="0" x2="127.06431474794447" y2="178" fill="rgb(0, 0, 0)" stroke="rgb(60, 60, 60)" stroke-width="1px" opacity="0.25"></line><line x1="150.5105553861522" y1="0" x2="150.5105553861522" y2="178" fill="rgb(0, 0, 0)" stroke="rgb(60, 60, 60)" stroke-width="1px" opacity="0.25"></line><line x1="173.95679602435987" y1="0" x2="173.95679602435987" y2="178" fill="rgb(0, 0, 0)" stroke="rgb(60, 60, 60)" stroke-width="1px" opacity="0.25"></line><line x1="197.4030366625676" y1="0" x2="197.4030366625676" y2="178" fill="rgb(0, 0, 0)" stroke="rgb(60, 60, 60)" stroke-width="1px" opacity="0.25"></line><line x1="220.84927730077533" y1="0" x2="220.84927730077533" y2="178" fill="rgb(0, 0, 0)" stroke="rgb(60, 60, 60)" stroke-width="1px" opacity="0.25"></line><line x1="244.29551793898304" y1="0" x2="244.29551793898304" y2="178" fill="rgb(0, 0, 0)" stroke="rgb(60, 60, 60)" stroke-width="1px" opacity="0.25"></line><line x1="267.74175857719075" y1="0" x2="267.74175857719075" y2="178" fill="rgb(0, 0, 0)" stroke="rgb(60, 60, 60)" stroke-width="1px" opacity="0.25"></line></g><g><line x1="0" y1="171.68028163972699" x2="278.4375" y2="171.68028163972699" fill="rgb(0, 0, 0)" stroke="rgb(60, 60, 60)" stroke-width="1px" opacity="0.25"></line><line x1="0" y1="156.6915289264575" x2="278.4375" y2="156.6915289264575" fill="rgb(0, 0, 0)" stroke="rgb(60, 60, 60)" stroke-width="1px" opacity="0.25"></line><line x1="0" y1="141.702776213188" x2="278.4375" y2="141.702776213188" fill="rgb(0, 0, 0)" stroke="rgb(60, 60, 60)" stroke-width="1px" opacity="0.25"></line><line x1="0" y1="126.71402349991851" x2="278.4375" y2="126.71402349991851" fill="rgb(0, 0, 0)" stroke="rgb(60, 60, 60)" stroke-width="1px" opacity="0.25"></line><line x1="0" y1="111.72527078664902" x2="278.4375" y2="111.72527078664902" fill="rgb(0, 0, 0)" stroke="rgb(60, 60, 60)" stroke-width="1px" opacity="0.25"></line><line x1="0" y1="96.73651807337951" x2="278.4375" y2="96.73651807337951" fill="rgb(0, 0, 0)" stroke="rgb(60, 60, 60)" stroke-width="1px" opacity="0.25"></line><line x1="0" y1="81.74776536011002" x2="278.4375" y2="81.74776536011002" fill="rgb(0, 0, 0)" stroke="rgb(60, 60, 60)" stroke-width="1px" opacity="0.25"></line><line x1="0" y1="66.75901264684055" x2="278.4375" y2="66.75901264684055" fill="rgb(0, 0, 0)" stroke="rgb(60, 60, 60)" stroke-width="1px" opacity="0.25"></line><line x1="0" y1="51.77025993357104" x2="278.4375" y2="51.77025993357104" fill="rgb(0, 0, 0)" stroke="rgb(60, 60, 60)" stroke-width="1px" opacity="0.25"></line><line x1="0" y1="36.78150722030156" x2="278.4375" y2="36.78150722030156" fill="rgb(0, 0, 0)" stroke="rgb(60, 60, 60)" stroke-width="1px" opacity="0.25"></line><line x1="0" y1="21.792754507032058" x2="278.4375" y2="21.792754507032058" fill="rgb(0, 0, 0)" stroke="rgb(60, 60, 60)" stroke-width="1px" opacity="0.25"></line><line x1="0" y1="6.804001793762577" x2="278.4375" y2="6.804001793762577" fill="rgb(0, 0, 0)" stroke="rgb(60, 60, 60)" stroke-width="1px" opacity="0.25"></line></g></g></g><g><g><line x1="0" y1="141.702776213188" x2="278.4375" y2="141.702776213188" fill="rgb(0, 0, 0)" stroke="rgb(153, 153, 153)" stroke-width="1.5px"></line></g></g><g><g><line x1="56.725592833321315" y1="0" x2="56.725592833321315" y2="178" fill="rgb(0, 0, 0)" stroke="rgb(153, 153, 153)" stroke-width="1.5px"></line></g></g><g><g><g><g><g><path stroke="rgb(0, 119, 187)" stroke-width="2px" d="M56.960055239703394,141.2949263620001L57.19451764608547,141.56664553786575L57.42898005246755,141.37739591853017L57.54621125565859,141.51000671251998L57.78067366204067,141.52431626497417L58.01513606842274,141.50456966656785L58.13236727161378,141.3119531561521L58.24959847480482,141.1865629698269L58.36682967799585,140.71024575265332L58.4840608811869,140.69077251392244L58.60129208437793,139.73616004489577L58.71852328756898,138.63605558501712L58.83575449076001,137.9931356982223L58.95298569395105,137.53515998303305L59.070216897142096,136.5637573459339L59.18744810033313,135.99121479712636L59.42191050671521,136.693744783891L59.65637291309728,135.79845313543882L59.773604116288325,133.57773025565533L60.008066522670404,132.9446926696712L60.359760132243515,132.34188589423226L60.476991335434555,133.81204131553866L60.59422253862559,134.42865114563344L60.711453741816634,136.8160008915173L60.828684945007666,138.10376354126186L61.063147351389745,136.71213682138094L61.41484096096286,138.55401900788684L61.532072164153895,139.19173307731512L61.766534570535974,138.50438837577045L61.88376577372701,138.16042870874924L62.00099697691805,139.17412316016814L62.11822818010909,139.04527641522498L62.23545938330013,139.46335655297176L62.35269058649117,139.57311823420207L62.58715299287325,138.95159918893333L62.70438419606428,136.6525758496532L63.0560778056374,136.2458534956169L63.17330900882845,134.7307900573591L63.29054021201948,134.17588501172932L63.40777141521052,134.59124347632155L63.52500261840156,133.97498129066514L63.876696227974676,134.07730127037198L63.99392743116571,134.48174735783164L64.11115863435674,134.3412996027413L64.2283898375478,132.91383868939988L64.34562104073882,129.3947996117653L64.46285224392987,124.96979115541033L64.5800834471209,119.18915940764514L64.69731465031194,112.96580724516198L64.81454585350298,106.48255034262377L64.93177705669402,101.93998845063616L65.1662394630761,94.22921696405267L65.28347066626714,92.65220808563953L65.40070186945817,92.8677963849569L65.51793307264921,90.1631181379123L65.75239547903129,86.04676116404038L65.98685788541336,81.69169858155018L66.10408908860441,77.96666822706466L66.33855149498648,73.37375331411653L66.45578269817753,69.8141842253375L66.69024510455961,62.59827804183945L66.80747630775063,52.57320573006579L66.92470751094167,49.43120352064807L67.04193871413271,46.2013900905902L67.15916991732375,47.85816014387256L67.27640112051479,47.942912200131374L67.51086352689687,50.55210298199955L67.62809473008791,51.26086709251438L67.74532593327895,48.073195736354855L67.86255713646999,47.38156239558805L68.09701954285207,45.37862128124946L68.44871315242517,48.77650608321247L68.56594435561621,50.14158188513732L68.68317555880725,48.88316138993168L68.80040676199829,48.559965411285695L69.03486916838037,49.4130357208727L69.15210037157141,45.87248239890592L69.26933157476245,44.031534281190346L69.62102518433555,43.432828050964844L69.7382563875266,44.03921313310381L70.08994999709971,50.78874491138924L70.44164360667283,55.207138386987026L70.55887480986388,55.28715279508565L70.67610601305492,55.48968147859739L70.79333721624594,55.01060279575893L70.91056841943698,53.64133104577935L71.2622620290101,57.81050230324219L71.37949323220114,60.96803159391068L71.49672443539218,66.23541401835666L71.61395563858322,62.54100231370946L71.73118684177426,57.60971238641071L71.96564924815634,52.690811865451906L72.08288045134738,42.54162098186325L72.4345740609205,40.902833907763L72.7862676704936,42.0051322182883L72.90349887368464,46.61079204326045L73.13796128006672,50.90282448486957L73.3724236864488,51.92989427089853L73.48965488963984,53.31050161205425L73.60688609283088,54.435757222939536L73.7241172960219,58.017227227152055L73.84134849921296,51.48983571358981L73.958579702404,52.113321658316245L74.19304210878607,58.867136135265554L74.31027331197711,63.12603230216647L74.42750451516814,60.82748593324189L74.54473571835918,47.55216176984291L74.77919812474126,52.019720914952096L74.8964293279323,57.74631258942708L75.01366053112334,68.04984221387468L75.24812293750541,57.584420391124425L75.36535414069645,49.821067533767035L75.4825853438875,58.553107154907316L75.71704775026957,54.895428259225135L75.83427895346061,54.0422208506337L76.06874135984269,52.94155324944686L76.18597256303373,47.33402032134602L76.4204349694158,49.84724034490967L76.53766617260685,47.79870413537635L76.65489737579787,44.83109447399129L76.88935978217995,57.78704635417368L77.00659098537099,51.313807727159784L77.3582845949441,58.06022466902788L77.47551579813515,63.35853734395952L77.59274700132619,51.714810097036775L77.70997820451723,37.40401002021801L77.9444406108993,43.620925798542515L78.06167181409035,53.550944905227524L78.29613422047242,50.91492137982369L78.53059662685449,58.80601337270385L78.64782783004553,69.1479094144571L78.76505903323657,65.66446057623881L78.88229023642761,59.48316896782694L79.11675264280967,65.77798994093551L79.23398384600073,70.1603098030645L79.58567745557383,59.38787508303386L80.05460226833799,44.14485578424143L80.17183347152903,35.342995581288214L80.52352708110213,38.97311035820058L80.64075828429318,42.290601748944106L80.87522069067525,47.11663629585788L80.99245189386629,54.688171322493254L81.10968309705734,67.26953909513847L81.22691430024837,48.76646204492118L81.3441455034394,54.37579520292917L81.69583911301252,62.89898336020048L81.81307031620356,63.67456489163628L81.93030151939462,65.42142494786803L82.04753272258564,70.0724044354702L82.39922633215876,68.64470464488707L82.5164575353498,68.01356551209591L82.63368873854084,67.70839311211797L82.75091994173187,69.46349254607894L82.86815114492292,68.71837072603668L82.98538234811396,68.76473603149056L83.21984475449602,62.678570227608226L83.33707595768708,60.34472685377313L83.4543071608781,59.635051779014944L83.68876956726018,53.78702482944053L83.80600077045122,57.002320849553556L83.92323197364226,64.42310328001645L84.0404631768333,69.56640516608714L84.15769438002434,65.1391689998581L84.27492558321538,66.33586953086872L84.39215678640642,54.60129356579345L84.62661919278848,58.29531392301035L84.74385039597954,53.946216711686645L84.9783128023616,64.17623323755106L85.44723761512576,57.67785361903349L85.56446881831681,56.66694548669306L85.79893122469888,54.89784918051686L85.91616242788992,61.81973875113036L86.03339363108094,58.59177881837648L86.150624834272,47.271785558606L86.26785603746303,50.60802751210289L86.38508724065407,46.129383040910774L86.50231844384511,46.98220005409604L86.73678085022719,45.39019516278299L87.08847445980031,44.72655646751218L87.20570566299133,50.202608918213855L87.32293686618237,49.59442629007579L87.44016806937343,35.84698176619516L87.67463047575549,47.30285552934677L87.90909288213757,57.98490040858525L88.14355528851965,64.46944190858302L88.37801769490173,64.28391143554863L88.61248010128381,59.38012159957662L88.72971130447483,54.82226301301479L88.84694250766589,56.87671075576554L88.96417371085693,62.31209304248558L89.08140491404795,56.693120707173385L89.31586732043004,67.82872307269719L89.43309852362107,73.24088924059924L89.66756093000316,48.595638814098606L89.78479213319419,56.37269861976327L89.90202333638523,63.82841489964459L90.1364857427673,68.28328106436935L90.7226417587225,74.91941231818609L90.95710416510457,84.15440334860642L91.07433536829562,85.26343612181796L91.30879777467769,84.46167119544243L91.42602897786873,75.24930454842858L91.54326018105978,72.78323590294488L91.6604913842508,61.56027657312322L91.77772258744184,61.42594916006448L91.89495379063288,60.04987688758597L92.01218499382392,52.549981421185045L92.12941619701496,41.89214351234486L92.246647400206,40.60558614096241L92.36387860339703,56.96016277355452L92.83280341616118,61.02127099750916L92.95003461935224,57.65714347440803L93.1844970257343,55.02542457993678L93.53619063530742,60.290157266686606L93.65342183849846,46.647522939040414L93.88788424488054,50.27985904197688L94.00511544807158,53.52701659847028L94.12234665126262,51.4590752649647L94.23957785445366,51.76560261918967L94.3568090576447,52.903610150555735L94.59127146402676,55.54637976061149L94.70850266721781,56.1520982804648L94.82573387040885,38.40269094897043L94.94296507359988,53.59638233432966L95.06019627679092,61.397763573143855L95.17742747998197,62.302160533972746L95.52912108955508,59.550362173183295L95.64635229274613,65.91288458536532L95.8808146991282,64.29899139388706L96.11527710551027,64.6230854291436L96.34973951189235,70.69972729318323L96.58420191827443,69.6333356630899L96.8186643246565,23.936301239767577L96.93589552784755,34.39755155916496L97.05312673103859,47.54178804976492L97.17035793422961,43.0170009717086L97.28758913742065,53.175141111485146L97.4048203406117,60.35515694781107L97.52205154380273,66.0502251291968L97.63928274699377,71.8286211727834L97.75651395018481,71.60829110807582L97.99097635656689,72.62329571547392L98.22543876294897,78.14970876942625L98.34266996614001,82.10999600225703L98.57713237252209,75.88270656042725L98.81159477890417,73.26243094318075L98.9288259820952,78.61238493961126L99.04605718528623,71.9352777036338L99.16328838847727,78.02313227871888L99.28051959166832,75.79664533992364L99.39775079485935,77.02100553293009L99.51498199805039,76.60940094131506L99.63221320124143,74.31691753523945L99.74944440443247,74.22324141389653L99.8666756076235,73.15350606074476L99.98390681081455,70.16164112772631L100.21836921719662,77.68501724408328L100.33560042038766,80.62624170903138L100.57006282676973,75.71631463342172L100.80452523315182,71.93631617234028L100.92175643634285,72.05681239202866L101.0389876395339,79.39099680395499L101.15621884272494,72.19054801374128L101.27345004591596,71.54836320649086L101.50791245229806,71.65678858844183L101.62514365548908,73.2412967602131L101.85960606187116,67.1452245423324L101.9768372650622,64.4520780754999L102.09406846825324,75.21294795784969L102.21129967144428,78.54526233116765L102.32853087463532,78.9636383312976L102.5629932810174,74.31060723716688L102.68022448420844,79.23878431461264L102.79745568739946,77.86229771963667L102.91468689059052,76.0179540127901L103.26638050016362,67.42080935490216L103.5008429065457,66.6936545420025L103.61807410973674,58.63490007060997L103.85253651611882,71.45141622440562L103.96976771930986,71.56558288064892L104.0869989225009,74.76713435496393L104.32146132888298,77.20958427078013L104.43869253207401,79.78138193467908L104.6731549384561,73.04076206341347L104.90761734483817,67.23233947387004L105.49377336079336,65.06752086207679L105.61100456398441,71.9346143812723L105.96269817355751,63.67357427144737L106.07992937674855,70.52117431502717L106.19716057993959,58.130868205899915L106.31439178313063,46.23653559603285L106.43162298632166,55.43530996159502L106.54885418951271,54.982927597395594L106.78331659589477,54.2821993108098L107.01777900227687,40.09010535513447L107.25224140865893,46.742584202470496L107.48670381504103,45.329609460291366L107.83839742461414,57.32277371556625L107.95562862780517,56.793439173446025L108.19009103418725,56.637098209074026L108.30732223737827,54.81179666454325L108.42455344056933,53.73565010729544L108.54178464376037,63.66667947051929L108.65901584695139,71.39899540580912L108.89347825333348,56.65303619278885L109.01070945652451,58.65768317739007L109.2451718629066,69.91913503646825L109.36240306609764,84.75632540569725L109.47963426928867,84.013574927685L109.5968654724797,73.15737550658591L109.71409667567076,68.39452520120432L109.83132787886179,51.78402661437827L110.06579028524386,56.090782618368834L110.1830214884349,56.40815734230089L110.41748389481698,60.89984665554441L110.53471509800801,63.79322024980141L110.65194630119906,65.95240798271557L110.7691775043901,67.2791300988258L110.88640870758113,61.7112424422662L111.00363991077216,56.24101479183788L111.12087111396322,46.14977993553784L111.23810231715424,54.16262844316602L111.35533352034528,65.19513573802453L111.47256472353634,64.00749957404334L111.58979592672738,62.50626913602016L111.7070271299184,63.58611325943688L111.82425833310944,58.972476005448804L111.9414895363005,62.67699893332008L112.05872073949152,61.072044753347605L112.2931831458736,63.725932505266094L112.41041434906464,68.12382791559995L112.76210795863774,67.39626602328292L112.8793391618288,63.90833325941492L113.34826397459295,58.23341461484258L113.69995758416606,66.14730692482044L113.81718878735711,64.89711610892174L114.05165119373918,71.21982309639958L114.16888239693021,75.1221450865049L114.4033448033123,63.45928930859531L114.52057600650333,69.60670535517558L114.63780720969436,70.42320364407438L114.98950081926748,69.75280509380062L115.10673202245852,65.59929333738658L115.3411944288406,62.423026818556394L115.81011924160475,65.64888453009716L115.92735044479579,66.76004604306904L116.16181285117787,72.06864133983329L116.27904405436891,76.36571186611901L116.39627525755995,75.47932431520772L116.51350646075099,77.35842891450396L116.63073766394203,56.95710415002996L116.74796886713307,51.949778364249454L116.8652000703241,54.853447068482474L117.09966247670619,56.87292187979879L117.21689367989721,62.683787593867095L117.33412488308825,61.670076496713044L117.4513560862793,61.270216161367244L117.56858728947033,65.31811854764983L117.68581849266137,65.01156524349052L117.80304969585241,70.67338305836803L118.15474330542553,68.88690029649165L118.27197450861655,70.06613483430819L118.3892057118076,67.8988654374005L119.09259293095383,74.90979987981903L119.32705533733592,65.48962233606773L119.44428654052695,68.62915177666726L119.56151774371799,72.09618438057991L119.67874894690904,67.0206659235417L119.79598015010006,64.38107575846777L119.9132113532911,69.68265412852442L120.03044255648214,72.54829826463154L120.14767375967318,75.45525830705363L120.26490496286422,71.76140679174888L120.38213616605526,76.29587571838792L120.49936736924629,75.97063871594209L120.61659857243734,72.6914570019753L120.73382977562838,82.49520569377196L120.85106097881942,81.88339133081833L120.96829218201044,75.96090100143053L121.0855233852015,70.3079675921849L121.20275458839254,74.45151790626562L121.4372169947746,68.03636925984907L121.55444819796566,76.88948739716209L121.67167940115668,71.57579067889127L121.90614180753876,73.38504675541661L122.14060421392084,74.80664221743058L122.3750666203029,63.78556645250665L122.49229782349396,56.10536453211918L122.84399143306706,43.449381290646414L122.96122263625811,42.12397279784578L123.07845383944915,44.85928026884973L123.31291624583123,49.73198667703034L123.43014744902227,58.798219066645906L123.5473786522133,58.295749249354635L123.78184105859539,57.271176487477526L123.89907226178642,49.97490140329439L124.01630346497745,45.56055719250502L124.1335346681685,40.728230931484056L124.36799707455057,38.13818857218648L124.48522827774161,46.5203677729244L124.60245948093264,35.499922612859834L124.71969068412369,40.61637257796217L124.83692188731473,44.75926203384755L124.95415309050576,49.69427302073935L125.0713842936968,59.452344336070006L125.18861549688785,65.14709784998453L125.30584670007887,58.11354145327855L125.42307790326991,48.38808137731981L125.54030910646095,48.86227220937772L125.657540309652,60.092504836678984L125.77477151284303,60.76129844841829L126.12646512241615,59.57689017474209L126.24369632560719,43.49675955568502L126.36092752879823,47.35747481077947L126.59538993518031,42.98690715641927L126.71262113837135,32.995601858130605L126.82985234156237,45.978772375857645L126.94708354475343,43.88711481091414L127.18154595113549,48.63581029857594L127.29877715432653,54.74777241108404L127.41600835751758,64.82016892755382L127.53323956070861,61.66079046513898L127.65047076389965,59.71976196373358L127.88493317028174,54.5690333344245L128.1193955766638,54.86083517751832L128.35385798304588,46.13579869459989L128.47108918623692,25.288762927481297L128.58832038942796,15.078233719638577L128.94001399900108,34.47975362167695L129.4089388117652,44.08894715063368L129.52617001495628,51.444353527937814L129.64340121814732,53.36938171861016L129.76063242133833,55.212526203689784L129.87786362452937,51.626672935851055L130.11232603091148,65.19461511077526L130.2295572341025,66.3356830786735L130.5812508436756,50.32884318928278L130.69848204686664,39.181060305093375L130.93294445324872,55.70434944346747L131.1674068596308,73.05778543716333L131.28463806282184,72.47548138669336L131.63633167239496,77.95252222442828L131.753562875586,68.4289319568834L131.87079407877704,66.48055150590402L131.98802528196808,70.85752164849738L132.10525648515912,68.21003898418644L132.22248768835016,67.7228944638953L132.3397188915412,72.19790442101497L132.45695009473224,74.75265334013538L132.57418129792327,70.66126360628992L132.6914125011143,71.10292727697869L132.80864370430535,65.5162441019229L132.9258749074964,64.93790606553274L133.04310611068743,65.93757171763183L133.16033731387847,63.96477494397781L133.2775685170695,67.43745272787505L133.39479972026055,71.90727436924023L133.74649332983367,66.734624944165L133.86372453302468,74.55174017047254L134.0981869394068,75.11089842262476L134.33264934578884,67.85383554415637L134.4498805489799,67.84511212845966L134.56711175217092,69.99575413369365L134.68434295536196,47.91452027101781L134.801574158553,54.94314937753395L134.91880536174406,66.44306180216724L135.03603656493507,64.3370164998812L135.1532677681261,60.89001083099742L135.27049897131715,59.78190314884813L135.50496137769923,52.377831965180725L135.62219258089027,48.21539356020739L135.7394237840813,23.09289630257912L135.85665498727235,-0.2194935451003679L135.9738861904634,12.1826318971532L136.20834859684547,36.84865964599535L136.3255798000365,40.982215587401846L136.44281100322755,48.4213324921862L136.5600422064186,56.070457223308L136.67727340960963,60.431967137086616L136.79450461280067,63.96576715740135L136.9117358159917,60.80442858242346L137.02896701918274,55.32006471583454L137.14619822237378,58.2493335112603L137.26342942556482,56.43138623756483L137.38066062875586,50.59728447451894L137.4978918319469,47.81083170051449L137.6151230351379,42.58764690803832L137.96681664471103,51.59663761664416L138.20127905109314,47.48172648779216L138.4357414574752,55.18350050980969L138.7874350670483,59.73233333846031L138.90466627023935,61.96063719904338L139.02189747343039,67.79802788659718L139.13912867662143,70.27543144288018L139.25635987981246,64.42253613861502L139.3735910830035,62.37753308459471L139.49082228619457,69.9600636036663L139.60805348938558,67.40432075988053L139.72528469257662,67.63915929027809L139.84251589576766,64.76746639767988L139.9597470989587,69.36346309000487L140.07697830214974,54.49921607595719L140.19420950534078,52.069657400051824L140.5459031149139,66.22302214291247L140.66313431810494,66.93011585139932L140.78036552129598,67.63151264730331L141.01482792767806,70.07840878760953L141.13205913086907,61.155894305842914L141.36652153725117,69.87028725409016L141.4837527404422,81.01537422774265L141.60098394363325,77.4618037479507L141.7182151468243,78.54881119011766L141.8354463500153,73.5186812547456L141.95267755320634,70.08650890497239L142.3043711627795,60.183969259950764L142.42160236597053,66.39626692744264L142.53883356916154,69.40543119410997L143.0077583819257,68.1168921021129L143.12498958511677,67.11905943325907L143.35945199149882,70.95507765143454L143.47668319468985,67.25117009037506L143.5939143978809,64.74558538364819L143.71114560107193,64.18915159902784L143.94560800745404,64.06854806494555L144.1800704138361,66.55936924372602L144.29730161702713,75.65415561276252L144.41453282021817,70.79882125996762L144.64899522660025,77.6046680805019L144.76622642979126,81.92131853586429L144.8834576329823,88.12508149898777L145.00068883617337,85.77668189197078L145.1179200393644,83.29851366317794L145.23515124255545,85.18611318858171L145.35238244574649,86.52498240413159L145.46961364893752,82.52883610008828L145.82130725851064,81.8522391403828L145.93853846170168,83.7982525555129L146.17300086808376,82.5729012414579L146.29023207127477,72.02784864189086L146.4074632744658,69.76253462639556L146.52469447765685,75.94961771568074L146.6419256808479,65.37733047503711L146.75915688403896,60.130136204493574L146.993619290421,57.720762780104565L147.11085049361205,45.14685006461238L147.2280816968031,58.289965529692765L147.34531289999413,61.77429213468617L147.46254410318517,61.75771504427587L147.5797753063762,67.45451821345677L147.69700650956727,52.43162016500592L147.81423771275828,44.43004972217878L148.1659313223314,35.503720121974006L148.28316252552244,48.75068515282682L148.5176249319045,53.92457487426174L148.63485613509556,53.42657570959202L148.7520873382866,58.018287312743844L148.86931854147764,57.34573609237373L149.10378094785972,58.71898701082505L149.33824335424177,48.189915060523866L149.45547455743284,56.15639315648164L149.57270576062388,51.42660548150382L149.68993696381492,60.887683384099006L149.80716816700595,61.84234703469113L149.924399370197,53.42141973312304L150.041630573388,52.772911856748955L150.15886177657904,47.6233709500397L150.39332418296115,45.29589113059158L150.5105553861522,55.58683022215493L150.62778658934323,61.35739680759032L150.86224899572528,50.912609347564434L151.09671140210736,55.15561204114031L151.2139426052984,55.9917894194491L151.33117380848947,58.270874839067005L151.44840501168048,43.176461213211354L151.56563621487152,55.59932476560865L151.68286741806256,60.073537780222274L151.91732982444464,70.95661317516584L152.03456102763568,72.84073042181018L152.15179223082674,65.51433610126857L152.3862546372088,72.88487450270544L152.50348584039983,67.25834906087496L152.7379482467819,73.84768351244976L153.08964185635503,70.38947577277203L153.3241042627371,60.94401398489025L153.44133546592815,65.88102602055169L153.5585666691192,75.42467113364847L153.91026027869228,71.52239115889466L154.02749148188335,74.90632635011224L154.26195388826542,75.10491000667932L154.37918509145646,71.2542666243997L154.6136474978385,71.11838052425115L154.73087870102955,69.74418652093722L154.8481099042206,62.09317906334288L155.0825723106027,71.30879588754539L155.1998035137937,78.40574677694262L155.55149712336683,81.21625440330824L155.66872832655787,79.32041245310063L155.90319073293995,79.75282167018645L156.020421936131,69.4474392165227L156.13765313932203,72.29018268745456L156.25488434251307,75.14465034903469L156.48934674889514,73.37269254025821L156.60657795208618,73.38375627071088L156.7238091552772,76.485647088203L156.84104035846826,81.87160768529789L157.07550276485034,71.7822301691848L157.30996517123242,68.16151408672773L157.54442757761447,70.05305502685182L157.66165878080554,79.73285239190022L157.77888998399658,76.62452445233731L157.89612118718762,73.91226114590977L158.01335239037866,76.22010603314L158.4822772031428,83.42374074455232L158.59950840633385,79.31390703846007L158.7167396095249,83.5111910429129L158.83397081271593,83.21550924917675L158.95120201590694,83.022623875275L159.18566442228902,84.16621595983852L159.30289562548006,82.55269961121869L159.42012682867113,89.87257346295681L159.53735803186217,91.64260926126913L159.65458923505318,89.88109088670872L159.77182043824422,86.84284419340085L159.88905164143526,75.97812740848316L160.0062828446263,55.625274866708615L160.12351404781734,66.51951140109114L160.24074525100838,48.83794085570236L160.47520765739046,38.404710388126745L160.5924388605815,46.26719532580122L160.70967006377253,59.165872613422366L160.82690126696357,49.09589775931719L160.9441324701546,-342.37679025513705L163.4059877371664,-9.007469488658181L163.52321894035745,5.499835587545672L163.6404501435485,-11.446234618566232L163.75768134673953,-0.9700108116077772L163.87491254993057,7.300162741123952L164.10937495631265,-6.250545546487055L164.2266061595037,-2.3742199701446913L164.34383736269473,5.090505624934924L164.46106856588577,13.952833992292557L164.69553097226785,7.777648820627114L164.81276217545886,-0.5297558562618399L164.92999337864993,7.0280509435953675L165.04722458184096,-1.7828752113399422L165.164455785032,8.431079445113875L165.28168698822304,15.286903162305306L165.86784300417824,24.261229874554978L165.98507420736928,35.67545847082572L166.10230541056032,40.331319983905864L166.21953661375136,40.285284440806116L166.33676781694237,41.00509915388274L166.4539990201334,44.87444127083754L166.6884614265155,37.684864638059L166.9229238328976,39.51233812169099L167.27461744247069,41.82052562443011L167.39184864566172,42.73977972605014L167.50907984885276,53.29245264611281L167.62631105204383,58.04743502045069L167.97800466161692,63.353899014129524L168.09523586480796,64.03458315977224L168.32969827119004,65.23382357761636L168.44692947438108,66.42383633802211L168.56416067757212,69.04702204235221L168.68139188076316,68.49201018955836L168.91585428714524,69.93169487113468L169.03308549033628,66.37001564315617L169.15031669352732,66.0454814679969L169.26754789671833,71.85387982337379L169.38477909990937,73.47701590390646L169.50201030310043,73.00971417798809L169.61924150629147,77.25774520349881L169.7364727094825,79.40930428756245L169.85370391267355,77.97045617293365L170.0881663190556,74.01368017651949L170.20539752224664,76.74820009511967L170.43985992862875,81.22927645746991L170.67432233501083,80.00893048287291L170.79155353820184,79.20837911180786L171.02601594458392,73.69933014506853L171.26047835096603,68.70119046254429L171.37770955415706,75.21426600018448L171.49494075734808,80.44195420078174L171.61217196053911,77.18212428650891L171.96386557011223,76.72963925347169L172.08109677330327,82.53686371811052L172.1983279764943,76.75972023894543L172.31555917968535,66.438898985792L172.55002158606743,74.4845570070687L172.66725278925847,74.03239847725837L172.7844839924495,75.41140979507495L172.90171519564055,80.09540570171788L173.01894639883156,82.73163934787414L173.3706400084047,74.19504464354904L173.60510241478678,79.01787316916688L173.7223336179778,78.57053781017478L173.95679602435987,70.736990540779L174.07402722755094,68.94466493431095L174.30848963393302,63.87965922440815L174.42572083712403,68.78866635967195L174.54295204031507,65.42010033511608L174.6601832435061,68.80006301209936L174.89464564988822,67.84360413516517L175.01187685307926,74.51741302787693L175.1291080562703,74.53609131566685L175.36357046265235,71.36736935684795L175.4808016658434,67.184043828642L175.59803286903443,73.48540102752638L175.71526407222547,77.8313580963214L175.94972647860754,71.66255461741348L176.06695768179858,63.77861410555029L176.30142008818066,62.297954580734306L176.65311369775375,68.49668819640158L176.88757610413586,75.77110968036953L177.0048073073269,75.5848116449697L177.12203851051794,78.70345162553149L177.23926971370898,83.68724967940771L177.47373212009103,77.58360127292003L177.70819452647314,63.01229989000246L177.82542572966418,64.0853900743627L177.94265693285521,65.56437906635425L178.05988813604625,73.83296126846128L178.17711933923727,75.2383689825412L178.2943505424283,67.84226112420272L178.41158174561934,71.62096142952835L178.5288129488104,59.762817240091465L178.64604415200145,67.29990076371601L178.99773776157454,74.85193387642528L179.11496896476558,77.73025139961923L179.23220016795662,75.12753573093859L179.70112498072078,75.39374628128931L179.81835618391182,72.38703537606399L179.93558738710286,70.26414740335196L180.0528185902939,75.00221585693964L180.17004979348494,78.03404085407985L180.404512199867,77.78919802274034L180.52174340305805,74.46584905696488L180.6389746062491,69.18651871367189L180.75620580944013,75.6979266545115L180.87343701263117,77.99734518284983L181.45959302858637,79.20621491858184L181.5768242317774,86.05809347145478L181.69405543496845,85.4979315908781L181.81128663815946,74.99739946843343L181.9285178413505,70.77737915893024L182.04574904454154,60.36388680363816L182.28021145092364,68.90576708366085L182.39744265411468,72.84070675830061L182.51467385730572,70.86802560809619L182.63190506049673,69.3831790978751L182.74913626368777,74.8014108621205L182.8663674668788,70.4910580026444L182.98359867006985,72.7511780340912L183.10082987326092,73.59666307650201L183.21806107645196,71.35258501493722L183.452523482834,71.8462372853864L183.56975468602505,65.99868633473861L183.6869858892161,70.02077836641489L183.80421709240713,70.37376451351453L183.92144829559817,69.57904422918705L184.0386794987892,70.91955238562167L184.15591070198025,74.2691031888899L184.39037310836233,79.05087942913852L184.6248355147444,84.29239795839719L184.74206671793544,82.2624447623479L184.85929792112645,84.82826279922199L184.97652912431752,87.43561438147626L185.09376032750856,90.40162463527821L185.32822273389064,83.27180327193747L185.5626851402727,77.69600604556874L185.67991634346373,81.81023868478617L185.91437874984584,85.1741091201096L186.14884115622792,82.72612104855277L186.26607235941893,85.02492759821166L186.38330356260997,80.87682592162265L186.61776596899205,74.33229999544038L186.9694595785652,76.66017134152827L187.0866907817562,72.07916940636132L187.43838439132932,71.84644743905484L187.55561559452036,74.69342297185976L187.67284679771143,70.6283252627142L188.02454040728452,66.31496377946281L188.14177161047556,77.04551820912911L188.37623401685764,76.38351734124872L188.49346522004865,74.34584925637166L188.61069642323972,73.11173028764837L188.72792762643076,77.87335873296294L188.8451588296218,55.824477515052536L188.96239003281283,68.70012182217535L189.07962123600387,69.53942436068239L189.1968524391949,65.92739938818805L189.31408364238592,71.94733818126835L189.43131484557696,67.90232928807946L189.66577725195907,72.36100350589841L189.7830084551501,65.42359627832406L189.90023965834115,74.38854973553352L190.25193326791424,70.4126068148966L190.3691644711053,72.96212939704922L190.6036268774874,73.28831735452631L190.7208580806784,79.9190617884041L190.83808928386944,81.0870280456349L190.95532048706048,84.34023321428809L191.18978289344255,77.14876476056888L191.30701409663362,72.89635547453774L191.54147650301567,71.59553398149791L191.6587077062067,77.09337529932232L191.77593890939775,73.86138429760294L191.8931701125888,71.16242076604058L192.01040131577983,66.42276975616048L192.1276325189709,63.440247879476175L192.2448637221619,63.71786377081248L192.36209492535295,68.59087712859821L192.479326128544,66.47413391824243L192.59655733173503,65.23539686255278L192.71378853492607,63.17935766791828L192.8310197381171,58.44738527150906L192.94825094130812,60.23736559481459L193.06548214449916,67.05466271136092L193.29994455088126,71.98517420476733L193.4171757540723,65.09692313973454L193.53440695726334,70.48972580256998L193.65163816045438,63.72486121689914L193.88610056683643,68.04268793000507L194.0033317700275,65.64913587335016L194.47225658279163,52.524440526173656L194.82395019236475,59.31974148316967L195.05841259874686,62.387957766596344L195.17564380193787,54.52204172574922L195.2928750051289,58.74784494251202L195.41010620831995,63.097514166182094L195.52733741151098,65.61648217866832L195.76179981789306,66.72540167553947L195.87903102108413,62.18152418992259L195.99626222427514,64.09605047592278L196.11349342746618,55.86851032378674L196.23072463065722,55.30601982924757L196.4651870370393,45.5990044904067L196.58241824023034,50.609544299405066L196.69964944342135,58.57318019861721L196.81688064661242,63.63440973506775L196.93411184980346,67.43150046287474L197.0513430529945,69.96334441477634L197.16857425618554,74.53341772260285L197.28580545937658,66.68465234677906L197.4030366625676,61.48009624445145L197.52026786575863,66.44824527093402L197.6374990689497,74.4834209101543L197.87196147533177,78.29658525163565L197.9891926785228,79.06444670232868L198.22365508490486,77.72182342346048L198.3408862880959,73.96852269462946L198.45811749128694,77.36577438734511L198.69257989766905,77.03491726134475L198.8098111008601,72.15753679024002L198.9270423040511,68.32836391601148L199.04427350724214,76.21858672427975L199.16150471043318,80.58429621556753L199.27873591362422,71.74528317261L199.74766072638837,66.851724412303L199.98212313277045,74.9359549552538L200.33381674234354,75.92470193375773L200.4510479455346,71.4290050309892L200.56827914872565,58.59866169978548L200.6855103519167,63.98547464681762L200.80274155510773,73.81534657290774L200.91997275829877,80.73918845018095L201.15443516468082,83.85028392724733L201.2716663678719,85.44933463595859L201.38889757106293,82.49499347369077L201.50612877425397,70.62318372282192L201.623359977445,76.14153702187755L201.74059118063605,67.27645976759527L201.85782238382706,73.82018868619708L201.9750535870181,77.18500555146916L202.09228479020913,74.69793526303604L202.2095159934002,71.2835742329969L202.44397839978228,69.38937966148757L202.5612096029733,76.19501207942018L202.67844080616433,74.96949740944193L202.9129032125464,81.7896574218543L203.03013441573745,84.59517856580015L203.14736561892852,77.16185259601596L203.26459682211956,73.53487603521111L203.38182802531057,75.648184352823L203.4990592285016,80.78579723071226L203.7335216348837,72.69877972039578L203.85075283807473,74.45555187150687L203.9679840412658,70.87522085137722L204.0852152444568,70.3143567423917L204.20244644764784,70.67665071099897L204.31967765083888,68.1307691481805L204.43690885402992,66.04199158120976L204.671371260412,69.24409282271219L204.788602463603,73.31524579528057L204.90583366679405,70.07842971185892L205.02306486998512,64.57310984669537L205.14029607317616,62.14439048979751L205.2575272763672,69.181627812296L205.37475847955824,70.4805452145716L205.49198968274928,68.14393589088684L205.6092208859403,70.89111124557297L205.8436832923224,71.97449310408649L205.96091449551344,66.45354277703771L206.19537690189551,70.5853734750374L206.66430171465964,74.36488639451771L206.7815329178507,69.28959799564934L207.01599532423276,68.81591483362959L207.1332265274238,67.11661550898036L207.25045773061484,63.84110519901421L207.48492013699692,65.68157272127533L207.71938254337903,68.02715599350546L207.83661374657004,74.4152884359547L207.95384494976108,63.73194147690255L208.18830735614316,59.930036655317366L208.3055385593342,63.939843620614454L208.42276976252523,62.712079149386135L208.54000096571625,61.32932805816038L208.77446337209835,58.88855264486037L208.8916945752894,73.5768198724061L209.00892577848043,75.33157770555879L209.12615698167147,75.92512724412659L209.24338818486248,80.45221993902763L209.4778505912446,73.53325466770593L209.59508179443563,76.45207912842103L209.71231299762667,74.97514264780395L209.94677540400875,69.05134266859756L210.06400660719976,69.72868420958211L210.4157002167729,68.1776368206904L210.53293141996394,74.72532733145783L210.65016262315498,68.66304775151863L210.767393826346,65.54884041111173L211.00185623272807,64.6668801500187L211.1190874359191,65.42503683016834L211.23631863911018,52.47582607008189L211.35354984230122,27.206414363067562L211.47078104549223,17.547484574664704L211.58801224868327,30.098321934775726L211.7052434518743,35.54169742336667L211.82247465506535,35.745642477860144L212.05693706144743,49.31241208476706L212.1741682646385,48.587963222478585L212.2913994678295,46.056440689754396L212.40863067102055,51.935545402198606L212.52586187421159,51.82240187348416L212.64309307740263,51.466375249163896L212.76032428059366,58.064954151864136L212.99478668697571,54.75753733677027L213.11201789016678,54.49756154006838L213.22924909335782,56.072324701044494L213.34648029654886,61.28063816243869L213.4637114997399,65.02819731130418L213.58094270293094,68.97939065805427L213.93263631250403,67.3525452745898L214.16709871888614,69.52153810553123L214.28432992207718,66.61837356031592L214.40156112526822,68.22062157531596L214.51879232845923,67.5644955707941L214.63602353165027,73.30807128473461L214.7532547348413,73.33515232716395L214.87048593803235,73.56424765271824L214.9877171412234,62.84697885505172L215.10494834441445,49.06584374639361L215.22217954760546,48.824545429699064L215.57387315717858,63.60401920173176L215.69110436036962,68.01259847126224L216.04279796994274,79.16125978663382L216.16002917313378,81.02876047071086L216.27726037632482,76.6772532933957L216.39449157951586,73.47352504546343L216.5117227827069,69.31762878172866L216.62895398589794,73.71333017396519L216.86341639228002,76.17521080469619L216.98064759547105,81.78477847232139L217.0978787986621,82.92080566059497L217.21511000185313,83.11925099096347L217.33234120504417,84.59105057201626L217.44957240823518,82.43534880532096L217.56680361142622,78.93842768064367L217.80126601780833,78.39922206895528L217.91849722099937,74.27924389665823L218.0357284241904,65.26744769920106L218.27019083057246,66.70405166743544L218.3874220337635,68.77949491494591L218.50465323695454,74.09422794200906L218.73911564333665,70.74631600850044L218.85634684652769,65.54988879901984" style="fill: none;" fill="none"></path></g></g></g></g><g opacity="0.2"><g><g><g><path stroke="rgb(0, 119, 187)" stroke-width="2px" d="M56.960055239703394,141.2949263620001L57.19451764608547,141.70250512579858L57.42898005246755,141.23545870402847L57.54621125565859,141.62604115726108L57.78067366204067,141.5377314704L58.01513606842274,141.48544014936172L58.13236727161378,141.12234627871163L58.24959847480482,141.06215239433234L58.36682967799585,140.2357891496093L58.4840608811869,140.67133730886096L58.60129208437793,138.78247981460842L58.71852328756898,137.53648828551928L58.83575449076001,137.3503727742905L58.95298569395105,137.0772401730825L59.070216897142096,135.5924139985465L59.18744810033313,135.41868972093076L59.42191050671521,137.39626405089874L59.65637291309728,134.90316831751986L59.773604116288325,131.35701584725732L60.008066522670404,132.31165629111047L60.359760132243515,131.73907969367465L60.476991335434555,135.2821960358203L60.59422253862559,135.04526082871703L60.711453741816634,139.20335035280684L60.828684945007666,139.3915261142498L61.063147351389745,135.32051014297377L61.41484096096286,140.39590116694654L61.532072164153895,139.82944714199206L61.766534570535974,137.8170436767863L61.88376577372701,137.8164690423687L62.00099697691805,140.18781761064295L62.11822818010909,138.9164296703418L62.23545938330013,139.88143669062117L62.35269058649117,139.6828799154196L62.58715299287325,138.3300801437008L62.70438419606428,134.35355251044L63.0560778056374,135.83913114158648L63.17330900882845,133.2157266191123L63.29054021201948,133.62097996610154L63.40777141521052,135.00660194091301L63.52500261840156,133.35871910500927L63.876696227974676,134.17962125007878L63.99392743116571,134.88619344529118L64.11115863435674,134.20085184765097L64.2283898375478,131.4863777760585L64.34562104073882,125.87576053413089L64.46285224392987,120.54478269905536L64.5800834471209,113.40852765988002L64.69731465031194,106.74245508267883L64.81454585350298,99.9992934400856L64.93177705669402,97.39742655864853L65.1662394630761,86.51844547746921L65.28347066626714,91.07519920722639L65.40070186945817,93.08338468427426L65.51793307264921,87.4584398908677L65.75239547903129,81.93040419016845L65.98685788541336,77.33663599906001L66.10408908860441,74.24163787257918L66.33855149498648,68.78083840116837L66.45578269817753,66.25461513655847L66.69024510455961,55.3823718583414L66.80747630775063,42.548133418292096L66.92470751094167,46.28920131123035L67.04193871413271,42.971576660532335L67.15916991732375,49.514930197154904L67.27640112051479,48.02766425639019L67.51086352689687,53.161293763867704L67.62809473008791,51.969631203029216L67.74532593327895,44.88552438019531L67.86255713646999,46.689929054821256L68.09701954285207,43.37568016691083L68.44871315242517,52.174390885175455L68.56594435561621,51.50665768706217L68.68317555880725,47.62474089472605L68.80040676199829,48.236769432639704L69.03486916838037,50.2661060304597L69.15210037157141,42.33192907693915L69.26933157476245,42.19058616347476L69.62102518433555,42.83412182073933L69.7382563875266,44.645598215242785L70.08994999709971,57.53827668967465L70.44164360667283,59.62553186258479L70.55887480986388,55.36716720318426L70.67610601305492,55.69221016210912L70.79333721624594,54.531524112920486L70.91056841943698,52.27205929579977L71.2622620290101,61.97967356070505L71.37949323220114,64.12556088457916L71.49672443539218,71.50279644280262L71.61395563858322,58.84659060906227L71.73118684177426,52.678422459111985L71.96564924815634,47.77191134449312L72.08288045134738,32.392430098274566L72.4345740609205,39.264046833662725L72.7862676704936,43.107430528813616L72.90349887368464,51.216451868232625L73.13796128006672,55.194856926478685L73.3724236864488,52.95696405692747L73.48965488963984,54.69110895320997L73.60688609283088,55.561012833824805L73.7241172960219,61.59869723136459L73.84134849921296,44.962444200027576L73.958579702404,52.7368076030427L74.19304210878607,65.62095061221486L74.31027331197711,67.38492846906739L74.42750451516814,58.528939564317305L74.54473571835918,34.27683760644392L74.77919812474126,56.48728006006128L74.8964293279323,63.47290426390206L75.01366053112334,78.3533718383223L75.24812293750541,47.11899856837414L75.36535414069645,42.05771467640964L75.4825853438875,67.2851467760476L75.71704775026957,51.23774936354297L75.83427895346061,53.189013442042274L76.06874135984269,51.840885648260034L76.18597256303373,41.72648739324519L76.4204349694158,52.360460368473305L76.53766617260685,45.750167925843044L76.65489737579787,41.86348481260628L76.88935978217995,70.74299823435607L77.00659098537099,44.84056910014586L77.3582845949441,64.80664161089598L77.47551579813515,68.65685001889118L77.59274700132619,40.07108285011402L77.70997820451723,23.093209943399224L77.9444406108993,49.837841576867L78.06167181409035,63.48096401191255L78.29613422047242,48.27889785441985L78.53059662685449,66.69710536558402L78.64782783004553,79.48980545621035L78.76505903323657,62.18101173802049L78.88229023642761,53.30187735941507L79.11675264280967,72.0728109140441L79.23398384600073,74.54262966519349L79.58567745557383,48.61544036300325L80.05460226833799,28.901836485449L80.17183347152903,26.54113537833496L80.52352708110213,42.603225135112964L80.64075828429318,45.608093139687604L80.87522069067525,51.942670842771655L80.99245189386629,62.25970634912863L81.10968309705734,79.85090686778372L81.22691430024837,30.263384994703877L81.3441455034394,59.985128360937146L81.69583911301252,71.42217151747177L81.81307031620356,64.45014642307207L81.93030151939462,67.16828500409977L82.04753272258564,74.72338392307238L82.39922633215876,67.21700485430395L82.5164575353498,67.38242637930477L82.63368873854084,67.40322071214001L82.75091994173187,71.21859198003989L82.86815114492292,67.97324890599444L82.98538234811396,68.8111013369444L83.21984475449602,56.59240442372594L83.33707595768708,58.01088347993801L83.4543071608781,58.92537670425676L83.68876956726018,47.938997879866136L83.80600077045122,60.2176168696666L83.92323197364226,71.84388571047933L84.0404631768333,74.70970705215787L84.15769438002434,60.71193283362905L84.27492558321538,67.53257006187934L84.39215678640642,42.8667176007182L84.62661919278848,61.98933428022726L84.74385039597954,49.59711950036292L84.9783128023616,74.40624976341549L85.44723761512576,51.17947400051593L85.56446881831681,55.656037354352605L85.79893122469888,53.12875287434066L85.91616242788992,68.74162832174389L86.03339363108094,55.363818885622585L86.150624834272,35.951792298835514L86.26785603746303,53.94426946559981L86.38508724065407,41.65073856971864L86.50231844384511,47.83501706728128L86.73678085022719,43.798190271469934L87.08847445980031,44.06291777224135L87.20570566299133,55.678661368915535L87.32293686618237,48.98624366193772L87.44016806937343,22.099537242314522L87.67463047575549,58.758729292498394L87.90909288213757,68.66694528782372L88.14355528851965,70.95398340858078L88.37801769490173,64.09838096251426L88.61248010128381,54.476331763604605L88.72971130447483,50.26440442645294L88.84694250766589,58.931158498516275L88.96417371085693,67.74747532920564L89.08140491404795,51.07414837186121L89.31586732043004,78.96432543822094L89.43309852362107,78.6530554085013L89.66756093000316,23.950388387597968L89.78479213319419,64.1497584254279L89.90202333638523,71.2841311795259L90.1364857427673,72.73814722909411L90.7226417587225,81.55554357200282L90.95710416510457,93.38939437902677L91.07433536829562,86.37246889502946L91.30879777467769,83.65990626906691L91.42602897786873,66.03693790141473L91.54326018105978,70.31716725746121L91.6604913842508,50.33731724330155L91.77772258744184,61.29162174700571L91.89495379063288,58.67380461510748L92.01218499382392,45.05008595478412L92.12941619701496,31.234305603504698L92.246647400206,39.31902876957993L92.36387860339703,73.31473940614666L92.83280341616118,65.0823792214638L92.95003461935224,54.29301595130694L93.1844970257343,52.39370568546551L93.53619063530742,65.55488995343646L93.65342183849846,33.004888611394215L93.88788424488054,53.91219514491334L94.00511544807158,56.77417415496371L94.12234665126262,49.391133931459144L94.23957785445366,52.07212997341464L94.3568090576447,54.04161768192178L94.59127146402676,58.18914937066724L94.70850266721781,56.757816800318125L94.82573387040885,20.653283617476045L94.94296507359988,68.79007371968889L95.06019627679092,69.19914481195809L95.17742747998197,63.20655749480164L95.52912108955508,56.79856381239386L95.64635229274613,72.27540699754734L95.8808146991282,62.685098202408845L96.11527710551027,64.94717946440016L96.34973951189235,76.77636915722282L96.58420191827443,68.5669440329966L96.8186643246565,-21.760733183554745L96.93589552784755,44.858801878562346L97.05312673103859,60.68602454036489L97.17035793422961,38.49221389365228L97.28758913742065,63.33328125126174L97.4048203406117,67.53517278413699L97.52205154380273,71.74529331058254L97.63928274699377,77.60701721636998L97.75651395018481,71.38796104336821L97.99097635656689,73.63830032287207L98.22543876294897,83.6761218233786L98.34266996614001,86.07028323508784L98.57713237252209,69.65541711859747L98.81159477890417,70.64215532593421L98.9288259820952,83.96233893604177L99.04605718528623,65.25817046765631L99.16328838847727,84.11098685380396L99.28051959166832,73.57015840112841L99.39775079485935,78.24536572593652L99.51498199805039,76.19779634970006L99.63221320124143,72.02443412916386L99.74944440443247,74.1295652925536L99.8666756076235,72.08377070759299L99.98390681081455,67.16977619470784L100.21836921719662,85.20839336044028L100.33560042038766,83.56746617397948L100.57006282676973,70.80638755781203L100.80452523315182,68.15631771125888L100.92175643634285,72.17730861171701L101.0389876395339,86.72518121588135L101.15621884272494,64.99009922352755L101.27345004591596,70.90617839924047L101.50791245229806,71.76521397039282L101.62514365548908,74.82580493198436L101.85960606187116,61.049152324451704L101.9768372650622,61.75893160866741L102.09406846825324,85.97381784019949L102.21129967144428,81.8775767044856L102.32853087463532,79.38201433142757L102.5629932810174,69.65757614303615L102.68022448420844,84.16696139205844L102.79745568739946,76.48581112466069L102.91468689059052,74.1736103059435L103.26638050016362,58.82366469701425L103.5008429065457,65.96649972910284L103.61807410973674,50.57614559921745L103.85253651611882,84.26793237820124L103.96976771930986,71.67974953689223L104.0869989225009,77.96868582927895L104.32146132888298,79.65203418659632L104.43869253207401,82.35317959857807L104.6731549384561,66.30014219214785L104.90761734483817,61.42391688432662L105.49377336079336,62.90270225028349L105.61100456398441,78.80170790046782L105.96269817355751,55.412534161622446L106.07992937674855,77.36877435860696L106.19716057993959,45.74056209677264L106.31439178313063,34.34220298616579L106.43162298632166,64.63408432715717L106.54885418951271,54.530545233196165L106.78331659589477,53.581471024224L107.01777900227687,25.898011399459147L107.25224140865893,53.395063049806524L107.48670381504103,43.916634718112206L107.83839742461414,69.31593797084112L107.95562862780517,56.2641046313258L108.19009103418725,56.48075724470205L108.30732223737827,52.986495120012464L108.42455344056933,52.65950355004761L108.54178464376037,73.59770883374318L108.65901584695139,79.13131134109894L108.89347825333348,41.90707697976858L109.01070945652451,60.662330161991264L109.2451718629066,81.18058689554647L109.36240306609764,99.59351577492623L109.47963426928867,83.27082444967277L109.5968654724797,62.3011760854868L109.71409667567076,63.631674895822705L109.83132787886179,35.173528027552216L110.06579028524386,60.39753862235938L110.1830214884349,56.725532066232944L110.41748389481698,65.39153596878793L110.53471509800801,66.68659384405841L110.65194630119906,68.11159571562972L110.7691775043901,68.60585221493601L110.88640870758113,56.143354785706634L111.00363991077216,50.77078714140955L111.12087111396322,36.05854507923781L111.23810231715424,62.17547695079422L111.35533352034528,76.22764303288307L111.47256472353634,62.819863410062155L111.58979592672738,61.005038697996994L111.7070271299184,64.66595738285359L111.82425833310944,54.358838751460716L111.9414895363005,66.38152186119135L112.05872073949152,59.46709057337513L112.2931831458736,66.37982025718459L112.41041434906464,72.52172332593382L112.76210795863774,66.66870413096588L112.8793391618288,60.420400495546914L113.34826397459295,52.55849597027028L113.69995758416606,74.0611992347983L113.81718878735711,63.64692529302303L114.05165119373918,77.54253008387741L114.16888239693021,79.02446707661024L114.4033448033123,51.796433530685704L114.52057600650333,75.75412140175585L114.63780720969436,71.23970193297316L114.98950081926748,69.08240654352689L115.10673202245852,61.445781580972564L115.3411944288406,59.24676029972622L115.81011924160475,68.87474224163792L115.92735044479579,67.87120755604096L116.16181285117787,77.37723663659753L116.27904405436891,80.66278239240475L116.39627525755995,74.59293676429641L116.51350646075099,79.2375335138002L116.63073766394203,36.55577938555595L116.74796886713307,46.94245257846893L116.8652000703241,57.757115772715494L117.09966247670619,58.89239669111508L117.21689367989721,68.49465330793541L117.33412488308825,60.65636539955897L117.4513560862793,60.87035582602143L117.56858728947033,69.36602093393242L117.68581849266137,64.70501193933123L117.80304969585241,76.33520087324555L118.15474330542553,67.10041753461527L118.27197450861655,71.2453693721247L118.3892057118076,65.73159604049282L119.09259293095383,81.92073432223758L119.32705533733592,56.06944479231644L119.44428654052695,71.76868121726679L119.56151774371799,75.56321698449256L119.67874894690904,61.94514746650345L119.79598015010006,61.74148559339383L119.9132113532911,74.98423249858106L120.03044255648214,75.41394240073863L120.14767375967318,78.36221834947571L120.26490496286422,68.06755527644411L120.38213616605526,80.83034464502697L120.49936736924629,75.64540171349627L120.61659857243734,69.41227528800853L120.73382977562838,92.29895438556863L120.85106097881942,81.27157696786469L120.96829218201044,70.0384106720427L121.0855233852015,64.65503418293926L121.20275458839254,78.59506822034636L121.4372169947746,61.6212206134325L121.55444819796566,85.7426055344751L121.67167940115668,66.26209396062045L121.90614180753876,75.19430283194194L122.14060421392084,76.22823767944455L122.3750666203029,52.7644906875827L122.49229782349396,48.425162611731714L122.84399143306706,30.793398049173646L122.96122263625811,40.79856430504517L123.07845383944915,47.59458773985364L123.31291624583123,54.604693085210975L123.43014744902227,67.86445145626145L123.5473786522133,57.79327943206335L123.78184105859539,56.24660372560041L123.89907226178642,42.67862631911123L124.01630346497745,41.146212981715664L124.1335346681685,35.89590467046308L124.36799707455057,35.54814621288893L124.48522827774161,54.90254697366228L124.60245948093264,24.479477452795244L124.71969068412369,45.7328225430645L124.83692188731473,48.9021514897329L124.95415309050576,54.629284007631185L125.0713842936968,69.21041565140068L125.18861549688785,70.84185136389907L125.30584670007887,51.07998505657256L125.42307790326991,38.66262130136106L125.54030910646095,49.33646304143564L125.657540309652,71.32273746398025L125.77477151284303,61.43009206015759L126.12646512241615,58.39248190106587L126.24369632560719,27.416628936627927L126.36092752879823,51.21819006587392L126.59538993518031,38.61633950205905L126.71262113837135,23.00429655984194L126.82985234156237,58.961942893584734L126.94708354475343,41.79545724597061L127.18154595113549,53.38450578623773L127.29877715432653,60.859734523592174L127.41600835751758,74.89256544402359L127.53323956070861,58.501412002724145L127.65047076389965,57.77873346232819L127.88493317028174,49.418304705115396L128.1193955766638,55.15263702061214L128.35385798304588,37.41076221168144L128.47108918623692,4.441727160362726L128.58832038942796,4.867704511795798L128.94001399900108,53.8812735237153L129.4089388117652,53.698140679590416L129.52617001495628,58.79975990524193L129.64340121814732,55.29440990928252L129.76063242133833,57.05567068876943L129.87786362452937,48.040819668012304L130.11232603091148,78.76255728569947L130.2295572341025,67.47675104657172L130.5812508436756,34.32200329989204L130.69848204686664,28.03327742090401L130.93294445324872,72.22763858184156L131.1674068596308,90.4112214308592L131.28463806282184,71.8931773362234L131.63633167239496,83.4295630621632L131.753562875586,58.90534168933852L131.87079407877704,64.53217105492462L131.98802528196808,75.23449179109075L132.10525648515912,65.56255631987548L132.22248768835016,67.23574994360418L132.3397188915412,76.67291437813468L132.45695009473224,77.30740225925578L132.57418129792327,66.56987387244449L132.6914125011143,71.54459094766747L132.80864370430535,59.92956092686707L132.9258749074964,64.35956802914258L133.04310611068743,66.9372373697309L133.16033731387847,61.9919781703238L133.2775685170695,70.9101305117723L133.39479972026055,76.37709601060543L133.74649332983367,61.56197551908978L133.86372453302468,82.36885539678009L134.0981869394068,75.67005667477694L134.33264934578884,60.596772665687986L134.4498805489799,67.83638871276294L134.56711175217092,72.14639613892763L134.68434295536196,25.833286408341984L134.801574158553,61.97177848405005L134.91880536174406,77.94297422680052L135.03603656493507,62.230971197595174L135.1532677681261,57.44300516211362L135.27049897131715,58.67379546669884L135.50496137769923,44.973760781513356L135.62219258089027,44.052955155234066L135.7394237840813,-2.0296009550491867L135.85665498727235,-23.531883392779836L135.9738861904634,24.584757339406767L136.20834859684547,61.514687394837516L136.3255798000365,45.11577152880833L136.44281100322755,55.86044939697058L136.5600422064186,63.71958195442977L136.67727340960963,64.79347705086523L136.79450461280067,67.49956717771605L136.9117358159917,57.6430900074456L137.02896701918274,49.8357008492456L137.14619822237378,61.17860230668605L137.26342942556482,54.61343896386935L137.38066062875586,44.76318271147306L137.4978918319469,45.02437892651002L137.6151230351379,37.36446211556214L137.96681664471103,60.60562832525002L138.20127905109314,43.366815358940165L138.4357414574752,62.8852745318272L138.7874350670483,64.2811661671109L138.90466627023935,64.18894105962647L139.02189747343039,73.63541857415095L139.13912867662143,72.75283499916318L139.25635987981246,58.56964083434985L139.3735910830035,60.33253003057442L139.49082228619457,77.54259412273788L139.60805348938558,64.84857791609474L139.72528469257662,67.87399782067567L139.84251589576766,61.895773505081635L139.9597470989587,73.95945978232989L140.07697830214974,39.6349690619095L140.19420950534078,49.64009872414646L140.5459031149139,80.37638688577313L140.66313431810494,67.63720955988616L140.78036552129598,68.33290944320726L141.01482792767806,72.52530492791578L141.13205913086907,52.233379824076316L141.36652153725117,78.58468020233738L141.4837527404422,92.16046120139515L141.60098394363325,73.90823326815877L141.7182151468243,79.63581863228464L141.8354463500153,68.48855131937356L141.95267755320634,66.65433655519917L142.3043711627795,50.28142961492914L142.42160236597053,72.6085645949345L142.53883356916154,72.41459546077733L143.0077583819257,66.82835301011582L143.12498958511677,66.12122676440528L143.35945199149882,74.79109586961L143.47668319468985,63.54726252931554L143.5939143978809,62.24000067692135L143.71114560107193,63.63271781440749L143.94560800745404,63.94794453086326L144.1800704138361,69.05019042250652L144.29730161702713,84.74894198179904L144.41453282021817,65.94348690717275L144.64899522660025,84.41051490103611L144.76622642979126,86.23796899122668L144.8834576329823,94.32884446211126L145.00068883617337,83.4282822849538L145.1179200393644,80.8203454343851L145.23515124255545,87.07371271398549L145.35238244574649,87.8638516196815L145.46961364893752,78.53268979604495L145.82130725851064,81.17564218067739L145.93853846170168,85.74426597064299L146.17300086808376,81.34754992740288L146.29023207127477,61.48279604232381L146.4074632744658,67.4972206109003L146.52469447765685,82.13670080496595L146.6419256808479,54.80504323439347L146.75915688403896,54.88294193395004L146.993619290421,55.311389355715505L147.11085049361205,32.57293734912022L147.2280816968031,71.43308099477315L147.34531289999413,65.2586187396796L147.46254410318517,61.74113795386557L147.5797753063762,73.15132138263766L147.69700650956727,37.408722116555076L147.81423771275828,36.42847927935162L148.1659313223314,26.577390521769214L148.28316252552244,61.99765018367963L148.5176249319045,59.098464595696626L148.63485613509556,52.92857654492231L148.7520873382866,62.60999891589563L148.86931854147764,56.67318487200363L149.10378094785972,60.092237929276344L149.33824335424177,37.66084311022266L149.45547455743284,64.12287125243945L149.57270576062388,46.69681780652603L149.68993696381492,70.34876128669417L149.80716816700595,62.797010685283254L149.924399370197,45.000492431554974L150.041630573388,52.12440398037485L150.15886177657904,42.473830043330445L150.39332418296115,42.96841131114342L150.5105553861522,65.8777693137183L150.62778658934323,67.12796339302571L150.86224899572528,40.46782188753855L151.09671140210736,59.39861473471618L151.2139426052984,56.8279667977579L151.33117380848947,60.54996025868493L151.44840501168048,28.08204758735568L151.56563621487152,68.02218831800595L151.68286741806256,64.54775079483592L151.91732982444464,81.83968857010939L152.03456102763568,74.72484766845453L152.15179223082674,58.187941780726966L152.3862546372088,80.2554129041423L152.50348584039983,61.6318236190445L152.7379482467819,80.43701796402458L153.08964185635503,66.9312680330943L153.3241042627371,51.49855219700848L153.44133546592815,70.81803805621313L153.5585666691192,84.96831624674523L153.91026027869228,67.62011118414087L154.02749148188335,78.2902615413298L154.26195388826542,75.30349366324641L154.37918509145646,67.4036232421201L154.6136474978385,70.98249442410258L154.73087870102955,68.3699925176233L154.8481099042206,54.44217160574854L155.0825723106027,80.5244127117479L155.1998035137937,85.50269766633987L155.55149712336683,84.02676202967388L155.66872832655787,77.42457050289299L155.90319073293995,80.18523088727228L156.020421936131,59.14205676285893L156.13765313932203,75.13292615838644L156.25488434251307,77.99911801061481L156.48934674889514,71.60073473148177L156.60657795208618,73.3948200011635L156.7238091552772,79.58753790569511L156.84104035846826,87.25756828239281L157.07550276485034,61.692852653071725L157.30996517123242,64.54079800427067L157.54442757761447,71.94459596697594L157.66165878080554,89.41264975694858L157.77888998399658,73.51619651277441L157.89612118718762,71.19999783948222L158.01335239037866,78.52795092037023L158.4822772031428,90.62737545596465L158.59950840633385,75.20407333236783L158.7167396095249,87.70847504736571L158.83397081271593,82.91982745544058L158.95120201590694,82.82973850137326L159.18566442228902,85.30980804440205L159.30289562548006,80.93918326259883L159.42012682867113,97.19244731469496L159.53735803186217,93.41264505958145L159.65458923505318,88.11957251214835L159.77182043824422,83.80459750009295L159.88905164143526,65.11341062356549L160.0062828446263,35.27242232493408L160.12351404781734,77.41374793547368L160.24074525100838,31.156370310313573L160.47520765739046,27.971479920551133L160.5924388605815,54.12968026347569L160.70967006377253,72.06454990104356L160.82690126696357,39.025922905211985L160.9441324701546,-733.8494782695913L163.4059877371664,-2.212541682592676L163.52321894035745,20.007140663749546L163.6404501435485,-28.392304824678114L163.75768134673953,9.506212995350696L163.87491254993057,15.570336293855643L164.10937495631265,-19.8012538340981L164.2266061595037,1.5021056061976525L164.34383736269473,12.555231220014578L164.46106856588577,22.81516235965021L164.69553097226785,1.6024636489616704L164.81276217545886,-8.837160533150794L164.92999337864993,14.585857743452594L165.04722458184096,-10.593801366275272L165.164455785032,18.645034101567713L165.28168698822304,22.142726879496735L165.86784300417824,33.23555658680461L165.98507420736928,47.089687067096484L166.10230541056032,44.98718149698599L166.21953661375136,40.239248897706375L166.33676781694237,41.72491386695936L166.4539990201334,48.74378338779235L166.6884614265155,30.495288005280454L166.9229238328976,41.33981160532296L167.27461744247069,44.128713127169235L167.39184864566172,43.659033827670164L167.50907984885276,63.84512556617549L167.62631105204383,62.80241739478857L167.97800466161692,68.66036300780834L168.09523586480796,64.71526730541494L168.32969827119004,66.43306399546049L168.44692947438108,67.61384909842783L168.56416067757212,71.6702077466823L168.68139188076316,67.93699833676452L168.91585428714524,71.37137955271099L169.03308549033628,62.80833641517768L169.15031669352732,65.72094729283765L169.26754789671833,77.66227817875067L169.38477909990937,75.10015198443912L169.50201030310043,72.54241245206973L169.61924150629147,81.50577622900954L169.7364727094825,81.56086337162608L169.85370391267355,76.53160805830487L170.0881663190556,70.05690418010538L170.20539752224664,79.48272001371986L170.43985992862875,85.71035281982019L170.67432233501083,78.78858450827593L170.79155353820184,78.40782774074279L171.02601594458392,68.1902811783292L171.26047835096603,63.70305078002005L171.37770955415706,81.72734153782464L171.49494075734808,85.66964240137898L171.61217196053911,73.9222943722361L171.96386557011223,76.27715422043445L172.08109677330327,88.34408818274936L172.1983279764943,70.98257675978032L172.31555917968535,56.11807773263854L172.55002158606743,82.53021502834542L172.66725278925847,73.580239947448L172.7844839924495,76.7904211128915L172.90171519564055,84.77940160836081L173.01894639883156,85.3678729940304L173.3706400084047,65.65844993922394L173.60510241478678,83.84070169478468L173.7223336179778,78.1232024511827L173.95679602435987,62.9034432713832L174.07402722755094,67.15233932784292L174.30848963393302,58.81465351450535L174.42572083712403,73.69767349493574L174.54295204031507,62.05153431056023L174.6601832435061,72.18002568908264L174.89464564988822,66.88714525823094L175.01187685307926,81.1912219205887L175.1291080562703,74.55476960345672L175.36357046265235,68.19864739802907L175.4808016658434,63.00071830043606L175.59803286903443,79.78675822641077L175.71526407222547,82.17731516511644L175.94972647860754,65.49375113850556L176.06695768179858,55.89467359368709L176.30142008818066,60.817295055918315L176.65311369775375,74.69542181206889L176.88757610413586,83.04553116433749L177.0048073073269,75.39851360956986L177.12203851051794,81.82209160609328L177.23926971370898,88.67104773328397L177.47373212009103,71.47995286643236L177.70819452647314,48.4409985070849L177.82542572966418,65.1584802587229L177.94265693285521,67.04336805834579L178.05988813604625,82.10154347056832L178.17711933923727,76.64377669662115L178.2943505424283,60.446153265864204L178.41158174561934,75.39966173485399L178.5288129488104,47.90467305065459L178.64604415200145,74.83698428734058L178.99773776157454,82.40396698913455L179.11496896476558,80.60856892281318L179.23220016795662,72.52482006225796L179.70112498072078,75.65995683164007L179.81835618391182,69.38032447083866L179.93558738710286,68.14125943063995L180.0528185902939,79.74028431052734L180.17004979348494,81.06586585122007L180.404512199867,77.5443551914008L180.52174340305805,71.14250009118943L180.6389746062491,63.90718837037888L180.75620580944013,82.2093345953511L180.87343701263117,80.29676371118819L181.45959302858637,80.41508465431384L181.5768242317774,92.90997202432774L181.69405543496845,84.93776971030137L181.81128663815946,64.49686734598875L181.9285178413505,66.55735884942708L182.04574904454154,49.95039444834609L182.28021145092364,77.44764736368353L182.39744265411468,76.77564643294038L182.51467385730572,68.89534445789177L182.63190506049673,67.89833258765402L182.74913626368777,80.2196426263659L182.8663674668788,66.18070514316828L182.98359867006985,75.01129806553799L183.10082987326092,74.44214811891284L183.21806107645196,69.10850695337244L183.452523482834,72.3398895558356L183.56975468602505,60.15113538409082L183.6869858892161,74.04287039809113L183.80421709240713,70.72675066061414L183.92144829559817,68.78432394485961L184.0386794987892,72.2600605420563L184.15591070198025,77.61865399215812L184.39037310836233,83.83265566938715L184.6248355147444,89.53391648765582L184.74206671793544,80.23249156629862L184.85929792112645,87.39408083609607L184.97652912431752,90.04296596373055L185.09376032750856,93.36763488908015L185.32822273389064,76.14198190859675L185.5626851402727,72.1202088192L185.67991634346373,85.92447132400358L185.91437874984584,88.5379795554331L186.14884115622792,80.27813297699595L186.26607235941893,87.32373414787054L186.38330356260997,76.72872424503366L186.61776596899205,67.78777406925809L186.9694595785652,78.98804268761617L187.0866907817562,67.49816747119438L187.43838439132932,71.61372547174838L187.55561559452036,77.54039850466464L187.67284679771143,66.56322755356864L188.02454040728452,62.00160229621145L188.14177161047556,87.77607263879538L188.37623401685764,75.72151647336834L188.49346522004865,72.30818117149465L188.61069642323972,71.87761131892506L188.72792762643076,82.63498717827751L188.8451588296218,33.77559629714213L188.96239003281283,81.57576612929815L189.07962123600387,70.37872689918947L189.1968524391949,62.315374415693704L189.31408364238592,77.96727697434862L189.43131484557696,63.85732039489058L189.66577725195907,76.81967772371733L189.7830084551501,58.48618905074973L189.90023965834115,83.35350319274295L190.25193326791424,66.43666389425971L190.3691644711053,75.51165197920184L190.6036268774874,73.6145053120034L190.7208580806784,86.54980622228189L190.83808928386944,82.2549943028657L190.95532048706048,87.59343838294127L191.18978289344255,69.95729630684971L191.30701409663362,68.6439461885066L191.54147650301567,70.29471248845809L191.6587077062067,82.59121661714673L191.77593890939775,70.62939329588356L191.8931701125888,68.46345723447823L192.01040131577983,61.68311874628039L192.1276325189709,60.45772600279187L192.2448637221619,63.995479662148746L192.36209492535295,73.46389048638395L192.479326128544,64.35739070788662L192.59655733173503,63.99665980686312L192.71378853492607,61.12331847328377L192.8310197381171,53.71541287509985L192.94825094130812,62.027345918120105L193.06548214449916,73.87195982790723L193.29994455088126,76.91568569817376L193.4171757540723,58.20867207470174L193.53440695726334,75.8825284654054L193.65163816045438,56.959996631228314L193.88610056683643,72.36051464311102L194.0033317700275,63.2555838166952L194.47225658279163,39.39974517899716L194.82395019236475,66.11504244016567L195.05841259874686,65.45617405002304L195.17564380193787,46.656125684902094L195.2928750051289,62.97364815927482L195.41010620831995,67.44718338985219L195.52733741151098,68.13545019115452L195.76179981789306,67.83432117241064L195.87903102108413,57.63764670430571L195.99626222427514,66.01057676192296L196.11349342746618,47.64097017165068L196.23072463065722,54.74352933470839L196.4651870370393,35.89198915156583L196.58241824023034,55.620084108403404L196.69964944342135,66.53681609782937L196.81688064661242,68.69563927151829L196.93411184980346,71.22859119068175L197.0513430529945,72.49518836667795L197.16857425618554,79.10349103042934L197.28580545937658,58.83588697095525L197.4030366625676,56.275540142123894L197.52026786575863,71.41639429741659L197.6374990689497,82.51859654937456L197.87196147533177,82.10974959311702L197.9891926785228,79.8323081530217L198.22365508490486,76.37920014459229L198.3408862880959,70.2152219657984L198.45811749128694,80.76302608006078L198.69257989766905,76.70406013534435L198.8098111008601,67.2801563191353L198.9270423040511,64.49919104178292L199.04427350724214,84.10880953254801L199.16150471043318,84.95000570685534L199.27873591362422,62.90627012965249L199.74766072638837,61.958165651996L199.98212313277045,83.0201854982046L200.33381674234354,76.91344891226166L200.4510479455346,66.93330812822067L200.56827914872565,45.76831836858177L200.6855103519167,69.37228759384978L200.80274155510773,83.64521849899785L200.91997275829877,87.66303032745414L201.15443516468082,86.9613794043137L201.2716663678719,87.04838534466987L201.38889757106293,79.54065231142296L201.50612877425397,58.751373971953065L201.623359977445,81.6598903209332L201.74059118063605,58.41138251331295L201.85782238382706,80.36391760479889L201.9750535870181,80.54982241674124L202.09228479020913,72.21086497460293L202.2095159934002,67.86921320295775L202.44397839978228,67.49518508997822L202.5612096029733,83.00064449735285L202.67844080616433,73.74398273946366L202.9129032125464,88.60981743426669L203.03013441573745,87.40069970974601L203.14736561892852,69.7285266262318L203.26459682211956,69.90789947440628L203.38182802531057,77.76149267043488L203.4990592285016,85.92341010860152L203.7335216348837,64.61176221007929L203.85075283807473,76.21232402261793L203.9679840412658,67.29488983124757L204.0852152444568,69.75349263340618L204.20244644764784,71.03894467960627L204.31967765083888,65.584887585362L204.43690885402992,63.95321401423902L204.671371260412,72.44619406421461L204.788602463603,77.38639876784896L204.90583366679405,66.84161362843729L205.02306486998512,59.06778998153183L205.14029607317616,59.715671132899644L205.2575272763672,76.21886513479444L205.37475847955824,71.77946261684723L205.49198968274928,65.80732656720207L205.6092208859403,73.63828660025911L205.8436832923224,73.0578749626L205.96091449551344,60.93259244998895L206.19537690189551,74.71720417303709L206.66430171465964,78.14439931399805L206.7815329178507,64.21430959678095L207.01599532423276,68.34223167160987L207.1332265274238,65.41731618433116L207.25045773061484,60.56559488904808L207.48492013699692,67.52204024353647L207.71938254337903,70.37273926573559L207.83661374657004,80.80342087840395L207.95384494976108,53.04859451785039L208.18830735614316,56.128131833732226L208.3055385593342,67.94965058591151L208.42276976252523,61.484314678157816L208.54000096571625,59.94657696693462L208.77446337209835,56.447777231560366L208.8916945752894,88.26508709995184L209.00892577848043,77.08633553871145L209.12615698167147,76.51867678269438L209.24338818486248,84.97931263392867L209.4778505912446,66.61428939638427L209.59508179443563,79.37090358913615L209.71231299762667,73.49820616718686L209.94677540400875,63.12754268939118L210.06400660719976,70.40602575056666L210.4157002167729,66.62658943179868L210.53293141996394,81.27301784222526L210.65016262315498,62.600768171579425L210.767393826346,62.4346330707048L211.00185623272807,63.78491988892572L211.1190874359191,66.18319351031795L211.23631863911018,39.52661530999546L211.35354984230122,1.9370026560532603L211.47078104549223,7.888554786261844L211.58801224868327,42.64915929488673L211.7052434518743,40.985072911957644L211.82247465506535,35.94958753235362L212.05693706144743,62.87918169167398L212.1741682646385,47.86351436019012L212.2913994678295,43.52491815703019L212.40863067102055,57.81465011464282L212.52586187421159,51.70925834476973L212.64309307740263,51.110348624843645L212.76032428059366,64.6635330545644L212.99478668697571,51.45012052167641L213.11201789016678,54.237585743366445L213.22924909335782,57.647087862020605L213.34648029654886,66.48895162383289L213.4637114997399,68.77575646016967L213.58094270293094,72.93058400480433L213.93263631250403,65.72569989112534L214.16709871888614,71.69053093647265L214.28432992207718,63.715209015100584L214.40156112526822,69.82286959031603L214.51879232845923,66.9083695662722L214.63602353165027,79.05164699867514L214.7532547348413,73.36223336959327L214.87048593803235,73.79334297827253L214.9877171412234,52.129710057385175L215.10494834441445,35.28470863773553L215.22217954760546,48.583247113004475L215.57387315717858,78.38349297376446L215.69110436036962,72.4211777407927L216.04279796994274,90.30992110200542L216.16002917313378,82.89626115478788L216.27726037632482,72.32574611608052L216.39449157951586,70.2697967975312L216.5117227827069,65.1617325179939L216.62895398589794,78.10903156620171L216.86341639228002,78.63709143542717L216.98064759547105,87.39434613994656L217.0978787986621,84.05683284886854L217.21511000185313,83.31769632133198L217.33234120504417,86.06285015306908L217.44957240823518,80.27964703862561L217.56680361142622,75.44150655596637L217.80126601780833,77.8600164572669L217.91849722099937,70.1592657243612L218.0357284241904,56.255651501743856L218.27019083057246,68.1406556356698L218.3874220337635,70.85493816245639L218.50465323695454,79.40896096907218L218.73911564333665,67.39840407499184L218.85634684652769,60.35346158953922" style="fill: none;" fill="none"></path></g></g></g></g></g></g><g transform="translate(51, 178)" clip-path="url(#clip_1)"><clipPath id="clip_1"><rect width="278" height="22"></rect></clipPath><g><g><line x1="9.833111556905886" y1="0" x2="9.833111556905886" y2="5" style="visibility: inherit;" fill="rgb(0, 0, 0)" stroke="rgb(204, 204, 204)" stroke-width="1px"></line><line x1="33.2793521951136" y1="0" x2="33.2793521951136" y2="5" style="visibility: inherit;" fill="rgb(0, 0, 0)" stroke="rgb(204, 204, 204)" stroke-width="1px"></line><line x1="56.725592833321315" y1="0" x2="56.725592833321315" y2="5" style="visibility: inherit;" fill="rgb(0, 0, 0)" stroke="rgb(204, 204, 204)" stroke-width="1px"></line><line x1="80.17183347152903" y1="0" x2="80.17183347152903" y2="5" style="visibility: inherit;" fill="rgb(0, 0, 0)" stroke="rgb(204, 204, 204)" stroke-width="1px"></line><line x1="103.61807410973674" y1="0" x2="103.61807410973674" y2="5" style="visibility: inherit;" fill="rgb(0, 0, 0)" stroke="rgb(204, 204, 204)" stroke-width="1px"></line><line x1="127.06431474794447" y1="0" x2="127.06431474794447" y2="5" style="visibility: inherit;" fill="rgb(0, 0, 0)" stroke="rgb(204, 204, 204)" stroke-width="1px"></line><line x1="150.5105553861522" y1="0" x2="150.5105553861522" y2="5" style="visibility: inherit;" fill="rgb(0, 0, 0)" stroke="rgb(204, 204, 204)" stroke-width="1px"></line><line x1="173.95679602435987" y1="0" x2="173.95679602435987" y2="5" style="visibility: inherit;" fill="rgb(0, 0, 0)" stroke="rgb(204, 204, 204)" stroke-width="1px"></line><line x1="197.4030366625676" y1="0" x2="197.4030366625676" y2="5" style="visibility: inherit;" fill="rgb(0, 0, 0)" stroke="rgb(204, 204, 204)" stroke-width="1px"></line><line x1="220.84927730077533" y1="0" x2="220.84927730077533" y2="5" style="visibility: inherit;" fill="rgb(0, 0, 0)" stroke="rgb(204, 204, 204)" stroke-width="1px"></line><line x1="244.29551793898304" y1="0" x2="244.29551793898304" y2="5" style="visibility: inherit;" fill="rgb(0, 0, 0)" stroke="rgb(204, 204, 204)" stroke-width="1px"></line><line x1="267.74175857719075" y1="0" x2="267.74175857719075" y2="5" style="visibility: inherit;" fill="rgb(0, 0, 0)" stroke="rgb(204, 204, 204)" stroke-width="1px"></line></g><g transform="translate(0, 8)"><text x="9.833111556905886" y="0" dx="0em" dy="0.95em" style="text-anchor: middle; visibility: hidden; font-family: Roboto, sans-serif; font-size: 12px; font-weight: 200;" fill="rgb(50, 49, 63)" stroke="none" stroke-width="1px">-20M</text><text x="33.2793521951136" y="0" dx="0em" dy="0.95em" style="text-anchor: middle; visibility: inherit; font-family: Roboto, sans-serif; font-size: 12px; font-weight: 200;" fill="rgb(50, 49, 63)" stroke="none" stroke-width="1px">-10M</text><text x="56.725592833321315" y="0" dx="0em" dy="0.95em" style="text-anchor: middle; visibility: hidden; font-family: Roboto, sans-serif; font-size: 12px; font-weight: 200;" fill="rgb(50, 49, 63)" stroke="none" stroke-width="1px">0</text><text x="80.17183347152903" y="0" dx="0em" dy="0.95em" style="text-anchor: middle; visibility: inherit; font-family: Roboto, sans-serif; font-size: 12px; font-weight: 200;" fill="rgb(50, 49, 63)" stroke="none" stroke-width="1px">10M</text><text x="103.61807410973674" y="0" dx="0em" dy="0.95em" style="text-anchor: middle; visibility: hidden; font-family: Roboto, sans-serif; font-size: 12px; font-weight: 200;" fill="rgb(50, 49, 63)" stroke="none" stroke-width="1px">20M</text><text x="127.06431474794447" y="0" dx="0em" dy="0.95em" style="text-anchor: middle; visibility: inherit; font-family: Roboto, sans-serif; font-size: 12px; font-weight: 200;" fill="rgb(50, 49, 63)" stroke="none" stroke-width="1px">30M</text><text x="150.5105553861522" y="0" dx="0em" dy="0.95em" style="text-anchor: middle; visibility: hidden; font-family: Roboto, sans-serif; font-size: 12px; font-weight: 200;" fill="rgb(50, 49, 63)" stroke="none" stroke-width="1px">40M</text><text x="173.95679602435987" y="0" dx="0em" dy="0.95em" style="text-anchor: middle; visibility: inherit; font-family: Roboto, sans-serif; font-size: 12px; font-weight: 200;" fill="rgb(50, 49, 63)" stroke="none" stroke-width="1px">50M</text><text x="197.4030366625676" y="0" dx="0em" dy="0.95em" style="text-anchor: middle; visibility: hidden; font-family: Roboto, sans-serif; font-size: 12px; font-weight: 200;" fill="rgb(50, 49, 63)" stroke="none" stroke-width="1px">60M</text><text x="220.84927730077533" y="0" dx="0em" dy="0.95em" style="text-anchor: middle; visibility: inherit; font-family: Roboto, sans-serif; font-size: 12px; font-weight: 200;" fill="rgb(50, 49, 63)" stroke="none" stroke-width="1px">70M</text><text x="244.29551793898304" y="0" dx="0em" dy="0.95em" style="text-anchor: middle; visibility: hidden; font-family: Roboto, sans-serif; font-size: 12px; font-weight: 200;" fill="rgb(50, 49, 63)" stroke="none" stroke-width="1px">80M</text><text x="267.74175857719075" y="0" dx="0em" dy="0.95em" style="text-anchor: middle; visibility: hidden; font-family: Roboto, sans-serif; font-size: 12px; font-weight: 200;" fill="rgb(50, 49, 63)" stroke="none" stroke-width="1px">90M</text></g><line x1="0" y1="0" x2="278.4375" y2="0" fill="rgb(0, 0, 0)" stroke="rgb(204, 204, 204)" stroke-width="1px"></line></g></g></g></g></svg>