<svg viewBox="0 0 330 200" xmlns="http://www.w3.org/2000/svg"><g><g><g><g><g><line x1="61.953125" y1="172.933294804528" x2="56.953125" y2="172.933294804528" style="visibility: inherit;" fill="rgb(0, 0, 0)" stroke="rgb(204, 204, 204)" stroke-width="1px"></line><line x1="61.953125" y1="152.48646408558062" x2="56.953125" y2="152.48646408558062" style="visibility: inherit;" fill="rgb(0, 0, 0)" stroke="rgb(204, 204, 204)" stroke-width="1px"></line><line x1="61.953125" y1="132.03963336663324" x2="56.953125" y2="132.03963336663324" style="visibility: inherit;" fill="rgb(0, 0, 0)" stroke="rgb(204, 204, 204)" stroke-width="1px"></line><line x1="61.953125" y1="111.59280264768589" x2="56.953125" y2="111.59280264768589" style="visibility: inherit;" fill="rgb(0, 0, 0)" stroke="rgb(204, 204, 204)" stroke-width="1px"></line><line x1="61.953125" y1="91.1459719287385" x2="56.953125" y2="91.1459719287385" style="visibility: inherit;" fill="rgb(0, 0, 0)" stroke="rgb(204, 204, 204)" stroke-width="1px"></line><line x1="61.953125" y1="70.69914120979114" x2="56.953125" y2="70.69914120979114" style="visibility: inherit;" fill="rgb(0, 0, 0)" stroke="rgb(204, 204, 204)" stroke-width="1px"></line><line x1="61.953125" y1="50.25231049084377" x2="56.953125" y2="50.25231049084377" style="visibility: inherit;" fill="rgb(0, 0, 0)" stroke="rgb(204, 204, 204)" stroke-width="1px"></line><line x1="61.953125" y1="29.80547977189668" x2="56.953125" y2="29.80547977189668" style="visibility: inherit;" fill="rgb(0, 0, 0)" stroke="rgb(204, 204, 204)" stroke-width="1px"></line><line x1="61.953125" y1="9.358649052949295" x2="56.953125" y2="9.358649052949295" style="visibility: inherit;" fill="rgb(0, 0, 0)" stroke="rgb(204, 204, 204)" stroke-width="1px"></line></g><g transform="translate(51.953125, 0)"><text x="0" y="172.933294804528" dx="0em" dy="0.3em" style="text-anchor: end; visibility: hidden; font-family: Roboto, sans-serif; font-size: 12px; font-weight: 200;" fill="rgb(50, 49, 63)" stroke="none" stroke-width="1px">0.064</text><text x="0" y="152.48646408558062" dx="0em" dy="0.3em" style="text-anchor: end; visibility: inherit; font-family: Roboto, sans-serif; font-size: 12px; font-weight: 200;" fill="rgb(50, 49, 63)" stroke="none" stroke-width="1px">0.065</text><text x="0" y="132.03963336663324" dx="0em" dy="0.3em" style="text-anchor: end; visibility: hidden; font-family: Roboto, sans-serif; font-size: 12px; font-weight: 200;" fill="rgb(50, 49, 63)" stroke="none" stroke-width="1px">0.066</text><text x="0" y="111.59280264768589" dx="0em" dy="0.3em" style="text-anchor: end; visibility: inherit; font-family: Roboto, sans-serif; font-size: 12px; font-weight: 200;" fill="rgb(50, 49, 63)" stroke="none" stroke-width="1px">0.067</text><text x="0" y="91.1459719287385" dx="0em" dy="0.3em" style="text-anchor: end; visibility: hidden; font-family: Roboto, sans-serif; font-size: 12px; font-weight: 200;" fill="rgb(50, 49, 63)" stroke="none" stroke-width="1px">0.068</text><text x="0" y="70.69914120979114" dx="0em" dy="0.3em" style="text-anchor: end; visibility: inherit; font-family: Roboto, sans-serif; font-size: 12px; font-weight: 200;" fill="rgb(50, 49, 63)" stroke="none" stroke-width="1px">0.069</text><text x="0" y="50.25231049084377" dx="0em" dy="0.3em" style="text-anchor: end; visibility: hidden; font-family: Roboto, sans-serif; font-size: 12px; font-weight: 200;" fill="rgb(50, 49, 63)" stroke="none" stroke-width="1px">0.07</text><text x="0" y="29.80547977189668" dx="0em" dy="0.3em" style="text-anchor: end; visibility: inherit; font-family: Roboto, sans-serif; font-size: 12px; font-weight: 200;" fill="rgb(50, 49, 63)" stroke="none" stroke-width="1px">0.071</text><text x="0" y="9.358649052949295" dx="0em" dy="0.3em" style="text-anchor: end; visibility: hidden; font-family: Roboto, sans-serif; font-size: 12px; font-weight: 200;" fill="rgb(50, 49, 63)" stroke="none" stroke-width="1px">0.072</text></g><line x1="61.953125" y1="0" x2="61.953125" y2="178" fill="rgb(0, 0, 0)" stroke="rgb(204, 204, 204)" stroke-width="1px"></line></g></g><g transform="translate(61, 0)" clip-path="url(#clip_0)"><clipPath id="clip_0"><rect width="268" height="178"></rect></clipPath><g><g><g><line x1="16.656573826495098" y1="0" x2="16.656573826495098" y2="178" fill="rgb(0, 0, 0)" stroke="rgb(60, 60, 60)" stroke-width="1px" opacity="0.25"></line><line x1="50.86824097922801" y1="0" x2="50.86824097922801" y2="178" fill="rgb(0, 0, 0)" stroke="rgb(60, 60, 60)" stroke-width="1px" opacity="0.25"></line><line x1="85.07990813196093" y1="0" x2="85.07990813196093" y2="178" fill="rgb(0, 0, 0)" stroke="rgb(60, 60, 60)" stroke-width="1px" opacity="0.25"></line><line x1="119.29157528469385" y1="0" x2="119.29157528469385" y2="178" fill="rgb(0, 0, 0)" stroke="rgb(60, 60, 60)" stroke-width="1px" opacity="0.25"></line><line x1="153.50324243742676" y1="0" x2="153.50324243742676" y2="178" fill="rgb(0, 0, 0)" stroke="rgb(60, 60, 60)" stroke-width="1px" opacity="0.25"></line><line x1="187.7149095901597" y1="0" x2="187.7149095901597" y2="178" fill="rgb(0, 0, 0)" stroke="rgb(60, 60, 60)" stroke-width="1px" opacity="0.25"></line><line x1="221.92657674289262" y1="0" x2="221.92657674289262" y2="178" fill="rgb(0, 0, 0)" stroke="rgb(60, 60, 60)" stroke-width="1px" opacity="0.25"></line><line x1="256.1382438956255" y1="0" x2="256.1382438956255" y2="178" fill="rgb(0, 0, 0)" stroke="rgb(60, 60, 60)" stroke-width="1px" opacity="0.25"></line></g><g><line x1="0" y1="172.933294804528" x2="268.046875" y2="172.933294804528" fill="rgb(0, 0, 0)" stroke="rgb(60, 60, 60)" stroke-width="1px" opacity="0.25"></line><line x1="0" y1="152.48646408558062" x2="268.046875" y2="152.48646408558062" fill="rgb(0, 0, 0)" stroke="rgb(60, 60, 60)" stroke-width="1px" opacity="0.25"></line><line x1="0" y1="132.03963336663324" x2="268.046875" y2="132.03963336663324" fill="rgb(0, 0, 0)" stroke="rgb(60, 60, 60)" stroke-width="1px" opacity="0.25"></line><line x1="0" y1="111.59280264768589" x2="268.046875" y2="111.59280264768589" fill="rgb(0, 0, 0)" stroke="rgb(60, 60, 60)" stroke-width="1px" opacity="0.25"></line><line x1="0" y1="91.1459719287385" x2="268.046875" y2="91.1459719287385" fill="rgb(0, 0, 0)" stroke="rgb(60, 60, 60)" stroke-width="1px" opacity="0.25"></line><line x1="0" y1="70.69914120979114" x2="268.046875" y2="70.69914120979114" fill="rgb(0, 0, 0)" stroke="rgb(60, 60, 60)" stroke-width="1px" opacity="0.25"></line><line x1="0" y1="50.25231049084377" x2="268.046875" y2="50.25231049084377" fill="rgb(0, 0, 0)" stroke="rgb(60, 60, 60)" stroke-width="1px" opacity="0.25"></line><line x1="0" y1="29.80547977189668" x2="268.046875" y2="29.80547977189668" fill="rgb(0, 0, 0)" stroke="rgb(60, 60, 60)" stroke-width="1px" opacity="0.25"></line><line x1="0" y1="9.358649052949295" x2="268.046875" y2="9.358649052949295" fill="rgb(0, 0, 0)" stroke="rgb(60, 60, 60)" stroke-width="1px" opacity="0.25"></line></g></g></g><g><g><line x1="0" y1="1481.5304608171587" x2="268.046875" y2="1481.5304608171587" fill="rgb(0, 0, 0)" stroke="rgb(153, 153, 153)" stroke-width="1.5px"></line></g></g><g><g><line x1="50.86824097922801" y1="0" x2="50.86824097922801" y2="178" fill="rgb(0, 0, 0)" stroke="rgb(153, 153, 153)" stroke-width="1.5px"></line></g></g><g><g><g><g><g><path stroke="rgb(0, 119, 187)" stroke-width="2px" d="M51.03929931499168,106.10195050263177L51.21035765075534,50.14058783971639L51.38141598651901,73.2769998454813L51.46694515440084,50.21395514984011L51.6380034901645,59.283221918221756L51.80906182592817,85.67339792794127L51.894590993810006,105.23326030463147L51.980120161691836,116.94123455840902L52.06564932957367,113.4756016410611L52.1511784974555,134.29155921974572L52.236707665337335,109.1864838504343L52.322236833219165,95.2317412922242L52.407766001101,83.73352851199587L52.493295168982826,98.46718827679815L52.57882433686466,77.46937066556303L52.664353504746494,70.51535668000439L52.835411840510154,62.28094337246047L53.00647017627382,42.45518259296817L53.09199934415566,59.53155650651449L53.263057679919314,98.16862578172368L53.51964518356482,101.14035205418959L53.60517435144665,91.33897983010846L53.69070351932848,79.25177159122157L53.77623268721031,113.24149463615868L53.86176185509215,140.89655199424368L54.032820190855816,126.44300771323559L54.28940769450131,163.10324779975969L54.374936862383144,186.50433454260633L54.545995198146805,138.81292810551375L54.631524366028636,114.77207643956407L54.71705353391047,192.81272789038675L54.8025827017923,157.45698101873646L54.888111869674134,182.7163508629862L54.973641037555964,181.52789095567786L55.14469937331963,172.94407366155826L55.23022854120146,131.61637428515073L55.48681604484696,110.99380894341859L55.57234521272879,109.48188092394794L55.65787438061063,103.27006109795411L55.74340354849245,89.99738586994242L55.82893271637429,105.29689900201092L56.08552022001978,102.6005851782412L56.17104938790162,102.5533421882827L56.25657855578345,94.68409537142927L56.342107723665286,93.75865899969135L56.42763689154712,81.6390543526852L56.51316605942895,63.664681172127466L56.59869522731078,43.241045200754776L56.684224395192615,62.8556438072632L56.769753563074445,28.36415429712085L56.85528273095628,48.08518990666519L57.02634106671994,63.8574432526579L57.111870234601774,58.59694317029465L57.197399402483605,50.89138453189811L57.28292857036544,72.67717430635967L57.4539869061291,77.84974981759021L57.62504524189277,49.4268473186378L57.710574409774594,62.05288694577769L57.88163274553826,62.41570517617089L57.9671619134201,77.68745680641429L58.13822024918376,45.344699256928486L58.22374941706559,43.35754015542495L58.30927858494743,29.230739836213505L58.39480775282926,42.63493017563228L58.480336920711096,55.912509578854426L58.56586608859292,48.4681577016342L58.73692442435659,42.76265740567872L58.822453592238425,64.9854249015758L58.907982760120255,75.58928540684084L58.99351192800208,54.33037560342229L59.16457026376575,59.898095010161576L59.421157767411245,53.76545001766878L59.506686935293075,63.92024890853113L59.59221610317491,53.8947377261968L59.67774527105674,37.49755712355174L59.848803606820404,71.81514022987429L59.93433277470224,94.07361490188633L60.01986194258407,76.39498596854972L60.27644944622957,89.30414311286236L60.3619786141114,70.53322456270385L60.61856611775689,62.584871849190044L60.8751536214024,36.03486121268014L60.96068278928422,47.91360051867477L61.04621195716606,65.40298958951256L61.13174112504789,45.501527572565585L61.217270292929726,55.38967674567567L61.47385779657522,36.51055090777022L61.559386964457055,85.54881688960612L61.644916132338885,81.58495028235708L61.73044530022072,112.23783548564157L61.815974468102546,94.18839795226918L61.987032803866214,58.79082762764757L62.07256197174805,36.50064429297036L62.32914947539354,51.31350412309947L62.585736979039034,63.30424836517979L62.67126614692087,52.21963147227834L62.84232448268454,77.04439697605473L63.0133828184482,60.08205348980959L63.09891198633003,78.08105737019962L63.18444115421187,69.722700749806L63.2699703220937,64.5092048480739L63.355499489975536,68.42302228666048L63.44102865785736,65.77543152820814L63.61208699362103,60.427097945406146L63.697616161502864,72.20534673561741L63.783145329384695,64.81096620230319L63.868674497266525,54.84106896307659L64.03973283303019,49.13097832480111L64.12526200091203,33.63736268564834L64.21079116879386,54.98230814209049L64.38184950455752,66.49143632545709L64.46737867243935,72.19443306980497L64.55290784032118,52.76639994086013L64.72396617608484,39.60491197253712L64.80949534396667,44.15982053840906L64.98055367973035,47.79295524657106L65.06608284761218,69.71819826859088L65.23714118337584,56.26211932342789L65.32267035125767,54.26045193677056L65.40819951913952,46.1171978707583L65.57925785490318,33.77605735055753L65.664787022785,74.20203159029987L65.9213745264305,63.102975024279715L66.00690369431233,56.70513721796689L66.09243286219417,28.901128938504666L66.177962030076,7.864549975241727L66.34902036583966,17.794503716086254L66.4345495337215,54.85646003944962L66.60560786948515,72.92196100826953L66.77666620524882,61.81640554687753L66.86219537313066,60.10634732243088L66.94772454101249,85.00292414795311L67.03325370889432,101.1677939174988L67.204312044658,101.02146646843671L67.28984121253981,72.96795148409532L67.54642871618532,82.88009722377436L67.88854538771265,56.06763731971394L67.97407455559447,54.082241820854826L68.23066205923996,70.66410736343154L68.3161912271218,94.12452367470264L68.48724956288547,62.31002978004649L68.5727787307673,45.772929959575706L68.65830789864913,44.45599361984423L68.74383706653097,52.04296909705772L68.8293662344128,59.15580966016737L69.0859537380583,36.484178276378934L69.17148290594014,39.302494957579995L69.25701207382195,55.866664465942094L69.34254124170378,76.79036635534291L69.59912874534929,72.53038708397624L69.68465791323112,78.09215860234126L69.77018708111295,72.4878280669395L69.8557162489948,64.02871717949137L69.94124541687661,79.10980033127684L70.02677458475846,71.77114368579198L70.1978329205221,88.80660042574165L70.28336208840395,70.97051983280869L70.36889125628578,60.94831370624463L70.53994959204944,74.4434900244937L70.62547875993127,90.57580220602674L70.71100792781311,70.57667706315834L70.79653709569494,66.18462553477902L70.88206626357677,62.5043437437351L70.9675954314586,89.60468174933004L71.05312459934044,92.17976536336916L71.2241829351041,71.3480381490247L71.30971210298594,64.56154081340954L71.4807704387496,88.67547300415913L71.82288711027692,88.9859001010057L71.90841627815875,69.87130237765906L72.07947461392243,86.65090265450876L72.16500378180424,49.23625407587113L72.25053294968609,43.327914927082645L72.33606211756792,70.64286419409174L72.42159128544976,73.06627414645867L72.50712045333158,81.68143538796801L72.59264962121341,36.32402391646474L72.76370795697709,83.77889098693697L73.02029546062258,89.58777579358275L73.10582462850442,98.68578414453918L73.19135379638624,89.93429739683252L73.27688296426808,58.61069226558115L73.44794130003174,71.0160751930933L73.6189996357954,75.50569480813961L73.79005797155907,68.48673915687175L73.96111630732274,77.31107396042653L74.1321746430864,71.98310634619487L74.21770381096823,85.50266234948765L74.30323297885006,103.48294670461163L74.3887621467319,104.74263317502873L74.47429131461372,101.61994263403977L74.6453496503774,73.59236091959308L74.73087881825923,36.14033473899333L74.90193715402289,60.799675263791734L74.98746632190472,42.68701524041386L75.07299548978656,46.370257472768046L75.24405382555022,47.42755218493599L75.67169966495939,65.86796910578036L75.84275800072304,75.32087807744361L75.92828716860488,79.13138374243326L76.09934550436854,49.5314248050739L76.18487467225037,56.865339070739644L76.2704038401322,46.084222333626336L76.35593300801405,64.79176329135291L76.44146217589586,27.15595010899768L76.52699134377771,57.85945444356749L76.61252051165954,62.4573961763185L76.69804967954137,86.98943461194486L76.7835788474232,90.60783057568963L76.86910801530503,104.63041581579418L77.21122468683237,55.13821578755018L77.2967538547142,70.28246766748663L77.46781219047786,63.2381831974622L77.72439969412335,69.53447912921375L77.8099288620052,53.62837799903553L77.98098719776885,44.80127232216597L78.06651636565068,64.8058105768629L78.15204553353252,56.873154343897305L78.23757470141435,43.00863767267394L78.32310386929619,67.85755639406084L78.49416220505985,78.40357801082257L78.57969137294168,87.08407077349517L78.66522054082351,64.47698859009448L78.75074970870534,55.49786281787919L78.83627887658717,30.7339536870903L78.92180804446902,47.42935619587328L79.17839554811451,65.27916002842512L79.26392471599634,91.5859903454051L79.43498305176,67.76310384176578L79.60604138752367,79.06092775070708L79.77709972328734,73.30865721007545L79.948158059051,47.020641567901684L80.11921639481466,45.056541287692944L80.2047455626965,59.31001440712835L80.29027473057833,53.98258913708104L80.37580389846015,62.75555439429182L80.461333066342,56.94107120721306L80.54686223422382,61.899868597417225L80.63239140210567,67.48016346686188L80.71792056998748,63.49678367978132L80.80344973786931,85.71920060143394L80.97450807363298,45.79534034293535L81.14556640939665,63.380075682090784L81.23109557727848,52.528787854311204L81.40215391304214,64.02241345232771L81.57321224880582,90.1027568813642L81.65874141668763,77.84072790079522L81.74427058456948,73.41631077691086L81.82979975245131,74.46746981008943L81.91532892033314,53.1181348847124L82.00085808821497,49.13069360316064L82.0863872560968,79.8099528297298L82.17191642397864,77.53815268703411L82.25744559186047,84.69431253539392L82.34297475974229,73.71493792378766L82.42850392762413,48.11604175738494L82.59956226338781,63.09158958921322L82.68509143126963,47.05558884488564L82.8561497670333,63.04192206108743L83.02720810279696,82.65069078430503L83.11273727067879,67.45892703811526L83.19826643856062,64.2973038432163L83.28379560644245,101.86273569651506L83.36932477432428,86.46269865162745L83.54038311008796,88.84474398151374L83.62591227796977,57.744857405751404L83.79697061373345,50.44751778068024L83.8824997816153,56.751498344665166L83.96802894949711,43.75163569437545L84.05355811737894,39.69806846727444L84.13908728526079,57.6118524927565L84.31014562102445,51.607129932839L84.39567478890628,64.56604329412296L84.48120395678811,73.57747958005437L84.56673312466995,85.8128155559839L84.82332062831544,106.5113985568092L84.9943789640791,67.7805341434607L85.07990813196093,68.38590921672316L85.2509664677246,74.43138639148742L85.33649563560643,81.64966568579575L85.42202480348827,79.97943628741595L85.59308313925192,94.61940069321649L85.67861230713376,108.33769482549023L85.84967064289744,93.90112702002948L86.02072897866108,55.93864961513964L86.44837481807025,48.75765002920177L86.5339039859521,45.1972375363769L86.79049148959758,63.371385767797086L86.8760206574794,67.1469469375658L86.96154982536125,71.91297767572686L87.04707899324308,82.4757778242307L87.13260816112492,88.73589111253628L87.21813732900674,67.62761876062068L87.38919566477041,57.50864396624024L87.56025400053407,89.77523261665175L87.73131233629773,74.61369776187125L87.9023706720614,83.48245711223927L88.1589581757069,71.40896349849969L88.24448734358873,82.27343382344988L88.41554567935239,103.79612859183692L88.50107484723422,107.4168075220897L88.58660401511605,67.82527007022328L88.6721331829979,60.12048280168304L88.75766235087973,64.48260764016712L88.92872068664339,64.2799180138169L89.01424985452522,64.32390628589454L89.18530819028888,79.9058333303684L89.27083735817071,56.64883587456087L89.35636652605255,62.670537626114324L89.44189569393438,61.05182896908874L89.52742486181621,80.5980185104563L89.61295402969805,73.12278772715172L89.78401236546172,62.4014148645884L89.86954153334354,66.61610691713457L90.04059986910721,96.18371284781608L90.12612903698903,62.10360760853262L90.21165820487087,50.33507848527339L90.2971873727527,61.228787380443215L90.38271654063455,81.3628145211443L90.46824570851636,40.14705329604679L90.5537748763982,46.190274639981325L90.63930404428004,66.41328991178807L90.72483321216187,52.97695304733461L90.8103623800437,88.46509691645917L90.89589154792553,81.71726865956131L90.98142071580736,52.06807723009964L91.0669498836892,42.29373005752744L91.15247905157102,57.805745968925606L91.23800821945285,66.40442683979919L91.40906655521653,60.602279975977574L91.49459572309836,56.98482411911727L91.75118322674386,65.23622297354494L91.83671239462568,62.42333396525394L92.17882906615301,58.033524183277734L92.4354165697985,42.98433445579858L92.52094573768034,77.80110197734786L92.69200407344401,98.65550990475097L92.77753324132584,118.98691988322194L92.9485915770895,94.84708524818055L93.03412074497135,55.34844256361763L93.11964991285316,63.27920884274678L93.37623741649867,70.45623988933647L93.4617665843805,75.69704329801174L93.63282492014417,66.34475614526984L93.9749415916715,89.16794787830456L94.06047075955334,85.68533995856217L94.23152909531699,59.31822827899494L94.31705826319883,48.055537084865485L94.40258743108065,42.04981406955215L94.48811659896248,72.18274365879857L94.57364576684432,109.98652393901119L94.65917493472615,102.97113756462953L94.74470410260798,79.3419720856411L94.91576243837164,101.41064038308511L95.00129160625349,82.46317036418456L95.0868207741353,85.00729324722015L95.17234994201715,79.01148170001055L95.25787910989898,50.61349629287544L95.34340827778081,54.04619466639798L95.42893744566264,68.83718959931315L95.68552494930815,71.58416110832073L95.77105411718996,84.24548783232107L95.8565832850718,64.94573233133322L96.36975829236279,57.019818793904975L96.54081662812646,58.14054936421819L96.6263457960083,75.22242243633838L96.71187496389012,88.41173258908822L96.79740413177196,110.91525708518908L96.8829332996538,63.9215100917915L96.96846246753563,76.40287776661974L97.05399163541745,68.39436859655932L97.13952080329929,95.75197312601341L97.22504997118112,46.194506674000834L97.31057913906297,47.8838379810697L97.39610830694478,67.91109982114628L97.48163747482661,46.230616428653384L97.56716664270846,84.10727410341593L97.65269581059027,78.1678236036919L97.7382249784721,52.88901274522751L97.82375414635395,67.11231058842861L97.90928331423578,54.68153444783988L98.08034164999944,59.48259228270447L98.16587081788127,55.263610486919355L98.25139998576311,126.25788019732204L98.42245832152678,91.16594337323208L98.59351665729044,79.59508425866048L98.7645749930541,72.4425487191319L98.85010416093594,66.85507823290126L99.10669166458143,67.23856188500034L99.19222083246326,60.242866643720625L99.27775000034511,26.20039191681367L99.44880833610875,54.8841247539968L99.5343375039906,66.46824256064816L99.61986667187242,56.49150937327315L99.79092500763609,59.92827235334807L99.87645417551792,44.36587970746981L99.96198334339975,44.5536285518051L100.04751251128158,70.66776184237163L100.21857084704526,82.4329788409625L100.30410001492707,96.52728750894771L100.38962918280892,59.73564595503776L100.47515835069075,56.56430373250612L100.56068751857259,63.25759123556875L100.64621668645441,53.36429951610406L100.73174585433624,74.92799275040852L100.81727502221808,90.25614467490097L100.90280419009991,74.52662115651619L100.98833335798173,77.41833579516175L101.07386252586358,72.10498592414247L101.1593916937454,86.24296575867669L101.24492086162725,81.36074686605546L101.50150836527274,63.690207790613975L101.58703753315456,55.058694019691885L101.6725667010364,52.3201210248215L101.84362503680006,66.89565636652493L101.9291542046819,59.81677630376988L102.01468337256372,65.46934923311855L102.10021254044557,94.85213404217731L102.27127087620921,52.99775923744878L102.35680004409106,65.38231651004519L102.44232921197289,60.36223902353746L102.52785837985473,52.16615757533382L102.61338754773655,73.78780739971053L102.78444588350023,102.04279191315429L102.95550421926389,75.62760914054218L103.12656255502755,-15.144280313393384L103.21209172290939,36.32947754675562L103.29762089079121,52.47361114633715L103.5542083944367,81.48925715046956L103.89632506596404,57.173037409659564L103.98185423384587,54.07333765326504L104.06738340172771,71.00813476864715L104.15291256960954,78.3619985394869L104.23844173749136,31.836632471341737L104.40950007325503,31.032024309369497L104.49502924113688,85.10022543150139L104.75161674478237,73.89192027222322L104.8371459126642,74.8774196167978L105.00820424842786,59.17025284695263L105.17926258419152,59.95324801098242L105.26479175207335,81.93752494703001L105.52137925571884,53.08333800070014L105.60690842360069,76.80907388086823L105.69243759148252,76.6521796689635L105.77796675936436,57.477437417135434L105.86349592724618,43.392433856772605L105.94902509512801,36.0577424984833L106.03455426300985,57.8144701226041L106.12008343089168,44.52374381411741L106.20561259877351,34.47356466888612L106.29114176665534,49.28286122542731L106.37667093453717,38.53580324158627L106.46220010241902,76.0359152511744L106.54772927030083,64.77994490747055L106.63325843818268,70.30185614673279L106.71878760606451,62.98387089961836L106.80431677394633,45.45722270256556L107.06090427759185,26.03217815905987L107.14643344547366,43.90742500802253L107.31749178123734,39.87658419622539L107.48855011700098,46.63454434195959L107.57407928488283,59.28909628253502L107.65960845276466,99.83751509593598L107.7451376206465,82.32138998825474L107.83066678852832,79.61270285249614L107.91619595641015,50.76511760561998L108.001725124292,35.93548919694734L108.08725429217382,66.18837519501308L108.17278346005565,30.004241209857437L108.34384179581932,61.781988461657605L108.42937096370116,52.966141854066045L108.51490013158298,51.3241935632622L108.60042929946482,42.139711681607956L108.68595846734665,50.58715428246351L108.85701680311031,52.52142246787742L108.94254597099214,64.20641457570592L109.02807513887399,50.57686699865397L109.1136043067558,55.08680064359856L109.19913347463763,68.6126224408022L109.28466264251948,66.11816619254208L109.37019181040131,89.37266423890655L109.45572097828314,90.36904182105498L109.54125014616497,104.49510182903354L109.6267793140468,96.88398427490556L109.71230848192864,71.36697269159488L109.79783764981046,75.8465094526128L109.8833668176923,57.23311286997257L110.1399543213378,39.87246326717349L110.31101265710147,37.878983795009844L110.48207099286512,44.77920821699701L110.73865849651061,49.78182511542513L110.82418766439245,41.50959500165609L110.90971683227428,68.41131026226118L110.99524600015613,71.56728399820184L111.08077516803795,77.4165249309296L111.16630433591978,46.53513112578855L111.25183350380162,54.98039904089033L111.33736267168345,63.93557488515428L111.42289183956528,39.44213958374433L111.50842100744711,46.51192564781766L111.59395017532894,81.79684205138729L111.67947934321079,68.83998281398488L111.7650085110926,81.98136736366621L112.02159601473811,89.6126560111806L112.10712518261994,82.56731817558675L112.19265435050177,69.5744620688964L112.36371268626544,76.70963758108103L112.44924185414726,72.98771996049425L112.62030018991094,28.08904914993189L112.70582935779277,51.94475419980639L112.7913585256746,28.59041048667599L112.87688769355643,46.18696294421618L112.96241686143827,44.56345542535863L113.04794602932009,65.52310056132424L113.30453353296559,62.60615284566128L113.39006270084742,75.1829093975709L113.47559186872925,75.13505460394343L113.81770854025659,64.00944664662589L113.90323770813842,55.86020124089819L114.07429604390208,45.076415287425725L114.15982521178391,75.66443923057899L114.24535437966576,98.48812178732639L114.33088354754757,99.57316378207146L114.50194188331125,91.86681346525977L114.67300021907491,79.47364379988291L114.75852938695674,55.33482125038971L114.84405855483857,72.41962296335326L115.01511689060223,98.59607617870834L115.10064605848407,98.8962861805919L115.1861752263659,65.46553655363874L115.27170439424773,70.48873120172846L115.35723356212957,73.3006683345533L115.4427627300114,69.71176422514823L115.52829189789324,63.00318009754675L115.61382106577507,44.601277101941676L115.87040856942056,76.31067505827173L115.9559377373024,81.7655273582811L116.12699607306605,62.26795999932689L116.2125252409479,75.03239854715093L116.29805440882971,57.305016767383165L116.38358357671156,61.026805442576666L116.46911274459339,63.9274254686966L116.55464191247522,26.339730141146905L116.72570024823888,27.989326965901014L116.81122941612072,46.518406827614534L116.89675858400255,40.99027808890042L116.98228775188437,47.93496653894642L117.06781691976622,76.13610083757632L117.15334608764805,89.73737114525996L117.23887525552988,76.91796361957891L117.3244044234117,67.28503405193646L117.58099192705721,71.89168316209971L117.66652109493903,89.63718121796387L117.8375794307027,84.9925822505335L117.92310859858455,61.94226573819218L118.00863776646636,50.59344191198L118.0941669343482,48.29033102261262L118.26522527011186,58.64568256062612L118.43628360587553,61.290312339022165L118.52181277375736,31.125010816171773L118.60734194163919,48.665143641597986L118.69287110952102,53.45347960435809L118.77840027740287,69.21966249584767L118.8639294452847,79.25967059521213L118.94945861316651,84.70112535805191L119.03498778104836,83.47759811653357L119.20604611681203,50.98144657372448L119.29157528469385,32.32981445789891L119.37710445257568,58.312701930332324L119.54816278833935,52.68924732297883L119.71922112410302,72.25965302243118L119.80475029198485,92.28923880450526L119.89027945986668,60.732142490140696L119.9758086277485,62.26856896954427L120.06133779563035,62.58798632962857L120.14686696351218,49.77328948374342L120.31792529927584,65.56953069294867L120.40345446715767,74.75302646193434L120.4889836350395,63.6934369818585L120.66004197080316,53.69251709965036L120.74557113868501,53.329995433160754L120.91662947444865,64.03386276976224L121.17321697809417,77.21428342441165L121.34427531385782,25.730215524778917L121.42980448173967,62.118684883622244L121.5153336496215,41.963342117882796L121.77192115326699,53.11580290933464L121.85745032114882,51.296651100026544L122.02850865691249,73.4251113416426L122.11403782479432,90.36832374022305L122.28509616055798,68.90900758580538L122.37062532843981,76.3051578414704L122.45615449632166,74.75836910595932L122.6272128320853,58.25891423074551L122.71274199996715,51.76331447672821L122.96932950361264,65.89233958495629L123.05485867149447,67.71678700967365L123.22591700725813,75.81979928608678L123.31144617513998,69.06943147990873L123.39697534302181,60.05588752981981L123.48250451090362,61.13377548379673L123.6535628466673,44.67507062774408L123.73909201454913,66.29757569886979L123.82462118243096,82.10758559963585L123.91015035031279,77.23660886428253L124.08120868607647,69.27290281924704L124.25226702184013,71.66087400394106L124.4233253576038,58.1800265047497L124.50885452548562,79.54571131252885L124.59438369336745,66.3946132683622L124.67991286124929,31.523367612806553L124.76544202913112,32.79107693990849L125.10755870065846,57.5666003871665L125.19308786854027,49.06813920267761L125.27861703642212,41.12525453806219L125.36414620430395,58.556470291028674L125.44967537218577,78.3892974855585L125.62073370794944,80.97522604164428L125.70626287583129,73.15250007983295L125.7917920437131,58.842128294952985L125.87732121159493,54.917328223045445L125.96285037947678,38.31185814405981L126.0483795473586,37.83121177898631L126.13390871524044,38.5606137056503L126.21943788312227,39.096317172332675L126.3049670510041,63.37063526468271L126.39049621888594,64.84272236915368L126.5615545546496,62.93176904213137L126.64708372253143,63.22495341978948L126.73261289041326,57.588233328266284L126.8181420582951,50.1419894980648L126.90367122617693,12.075471279771893L126.98920039405876,41.432949973996465L127.0747295619406,36.28415852616206L127.24578789770426,35.49809098650486L127.33131706558609,43.387748179630044L127.41684623346791,50.80990696904698L127.50237540134975,18.372656733438948L127.58790456923158,51.204100229252006L127.67343373711343,55.188206579906534L127.84449207287707,68.5224102057499L127.93002124075892,7.57260857133444L128.27213791228624,34.74109014079276L128.35766708016808,26.17285161842912L128.52872541593175,49.30214747788738L128.61425458381356,51.76115965793684L128.6997837516954,38.23334013476234L128.78531291957725,31.36088758151621L128.87084208745907,59.335574144169186L128.9563712553409,18.19285290099171L129.04190042322273,42.50694536041898L129.2129587589864,41.870566887350584L129.29848792686823,32.69513351068075L129.38401709475008,30.117324642350447L129.4695462626319,46.79396606130421L129.64060459839556,48.645464859718054L129.7261337662774,68.96114622013071L129.81166293415924,69.33871009400936L129.89719210204106,57.16542019073841L129.98272126992288,54.70151468759016L130.06825043780472,56.14291376679257L130.4958962772139,81.54563476661215L130.5814254450957,85.97024559321672L130.66695461297755,89.74678593249057L130.7524837808594,65.94667157987453L130.8380129487412,92.20279525362447L130.92354211662305,103.03515800431644L131.09460045238671,90.11987102048715L131.26565878815038,67.48592390427451L131.52224629179585,90.64290268087177L131.6077754596777,102.37936943752197L131.69330462755954,61.89716481414476L131.7788337954414,66.34813845284938L132.03542129908686,41.32633775058514L132.1209504669687,63.2170278730506L132.29200880273237,59.08878790286076L132.37753797061418,41.64396391373367L132.46306713849603,64.36537036265436L132.54859630637785,35.4340752787281L132.71965464214153,37.875281476712935L132.80518381002335,64.35405879108808L132.8907129779052,56.2647508020895L132.976242145787,80.5451952077859L133.06177131366886,76.11371334317684L133.14730048155067,49.4364642010767L133.23282964943252,67.85014811296305L133.31835881731436,80.56037053175847L133.40388798519618,47.75560379236812L133.57494632095984,71.77821221473435L133.66047548884168,60.68376481172829L133.83153382460534,76.73076770148039L134.002592160369,70.04721598403084L134.08812132825085,47.38223341707806L134.2591796640145,68.53221988028781L134.43023799977817,74.53013497098723L134.51576716766,44.672618203303074L134.60129633554183,74.80709456765746L134.68682550342368,69.0779908902484L134.94341300706915,56.213106017073805L135.028942174951,48.040398906077044L135.11447134283281,58.343011005558274L135.20000051071466,68.24757728540214L135.37105884647832,70.05387138595529L135.45658801436014,56.88507390327698L135.54211718224198,53.83338122113301L135.62764635012383,37.00437232298227L135.71317551800567,82.07404282495999L135.96976302165115,108.00592468816528L136.1408213574148,104.19762451159397L136.22635052529665,103.36572486413927L136.39740886106028,54.75479511392751L136.48293802894216,50.76031443633657L136.65399636470582,65.95914677077303L136.73952553258763,68.64458320585229L136.82505470046945,82.10532336572462L136.91058386835132,72.62526549107294L137.08164220411496,74.44533437047748L137.1671713719968,60.343938808928385L137.25270053987862,51.513443926466614L137.4237588756423,32.556052195851734L137.50928804352412,48.085234676880056L137.59481721140597,69.02295996503264L137.68034637928778,72.2644722626009L137.85140471505147,74.7911227420523L137.9369338829333,76.98951556802771L138.10799221869695,63.19435585399572L138.36457972234246,47.96099427908801L138.53563805810612,78.97945369183363L138.62116722598796,76.52953585701661L138.70669639386978,66.16618792648076L138.79222556175162,76.21234401236119L138.96328389751528,66.4320133621348L139.13434223327894,61.702872220577504L139.2198714011608,51.40782252448091L139.3054005690426,44.884889122757535L139.39092973692442,47.807924094296126L139.4764589048063,63.122777122100196L139.5619880726881,53.88142395634609L139.64751724056995,66.88779205737207L139.73304640845177,64.19081291648719L139.8185755763336,62.88909195943313L140.0751630799791,65.27110750580906L140.16069224786094,70.09879390704478L140.24622141574275,69.65335337903373L140.5883380872701,77.99408809907358L140.67386725515192,56.12340207692419L140.75939642303376,60.05149001854388L140.8449255909156,73.88455495910169L140.93045475879742,82.00579816122533L141.10151309456108,71.45709319764485L141.18704226244293,71.33589544154385L141.27257143032477,45.54075279089292L141.3581005982066,40.046409219752846L141.4436297660884,84.0057719629068L141.87127560549757,81.2815709751731L141.9568047733794,78.40657439153004L142.04233394126123,76.78192547577447L142.12786310914308,89.6788222007602L142.21339227702492,82.00200676422007L142.29892144490674,98.45028489220931L142.4699797806704,79.5682039785539L142.55550894855224,70.75099893484023L142.64103811643406,69.73289237251039L142.7265672843159,57.221139104501816L142.81209645219772,64.6492712575444L142.89762562007957,56.66333843778535L142.9831547879614,55.25955558865877L143.06868395584323,50.335311483369985L143.15421312372507,58.948895891611365L143.3252714594887,54.0081469279045L143.41080062737058,40.1935653952721L143.4963297952524,56.573844940471574L143.58185896313424,57.876049580340684L143.66738813101605,56.02426938018842L143.75291729889787,77.78085209202168L143.83844646677974,68.00516402878075L144.00950480254338,61.38718598330556L144.18056313830704,68.2256911694139L144.26609230618888,92.54609606508772L144.35162147407073,62.806495821142384L144.43715064195254,62.3387626595285L144.5226798098344,73.17199528665456L144.69373814559805,83.77558597467625L144.8647964813617,55.40291329363502L144.95032564924352,69.40601590633119L145.1213839850072,69.13101080061945L145.29244232077087,70.3020392077004L145.3779714886527,40.37331828663846L145.46350065653453,45.59502260023941L145.6345589922982,43.46937201056088L145.89114649594367,79.95778240693336L145.97667566382555,67.35054620776302L146.23326316747102,69.30532071987618L146.31879233535284,68.17598760280647L146.4043215032347,61.774613327461154L146.6609090068802,38.682183764407455L146.746438174762,68.87985090657432L146.9174965105257,61.41823661468713L147.0030256784075,56.54045588502338L147.08855484628936,74.5113427007113L147.17408401417117,69.64444078146194L147.25961318205302,88.76248482984963L147.34514234993486,98.51962601271389L147.43067151781668,118.78910743911311L147.5162006856985,82.05225240988707L147.60172985358034,99.1252933981549L147.68725902146218,109.02983391909277L147.85831735722584,82.73389127220405L147.94384652510766,62.581977327118935L148.0293756929895,54.173085293698726L148.285963196635,67.18611582703178L148.37149236451683,76.34770203324805L148.5425507002805,63.57056040538714L148.62807986816233,75.81989138982057L148.71360903604418,94.83700307896453L148.799138203926,108.24830068931392L148.97019653968965,111.0985095347605L149.0557257075715,97.31916821302954L149.22678404333516,88.64962428009673L149.31231321121697,70.61827541386533L149.39784237909882,76.58828539352312L149.48337154698066,74.5441410364843L149.56890071486248,86.5253429579545L149.65442988274432,87.32059080241855L149.73995905062614,81.58680380718819L149.82548821850796,68.33941090796603L149.91101738638983,84.98294727838068L149.99654655427165,88.57643911816119L150.0820757221535,74.37489159207438L150.1676048900353,45.058264765685465L150.25313405791712,48.44410503788508L150.338663225799,45.88268093361239L150.50972156156263,66.91867152808928L150.59525072944447,71.12556998118228L150.6807798973263,68.78082134997213L150.76630906520816,58.28671591631113L150.9373674009718,54.61684709007128L151.02289656885364,59.164000315360816L151.36501324038096,32.88145376493162L151.62160074402647,50.22105298783056L151.79265907979013,65.62995080927276L151.87818824767194,45.115559000054L151.9637174155538,18.20104352074194L152.04924658343563,40.71593332220431L152.13477575131745,48.48005225025787L152.3058340870811,81.34958773993067L152.39136325496295,72.1601825929482L152.4768924228448,77.7506023960779L152.56242159072661,56.091997296238546L152.64795075860846,54.203040771156104L152.8190090943721,68.81400136462334L152.90453826225396,53.65965487051403L152.99006743013578,48.93711895890121L153.0755965980176,49.39484060064455L153.16112576589944,68.86967136431106L153.24665493378126,74.62680353341331L153.33218410166313,49.43094793871598L153.41771326954495,61.53522675231555L153.50324243742676,66.1541442869357L153.5887716053086,74.80014080534879L153.67430077319042,67.56946346846937L153.8453591089541,84.06478089785122L153.93088827683593,67.30958851129363L154.1019466125996,74.86119922923085L154.18747578048144,65.2710833084986L154.27300494836328,62.8084385575294L154.4440632841269,58.39296578224023L154.52959245200876,52.552663967073904L154.61512161989057,39.381427133693165L154.70065078777245,33.49680472516959L154.78617995565426,39.80005425885244L154.87170912353608,79.36645264564058L155.21382579506343,39.16136430063335L155.38488413082706,21.862347138517L155.6414716344726,37.99418619334269L155.7270008023544,44.09772821794057L155.81252997023623,54.39954835002078L155.89805913811807,79.77171390580449L155.98358830599992,96.88839918364692L156.06911747388173,107.47972926774655L156.2401758096454,90.27169338000918L156.32570497752724,44.37747563757119L156.41123414540908,74.92886174886624L156.4967633132909,80.45786913581496L156.58229248117274,82.68910399812812L156.66782164905456,96.10890378061013L156.75335081693638,78.09298424306833L156.83887998481825,81.91927650081941L156.92440915270006,84.21449325633452L157.00993832058188,95.79515859797623L157.18099665634554,60.72480490249725L157.26652582422741,47.58321174997425L157.35205499210923,50.717511814870605L157.5231133278729,73.70103060101306L157.6086424957547,91.61859943067779L157.69417166363655,84.02182789863683L157.7797008315184,35.71076689186646L157.8652299994002,11.8980030989834L157.95075916728206,24.74547133120563L158.12181750304572,39.79146396480812L158.20734667092756,83.95881142721238L158.29287583880938,62.95076835864643L158.3784050066912,69.54379800345004L158.46393417457304,69.52773916517901L158.54946334245489,88.8410121947687L158.63499251033673,73.71767214052137L158.80605084610036,69.00477432957123L158.8915800139822,87.04431576581577L158.97710918186405,68.39778570132762L159.06263834974587,51.4657852293568L159.1481675176277,85.38266023582133L159.23369668550953,92.89292379001213L159.31922585339134,76.85365888750941L159.40475502127322,68.5322393902558L159.49028418915503,82.166987035959L159.6613425249187,49.4250454367171L159.7468716928005,57.479478086718885L159.9179300285642,78.84116866561445L160.26004670009155,62.221864189648095L160.34557586797337,59.47226884791024L160.51663420373703,48.838961474478005L160.60216337161884,52.434546942337924L160.6876925395007,41.45719586471263L160.85875087526435,41.29252521417953L161.029809211028,74.90202476063064L161.11533837890983,60.903472816730144L161.2008675467917,66.41243964442401L161.37192588255533,60.68268526954189L161.45745505043718,61.06883607564337L161.542984218319,55.315594584903046L161.62851338620084,61.101678828863676L161.7995717219645,50.66635166853812L161.88510088984634,64.58421098000825L161.97063005772816,71.83098850218514L162.05615922561,68.6008711423534L162.14168839349185,63.11346267832447L162.31274672925548,51.04200986822526L162.39827589713732,55.51870996313607L162.48380506501917,50.93912545718352L162.65486340078283,63.34496080951581L162.74039256866465,81.0698672036414L162.99698007231015,66.8287015571581L163.082509240192,85.27120298088558L163.1680384080738,51.0693957394958L163.25356757595563,55.74004335495553L163.42462591171932,63.185714134751926L163.51015507960116,71.46125314391972L163.59568424748298,66.70323629603152L163.6812134153648,75.3911747392602L163.76674258324667,59.06676833987605L163.85227175112848,52.07888389036419L163.9378009190103,53.158058946747744L164.02333008689214,64.12415278613409L164.19438842265583,87.9732494175732L164.27991759053765,76.14246511751165L164.36544675841947,70.91877618927421L164.4509759263013,87.34495653024557L164.53650509418313,86.12975322089918L164.62203426206497,74.19653008819436L164.70756342994682,70.96763432381252L164.87862176571045,75.0879020194628L164.9641509335923,60.29907161622465L165.04968010147414,79.83355174735556L165.13520926935598,78.89847255534255L165.2207384372378,75.18470369974052L165.30626760511961,75.47993719161218L165.56285510876512,94.97612538235315L165.73391344452878,95.18707852471184L165.8194426124106,95.8202634893044L165.90497178029247,89.89248438043269L165.9905009481743,52.36628485036412L166.07603011605613,53.91226502334209L166.16155928393795,40.61909952576465L166.24708845181976,56.47835047740626L166.33261761970164,82.87243779607702L166.41814678758345,70.83111153885899L166.50367595546527,77.13237846014113L166.7602634591108,72.05927683203453L166.84579262699262,74.20423375001964L167.1023801306381,17.807988503942L167.18790929851994,29.79606353131494L167.27343846640179,73.00413046345898L167.3589676342836,74.80013275189275L167.44449680216545,76.54431064876925L167.53002597004726,59.07175376227324L167.70108430581095,49.9313914525331L167.78661347369277,61.84524225761172L167.87214264157458,76.13749235576192L167.95767180945643,59.669047651502424L168.04320097733824,41.42672288613093L168.1287301452201,39.85320729832243L168.21425931310193,35.69012123559194L168.3853176488656,57.03157945158078L168.4708468167474,75.52942447908174L168.55637598462926,59.897749351662775L168.72743432039292,58.87928033873113L168.81296348827473,55.24096661728142L168.89849265615658,96.33201254051876L169.06955099192027,74.52086287044614L169.15508015980208,89.68589552506273" style="fill: none;" fill="none"></path></g></g></g></g><g opacity="0.2"><g><g><g><path stroke="rgb(0, 119, 187)" stroke-width="2px" d="M51.03929931499168,106.10195050263177L51.21035765075534,22.159906508258853L51.38141598651901,90.62930884980474L51.46694515440084,30.033791041153886L51.6380034901645,67.7856595135794L51.80906182592817,111.23888093735722L51.894590993810006,124.48749983168612L51.980120161691836,128.55774026332892L52.06564932957367,110.02350635229675L52.1511784974555,155.0668606312841L52.236707665337335,84.10592515628817L52.322236833219165,81.28381257315384L52.407766001101,72.23812291262215L52.493295168982826,113.19904949914883L52.57882433686466,56.472834659406416L52.664353504746494,63.5615549141112L52.835411840510154,54.04665571209212L53.00647017627382,22.629573072026904L53.09199934415566,76.6078652788637L53.263057679919314,136.80562136257183L53.51964518356482,104.11207549259665L53.60517435144665,81.53761227968565L53.69070351932848,67.1645662341495L53.77623268721031,147.23121362920506L53.86176185509215,168.5516077039589L54.032820190855816,111.98946386297682L54.28940769450131,199.76348734000348L54.374936862383144,209.90542111110113L54.545995198146805,91.12152184608584L54.631524366028636,90.73122481839405L54.71705353391047,270.8533792685283L54.8025827017923,122.10123416355029L54.888111869674134,207.9757207013542L54.973641037555964,180.33943104850775L55.14469937331963,164.36025636793866L55.23022854120146,90.28867490994574L55.48681604484696,90.37124360198669L55.57234521272879,107.96995290448834L55.65787438061063,97.05824127198295L55.74340354849245,76.72471064195487L55.82893271637429,120.59641213406577L56.08552022001978,99.90427135447233L56.17104938790162,102.50609919832395L56.25657855578345,86.81484855457667L56.342107723665286,92.83322262795342L56.42763689154712,69.51944970567935L56.51316605942895,45.69030799157029L56.59869522731078,22.817409229382083L56.684224395192615,82.47024241377193L56.769753563074445,-6.127335213021222L56.85528273095628,67.80622551620954L57.02634106671994,79.62969659865061L57.111870234601774,53.33644308793168L57.197399402483605,43.185825893501274L57.28292857036544,94.46296408082097L57.4539869061291,83.02232532882073L57.62504524189277,21.003944819685408L57.710574409774594,74.67892657291786L57.88163274553826,62.77852340656407L57.9671619134201,92.959208436658L58.13822024918376,13.001941707442683L58.22374941706559,41.370381053921705L58.30927858494743,15.103939517002047L58.39480775282926,56.039120515051025L58.480336920711096,69.19008898207684L58.56586608859292,41.02380582441399L58.73692442435659,37.05715710972294L58.822453592238425,87.2081923974729L58.907982760120255,86.19314591210589L58.99351192800208,33.07146580000401L59.16457026376575,65.46581441690088L59.421157767411245,47.63280502517599L59.506686935293075,74.07504779939319L59.59221610317491,43.86922654386245L59.67774527105674,21.100376520906686L59.848803606820404,106.13272333619685L59.93433277470224,116.33208957389864L60.01986194258407,58.71635703521311L60.27644944622957,102.21330025717499L60.3619786141114,51.76230601254561L60.61856611775689,54.63651913567626L60.8751536214024,9.484850576170224L60.96068278928422,59.79233982466939L61.04621195716606,82.89237866035036L61.13174112504789,25.600065555618613L61.217270292929726,65.27782591878548L61.47385779657522,17.63142506986476L61.559386964457055,134.58708287144174L61.644916132338885,77.62108367510804L61.73044530022072,142.89072068892634L61.815974468102546,76.13896041889677L61.987032803866214,23.393257303025692L62.07256197174805,14.210460958293126L62.32914947539354,66.12636395322858L62.585736979039034,75.29499260726038L62.67126614692087,41.13501457937691L62.84232448268454,101.86916247983085L63.0133828184482,43.11971000356443L63.09891198633003,96.08006125058995L63.18444115421187,61.364344129412345L63.2699703220937,59.295708946341854L63.355499489975536,72.33683972524676L63.44102865785736,63.127840769755814L63.61208699362103,55.07876436260412L63.697616161502864,83.98359552582896L63.783145329384695,57.41658566898898L63.868674497266525,44.87117172385028L64.03973283303019,43.42088768652564L64.12526200091203,18.14374704649529L64.21079116879386,76.32725359853262L64.38184950455752,78.00056450882397L64.46737867243935,77.89742981415287L64.55290784032118,33.33836681191501L64.72396617608484,26.44342400421411L64.80949534396667,48.714729104280984L64.98055367973035,51.426089954733065L65.06608284761218,91.64344129061043L65.23714118337584,42.80604037826491L65.32267035125767,52.25878455011293L65.40819951913952,37.97394380474601L65.57925785490318,21.43491683035677L65.664787022785,114.62800583004221L65.9213745264305,52.00391845825957L66.00690369431233,50.307299411654064L66.09243286219417,1.0971206590424227L66.177962030076,-13.17202898802151L66.34902036583966,27.724457456930782L66.4345495337215,91.91841636281326L66.60560786948515,90.98746197708944L66.77666620524882,50.71085008548524L66.86219537313066,58.39628909798422L66.94772454101249,109.89950097347507L67.03325370889432,117.33266368704447L67.204312044658,100.87513901937461L67.28984121253981,44.914436499753656L67.54642871618532,92.7922429634534L67.88854538771265,29.25517741565324L67.97407455559447,52.09684632199569L68.23066205923996,87.24597290600825L68.3161912271218,117.58493998597405L68.48724956288547,30.495535885390336L68.5727787307673,29.2358301391049L68.65830789864913,43.139057280112766L68.74383706653097,59.6299445742715L68.8293662344128,66.26865022327702L69.0859537380583,13.812546892590198L69.17148290594014,42.120811638781056L69.25701207382195,72.43083397430446L69.34254124170378,97.71406824474374L69.59912874534929,68.27040781260955L69.68465791323112,83.653930120706L69.77018708111295,66.88349753153774L69.8557162489948,55.56960629204319L69.94124541687661,94.19088348306236L70.02677458475846,64.4324870403071L70.1978329205221,105.84205716569103L70.28336208840395,53.134439239875746L70.36889125628578,50.92610757968059L70.53994959204944,87.93866634274303L70.62547875993127,106.70811438755979L70.71100792781311,50.57755192028998L70.79653709569494,61.79257400639968L70.88206626357677,58.82406195269088L70.9675954314586,116.70501975492498L71.05312459934044,94.75484897740856L71.2241829351041,50.51631093468026L71.30971210298594,57.77504347779411L71.4807704387496,112.78940519490872L71.82288711027692,89.29632719785197L71.90841627815875,50.75670465431242L72.07947461392243,103.43050293135815L72.16500378180424,11.821605497233515L72.25053294968609,37.419575778293876L72.33606211756792,97.95781346110083L72.42159128544976,75.48968409882559L72.50712045333158,90.29659662947732L72.59264962121341,-9.033387555038482L72.76370795697709,131.2337580574092L73.02029546062258,95.3966606002288L73.10582462850442,107.78379249549562L73.19135379638624,81.18281064912587L73.27688296426808,27.287087134330037L73.44794130003174,83.42145812060544L73.6189996357954,79.99531442318623L73.79005797155907,61.467783505603876L73.96111630732274,86.13540876398132L74.1321746430864,66.65513873196322L74.21770381096823,99.02221835278014L74.30323297885006,121.46323105973565L74.3887621467319,106.00231964544582L74.47429131461372,98.49725209305109L74.6453496503774,45.56477920514639L74.73087881825923,-1.3116914416064045L74.90193715402289,85.4590157885904L74.98746632190472,24.574355217035972L75.07299548978656,50.05349970512225L75.24405382555022,48.48484689710422L75.67169966495939,84.30838602662476L75.84275800072304,84.77378704910656L75.92828716860488,82.94188940742288L76.09934550436854,19.93146586771426L76.18487467225037,64.19925333640542L76.2704038401322,35.30310559651331L76.35593300801405,83.49930424907949L76.44146217589586,-10.479863073357551L76.52699134377771,88.56295877813761L76.61252051165954,67.05533790906951L76.69804967954137,111.52147304757123L76.7835788474232,94.22622653943415L76.86910801530503,118.65300105589873L77.21122468683237,5.646015759306447L77.2967538547142,85.42671954742309L77.46781219047786,56.19389872743777L77.72439969412335,75.83077506096528L77.8099288620052,37.72227686885733L77.98098719776885,35.97416664529639L78.06651636565068,84.81034883156013L78.15204553353252,48.940498110931735L78.23757470141435,29.14412100145056L78.32310386929619,92.70647511544776L78.49416220505985,88.94959962758402L78.57969137294168,95.76456353616776L78.66522054082351,41.86990640669349L78.75074970870534,46.51873704566391L78.83627887658717,5.97004455630114L78.92180804446902,64.12475870465629L79.17839554811451,83.12896386097694L79.26392471599634,117.89282066238508L79.43498305176,43.94021733812644L79.60604138752367,90.3587516596484L79.77709972328734,67.55638666944353L79.948158059051,20.73262592572793L80.11921639481466,43.09244100748448L80.2047455626965,73.56348752656376L80.29027473057833,48.65516386703373L80.37580389846015,71.52851965150259L80.461333066342,51.12658802013429L80.54686223422382,66.85866598762138L80.63239140210567,73.06045833630684L80.71792056998748,59.513403892700765L80.80344973786931,107.94161752308683L80.97450807363298,5.8714800844367465L81.14556640939665,80.96481102124652L81.23109557727848,41.677500026531625L81.40215391304214,75.51603905034422L81.57321224880582,116.18310031040039L81.65874141668763,65.57869892022626L81.74427058456948,68.9918936530265L81.82979975245131,75.518628843268L81.91532892033314,31.768799959335645L82.00085808821497,45.14325232160887L82.0863872560968,110.48921205629898L82.17191642397864,75.26635254433843L82.25744559186047,91.85047238375374L82.34297475974229,62.735563312181135L82.42850392762413,22.5171455909822L82.59956226338781,78.0671374210415L82.68509143126963,31.019588100558057L82.8561497670333,79.0282552772895L83.02720810279696,102.25945950752264L83.11273727067879,52.26716329192521L83.19826643856062,61.13568064831736L83.28379560644245,139.4281675498138L83.36932477432428,71.06266160674012L83.54038311008796,91.22678931140005L83.62591227796977,26.64497082998936L83.79697061373345,43.150178155609055L83.8824997816153,63.05547890864982L83.96802894949711,30.751773044085716L84.05355811737894,35.64450124017343L84.13908728526079,75.52563651823826L84.31014562102445,45.60240737292151L84.39567478890628,77.52495665540721L84.48120395678811,82.5889158659858L84.56673312466995,98.04815153191315L84.82332062831544,127.20998155763448L84.9943789640791,29.04966973011218L85.07990813196093,68.9912842899856L85.2509664677246,80.47686356625168L85.33649563560643,88.8679449801044L85.42202480348827,78.30920688903612L85.59308313925192,109.2593650990173L85.67861230713376,122.05598895776403L85.84967064289744,79.46455921456868L86.02072897866108,17.9761722102498L86.44837481807025,41.57665044326388L86.5339039859521,41.636825043552044L86.79049148959758,81.54553399921726L86.8760206574794,70.92250810733479L86.96154982536125,76.67900841388793L87.04707899324308,93.03857797273427L87.13260816112492,94.99600440084184L87.21813732900674,46.519346408704806L87.38919566477041,47.38966917185981L87.56025400053407,122.04182126706326L87.73131233629773,59.45216290709104L87.9023706720614,92.35121646260731L88.1589581757069,59.33546988476009L88.24448734358873,93.13790414839977L88.41554567935239,125.318823360224L88.50107484723422,111.0374864523422L88.58660401511605,28.233732618356868L88.6721331829979,52.41569553314281L88.75766235087973,68.84473247865091L88.92872068664339,64.07722838746665L89.01424985452522,64.36789455797246L89.18530819028888,95.48776037484224L89.27083735817071,33.39183841875335L89.35636652605255,68.69223937766752L89.44189569393438,59.433120312063146L89.52742486181621,100.14420805182382L89.61295402969805,65.64755694384714L89.78401236546172,51.6800420020251L89.86954153334354,70.83079896968046L90.04059986910721,125.75131877849758L90.12612903698903,28.02350236924888L90.21165820487087,38.56654936201417L90.2971873727527,72.12249627561276L90.38271654063455,101.49684166184541L90.46824570851636,-1.0687079290504395L90.5537748763982,52.23349598391588L90.63930404428004,86.6363051835951L90.72483321216187,39.540616182881145L90.8103623800437,123.95324078558343L90.89589154792553,74.96944040266345L90.98142071580736,22.418885800638265L91.0669498836892,32.51938288495521L91.15247905157102,73.31776188032379L91.23800821945285,75.00310771067278L91.40906655521653,54.80013311215593L91.49459572309836,53.367368262256974L91.75118322674386,73.48762182797263L91.83671239462568,59.610444956962915L92.17882906615301,53.643714401301814L92.4354165697985,27.935144728319443L92.52094573768034,112.61786949889742L92.69200407344401,119.5099178321541L92.77753324132584,139.3183298616929L92.9485915770895,70.70725061313945L93.03412074497135,15.849799879054714L93.11964991285316,71.20997512187593L93.37623741649867,77.63327093592589L93.4617665843805,80.93784670668701L93.63282492014417,56.99246899252765L93.9749415916715,111.99113961133928L94.06047075955334,82.20273203882005L94.23152909531699,32.951116599427706L94.31705826319883,36.792845890735734L94.40258743108065,36.04409105423884L94.48811659896248,102.31567324804496L94.57364576684432,147.7903042192241L94.65917493472615,95.95575119024785L94.74470410260798,55.71280660665298L94.91576243837164,123.47930868052914L95.00129160625349,63.515700345284024L95.0868207741353,87.55141613025572L95.17234994201715,73.01567015280122L95.25787910989898,22.215510885740315L95.34340827778081,57.47889303992026L95.42893744566264,83.62818453222829L95.68552494930815,74.33113261732834L95.77105411718996,96.90681455632112L95.8565832850718,45.64597683034533L96.36975829236279,49.09390525647646L96.54081662812646,59.261279934531416L96.6263457960083,92.30429550845857L96.71187496389012,101.60104274183806L96.79740413177196,133.41878158129023L96.8829332996538,16.927763098393914L96.96846246753563,88.88424544144827L97.05399163541745,60.38585942649888L97.13952080329929,123.10957765546749L97.22504997118112,-3.362959778011469L97.31057913906297,49.57316928813857L97.39610830694478,87.93836166122257L97.48163747482661,24.55013303616049L97.56716664270846,121.98393177817844L97.65269581059027,72.22837310396787L97.7382249784721,27.610201886763402L97.82375414635395,81.33560843162972L97.90928331423578,42.250758307251424L98.08034164999944,64.28365011756904L98.16587081788127,51.044628691134236L98.25139998576311,197.25214990772443L98.42245832152678,56.07400654914213L98.59351665729044,68.0242251440889L98.7645749930541,65.29001317960333L98.85010416093594,61.26760774667063L99.10669166458143,67.62204553709971L99.19222083246326,53.24717140244089L99.27775000034511,-7.842082810093268L99.44880833610875,83.5678575911799L99.5343375039906,78.05236036729985L99.61986667187242,46.51477618589812L99.79092500763609,63.36503533342331L99.87645417551792,28.803487061591532L99.96198334339975,44.74137739614013L100.04751251128158,96.78189513293813L100.21857084704526,94.19819583955307L100.30410001492707,110.62159617693293L100.38962918280892,22.944004401127554L100.47515835069075,53.39296150997446L100.56068751857259,69.95087873863139L100.64621668645441,43.471007796639064L100.73174585433624,96.49168598471299L100.81727502221808,105.58429659939343L100.90280419009991,58.7970976381314L100.98833335798173,80.31005043380732L101.07386252586358,66.79163605312317L101.1593916937454,100.38094559321065L101.24492086162725,76.47852797343423L101.50150836527274,46.0196687151728L101.58703753315456,46.42718024876979L101.6725667010364,49.58154802995085L101.84362503680006,81.47119170822833L101.9291542046819,52.73789624101482L102.01468337256372,71.12192216246693L102.10021254044557,124.23491885123609L102.27127087620921,11.143384432719937L102.35680004409106,77.76687378264161L102.44232921197289,55.342161537029995L102.52785837985473,43.97007612713019L102.61338754773655,95.40945722408755L102.78444588350023,130.297776426598L102.95550421926389,49.212426367930085L103.12656255502755,-105.91616976732925L103.21209172290939,87.80323540690463L103.29762089079121,68.61774474591837L103.5542083944367,110.50490315460198L103.89632506596404,32.856817668849565L103.98185423384587,50.97363789687022L104.06738340172771,87.94293188402928L104.15291256960954,85.71586231032668L104.23844173749136,-14.688733596803418L104.40950007325503,30.227416147397555L104.49502924113688,139.16842655363328L104.75161674478237,62.68361511294503L104.8371459126642,75.86291896137237L105.00820424842786,43.46308607710746L105.17926258419152,60.73624317501219L105.26479175207335,103.92180188307792L105.52137925571884,24.22915105437026L105.60690842360069,100.53480976103604L105.69243759148252,76.49528545705878L105.77796675936436,38.302695165307625L105.86349592724618,29.3074302964098L105.94902509512801,28.723051140193697L106.03455426300985,79.5711977467249L106.12008343089168,31.233017505630723L106.20561259877351,24.4233855236548L106.29114176665534,64.09215778196852L106.37667093453717,27.788745257744957L106.46220010241902,113.53602726076248L106.54772927030083,53.5239745637664L106.63325843818268,75.82376738599503L106.71878760606451,55.66588565250425L106.80431677394633,27.930574505512737L107.06090427759185,6.607133615554459L107.14643344547366,61.78267185698518L107.31749178123734,35.845743384428246L107.48855011700098,53.392504487693806L107.57407928488283,71.94364822311076L107.65960845276466,140.38593390933693L107.7451376206465,64.80526488057319L107.83066678852832,76.90401571673756L107.91619595641015,21.91753235874378L108.001725124292,21.10586078827472L108.08725429217382,96.44126119307911L108.17278346005565,-6.1798927752982L108.34384179581932,93.55973571345775L108.42937096370116,44.15029524647421L108.51490013158298,49.682245272458374L108.60042929946482,32.95522979995372L108.68595846734665,59.03459688331933L108.85701680311031,54.45569065329135L108.94254597099214,75.89140668353411L109.02807513887399,36.94731942160204L109.1136043067558,59.59673428854285L109.19913347463763,82.13844423800585L109.28466264251948,63.62370994428226L109.37019181040131,112.62716228527103L109.45572097828314,91.36541940320313L109.54125014616497,118.62116183701208L109.6267793140468,89.2728667207776L109.71230848192864,45.84996110828418L109.79783764981046,80.32604621363075L109.8833668176923,38.61971628733205L110.1399543213378,22.511813664374404L110.31101265710147,35.8855043228465L110.48207099286512,51.6794326389842L110.73865849651061,54.784442013852946L110.82418766439245,33.23736488788705L110.90971683227428,95.31302552286628L110.99524600015613,74.7232577341428L111.08077516803795,83.26576586365735L111.16630433591978,15.653737320647494L111.25183350380162,63.42566695599213L111.33736267168345,72.89075072941822L111.42289183956528,14.948704282334646L111.50842100744711,53.58171171189099L111.59395017532894,117.08175845495688L111.67947934321079,55.88312357658249L111.7650085110926,95.12275191334753L112.02159601473811,97.24394465869501L112.10712518261994,75.5219803399929L112.19265435050177,56.581605962205764L112.36371268626544,83.84481309326564L112.44924185414726,69.26580233990778L112.62030018991094,-16.80962166063049L112.70582935779277,75.80045924968087L112.7913585256746,5.236066773545886L112.87688769355643,63.78351540175636L112.96241686143827,42.93994790650109L113.04794602932009,86.48274569729014L113.30453353296559,59.689205129998314L113.39006270084742,87.7596659494808L113.47559186872925,75.08719981031597L113.81770854025659,52.88383868930862L113.90323770813842,47.710955835170495L114.07429604390208,34.29262933395298L114.15982521178391,106.25246317373227L114.24535437966576,121.31180434407379L114.33088354754757,100.65820577681681L114.50194188331125,84.16046314844804L114.67300021907491,67.08047413450632L114.75852938695674,31.1959987008965L114.84405855483857,89.50442467631682L115.01511689060223,124.77252939406368L115.10064605848407,99.19649618247546L115.1861752263659,32.03478692668531L115.27170439424773,75.51192584981818L115.35723356212957,76.11260546737817L115.4427627300114,66.12286011574344L115.52829189789324,56.2945959699453L115.61382106577507,26.199374106336577L115.87040856942056,108.02007301460178L115.9559377373024,87.22037965829077L116.12699607306605,42.770392640372684L116.2125252409479,87.79683709497525L116.29805440882971,39.577634987615376L116.38358357671156,64.74859411777018L116.46911274459339,66.82804549481652L116.55464191247522,-11.247965186402787L116.72570024823888,29.638923790655422L116.81122941612072,65.04748668932805L116.89675858400255,35.4621493501863L116.98228775188437,54.87965498899244L117.06781691976622,104.33723513620649L117.15334608764805,103.33864145294358L117.23887525552988,64.09855609389788L117.3244044234117,57.652104484294014L117.58099192705721,76.49833227226324L117.66652109493903,107.382679273828L117.8375794307027,80.34798328310288L117.92310859858455,38.89194922585087L118.00863776646636,39.24461808576751L118.0941669343482,45.98722013324526L118.26522527011186,69.0010340986399L118.43628360587553,63.93494211741821L118.52181277375736,0.9597092933211251L118.60734194163919,66.20527646702418L118.69287110952102,58.24181556711792L118.77840027740287,84.98584538733722L118.8639294452847,89.29967869457688L118.94945861316651,90.14258012089171L119.03498778104836,82.25407087501526L119.20604611681203,18.485295030915644L119.29157528469385,13.678182342073363L119.37710445257568,84.29558940276601L119.54816278833935,47.065792715625335L119.71922112410302,91.83005872188383L119.80475029198485,112.31882458657932L119.89027945986668,29.17504617577586L119.9758086277485,63.80499544894784L120.06133779563035,62.90740368971289L120.14686696351218,36.958592637858544L120.31792529927584,81.36577190215391L120.40345446715767,83.93652223091999L120.4889836350395,52.6338475017824L120.66004197080316,43.69159721744222L120.74557113868501,52.967473766671155L120.91662947444865,74.737730106364L121.17321697809417,90.39470407906106L121.34427531385782,-25.75385237485354L121.42980448173967,98.50715424246559L121.5153336496215,21.807999352143323L121.77192115326699,64.2682637007865L121.85745032114882,49.47749929071842L122.02850865691249,95.55357158325867L122.11403782479432,107.31153613880377L122.28509616055798,47.449691431387734L122.37062532843981,83.70130809713541L122.45615449632166,73.21158037044823L122.6272128320853,41.7594593555317L122.71274199996715,45.267714722711204L122.96932950361264,80.0213646931844L123.05485867149447,69.54123443439127L123.22591700725813,83.9228115624999L123.31144617513998,62.31906367373097L123.39697534302181,51.04234357973088L123.48250451090362,62.21166343777365L123.6535628466673,28.21636577169142L123.73909201454913,87.9200807699958L123.82462118243096,97.91759550040189L123.91015035031279,72.36563212892895L124.08120868607647,61.30919677421156L124.25226702184013,74.0488451886348L124.4233253576038,44.69917900555831L124.50885452548562,100.91139612030774L124.59438369336745,53.243515224195534L124.67991286124929,-3.3478780427493935L124.76544202913112,34.058786267010404L125.10755870065846,82.34212383442423L125.19308786854027,40.56967801818869L125.27861703642212,33.182369873446476L125.36414620430395,75.98768604399515L125.44967537218577,98.22212468008803L125.62073370794944,83.5611545977301L125.70626287583129,65.32977411802159L125.7917920437131,44.53175651007304L125.87732121159493,50.99252815113789L125.96285037947678,21.706388065074467L126.0483795473586,37.35056541391278L126.13390871524044,39.29001563231402L126.21943788312227,39.632020639015046L126.3049670510041,87.64495335703275L126.39049621888594,66.31480947362465L126.5615545546496,61.02081571510909L126.64708372253143,63.518137797447594L126.73261289041326,51.95151323674279L126.8181420582951,42.695745667863335L126.90367122617693,-25.991046938521016L126.98920039405876,70.79042866822131L127.0747295619406,31.13536707832768L127.24578789770426,34.71202344684739L127.33131706558609,51.27740537275525L127.41684623346791,58.232065758463634L127.50237540134975,-14.06459350216908L127.58790456923158,84.03554372506507L127.67343373711343,59.17231293056106L127.84449207287707,81.85661383159298L127.93002124075892,-53.377193063081L128.27213791228624,61.909571710251086L128.35766708016808,17.604613096065467L128.52872541593175,72.43144333734536L128.61425458381356,54.220171837986314L128.6997837516954,24.705520611588128L128.78531291957725,24.488435028270104L128.87084208745907,87.31026070682243L128.9563712553409,-22.94986834218579L129.04190042322273,66.82103781984625L129.2129587589864,41.234188414282194L129.29848792686823,23.519700134010925L129.38401709475008,27.539515774019847L129.4695462626319,63.470607480257954L129.64060459839556,50.49696365813192L129.7261337662774,89.27682758054341L129.81166293415924,69.7162739678877L129.89719210204106,44.99213028746748L129.98272126992288,52.23760918444191L130.06825043780472,57.58431284599469L130.4958962772139,106.94835576643172L130.5814254450957,90.39485641982128L130.66695461297755,93.52332627176442L130.7524837808594,42.14655722725878L130.8380129487412,118.45891892737438L130.92354211662305,113.86752075500813L131.09460045238671,77.20458403665788L131.26565878815038,44.85197678806216L131.52224629179585,113.79988145746903L131.6077754596777,114.1158361941719L131.69330462755954,21.414960190767534L131.7788337954414,70.79911209155402L132.03542129908686,16.304537048320906L132.1209504669687,85.10771799551576L132.29200880273237,54.96054793267095L132.37753797061418,24.199139924606285L132.46306713849603,87.08677681157505L132.54859630637785,6.502780194801577L132.71965464214153,40.31648767469779L132.80518381002335,90.83283610546292L132.8907129779052,48.175442813090946L132.976242145787,104.825639613482L133.06177131366886,71.68223147856777L133.14730048155067,22.759215058976835L133.23282964943252,86.26383202484944L133.31835881731436,93.27059295055415L133.40388798519618,14.95083705297776L133.57494632095984,95.80082063710087L133.66047548884168,49.58931740872223L133.83153382460534,92.7777705912322L134.002592160369,63.36366426658128L134.08812132825085,24.717250850125303L134.2591796640145,89.68220634349727L134.43023799977817,80.52805006168667L134.51576716766,14.815101435618923L134.60129633554183,104.94157093201183L134.68682550342368,63.34888721283964L134.94341300706915,43.34822114389919L135.028942174951,39.867691795080304L135.11447134283281,68.64562310503923L135.20000051071466,78.15214356524604L135.37105884647832,71.86016548650845L135.45658801436014,43.71627642059838L135.54211718224198,50.78168853898904L135.62764635012383,20.175363424831552L135.71317551800567,127.14371332693739L135.96976302165115,133.93780655137056L136.1408213574148,100.38932433502293L136.22635052529665,102.53382521668455L136.39740886106028,6.143865363715771L136.48293802894216,46.765833758745906L136.65399636470582,81.15797910520949L136.73952553258763,71.33001964093178L136.82505470046945,95.56606352559696L136.91058386835132,63.14520761642126L137.08164220411496,76.265403249882L137.1671713719968,46.24254324737929L137.25270053987862,42.68294904400457L137.4237588756423,13.598660465236856L137.50928804352412,63.61441715790863L137.59481721140597,89.96068525318523L137.68034637928778,75.50598456016948L137.85140471505147,77.31777322150369L137.9369338829333,79.1879083940034L138.10799221869695,49.3991961399637L138.36457972234246,32.72763270418031L138.53563805810612,109.99791310457927L138.62116722598796,74.07961802219988L138.70669639386978,55.80283999594488L138.79222556175162,86.25850009824163L138.96328389751528,56.65168271190842L139.13434223327894,56.9737310790202L139.2198714011608,41.11277282838432L139.3054005690426,38.36195572103444L139.39092973692442,50.73095906583472L139.4764589048063,78.43763014990427L139.5619880726881,44.640070790591714L139.64751724056995,79.89416015839802L139.73304640845177,61.493833775602035L139.8185755763336,61.58737100237907L140.0751630799791,67.65312305218525L140.16069224786094,74.92648030828052L140.24622141574275,69.20791285102297L140.5883380872701,86.33482281911346L140.67386725515192,34.25271605477451L140.75939642303376,63.97957796016358L140.8449255909156,87.7176198996592L140.93045475879742,90.12704136334894L141.10151309456108,60.90838823406438L141.18704226244293,71.21469768544286L141.27257143032477,19.745610140241975L141.3581005982066,34.552065648613045L141.4436297660884,127.96513470606078L141.87127560549757,78.55736998743967L141.9568047733794,75.53157780788696L142.04233394126123,75.15727656001863L142.12786310914308,102.57571892574592L142.21339227702492,74.32519132767965L142.29892144490674,114.89856302019857L142.4699797806704,60.686123064898766L142.55550894855224,61.93379389112657L142.64103811643406,68.71478581018054L142.7265672843159,44.70938583649326L142.81209645219772,72.0774034105867L142.89762562007957,48.6774056180263L142.9831547879614,53.855772739532476L143.06868395584323,45.41106737808121L143.15421312372507,67.56248029985245L143.3252714594887,49.067397964197646L143.41080062737058,26.378983862639696L143.4963297952524,72.95412448567106L143.58185896313424,59.178254220209766L143.66738813101605,54.17248918003646L143.75291729889787,99.53743480385492L143.83844646677974,58.22947596553985L144.00950480254338,54.76920793783063L144.18056313830704,75.06419635552227L144.26609230618888,116.86650096076154L144.35162147407073,33.066895577197315L144.43715064195254,61.87102949791462L144.5226798098344,84.00522791378066L144.69373814559805,94.3791766626982L144.8647964813617,27.030240612593783L144.95032564924352,83.40911851902734L145.1213839850072,68.85600569490744L145.29244232077087,71.47306761478136L145.3779714886527,10.444597365576234L145.46350065653453,50.81672691384036L145.6345589922982,41.34372142088265L145.89114649594367,116.4461928033058L145.97667566382555,54.74331000859269L146.23326316747102,71.26009523198937L146.31879233535284,67.04665448573677L146.4043215032347,55.37323905211554L146.6609090068802,15.589754201353758L146.746438174762,99.07751804874117L146.9174965105257,53.95662232280022L147.0030256784075,51.66267515535965L147.08855484628936,92.48222951639922L147.17408401417117,64.77753886221257L147.25961318205302,107.88052887823733L147.34514234993486,108.27676719557782L147.43067151781668,139.05858886551238L147.5162006856985,45.31539738066104L147.60172985358034,116.1983343864227L147.68725902146218,118.93437444003095L147.85831735722584,56.4379486253153L147.94384652510766,42.43006338203411L148.0293756929895,45.764193260278525L148.285963196635,80.19914636036484L148.37149236451683,85.50928823946406L148.5425507002805,50.79341877752621L148.62807986816233,88.0692223742543L148.71360903604418,113.85411476810849L148.799138203926,121.65959829966332L148.97019653968965,113.94871838020708L149.0557257075715,83.53982689129884L149.22678404333516,79.98008034716392L149.31231321121697,52.58692654763365L149.39784237909882,82.55829537318093L149.48337154698066,72.49999667944579L149.56890071486248,98.50654487942468L149.65442988274432,88.11583864688258L149.73995905062614,75.85301681195787L149.82548821850796,55.09201800874354L149.91101738638983,101.62648364879531L149.99654655427165,92.16993095794173L150.0820757221535,60.173344065987564L150.1676048900353,15.741637939296258L150.25313405791712,51.8299453100847L150.338663225799,43.32125682933968L150.50972156156263,87.95466212256646L150.59525072944447,75.33246843427528L150.6807798973263,66.43607271876229L150.76630906520816,47.79261048265011L150.9373674009718,50.94697826383117L151.02289656885364,63.71115354065035L151.36501324038096,6.5989072145024L151.62160074402647,67.56065221072977L151.79265907979013,81.03884863071497L151.87818824767194,24.601167190835245L151.9637174155538,-8.713471958569839L152.04924658343563,63.23082312366669L152.13477575131745,56.24417117831141L152.3058340870811,114.2191232296032L152.39136325496295,62.970777445965716L152.4768924228448,83.3410221992076L152.56242159072661,34.4333921963992L152.64795075860846,52.31408424607395L152.8190090943721,83.42496195809058L152.90453826225396,38.50530837640444L152.99006743013578,44.21458304728838L153.0755965980176,49.85256224238787L153.16112576589944,88.34450212797756L153.24665493378126,80.38393570251554L153.33218410166313,24.235092344018945L153.41771326954495,73.63950556591513L153.50324243742676,70.77306182155587L153.5887716053086,83.4461373237616L153.67430077319042,60.33878613158992L153.8453591089541,100.56009832723309L153.93088827683593,50.55439612473606L154.1019466125996,82.41280994716779L154.18747578048144,55.68096738776635L154.27300494836328,60.345793806560195L154.4440632841269,53.97749300695079L154.52959245200876,46.712362151907556L154.61512161989057,26.210190300312423L154.70065078777245,27.612182316646297L154.78617995565426,46.103303792535314L154.87170912353608,118.9328510324287L155.21382579506343,-1.0437240443738651L155.38488413082706,4.563329976400343L155.6414716344726,54.12602524816839L155.7270008023544,50.20127024253872L155.81252997023623,64.70136848210099L155.89805913811807,105.14387946158821L155.98358830599992,114.00508446148964L156.06911747388173,118.0710593518462L156.2401758096454,73.06365749227155L156.32570497752724,-1.5167421048668137L156.41123414540908,105.480247860161L156.4967633132909,85.98687652276371L156.58229248117274,84.92033886044126L156.66782164905456,109.52870356309187L156.75335081693638,60.0770647055265L156.83887998481825,85.7455687585702L156.92440915270006,86.50971001184965L157.00993832058188,107.37582393961797L157.18099665634554,25.654451207018287L157.26652582422741,34.44161859745124L157.35205499210923,53.851811879766686L157.5231133278729,96.68454938715551L157.6086424957547,109.53616826034282L157.69417166363655,76.42505636659588L157.7797008315184,-12.600294114903928L157.8652299994002,-11.914760693899643L157.95075916728206,37.592939563427855L158.12181750304572,54.83745659841062L158.20734667092756,128.12615888961668L158.29287583880938,41.942725290080176L158.3784050066912,76.13682764825366L158.46393417457304,69.51168032690796L158.54946334245489,108.15428522435839L158.63499251033673,58.594332086274335L158.80605084610036,64.2918765186211L158.8915800139822,105.08385720206029L158.97710918186405,49.751255636839474L159.06263834974587,34.53378475738627L159.1481675176277,119.2995352422859L159.23369668550953,100.40318734420322L159.31922585339134,60.814393985006674L159.40475502127322,60.210819893002466L159.49028418915503,95.80173468166223L159.6613425249187,16.683103837475493L159.7468716928005,65.53391073672066L159.9179300285642,100.20285924450975L160.26004670009155,45.60255971368173L160.34557586797337,56.72267350617241L160.51663420373703,38.205654101045454L160.60216337161884,56.03013241019785L160.6876925395007,30.479844787087348L160.85875087526435,41.127854563646416L161.029809211028,108.51152430708173L161.11533837890983,46.90492087282966L161.2008675467917,71.92140647211816L161.37192588255533,54.95293089465979L161.45745505043718,61.454986881745135L161.542984218319,49.562353094162724L161.62851338620084,66.887763072824L161.7995717219645,40.23102450821258L161.88510088984634,78.50207029147867L161.97063005772816,79.07776602436205L162.05615922561,65.37075378252163L162.14168839349185,57.626054214295834L162.31274672925548,38.970557058126026L162.39827589713732,59.995410058046886L162.48380506501917,46.3595409512307L162.65486340078283,75.75079616184811L162.74039256866465,98.79477359776695L162.99698007231015,52.587535910674546L163.082509240192,103.71370440461304L163.1680384080738,16.867588498105754L163.25356757595563,60.41069097041526L163.42462591171932,70.63138491454832L163.51015507960116,79.73679215308749L163.59568424748298,61.94521944814331L163.6812134153648,84.07911318248888L163.76674258324667,42.74236194049163L163.85227175112848,45.09099944085231L163.9378009190103,54.237234003131306L164.02333008689214,75.09024662552042L164.19438842265583,111.82234604901201L164.27991759053765,64.31168081745011L164.36544675841947,65.69508726103676L164.4509759263013,103.77113687121718L164.53650509418313,84.91454991155278L164.62203426206497,62.2633069554893L164.70756342994682,67.73873855943066L164.87862176571045,79.20816971511309L164.9641509335923,45.5102412129865L165.04968010147414,99.36803187848675L165.13520926935598,77.9633933633295L165.2207384372378,71.47093484413824L165.30626760511961,75.77517068348382L165.56285510876512,114.47231357309414L165.73391344452878,95.3980316670708L165.8194426124106,96.45344845389695L165.90497178029247,83.96470527156129L165.9905009481743,14.840085320295517L166.07603011605613,55.45824519632006L166.16155928393795,27.325934028186964L166.24708845181976,72.33760142904787L166.33261761970164,109.2665251147478L166.41814678758345,58.78978528164068L166.50367595546527,83.43364538142329L166.7602634591108,66.98617520392817L166.84579262699262,76.34919066800475L167.1023801306381,-38.5882567421356L167.18790929851994,41.78413855868786L167.27343846640179,116.21219739560301L167.3589676342836,76.5961350403265L167.44449680216545,78.28848854564576L167.53002597004726,41.599196875776926L167.70108430581095,40.79102914279298L167.78661347369277,73.75909306269033L167.87214264157458,90.4297424539124L167.95767180945643,43.200602947242935L168.04320097733824,23.18439812075971L168.1287301452201,38.27969171051393L168.21425931310193,31.527035172861464L168.3853176488656,78.37303766756963L168.4708468167474,94.02726950658267L168.55637598462926,44.26607422424381L168.72743432039292,57.86081132579976L168.81296348827473,51.602652895831724L168.89849265615658,137.42305846375638L169.06955099192027,52.70971320037353L169.15508015980208,104.85092817967904" style="fill: none;" fill="none"></path></g></g></g></g></g></g><g transform="translate(61, 178)" clip-path="url(#clip_1)"><clipPath id="clip_1"><rect width="268" height="22"></rect></clipPath><g><g><line x1="16.656573826495098" y1="0" x2="16.656573826495098" y2="5" style="visibility: inherit;" fill="rgb(0, 0, 0)" stroke="rgb(204, 204, 204)" stroke-width="1px"></line><line x1="50.86824097922801" y1="0" x2="50.86824097922801" y2="5" style="visibility: inherit;" fill="rgb(0, 0, 0)" stroke="rgb(204, 204, 204)" stroke-width="1px"></line><line x1="85.07990813196093" y1="0" x2="85.07990813196093" y2="5" style="visibility: inherit;" fill="rgb(0, 0, 0)" stroke="rgb(204, 204, 204)" stroke-width="1px"></line><line x1="119.29157528469385" y1="0" x2="119.29157528469385" y2="5" style="visibility: inherit;" fill="rgb(0, 0, 0)" stroke="rgb(204, 204, 204)" stroke-width="1px"></line><line x1="153.50324243742676" y1="0" x2="153.50324243742676" y2="5" style="visibility: inherit;" fill="rgb(0, 0, 0)" stroke="rgb(204, 204, 204)" stroke-width="1px"></line><line x1="187.7149095901597" y1="0" x2="187.7149095901597" y2="5" style="visibility: inherit;" fill="rgb(0, 0, 0)" stroke="rgb(204, 204, 204)" stroke-width="1px"></line><line x1="221.92657674289262" y1="0" x2="221.92657674289262" y2="5" style="visibility: inherit;" fill="rgb(0, 0, 0)" stroke="rgb(204, 204, 204)" stroke-width="1px"></line><line x1="256.1382438956255" y1="0" x2="256.1382438956255" y2="5" style="visibility: inherit;" fill="rgb(0, 0, 0)" stroke="rgb(204, 204, 204)" stroke-width="1px"></line></g><g transform="translate(0, 8)"><text x="16.656573826495098" y="0" dx="0em" dy="0.95em" style="text-anchor: middle; visibility: inherit; font-family: Roboto, sans-serif; font-size: 12px; font-weight: 200;" fill="rgb(50, 49, 63)" stroke="none" stroke-width="1px">-20M</text><text x="50.86824097922801" y="0" dx="0em" dy="0.95em" style="text-anchor: middle; visibility: inherit; font-family: Roboto, sans-serif; font-size: 12px; font-weight: 200;" fill="rgb(50, 49, 63)" stroke="none" stroke-width="1px">0</text><text x="85.07990813196093" y="0" dx="0em" dy="0.95em" style="text-anchor: middle; visibility: inherit; font-family: Roboto, sans-serif; font-size: 12px; font-weight: 200;" fill="rgb(50, 49, 63)" stroke="none" stroke-width="1px">20M</text><text x="119.29157528469385" y="0" dx="0em" dy="0.95em" style="text-anchor: middle; visibility: inherit; font-family: Roboto, sans-serif; font-size: 12px; font-weight: 200;" fill="rgb(50, 49, 63)" stroke="none" stroke-width="1px">40M</text><text x="153.50324243742676" y="0" dx="0em" dy="0.95em" style="text-anchor: middle; visibility: inherit; font-family: Roboto, sans-serif; font-size: 12px; font-weight: 200;" fill="rgb(50, 49, 63)" stroke="none" stroke-width="1px">60M</text><text x="187.7149095901597" y="0" dx="0em" dy="0.95em" style="text-anchor: middle; visibility: inherit; font-family: Roboto, sans-serif; font-size: 12px; font-weight: 200;" fill="rgb(50, 49, 63)" stroke="none" stroke-width="1px">80M</text><text x="221.92657674289262" y="0" dx="0em" dy="0.95em" style="text-anchor: middle; visibility: inherit; font-family: Roboto, sans-serif; font-size: 12px; font-weight: 200;" fill="rgb(50, 49, 63)" stroke="none" stroke-width="1px">100M</text><text x="256.1382438956255" y="0" dx="0em" dy="0.95em" style="text-anchor: middle; visibility: hidden; font-family: Roboto, sans-serif; font-size: 12px; font-weight: 200;" fill="rgb(50, 49, 63)" stroke="none" stroke-width="1px">120M</text></g><line x1="0" y1="0" x2="268.046875" y2="0" fill="rgb(0, 0, 0)" stroke="rgb(204, 204, 204)" stroke-width="1px"></line></g></g></g></g></svg>