<svg viewBox="0 0 330 200" xmlns="http://www.w3.org/2000/svg"><g><g><g><g><g><line x1="41.171875" y1="178" x2="36.171875" y2="178" style="visibility: inherit;" fill="rgb(0, 0, 0)" stroke="rgb(204, 204, 204)" stroke-width="1px"></line><line x1="41.171875" y1="160.20000000000002" x2="36.171875" y2="160.20000000000002" style="visibility: inherit;" fill="rgb(0, 0, 0)" stroke="rgb(204, 204, 204)" stroke-width="1px"></line><line x1="41.171875" y1="142.4" x2="36.171875" y2="142.4" style="visibility: inherit;" fill="rgb(0, 0, 0)" stroke="rgb(204, 204, 204)" stroke-width="1px"></line><line x1="41.171875" y1="124.6" x2="36.171875" y2="124.6" style="visibility: inherit;" fill="rgb(0, 0, 0)" stroke="rgb(204, 204, 204)" stroke-width="1px"></line><line x1="41.171875" y1="106.8" x2="36.171875" y2="106.8" style="visibility: inherit;" fill="rgb(0, 0, 0)" stroke="rgb(204, 204, 204)" stroke-width="1px"></line><line x1="41.171875" y1="89" x2="36.171875" y2="89" style="visibility: inherit;" fill="rgb(0, 0, 0)" stroke="rgb(204, 204, 204)" stroke-width="1px"></line><line x1="41.171875" y1="71.2" x2="36.171875" y2="71.2" style="visibility: inherit;" fill="rgb(0, 0, 0)" stroke="rgb(204, 204, 204)" stroke-width="1px"></line><line x1="41.171875" y1="53.400000000000006" x2="36.171875" y2="53.400000000000006" style="visibility: inherit;" fill="rgb(0, 0, 0)" stroke="rgb(204, 204, 204)" stroke-width="1px"></line><line x1="41.171875" y1="35.599999999999994" x2="36.171875" y2="35.599999999999994" style="visibility: inherit;" fill="rgb(0, 0, 0)" stroke="rgb(204, 204, 204)" stroke-width="1px"></line><line x1="41.171875" y1="17.799999999999997" x2="36.171875" y2="17.799999999999997" style="visibility: inherit;" fill="rgb(0, 0, 0)" stroke="rgb(204, 204, 204)" stroke-width="1px"></line><line x1="41.171875" y1="0" x2="36.171875" y2="0" style="visibility: inherit;" fill="rgb(0, 0, 0)" stroke="rgb(204, 204, 204)" stroke-width="1px"></line></g><g transform="translate(31.171875, 0)"><text x="0" y="178" dx="0em" dy="0.3em" style="text-anchor: end; visibility: hidden; font-family: Roboto, sans-serif; font-size: 12px; font-weight: 200;" fill="rgb(50, 49, 63)" stroke="none" stroke-width="1px">-50</text><text x="0" y="160.20000000000002" dx="0em" dy="0.3em" style="text-anchor: end; visibility: inherit; font-family: Roboto, sans-serif; font-size: 12px; font-weight: 200;" fill="rgb(50, 49, 63)" stroke="none" stroke-width="1px">0</text><text x="0" y="142.4" dx="0em" dy="0.3em" style="text-anchor: end; visibility: hidden; font-family: Roboto, sans-serif; font-size: 12px; font-weight: 200;" fill="rgb(50, 49, 63)" stroke="none" stroke-width="1px">50</text><text x="0" y="124.6" dx="0em" dy="0.3em" style="text-anchor: end; visibility: inherit; font-family: Roboto, sans-serif; font-size: 12px; font-weight: 200;" fill="rgb(50, 49, 63)" stroke="none" stroke-width="1px">100</text><text x="0" y="106.8" dx="0em" dy="0.3em" style="text-anchor: end; visibility: hidden; font-family: Roboto, sans-serif; font-size: 12px; font-weight: 200;" fill="rgb(50, 49, 63)" stroke="none" stroke-width="1px">150</text><text x="0" y="89" dx="0em" dy="0.3em" style="text-anchor: end; visibility: inherit; font-family: Roboto, sans-serif; font-size: 12px; font-weight: 200;" fill="rgb(50, 49, 63)" stroke="none" stroke-width="1px">200</text><text x="0" y="71.2" dx="0em" dy="0.3em" style="text-anchor: end; visibility: hidden; font-family: Roboto, sans-serif; font-size: 12px; font-weight: 200;" fill="rgb(50, 49, 63)" stroke="none" stroke-width="1px">250</text><text x="0" y="53.400000000000006" dx="0em" dy="0.3em" style="text-anchor: end; visibility: inherit; font-family: Roboto, sans-serif; font-size: 12px; font-weight: 200;" fill="rgb(50, 49, 63)" stroke="none" stroke-width="1px">300</text><text x="0" y="35.599999999999994" dx="0em" dy="0.3em" style="text-anchor: end; visibility: hidden; font-family: Roboto, sans-serif; font-size: 12px; font-weight: 200;" fill="rgb(50, 49, 63)" stroke="none" stroke-width="1px">350</text><text x="0" y="17.799999999999997" dx="0em" dy="0.3em" style="text-anchor: end; visibility: inherit; font-family: Roboto, sans-serif; font-size: 12px; font-weight: 200;" fill="rgb(50, 49, 63)" stroke="none" stroke-width="1px">400</text><text x="0" y="0" dx="0em" dy="0.3em" style="text-anchor: end; visibility: hidden; font-family: Roboto, sans-serif; font-size: 12px; font-weight: 200;" fill="rgb(50, 49, 63)" stroke="none" stroke-width="1px">450</text></g><line x1="41.171875" y1="0" x2="41.171875" y2="178" fill="rgb(0, 0, 0)" stroke="rgb(204, 204, 204)" stroke-width="1px"></line></g></g><g transform="translate(41, 0)" clip-path="url(#clip_0)"><clipPath id="clip_0"><rect width="288" height="178"></rect></clipPath><g><g><g><line x1="0" y1="0" x2="0" y2="178" fill="rgb(0, 0, 0)" stroke="rgb(60, 60, 60)" stroke-width="1px" opacity="0.25"></line><line x1="32.092013888888886" y1="0" x2="32.092013888888886" y2="178" fill="rgb(0, 0, 0)" stroke="rgb(60, 60, 60)" stroke-width="1px" opacity="0.25"></line><line x1="64.18402777777777" y1="0" x2="64.18402777777777" y2="178" fill="rgb(0, 0, 0)" stroke="rgb(60, 60, 60)" stroke-width="1px" opacity="0.25"></line><line x1="96.27604166666666" y1="0" x2="96.27604166666666" y2="178" fill="rgb(0, 0, 0)" stroke="rgb(60, 60, 60)" stroke-width="1px" opacity="0.25"></line><line x1="128.36805555555554" y1="0" x2="128.36805555555554" y2="178" fill="rgb(0, 0, 0)" stroke="rgb(60, 60, 60)" stroke-width="1px" opacity="0.25"></line><line x1="160.46006944444446" y1="0" x2="160.46006944444446" y2="178" fill="rgb(0, 0, 0)" stroke="rgb(60, 60, 60)" stroke-width="1px" opacity="0.25"></line><line x1="192.55208333333331" y1="0" x2="192.55208333333331" y2="178" fill="rgb(0, 0, 0)" stroke="rgb(60, 60, 60)" stroke-width="1px" opacity="0.25"></line><line x1="224.64409722222223" y1="0" x2="224.64409722222223" y2="178" fill="rgb(0, 0, 0)" stroke="rgb(60, 60, 60)" stroke-width="1px" opacity="0.25"></line><line x1="256.7361111111111" y1="0" x2="256.7361111111111" y2="178" fill="rgb(0, 0, 0)" stroke="rgb(60, 60, 60)" stroke-width="1px" opacity="0.25"></line><line x1="288.828125" y1="0" x2="288.828125" y2="178" fill="rgb(0, 0, 0)" stroke="rgb(60, 60, 60)" stroke-width="1px" opacity="0.25"></line></g><g><line x1="0" y1="178" x2="288.828125" y2="178" fill="rgb(0, 0, 0)" stroke="rgb(60, 60, 60)" stroke-width="1px" opacity="0.25"></line><line x1="0" y1="160.20000000000002" x2="288.828125" y2="160.20000000000002" fill="rgb(0, 0, 0)" stroke="rgb(60, 60, 60)" stroke-width="1px" opacity="0.25"></line><line x1="0" y1="142.4" x2="288.828125" y2="142.4" fill="rgb(0, 0, 0)" stroke="rgb(60, 60, 60)" stroke-width="1px" opacity="0.25"></line><line x1="0" y1="124.6" x2="288.828125" y2="124.6" fill="rgb(0, 0, 0)" stroke="rgb(60, 60, 60)" stroke-width="1px" opacity="0.25"></line><line x1="0" y1="106.8" x2="288.828125" y2="106.8" fill="rgb(0, 0, 0)" stroke="rgb(60, 60, 60)" stroke-width="1px" opacity="0.25"></line><line x1="0" y1="89" x2="288.828125" y2="89" fill="rgb(0, 0, 0)" stroke="rgb(60, 60, 60)" stroke-width="1px" opacity="0.25"></line><line x1="0" y1="71.2" x2="288.828125" y2="71.2" fill="rgb(0, 0, 0)" stroke="rgb(60, 60, 60)" stroke-width="1px" opacity="0.25"></line><line x1="0" y1="53.400000000000006" x2="288.828125" y2="53.400000000000006" fill="rgb(0, 0, 0)" stroke="rgb(60, 60, 60)" stroke-width="1px" opacity="0.25"></line><line x1="0" y1="35.599999999999994" x2="288.828125" y2="35.599999999999994" fill="rgb(0, 0, 0)" stroke="rgb(60, 60, 60)" stroke-width="1px" opacity="0.25"></line><line x1="0" y1="17.799999999999997" x2="288.828125" y2="17.799999999999997" fill="rgb(0, 0, 0)" stroke="rgb(60, 60, 60)" stroke-width="1px" opacity="0.25"></line><line x1="0" y1="0" x2="288.828125" y2="0" fill="rgb(0, 0, 0)" stroke="rgb(60, 60, 60)" stroke-width="1px" opacity="0.25"></line></g></g></g><g><g><line x1="0" y1="160.20000000000002" x2="288.828125" y2="160.20000000000002" fill="rgb(0, 0, 0)" stroke="rgb(153, 153, 153)" stroke-width="1.5px"></line></g></g><g><g><line x1="32.092013888888886" y1="0" x2="32.092013888888886" y2="178" fill="rgb(0, 0, 0)" stroke="rgb(153, 153, 153)" stroke-width="1.5px"></line></g></g><g><g><g><g><g><path stroke="rgb(0, 119, 187)" stroke-width="2px" d="M32.41293402777778,160.35824316680433L32.73385416666667,160.22176302520435L33.054774305555554,160.16290786876L33.215234375,160.12708626942634L33.53615451388889,160.08708373484305L33.85707465277778,160.05733790995203L34.01753472222222,160.03523191398523L34.17799479166666,160.02190731122167L34.33845486111111,160.01650117515956L34.49891493055556,160.01542253574877L34.659375,159.92656785495384L34.819835069444444,159.7550897182322L34.98029513888889,159.61574335323124L35.14075520833334,159.56829971889144L35.30121527777778,159.3763117536576L35.46167534722222,159.38104767940183L35.78259548611111,159.29115089613336L36.103515625,159.07005898920474L36.26397569444445,158.8224493361596L36.584895833333334,158.62845498615462L37.06627604166666,158.04605821188227L37.22673611111111,157.92083096264315L37.387196180555556,157.97221917168216L37.54765625,158.50249548027531L37.70811631944445,158.87228336517185L38.02903645833333,158.66547674820697L38.510416666666664,158.99376226799836L38.67087673611111,159.09246302304257L38.991796875000006,159.14635818245907L39.152256944444446,159.29652269974875L39.312717013888886,159.40883802176543L39.47317708333333,159.3462592966462L39.63363715277778,159.5473909961172L39.79409722222222,159.69569760938296L40.115017361111114,159.48503384086774L40.27547743055556,159.02622411952387L40.75685763888889,158.6815454093688L40.917317708333336,158.3185877281053L41.077777777777776,158.12176881007434L41.23823784722222,158.23089001645695L41.39869791666667,158.08848519034206L41.880078125,157.83329572245978L42.040538194444444,158.00702185796453L42.20099826388889,157.97200552260256L42.36145833333333,157.70222326224732L42.52191840277778,157.34974939700805L42.682378472222226,156.7133070868097L42.84283854166667,156.05654852860383L43.003298611111106,155.4388815641066L43.16375868055555,154.61585294483407L43.32421875,154.0309817473804L43.64513888888889,153.14711191021973L43.805598958333334,152.38175245016603L43.96605902777778,151.93137379512086L44.12651909722223,151.27248669080385L44.44743923611111,150.4983894368631L44.768359375,149.0456416559926L44.92881944444444,147.77805457738594L45.24973958333334,146.19951128985264L45.410199652777784,144.9680120688765L45.731119791666664,143.00679406697L45.89157986111111,141.552726821693L46.05203993055556,140.05133371724298L46.2125,139.12975868601407L46.372960069444446,138.26844265172286L46.53342013888889,136.80130320452355L46.85434027777777,134.83174082040142L47.01480034722222,133.03997613835014L47.17526041666667,131.63576875459987L47.335720486111114,129.8393626945607L47.656640625,127.53309481468756L48.13802083333333,124.80735819835941L48.298480902777776,122.1130818854346L48.45894097222222,119.83323361544679L48.61940104166667,117.86484599473512L48.94032118055556,116.1642005547406L49.100781250000004,113.84498672146209L49.261241319444444,112.7338452589244L49.74262152777778,109.72470412360282L49.903081597222226,106.95757099490689L50.38446180555556,102.32463528993391L50.86584201388889,97.88192625702749L51.026302083333334,94.27557171005674L51.18676215277778,91.14232680961821L51.34722222222222,88.623731916772L51.50768229166667,87.61580623548559L51.989062499999996,83.43988993414905L52.14952256944444,80.33886690310968L52.30998263888889,78.6323202008224L52.47044270833334,76.90122296662213L52.63090277777778,75.31939383194388L52.951822916666664,72.65689357124538L53.11228298611111,72.6164639365016L53.593663194444446,71.54156869920783L54.07504340277778,70.35947676293401L54.23550347222222,68.37797690685763L54.55642361111111,67.18181645635849L54.87734375,65.88530568911673L55.03780381944445,64.95296626008572L55.19826388888889,64.10084378678113L55.358723958333336,63.72939717415229L55.519184027777776,63.301471536294876L55.67964409722222,62.082217213459934L56.00056423611111,60.58664242020654L56.16102430555556,60.80645298500561L56.321484375000004,61.542112356760626L56.481944444444444,61.775116603184976L56.80286458333333,62.719567517901076L56.96332465277778,60.949926215005235L57.12378472222222,59.7964487642409L57.44470486111111,59.36034785624155L57.60516493055556,58.57792636952703L57.765625,57.8341432995096L58.08654513888889,57.9627083685048L58.247005208333334,57.41768529997507L58.56792534722222,56.378776426843L58.72838541666667,56.365216155316034L59.049305555555556,55.776263900411934L59.209765624999996,55.67847429639736L59.37022569444444,55.50543362036667L59.69114583333333,54.120705091433344L59.85160590277778,53.34277936456431L60.33298611111111,52.905644381989184L60.49344618055555,52.39203080915865L60.65390625,51.639129418251194L60.814366319444446,52.27904633754355L61.13528645833333,51.522704504221L61.29574652777778,51.0163136168566L61.61666666666667,51.58998597102595L61.937586805555554,50.2359389693997L62.098046875,49.82025519026624L62.25850694444444,49.67451883048469L62.41896701388889,50.353495316121254L62.73988715277778,49.4809506609903L62.900347222222216,48.58028020110062L63.38172743055556,49.581295740198755L64.02356770833333,49.46551762107593L64.18402777777777,49.9682840180575L64.6654079861111,50.09281614232954L64.82586805555556,49.849492360715544L65.14678819444444,49.260091578307L65.3072482638889,49.05585242977849L65.46770833333333,48.77054517240877L65.62816840277777,49.41497442946609L65.78862847222221,48.37016122596352L66.27000868055556,47.32069688495442L66.43046875,46.53645018808268L66.59092881944444,46.76362212773275L66.75138888888888,46.40831216249918L67.23276909722222,45.955753432323796L67.39322916666667,46.29766931870096L67.55368923611111,46.54840350700673L67.71414930555557,46.31896023739009L67.87460937499999,46.09931160062864L68.03506944444445,45.87068119093932L68.35598958333333,46.14686000464937L68.51644965277778,46.50862275134813L68.67690972222222,46.61675705438498L68.99782986111111,46.85644548275891L69.15828993055555,46.64758071257084L69.31875,46.595226147301055L69.47921006944445,46.031865637127076L69.63967013888889,45.93869111934479L69.80013020833333,45.875285989359895L69.96059027777778,46.15210118559793L70.28151041666668,46.22054839553335L70.4419704861111,46.65118160743463L70.762890625,46.31013957080718L71.40473090277779,47.6863194802278L71.56519097222223,47.98340479626624L71.8861111111111,47.484845098328435L72.04657118055556,47.47979919711342L72.20703125,47.88139404435751L72.36749131944444,48.533166809776404L72.5279513888889,50.19824679600149L72.68841145833333,52.30582695024684L72.84887152777779,51.297580894557015L73.16979166666667,49.71256199268868L73.651171875,47.43828185083652L73.81163194444444,46.40425988293777L73.9720920138889,45.66477062750405L74.13255208333332,45.55029803347859L74.45347222222222,45.52863131654397L74.77439236111111,44.97863743561574L75.0953125,44.57184618362818L75.4162326388889,44.31879546730237L75.73715277777778,44.33674844165901L75.89761284722222,44.6034088277631L76.05807291666666,44.12984528302218L76.21853298611111,44.0648817479564L76.37899305555555,44.5544058397985L76.69991319444443,44.679242775856274L76.86037326388889,44.438097584217196L77.18129340277778,45.086757898553934L77.34175347222222,44.834940167538676L77.50221354166666,44.738668997343545L77.82313368055556,43.62772109535147L78.62543402777777,43.45307197345699L78.94635416666667,43.35436167032225L79.10681423611112,42.830874011430645L79.427734375,42.29039135141844L79.58819444444444,42.350418026783444L79.74865451388888,42.706657865930794L79.90911458333333,42.82803919907867L80.06957465277777,42.75437702141434L80.23003472222223,42.5332337987931L80.39049479166667,43.00259626951374L80.55095486111112,44.00578250975688L80.71141493055555,44.378270222163586L80.871875,43.92187693237086L81.51371527777778,43.99559257995494L81.67417534722223,43.92008138519232L81.99509548611111,44.52367551925632L82.47647569444445,44.021859732284405L82.63693576388889,44.640738887138305L82.95785590277778,44.50640612569805L83.11831597222223,44.1570895374584L83.27877604166666,43.900080169119825L83.4392361111111,44.094575301845076L83.59969618055555,44.191904350141286L83.92061631944445,44.254676113058906L84.08107638888889,43.927481733287266L84.24153645833334,44.59367482660456L84.40199652777778,44.51328858517728L84.56245659722222,43.97276379942458L84.72291666666666,43.59064300811072L85.204296875,44.259847138820994L85.36475694444445,43.51048417732066L85.68567708333335,43.06115438114081L86.00659722222221,42.45998862855868L86.3275173611111,42.63738420685747L86.6484375,42.53520241837013L86.9693576388889,45.39826942207569L87.12981770833333,45.469396857033935L87.29027777777777,45.22347308672009L87.45073784722221,46.007649568262394L87.61119791666667,45.13593129047886L87.77165798611111,45.061444527075366L87.93211805555556,44.63007303258066L88.092578125,44.26384126482547L88.25303819444446,44.21668613534243L88.57395833333332,43.7816628308548L88.89487847222222,42.83319304872817L89.05533854166667,42.00736361420784L89.37625868055557,41.926254194799235L89.69717881944443,41.68250527122774L89.85763888888889,41.31533216442248L90.01809895833333,41.28714795476983L90.17855902777778,40.954445193205224L90.33901909722222,41.10485754533307L90.49947916666667,41.22251580879934L90.65993923611111,41.412921966899674L90.82039930555557,41.13788743608656L90.980859375,41.14416948708623L91.14131944444443,41.167909145398596L91.30177951388889,41.820183515570385L91.62269965277778,41.58541536618363L91.78315972222222,41.00507267332618L92.10407986111112,41.0188778283623L92.425,41.3508661602749L92.58546006944444,41.075842076719475L92.74592013888889,40.31835573074256L92.90638020833333,40.446039071425965L93.06684027777779,40.39904901569345L93.38776041666667,40.49062277444827L93.5482204861111,40.15306974904055L93.869140625,40.811840050301534L94.02960069444444,41.197920330326546L94.1900607638889,40.284229391237496L94.35052083333333,39.576077342103126L94.51098090277779,39.41255496743829L94.83190104166665,39.20521925618008L94.99236111111111,38.79184943521896L95.15282118055555,39.23691135091027L95.31328125,39.07861747965434L95.79466145833334,40.43992989461231L96.11558159722222,40.4558564878335L96.27604166666666,41.85433070973705L96.59696180555555,41.507171397349005L96.757421875,41.11000531537371L96.91788194444445,40.671599215304035L97.23880208333334,40.205082200425466L97.39926215277777,39.75755336827913L97.72018229166666,40.02242524370988L98.04110243055555,39.89250565164009L98.84340277777777,40.37082393177708L99.00386284722222,39.532482278388535L99.48524305555556,38.79716154935051L99.645703125,38.45937789381588L99.80616319444445,38.85711143225951L99.96662326388888,39.037943533512575L100.12708333333333,38.73968532876798L100.28754340277777,38.6575561043254L100.60846354166667,38.86142075235801L100.92938368055556,40.28808092061261L101.25030381944444,40.54394426890005L101.57122395833333,41.30197030339533L102.05260416666667,41.24463670199066L102.21306423611111,41.572556571210164L102.53398437499999,42.07859939156211L102.69444444444444,42.234679029277146L102.85490451388888,41.889425635244024L103.01536458333334,41.19009428734858L103.17582465277778,41.1004374634985L103.49674479166667,41.486898358214106L103.65720486111111,42.18845656436096L103.97812499999999,41.27187653657499L104.13858506944445,40.28844632492813L104.29904513888889,39.56461635094062L104.45950520833334,39.94732673015782L104.61996527777778,40.29415488119219L104.78042534722222,41.08587559733438L105.1013454861111,40.786407159018744L105.26180555555555,41.29691561564218L105.58272569444445,41.126964521688265L105.74318576388889,40.4860649024457L105.90364583333333,40.323288066457216L106.06410590277778,41.086997670923914L106.22456597222222,40.7965124463018L106.38502604166668,40.691462155768086L106.5454861111111,41.684616392825454L106.70594618055556,41.2782324517838L106.86640625,40.65474580352862L107.02686631944445,40.74390988906899L107.18732638888889,40.784787219925136L107.34778645833333,40.87414330478676L107.50824652777779,41.559812558155116L107.66870659722221,42.113506132593166L107.82916666666667,42.68025477528096L108.15008680555556,41.877942084906124L108.310546875,41.79027389889836L108.79192708333333,41.60357481566012L108.95238715277779,41.469946038201144L109.59422743055555,40.953068905331044L110.0756076388889,40.7510484297163L110.23606770833332,41.68542912208472L110.55698784722222,41.853580771979864L110.71744791666667,41.36921146753289L111.03836805555555,41.71297969616879L111.198828125,41.25562229437345L111.35928819444445,40.83939934298752L111.84066840277778,40.105343714462485L112.00112847222222,40.460332745903116L112.32204861111111,40.76636229580313L112.96388888888889,40.38017852338985L113.12434895833333,40.64556918112852L113.44526909722222,40.27666172679474L113.60572916666666,40.031628898065335L113.76618923611112,39.757974361142026L113.92664930555556,39.625574277738984L114.08710937500001,40.536929289748414L114.24756944444444,42.37536064096796L114.40802951388889,41.89302187321836L114.72894965277777,41.57217945467558L114.88940972222223,42.17050171464248L115.04986979166667,41.669852480856385L115.21032986111112,41.48910257099459L115.37078993055556,43.42264106821215L115.53125,43.89080063664514L115.69171006944444,46.354861683068684L116.17309027777777,43.48254400071403L116.33355034722223,41.819376492544514L116.49401041666667,41.58033479168242L117.45677083333334,41.154816687833396L117.77769097222223,41.4460070987995L117.93815104166667,41.14970948201695L118.09861111111111,42.41340900126238L118.25907118055555,42.802600130514L118.41953124999999,44.8309846355695L118.57999131944445,43.0494502645621L118.74045138888889,41.47050839644121L118.90091145833334,40.62551567282998L119.06137152777778,40.66687966258685L119.22183159722223,40.26982551244578L119.38229166666666,40.34432810046117L119.5427517361111,40.026106310972764L119.70321180555555,39.44536986691216L119.863671875,40.01910125425688L120.02413194444445,40.936055876151876L120.18459201388889,41.741217086025166L120.34505208333334,41.44663283500478L120.66597222222222,40.65392774562738L120.82643229166666,41.07232935132933L120.9868923611111,41.77439264197325L121.3078125,41.795645173525685L121.62873263888889,42.45453083871597L121.94965277777777,41.760212929123604L122.11011284722221,41.34144765108524L122.59149305555556,42.01395484360901L122.751953125,42.04813861565217L122.91241319444445,41.37164541866593L123.23333333333333,40.599464066754855L123.39379340277777,40.11764298308445L123.55425347222221,40.256112324061775L123.87517361111111,40.46364356437464L124.03563368055556,41.06287909419903L124.19609375,41.581286715068266L124.35655381944446,42.51968589903803L124.67747395833332,43.28196514190182L124.83793402777778,42.94340743667357L124.99839409722222,43.382369489821166L125.15885416666667,42.95387901981292L125.31931423611111,42.82744958070725L125.47977430555557,43.28581701447472L125.640234375,42.35634936417097L125.80069444444443,42.01757574409719L125.96115451388889,41.65948220798609L126.12161458333333,42.158462905750866L126.28207465277778,42.005937690668404L126.44253472222222,41.5391050147678L126.60299479166667,41.27271022222764L127.084375,41.18053626345756L127.24483506944443,41.63255920838896L127.40529513888889,41.48840368866714L127.72621527777778,41.9513471690406L127.88667534722222,42.70648700004763L128.04713541666666,42.45505984523866L128.2075954861111,43.101235489025576L128.528515625,43.44824640662218L128.68897569444445,43.254442173037646L128.8494357638889,43.003908586518826L129.00989583333333,43.63701587773207L129.17035590277777,43.10648877382698L129.49127604166665,43.5747636129877L129.81219618055556,42.86215158188447L130.13311631944444,43.340274887621916L130.29357638888888,44.02631926754144L130.45403645833332,44.75087789548947L130.93541666666667,44.783856123037715L131.57725694444443,45.715333029780574L131.7377170138889,45.416276622312154L131.89817708333334,44.528310247191236L132.05863715277778,44.27009500396672L132.21909722222222,43.87779530471774L132.54001736111113,42.891129463882315L132.70047743055557,42.03154068408959L133.18185763888889,43.16348878686901L133.34231770833333,43.32485071667669L133.66323784722223,42.827966007752394L133.98415798611111,43.12861410739182L134.14461805555555,45.834423447738885L134.62599826388887,48.81956877953351L134.78645833333334,46.41085708263785L134.94691840277778,44.24047315801814L135.10737847222222,43.101796454497354L135.26783854166666,41.06336056855727L135.42829861111113,39.73490782334114L135.58875868055554,39.22720824516668L135.74921874999998,38.673695064966154L135.90967881944445,38.851292600842456L136.0701388888889,38.558147521124354L136.23059895833333,39.24685714679265L136.39105902777777,39.00833909585727L136.55151909722224,39.00399675740127L136.71197916666665,39.188430080360796L136.87243923611112,38.67371497914524L137.03289930555556,38.12295184992418L137.51427951388888,38.17169998502068L137.67473958333335,37.85851613020564L137.99565972222223,38.09582959830596L138.3165798611111,38.38495196956313L138.47703993055555,38.30090744230109L138.6375,38.345283188923986L138.79796006944446,39.080269585184666L138.9584201388889,39.41036800792436L139.11888020833334,38.599589582575454L139.27934027777778,38.879767630643215L139.43980034722222,39.02079098084896L139.60026041666666,38.96856913544401L139.92118055555557,38.77597432602279L140.081640625,38.845650187913755L140.24210069444445,39.76449648067562L140.40256076388889,40.86877308164641L140.56302083333335,41.50981360381149L140.8839409722222,41.12397784682762L141.04440104166667,41.353527497632555L141.20486111111111,41.084413773230345L141.36532118055555,40.23258231386126L141.52578125,39.74455562226266L141.68624131944446,39.176798257908686L141.84670138888887,38.991137898485604L142.00716145833331,39.154003458520144L142.16762152777778,39.17503096509991L142.32808159722222,39.67314890540152L142.48854166666666,40.105965932192944L142.6490017361111,40.28317077127225L142.80946180555557,40.83099993641738L143.2908420138889,41.1669439989704L143.61176215277777,42.04704640134067L143.93268229166668,42.74609607664691L144.4140625,42.052380557854704L144.57452256944444,41.738017793575786L144.73498263888888,40.7486885842879L144.89544270833335,40.936864311675194L145.0559027777778,40.87009597419697L145.21636284722223,41.05419251834849L145.37682291666667,40.50114289003363L145.53728298611114,40.529708163766806L145.69774305555558,40.75247590805529L145.858203125,40.52888755119561L146.01866319444443,40.06896995967985L146.17912326388887,40.51816308042586L146.33958333333334,41.04920232878713L146.82096354166666,39.824933439784196L146.9814236111111,39.59827915885693L147.14188368055557,39.185044181479256L147.46280381944445,39.16109832364979L147.62326388888889,39.81050338545769L147.9441840277778,39.207593855814785L148.10464409722223,38.46551195476285L148.26510416666665,38.44031292318221L148.4255642361111,38.1227265299505L148.58602430555555,38.041873518881495L148.746484375,38.10259325358136L149.22786458333334,38.32217589925161L149.38832465277778,38.644559018961736L149.54878472222222,38.49494589131682L150.190625,38.078594222513885L150.35108506944445,37.59559069035849L150.67200520833333,37.17088494478862L150.8324652777778,36.592151273663845L150.9929253472222,37.10285011192959L151.15338541666665,37.40974500225387L151.47430555555556,36.989603091947245L151.79522569444444,37.12973062312205L151.95568576388888,36.84745564359229L152.11614583333332,36.642197304218016L152.43706597222223,36.61221199439416L152.59752604166667,36.54062198840802L152.7579861111111,36.43535548883292L152.91844618055558,36.455675730256296L153.07890625000002,36.37426645399534L153.23936631944446,36.625109606392215L153.39982638888887,36.54457744723906L153.5602864583333,36.46816054979141L154.04166666666666,36.33299946434883L154.2021267361111,35.997886572994744L154.523046875,35.960103686888004L154.68350694444445,36.07533693865884L154.84396701388889,36.453639294524734L155.00442708333333,36.17783826298503L155.1648871527778,36.28021167299641L155.32534722222223,36.659596742259936L155.64626736111111,37.591003022008856L155.80672743055555,38.61934434547709L155.96718750000002,38.13545366687917L156.12764756944443,38.576006435490356L156.28810763888887,38.508168134737375L156.44856770833331,38.28565633299369L156.60902777777778,39.18241886473905L156.76948784722222,39.570921773678116L157.25086805555554,40.49137281310859L157.411328125,40.376792180480074L157.7322482638889,40.210479037017386L157.89270833333333,40.127594071731345L158.0531684027778,40.08093674533833L158.21362847222224,39.91981670030589L158.53454861111112,39.90802742974279L158.85546875,40.472723614773734L159.01592881944444,40.4166337800431L159.17638888888888,40.631790705939515L159.33684895833332,40.0762691933018L159.49730902777776,39.68204359323294L159.65776909722223,40.43851929417507L159.81822916666667,40.559790286735975L159.9786892361111,40.78323211846565L160.29960937500002,41.23241861050236L160.46006944444446,40.80843739363007L160.6205295138889,40.37418036673691L160.94144965277778,40.91561063014581L161.26236979166666,40.519108232553364L161.4228298611111,40.170571755436846L161.58328993055554,39.564166798128575L161.74375,40.393421961076015L161.90421006944445,39.80906474030364L162.06467013888889,39.720786520542426L162.38559027777777,39.3293007920095L162.54605034722223,39.133943608895365L162.70651041666667,39.364925112553145L163.02743055555555,39.273191010866405L163.187890625,39.5150529639293L163.5088107638889,39.20393956790213L163.99019097222222,39.07919933717373L164.3111111111111,39.3938406964189L164.47157118055554,38.7229844351235L164.63203124999998,38.06452932693676L165.11341145833333,37.55135359169103L165.27387152777777,37.249152137642405L165.59479166666668,37.89963808053996L165.75525173611112,37.841682382555135L166.076171875,37.66724298571116L166.23663194444447,37.67330380486728L166.39709201388888,38.71981358456255L166.71801215277776,38.85862584745705L166.8784722222222,37.91938341933399L167.35985243055555,37.37436425605371L167.5203125,36.55942401035107L167.8412326388889,35.97960330156225L168.00169270833334,36.406494949120976L168.16215277777778,36.39289408100579L168.32261284722222,36.07507710642087L168.64353298611113,37.080860513659644L168.80399305555557,36.979732075677475L168.96445312499998,36.744160410397335L169.12491319444445,36.099273381468194L169.44583333333333,38.75264786016769L169.7667534722222,38.31707100039634L170.08767361111111,37.60609415498332L170.24813368055555,36.57298567612448L170.40859375,36.680479837573955L170.56905381944443,36.8507732439823L170.7295138888889,38.98218117765521L171.3713541666667,36.838355237265105L171.53181423611113,36.17084253562474L171.69227430555554,36.10092468578111L171.85273437499998,36.59552771154289L172.01319444444442,36.22055712969722L172.33411458333333,35.244935120024394L172.49457465277777,35.10434036274657L172.6550347222222,34.62785011301391L172.81549479166668,34.36321027379211L172.97595486111112,34.10239877703277L173.13641493055556,34.18014677621171L173.296875,34.46304830265662L173.45733506944444,35.48387382173848L173.6177951388889,35.01390138840831L173.77825520833335,36.4718164168604L174.0991753472222,37.48349451214115L174.25963541666667,37.830661074429955L174.4200954861111,38.17096182383607L174.58055555555555,38.72380567998445L174.741015625,50.52366883120316L174.90147569444443,59.437541080640635L175.0619357638889,70.33012130936326L175.38285590277778,76.95610685829492L175.54331597222222,77.82934313251661L175.70377604166666,75.96866778207861L175.86423611111113,75.58206176579517L176.02469618055557,77.65771826082728L176.18515625,78.60917565873396L176.5060763888889,78.72838287331228L176.66653645833335,84.1989979857284L177.30837673611111,87.39358389276654L177.46883680555555,88.68008845517232L177.78975694444443,90.58041956327953L177.9502170138889,89.07546655654211L178.11067708333334,90.03134027289997L178.27113715277778,90.07847399997537L178.43159722222222,95.6614336857787L178.59205729166666,93.97117359948115L178.75251736111113,91.77464395916441L179.0734375,96.49550377279509L179.23389756944442,95.29556972697372L179.39435763888886,93.73235044576225L179.55481770833333,92.12115694285183L179.8757378472222,92.38100437474623L180.03619791666665,93.94989903795906L180.19665798611112,93.37241115838383L180.35711805555556,94.740811475188L180.517578125,94.42105914945924L180.67803819444444,93.35917254958314L181.48033854166667,89.46381305091462L181.64079861111114,86.39352682575029L181.80125868055558,82.70580485574624L181.96171875,82.66886821766803L182.12217881944443,82.46043291864848L182.28263888888887,81.52488497739063L182.60355902777778,80.52353199675196L182.92447916666666,79.27849359847363L183.405859375,76.62740018058447L183.56631944444445,74.47753605830981L183.72677951388889,70.58182167905724L183.88723958333335,70.12308213469463L184.36861979166665,67.18230052779653L184.5290798611111,64.40773162376155L184.85,61.81270022350186L185.01046006944443,62.502273573665L185.17092013888887,60.50332477511375L185.33138020833334,61.03754678697093L185.65230034722222,58.591483232352665L185.81276041666666,58.33926523678179L185.9732204861111,57.56873192259012L186.13368055555557,56.161942560416165L186.294140625,53.65860110198542L186.45460069444445,52.480818190152874L186.6150607638889,50.85311356284987L186.77552083333333,50.840570880546025L186.9359809027778,50.02913309652301L187.25690104166665,50.224088154706806L187.4173611111111,48.4619415382909L187.73828125,47.79952771494622L188.05920138888888,46.76296972905514L188.21966145833332,45.85588067751587L188.54058159722223,46.65364877381652L188.8615017361111,45.92326384003326L189.02196180555558,44.81419020859085L189.18242187500002,43.703234996873555L189.34288194444446,43.25722022060474L189.82426215277778,42.400788577099235L189.98472222222222,41.26029028464336L190.14518229166666,41.472653382067776L190.3056423611111,41.21759835851435L190.6265625,40.3460484468353L190.78702256944445,40.53899352273407L190.94748263888889,40.28681573109358L191.10794270833333,39.98791451837882L191.2684027777778,39.68107884122067L191.74978298611111,39.777870292192375L192.07070312500002,39.59001186728759L192.23116319444443,39.84586286723756L192.55208333333331,40.268948523462534L192.71254340277778,40.772191241711724L193.03346354166666,41.19006290601211L193.1939236111111,40.89188234411933L193.35438368055554,41.24933808368076L193.51484375,40.69251767465288L193.8357638888889,39.92433586369363L193.99622395833333,39.18534224825307L194.1566840277778,38.42866502061091L194.47760416666668,38.55643242485623L194.63806423611112,38.723570033228896L194.79852430555553,38.54906925733711L194.958984375,38.2441914890201L195.27990451388888,38.52923997058428L195.44036458333332,38.80307506341714L195.76128472222223,39.1110557812203L196.24266493055555,39.30775896971169L196.56358506944446,39.4518110644457L196.7240451388889,39.53482087646114L196.88450520833334,39.361680640867284L197.04496527777778,38.96438188537506L197.36588541666666,38.533590478820344L197.68680555555554,38.453791577300805L197.847265625,38.15273709724414L198.00772569444445,37.67556508182521L198.16818576388889,37.35098847352979L198.32864583333333,37.61546994477271L198.48910590277777,37.86990642014025L198.64956597222223,37.27682979698418L198.81002604166667,37.654239422417874L198.97048611111111,37.54235738210737L199.45186631944446,37.99096879115134L199.6123263888889,38.51208601911083L199.77278645833334,38.55545725516089L200.4146267361111,38.72508147181871L200.57508680555554,38.50072939557733L200.73554687499998,38.31446998343318L200.89600694444445,38.21298566310332L201.0564670138889,38.09483621534073L201.37738715277777,38.51251228491646L201.53784722222224,39.0610702293723L201.69830729166668,39.00560268060413L201.85876736111112,39.1634901830755L202.01922743055556,38.949712803940095L202.82152777777776,38.44765846495832L202.9819878472222,37.9275888149987L203.14244791666667,37.33700894607357L203.3029079861111,37.69170582801727L203.46336805555555,38.03185517230942L203.623828125,38.281152012424236L203.9447482638889,37.815806047716016L204.10520833333334,37.62761133684629L204.26566840277778,37.80763007027861L204.42612847222222,38.52222018650649L204.58658854166669,38.53366789354622L204.74704861111113,39.08547280175359L204.90750868055557,38.87882838085727L205.06796874999998,39.12609577001847L205.22842881944445,38.949468539306096L205.54934895833333,38.76380030969212L205.70980902777777,38.81093586041247L205.8702690972222,38.43444907034295L206.03072916666667,38.0901949331207L206.19118923611111,37.75254003247832L206.35164930555555,37.667644405887586L206.512109375,37.3270487654438L206.8330295138889,36.83202371133518L207.15394965277778,36.67916603047227L207.31440972222222,36.22940869882988L207.4748697916667,36.15107800664151L207.63532986111113,35.88034100527387L207.79578993055554,35.73736752412131L208.11671006944442,35.720185776220816L208.43763020833333,35.696531608813544L208.59809027777777,35.740731502648956L208.91901041666668,35.60316488462526L209.23993055555556,35.95167771819153L209.400390625,35.70570464278717L209.56085069444444,35.50400112510454L209.88177083333335,36.07217579448587L210.36315104166667,35.595890021266364L210.5236111111111,35.76931781336756L211.00499131944443,36.1407187211369L211.1654513888889,35.46044004904501L211.32591145833334,35.789137016709994L211.80729166666666,36.73612490483936L211.96775173611113,36.71288325320093L212.288671875,36.50765592103408L212.44913194444445,36.51338606598578L212.6095920138889,36.23189005447727L212.77005208333335,36.077480244523805L212.93051215277777,36.92489972919549L213.0909722222222,36.59180527231257L213.25143229166665,36.20754918156645L213.41189236111111,36.53039782076369L213.57235243055555,36.58303289475685L213.7328125,37.10989938194874L214.0537326388889,36.92538841167749L214.21419270833334,37.33877178152234L214.37465277777778,36.84932528285101L214.85603298611113,37.041339765448946L215.01649305555557,37.16739754385727L215.33741319444442,37.44615800044426L215.49787326388886,36.888769918190874L215.65833333333333,37.04575434386106L215.81879340277777,36.966894078668815L216.13971354166665,37.094262896268L216.30017361111112,37.09155582557541L216.62109375,37.16524715106897L216.78155381944444,37.088327738132136L216.94201388888888,37.57844133488637L217.10247395833335,37.56103939302912L217.2629340277778,37.611124921123945L217.42339409722223,38.34440321983931L217.58385416666667,37.974299022029015L217.74431423611114,38.2142784172645L217.90477430555558,38.79962230189397L218.065234375,39.01088292829072L218.22569444444443,38.93987670584458L218.38615451388887,39.019529295305105L218.54661458333334,38.90557202069942L218.70707465277778,38.22432769736144L219.02799479166666,38.00908993510651L219.1884548611111,38.307131576439964L219.34891493055557,38.338943351696535L219.509375,38.44890655133655L219.83029513888889,38.77433755301201L219.99075520833335,39.13173512172086L220.6325954861111,39.74896967267684L221.11397569444443,39.55465329336966L221.43489583333334,39.42561393916531L221.59535590277778,40.20583919614516L221.75581597222222,39.80740769621712L221.91627604166666,39.452892812952314L222.0767361111111,39.81209612571443L222.39765625,38.904430020865014L222.55811631944445,38.882592451838754L222.7185763888889,38.95491561068501L222.87903645833333,40.2434056202839L223.0394965277778,40.24128160652868L223.36041666666665,40.07539251224872L223.5208767361111,40.437496854268886L223.68133680555556,39.673211928111L223.841796875,39.19812573944611L224.00225694444444,38.724643558199624L224.16271701388888,38.76777661308418L224.32317708333332,38.10053833095616L224.4836371527778,37.77738147016559L224.64409722222223,37.89324359152809L224.80455729166667,37.90472995006092L224.9650173611111,37.71253721624139L225.28593750000002,37.56953441622619L225.44639756944446,37.01265600205841L225.7673177083333,36.723243894583895L225.92777777777778,36.86136163235054L226.08823784722222,36.45508749342137L226.4091579861111,36.497341415167725L226.56961805555557,36.831353568911986L226.730078125,37.09431820291302L226.89053819444445,36.657355390518994L227.05099826388889,36.45410567377513L227.21145833333333,36.91200638913364L227.85329861111111,37.741467733141036L228.17421875000002,37.19247898375802L228.65559895833331,37.33417259734776L228.81605902777778,37.675821894377L228.97651909722222,38.32616228996195L229.13697916666666,37.99352883785206L229.2974392361111,37.4672032006643L229.45789930555554,37.37917765013683L229.77881944444445,36.97570460875983L229.9392795138889,36.29790174285647L230.09973958333333,36.18662280746339L230.2601996527778,36.58886834953249L230.42065972222224,36.28889895748109L230.58111979166668,36.60151435911164L230.74157986111112,36.38127774840347L230.90203993055553,36.50033552947518L231.0625,37.032454202725866L231.22296006944444,36.86352495292544L231.54388020833332,36.91725911952913L231.70434027777776,37.01990440107316L231.86480034722223,37.00943657553659L232.1857204861111,36.74041305095187L232.34618055555555,36.33165482869862L232.50664062500002,36.070167746380555L232.66710069444446,36.14439472524106L232.8275607638889,35.97081223078459L232.98802083333334,35.986384020665724L233.30894097222225,36.25937731306724L233.46940104166666,36.73147631522501L233.6298611111111,36.994132383686726L233.79032118055554,37.30167867963635L233.95078125,37.34262107809943L234.11124131944445,37.48931865672549L234.27170138888889,37.920693630120546L234.59262152777777,37.95173219103684L234.75308159722223,38.02987848565512L234.91354166666667,37.94828232144085L235.07400173611111,38.412688524001666L235.23446180555555,38.4237985466688L235.394921875,37.748256939350014L235.55538194444446,38.08397777387424L235.7158420138889,38.16844414816757L235.87630208333334,37.74491030650565L236.19722222222222,38.11101869085047L236.35768229166666,39.11650263155805L236.67860243055554,38.79165433091575L237.32044270833333,38.82743226799694L237.48090277777777,38.42077863399846L237.80182291666668,38.3503923077219L237.96228298611112,38.111722460013276L238.12274305555556,38.08335396682305L238.44366319444447,38.0231704526498L238.76458333333332,38.642315878180376L238.92504340277776,38.66017783655113L239.0855034722222,39.18487859112714L239.4064236111111,39.52995485952842L239.56688368055555,39.71208070124859L239.72734375,40.11430683011648L239.88780381944446,39.55225467238247L240.20872395833334,39.6829024826756L240.36918402777778,39.31988672717763L240.52964409722222,39.23693396417476L240.69010416666669,39.00127527066159L240.85056423611113,39.0758519297644L241.17148437499998,39.49847918753844L241.33194444444445,39.47737374904268L241.49240451388889,38.759161300790865L241.81332465277777,38.3310018540087L241.9737847222222,38.536092357668416L242.45516493055555,38.390155736939676L242.615625,38.06049760723936L242.77608506944443,37.96676967764312L242.9365451388889,38.26087501216139L243.25746527777778,38.34737573850257L243.41792534722222,38.42574481505208L243.5783854166667,39.47963473662761L243.73884548611113,41.017129502102875L243.89930555555554,42.2514863819108L244.05976562499998,42.555198391150704L244.22022569444442,42.16086469850504L244.3806857638889,41.94410416321737L244.70160590277777,41.58705189850322L244.8620659722222,41.84410102249379L245.02252604166668,43.569758396989094L245.18298611111112,44.86761912769376L245.34344618055556,46.027984429569536L245.50390625,50.38880386029257L245.66436631944444,49.758820204072066L245.98528645833335,45.792335028793865L246.1457465277778,44.613482089592246L246.3062065972222,43.22645613268674L246.46666666666667,42.16594852532775L246.6271267361111,41.0902818188162L246.78758680555555,40.29534580442763L247.2689670138889,40.973716359245074L247.58988715277778,40.60025521331394L247.75034722222222,40.242977521207756L247.91080729166666,39.974350027693724L248.07126736111113,40.29142446453045L248.23172743055557,40.083113721523034L248.3921875,40.27165231974589L248.55264756944445,40.382337512412015L248.7131076388889,40.91516967173335L248.87356770833335,41.70337432561278L249.03402777777777,41.38755172579468L249.51540798611111,40.41294157334656L249.67586805555555,40.40185494194672L250.1572482638889,39.490656230738985L250.31770833333334,39.0651019801156L250.47816840277778,39.0559753674992L250.63862847222222,38.94784852359335L250.79908854166666,39.09098767732403L250.95954861111113,38.92115344559561L251.28046875,38.306913392719665L251.44092881944442,38.02240731891842L251.60138888888886,37.880018478795165L251.76184895833333,37.72007936879211L251.92230902777777,37.55754145441558L252.0827690972222,37.22940396695389L252.24322916666665,37.12599037459024L252.56414930555556,37.030294198525596L252.724609375,37.64659991908702L252.88506944444444,38.418113375070845L253.20598958333335,38.44047154349245L253.3664496527778,38.50766674098451L253.52690972222223,38.595927852914144L253.84782986111114,38.86813720526566L254.00828993055558,38.99129168612893" style="fill: none;" fill="none"></path></g></g></g></g><g opacity="0.2"><g><g><g><path stroke="rgb(0, 119, 187)" stroke-width="2px" d="M32.41293402777778,160.35824316680433L32.73385416666667,160.15352295440434L33.054774305555554,160.1187665014267L33.215234375,160.09574237000942L33.53615451388889,160.0495813586712L33.85707465277778,160.0285216420889L34.01753472222222,160.0134713242054L34.17799479166666,160.00868680691718L34.33845486111111,160.01111615681648L34.49891493055556,160.01434600305558L34.659375,159.83779994630814L34.819835069444444,159.58369531106948L34.98029513888889,159.47643100833892L35.14075520833334,159.5208618760109L35.30121527777778,159.18433550643923L35.46167534722222,159.38578346061706L35.78259548611111,159.201255484581L36.103515625,158.84896876907348L36.26397569444445,158.57484062767028L36.584895833333334,158.43446100616455L37.06627604166666,157.46366199302673L37.22673611111111,157.79560377311705L37.387196180555556,158.02360736846924L37.54765625,159.03277172565458L37.70811631944445,159.24207122802733L38.02903645833333,158.4586701374054L38.510416666666664,159.32204778289795L38.67087673611111,159.1911637773514L38.991796875000006,159.20025334167482L39.152256944444446,159.44668721675873L39.312717013888886,159.52115334367753L39.47317708333333,159.2836805715561L39.63363715277778,159.74852269554137L39.79409722222222,159.84400422263147L40.115017361111114,159.2743700723648L40.27547743055556,158.56741439819336L40.75685763888889,158.33686669921875L40.917317708333336,157.95563004684448L41.077777777777776,157.92494989204408L41.23823784722222,158.34001122283937L41.39869791666667,157.9460803642273L41.880078125,157.57810625457765L42.040538194444444,158.18074799346925L42.20099826388889,157.9369891872406L42.36145833333333,157.4324410018921L42.52191840277778,156.9972755317688L42.682378472222226,156.07686477661133L42.84283854166667,155.39978997039796L43.003298611111106,154.8212145996094L43.16375868055555,153.79282432556153L43.32421875,153.44611054992674L43.64513888888889,152.26324207305908L43.805598958333334,151.6163929901123L43.96605902777778,151.4809951400757L44.12651909722223,150.6135995864868L44.44743923611111,149.72429218292237L44.768359375,147.5928938751221L44.92881944444444,146.5104674987793L45.24973958333334,144.62096800231933L45.410199652777784,143.7365128479004L45.731119791666664,141.04557606506347L45.89157986111111,140.09865957641603L46.05203993055556,138.54994061279297L46.2125,138.20818365478516L46.372960069444446,137.40712661743166L46.53342013888889,135.3341637573242L46.85434027777777,132.8621784362793L47.01480034722222,131.24821145629883L47.17526041666667,130.23156137084962L47.335720486111114,128.0429566345215L47.656640625,125.22682693481445L48.13802083333333,122.08162158203125L48.298480902777776,119.41880557250977L48.45894097222222,117.55338534545898L48.61940104166667,115.89645837402345L48.94032118055556,114.46355511474609L49.100781250000004,111.5257728881836L49.261241319444444,111.62270379638672L49.74262152777778,106.71556298828126L49.903081597222226,104.19043786621096L50.38446180555556,97.69169958496094L50.86584201388889,93.4392172241211L51.026302083333334,90.66921716308593L51.18676215277778,88.00908190917968L51.34722222222222,86.10513702392578L51.50768229166667,86.60788055419921L51.989062499999996,79.2639736328125L52.14952256944444,77.2378438720703L52.30998263888889,76.92577349853516L52.47044270833334,75.17012573242188L52.63090277777778,73.73756469726563L52.951822916666664,69.99439331054687L53.11228298611111,72.57603430175782L53.593663194444446,70.46667346191407L54.07504340277778,69.17738482666016L54.23550347222222,66.39647705078124L54.55642361111111,65.98565600585938L54.87734375,64.588794921875L55.03780381944445,64.02062683105468L55.19826388888889,63.248721313476565L55.358723958333336,63.357950561523445L55.519184027777776,62.87354589843749L55.67964409722222,60.862962890625006L56.00056423611111,59.09106762695312L56.16102430555556,61.02626354980468L56.321484375000004,62.27777172851562L56.481944444444444,62.00812084960937L56.80286458333333,63.664018432617176L56.96332465277778,59.180284912109364L57.12378472222222,58.64297131347657L57.44470486111111,58.924246948242185L57.60516493055556,57.795504882812494L57.765625,57.0903602294922L58.08654513888889,58.0912734375L58.247005208333334,56.87266223144532L58.56792534722222,55.33986755371093L58.72838541666667,56.351655883789064L59.049305555555556,55.18731164550781L59.209765624999996,55.58068469238282L59.37022569444444,55.33239294433593L59.69114583333333,52.7359765625L59.85160590277778,52.56485363769531L60.33298611111111,52.46850939941405L60.49344618055555,51.87841723632813L60.65390625,50.88622802734375L60.814366319444446,52.918963256835944L61.13528645833333,50.76636267089844L61.29574652777778,50.509922729492196L61.61666666666667,52.163658325195314L61.937586805555554,48.88189196777344L62.098046875,49.40457141113282L62.25850694444444,49.52878247070312L62.41896701388889,51.03247180175782L62.73988715277778,48.60840600585937L62.900347222222216,47.67960974121093L63.38172743055556,50.58231127929687L64.02356770833333,49.349739501953124L64.18402777777777,50.47105041503906L64.6654079861111,50.21734826660157L64.82586805555556,49.606168579101556L65.14678819444444,48.67069079589843L65.3072482638889,48.851613281249996L65.46770833333333,48.485237915039065L65.62816840277777,50.05940368652344L65.78862847222221,47.32534802246093L66.27000868055556,46.27123254394531L66.43046875,45.752203491210935L66.59092881944444,46.99079406738281L66.75138888888888,46.05300219726563L67.23276909722222,45.503194702148434L67.39322916666667,46.63958520507813L67.55368923611111,46.799137695312496L67.71414930555557,46.08951696777345L67.87460937499999,45.87966296386719L68.03506944444445,45.642050781250006L68.35598958333333,46.423038818359366L68.51644965277778,46.870385498046886L68.67690972222222,46.72489135742188L68.99782986111111,47.0961339111328L69.15828993055555,46.43871594238282L69.31875,46.54287158203125L69.47921006944445,45.46850512695313L69.63967013888889,45.8455166015625L69.80013020833333,45.811880859375L69.96059027777778,46.42891638183594L70.28151041666668,46.28899560546875L70.4419704861111,47.08181481933594L70.762890625,45.96909753417969L71.40473090277779,49.06249938964844L71.56519097222223,48.28049011230469L71.8861111111111,46.98628540039063L72.04657118055556,47.47475329589843L72.20703125,48.28298889160156L72.36749131944444,49.184939575195315L72.5279513888889,51.86332678222656L72.68841145833333,54.41340710449218L72.84887152777779,50.2893348388672L73.16979166666667,48.127543090820325L73.651171875,45.16400170898438L73.81163194444444,45.37023791503907L73.9720920138889,44.925281372070316L74.13255208333332,45.43582543945313L74.45347222222222,45.50696459960937L74.77439236111111,44.42864355468751L75.0953125,44.165054931640626L75.4162326388889,44.06574475097657L75.73715277777778,44.35470141601563L75.89761284722222,44.87006921386719L76.05807291666666,43.65628173828125L76.21853298611111,43.99991821289062L76.37899305555555,45.04392993164063L76.69991319444443,44.804079711914056L76.86037326388889,44.196952392578126L77.18129340277778,45.73541821289062L77.34175347222222,44.58312243652344L77.50221354166666,44.642397827148436L77.82313368055556,42.51677319335937L78.62543402777777,43.278422851562496L78.94635416666667,43.2556513671875L79.10681423611112,42.30738635253907L79.427734375,41.749908691406254L79.58819444444444,42.41044470214843L79.74865451388888,43.06289770507812L79.90911458333333,42.94942053222656L80.06957465277777,42.680714843749996L80.23003472222223,42.31209057617187L80.39049479166667,43.47195874023437L80.55095486111112,45.00896875L80.71141493055555,44.750757934570316L80.871875,43.46548364257813L81.51371527777778,44.06930822753906L81.67417534722223,43.84457019042969L81.99509548611111,45.127269653320305L82.47647569444445,43.520043945312494L82.63693576388889,45.259618041992184L82.95785590277778,44.372073364257815L83.11831597222223,43.807772949218744L83.27877604166666,43.643070800781246L83.4392361111111,44.289070434570306L83.59969618055555,44.2892333984375L83.92061631944445,44.31744787597656L84.08107638888889,43.60028735351562L84.24153645833334,45.25986791992187L84.40199652777778,44.43290234375001L84.56245659722222,43.43223901367188L84.72291666666666,43.20852221679688L85.204296875,44.92905126953125L85.36475694444445,42.76112121582031L85.68567708333335,42.611824584960935L86.00659722222221,41.858822875976564L86.3275173611111,42.81477978515625L86.6484375,42.43302062988282L86.9693576388889,48.261336425781245L87.12981770833333,45.540524291992185L87.29027777777777,44.977549316406254L87.45073784722221,46.791826049804676L87.61119791666667,44.264213012695315L87.77165798611111,44.986957763671874L87.93211805555556,44.198701538085935L88.092578125,43.89760949707031L88.25303819444446,44.169531005859376L88.57395833333332,43.346639526367184L88.89487847222222,41.88472326660156L89.05533854166667,41.181534179687496L89.37625868055557,41.84514477539062L89.69717881944443,41.43875634765624L89.85763888888889,40.94815905761719L90.01809895833333,41.258963745117185L90.17855902777778,40.62174243164063L90.33901909722222,41.255269897460934L90.49947916666667,41.34017407226563L90.65993923611111,41.603328125000004L90.82039930555557,40.86285290527343L90.980859375,41.150451538085946L91.14131944444443,41.19164880371094L91.30177951388889,42.47245788574219L91.62269965277778,41.35064721679688L91.78315972222222,40.42472998046875L92.10407986111112,41.032682983398445L92.425,41.6828544921875L92.58546006944444,40.80081799316406L92.74592013888889,39.56086938476563L92.90638020833333,40.573722412109376L93.06684027777779,40.352058959960935L93.38776041666667,40.58219653320313L93.5482204861111,39.815516723632804L93.869140625,41.4706103515625L94.02960069444444,41.58400061035156L94.1900607638889,39.370538452148445L94.35052083333333,38.86792529296874L94.51098090277779,39.24903259277343L94.83190104166665,38.99788354492188L94.99236111111111,38.37847961425781L95.15282118055555,39.68197326660156L95.31328125,38.920323608398434L95.79466145833334,41.80124230957032L96.11558159722222,40.47178308105469L96.27604166666666,43.25280493164062L96.59696180555555,41.16001208496094L96.757421875,40.71283923339844L96.91788194444445,40.23319311523438L97.23880208333334,39.73856518554688L97.39926215277777,39.31002453613282L97.72018229166666,40.287297119140625L98.04110243055555,39.76258605957031L98.84340277777777,40.849142211914064L99.00386284722222,38.694140625L99.48524305555556,38.0618408203125L99.645703125,38.12159423828125L99.80616319444445,39.25484497070312L99.96662326388888,39.21877563476562L100.12708333333333,38.441427124023434L100.28754340277777,38.57542687988282L100.60846354166667,39.06528540039063L100.92938368055556,41.71474108886718L101.25030381944444,40.79980761718749L101.57122395833333,42.059996337890624L102.05260416666667,41.18730310058594L102.21306423611111,41.9004764404297L102.53398437499999,42.58464221191405L102.69444444444444,42.390758666992184L102.85490451388888,41.544172241210944L103.01536458333334,40.49076293945312L103.17582465277778,41.01078063964843L103.49674479166667,41.87335925292969L103.65720486111111,42.890014770507804L103.97812499999999,40.35529650878907L104.13858506944445,39.30501611328125L104.29904513888889,38.840786376953126L104.45950520833334,40.33003710937499L104.61996527777778,40.640983032226565L104.78042534722222,41.87759631347655L105.1013454861111,40.48693872070313L105.26180555555555,41.807424072265626L105.58272569444445,40.95701342773438L105.74318576388889,39.84516528320313L105.90364583333333,40.16051123046875L106.06410590277778,41.85070727539063L106.22456597222222,40.50602722167969L106.38502604166668,40.58641186523437L106.5454861111111,42.6777706298828L106.70594618055556,40.87184851074219L106.86640625,40.03125915527343L107.02686631944445,40.83307397460936L107.18732638888889,40.825664550781255L107.34778645833333,40.96349938964844L107.50824652777779,42.24548181152344L107.66870659722221,42.667199707031244L107.82916666666667,43.24700341796875L108.15008680555556,41.07562939453125L108.310546875,41.702605712890616L108.79192708333333,41.41687573242187L108.95238715277779,41.3363172607422L109.59422743055555,40.43619177246094L110.0756076388889,40.54902795410157L110.23606770833332,42.61980981445313L110.55698784722222,42.02173242187501L110.71744791666667,40.88484216308594L111.03836805555555,42.0567479248047L111.198828125,40.79826489257812L111.35928819444445,40.42317639160156L111.84066840277778,39.3712880859375L112.00112847222222,40.81532177734374L112.32204861111111,41.072391845703116L112.96388888888889,39.99399475097657L113.12434895833333,40.9109598388672L113.44526909722222,39.90775427246095L113.60572916666666,39.78659606933594L113.76618923611112,39.48431982421875L113.92664930555556,39.49317419433595L114.08710937500001,41.44828430175781L114.24756944444444,44.21379199218751L114.40802951388889,41.41068310546875L114.72894965277777,41.251337036132824L114.88940972222223,42.76882397460938L115.04986979166667,41.16920324707031L115.21032986111112,41.308352661132815L115.37078993055556,45.3561795654297L115.53125,44.35896020507813L115.69171006944444,48.818922729492186L116.17309027777777,40.61022631835938L116.33355034722223,40.15620898437499L116.49401041666667,41.34129309082031L117.45677083333334,40.72929858398437L117.77769097222223,41.73719750976563L117.93815104166667,40.85341186523438L118.09861111111111,43.67710852050781L118.25907118055555,43.191791259765616L118.41953124999999,46.859369140625L118.57999131944445,41.267915893554694L118.74045138888889,39.891566528320304L118.90091145833334,39.78052294921874L119.06137152777778,40.70824365234375L119.22183159722223,39.87277136230468L119.38229166666666,40.41883068847656L119.5427517361111,39.707884521484374L119.70321180555555,38.86463342285156L119.863671875,40.59283264160156L120.02413194444445,41.85301049804688L120.18459201388889,42.546378295898435L120.34505208333334,41.152048583984374L120.66597222222222,39.86122265624999L120.82643229166666,41.49073095703125L120.9868923611111,42.47645593261719L121.3078125,41.81689770507812L121.62873263888889,43.113416503906244L121.94965277777777,41.06589501953125L122.11011284722221,40.92268237304688L122.59149305555556,42.686462036132816L122.751953125,42.082322387695314L122.91241319444445,40.695152221679685L123.23333333333333,39.82728271484375L123.39379340277777,39.63582189941406L123.55425347222221,40.39458166503906L123.87517361111111,40.67117480468749L124.03563368055556,41.66211462402344L124.19609375,42.09969433593751L124.35655381944446,43.45808508300781L124.67747395833332,44.04424438476562L124.83793402777778,42.604849731445306L124.99839409722222,43.82133154296874L125.15885416666667,42.52538854980468L125.31931423611111,42.70102014160157L125.47977430555557,43.744184448242194L125.640234375,41.42688171386719L125.80069444444443,41.67880212402344L125.96115451388889,41.30138867187501L126.12161458333333,42.657443603515624L126.28207465277778,41.85341247558594L126.44253472222222,41.072272338867194L126.60299479166667,41.00631542968751L127.084375,41.08836230468751L127.24483506944443,42.08458215332032L127.40529513888889,41.34424816894532L127.72621527777778,42.41429064941407L127.88667534722222,43.461626831054694L128.04713541666666,42.20363269042968L128.2075954861111,43.74741113281249L128.528515625,43.795257324218746L128.68897569444445,43.060637939453116L128.8494357638889,42.753375L129.00989583333333,44.27012316894532L129.17035590277777,42.575961669921874L129.49127604166665,44.043038452148444L129.81219618055556,42.14953955078125L130.13311631944444,43.81839819335938L130.29357638888888,44.71236364746094L130.45403645833332,45.475436523437494L130.93541666666667,44.81683435058594L131.57725694444443,46.646809936523425L131.7377170138889,45.11722021484375L131.89817708333334,43.64034387207031L132.05863715277778,44.01187976074219L132.21909722222222,43.485495605468756L132.54001736111113,41.904463623046865L132.70047743055557,41.171951904296876L133.18185763888889,44.29543688964844L133.34231770833333,43.48621264648437L133.66323784722223,42.33108129882812L133.98415798611111,43.42926220703124L134.14461805555555,48.54023278808594L134.62599826388887,51.80471411132812L134.78645833333334,44.00214538574218L134.94691840277778,42.070089233398434L135.10737847222222,41.96311975097657L135.26783854166666,39.02492468261719L135.42829861111113,38.406455078125006L135.58875868055554,38.71950866699218L135.74921874999998,38.12018188476563L135.90967881944445,39.02889013671875L136.0701388888889,38.26500244140625L136.23059895833333,39.93556677246094L136.39105902777777,38.76982104492188L136.55151909722224,38.999654418945305L136.71197916666665,39.372863403320316L136.87243923611112,38.158999877929695L137.03289930555556,37.572188720703124L137.51427951388888,38.22044812011718L137.67473958333335,37.54533227539063L137.99565972222223,38.333143066406244L138.3165798611111,38.67407434082032L138.47703993055555,38.21686291503906L138.6375,38.38965893554688L138.79796006944446,39.81525598144531L138.9584201388889,39.74046643066406L139.11888020833334,37.78881115722656L139.27934027777778,39.15994567871094L139.43980034722222,39.1618143310547L139.60026041666666,38.91634729003906L139.92118055555557,38.58337951660157L140.081640625,38.9153260498047L140.24210069444445,40.6833427734375L140.40256076388889,41.97304968261718L140.56302083333335,42.15085412597655L140.8839409722222,40.73814208984375L141.04440104166667,41.5830771484375L141.20486111111111,40.81530004882813L141.36532118055555,39.3807508544922L141.52578125,39.25652893066406L141.68624131944446,38.609040893554685L141.84670138888887,38.8054775390625L142.00716145833331,39.316869018554684L142.16762152777778,39.1960584716797L142.32808159722222,40.17126684570312L142.48854166666666,40.53878295898437L142.6490017361111,40.46037561035157L142.80946180555557,41.378829101562495L143.2908420138889,41.50288806152343L143.61176215277777,42.92714880371095L143.93268229166668,43.445145751953135L144.4140625,41.3586650390625L144.57452256944444,41.423655029296874L144.73498263888888,39.75935937499999L144.89544270833335,41.12504003906251L145.0559027777778,40.80332763671875L145.21636284722223,41.2382890625L145.37682291666667,39.94809326171875L145.53728298611114,40.55827343749999L145.69774305555558,40.97524365234376L145.858203125,40.30529919433593L146.01866319444443,39.609052368164065L146.17912326388887,40.967356201171874L146.33958333333334,41.58024157714844L146.82096354166666,38.60066455078124L146.9814236111111,39.3716248779297L147.14188368055557,38.77180920410156L147.46280381944445,39.137152465820314L147.62326388888889,40.45990844726562L147.9441840277778,38.60468432617188L148.10464409722223,37.72343005371094L148.26510416666665,38.41511389160156L148.4255642361111,37.80514013671876L148.58602430555555,37.961020507812506L148.746484375,38.16331298828125L149.22786458333334,38.54175854492188L149.38832465277778,38.96694213867187L149.54878472222222,38.345332763671884L150.190625,37.662242553710946L150.35108506944445,37.11258715820313L150.67200520833333,36.746179199218744L150.8324652777778,36.01341760253905L150.9929253472222,37.613548950195316L151.15338541666665,37.71663989257813L151.47430555555556,36.56946118164062L151.79522569444444,37.26985815429688L151.95568576388888,36.565180664062495L152.11614583333332,36.43693896484374L152.43706597222223,36.58222668457032L152.59752604166667,36.46903198242188L152.7579861111111,36.33008898925782L152.91844618055558,36.475995971679694L153.07890625000002,36.29285717773438L153.23936631944446,36.87595275878907L153.39982638888887,36.46404528808594L153.5602864583333,36.39174365234374L154.04166666666666,36.19783837890625L154.2021267361111,35.66277368164062L154.523046875,35.92232080078126L154.68350694444445,36.19057019042968L154.84396701388889,36.83194165039062L155.00442708333333,35.90203723144532L155.1648871527778,36.38258508300782L155.32534722222223,37.03898181152344L155.64626736111111,38.52240930175781L155.80672743055555,39.64768566894532L155.96718750000002,37.651562988281256L156.12764756944443,39.01655920410156L156.28810763888887,38.44032983398437L156.44856770833331,38.06314453125L156.60902777777778,40.079181396484366L156.76948784722222,39.95942468261719L157.25086805555554,41.41182385253906L157.411328125,40.26221154785157L157.7322482638889,40.044165893554684L157.89270833333333,40.04470910644532L158.0531684027778,40.03427941894531L158.21362847222224,39.75869665527343L158.53454861111112,39.89623815917968L158.85546875,41.03741979980469L159.01592881944444,40.36054394531251L159.17638888888888,40.84694763183593L159.33684895833332,39.52074768066406L159.49730902777776,39.28781799316407L159.65776909722223,41.19499499511718L159.81822916666667,40.681061279296884L159.9786892361111,41.006673950195314L160.29960937500002,41.681605102539066L160.46006944444446,40.38445617675781L160.6205295138889,39.93992333984375L160.94144965277778,41.45704089355469L161.26236979166666,40.12260583496094L161.4228298611111,39.82203527832031L161.58328993055554,38.95776184082031L161.74375,41.222677124023434L161.90421006944445,39.22470751953124L162.06467013888889,39.63250830078125L162.38559027777777,38.93781506347657L162.54605034722223,38.93858642578125L162.70651041666667,39.595906616210925L163.02743055555555,39.18145690917969L163.187890625,39.756914916992194L163.5088107638889,38.89282617187501L163.99019097222222,38.954459106445306L164.3111111111111,39.708482055664064L164.47157118055554,38.052128173828116L164.63203124999998,37.40607421875001L165.11341145833333,37.03817785644531L165.27387152777777,36.946950683593755L165.59479166666668,38.55012402343749L165.75525173611112,37.783726684570304L166.076171875,37.492803588867176L166.23663194444447,37.679364624023435L166.39709201388888,39.76632336425782L166.71801215277776,38.99743811035156L166.8784722222222,36.98014099121093L167.35985243055555,36.82934509277344L167.5203125,35.744483764648436L167.8412326388889,35.39978259277343L168.00169270833334,36.83338659667968L168.16215277777778,36.37929321289063L168.32261284722222,35.757260131835935L168.64353298611113,38.086643920898446L168.80399305555557,36.878603637695306L168.96445312499998,36.508588745117194L169.12491319444445,35.454386352539075L169.44583333333333,41.40602233886719L169.7667534722222,37.881494140624994L170.08767361111111,36.89511730957031L170.24813368055555,35.53987719726562L170.40859375,36.78797399902345L170.56905381944443,37.02106665039064L170.7295138888889,41.11358911132813L171.3713541666667,34.694529296875004L171.53181423611113,35.503329833984374L171.69227430555554,36.0310068359375L171.85273437499998,37.0901307373047L172.01319444444442,35.84558654785157L172.33411458333333,34.269313110351554L172.49457465277777,34.96374560546876L172.6550347222222,34.15135986328124L172.81549479166668,34.09857043457032L172.97595486111112,33.84158728027344L173.13641493055556,34.25789477539062L173.296875,34.74594982910157L173.45733506944444,36.504699340820316L173.6177951388889,34.543928955078115L173.77825520833335,37.9297314453125L174.0991753472222,38.49517260742188L174.25963541666667,38.17782763671874L174.4200954861111,38.511262573242185L174.58055555555555,39.276649536132815L174.741015625,62.32353198242188L174.90147569444443,68.35141333007813L175.0619357638889,81.22270153808593L175.38285590277778,83.58209240722655L175.54331597222222,78.70257940673827L175.70377604166666,74.10799243164062L175.86423611111113,75.19545574951172L176.02469618055557,79.73337475585937L176.18515625,79.56063305664063L176.5060763888889,78.84759008789064L176.66653645833335,89.66961309814454L177.30837673611111,90.5881697998047L177.46883680555555,89.96659301757813L177.78975694444443,92.48075067138672L177.9502170138889,87.5705135498047L178.11067708333334,90.98721398925781L178.27113715277778,90.12560772705078L178.43159722222222,101.24439337158204L178.59205729166666,92.28091351318359L178.75251736111113,89.57811431884765L179.0734375,101.21636358642579L179.23389756944442,94.09563568115234L179.39435763888886,92.16913116455078L179.55481770833333,90.50996343994139L179.8757378472222,92.64085180664061L180.03619791666665,95.51879370117189L180.19665798611112,92.7949232788086L180.35711805555556,96.1092117919922L180.517578125,94.10130682373048L180.67803819444444,92.29728594970703L181.48033854166667,85.5684535522461L181.64079861111114,83.32324060058593L181.80125868055558,79.01808288574219L181.96171875,82.63193157958985L182.12217881944443,82.2519976196289L182.28263888888887,80.58933703613282L182.60355902777778,79.52217901611328L182.92447916666666,78.0334552001953L183.405859375,73.97630676269532L183.56631944444445,72.32767193603516L183.72677951388889,66.68610729980469L183.88723958333335,69.66434259033203L184.36861979166665,64.24151892089844L184.5290798611111,61.63316271972657L184.85,59.217668823242185L185.01046006944443,63.19184692382812L185.17092013888887,58.50437597656249L185.33138020833334,61.57176879882813L185.65230034722222,56.145419677734374L185.81276041666666,58.087047241210946L185.9732204861111,56.79819860839843L186.13368055555557,54.75515319824218L186.294140625,51.15525964355469L186.45460069444445,51.30303527832031L186.6150607638889,49.22540893554688L186.77552083333333,50.82802819824219L186.9359809027778,49.2176953125L187.25690104166665,50.419043212890614L187.4173611111111,46.699794921875L187.73828125,47.137113891601565L188.05920138888888,45.726411743164064L188.21966145833332,44.948791625976554L188.54058159722223,47.45141687011719L188.8615017361111,45.19287890625L189.02196180555558,43.70511657714843L189.18242187500002,42.59227978515626L189.34288194444446,42.81120544433594L189.82426215277778,41.544356933593754L189.98472222222222,40.11979199218751L190.14518229166666,41.68501647949219L190.3056423611111,40.96254333496094L190.6265625,39.47449853515625L190.78702256944445,40.73193859863281L190.94748263888889,40.034637939453134L191.10794270833333,39.68901330566407L191.2684027777778,39.374243164062506L191.74978298611111,39.87466174316407L192.07070312500002,39.40215344238281L192.23116319444443,40.1017138671875L192.55208333333331,40.69203417968749L192.71254340277778,41.275433959960935L193.03346354166666,41.607934570312494L193.1939236111111,40.59370178222656L193.35438368055554,41.606793823242185L193.51484375,40.135697265625005L193.8357638888889,39.15615405273438L193.99622395833333,38.446348632812494L194.1566840277778,37.67198779296874L194.47760416666668,38.68419982910156L194.63806423611112,38.89070764160155L194.79852430555553,38.37456848144531L194.958984375,37.93931372070312L195.27990451388888,38.81428845214843L195.44036458333332,39.07691015625L195.76128472222223,39.41903649902344L196.24266493055555,39.50446215820312L196.56358506944446,39.595863159179686L196.7240451388889,39.61783068847655L196.88450520833334,39.188540405273436L197.04496527777778,38.56708312988282L197.36588541666666,38.102799072265626L197.68680555555554,38.373992675781246L197.847265625,37.85168261718751L198.00772569444445,37.19839306640626L198.16818576388889,37.026411865234365L198.32864583333333,37.87995141601562L198.48910590277777,38.124342895507816L198.64956597222223,36.68375317382812L198.81002604166667,38.03164904785155L198.97048611111111,37.43047534179688L199.45186631944446,38.43958020019531L199.6123263888889,39.033203247070304L199.77278645833334,38.59882849121093L200.4146267361111,38.894705688476556L200.57508680555554,38.27637731933595L200.73554687499998,38.12821057128906L200.89600694444445,38.11150134277343L201.0564670138889,37.97668676757812L201.37738715277777,38.93018835449218L201.53784722222224,39.60962817382813L201.69830729166668,38.95013513183594L201.85876736111112,39.321377685546885L202.01922743055556,38.73593542480469L202.82152777777776,37.94560412597655L202.9819878472222,37.40751916503907L203.14244791666667,36.74642907714844L203.3029079861111,38.04640270996093L203.46336805555555,38.37200451660157L203.623828125,38.53044885253906L203.9447482638889,37.35046008300782L204.10520833333334,37.43941662597657L204.26566840277778,37.98764880371094L204.42612847222222,39.23681030273437L204.58658854166669,38.54511560058594L204.74704861111113,39.63727770996094L204.90750868055557,38.67218395996093L205.06796874999998,39.373363159179696L205.22842881944445,38.77284130859374L205.54934895833333,38.57813208007813L205.70980902777777,38.85807141113282L205.8702690972222,38.057962280273436L206.03072916666667,37.74594079589844L206.19118923611111,37.414885131835945L206.35164930555555,37.58274877929687L206.512109375,36.98645312499999L206.8330295138889,36.336998657226566L207.15394965277778,36.52630834960937L207.31440972222222,35.77965136718749L207.4748697916667,36.07274731445313L207.63532986111113,35.60960400390624L207.79578993055554,35.594394042968744L208.11671006944442,35.70300402832032L208.43763020833333,35.67287744140625L208.59809027777777,35.784931396484374L208.91901041666668,35.46559826660156L209.23993055555556,36.30019055175781L209.400390625,35.4597315673828L209.56085069444444,35.30229760742186L209.88177083333335,36.64035046386718L210.36315104166667,35.119604248046876L210.5236111111111,35.94274560546875L211.00499131944443,36.51211962890624L211.1654513888889,34.780161376953124L211.32591145833334,36.117833984375L211.80729166666666,37.68311279296876L211.96775173611113,36.68964160156249L212.288671875,36.30242858886719L212.44913194444445,36.5191162109375L212.6095920138889,35.950394042968746L212.77005208333335,35.92307043457031L212.93051215277777,37.77231921386719L213.0909722222222,36.258710815429694L213.25143229166665,35.8232930908203L213.41189236111111,36.85324645996094L213.57235243055555,36.635667968750006L213.7328125,37.63676586914062L214.0537326388889,36.74087744140625L214.21419270833334,37.75215515136719L214.37465277777778,36.35987878417969L214.85603298611113,37.23335424804687L215.01649305555557,37.293455322265636L215.33741319444442,37.72491845703126L215.49787326388886,36.331381835937506L215.65833333333333,37.20273876953126L215.81879340277777,36.88803381347656L216.13971354166665,37.22163171386719L216.30017361111112,37.08884875488282L216.62109375,37.23893847656251L216.78155381944444,37.01140832519531L216.94201388888888,38.06855493164063L217.10247395833335,37.54363745117187L217.2629340277778,37.66121044921874L217.42339409722223,39.07768151855469L217.58385416666667,37.60419482421875L217.74431423611114,38.4542578125L217.90477430555558,39.384966186523435L218.065234375,39.222143554687506L218.22569444444443,38.868870483398446L218.38615451388887,39.09918188476562L218.54661458333334,38.79161474609375L218.70707465277778,37.54308337402344L219.02799479166666,37.793852172851565L219.1884548611111,38.60517321777344L219.34891493055557,38.370755126953135L219.509375,38.558869750976555L219.83029513888889,39.09976855468749L219.99075520833335,39.489132690429685L220.6325954861111,40.366204223632806L221.11397569444443,39.3603369140625L221.43489583333334,39.29657458496093L221.59535590277778,40.986064453124996L221.75581597222222,39.408976196289075L221.91627604166666,39.09837792968751L222.0767361111111,40.17129943847657L222.39765625,37.996763916015624L222.55811631944445,38.86075488281249L222.7185763888889,39.02723876953125L222.87903645833333,41.531895629882804L223.0394965277778,40.23915759277343L223.36041666666665,39.90950341796876L223.5208767361111,40.799601196289075L223.68133680555556,38.90892700195313L223.841796875,38.72303955078125L224.00225694444444,38.251161376953114L224.16271701388888,38.81090966796875L224.32317708333332,37.43330004882813L224.4836371527778,37.454224609375L224.64409722222223,38.00910571289063L224.80455729166667,37.91621630859374L224.9650173611111,37.52034448242188L225.28593750000002,37.426531616210944L225.44639756944446,36.45577758789062L225.7673177083333,36.43383178710937L225.92777777777778,36.999479370117186L226.08823784722222,36.0488133544922L226.4091579861111,36.53959533691406L226.56961805555557,37.16536572265625L226.730078125,37.357282836914074L226.89053819444445,36.22039257812501L227.05099826388889,36.250855957031256L227.21145833333333,37.36990710449218L227.85329861111111,38.570929077148435L228.17421875000002,36.643490234375L228.65559895833331,37.4758662109375L228.81605902777778,38.01747119140626L228.97651909722222,38.976502685546876L229.13697916666666,37.660895385742194L229.2974392361111,36.940877563476555L229.45789930555554,37.29115209960937L229.77881944444445,36.57223156738282L229.9392795138889,35.62009887695312L230.09973958333333,36.07534387207031L230.2601996527778,36.99111389160156L230.42065972222224,35.988929565429686L230.58111979166668,36.914129760742185L230.74157986111112,36.16104113769532L230.90203993055553,36.61939331054687L231.0625,37.56457287597657L231.22296006944444,36.694595703124996L231.54388020833332,36.97099328613282L231.70434027777776,37.122549682617176L231.86480034722223,36.99896874999999L232.1857204861111,36.47138952636718L232.34618055555555,35.92289660644532L232.50664062500002,35.8086806640625L232.66710069444446,36.218621704101565L232.8275607638889,35.79722973632812L232.98802083333334,36.00195581054688L233.30894097222225,36.532370605468756L233.46940104166666,37.203575317382814L233.6298611111111,37.25678845214845L233.79032118055554,37.60922497558593L233.95078125,37.38356347656251L234.11124131944445,37.63601623535156L234.27170138888889,38.35206860351562L234.59262152777777,37.98277075195312L234.75308159722223,38.10802478027344L234.91354166666667,37.86668615722656L235.07400173611111,38.877094726562504L235.23446180555555,38.43490856933593L235.394921875,37.07271533203125L235.55538194444446,38.419698608398434L235.7158420138889,38.25291052246093L235.87630208333334,37.32137646484376L236.19722222222222,38.47712707519531L236.35768229166666,40.12198657226563L236.67860243055554,38.46680603027343L237.32044270833333,38.863210205078126L237.48090277777777,38.014125L237.80182291666668,38.28000598144531L237.96228298611112,37.873052612304676L238.12274305555556,38.05498547363281L238.44366319444447,37.962986938476554L238.76458333333332,39.26146130371093L238.92504340277776,38.67803979492188L239.0855034722222,39.70957934570313L239.4064236111111,39.87503112792969L239.56688368055555,39.894206542968746L239.72734375,40.51653295898438L239.88780381944446,38.990202514648445L240.20872395833334,39.813550292968756L240.36918402777778,38.956870971679685L240.52964409722222,39.15398120117187L240.69010416666669,38.765616577148435L240.85056423611113,39.150428588867186L241.17148437499998,39.9211064453125L241.33194444444445,39.456268310546875L241.49240451388889,38.040948852539074L241.81332465277777,37.90284240722656L241.9737847222222,38.74118286132813L242.45516493055555,38.244219116210935L242.615625,37.73083947753907L242.77608506944443,37.87304174804689L242.9365451388889,38.55498034667968L243.25746527777778,38.43387646484375L243.41792534722222,38.50411389160157L243.5783854166667,40.533524658203135L243.73884548611113,42.55462426757813L243.89930555555554,43.48584326171875L244.05976562499998,42.85891040039063L244.22022569444442,41.76653100585936L244.3806857638889,41.72734362792968L244.70160590277777,41.22999963378907L244.8620659722222,42.10115014648438L245.02252604166668,45.29541577148437L245.18298611111112,46.16547985839845L245.34344618055556,47.18834973144532L245.50390625,54.74962329101562L245.66436631944444,49.128836547851556L245.98528645833335,41.82584985351563L246.1457465277778,43.43462915039063L246.3062065972222,41.83943017578125L246.46666666666667,41.10544091796876L246.6271267361111,40.01461511230469L246.78758680555555,39.500409790039065L247.2689670138889,41.652086914062494L247.58988715277778,40.22679406738282L247.75034722222222,39.88569982910156L247.91080729166666,39.70572253417968L248.07126736111113,40.6084989013672L248.23172743055557,39.87480297851562L248.3921875,40.46019091796876L248.55264756944445,40.493022705078126L248.7131076388889,41.44800183105468L248.87356770833335,42.49157897949219L249.03402777777777,41.07172912597656L249.51540798611111,39.438331420898436L249.67586805555555,40.39076831054687L250.1572482638889,38.579457519531246L250.31770833333334,38.63954772949219L250.47816840277778,39.04684875488282L250.63862847222222,38.8397216796875L250.79908854166666,39.23412683105469L250.95954861111113,38.751319213867184L251.28046875,37.69267333984375L251.44092881944442,37.73790124511719L251.60138888888886,37.73762963867188L251.76184895833333,37.560140258789055L251.92230902777777,37.39500354003907L252.0827690972222,36.90126647949219L252.24322916666665,37.022576782226565L252.56414930555556,36.93459802246094L252.724609375,38.26290563964843L252.88506944444444,39.18962683105469L253.20598958333335,38.462829711914054L253.3664496527778,38.57486193847655L253.52690972222223,38.68418896484374L253.84782986111114,39.14034655761719L254.00828993055558,39.11444616699219" style="fill: none;" fill="none"></path></g></g></g></g></g></g><g transform="translate(41, 178)" clip-path="url(#clip_1)"><clipPath id="clip_1"><rect width="288" height="22"></rect></clipPath><g><g><line x1="0" y1="0" x2="0" y2="5" style="visibility: inherit;" fill="rgb(0, 0, 0)" stroke="rgb(204, 204, 204)" stroke-width="1px"></line><line x1="32.092013888888886" y1="0" x2="32.092013888888886" y2="5" style="visibility: inherit;" fill="rgb(0, 0, 0)" stroke="rgb(204, 204, 204)" stroke-width="1px"></line><line x1="64.18402777777777" y1="0" x2="64.18402777777777" y2="5" style="visibility: inherit;" fill="rgb(0, 0, 0)" stroke="rgb(204, 204, 204)" stroke-width="1px"></line><line x1="96.27604166666666" y1="0" x2="96.27604166666666" y2="5" style="visibility: inherit;" fill="rgb(0, 0, 0)" stroke="rgb(204, 204, 204)" stroke-width="1px"></line><line x1="128.36805555555554" y1="0" x2="128.36805555555554" y2="5" style="visibility: inherit;" fill="rgb(0, 0, 0)" stroke="rgb(204, 204, 204)" stroke-width="1px"></line><line x1="160.46006944444446" y1="0" x2="160.46006944444446" y2="5" style="visibility: inherit;" fill="rgb(0, 0, 0)" stroke="rgb(204, 204, 204)" stroke-width="1px"></line><line x1="192.55208333333331" y1="0" x2="192.55208333333331" y2="5" style="visibility: inherit;" fill="rgb(0, 0, 0)" stroke="rgb(204, 204, 204)" stroke-width="1px"></line><line x1="224.64409722222223" y1="0" x2="224.64409722222223" y2="5" style="visibility: inherit;" fill="rgb(0, 0, 0)" stroke="rgb(204, 204, 204)" stroke-width="1px"></line><line x1="256.7361111111111" y1="0" x2="256.7361111111111" y2="5" style="visibility: inherit;" fill="rgb(0, 0, 0)" stroke="rgb(204, 204, 204)" stroke-width="1px"></line><line x1="288.828125" y1="0" x2="288.828125" y2="5" style="visibility: inherit;" fill="rgb(0, 0, 0)" stroke="rgb(204, 204, 204)" stroke-width="1px"></line></g><g transform="translate(0, 8)"><text x="0" y="0" dx="0em" dy="0.95em" style="text-anchor: middle; visibility: hidden; font-family: Roboto, sans-serif; font-size: 12px; font-weight: 200;" fill="rgb(50, 49, 63)" stroke="none" stroke-width="1px">-10M</text><text x="32.092013888888886" y="0" dx="0em" dy="0.95em" style="text-anchor: middle; visibility: inherit; font-family: Roboto, sans-serif; font-size: 12px; font-weight: 200;" fill="rgb(50, 49, 63)" stroke="none" stroke-width="1px">0</text><text x="64.18402777777777" y="0" dx="0em" dy="0.95em" style="text-anchor: middle; visibility: inherit; font-family: Roboto, sans-serif; font-size: 12px; font-weight: 200;" fill="rgb(50, 49, 63)" stroke="none" stroke-width="1px">10M</text><text x="96.27604166666666" y="0" dx="0em" dy="0.95em" style="text-anchor: middle; visibility: inherit; font-family: Roboto, sans-serif; font-size: 12px; font-weight: 200;" fill="rgb(50, 49, 63)" stroke="none" stroke-width="1px">20M</text><text x="128.36805555555554" y="0" dx="0em" dy="0.95em" style="text-anchor: middle; visibility: inherit; font-family: Roboto, sans-serif; font-size: 12px; font-weight: 200;" fill="rgb(50, 49, 63)" stroke="none" stroke-width="1px">30M</text><text x="160.46006944444446" y="0" dx="0em" dy="0.95em" style="text-anchor: middle; visibility: inherit; font-family: Roboto, sans-serif; font-size: 12px; font-weight: 200;" fill="rgb(50, 49, 63)" stroke="none" stroke-width="1px">40M</text><text x="192.55208333333331" y="0" dx="0em" dy="0.95em" style="text-anchor: middle; visibility: inherit; font-family: Roboto, sans-serif; font-size: 12px; font-weight: 200;" fill="rgb(50, 49, 63)" stroke="none" stroke-width="1px">50M</text><text x="224.64409722222223" y="0" dx="0em" dy="0.95em" style="text-anchor: middle; visibility: inherit; font-family: Roboto, sans-serif; font-size: 12px; font-weight: 200;" fill="rgb(50, 49, 63)" stroke="none" stroke-width="1px">60M</text><text x="256.7361111111111" y="0" dx="0em" dy="0.95em" style="text-anchor: middle; visibility: inherit; font-family: Roboto, sans-serif; font-size: 12px; font-weight: 200;" fill="rgb(50, 49, 63)" stroke="none" stroke-width="1px">70M</text><text x="288.828125" y="0" dx="0em" dy="0.95em" style="text-anchor: middle; visibility: hidden; font-family: Roboto, sans-serif; font-size: 12px; font-weight: 200;" fill="rgb(50, 49, 63)" stroke="none" stroke-width="1px">80M</text></g><line x1="0" y1="0" x2="288.828125" y2="0" fill="rgb(0, 0, 0)" stroke="rgb(204, 204, 204)" stroke-width="1px"></line></g></g></g></g></svg>