<svg viewBox="0 0 330 200" xmlns="http://www.w3.org/2000/svg"><g><g><g><g><g><line x1="51.5625" y1="178" x2="46.5625" y2="178" style="visibility: inherit;" fill="rgb(0, 0, 0)" stroke="rgb(204, 204, 204)" stroke-width="1px"></line><line x1="51.5625" y1="152.5714285714286" x2="46.5625" y2="152.5714285714286" style="visibility: inherit;" fill="rgb(0, 0, 0)" stroke="rgb(204, 204, 204)" stroke-width="1px"></line><line x1="51.5625" y1="127.14285714285717" x2="46.5625" y2="127.14285714285717" style="visibility: inherit;" fill="rgb(0, 0, 0)" stroke="rgb(204, 204, 204)" stroke-width="1px"></line><line x1="51.5625" y1="101.71428571428571" x2="46.5625" y2="101.71428571428571" style="visibility: inherit;" fill="rgb(0, 0, 0)" stroke="rgb(204, 204, 204)" stroke-width="1px"></line><line x1="51.5625" y1="76.28571428571425" x2="46.5625" y2="76.28571428571425" style="visibility: inherit;" fill="rgb(0, 0, 0)" stroke="rgb(204, 204, 204)" stroke-width="1px"></line><line x1="51.5625" y1="50.85714285714291" x2="46.5625" y2="50.85714285714291" style="visibility: inherit;" fill="rgb(0, 0, 0)" stroke="rgb(204, 204, 204)" stroke-width="1px"></line><line x1="51.5625" y1="25.428571428571455" x2="46.5625" y2="25.428571428571455" style="visibility: inherit;" fill="rgb(0, 0, 0)" stroke="rgb(204, 204, 204)" stroke-width="1px"></line><line x1="51.5625" y1="0" x2="46.5625" y2="0" style="visibility: inherit;" fill="rgb(0, 0, 0)" stroke="rgb(204, 204, 204)" stroke-width="1px"></line></g><g transform="translate(41.5625, 0)"><text x="0" y="178" dx="0em" dy="0.3em" style="text-anchor: end; visibility: hidden; font-family: Roboto, sans-serif; font-size: 12px; font-weight: 200;" fill="rgb(50, 49, 63)" stroke="none" stroke-width="1px">0.9</text><text x="0" y="152.5714285714286" dx="0em" dy="0.3em" style="text-anchor: end; visibility: inherit; font-family: Roboto, sans-serif; font-size: 12px; font-weight: 200;" fill="rgb(50, 49, 63)" stroke="none" stroke-width="1px">0.95</text><text x="0" y="127.14285714285717" dx="0em" dy="0.3em" style="text-anchor: end; visibility: inherit; font-family: Roboto, sans-serif; font-size: 12px; font-weight: 200;" fill="rgb(50, 49, 63)" stroke="none" stroke-width="1px">1</text><text x="0" y="101.71428571428571" dx="0em" dy="0.3em" style="text-anchor: end; visibility: inherit; font-family: Roboto, sans-serif; font-size: 12px; font-weight: 200;" fill="rgb(50, 49, 63)" stroke="none" stroke-width="1px">1.05</text><text x="0" y="76.28571428571425" dx="0em" dy="0.3em" style="text-anchor: end; visibility: inherit; font-family: Roboto, sans-serif; font-size: 12px; font-weight: 200;" fill="rgb(50, 49, 63)" stroke="none" stroke-width="1px">1.1</text><text x="0" y="50.85714285714291" dx="0em" dy="0.3em" style="text-anchor: end; visibility: inherit; font-family: Roboto, sans-serif; font-size: 12px; font-weight: 200;" fill="rgb(50, 49, 63)" stroke="none" stroke-width="1px">1.15</text><text x="0" y="25.428571428571455" dx="0em" dy="0.3em" style="text-anchor: end; visibility: inherit; font-family: Roboto, sans-serif; font-size: 12px; font-weight: 200;" fill="rgb(50, 49, 63)" stroke="none" stroke-width="1px">1.2</text><text x="0" y="0" dx="0em" dy="0.3em" style="text-anchor: end; visibility: hidden; font-family: Roboto, sans-serif; font-size: 12px; font-weight: 200;" fill="rgb(50, 49, 63)" stroke="none" stroke-width="1px">1.25</text></g><line x1="51.5625" y1="0" x2="51.5625" y2="178" fill="rgb(0, 0, 0)" stroke="rgb(204, 204, 204)" stroke-width="1px"></line></g></g><g transform="translate(51, 0)" clip-path="url(#clip_0)"><clipPath id="clip_0"><rect width="278" height="178"></rect></clipPath><g><g><g><line x1="0" y1="0" x2="0" y2="178" fill="rgb(0, 0, 0)" stroke="rgb(60, 60, 60)" stroke-width="1px" opacity="0.25"></line><line x1="30.9375" y1="0" x2="30.9375" y2="178" fill="rgb(0, 0, 0)" stroke="rgb(60, 60, 60)" stroke-width="1px" opacity="0.25"></line><line x1="61.875" y1="0" x2="61.875" y2="178" fill="rgb(0, 0, 0)" stroke="rgb(60, 60, 60)" stroke-width="1px" opacity="0.25"></line><line x1="92.8125" y1="0" x2="92.8125" y2="178" fill="rgb(0, 0, 0)" stroke="rgb(60, 60, 60)" stroke-width="1px" opacity="0.25"></line><line x1="123.75" y1="0" x2="123.75" y2="178" fill="rgb(0, 0, 0)" stroke="rgb(60, 60, 60)" stroke-width="1px" opacity="0.25"></line><line x1="154.6875" y1="0" x2="154.6875" y2="178" fill="rgb(0, 0, 0)" stroke="rgb(60, 60, 60)" stroke-width="1px" opacity="0.25"></line><line x1="185.625" y1="0" x2="185.625" y2="178" fill="rgb(0, 0, 0)" stroke="rgb(60, 60, 60)" stroke-width="1px" opacity="0.25"></line><line x1="216.5625" y1="0" x2="216.5625" y2="178" fill="rgb(0, 0, 0)" stroke="rgb(60, 60, 60)" stroke-width="1px" opacity="0.25"></line><line x1="247.5" y1="0" x2="247.5" y2="178" fill="rgb(0, 0, 0)" stroke="rgb(60, 60, 60)" stroke-width="1px" opacity="0.25"></line><line x1="278.4375" y1="0" x2="278.4375" y2="178" fill="rgb(0, 0, 0)" stroke="rgb(60, 60, 60)" stroke-width="1px" opacity="0.25"></line></g><g><line x1="0" y1="178" x2="278.4375" y2="178" fill="rgb(0, 0, 0)" stroke="rgb(60, 60, 60)" stroke-width="1px" opacity="0.25"></line><line x1="0" y1="152.5714285714286" x2="278.4375" y2="152.5714285714286" fill="rgb(0, 0, 0)" stroke="rgb(60, 60, 60)" stroke-width="1px" opacity="0.25"></line><line x1="0" y1="127.14285714285717" x2="278.4375" y2="127.14285714285717" fill="rgb(0, 0, 0)" stroke="rgb(60, 60, 60)" stroke-width="1px" opacity="0.25"></line><line x1="0" y1="101.71428571428571" x2="278.4375" y2="101.71428571428571" fill="rgb(0, 0, 0)" stroke="rgb(60, 60, 60)" stroke-width="1px" opacity="0.25"></line><line x1="0" y1="76.28571428571425" x2="278.4375" y2="76.28571428571425" fill="rgb(0, 0, 0)" stroke="rgb(60, 60, 60)" stroke-width="1px" opacity="0.25"></line><line x1="0" y1="50.85714285714291" x2="278.4375" y2="50.85714285714291" fill="rgb(0, 0, 0)" stroke="rgb(60, 60, 60)" stroke-width="1px" opacity="0.25"></line><line x1="0" y1="25.428571428571455" x2="278.4375" y2="25.428571428571455" fill="rgb(0, 0, 0)" stroke="rgb(60, 60, 60)" stroke-width="1px" opacity="0.25"></line><line x1="0" y1="0" x2="278.4375" y2="0" fill="rgb(0, 0, 0)" stroke="rgb(60, 60, 60)" stroke-width="1px" opacity="0.25"></line></g></g></g><g><g><line x1="0" y1="635.7142857142858" x2="278.4375" y2="635.7142857142858" fill="rgb(0, 0, 0)" stroke="rgb(153, 153, 153)" stroke-width="1.5px"></line></g></g><g><g><line x1="30.9375" y1="0" x2="30.9375" y2="178" fill="rgb(0, 0, 0)" stroke="rgb(153, 153, 153)" stroke-width="1.5px"></line></g></g><g><g><g><g><g><path stroke="rgb(0, 119, 187)" stroke-width="2px" d="M35.887499999999996,-3.864758587372451L36.0421875,0.2304693946198706L36.196875,2.97104325495674L36.3515625,4.99400400773538L36.660937499999996,6.028977084248778L37.125,6.742984213403085L37.2796875,5.411874895714288L37.589062500000004,3.149237963313407L37.743750000000006,1.5041407451522544L37.8984375,1.838496153981802L38.053124999999994,3.344093432239119L38.207812499999996,3.3845011032440153L38.3625,2.9823811668329547L38.671875,5.007978725543478L38.8265625,7.233427531466029L39.290625,10.744109463760996L39.4453125,13.550409744511963L39.6,15.004213274401796L39.7546875,16.706473184923247L39.909375000000004,17.54717539272882L40.373437499999994,18.06407410023851L40.528124999999996,19.168201647221945L40.6828125,18.34189302397196L40.8375,16.08496745903357L40.9921875,16.8873961222693L41.146875,20.11083180115103L41.3015625,24.398055006236206L41.45625,28.65501332170848L41.6109375,34.58410329422043L41.765625,39.96649128170592L42.075,49.59750277215703L42.229687500000004,57.120767148407616L42.384375000000006,64.96974289307332L42.5390625,69.75294364295215L42.848437499999996,77.19793956167122L43.1578125,88.01824751695447L43.3125,94.16407301482926L43.621875,100.87238953312351L43.776562500000004,106.5473581783834L44.0859375,111.80307957409421L44.240625,114.82486055731084L44.3953125,117.25745479625972L44.550000000000004,119.86094545930452L44.7046875,122.76301657959729L44.859375,125.25569013941457L45.168749999999996,131.08350626437237L45.3234375,135.69004386852083L45.478125,138.612232826529L45.6328125,141.08847155149823L45.9421875,145.01112961899122L46.40625,150.0370190320385L46.5609375,153.5675481986844L46.715625,156.01376894132656L46.8703125,156.248698675288L47.1796875,156.82168028933467L47.334375,159.68490083677332L47.489062499999996,161.0673733819378L47.953125,161.8788925088727L48.1078125,164.69399221554386L48.571875000000006,169.95788373741718L49.035937499999996,173.9284461079272L49.190625,176.2194057970361L49.3453125,177.21250108795377L49.5,179.01160776857753L50.2734375,178.202831947681L50.428125,175.72416843595514L50.5828125,173.6642426758699L50.737500000000004,172.03430540198264L51.04687499999999,169.22678823119068L51.201562499999994,165.43789460823626L51.665625,164.185800071245L52.1296875,159.1262474379227L52.284375,155.69222778826241L52.59375,153.8071311621758L52.903125,154.8872778796174L53.057812500000004,155.49079680642294L53.212500000000006,156.04739950484156L53.36718750000001,155.55225906251647L53.521874999999994,154.13593235636853L53.676562499999996,153.16774220777106L53.9859375,152.22963089076384L54.140625,150.48644999683893L54.2953125,149.8268853625705L54.45,148.23610343399042L54.759375,149.70094188695631L54.9140625,150.88201191632407L55.06875,151.5563629824911L55.378125000000004,150.51266527823725L55.5328125,149.1324976204157L55.6875,148.2276446324604L55.996874999999996,146.77638240452407L56.1515625,146.13637097858998L56.4609375,145.42405158088698L56.615625,144.34414861361375L56.925000000000004,142.71034460998814L57.0796875,140.86956815503942L57.234375,138.21079258129734L57.54375,136.08568278667485L57.6984375,134.04610251672216L58.1625,133.9429841346755L58.317187499999996,133.90223160634795L58.471875,133.3421587850029L58.6265625,131.52233208458782L58.9359375,128.50792348149855L59.090625,126.92335984419076L59.400000000000006,128.49797966166054L59.709375,129.09896936770423L59.864062499999996,129.23607596846776L60.01875,129.44138735791506L60.1734375,128.90819296370182L60.4828125,130.4713926257914L60.637499999999996,131.29975059767267L61.1015625,130.22700554840475L61.720312500000006,127.20519154340667L61.875,124.13500285112751L62.3390625,121.73801273941083L62.49375,119.8832364847785L62.803125,118.23909228609914L62.9578125,117.552853722635L63.1125,117.47670296365602L63.2671875,117.51613848602642L63.421875,118.00401360674351L63.885937500000004,118.39878974655232L64.040625,120.05763874741731L64.1953125,120.74947154525233L64.35,121.04740211795L64.8140625,121.85965095674118L64.96875,122.89286494468354L65.12343750000001,123.74270515889133L65.278125,124.03073076744265L65.4328125,122.99437712372465L65.58749999999999,121.82164695659411L65.896875,121.48184959916411L66.0515625,121.70523462820405L66.20625,121.57402731612927L66.515625,121.48805317669344L66.6703125,119.73382424862939L66.825,118.25047571095853L66.9796875,117.46533228558529L67.134375,117.47171285267082L67.2890625,117.3902686278081L67.44375000000001,115.8627437330455L67.753125,113.15741958675068L67.90781249999999,110.53730118643739L68.2171875,109.69803659589553L68.8359375,104.4493568932018L68.99062500000001,102.76530279265279L69.3,102.72866766710015L69.4546875,103.57852070630484L69.609375,103.94503365223348L69.7640625,104.12444034634119L69.91875,106.6947956851029L70.0734375,108.48262715762802L70.228125,109.73626986783296L70.53750000000001,110.39401070666517L71.0015625,110.77223104717159L71.15625,111.11248292906849L71.31093750000001,112.76859319542582L71.465625,113.01036035329327L71.77499999999999,112.70231187852478L72.084375,112.67927106192131L72.39375,114.26856145389942L72.703125,114.32277595421841L73.0125,113.53809519037476L73.1671875,112.94635445161526L73.32187499999999,112.6590324100902L73.4765625,112.62974316590848L73.63125,113.2884460850818L73.940625,112.51069814782657L74.0953125,112.27987730485293L74.40468750000001,110.91653226945704L74.559375,110.16171395348462L74.7140625,110.72498461814763L75.0234375,114.38584670316911L75.796875,115.71804967255973L76.10624999999999,114.23118506664393L76.2609375,113.58239063447465L76.5703125,112.76291792008156L76.725,111.83916030248731L76.87968749999999,110.45842718896776L77.034375,109.22800031639467L77.18906249999999,108.89194131703698L77.34375,108.55706785809474L77.4984375,108.50012281312853L77.653125,107.75637956703011L77.8078125,109.26604946859545L77.9625,110.28536725814497L78.58125,111.56819512548013L78.7359375,112.26277844587517L79.04531250000001,113.73353864135974L79.509375,114.148022999138L79.6640625,114.8891719103138L79.9734375,115.76788686174694L80.12812500000001,116.89738540224359L80.2828125,117.22960196691245L80.43749999999999,117.37873484641487L80.5921875,116.99478353038516L80.9015625,117.64866794491492L81.05624999999999,116.88142418677805L81.2109375,116.35945277462851L81.365625,115.76841673634816L81.5203125,116.99919962434299L81.675,118.60007382917851L82.1390625,125.34309929497125L82.29375,128.4715303219568L82.603125,128.6126008137385L82.9125,128.73668436159863L83.221875,126.67446666363536L83.53125,126.2123066285008L83.840625,125.77706707865906L83.99531250000001,126.98773041612789L84.15,128.23048846120508L84.3046875,128.62315424380137L84.45937500000001,129.00110878879258L84.6140625,130.25268565213472L84.76875000000001,130.31187454445768L84.92343749999999,130.48516880691426L85.078125,130.10750835746714L85.38749999999999,129.7803285996625L85.69687499999999,129.39107195936185L85.8515625,129.9853451726109L86.1609375,131.39865998527046L86.47031249999999,132.2636888060573L86.625,132.0810873695443L86.7796875,131.28429194091055L86.934375,130.2193671596817L87.0890625,128.86497698319386L87.24375,127.730279632017L87.3984375,126.14052669443089L87.55312500000001,123.85651332541718L87.7078125,123.0690803675644L87.8625,120.7043377405231L88.0171875,117.97026304205801L88.32656250000001,116.95855724996316L88.48125,115.87241839603429L88.790625,114.66124561475212L89.10000000000001,116.26085499164992L89.25468749999999,117.37397711522718L89.409375,117.62610251515497L89.56406249999999,118.51678585982447L89.71875,118.9204165423434L90.02812499999999,119.37031527070522L90.1828125,119.71033361551184L90.4921875,118.68566850039154L90.646875,118.88042209722421L90.8015625,120.0895059018225L90.95625,121.36924445176577L91.1109375,121.83578273853459L91.4203125,122.88138553387034L91.575,124.24977418510882L91.7296875,124.3135175372174L91.884375,123.20791597064816L92.3484375,120.4507075635276L92.6578125,119.21978936460594L92.8125,118.3180219084513L93.121875,116.74424559625442L93.27656250000001,114.37518926977202L93.43125,113.72978171254454L93.740625,112.7523123961238L93.89531249999999,112.6357028185671L94.20468749999999,114.52790212840848L94.5140625,116.7113267704682L95.2875,113.37124642356412L95.4421875,112.70857515531583L95.90625,113.17817540267006L96.0609375,113.77758292860379L96.215625,114.3163973657475L96.3703125,113.0452261508739L96.525,111.14257828812262L96.6796875,110.2136255126221L96.9890625,111.31470565105592L97.2984375,108.96851447986401L97.60781250000001,109.17824733425311L97.91718750000001,108.5261320480165L98.38125,108.12571607784999L98.53593749999999,108.59697621443165L98.84531249999999,108.66788424881302L99,108.29926305216264L99.1546875,108.60493533129635L99.309375,107.2176780489271L99.4640625,106.4026752774935L99.7734375,106.08990270222327L99.928125,105.13297460496122L100.2375,106.03667210548964L100.3921875,106.09596466526307L100.546875,106.73627074881284L100.70156250000001,106.35609748410846L100.85625,105.13063253187967L101.0109375,103.86598396057654L101.3203125,99.9302765970311L101.47500000000001,98.55519791950908L101.78437500000001,98.56155848472665L101.9390625,98.3616705109572L102.09374999999999,97.64682286970154L102.24843750000001,96.19497057791718L102.40312499999999,94.67659625196251L102.5578125,94.35919394768885L102.71249999999999,91.93518591405612L102.8671875,89.5014682180623L103.021875,88.86595629062381L103.1765625,88.04575871629581L103.33125,87.36987362193307L103.48593749999999,87.372287901534L103.640625,87.73916340626808L103.7953125,89.35083880119574L103.95,88.95454515917761L104.259375,88.88234976453842L104.4140625,90.09203444255449L104.878125,92.34579466093963L105.0328125,94.44187933218316L105.6515625,96.54609485615072L106.11562500000001,96.56552217477946L106.2703125,95.20571489740037L106.57968749999999,93.13849646226306L106.73437500000001,92.06902670621182L107.04374999999999,91.37429865649422L107.1984375,92.68012667493994L107.35312499999999,95.56509396403945L107.8171875,94.41585798120879L107.971875,94.34204468655776L108.28125,93.1626631154172L108.9,90.48123894230856L109.0546875,89.5056192695203L109.3640625,91.7494851942128L109.51875,92.879814918317L109.6734375,93.70870478865248L109.828125,92.92629288450394L109.98281250000001,92.75964726132197L110.1375,92.91607170151414L110.29218750000001,92.35079490139881L110.6015625,92.83329247077556L110.75625000000001,92.15420160299381L110.91093749999999,92.47145269260578L111.065625,92.32376315595168L111.22031249999999,93.09671816996895L111.375,93.22341138720877L111.5296875,93.51601687371914L111.99374999999999,95.84426514527713L112.1484375,97.48027516656731L112.303125,98.38970484675065L113.23125,96.88982330361122L113.540625,95.70861636044992L113.6953125,95.32568875458752L113.85000000000001,96.05435241159115L114.0046875,96.35511741913089L114.159375,96.03685755185933L114.3140625,95.10810529232633L114.46875,94.03637349980522L114.62343750000001,94.44106617331651L114.778125,94.49387739905363L114.93281250000001,94.06970731960908L115.0875,94.26378910586256L115.24218749999999,94.29113990771997L115.396875,94.55899165283896L115.55156249999999,94.18638363017837L115.70625,93.73632429734546L115.86093749999999,92.58219445806866L116.015625,93.05057184712864L116.325,93.75334228626139L116.4796875,94.2549901341105L116.63437499999999,94.09810125787295L116.94375,93.07464220673886L117.253125,93.2538115764355L117.5625,92.16851650599112L117.7171875,90.88140661692641L118.18125,89.28368246713723L118.3359375,88.04270208812619L118.49062500000001,87.64801506950606L118.80000000000001,88.12917234874844L118.9546875,89.43501814251823L119.109375,89.77583613304843L119.41875,88.60949278172983L119.57343750000001,88.19110376641858L119.72812499999999,87.46127971654845L119.8828125,86.77547195164925L120.19218749999999,86.88526568686676L120.346875,86.59231836251564L120.50156249999999,84.80650579827531L120.65625,85.42498631937342L120.8109375,86.66660058047185L120.965625,87.50499599946444L121.1203125,88.3591580933122L121.27499999999999,89.31481074591845L121.4296875,92.31918327801469L121.584375,93.38743580916905L121.7390625,93.18307142511415L121.89375,92.52994647152919L122.0484375,92.00207390508047L122.5125,91.7294680411241L122.6671875,91.84985745054166L122.821875,90.8098641724188L123.13125000000001,89.8193154294973L123.2859375,87.62804674901983L123.44062500000001,86.87807404894839L123.5953125,85.67044419000149L123.90468750000001,86.45521721218826L124.05937499999999,86.67312083274383L124.2140625,87.75033749527299L124.36874999999999,87.59819849737055L124.5234375,88.50512607527126L124.83281249999999,90.83458406969653L125.14218749999999,91.04653826974206L125.4515625,92.33379121433882L125.60625,92.48446411368272L125.7609375,92.33469459651423L126.225,95.78766230505818L126.84375,98.16806292699547L126.99843750000001,98.62628993049073L127.153125,99.29236848906652L127.3078125,100.4775123640837L127.4625,100.39697926608291L127.77187500000001,99.56283981571096L127.9265625,99.11682096605257L128.390625,97.45332735804807L128.5453125,95.6700485988718L128.8546875,94.68246788006336L129.1640625,94.75580754134567L129.31875,95.46552178105748L129.7828125,96.97273593423427L129.9375,95.70724009682993L130.0921875,92.89848804081616L130.24687500000002,90.90370143966727L130.4015625,90.56361998732453L130.55625,91.41528631910609L130.7109375,91.33895069336221L130.865625,91.95203208485337L131.0203125,91.97390133774965L131.17499999999998,93.20157827540304L131.3296875,93.32746485246679L131.484375,92.89897022901137L131.6390625,91.1006753273004L131.79375,89.32068634877861L131.9484375,88.6982363334382L132.103125,87.79860142510266L132.5671875,86.63330105478418L132.721875,85.15156078391419L133.03125,84.91895239720176L133.340625,82.89388540826106L133.4953125,80.10326940679342L133.65,78.41722731934176L133.8046875,77.0841930849377L133.959375,76.23749419196139L134.11406250000002,75.35026154986858L134.26875,74.25779076878719L134.4234375,73.7221346917971L134.578125,72.18236396967349L134.88750000000002,68.3624837312051L135.04218749999998,64.56506069636514L135.196875,59.54984709830033L135.3515625,56.006043522469085L135.50625,53.88972293637928L135.81562499999998,53.78439806694012L135.9703125,54.15387752478998L136.125,54.19914613151818L136.2796875,55.59648493208332L136.434375,56.65139528608386L136.5890625,57.284704225029586L136.74375,57.50420482650846L136.8984375,57.41473664972623L137.053125,57.56940291817279L137.2078125,57.99727812087752L137.3625,57.879104091108935L137.5171875,57.585665577484576L137.671875,57.2496402658759L138.1359375,56.09805458205212L138.4453125,57.5883198308951L138.75468750000002,58.348790944304156L139.21875,57.484486967666L139.3734375,56.86651494477491L139.528125,58.653081786504885L139.6828125,61.39850290922186L139.8375,64.72741645443661L139.9921875,67.3483765501902L140.146875,69.3195029004265L140.30156250000002,70.2323143491216L140.45625,70.23814438115608L140.6109375,69.86781272740399L140.765625,68.88774334969878L140.9203125,66.7887739177824L141.07500000000002,65.58996628334096L141.5390625,66.65300004132433L141.69375,66.09396854123531L141.84843750000002,65.63487727980345L142.1578125,66.23679294244434L142.3125,67.42035046815298L142.62187500000002,70.95899853620922L142.7765625,74.2168835192905L142.93125,76.55273028590781L143.0859375,77.02836036586302L143.24062500000002,77.2160373410474L143.39531250000002,76.83059351760883L143.85937500000003,73.46213749464863L144.0140625,70.91680186129445L144.16875,70.50527197971077L144.7875,73.51804341587207L144.9421875,73.65569634096211L145.25156249999998,74.26185492957964L145.40625,73.33276248403772L145.5609375,72.2442792675316L145.715625,70.92965750289773L146.025,69.4798378140797L146.334375,68.88457760880029L146.4890625,69.70990071671885L146.64374999999998,71.21447474462913L146.953125,71.34309758382318L147.1078125,70.22661817035578L147.2625,69.97017687540007L147.4171875,71.33530666563152L147.571875,74.24019429721483L147.7265625,75.50848530549828L147.88125,74.16633016135947L148.0359375,72.3115516871687L148.5,73.13126484690206L148.6546875,73.98105717909242L148.9640625,72.79004656167494L149.11875,72.67830992045975L149.2734375,72.02839344038915L149.428125,72.64256904881657L149.58281250000002,72.7916643538151L149.7375,73.8398422983893L150.046875,74.52219658886575L150.2015625,74.63293264065918L150.35625000000002,76.77036413712385L150.5109375,79.0978060053513L150.665625,79.98725293085042L150.8203125,81.52346448248016L150.97500000000002,82.90444292697008L151.12968750000002,82.69599362960093L151.59375,80.70461951072332L151.74843750000002,79.81778722194491L152.0578125,79.61029886370166L152.21249999999998,80.55336108814879L152.36718750000003,81.37334265671915L152.521875,82.9427534544321L152.83124999999998,82.21961869673336L153.140625,83.69697245610244L153.2953125,83.5491998625422L153.45,83.3044985747647L153.60468749999998,82.89602145349824L153.75937499999998,81.65440390051185L153.9140625,80.76668722770425L154.06875,79.4663895052052L154.2234375,77.44529498595308L154.5328125,74.972710844199L154.6875,74.11497025647625L154.8421875,73.94567205984822L155.15156249999998,72.13362415727839L155.4609375,72.42924653396582L155.615625,72.20014315299976L155.7703125,72.3774471383503L155.925,73.20474134675426L156.0796875,74.35078614350043L156.234375,74.03484307142324L156.54375,74.09154975477117L156.6984375,73.15018320966533L156.853125,72.69405028239696L157.1625,73.22523902364478L157.3171875,73.16617881510615L157.6265625,69.25452564924794L158.09062500000002,67.71165605342739L158.4,66.05825813873501L158.5546875,65.86607548867468L158.709375,65.97120331364282L159.1734375,67.21377327787157L159.328125,68.62244413241811L159.63750000000002,69.33732856002266L159.7921875,70.3629650678008L160.1015625,72.03599147882059L160.25625000000002,73.5174790522896L160.41093750000002,73.3875059266183L160.7203125,73.29447963589043L160.87499999999997,74.1888888189305L161.33906249999998,75.71524401905825L161.49374999999998,77.61531891057805L161.803125,77.159277677117L161.9578125,77.29486412640466L162.11249999999998,77.40321643852931L162.26718749999998,75.90744737636913L162.5765625,73.64881261967692L162.73125,72.53916852068441L162.88593749999998,71.30836167984113L163.040625,71.24496198365401L163.35,69.76810971660636L163.65937499999998,68.18785516871056L163.96875,68.260805875894L164.1234375,68.19906639881475L164.278125,68.00787004317046L164.43281249999998,68.79032457683519L164.5875,69.45800840407485L165.20625,75.18205604159344L165.3609375,78.03153018754477L165.515625,79.64475485839468L165.6703125,80.5780461374537L165.825,81.19756134212948L166.134375,81.46979117892089L166.2890625,81.9462022976601L166.44375,83.69885629540167L166.59843750000002,85.29487974791185L166.753125,85.66398973368406L166.9078125,86.06795180817412L167.0625,86.1214586970776L167.2171875,84.37040245350613L167.37187500000002,82.64025373878573L167.5265625,81.46440825672195L167.8359375,76.67089009049309L167.99062500000002,74.29874534148503L168.14531250000002,72.51677570113802L168.3,70.88778524284196L168.4546875,67.72898688259042L168.609375,62.64634956944294L168.76406250000002,57.76782107509186L169.0734375,52.36950160853854L169.228125,48.27747975967442L169.38281249999997,44.6908904017968L169.53750000000002,41.429284004326014L169.69218750000002,40.67222903993069L169.84687499999998,40.95268063302862L170.15625,43.5306045894766L170.3109375,45.20075530093772L170.9296875,43.1764756157094L171.084375,41.15184393382254L171.39374999999998,37.37447747729597L171.5484375,36.242169698077106L171.703125,35.39734638304822L171.8578125,35.38161687623828L172.0125,36.23613289991986L172.16718749999998,37.60892084950485L172.321875,38.19713030684557L172.63125,38.519971967453024L172.7859375,38.02089806149409L172.94062499999998,38.59582004820309L173.0953125,40.18787106241855L173.4046875,42.15619970117475L173.559375,43.824290875367595L173.7140625,44.55921223521275L173.86875,44.1788457939456L174.0234375,45.14553627631502L174.178125,48.24688270605034L174.9515625,52.89205060431999L175.10625000000002,55.19826541500958L175.2609375,57.32106239391488L175.415625,60.08854949442541L175.5703125,62.44401360393703L175.725,64.52223015249336L176.034375,66.3140762894948L176.34375,67.1203328551792L176.8078125,69.82587139999305L176.9625,71.62406311742467L177.1171875,73.57411829075923L177.27187500000002,77.25411569227205L177.7359375,84.54625002404485L177.890625,90.2676208125857L178.20000000000002,95.97192868697609L178.35468749999998,98.3283099218179L178.50937499999998,99.69632191876417L178.66406250000003,101.07016584982404L178.9734375,104.66118516806301L179.12812499999998,107.1645691252782L179.28281249999998,108.57201042486966L179.4375,108.8095137611714L179.5921875,108.61561488501948L179.746875,108.39601816148215L179.90156249999998,107.53912019578797L180.05624999999998,105.7666133804955L180.2109375,105.00706922970261L180.5203125,105.16644807353923L180.67499999999998,105.89675012221448L180.984375,104.88719664935093L181.29375,104.65830052215908L181.44843749999998,104.92061546177628L181.7578125,104.83530623225707L182.0671875,104.61698651140529L182.221875,103.0085954487176L182.3765625,102.57546403535031L182.53125,102.12803285015109L182.9953125,101.03478256070008L183.15,99.79995639723238L183.3046875,98.3230726074689L183.459375,95.95353700618364L183.76875,94.55666760979872L183.9234375,94.21650485102015L184.078125,93.45276938401932L184.2328125,93.7301535447885L184.38750000000002,93.99610051997458L184.8515625,90.06679948342392L185.16093750000002,88.0898721113147L185.315625,86.71843121208174L185.625,86.75416538282659L185.77968750000002,86.22509105159477L186.0890625,84.90465351660724L186.24375,83.31309139802183L186.3984375,82.61555548261948L186.55312500000002,81.51086677416404L186.8625,79.69055076804166L187.01718749999998,78.3153879802602L187.17187500000003,77.44917078478169L187.48125,79.34429931189419L187.63593749999998,80.73037460646496L187.79062499999998,80.2190074228178L187.9453125,79.06438531138012L188.2546875,77.94889335944721L188.40937499999998,76.11332393529956L188.71875,74.85306047108955L189.18281249999998,74.20655960053938L189.4921875,75.37938779271447L189.646875,76.3739087608156L189.8015625,77.98169403549372L189.95624999999998,79.73132880311238L190.265625,79.84943729246461L190.575,78.86395862502259L190.7296875,78.46585716209022L190.884375,78.43610576065413L191.0390625,77.68674075525736L191.19375,75.64631653644653L191.3484375,72.60221202439212L191.503125,71.4054812383531L191.6578125,72.01879584890858L191.8125,72.45337493981336L192.2765625,74.47330069993075L192.43125,76.52394671325098L192.5859375,76.15755950665857L193.2046875,75.36707086704651L193.359375,75.82532555105954L193.5140625,76.22684417146924L193.66875000000002,75.38607157827089L193.8234375,74.48100721759788L194.1328125,75.95960898872104L194.28750000000002,77.29662593328614L194.44218750000002,79.0782055066211L194.596875,80.78123800558198L194.7515625,80.85640239447103L195.525,84.45166526387725L195.67968749999997,87.38946781772528L195.83437500000002,88.43243804966203L195.9890625,87.26544653501081L196.14374999999998,86.39633962503633L196.29843749999998,85.35042916234116L196.6078125,85.68400425674695L196.7625,85.94112519759169L196.91718749999998,86.2847579592521L197.07187499999998,86.47679325738396L197.2265625,87.29587212743647L197.38125,87.94321876820781L197.5359375,88.50818531456306L197.69062499999998,90.96142853810608L197.8453125,92.85645663638878L198.1546875,95.28846966319125L198.309375,97.28525376720796L198.46406249999998,97.507566777599L198.61875,97.3602121482382L198.7734375,97.1254503859695L198.928125,96.6569817984055L199.0828125,94.73699906374482L199.3921875,94.69280036598322L199.7015625,95.64860547310474L199.85625,95.75511046327617L200.0109375,94.57443305178936L200.165625,94.41238982214189L200.3203125,94.36516744688545L200.6296875,93.57157017472795L200.9390625,92.4226702535322L201.09375,92.51511111847846L201.40312500000002,93.80732611882263L201.7125,96.29056627727195L201.8671875,97.19319362458488L202.021875,97.77779452369207L202.33125,97.41008524849241L202.79531250000002,94.25311005773969L202.95000000000002,91.59738158657423L203.4140625,90.95987060830706L203.56875000000002,90.77467516359829L203.72343750000002,89.51062307973697L204.18749999999997,85.6485113242836L204.34218750000002,83.55321842415701L204.65156249999998,85.33794824983741L204.80624999999998,85.77861588124892L204.9609375,86.20577679253137L205.115625,86.23517412744508L205.2703125,85.49607396950164L205.42499999999998,83.865069580794L205.57968749999998,82.29349506958926L205.734375,81.49931105222888L205.8890625,80.82070017551106L206.04375,79.14061073239573L206.353125,79.36822790931485L206.5078125,78.14467788680382L206.6625,77.88177771696584L207.1265625,76.78839824263821L207.28125,75.98471303188516L207.590625,77.14069708176022L207.74531249999998,78.30776589818863L207.9,79.43308847571868L208.0546875,79.83351341456047L208.3640625,79.77294125797424L208.51875,78.60575788822523L208.828125,78.36955569702052L208.9828125,78.29510563727199L209.1375,79.65747225767933L209.2921875,79.18296408043447L209.446875,79.09691232989445L209.6015625,79.04333745429311L209.75625,78.40061571266384L209.91093750000002,77.91347184526276L210.065625,78.27834685021318L210.2203125,79.38109369193916L210.375,79.8377383023556L210.5296875,78.61069263369123L210.68437500000002,75.79424752327087L210.8390625,76.22667395978166L211.1484375,76.48917546397374L211.303125,77.98627925322268L211.45781250000002,77.73049356457783L211.6125,77.80245577538322L211.921875,78.7600800016879L212.07656250000002,78.47602963685644L212.6953125,81.62420128192053L213.15937499999998,88.27690324672547L213.46875000000003,92.63560122707025L213.6234375,95.11268665762867L213.778125,96.10220627600583L213.93281249999998,97.38617075078712L214.08749999999998,98.58758345115126L214.396875,99.12351045159755L214.5515625,98.76538471951216L214.70624999999998,97.5707077526045L214.86093749999998,95.40793399584398L215.015625,93.77851442496323L215.325,94.3743999884259L215.47968749999998,94.90284449004083L215.634375,94.38065089143505L215.7890625,95.52396554428924L215.94375,95.12099224240308L216.0984375,96.26104742669997L216.25312499999998,96.20480390722382L216.4078125,95.25437213575825L216.5625,95.26516809575045L216.7171875,95.55120586042318L216.871875,97.28654784162336L217.18125,98.93602707229658L217.3359375,99.44532732715084L217.6453125,98.64147014834279L217.8,99.49414508110324L217.9546875,99.10138904761857L218.2640625,97.30241175065517L218.41875000000002,96.71002632733646L218.5734375,96.16614430042621L218.728125,96.8143913733446L218.8828125,97.39817794669516L219.0375,97.38287706854942L219.65625,95.43993976696687L219.96562500000002,94.77699906264773L220.4296875,96.53574643705943L220.58437500000002,96.42903109904033L220.73906250000002,96.2735785072839L220.89375,95.87674495138279L221.0484375,96.20474754054119L221.203125,96.78867786267782L221.51250000000002,100.07874166963754L221.6671875,100.76454206023033L221.82187499999998,102.20317419511504L221.97656250000003,101.62423570453909L222.13125,100.05251728104594L222.2859375,98.11854488668648L222.44062499999998,97.81147747460196L222.59531249999998,96.87946998261434L222.75,95.90875113456104L222.9046875,95.65662162015884L223.21406249999998,97.53723135701982L223.36874999999998,98.21750942992675L223.5234375,97.62606260953386L223.8328125,96.8322323790946L223.98749999999998,96.56896824795797L224.1421875,95.64470612301113L224.296875,93.40137029194815L224.4515625,91.56124876477028L224.60625,90.33929864974536L224.915625,89.66081605275615L225.0703125,88.46616601762395L225.225,87.94686722664646L225.3796875,87.53713708219094L225.534375,84.9763892290706L225.6890625,83.54872336972329L225.84375,82.64867633362614L226.153125,81.31784160113058L226.3078125,80.42871267613205L226.4625,80.68229196831936L226.6171875,81.13967758456687L226.771875,81.27752167431993L226.9265625,83.15808296000624L227.08125,84.51823200396815L227.2359375,84.68865036913675L227.390625,85.32807614096748L227.70000000000002,84.96649942215087L227.8546875,84.45572135697563L228.1640625,81.595911458103L228.7828125,79.17764399199095L228.9375,78.29486237838069L229.24687500000002,78.15329962409636L229.4015625,77.75480203263801L229.55625,77.3925287432826L229.86562500000002,78.91923887638455L230.175,79.861108491646L230.3296875,80.14588981929195L230.48437499999997,80.16208655099032L230.79375,79.5704984985786L230.94843749999998,80.75511116542263L231.10312499999998,82.57195030742096L231.2578125,84.32474460321693L231.5671875,87.11038955820898L231.72187499999998,89.47032498562129L231.87656249999998,91.66639181170197L232.03125,93.43343797564033L232.1859375,94.20883380421338L232.49531249999998,95.21189007116101L232.65,95.40598153405905L232.8046875,96.29035251150148L233.1140625,94.57984472858568L233.26874999999998,93.18959282894478L233.7328125,92.1568079288636L233.8875,90.43625315364514L234.04218749999998,88.05516155160197L234.196875,85.49945991747231L234.50625,82.84384296805274L234.6609375,81.5154282289561L234.815625,79.90062861403337L234.9703125,78.44564750174935L235.125,75.81018229372573L235.2796875,72.93277392808234L235.434375,70.919058287545L235.5890625,69.35616508486922L235.8984375,69.8792175647343L236.053125,70.53190558706774L236.20781250000002,69.87531314782115L236.3625,69.93808777094077L236.5171875,69.88041484407107L236.671875,71.30327845496835L236.8265625,71.1297764481393L237.1359375,71.27055646911273L237.290625,72.82171693128139L237.4453125,73.53121434419818L237.60000000000002,73.47230885950312L237.75468750000002,72.63097716349442L237.909375,70.24725754406235L238.37343750000002,68.09216487650599L238.6828125,66.19707101704938L238.8375,65.57217799400705L238.99218749999997,66.31884505310786L239.14687500000002,67.62158188771203L239.30156250000002,67.23572287875773L239.45624999999998,64.56065603482476L239.61093749999998,62.519704358005995L239.765625,61.09397109020121L239.9203125,59.8578376640014L240.075,58.88810729330441L240.5390625,58.85703100151933L240.69375,59.30652795356635L241.1578125,59.717217717039354L241.3125,61.008139609884246L241.4671875,62.87913370112133L241.621875,64.04746658451272L241.77656249999998,64.50931918615983L241.93125,64.54299736871904L242.240625,63.59493637509432L242.3953125,63.308029381285834L242.54999999999998,63.17942936185967L242.7046875,63.796055198246385L242.859375,63.159141310889034L243.0140625,62.92253005943616L243.16875,60.88579172115485L243.478125,57.69396472512729L243.6328125,56.186929586226974L243.7875,56.56612608396344L244.096875,57.2190618904881L244.2515625,57.134118780828366L244.40625,57.85605567816878L244.71562500000002,59.304874629398114L244.8703125,60.077664003084074" style="fill: none;" fill="none"></path></g></g></g></g><g opacity="0.2"><g><g><g><path stroke="rgb(0, 119, 187)" stroke-width="2px" d="M35.887499999999996,-0.8368267331804717L36.0421875,4.325696400233674L36.196875,5.711616788591649L36.3515625,7.016964639936183L36.660937499999996,7.063950129917693L37.125,7.456991331917905L37.2796875,4.080765587942935L37.589062500000004,0.8866010393415207L37.743750000000006,-0.14095646994452826L37.8984375,2.1728515625L38.053124999999994,4.849690709795262L38.207812499999996,3.424908774239682L38.3625,2.58026123046875L38.671875,7.033576284136083L38.8265625,9.45887633732388L39.290625,14.25479139600482L39.4453125,16.3567100252424L39.6,16.45801680428641L39.7546875,18.408733095441555L39.909375000000004,18.387877600533628L40.373437499999994,18.580972807747983L40.528124999999996,20.272329194205142L40.6828125,17.515584400721956L40.8375,13.828041894095279L40.9921875,17.68982478550503L41.146875,23.33426748003278L41.3015625,28.68527821132116L41.45625,32.911971637180876L41.6109375,40.51319326673236L41.765625,45.348879269191194L42.075,59.22851426260812L42.229687500000004,64.6440315246582L42.384375000000006,72.81871863773891L42.5390625,74.53614439283099L42.848437499999996,84.64293548039028L43.1578125,98.83855547223773L43.3125,100.30989851270404L43.621875,107.58070605141778L43.776562500000004,112.22232682364327L44.0859375,117.05880096980505L44.240625,117.84664154052734L44.3953125,119.69004903520856L44.550000000000004,122.46443612234935L44.7046875,125.66508769989014L44.859375,127.74836369923183L45.168749999999996,136.9113223893302L45.3234375,140.29658147266935L45.478125,141.5344217845372L45.6328125,143.56471027646745L45.9421875,148.9337876864842L46.40625,155.0629084450858L46.5609375,157.09807736533028L46.715625,158.45998968396867L46.8703125,156.48362840924943L47.1796875,157.39466190338135L47.334375,162.54812138421195L47.489062499999996,162.44984592710222L47.953125,162.69041163580758L48.1078125,167.50909192221505L48.571875000000006,175.22177525929044L49.035937499999996,177.89900847843717L49.190625,178.51036548614502L50.11875,178.61443076814925L50.2734375,177.3728619303022L50.428125,173.2455049242292L50.5828125,171.60431691578458L50.737500000000004,170.40436812809537L51.04687499999999,166.41927106039864L51.201562499999994,161.64900098528182L51.665625,162.93370553425382L52.1296875,154.0666948046003L52.284375,152.25820813860213L52.59375,151.92203453608923L52.903125,155.967424597059L53.057812500000004,156.09431573322843L53.212500000000006,156.60400220326017L53.36718750000001,155.05711862019132L53.521874999999994,152.71960565022061L53.676562499999996,152.19955205917358L53.9859375,151.29151957375663L54.140625,148.74326910291398L54.2953125,149.167320728302L54.45,146.64532150541032L54.759375,151.16578033992224L54.9140625,152.0630819456918L55.06875,152.23071404865811L55.378125000000004,149.46896757398332L55.5328125,147.75232996259416L55.6875,147.3227916445051L55.996874999999996,145.3251201765878L56.1515625,145.49635955265592L56.4609375,144.71173218318395L56.615625,143.2642456463405L56.925000000000004,141.07654060636247L57.0796875,139.0287917000907L57.234375,135.5520170075553L57.54375,133.96057299205236L57.6984375,132.00652224676952L58.1625,133.83986575262887L58.317187499999996,133.86147907802038L58.471875,132.78208596365795L58.6265625,129.70250538417272L58.9359375,125.49351487840924L59.090625,125.33879620688305L59.400000000000006,130.07259947913036L59.709375,129.69995907374792L59.864062499999996,129.37318256923132L60.01875,129.64669874736242L60.1734375,128.37499856948853L60.4828125,132.03459228788103L60.637499999999996,132.12810856955394L61.1015625,129.1542604991368L61.720312500000006,124.18337753840856L61.875,121.06481415884835L62.3390625,119.34102262769427L62.49375,118.02846023014614L62.803125,116.5949480874198L62.9578125,116.86661515917096L63.1125,117.40055220467706L63.2671875,117.55557400839669L63.421875,118.49188872746059L63.885937500000004,118.79356588636126L64.040625,121.71648774828229L64.1953125,121.44130434308734L64.35,121.34533269064767L64.8140625,122.67189979553223L64.96875,123.92607893262591L65.12343750000001,124.59254537309918L65.278125,124.31875637599401L65.4328125,121.95802348000664L65.58749999999999,120.64891678946358L65.896875,121.14205224173409L66.0515625,121.92861965724401L66.20625,121.4428200040545L66.515625,121.40207903725762L66.6703125,117.97959532056537L66.825,116.76712717328753L66.9796875,116.68018886021206L67.134375,117.47809341975622L67.2890625,117.30882440294538L67.44375000000001,114.33521883828301L67.753125,110.45209544045586L67.90781249999999,107.91718278612409L68.2171875,108.85877200535366L68.8359375,99.20067719050817L68.99062500000001,101.08124869210381L69.3,102.6920325415475L69.4546875,104.42837374550957L69.609375,104.31154659816198L69.7640625,104.30384704044887L69.91875,109.26515102386475L70.0734375,110.27045863015313L70.228125,110.9899125780378L70.53750000000001,111.05175154549737L71.0015625,111.15045138767788L71.15625,111.4527348109654L71.31093750000001,114.42470346178327L71.465625,113.25212751116071L71.77499999999999,112.39426340375628L72.084375,112.65623024531774L72.39375,115.8578518458775L72.703125,114.37699045453753L73.0125,112.75341442653112L73.1671875,112.35461371285577L73.32187499999999,112.37171036856515L73.4765625,112.60045392172677L73.63125,113.94714900425502L73.940625,111.73295021057129L74.0953125,112.0490564618792L74.40468750000001,109.5531872340611L74.559375,109.4068956375122L74.7140625,111.28825528281075L75.0234375,118.04670878819057L75.796875,117.05025264195034L76.10624999999999,112.74432046072823L76.2609375,112.93359620230538L76.5703125,111.94344520568848L76.725,110.91540268489294L76.87968749999999,109.07769407544818L77.034375,107.9975734438215L77.18906249999999,108.55588231767926L77.34375,108.22219439915249L77.4984375,108.44317776816231L77.653125,107.01263632093158L77.8078125,110.77571937016079L77.9625,111.30468504769463L78.58125,112.8510229928153L78.7359375,112.95736176627022L79.04531250000001,115.2042988368443L79.509375,114.56250735691616L79.6640625,115.63032082148962L79.9734375,116.64660181318011L80.12812500000001,118.0268839427403L80.2828125,117.56181853158135L80.43749999999999,117.52786772591729L80.5921875,116.61083221435547L80.9015625,118.30255235944476L81.05624999999999,116.11418042864118L81.2109375,115.83748136247907L81.365625,115.17738069806781L81.5203125,118.22998251233783L81.675,120.20094803401403L82.1390625,132.086124760764L82.29375,131.59996134894237L82.603125,128.7536713055202L82.9125,128.86076790945873L83.221875,124.61224896567211L83.53125,125.75014659336635L83.840625,125.34182752881732L83.99531250000001,128.19839375359672L84.15,129.47324650628227L84.3046875,129.0158200263977L84.45937500000001,129.37906333378385L84.6140625,131.5042625154768L84.76875000000001,130.37106343678067L84.92343749999999,130.65846306937084L85.078125,129.72984790802002L85.38749999999999,129.4531488418579L85.69687499999999,129.00181531906128L85.8515625,130.5796183858599L86.1609375,132.81197479793005L86.47031249999999,133.12871762684415L86.625,131.89848593303137L86.7796875,130.48749651227678L86.934375,129.15444237845287L87.0890625,127.51058680670604L87.24375,126.5955822808402L87.3984375,124.55077375684466L87.55312500000001,121.57249995640346L87.7078125,122.28164740971157L87.8625,118.3395951134818L88.0171875,115.23618834359307L88.32656250000001,115.9468514578683L88.48125,114.78627954210553L88.790625,113.45007283346993L89.10000000000001,117.86046436854772L89.25468749999999,118.4870992388044L89.409375,117.87822791508266L89.56406249999999,119.40746920449395L89.71875,119.32404722486224L90.02812499999999,119.82021399906704L90.1828125,120.05035196031842L90.4921875,117.66100338527136L90.646875,119.07517569405694L90.8015625,121.2985897064209L90.95625,122.64898300170898L91.1109375,122.30232102530343L91.4203125,123.9269883292062L91.575,125.61816283634731L91.7296875,124.37726088932583L91.884375,122.10231440407891L92.3484375,117.69349915640694L92.6578125,117.98887116568429L92.8125,117.41625445229668L93.121875,115.17046928405762L93.27656250000001,112.00613294328961L93.43125,113.08437415531704L93.740625,111.77484307970319L93.89531249999999,112.5190932410104L94.20468749999999,116.42010143824987L94.5140625,118.8947514125279L95.2875,110.03116607666016L95.4421875,112.04590388706752L95.90625,113.64777565002441L96.0609375,114.37699045453753L96.215625,114.85521180289132L96.3703125,111.7740549360003L96.525,109.23993042537145L96.6796875,109.28467273712158L96.9890625,112.41578578948975L97.2984375,106.62232330867224L97.60781250000001,109.38798018864223L97.91718750000001,107.87401676177979L98.38125,107.72530010768347L98.53593749999999,109.06823635101318L98.84531249999999,108.7387922831944L99,107.93064185551235L99.1546875,108.91060761043005L99.309375,105.83042076655798L99.4640625,105.58767250605993L99.7734375,105.77713012695312L99.928125,104.17604650769916L100.2375,106.94036960601807L100.3921875,106.15525722503662L100.546875,107.3765768323626L100.70156250000001,105.97592421940395L100.85625,103.90516757965088L101.0109375,102.6013353892735L101.3203125,95.99456923348565L101.47500000000001,97.18011924198696L101.78437500000001,98.56791904994421L101.9390625,98.16178253718786L102.09374999999999,96.93197522844586L102.24843750000001,94.74311828613281L102.40312499999999,93.15822192600795L102.5578125,94.04179164341518L102.71249999999999,89.5111778804234L102.8671875,87.06775052206856L103.021875,88.23044436318534L103.1765625,87.22556114196777L103.33125,86.69398852757045L103.48593749999999,87.37470218113491L103.640625,88.10603891100203L103.7953125,90.96251419612341L103.95,88.5582515171596L104.259375,88.81015436989921L104.4140625,91.30171912057061L104.878125,94.59955487932477L105.0328125,96.5379640034267L105.6515625,98.65031038011823L106.11562500000001,96.5849494934082L106.2703125,93.8459076200213L106.57968749999999,91.07127802712579L106.73437500000001,90.99955695016045L107.04374999999999,90.67957060677666L107.1984375,93.98595469338555L107.35312499999999,98.45006125313897L107.8171875,93.26662199837823L107.971875,94.26823139190674L108.28125,91.98328154427666L108.9,87.79981476919991L109.0546875,88.52999959673201L109.3640625,93.99335111890521L109.51875,94.0101446424212L109.6734375,94.53759465898786L109.828125,92.1438809803554L109.98281250000001,92.59300163814001L110.1375,93.0724961417062L110.29218750000001,91.7855181012835L110.6015625,93.31579004015241L110.75625000000001,91.47511073521206L110.91093749999999,92.78870378221784L111.065625,92.17607361929757L111.22031249999999,93.86967318398614L111.375,93.3501046044486L111.5296875,93.80862236022949L111.99374999999999,98.17251341683526L112.1484375,99.11628518785749L112.303125,99.29913452693395L113.23125,95.38994176047188L113.540625,94.52740941728864L113.6953125,94.94276114872524L113.85000000000001,96.78301606859479L114.0046875,96.65588242667062L114.159375,95.71859768458776L114.3140625,94.17935303279333L114.46875,92.96464170728412L114.62343750000001,94.84575884682793L114.778125,94.54668862479073L114.93281250000001,93.64553724016461L115.0875,94.45787089211602L115.24218749999999,94.31849070957729L115.396875,94.82684339795794L115.55156249999999,93.81377560751778L115.70625,93.28626496451241L115.86093749999999,91.42806461879186L116.015625,93.51894923618862L116.325,94.4561127253941L116.4796875,94.75663798195977L116.63437499999999,93.9412123816354L116.94375,92.05118315560479L117.253125,93.43298094613213L117.5625,91.08322143554688L117.7171875,89.59429672786169L118.18125,87.68595831734794L118.3359375,86.80172170911517L118.49062500000001,87.25332805088588L118.80000000000001,88.61032962799072L118.9546875,90.74086393628802L119.109375,90.11665412357875L119.41875,87.44314943041121L119.57343750000001,87.77271475110736L119.72812499999999,86.7314556666783L119.8828125,86.08966418675014L120.19218749999999,86.99505942208427L120.346875,86.29937103816442L120.50156249999999,83.02069323403495L120.65625,86.04346684047155L120.8109375,87.90821484157019L120.965625,88.34339141845703L121.1203125,89.21332018715997L121.27499999999999,90.27046339852471L121.4296875,95.3235558101109L121.584375,94.4556883403233L121.7390625,92.97870704105922L121.89375,91.87682151794434L122.0484375,91.47420133863177L122.5125,91.45686217716762L122.6671875,91.97024685995919L122.821875,89.76987089429583L123.13125000000001,88.82876668657576L123.2859375,85.43677806854248L123.44062500000001,86.12810134887695L123.5953125,84.46281433105469L123.90468750000001,87.239990234375L124.05937499999999,86.8910244532994L124.2140625,88.82755415780204L124.36874999999999,87.44605949946813L124.5234375,89.41205365317208L124.83281249999999,93.16404206412179L125.14218749999999,91.2584924697876L125.4515625,93.62104415893555L125.60625,92.63513701302666L125.7609375,92.1849250793457L126.225,99.24063001360211L126.84375,100.54846354893276L126.99843750000001,99.08451693398614L127.153125,99.9584470476423L127.3078125,101.66265623910088L127.4625,100.3164461680821L127.77187500000001,98.72870036533901L127.9265625,98.67080211639404L128.390625,95.7898337500436L128.5453125,93.88676983969552L128.8546875,93.69488716125488L129.1640625,94.829147202628L129.31875,96.1752360207694L129.7828125,98.47995008741107L129.9375,94.44174425942559L130.0921875,90.08973598480225L130.24687500000002,88.90891483851843L130.4015625,90.22353853498187L130.55625,92.26695265088763L130.7109375,91.26261506761823L130.865625,92.56511347634454L131.0203125,91.99577059064593L131.17499999999998,94.4292552130563L131.3296875,93.45335142953057L131.484375,92.47047560555596L131.6390625,89.30238042558942L131.79375,87.54069737025671L131.9484375,88.0757863180978L132.103125,86.89896651676723L132.5671875,85.4680006844657L132.721875,83.66982051304409L133.03125,84.68634401048934L133.340625,80.86881841932025L133.4953125,77.31265340532576L133.65,76.73118523189001L133.8046875,75.75115885053363L133.959375,75.39079529898507L134.11406250000002,74.46302890777588L134.26875,73.16531998770577L134.4234375,73.18647861480713L134.578125,70.64259324754988L134.88750000000002,64.54260349273682L135.04218749999998,60.76763766152518L135.196875,54.534633500235415L135.3515625,52.462239946637844L135.50625,51.77340235028949L135.81562499999998,53.67907319750104L135.9703125,54.52335698263986L136.125,54.24441473824637L136.2796875,56.993823732648586L136.434375,57.70630564008441L136.5890625,57.91801316397531L136.74375,57.72370542798724L136.8984375,57.325268472943996L137.053125,57.72406918661935L137.2078125,58.425153323582244L137.3625,57.76093006134033L137.5171875,57.292227063860224L137.671875,56.91361495426724L138.1359375,54.94646889822824L138.4453125,59.07858507973807L138.75468750000002,59.1092620577131L139.21875,56.62018299102783L139.3734375,56.248542921883725L139.528125,60.43964862823486L139.6828125,64.14392403193884L139.8375,68.05632999965124L139.9921875,69.96933664594378L140.146875,71.29062925066268L140.30156250000002,71.14512579781669L140.45625,70.24397441319057L140.6109375,69.497481073652L140.765625,67.90767397199359L140.9203125,64.689804485866L141.07500000000002,64.39115864889962L141.5390625,67.7160337993077L141.69375,65.53493704114642L141.84843750000002,65.17578601837158L142.1578125,66.8387086050851L142.3125,68.60390799386161L142.62187500000002,74.4976466042655L142.7765625,77.47476850237166L142.93125,78.88857705252511L143.0859375,77.50399044581823L143.24062500000002,77.40371431623187L143.39531250000002,76.44514969417028L143.85937500000003,70.09368147168841L144.0140625,68.37146622794015L144.16875,70.0937420981271L144.7875,76.53081485203334L144.9421875,73.79334926605225L145.25156249999998,74.8680135181972L145.40625,72.40367003849575L145.5609375,71.15579605102539L145.715625,69.61503573826381L146.025,68.03001812526159L146.334375,68.28931740352087L146.4890625,70.53522382463728L146.64374999999998,72.71904877253942L146.953125,71.47172042301723L147.1078125,69.11013875688826L147.2625,69.71373558044434L147.4171875,72.70043645586287L147.571875,77.14508192879813L147.7265625,76.77677631378174L147.88125,72.82417501722064L148.0359375,70.45677321297782L148.5,73.9509780066354L148.6546875,74.83084951128279L148.9640625,71.59903594425747L149.11875,72.56657327924457L149.2734375,71.37847696031844L149.428125,73.25674465724401L149.58281250000002,72.94075965881348L149.7375,74.88802024296352L150.046875,75.20455087934222L150.2015625,74.74366869245257L150.35625000000002,78.90779563358852L150.5109375,81.42524787357875L150.665625,80.8766998563494L150.8203125,83.05967603410994L150.97500000000002,84.28542137145996L151.12968750000002,82.4875443322318L151.59375,78.7132453918457L151.74843750000002,78.9309549331665L152.0578125,79.40281050545829L152.21249999999998,81.49642331259591L152.36718750000003,82.19332422528949L152.521875,84.51216425214496L152.83124999999998,81.4964839390346L153.140625,85.17432621547155L153.2953125,83.40142726898193L153.45,83.0597972869873L153.60468749999998,82.4875443322318L153.75937499999998,80.41278634752547L153.9140625,79.87897055489677L154.06875,78.16609178270613L154.2234375,75.42420046670097L154.5328125,72.5001267024449L154.6875,73.2572296687535L154.8421875,73.77637386322021L155.15156249999998,70.32157625470843L155.4609375,72.72486891065326L155.615625,71.97103977203369L155.7703125,72.55475112370083L155.925,74.03203555515834L156.0796875,75.49683094024658L156.234375,73.71889999934606L156.54375,74.14825643811908L156.6984375,72.2088166645595L156.853125,72.2379173551287L157.1625,73.75642776489258L157.3171875,73.10711860656738L157.6265625,65.34287248338971L158.09062500000002,66.16878645760673L158.4,64.40486022404262L158.5546875,65.67389283861432L158.709375,66.07633113861084L159.1734375,68.4563432421003L159.328125,70.03111498696464L159.63750000000002,70.05221298762731L159.7921875,71.38860157557897L160.1015625,73.70901788984027L160.25625000000002,74.99896662575858L160.41093750000002,73.25753280094692L160.7203125,73.20145334516253L160.87499999999997,75.08329800197058L161.33906249999998,77.24159921918597L161.49374999999998,79.51539380209786L161.803125,76.70323644365584L161.9578125,77.43045057569232L162.11249999999998,77.51156875065395L162.26718749999998,74.41167831420898L162.5765625,71.3901778629848L162.73125,71.4295244216919L162.88593749999998,70.07755483899798L163.040625,71.18156228746687L163.35,68.2912574495588L163.65937499999998,66.60760062081474L163.96875,68.33375658307757L164.1234375,68.1373269217355L164.278125,67.81667368752616L164.43281249999998,69.5727791104998L164.5875,70.12569223131453L165.20625,80.90610367911202L165.3609375,80.8810043334961L165.515625,81.25797952924457L165.6703125,81.51133741651263L165.825,81.81707654680525L166.134375,81.7420210157122L166.2890625,82.42261341639929L166.44375,85.45151029314314L166.59843750000002,86.89090320042202L166.753125,86.03309971945626L166.9078125,86.47191388266427L167.0625,86.1749655859811L167.2171875,82.61934620993478L167.37187500000002,80.9101050240653L167.5265625,80.2885627746582L167.8359375,71.8773719242641L167.99062500000002,71.92660059247699L168.14531250000002,70.73480606079102L168.3,69.2587947845459L168.4546875,64.57018852233887L168.609375,57.56371225629535L168.76406250000002,52.889292580740786L169.0734375,46.971182141985224L169.228125,44.18545791081021L169.38281249999997,41.10430104391916L169.53750000000002,38.16767760685513L169.69218750000002,39.91517407553537L169.84687499999998,41.23313222612653L170.15625,46.10852854592459L170.3109375,46.87090601239886L170.9296875,41.15219593048096L171.084375,39.127212251935696L171.39374999999998,33.597111020769404L171.5484375,35.10986191885812L171.703125,34.55252306801932L171.8578125,35.36588736942837L172.0125,37.090648923601435L172.16718749999998,38.981708799089716L172.321875,38.78533976418631L172.63125,38.84281362806048L172.7859375,37.52182415553503L172.94062499999998,39.17074203491211L173.0953125,41.779922076634L173.4046875,44.12452833993094L173.559375,45.49238204956055L173.7140625,45.29413359505789L173.86875,43.798479352678584L174.0234375,46.11222675868444L174.178125,51.34822913578579L174.9515625,57.53721850258963L175.10625000000002,57.50448022569928L175.2609375,59.443859372820185L175.415625,62.85603659493582L175.5703125,64.79947771344867L175.725,66.6004467010498L176.034375,68.10592242649624L176.34375,67.92658942086356L176.8078125,72.53140994480678L176.9625,73.42225483485632L177.1171875,75.52417346409389L177.27187500000002,80.93411309378487L177.7359375,91.83838435581752L177.890625,95.98899160112653L178.20000000000002,101.67623656136651L178.35468749999998,100.68469115665981L178.50937499999998,101.06433391571045L178.66406250000003,102.44400978088379L178.9734375,108.25220448630196L179.12812499999998,109.66795308249337L179.28281249999998,109.97945172446114L179.4375,109.04701709747314L179.5921875,108.42171600886755L179.746875,108.1764214379447L179.90156249999998,106.68222223009381L180.05624999999998,103.994106565203L180.2109375,104.24752507890973L180.5203125,105.32582691737585L180.67499999999998,106.62705217088971L180.984375,103.87764317648751L181.29375,104.42940439496722L181.44843749999998,105.18293040139336L181.7578125,104.74999700273786L182.0671875,104.39866679055352L182.221875,101.40020438602993L182.3765625,102.14233262198312L182.53125,101.68060166495187L182.9953125,99.94153227124896L183.15,98.56513023376465L183.3046875,96.84618881770544L183.459375,93.5840014048985L183.76875,93.15979821341378L183.9234375,93.87634209224157L184.078125,92.68903391701836L184.2328125,94.00753770555768L184.38750000000002,94.26204749516079L184.8515625,86.13749844687325L185.16093750000002,86.1129447392055L185.315625,85.34699031284877L185.625,86.78989955357143L185.77968750000002,85.69601672036308L186.0890625,83.5842159816197L186.24375,81.7215292794364L186.3984375,81.91801956721716L186.55312500000002,80.4061780657087L186.8625,77.8702347619193L187.01718749999998,76.94022519247872L187.17187500000003,76.58295358930316L187.48125,81.23942783900671L187.63593749999998,82.11644990103585L187.79062499999998,79.70764023917062L187.9453125,77.90976319994246L188.2546875,76.8334014075143L188.40937499999998,74.277754511152L188.71875,73.59279700687954L189.18281249999998,73.5600587299892L189.4921875,76.55221598488944L189.646875,77.36842972891671L189.8015625,79.58947931017195L189.95624999999998,81.48096357073103L190.265625,79.96754578181677L190.575,77.87847995758057L190.7296875,78.06775569915771L190.884375,78.40635435921806L191.0390625,76.9373757498605L191.19375,73.60589231763568L191.3484375,69.55810751233783L191.503125,70.2087504523141L191.6578125,72.63211045946395L191.8125,72.88795403071813L192.2765625,76.49322646004813L192.43125,78.57459272657123L192.5859375,75.79117230006628L193.2046875,74.57658222743444L193.359375,76.28358023507255L193.5140625,76.62836279187884L193.66875000000002,74.54529898507255L193.8234375,73.57594285692488L194.1328125,77.43821075984411L194.28750000000002,78.63364287785122L194.44218750000002,80.85978507995605L194.596875,82.48427050454276L194.7515625,80.93156678336007L195.525,88.04692813328334L195.67968749999997,90.3272703715733L195.83437500000002,89.47540828159877L195.9890625,86.09845502035958L196.14374999999998,85.52723271506173L196.29843749999998,84.304518699646L196.6078125,86.0175793511527L196.7625,86.19824613843646L196.91718749999998,86.62839072091239L197.07187499999998,86.66882855551583L197.2265625,88.11495099748885L197.38125,88.59056540897915L197.5359375,89.07315186091833L197.69062499999998,93.41467176164899L197.8453125,94.75148473467145L198.1546875,97.72048268999372L198.309375,99.28203787122455L198.46406249999998,97.72987978799004L198.61875,97.21285751887731L198.7734375,96.89068862370083L198.928125,96.1885132108416L199.0828125,92.81701632908413L199.3921875,94.64860166822162L199.7015625,96.60441058022637L199.85625,95.86161545344763L200.0109375,93.39375564030239L200.165625,94.25034659249444L200.3203125,94.31794507162911L200.6296875,92.77797290257045L200.9390625,91.27377033233643L201.09375,92.60755198342461L201.40312500000002,95.0995411191668L201.7125,98.77380643572126L201.8671875,98.09582097189767L202.021875,98.36239542279925L202.33125,97.04237597329278L202.79531250000002,91.09613486698696L202.95000000000002,88.94165311540877L203.4140625,90.32235963003976L203.56875000000002,90.58947971888952L203.72343750000002,88.24657099587577L204.18749999999997,81.78639956883022L204.34218750000002,81.45792552403041L204.65156249999998,87.12267807551794L204.80624999999998,86.21928351266044L204.9609375,86.63293770381384L205.115625,86.26457146235876L205.2703125,84.75697381155831L205.42499999999998,82.23406519208636L205.57968749999998,80.72192055838448L205.734375,80.70512703486853L205.8890625,80.14208929879325L206.04375,77.46052128928048L206.353125,79.59584508623396L206.5078125,76.92112786429269L206.6625,77.61887754712787L207.1265625,75.69501876831055L207.28125,75.18102782113212L207.590625,78.2966811316354L207.74531249999998,79.47483471461706L207.9,80.55841105324882L208.0546875,80.23393835340228L208.3640625,79.71236910138812L208.51875,77.43857451847622L208.828125,78.13335350581579L208.9828125,78.22065557752337L209.1375,81.01983887808663L209.2921875,78.70845590318953L209.446875,79.01086057935443L209.6015625,78.98976257869177L209.75625,77.75789397103446L209.91093750000002,77.42632797786169L210.065625,78.64322185516357L210.2203125,80.48384053366524L210.375,80.29438291277205L210.5296875,77.38364696502686L210.68437500000002,72.97780241285052L210.8390625,76.65910039629256L211.1484375,76.75167696816581L211.303125,79.48338304247176L211.45781250000002,77.47470787593298L211.6125,77.87441798618862L211.921875,79.71770422799247L212.07656250000002,78.19197927202498L212.6953125,84.77237292698452L213.15937499999998,94.92960521153041L213.46875000000003,96.99429920741491L213.6234375,97.58977208818708L213.778125,97.09172589438302L213.93281249999998,98.6701352255685L214.08749999999998,99.78899615151543L214.396875,99.65943745204382L214.5515625,98.40725898742676L214.70624999999998,96.37603078569684L214.86093749999998,93.24516023908343L215.015625,92.14909485408239L215.325,94.97028555188861L215.47968749999998,95.43128899165563L215.634375,93.85845729282924L215.7890625,96.66728019714355L215.94375,94.7180189405169L216.0984375,97.40110261099679L216.25312499999998,96.14856038774762L216.4078125,94.30394036429269L216.5625,95.27596405574255L216.7171875,95.83724362509591L216.871875,99.02188982282367L217.18125,100.58550630296979L217.3359375,99.95462758200509L217.6453125,97.83761296953473L217.8,100.3468200138637L217.9546875,98.708633014134L218.2640625,95.50343445369177L218.41875000000002,96.11764090401788L218.5734375,95.62226227351599L218.728125,97.4626384462629L218.8828125,97.98196452004571L219.0375,97.36757619040353L219.65625,93.49700246538434L219.96562500000002,94.11405835832868L220.4296875,98.29449381147113L220.58437500000002,96.3223157610212L220.73906250000002,96.11812591552734L220.89375,95.47991139548165L221.0484375,96.5327501296997L221.203125,97.37260818481445L221.51250000000002,103.36880547659737L221.6671875,101.45034245082311L221.82187499999998,103.64180632999965L221.97656250000003,101.0452972139631L222.13125,98.48079885755267L222.2859375,96.18457249232702L222.44062499999998,97.50441006251745L222.59531249999998,95.94746249062676L222.75,94.93803228650775L222.9046875,95.40449210575649L223.21406249999998,99.4178410938808L223.36874999999998,98.8977875028338L223.5234375,97.03461578914099L223.8328125,96.03840214865548L223.98749999999998,96.30570411682129L224.1421875,94.72044399806433L224.296875,91.15803446088519L224.4515625,89.72112723759243L224.60625,89.11734853472028L224.915625,88.98233345576696L225.0703125,87.27151598249164L225.225,87.42756843566895L225.3796875,87.12740693773543L225.534375,82.4156413759504L225.6890625,82.12105751037598L225.84375,81.74862929752895L226.153125,79.98700686863491L226.3078125,79.5395837511335L226.4625,80.93587126050677L226.6171875,81.59706320081439L226.771875,81.41536576407296L226.9265625,85.03864424569267L227.08125,85.87838104793005L227.2359375,84.85906873430525L227.390625,85.96750191279821L227.70000000000002,84.60492270333427L227.8546875,83.94494329180037L228.1640625,78.73610155923026L228.7828125,76.7593765258789L228.9375,77.41208076477051L229.24687500000002,78.01173686981201L229.4015625,77.35630444117956L229.55625,77.03025545392718L229.86562500000002,80.44594900948661L230.175,80.80297810690743L230.3296875,80.43067114693778L230.48437499999997,80.17828328268868L230.79375,78.97891044616699L230.94843749999998,81.93972383226668L231.10312499999998,84.3887894494193L231.2578125,86.07753889901298L231.5671875,89.89603451320104L231.72187499999998,91.83026041303363L231.87656249999998,93.86245863778252L232.03125,95.20048413957868L232.1859375,94.98422963278634L232.49531249999998,96.2149463381086L232.65,95.60007299695697L232.8046875,97.17472348894391L233.1140625,92.86933694566999L233.26874999999998,91.79934092930385L233.7328125,91.12402302878243L233.8875,88.7156983784267L234.04218749999998,85.6740699495588L234.196875,82.94375828334265L234.50625,80.18822601863317L234.6609375,80.18701348985945L234.815625,78.28582899911063L234.9703125,76.99066638946533L235.125,73.17471708570208L235.2796875,70.05536556243896L235.434375,68.90534264700753L235.5890625,67.79327188219344L235.8984375,70.40227004459926L236.053125,71.18459360940116L236.20781250000002,69.21872070857458L236.3625,70.00086239406042L236.5171875,69.82274191720145L236.671875,72.72614206586566L236.8265625,70.95627444131034L237.1359375,71.41133649008614L237.290625,74.37287739345007L237.4453125,74.24071175711495L237.60000000000002,73.41340337480818L237.75468750000002,71.78964546748571L237.909375,67.86353792463031L238.37343750000002,65.9370722089495L238.6828125,64.30197715759277L238.8375,64.94728497096472L238.99218749999997,67.06551211220878L239.14687500000002,68.9243187223162L239.30156250000002,66.8498638698033L239.45624999999998,61.885589190891814L239.61093749999998,60.478752681187224L239.765625,59.66823782239642L239.9203125,58.621704237801694L240.075,57.91837692260742L240.5390625,58.82595470973425L240.69375,59.756024905613494L241.1578125,60.127907480512356L241.3125,62.29906150272915L241.4671875,64.7501277923584L241.621875,65.21579946790423L241.77656249999998,64.97117178780692L241.93125,64.57667555127826L242.240625,62.64687538146973L242.3953125,63.02112238747733L242.54999999999998,63.05082934243338L242.7046875,64.4126810346331L242.859375,62.522227423531675L243.0140625,62.6859188079834L243.16875,58.849053382873535L243.478125,54.50213772909982L243.6328125,54.67989444732666L243.7875,56.94532258169992L244.096875,57.87199769701276L244.2515625,57.04917567116873L244.40625,58.577992575509214L244.71562500000002,60.75369358062744L244.8703125,60.85045337677002" style="fill: none;" fill="none"></path></g></g></g></g></g></g><g transform="translate(51, 178)" clip-path="url(#clip_1)"><clipPath id="clip_1"><rect width="278" height="22"></rect></clipPath><g><g><line x1="0" y1="0" x2="0" y2="5" style="visibility: inherit;" fill="rgb(0, 0, 0)" stroke="rgb(204, 204, 204)" stroke-width="1px"></line><line x1="30.9375" y1="0" x2="30.9375" y2="5" style="visibility: inherit;" fill="rgb(0, 0, 0)" stroke="rgb(204, 204, 204)" stroke-width="1px"></line><line x1="61.875" y1="0" x2="61.875" y2="5" style="visibility: inherit;" fill="rgb(0, 0, 0)" stroke="rgb(204, 204, 204)" stroke-width="1px"></line><line x1="92.8125" y1="0" x2="92.8125" y2="5" style="visibility: inherit;" fill="rgb(0, 0, 0)" stroke="rgb(204, 204, 204)" stroke-width="1px"></line><line x1="123.75" y1="0" x2="123.75" y2="5" style="visibility: inherit;" fill="rgb(0, 0, 0)" stroke="rgb(204, 204, 204)" stroke-width="1px"></line><line x1="154.6875" y1="0" x2="154.6875" y2="5" style="visibility: inherit;" fill="rgb(0, 0, 0)" stroke="rgb(204, 204, 204)" stroke-width="1px"></line><line x1="185.625" y1="0" x2="185.625" y2="5" style="visibility: inherit;" fill="rgb(0, 0, 0)" stroke="rgb(204, 204, 204)" stroke-width="1px"></line><line x1="216.5625" y1="0" x2="216.5625" y2="5" style="visibility: inherit;" fill="rgb(0, 0, 0)" stroke="rgb(204, 204, 204)" stroke-width="1px"></line><line x1="247.5" y1="0" x2="247.5" y2="5" style="visibility: inherit;" fill="rgb(0, 0, 0)" stroke="rgb(204, 204, 204)" stroke-width="1px"></line><line x1="278.4375" y1="0" x2="278.4375" y2="5" style="visibility: inherit;" fill="rgb(0, 0, 0)" stroke="rgb(204, 204, 204)" stroke-width="1px"></line></g><g transform="translate(0, 8)"><text x="0" y="0" dx="0em" dy="0.95em" style="text-anchor: middle; visibility: hidden; font-family: Roboto, sans-serif; font-size: 12px; font-weight: 200;" fill="rgb(50, 49, 63)" stroke="none" stroke-width="1px">-10M</text><text x="30.9375" y="0" dx="0em" dy="0.95em" style="text-anchor: middle; visibility: inherit; font-family: Roboto, sans-serif; font-size: 12px; font-weight: 200;" fill="rgb(50, 49, 63)" stroke="none" stroke-width="1px">0</text><text x="61.875" y="0" dx="0em" dy="0.95em" style="text-anchor: middle; visibility: inherit; font-family: Roboto, sans-serif; font-size: 12px; font-weight: 200;" fill="rgb(50, 49, 63)" stroke="none" stroke-width="1px">10M</text><text x="92.8125" y="0" dx="0em" dy="0.95em" style="text-anchor: middle; visibility: inherit; font-family: Roboto, sans-serif; font-size: 12px; font-weight: 200;" fill="rgb(50, 49, 63)" stroke="none" stroke-width="1px">20M</text><text x="123.75" y="0" dx="0em" dy="0.95em" style="text-anchor: middle; visibility: inherit; font-family: Roboto, sans-serif; font-size: 12px; font-weight: 200;" fill="rgb(50, 49, 63)" stroke="none" stroke-width="1px">30M</text><text x="154.6875" y="0" dx="0em" dy="0.95em" style="text-anchor: middle; visibility: inherit; font-family: Roboto, sans-serif; font-size: 12px; font-weight: 200;" fill="rgb(50, 49, 63)" stroke="none" stroke-width="1px">40M</text><text x="185.625" y="0" dx="0em" dy="0.95em" style="text-anchor: middle; visibility: inherit; font-family: Roboto, sans-serif; font-size: 12px; font-weight: 200;" fill="rgb(50, 49, 63)" stroke="none" stroke-width="1px">50M</text><text x="216.5625" y="0" dx="0em" dy="0.95em" style="text-anchor: middle; visibility: inherit; font-family: Roboto, sans-serif; font-size: 12px; font-weight: 200;" fill="rgb(50, 49, 63)" stroke="none" stroke-width="1px">60M</text><text x="247.5" y="0" dx="0em" dy="0.95em" style="text-anchor: middle; visibility: inherit; font-family: Roboto, sans-serif; font-size: 12px; font-weight: 200;" fill="rgb(50, 49, 63)" stroke="none" stroke-width="1px">70M</text><text x="278.4375" y="0" dx="0em" dy="0.95em" style="text-anchor: middle; visibility: hidden; font-family: Roboto, sans-serif; font-size: 12px; font-weight: 200;" fill="rgb(50, 49, 63)" stroke="none" stroke-width="1px">80M</text></g><line x1="0" y1="0" x2="278.4375" y2="0" fill="rgb(0, 0, 0)" stroke="rgb(204, 204, 204)" stroke-width="1px"></line></g></g></g></g></svg>