<svg viewBox="0 0 330 200" xmlns="http://www.w3.org/2000/svg"><g><g><g><g><g><line x1="72.34375" y1="178" x2="67.34375" y2="178" style="visibility: inherit;" fill="rgb(0, 0, 0)" stroke="rgb(204, 204, 204)" stroke-width="1px"></line><line x1="72.34375" y1="161.8181818181818" x2="67.34375" y2="161.8181818181818" style="visibility: inherit;" fill="rgb(0, 0, 0)" stroke="rgb(204, 204, 204)" stroke-width="1px"></line><line x1="72.34375" y1="145.63636363636363" x2="67.34375" y2="145.63636363636363" style="visibility: inherit;" fill="rgb(0, 0, 0)" stroke="rgb(204, 204, 204)" stroke-width="1px"></line><line x1="72.34375" y1="129.45454545454547" x2="67.34375" y2="129.45454545454547" style="visibility: inherit;" fill="rgb(0, 0, 0)" stroke="rgb(204, 204, 204)" stroke-width="1px"></line><line x1="72.34375" y1="113.27272727272727" x2="67.34375" y2="113.27272727272727" style="visibility: inherit;" fill="rgb(0, 0, 0)" stroke="rgb(204, 204, 204)" stroke-width="1px"></line><line x1="72.34375" y1="97.09090909090908" x2="67.34375" y2="97.09090909090908" style="visibility: inherit;" fill="rgb(0, 0, 0)" stroke="rgb(204, 204, 204)" stroke-width="1px"></line><line x1="72.34375" y1="80.90909090909092" x2="67.34375" y2="80.90909090909092" style="visibility: inherit;" fill="rgb(0, 0, 0)" stroke="rgb(204, 204, 204)" stroke-width="1px"></line><line x1="72.34375" y1="64.72727272727273" x2="67.34375" y2="64.72727272727273" style="visibility: inherit;" fill="rgb(0, 0, 0)" stroke="rgb(204, 204, 204)" stroke-width="1px"></line><line x1="72.34375" y1="48.54545454545454" x2="67.34375" y2="48.54545454545454" style="visibility: inherit;" fill="rgb(0, 0, 0)" stroke="rgb(204, 204, 204)" stroke-width="1px"></line><line x1="72.34375" y1="32.36363636363635" x2="67.34375" y2="32.36363636363635" style="visibility: inherit;" fill="rgb(0, 0, 0)" stroke="rgb(204, 204, 204)" stroke-width="1px"></line><line x1="72.34375" y1="16.181818181818187" x2="67.34375" y2="16.181818181818187" style="visibility: inherit;" fill="rgb(0, 0, 0)" stroke="rgb(204, 204, 204)" stroke-width="1px"></line><line x1="72.34375" y1="0" x2="67.34375" y2="0" style="visibility: inherit;" fill="rgb(0, 0, 0)" stroke="rgb(204, 204, 204)" stroke-width="1px"></line></g><g transform="translate(62.34375, 0)"><text x="0" y="178" dx="0em" dy="0.3em" style="text-anchor: end; visibility: hidden; font-family: Roboto, sans-serif; font-size: 12px; font-weight: 200;" fill="rgb(50, 49, 63)" stroke="none" stroke-width="1px">-200</text><text x="0" y="161.8181818181818" dx="0em" dy="0.3em" style="text-anchor: end; visibility: inherit; font-family: Roboto, sans-serif; font-size: 12px; font-weight: 200;" fill="rgb(50, 49, 63)" stroke="none" stroke-width="1px">0</text><text x="0" y="145.63636363636363" dx="0em" dy="0.3em" style="text-anchor: end; visibility: hidden; font-family: Roboto, sans-serif; font-size: 12px; font-weight: 200;" fill="rgb(50, 49, 63)" stroke="none" stroke-width="1px">200</text><text x="0" y="129.45454545454547" dx="0em" dy="0.3em" style="text-anchor: end; visibility: inherit; font-family: Roboto, sans-serif; font-size: 12px; font-weight: 200;" fill="rgb(50, 49, 63)" stroke="none" stroke-width="1px">400</text><text x="0" y="113.27272727272727" dx="0em" dy="0.3em" style="text-anchor: end; visibility: hidden; font-family: Roboto, sans-serif; font-size: 12px; font-weight: 200;" fill="rgb(50, 49, 63)" stroke="none" stroke-width="1px">600</text><text x="0" y="97.09090909090908" dx="0em" dy="0.3em" style="text-anchor: end; visibility: inherit; font-family: Roboto, sans-serif; font-size: 12px; font-weight: 200;" fill="rgb(50, 49, 63)" stroke="none" stroke-width="1px">800</text><text x="0" y="80.90909090909092" dx="0em" dy="0.3em" style="text-anchor: end; visibility: hidden; font-family: Roboto, sans-serif; font-size: 12px; font-weight: 200;" fill="rgb(50, 49, 63)" stroke="none" stroke-width="1px">1e+3</text><text x="0" y="64.72727272727273" dx="0em" dy="0.3em" style="text-anchor: end; visibility: inherit; font-family: Roboto, sans-serif; font-size: 12px; font-weight: 200;" fill="rgb(50, 49, 63)" stroke="none" stroke-width="1px">1.2e+3</text><text x="0" y="48.54545454545454" dx="0em" dy="0.3em" style="text-anchor: end; visibility: hidden; font-family: Roboto, sans-serif; font-size: 12px; font-weight: 200;" fill="rgb(50, 49, 63)" stroke="none" stroke-width="1px">1.4e+3</text><text x="0" y="32.36363636363635" dx="0em" dy="0.3em" style="text-anchor: end; visibility: inherit; font-family: Roboto, sans-serif; font-size: 12px; font-weight: 200;" fill="rgb(50, 49, 63)" stroke="none" stroke-width="1px">1.6e+3</text><text x="0" y="16.181818181818187" dx="0em" dy="0.3em" style="text-anchor: end; visibility: hidden; font-family: Roboto, sans-serif; font-size: 12px; font-weight: 200;" fill="rgb(50, 49, 63)" stroke="none" stroke-width="1px">1.8e+3</text><text x="0" y="0" dx="0em" dy="0.3em" style="text-anchor: end; visibility: hidden; font-family: Roboto, sans-serif; font-size: 12px; font-weight: 200;" fill="rgb(50, 49, 63)" stroke="none" stroke-width="1px">2e+3</text></g><line x1="72.34375" y1="0" x2="72.34375" y2="178" fill="rgb(0, 0, 0)" stroke="rgb(204, 204, 204)" stroke-width="1px"></line></g></g><g transform="translate(72, 0)" clip-path="url(#clip_0)"><clipPath id="clip_0"><rect width="257" height="178"></rect></clipPath><g><g><g><line x1="0" y1="0" x2="0" y2="178" fill="rgb(0, 0, 0)" stroke="rgb(60, 60, 60)" stroke-width="1px" opacity="0.25"></line><line x1="28.62847222222222" y1="0" x2="28.62847222222222" y2="178" fill="rgb(0, 0, 0)" stroke="rgb(60, 60, 60)" stroke-width="1px" opacity="0.25"></line><line x1="57.25694444444444" y1="0" x2="57.25694444444444" y2="178" fill="rgb(0, 0, 0)" stroke="rgb(60, 60, 60)" stroke-width="1px" opacity="0.25"></line><line x1="85.88541666666666" y1="0" x2="85.88541666666666" y2="178" fill="rgb(0, 0, 0)" stroke="rgb(60, 60, 60)" stroke-width="1px" opacity="0.25"></line><line x1="114.51388888888889" y1="0" x2="114.51388888888889" y2="178" fill="rgb(0, 0, 0)" stroke="rgb(60, 60, 60)" stroke-width="1px" opacity="0.25"></line><line x1="143.14236111111111" y1="0" x2="143.14236111111111" y2="178" fill="rgb(0, 0, 0)" stroke="rgb(60, 60, 60)" stroke-width="1px" opacity="0.25"></line><line x1="171.77083333333331" y1="0" x2="171.77083333333331" y2="178" fill="rgb(0, 0, 0)" stroke="rgb(60, 60, 60)" stroke-width="1px" opacity="0.25"></line><line x1="200.39930555555557" y1="0" x2="200.39930555555557" y2="178" fill="rgb(0, 0, 0)" stroke="rgb(60, 60, 60)" stroke-width="1px" opacity="0.25"></line><line x1="229.02777777777777" y1="0" x2="229.02777777777777" y2="178" fill="rgb(0, 0, 0)" stroke="rgb(60, 60, 60)" stroke-width="1px" opacity="0.25"></line><line x1="257.65625" y1="0" x2="257.65625" y2="178" fill="rgb(0, 0, 0)" stroke="rgb(60, 60, 60)" stroke-width="1px" opacity="0.25"></line></g><g><line x1="0" y1="178" x2="257.65625" y2="178" fill="rgb(0, 0, 0)" stroke="rgb(60, 60, 60)" stroke-width="1px" opacity="0.25"></line><line x1="0" y1="161.8181818181818" x2="257.65625" y2="161.8181818181818" fill="rgb(0, 0, 0)" stroke="rgb(60, 60, 60)" stroke-width="1px" opacity="0.25"></line><line x1="0" y1="145.63636363636363" x2="257.65625" y2="145.63636363636363" fill="rgb(0, 0, 0)" stroke="rgb(60, 60, 60)" stroke-width="1px" opacity="0.25"></line><line x1="0" y1="129.45454545454547" x2="257.65625" y2="129.45454545454547" fill="rgb(0, 0, 0)" stroke="rgb(60, 60, 60)" stroke-width="1px" opacity="0.25"></line><line x1="0" y1="113.27272727272727" x2="257.65625" y2="113.27272727272727" fill="rgb(0, 0, 0)" stroke="rgb(60, 60, 60)" stroke-width="1px" opacity="0.25"></line><line x1="0" y1="97.09090909090908" x2="257.65625" y2="97.09090909090908" fill="rgb(0, 0, 0)" stroke="rgb(60, 60, 60)" stroke-width="1px" opacity="0.25"></line><line x1="0" y1="80.90909090909092" x2="257.65625" y2="80.90909090909092" fill="rgb(0, 0, 0)" stroke="rgb(60, 60, 60)" stroke-width="1px" opacity="0.25"></line><line x1="0" y1="64.72727272727273" x2="257.65625" y2="64.72727272727273" fill="rgb(0, 0, 0)" stroke="rgb(60, 60, 60)" stroke-width="1px" opacity="0.25"></line><line x1="0" y1="48.54545454545454" x2="257.65625" y2="48.54545454545454" fill="rgb(0, 0, 0)" stroke="rgb(60, 60, 60)" stroke-width="1px" opacity="0.25"></line><line x1="0" y1="32.36363636363635" x2="257.65625" y2="32.36363636363635" fill="rgb(0, 0, 0)" stroke="rgb(60, 60, 60)" stroke-width="1px" opacity="0.25"></line><line x1="0" y1="16.181818181818187" x2="257.65625" y2="16.181818181818187" fill="rgb(0, 0, 0)" stroke="rgb(60, 60, 60)" stroke-width="1px" opacity="0.25"></line><line x1="0" y1="0" x2="257.65625" y2="0" fill="rgb(0, 0, 0)" stroke="rgb(60, 60, 60)" stroke-width="1px" opacity="0.25"></line></g></g></g><g><g><line x1="0" y1="161.8181818181818" x2="257.65625" y2="161.8181818181818" fill="rgb(0, 0, 0)" stroke="rgb(153, 153, 153)" stroke-width="1.5px"></line></g></g><g><g><line x1="28.62847222222222" y1="0" x2="28.62847222222222" y2="178" fill="rgb(0, 0, 0)" stroke="rgb(153, 153, 153)" stroke-width="1.5px"></line></g></g><g><g><g><g><g><path stroke="rgb(0, 119, 187)" stroke-width="2px" d="M28.914756944444445,161.83681645210493L29.201041666666665,161.81001218413314L29.48732638888889,161.78168669880404L29.630468750000002,161.7757265987694L29.916753472222222,161.6797491781597L30.203038194444446,161.63746688632932L30.346180555555556,161.52823099380413L30.489322916666666,161.55678287659615L30.63246527777778,161.42790119646796L30.77560763888889,161.28641759926126L30.91875,161.07052468292858L31.06189236111111,160.82294873460643L31.205034722222223,160.48488804543342L31.348177083333336,160.2662412116168L31.491319444444443,159.96483700246256L31.634461805555556,159.83465881299597L31.92074652777778,159.94316022399144L32.20703125,159.71713623373037L32.35017361111111,159.45547871523294L32.63645833333334,159.22324704747842L33.06588541666667,158.91213128498904L33.20902777777778,159.06619938089847L33.35217013888889,159.09359268784985L33.495312500000004,159.50249070648877L33.638454861111114,159.7477571320161L33.92473958333333,159.79602997188843L34.354166666666664,160.08702126901133L34.49730902777778,160.527688346507L34.78359375,160.17529767889346L34.92673611111111,160.07427429052728L35.06987847222222,160.02982999119436L35.21302083333333,160.42991064780244L35.35616319444444,160.86138613366603L35.49930555555556,160.89716381166167L35.78559027777778,160.46537087312424L35.92873263888889,159.86715229793148L36.35815972222222,159.3713271040236L36.501302083333336,159.07417179557152L36.644444444444446,159.07898480726786L36.787586805555556,159.1199768667188L36.930729166666666,159.10425818932976L37.360156249999996,159.01433280886218L37.50329861111111,159.12646227113726L37.64644097222222,159.04653897921042L37.78958333333333,159.21816955667452L37.93272569444444,158.61810603972586L38.07586805555556,158.2749792890474L38.21901041666667,157.90068762835216L38.36215277777777,157.41617487025073L38.50529513888889,157.04978292587575L38.6484375,156.4904848668408L38.93472222222222,155.61396400698996L39.07786458333334,155.0637782646755L39.22100694444445,154.74594472426782L39.36414930555556,154.33751854493974L39.65043402777778,153.43685683786072L39.93671875,151.08295338508358L40.079861111111114,150.14422026443012L40.366145833333334,147.66034869922055L40.50928819444445,146.3227407808292L40.795572916666664,143.22549865579546L40.938715277777774,141.16810316534446L41.08185763888889,138.09366937774945L41.225,137.7868321503671L41.36814236111111,135.4897189260802L41.51128472222222,132.20811837972155L41.79756944444444,131.99267539802395L41.94071180555555,130.4174519374042L42.08385416666667,128.86720140760036L42.22699652777778,124.19540143511232L42.51328125,122.47424189686637L42.94270833333333,119.11004206326805L43.085850694444446,114.33000643868303L43.228993055555556,111.51442577127688L43.372135416666666,112.30793407149604L43.65842013888889,110.99164414867415L43.8015625,109.76823432242834L43.944704861111106,110.0182354251524L44.37413194444444,107.46798656467138L44.51727430555555,101.08588811876146L44.94670138888889,91.05491205476424L45.37612847222222,83.83609821710158L45.51927083333333,81.63333860939419L45.66241319444445,81.83144008994213L45.80555555555556,80.34863020122107L45.94869791666667,83.25851465227957L46.378125,82.10998811116286L46.52126736111111,77.20444895614962L46.664409722222224,75.61111130779783L46.807552083333334,74.47114181334493L46.950694444444444,77.51926603051835L47.236979166666664,79.56439028954007L47.380121527777774,84.04811977190073L47.80954861111111,82.99968971327635L48.23897569444445,82.57317152234307L48.38211805555555,77.93362366955222L48.66840277777778,71.62669181746433L48.9546875,70.21194171173289L49.097829861111116,70.32596380908022L49.240972222222226,70.579509281582L49.384114583333336,68.86907676215108L49.52725694444444,71.0080944002517L49.670399305555556,72.54113171717128L49.956684027777776,68.04020880292158L50.09982638888889,66.42798792418806L50.24296875,65.66630242267642L50.38611111111111,72.68998717658147L50.67239583333333,72.30035852303861L50.81553819444444,65.94057171757399L50.95868055555555,61.14608664003699L51.24496527777778,65.61203279977703L51.38810763888889,67.7197311104709L51.53125,63.2325075452035L51.81753472222222,64.50502391420332L51.96067708333333,63.76364482508814L52.24696180555556,61.082631350310415L52.39010416666667,64.21639141423546L52.676388888888894,63.859769415391874L52.81953125,68.50784568958512L52.96267361111111,68.12179471535366L53.248958333333334,61.38831318464771L53.392100694444444,59.78705875851705L53.82152777777778,56.83660727121518L53.964670138888884,54.21530109432563L54.1078125,58.602269743274306L54.25095486111111,64.66334589791556L54.53723958333333,62.521805894625395L54.68038194444445,59.35401191171254L54.96666666666667,58.749093191740506L55.25295138888889,56.102354157571256L55.39609375,51.64896233491133L55.53923611111111,54.2841600670473L55.682378472222226,54.917221801545665L55.968663194444446,51.33572610185593L56.11180555555555,48.73792686040951L56.541232638888886,52.89502788332977L57.11380208333333,59.3392026179788L57.25694444444444,63.800743776141395L57.68637152777778,62.81589157468291L57.82951388888889,62.19629439795936L58.11579861111111,57.8012978337453L58.25894097222223,51.46246793098842L58.40208333333333,46.344538464340076L58.54522569444444,58.41680553144206L58.68836805555556,52.640503151907104L59.11779513888889,50.28378700963609L59.260937500000004,47.362308155475L59.404079861111114,46.9407399264591L59.54722222222222,48.24184074403564L59.976649305555554,47.73308101654907L60.119791666666664,48.69818446246489L60.26293402777778,47.70908357533756L60.40607638888889,45.90963206421353L60.549218749999994,44.79997921791997L60.69236111111111,44.584562085433724L60.97864583333333,49.711840590834754L61.12178819444444,54.1274654281411L61.26493055555556,51.08596476973462L61.55121527777778,54.71525783097882L61.69435763888889,50.57955035769467L61.8375,47.638180663133554L61.98064236111111,46.2583259494645L62.12378472222222,47.178940862250016L62.266927083333336,45.97386623856463L62.410069444444446,53.074611175479056L62.69635416666667,50.27466692696183L62.839496527777776,51.721411832621556L63.125781249999996,47.818862321672995L63.69835069444445,55.55255488464687L63.84149305555556,54.386933736712635L64.12777777777778,53.627969098913844L64.27092013888888,52.37679799272753L64.4140625,56.46843367542982L64.5572048611111,60.250359915218446L64.70034722222222,61.96701095681021L64.84348958333332,66.96291499101164L64.98663194444445,64.42023163213578L65.27291666666667,59.274517837996164L65.70234375,55.012026874431335L65.8454861111111,53.44431538368228L65.98862847222223,53.967696521297825L66.13177083333333,57.832389797847064L66.41805555555555,51.73816350465862L66.70434027777777,46.46812938194579L66.99062500000001,45.278206758622034L67.27690972222223,44.368394317254904L67.56319444444445,46.51236671429152L67.70633680555555,48.827204253363796L67.84947916666665,46.90030961292125L67.99262152777779,45.40199512739457L68.13576388888889,48.04019001309358L68.42204861111111,44.06940625255176L68.56519097222223,43.26882094632205L68.85147569444445,52.73660280048703L68.99461805555556,49.3817426733259L69.13776041666667,43.45479273447901L69.42404513888889,41.996738463741636L70.13975694444444,37.2395457677373L70.42604166666666,33.76614828337151L70.56918402777778,33.423101718479074L70.85546875,34.69255433269478L70.99861111111112,41.33506212284596L71.14175347222222,42.69264092470424L71.28489583333334,46.376933421780386L71.42803819444444,43.614525726337625L71.57118055555556,45.732679566826484L71.71432291666666,49.517307412585836L71.85746527777778,52.476239599403705L72.0006076388889,55.491753721931964L72.14375000000001,47.62745878124297L72.71631944444444,47.0177198691371L72.85946180555555,48.16472513565166L73.14574652777779,51.46263300905453L73.57517361111111,46.32862585289373L73.71831597222221,51.71753308580411L74.00460069444445,50.09961709554765L74.14774305555557,48.254589154130365L74.29088541666667,48.30235711035709L74.43402777777777,49.11841832346689L74.57717013888889,48.6339303975289L74.86345486111111,47.96336307030209L75.00659722222223,46.77213885493089L75.14973958333334,53.68475606187595L75.29288194444445,49.631615590863404L75.43602430555556,45.73340534070868L75.57916666666667,44.999250166803215L76.00859375,46.967143560408L76.15173611111112,44.04624389934462L76.43802083333334,46.40371648758068L76.72430555555555,46.108726086031126L77.01059027777778,42.971678494897674L77.296875,44.329121551692445L77.58315972222222,61.074727290849765L77.72630208333334,57.725321908475316L77.86944444444444,51.5450929832682L78.01258680555556,56.52552700477331L78.15572916666667,49.10696310954219L78.29887152777778,45.64382573756585L78.4420138888889,44.989453151986055L78.58515625,41.53186430459743L78.72829861111111,43.621100942249015L79.01458333333333,42.13594719964013L79.30086805555555,40.027446699962105L79.44401041666667,36.53245204316287L79.73029513888889,39.33737997444009L80.0165798611111,40.05774138991891L80.15972222222223,37.8477745035532L80.30286458333333,42.37217538210329L80.44600694444445,40.47107864675123L80.58914930555555,40.30311733740262L80.73229166666667,37.83886668539164L80.87543402777777,39.20595578143871L81.0185763888889,40.45441704421724L81.16171875,39.48666847194882L81.30486111111111,38.76039284082171L81.44800347222223,39.425596533603326L81.73428819444445,40.959444551425236L81.87743055555555,36.55226577713307L82.16371527777778,39.561618894869795L82.45,40.03289712721118L82.5931423611111,42.14919853031369L82.73628472222222,36.95449478406665L82.87942708333333,42.05877576783234L83.02256944444444,40.30403804149785L83.30885416666666,39.10444022991086L83.45199652777778,35.67978614389721L83.73828125,39.5560629494344L83.8814236111111,40.83059767011848L84.02456597222222,35.32570749317358L84.16770833333334,34.06161140372457L84.31085069444445,34.286007617256466L84.59713541666666,36.28978659005578L84.74027777777778,34.27392599877434L84.88342013888888,33.85393476785308L85.0265625,35.21058488215097L85.45598958333333,41.99445986605774L85.74227430555555,41.73001657631722L85.88541666666666,49.28888451995903L86.17170138888889,41.47684676770324L86.31484375000001,39.06991275263713L86.45798611111111,36.232886063818576L86.74427083333333,35.92126281173882L86.88741319444443,34.16661268472241L87.17369791666667,40.33771191542583L87.45998263888889,42.44001163065326L88.17569444444445,44.45894957420447L88.31883680555556,39.13141054482596L88.74826388888889,40.824341747022366L88.89140624999999,36.67113022409713L89.0345486111111,42.18558880478649L89.17769097222222,47.45661475928245L89.32083333333334,43.462757619342916L89.46397569444444,45.64629175134405L89.75026041666666,46.80357029195397L90.03654513888888,52.687922952262504L90.32282986111112,49.2750664898919L90.60911458333334,49.582061776107174L91.03854166666666,44.01517212340515L91.18168402777778,44.821762031606696L91.46796875,45.4229099353701L91.61111111111111,48.160598644442885L91.75425347222222,48.2382901558507L91.89739583333333,43.62914962781881L92.04053819444444,40.343067744928575L92.32682291666667,44.929700875749106L92.46996527777777,45.05638319710751L92.75625,39.1486294980566L92.89939236111111,32.99185092623001L93.04253472222221,31.816968498448812L93.18567708333335,36.47654899087925L93.32881944444445,41.36987444883096L93.47196180555555,47.486053834855824L93.75824652777777,44.55240657829438L93.90138888888889,46.382588898167086L94.18767361111112,44.026664377616925L94.33081597222223,42.976781840353226L94.47395833333333,42.05181366076609L94.61710069444445,43.49546854247466L94.76024305555555,44.53238415138647L94.90338541666667,46.79605657764637L95.04652777777777,52.84208302071238L95.1896701388889,50.6854576258569L95.3328125,43.94325177324449L95.47595486111112,43.646620226998685L95.61909722222222,43.746093483083854L95.76223958333333,42.87387931655969L95.90538194444444,43.3714070433118L96.04852430555555,41.44638106737677L96.19166666666668,42.99033136953711L96.4779513888889,41.703203737414164L96.62109375,39.57825886222626L97.05052083333332,39.338116913357446L97.19366319444445,38.80128313263752L97.76623263888888,41.320694056553144L98.19565972222223,38.64514805366721L98.33880208333333,41.8089901534316L98.62508680555555,38.714346983232126L98.76822916666667,38.28636000395626L99.05451388888888,43.52257453322814L99.19765625000001,39.895570602906666L99.34079861111111,37.67043672412734L99.77022569444445,38.480670577084986L99.91336805555555,40.81365499069092L100.19965277777779,41.13510547164164L100.77222222222223,39.82781269009994L100.91536458333333,39.80883648753933L101.20164930555556,37.62178568650759L101.34479166666667,35.90503213657766L101.48793402777778,36.641291370135406L101.63107638888889,35.65950238561812L101.77421875,41.93134665179344L101.9173611111111,46.99479552937684L102.06050347222222,46.79398628785958L102.34678819444444,44.62038004023659L102.48993055555556,43.13682409771062L102.63307291666666,43.09367222508047L102.77621527777778,39.954370347714246L102.91935763888888,40.636598570519055L103.0625,41.15411366070341L103.20564236111112,42.19199651652003L103.63506944444444,41.64253695454907L103.77821180555556,37.931911565875396L103.92135416666666,38.21995891237661L104.78020833333333,33.19258105198021L105.06649305555555,39.3679329265583L105.20963541666667,37.815578179809684L105.35277777777779,37.214359801907676L105.49592013888889,41.20707320040341L105.6390625,44.82961670052131L105.78220486111111,41.36002951947229L105.92534722222221,37.49866610472905L106.06848958333333,38.16756425353639L106.21163194444445,38.39026949803951L106.35477430555557,34.00879225301477L106.49791666666667,34.64033595694062L106.64105902777777,36.820957662419175L106.78420138888889,32.39655149633743L106.92734374999999,33.15870565761473L107.07048611111111,36.41949254382866L107.21362847222223,37.34690924687883L107.35677083333334,37.44975633686272L107.64305555555556,39.035316789258765L107.78619791666667,36.432655953223126L107.92934027777777,38.28341709903699L108.215625,37.070924081301165L108.50190972222222,38.957940789318926L108.78819444444444,43.228697234591976L108.93133680555555,43.903662415680216L109.3607638888889,47.8418662198252L109.50390625,47.947372596329515L109.64704861111112,47.68456847811859L109.93333333333334,46.632652669457L110.07647569444444,41.394950102928085L110.21961805555556,42.88337099207128L110.50590277777778,42.63410925757683L110.6490451388889,46.985532855883584L110.7921875,47.719523075225176L110.93532986111111,50.855634784239015L111.22161458333333,51.08115479446325L111.36475694444445,48.49980108553064L111.50789930555555,51.07082960881644L111.65104166666667,49.00067093011846L111.79418402777777,46.27853531635539L111.93732638888889,47.212087648855956L112.08046875,41.60457332105439L112.2236111111111,38.392749695417116L112.36675347222223,40.34123291322702L112.50989583333333,47.05264215796293L112.65303819444445,46.722454723779066L112.79618055555555,42.278132324602595L112.93932291666667,41.76156083559675L113.36875,41.84400784588787L113.51189236111111,48.26088154190698L113.65503472222223,46.38615932120207L113.94131944444445,47.3506458005158L114.08446180555555,51.3645777719731L114.22760416666667,46.914579535400605L114.37074652777778,48.174829385065365L114.65703125,48.415510173711674L114.8001736111111,44.47696878758382L114.94331597222222,41.14530041163636L115.08645833333333,42.316400483250696L115.22960069444444,42.08753612363884L115.51588541666666,42.44559051609855L115.80217013888888,42.56024204649033L116.0884548611111,47.6664847150953L116.23159722222222,55.863306499948216L116.37473958333334,61.205502071440726L116.80416666666666,54.05018484031909L117.37673611111111,52.329780974403164L117.51987847222223,49.501731085568075L117.66302083333333,48.368147203384176L117.80616319444444,46.133355883741096L117.94930555555555,46.61149994116032L118.23559027777777,38.85023622102404L118.37873263888889,38.73370919715975L118.80815972222223,47.307483704581294L118.95130208333333,51.71691484811805L119.23758680555555,43.510293638991556L119.52387152777779,39.07141080209521L119.66701388888889,44.29269215087005L120.09644097222221,48.61988555963247L120.23958333333333,48.856083915292075L120.38272569444445,44.456523458445055L120.52586805555556,42.140579622510884L120.66901041666667,42.155142605555874L120.81215277777778,38.057882804020814L120.95529513888889,33.71052903739748L121.09843749999999,32.90802519430243L121.2415798611111,36.247618720642L121.38472222222222,34.529223844518434L121.52786458333334,38.14059936011432L121.67100694444444,39.01028686267435L121.81414930555556,38.606913617327955L121.95729166666666,38.521686900105735L122.10043402777778,38.081742941796485L122.24357638888888,33.67743663425052L122.67300347222222,37.346624700292864L122.81614583333334,33.913490739262194L123.10243055555556,34.82576797483352L123.38871527777778,37.956968349099995L123.5318576388889,38.28426536906349L123.675,37.405483403636865L123.81814236111111,44.02959828029853L123.96128472222222,42.47602872111518L124.10442708333333,37.99537647659097L124.24756944444444,37.20534975951354L124.39071180555555,39.93671918018291L124.53385416666667,40.582582612552386L124.82013888888889,42.56160746838557L124.96328125,46.648811158287245L125.10642361111111,55.2096047202125L125.24956597222221,62.984746818114075L125.39270833333335,58.910698382423504L125.67899305555555,48.53533654028845L125.82213541666667,46.128673519167656L125.96527777777777,46.406115656956L126.10842013888889,41.52445825239489L126.25156249999999,37.07390481866904L126.39470486111112,37.253999472988625L126.53784722222223,40.77602633672514L126.68098958333333,43.816681436739685L126.82413194444445,43.894117030070845L126.96727430555555,42.89864637236852L127.11041666666667,43.721496148719766L127.25355902777777,47.684471607296686L127.3967013888889,50.178480698889814L127.82612847222222,46.41642535255216L128.11241319444446,46.69470842600975L128.39869791666666,44.811665902901886L128.828125,42.28219508967892L128.9712673611111,39.327662652705236L129.1144097222222,36.03535920277307L129.25755208333334,37.63651438476721L129.40069444444444,39.745889361240145L129.54383680555554,39.40807529585445L129.68697916666665,35.793514576638174L129.8301215277778,36.87881816811312L129.9732638888889,36.31273788599192L130.11640625,37.21979817550662L130.25954861111111,34.05690825412404L130.40269097222222,40.02295208515861L130.54583333333335,41.608400813974896L130.97526041666666,36.506929510769396L131.11840277777776,38.059382058296634L131.2615451388889,38.89389013692531L131.5478298611111,37.69429076049035L131.6909722222222,41.24264742214858L131.97725694444446,35.550655930978415L132.12039930555557,29.736135072200852L132.26354166666667,31.9991502442858L132.40668402777777,30.161787036205396L132.5498263888889,34.43508485776889L132.69296875,35.75020328426442L133.12239583333334,40.513839601560484L133.26553819444445,39.94661423659345L133.40868055555555,36.80398815966746L133.98125000000002,35.98124717598075L134.12439236111112,34.989562353082704L134.41067708333333,33.3949632277665L134.55381944444446,32.13627345070853L134.69696180555556,35.034009861007675L134.84010416666666,36.8687419355642L135.1263888888889,36.49377981455057L135.4126736111111,36.91650954727883L135.5558159722222,33.70362331501015L135.6989583333333,32.30642086604555L135.98524305555557,29.79067375644252L136.12838541666667,29.404651952795138L136.27152777777778,27.144592544668157L136.4146701388889,28.590364787071294L136.5578125,29.13678079330482L136.70095486111111,28.423005542248998L136.84409722222222,27.164073405446242L136.98723958333332,29.378321881167732L137.41666666666666,29.922791145218092L137.55980902777776,27.760271526976943L137.84609375,29.784041292163902L137.98923611111113,34.0648776462595L138.13237847222223,35.523785869028195L138.27552083333333,31.387385821144058L138.41866319444446,36.538988820106844L138.56180555555557,38.75752413972316L138.84809027777777,40.70304335315348L138.99123263888887,45.65342996848014L139.134375,41.12408070689632L139.2775173611111,39.59797807539418L139.4206597222222,37.8949462354066L139.56380208333331,37.16758902901367L139.70694444444445,43.90814737539108L139.85008680555555,48.322536045650075L140.27951388888889,50.59588877255871L140.42265625000002,44.195654180757344L140.70894097222222,40.93406000053493L140.85208333333333,42.94396459277456L140.99522569444446,43.01065489271185L141.13836805555556,40.52678113731828L141.42465277777777,41.04799972171313L141.7109375,43.786815357127864L141.8540798611111,41.92243239225358L141.99722222222223,43.468797872263146L142.14036458333334,38.15789253298881L142.28350694444444,36.36801997476856L142.42664930555557,41.30153578860943L142.56979166666667,41.2401858408601L142.71293402777778,46.154590157202065L142.99921875,45.926295933093236L143.14236111111111,41.34556107467871L143.28550347222222,38.42877535489972L143.57178819444442,43.298990449555674L143.85807291666666,42.59878183477429L144.0012152777778,38.968649451211704L144.1443576388889,37.37542152736367L144.28750000000002,44.46006611036152L144.43064236111113,39.16121835791514L144.57378472222223,38.60081841857049L144.86006944444443,34.455540212925165L145.00321180555557,34.117286042187004L145.14635416666667,35.1158246950104L145.43263888888887,33.30721454920973L145.57578124999998,36.05794210237475L145.8620659722222,34.76080709966038L146.29149305555558,34.677250140739275L146.57777777777778,38.332030443682854L146.72092013888889,34.64049614558078L146.8640625,30.56047462419309L147.29348958333333,31.597606863321694L147.43663194444443,31.25386696370985L147.72291666666666,33.077000676013306L147.86605902777777,35.512546358514456L148.15234375,36.280267319882235L148.29548611111113,34.03031071738073L148.43862847222223,38.628327133814665L148.72491319444444,35.926176728306466L148.86805555555554,30.318895193432358L149.29748263888888,27.63928474382201L149.44062499999998,28.246759459535287L149.72690972222222,28.066592897825167L149.87005208333332,35.94069701709441L150.01319444444445,35.723716151036555L150.15633680555555,34.148708938888305L150.4426215277778,34.17458268544203L150.5857638888889,34.2628829398446L150.72890625,33.47336918210269L150.87204861111113,29.884806927699078L151.15833333333333,38.35951117425437L151.44461805555554,38.05235906946027L151.73090277777777,37.463728751260696L151.87404513888887,30.537979265989L152.0171875,31.772113301318356L152.1603298611111,32.78335534561658L152.30347222222224,35.444227832609414L152.87604166666668,28.85557322250146L153.01918402777778,31.003814387795476L153.16232638888889,30.10759811186648L153.30546875,30.844790377843765L153.4486111111111,30.783482890892763L153.73489583333333,29.253240579856893L153.87803819444443,28.69356253957334L154.02118055555556,25.30442725478313L154.1643229166667,23.6699932793802L154.3074652777778,25.340444415790934L154.4506076388889,27.679411661020463L154.59375,32.667232519519466L154.7368923611111,40.78922355956441L154.88003472222223,35.412453132765165L155.02317708333334,44.6439414656191L155.30946180555554,49.50932652338126L155.45260416666667,45.04294867317856L155.59574652777778,39.734972316880466L155.73888888888888,44.14014429498143L155.88203124999998,92.95174383799808L156.02517361111111,119.39841913107956L156.16831597222225,136.19267689994032L156.45460069444445,141.6817066237428L156.59774305555555,140.17487876075722L156.74088541666666,131.39405115239566L156.8840277777778,123.60151229827702L157.0271701388889,123.12736926670331L157.1703125,117.77569035955905L157.45659722222223,114.3817679092717L157.59973958333333,125.37447215598529L158.1723090277778,125.35291218106437L158.3154513888889,126.19445173761582L158.6017361111111,127.52353149402984L158.74487847222224,123.23337474470668L158.88802083333334,121.08272843791619L159.03116319444445,117.70598757655752L159.17430555555555,123.38815680763247L159.31744791666665,122.17608313126651L159.46059027777778,118.80586305444717L159.746875,123.62237674539654L159.8900173611111,120.49092877908144L160.0331597222222,114.83319690574277L160.17630208333335,109.93807505976059L160.46258680555556,111.90512875524428L160.60572916666666,116.86122702799058L160.7488715277778,114.579438642724L160.8920138888889,117.50607195752589L161.03515625,112.85644481998276L161.1782986111111,107.86100408723748L161.89401041666665,92.74831742891703L162.0371527777778,82.73962962843224L162.1802951388889,73.78396997668061L162.3234375,72.89564154906473L162.46657986111111,70.98860502080369L162.60972222222222,66.10683286152046L162.89600694444445,69.57607340208479L163.18229166666666,64.43573206902892L163.61171875,61.04144324953576L163.7548611111111,57.23632664962585L163.8980034722222,53.52072619102386L164.04114583333333,50.536988850128395L164.47057291666667,46.39582646741151L164.61371527777777,44.470055956095656L164.9,42.47908104534186L165.0431423611111,45.03020092306155L165.1862847222222,41.693878482216164L165.32942708333334,41.683074605987336L165.61571180555555,39.37084011504978L165.75885416666665,39.43926793572091L165.90199652777775,40.449447755147396L166.04513888888889,37.43791568332654L166.18828125000002,34.72363429984862L166.33142361111112,34.29703210464733L166.47456597222222,33.116105884976356L166.61770833333333,32.64497677061317L166.76085069444446,34.61713310521071L167.04713541666666,36.530194193763016L167.19027777777777,34.25455865583039L167.4765625,32.23931873443153L167.7628472222222,32.843860805426L167.9059895833333,33.353515707666844L168.19227430555557,36.64755508394706L168.47855902777778,39.26230359843661L168.6217013888889,36.03355392102227L168.76484375,32.60735668352252L168.90798611111111,32.75426344696367L169.33741319444445,34.15482542687317L169.48055555555555,30.315851600599224L169.62369791666666,34.05425780935502L169.76684027777776,37.34334533534156L170.053125,34.2108798764776L170.19626736111113,34.608406191346035L170.33940972222223,33.098112952295885L170.48255208333333,30.300401912937737L170.62569444444446,30.234309343809056L171.05512152777777,33.865673515121856L171.34140625,31.22655557414474L171.4845486111111,32.46279843914979L171.77083333333331,38.2640202356438L171.91397569444445,38.78113642730343L172.20026041666668,40.930830942256115L172.34340277777778,36.805436999892265L172.48654513888889,36.475515075318995L172.62968750000002,36.36420379343009L172.91597222222222,36.36362993959502L173.05911458333333,34.34123302732592L173.20225694444446,31.90296986282845L173.48854166666666,33.92691800359108L173.63168402777777,35.45190232787865L173.77482638888887,32.607372006890316L173.91796875,30.968843918040324L174.20425347222223,33.10670739270269L174.34739583333334,39.24953394981371L174.63368055555557,39.08075147197717L175.06310763888888,36.27040930532453L175.34939236111111,33.562490252804295L175.49253472222222,32.93931502830202L175.63567708333332,31.022483941263932L175.77881944444442,28.60499363522714L176.06510416666666,31.348566708416143L176.3513888888889,36.54605842301133L176.49453125000002,37.68258382132456L176.63767361111113,36.436204352956324L176.78081597222223,31.95000553008257L176.92395833333333,32.38619012077635L177.06710069444443,35.39375468396773L177.21024305555557,34.129294445144374L177.35338541666667,39.23969372026394L177.49652777777777,36.336527268956544L177.9259548611111,33.98336867043353L178.0690972222222,32.45535532243267L178.21223958333334,34.33299293554161L178.78480902777778,35.329120702057025L178.92795138888889,35.63937613582964L179.07109375,37.16495096297875L179.21423611111112,33.36776739599577L179.35737847222222,31.800337943825298L179.64366319444443,34.58082077189488L179.78680555555556,36.596161950666904L179.92994791666666,35.66161435601527L180.07309027777777,34.714041597396836L180.2162326388889,33.13292561714657L180.93194444444444,31.009555293480965L181.07508680555554,28.289209076516737L181.21822916666667,28.08508188866676L181.36137152777778,32.51827802707486L181.50451388888888,34.30218727570008L181.64765624999998,38.49038241182021L181.93394097222222,38.324818059159405L182.07708333333332,35.163100280467475L182.22022569444445,34.86522628769467L182.36336805555555,36.029442256507146L182.50651041666669,33.69365256912715L182.6496527777778,35.91425060096983L182.7927951388889,34.77069513580098L182.9359375,35.10205327857165L183.07907986111113,34.79801122513455L183.36536458333333,34.14439235351188L183.50850694444443,35.495468770861045L183.65164930555554,34.52535834228422L183.79479166666667,33.377489573752186L183.93793402777777,32.45500016906715L184.08107638888887,32.71804096699097L184.22421875,30.21821837056935L184.51050347222224,27.9625928500574L184.79678819444445,26.28630297243639L184.93993055555555,28.239743893444754L185.08307291666668,27.754150067283458L185.22621527777778,25.143991870467L185.36935763888889,23.567276696952256L185.6556423611111,28.245359317936362L185.94192708333333,29.7884357180946L186.08506944444443,27.741128647843478L186.3713541666667,26.34400143551619L186.6576388888889,28.54920702768352L186.80078125,27.877716029377975L186.9439236111111,28.496123972608014L187.23020833333334,30.58633535722021L187.65963541666667,29.831529827935373L187.80277777777778,33.79507954464952L188.23220486111111,34.415271539459L188.37534722222225,34.20675231358603L188.51848958333335,33.27610293014175L188.94791666666666,36.04717150457726L189.0910590277778,32.705020300406524L189.37734375,32.545296294113065L189.5204861111111,35.14483681227315L189.66362847222223,33.503662358107455L189.80677083333333,30.61286117505869L189.94991319444443,40.61673892604143L190.09305555555554,34.71009875545677L190.23619791666667,33.06846496055865L190.3793402777778,34.868373715630895L190.5224826388889,33.40184088835521L190.665625,36.93794631198654L190.95190972222224,32.77994145100392L191.09505208333334,34.04078965083932L191.23819444444445,32.261600380728616L191.66762152777778,33.92231125437354L191.81076388888889,34.1580806760149L192.0970486111111,34.26505668433203L192.2401909722222,30.578810357879792L192.38333333333335,31.594858614664325L192.52647569444446,28.818726248915965L192.81276041666666,33.59224487161707L192.9559027777778,34.92214399786463L193.2421875,36.72089738289895L193.3853298611111,32.95617412202476L193.5284722222222,35.54883485264945L193.67161458333334,36.63106526457047L193.81475694444444,39.43061275479945L193.95789930555554,41.10147442383083L194.10104166666665,38.59643240234511L194.2441840277778,36.121568806818864L194.3873263888889,38.086954780273764L194.53046875,37.65338311856373L194.67361111111111,39.31689907881312L194.81675347222222,38.74721224581636L194.95989583333335,39.64640502871428L195.10303819444445,35.708085715262676L195.38932291666666,33.37487959413701L195.53246527777776,37.79109269568356L195.6756076388889,36.36319388646038L195.81875,38.19430057870604L196.1050347222222,36.08517047534379L196.24817708333333,35.742337767856554L196.82074652777777,41.26111101150285L197.2501736111111,40.196757898329544L197.53645833333334,39.72345574248865L197.67960069444445,42.653992608460236L197.82274305555555,38.23244319254688L197.96588541666665,38.3949359739368L198.10902777777775,37.010045834535866L198.39531250000002,35.169564765190515L198.53845486111112,38.221795654967416L198.68159722222222,37.84140175592831L198.82473958333333,43.20385289989242L198.96788194444446,43.451178547336134L199.25416666666666,47.6249724856709L199.39730902777777,46.569289054891556L199.5404513888889,40.8332209101695L199.68359375,38.64813877539724L199.8267361111111,35.818807824310845L199.9698784722222,34.36354953094093L200.1130208333333,31.757786506415066L200.25616319444444,33.94763054679774L200.39930555555557,36.09801521347343L200.54244791666667,35.54136145528074L200.68559027777778,34.47345488646496L200.971875,32.8954464262758L201.11501736111111,31.533184694405666L201.40130208333332,31.068336510022437L201.54444444444445,32.843385284929525L201.68758680555555,31.344308775721156L201.97387152777776,32.169673086812985L202.1170138888889,35.898645248129505L202.26015625,37.423618333848125L202.40329861111113,33.55731376120675L202.54644097222223,31.026340873856206L202.68958333333333,33.08147532417954L203.26215277777777,36.21539497743068L203.5484375,33.20280346794119L203.97786458333331,33.99141427392088L204.12100694444445,35.26955667975165L204.26414930555555,41.46904885878562L204.40729166666668,37.95938049739708L204.55043402777778,33.1480355301261L204.69357638888889,30.09415698070581L204.97986111111112,27.751721823094385L205.12300347222222,27.778896078894505L205.26614583333333,29.200362623520395L205.40928819444446,34.211643214725385L205.55243055555556,31.42737267714253L205.69557291666666,36.45540142646188L205.83871527777777,33.49456567017342L205.98185763888887,31.547137793360864L206.125,34.51081360326778L206.2681423611111,35.86238411875038L206.55442708333334,34.692346789044926L206.69756944444444,32.29632548303452L206.84071180555557,32.86050238551583L207.12699652777778,29.590482238567578L207.27013888888888,28.83081529364457L207.41328125,31.16045858343451L207.55642361111111,33.35269827476056L207.69956597222222,31.714299243914372L207.84270833333332,30.47609493445719L208.12899305555555,33.32276509640119L208.27213541666666,33.433737340015234L208.4152777777778,34.67727943660916L208.5584201388889,35.161676883166095L208.70156250000002,35.628657100585194L208.84470486111113,36.92029629043818L208.98784722222223,38.41468849500603L209.27413194444443,37.18581437356836L209.41727430555557,34.363982348804775L209.56041666666667,33.555815359860475L209.70355902777777,37.6558408075936L209.84670138888887,37.57237502693244L209.98984374999998,35.84935873372545L210.1329861111111,35.955431264501236L210.2761284722222,34.6741440768529L210.41927083333334,33.076300110159394L210.70555555555558,33.873233895189784L210.84869791666668,38.54991711849333L211.13498263888889,35.50722146540788L211.70755208333333,35.363871408307624L211.85069444444443,34.26047213659345L212.13697916666666,35.787095143669596L212.28012152777777,37.30579355461179L212.4232638888889,37.065196471020386L212.70954861111113,35.540672853763034L212.99583333333334,37.047791538298426L213.13897569444444,34.71871155395035L213.28211805555554,40.74404849270671L213.56840277777778,42.0573100018576L213.71154513888888,40.254465381344296L213.85468749999998,41.92632648506134L213.99782986111111,40.289981590808374L214.28411458333332,41.17807046292904L214.42725694444445,33.95420074771096L214.57039930555555,33.383566715741125L214.71354166666669,32.64962004998705L214.8566840277778,30.610351018423923L215.14296875,34.315616793391655L215.28611111111113,33.11266729451189L215.42925347222223,32.44541440231631L215.71553819444443,35.805768946541676L215.85868055555554,36.649650220341144L216.28810763888887,38.04820862180054L216.43125,34.50701984934133L216.5743923611111,36.06581183784538L216.71753472222224,39.69433969022951L217.00381944444445,40.12952929779585L217.14696180555555,37.98484926581908L217.29010416666668,45.02980367232716L217.43324652777778,54.447760500936305L217.57638888888889,58.68214368929983L217.71953125,54.57075751359521L217.8626736111111,51.31827260001493L218.00581597222222,50.58199063683275L218.29210069444443,44.26122403379279L218.43524305555556,46.49267805693545L218.5783854166667,50.40493416563037L218.7215277777778,50.06548898888764L218.8646701388889,50.29695381173785L219.0078125,59.49702798674605L219.1509548611111,54.482512961324026L219.43723958333334,48.65781481917409L219.58038194444444,47.63922440399401L219.72352430555554,44.84704245545936L219.86666666666667,40.47213001457273L220.00980902777778,37.33077220499589L220.15295138888888,35.604383794259306L220.58237847222225,37.81071773164669L220.86866319444445,37.958871993930586L221.01180555555555,39.4053666166386L221.15494791666666,37.97769335137683L221.2980902777778,38.02827083673245L221.4412326388889,34.66375311634208L221.584375,34.66902954556449L221.7275173611111,34.43778991926662L221.87065972222223,40.79064056510206L222.01380208333333,45.614023174507686L222.15694444444443,47.42164692993851L222.5863715277778,40.073131537146104L222.7295138888889,39.05005398323925L223.15894097222224,32.230662922461235L223.30208333333334,32.39267116071571L223.44522569444445,33.63783976404038L223.58836805555555,34.135035715649444L223.73151041666665,37.04712501336449L223.87465277777778,35.88866626644787L224.1609375,32.79136366189935L224.3040798611111,31.127210484181212L224.4472222222222,29.408867249370438L224.59036458333335,29.473666190825135L224.73350694444446,27.943271805018398L224.87664930555556,27.024923145051822L225.01979166666666,30.374120563559295L225.3060763888889,31.506977995291717L225.44921875,34.34110324436107L225.5923611111111,38.67770305595184L225.87864583333334,39.07324744638857L226.02178819444444,36.30449453951174L226.16493055555554,34.53859991979138L226.4512152777778,34.69838432157893L226.5943576388889,38.65093010912044" style="fill: none;" fill="none"></path></g></g></g></g><g opacity="0.2"><g><g><g><path stroke="rgb(0, 119, 187)" stroke-width="2px" d="M28.914756944444445,161.83681645210493L29.201041666666665,161.79661005014725L29.48732638888889,161.76044258480724L29.630468750000002,161.77051151123914L29.916753472222222,161.5897703463381L30.203038194444446,161.59650591611862L30.346180555555556,161.42070191209964L30.489322916666666,161.58511169780385L30.63246527777778,161.29952296040275L30.77560763888889,161.14521033720538L30.91875,160.854842599522L31.06189236111111,160.57549367297779L31.205034722222223,160.14690989060836L31.348177083333336,160.0476210680875L31.491319444444443,159.66345118956133L31.634461805555556,159.70448459625246L31.92074652777778,160.05165997938676L32.20703125,159.4911139678955L32.35017361111111,159.1938221948797L32.63645833333334,158.99101582267068L33.06588541666667,158.60101581920276L33.20902777777778,159.22026740334252L33.35217013888889,159.12098598827015L33.495312500000004,159.91138867638327L33.638454861111114,159.99302354292436L33.92473958333333,159.84430281032215L34.354166666666664,160.3780125617981L34.49730902777778,160.9683554207195L34.78359375,159.82290701259265L34.92673611111111,159.9732509023493L35.06987847222222,159.98538569190285L35.21302083333333,160.8299913042242L35.35616319444444,161.29286161942915L35.49930555555556,160.93294148965316L35.78559027777778,160.03357793461194L35.92873263888889,159.26893372275612L36.35815972222222,158.87550191012295L36.501302083333336,158.77701648712159L36.644444444444446,159.0837978189642L36.787586805555556,159.16096892616966L36.930729166666666,159.0885395119407L37.360156249999996,158.92440742839466L37.50329861111111,159.2385917334123L37.64644097222222,158.9666156872836L37.78958333333333,159.38980013413862L37.93272569444444,158.01804252277722L38.07586805555556,157.93185253836893L38.21901041666667,157.5263959676569L38.36215277777777,156.93166211214933L38.50529513888889,156.68339098150082L38.6484375,155.93118680780586L38.93472222222222,154.73744314713912L39.07786458333334,154.51359252236105L39.22100694444445,154.4281111838601L39.36414930555556,153.9290923656117L39.65043402777778,152.5361951307817L39.93671875,148.72904993230645L40.079861111111114,149.20548714377662L40.366145833333334,145.176477134011L40.50928819444445,144.98513286243787L40.795572916666664,140.12825653076172L40.938715277777774,139.11070767489346L41.08185763888889,135.0192355901545L41.225,137.47999492298473L41.36814236111111,133.19260570179333L41.51128472222222,128.92651783336294L41.79756944444444,131.77723241632637L41.94071180555555,128.84222847678444L42.08385416666667,127.31695087779653L42.22699652777778,119.5236014626243L42.51328125,120.75308235862039L42.94270833333333,115.74584222966975L43.085850694444446,109.549970814098L43.228993055555556,108.69884510387074L43.372135416666666,113.1014423717152L43.65842013888889,109.67535422585226L43.8015625,108.54482449618254L43.944704861111106,110.26823652787643L44.37413194444444,104.91773770419036L44.51727430555555,94.70378967285157L44.94670138888889,81.02393599076704L45.37612847222222,76.61728437943893L45.51927083333333,79.4305790016868L45.66241319444445,82.02954157049005L45.80555555555556,78.8658203125L45.94869791666667,86.16839910333806L46.378125,80.96146157004617L46.52126736111111,72.29890980113636L46.664409722222224,74.01777365944602L46.807552083333334,73.33117231889204L46.950694444444444,80.56739024769176L47.236979166666664,81.60951454856179L47.380121527777774,88.53184925426136L47.80954861111111,81.95125965465199L48.23897569444445,82.14665333140981L48.38211805555555,73.29407581676136L48.66840277777778,65.31975996537642L48.9546875,68.79719160600142L49.097829861111116,70.43998590642755L49.240972222222226,70.8330547540838L49.384114583333336,67.15864424272017L49.52725694444444,73.14711203835226L49.670399305555556,74.07416903409091L49.956684027777776,63.53928588867187L50.09982638888889,64.81576704545455L50.24296875,64.90461692116479L50.38611111111111,79.7136719304865L50.67239583333333,71.91072986949574L50.81553819444444,59.58078491210938L50.95868055555555,56.351601562499994L51.24496527777778,70.07797895951705L51.38810763888889,69.82742942116477L51.53125,58.74528397993608L51.81753472222222,65.77754028320312L51.96067708333333,63.02226573597301L52.24696180555556,58.40161787553268L52.39010416666667,67.35015147816051L52.676388888888894,63.5031474165483L52.81953125,73.1559219637784L52.96267361111111,67.73574374112215L53.248958333333334,54.654831653941756L53.392100694444444,58.18580433238637L53.82152777777778,53.886155783913345L53.964670138888884,51.593994917436085L54.1078125,62.98923839222302L54.25095486111111,70.72442205255682L54.53723958333333,60.38026589133522L54.68038194444445,56.186217928799714L54.96666666666667,58.14417447176847L55.25295138888889,53.455615123402L55.39609375,47.195570512251415L55.53923611111111,56.919357799183246L55.682378472222226,55.55028353604403L55.968663194444446,47.754230402166186L56.11180555555555,46.140127618963064L56.541232638888886,57.052128906250005L57.11380208333333,65.78337735262785L57.25694444444444,68.26228493430398L57.68637152777778,61.83103937322443L57.82951388888889,61.576697221235804L58.11579861111111,53.406301269531255L58.25894097222223,45.12363802823153L58.40208333333333,41.226608997691756L58.54522569444444,70.48907259854404L58.68836805555556,46.864200772372165L59.11779513888889,47.92707086736506L59.260937500000004,44.440829301313926L59.404079861111114,46.519171697443184L59.54722222222222,49.54294156161222L59.976649305555554,47.2243212890625L60.119791666666664,49.66328790838068L60.26293402777778,46.71998268821024L60.40607638888889,44.11018055308949L60.549218749999994,43.690326371626426L60.69236111111111,44.36914495294744L60.97864583333333,54.839119096235805L61.12178819444444,58.54309026544745L61.26493055555556,48.044464111328125L61.55121527777778,58.34455089222302L61.69435763888889,46.44384288441052L61.8375,44.696810968572436L61.98064236111111,44.878471235795445L62.12378472222222,48.09955577503552L62.266927083333336,44.76879161487927L62.410069444444446,60.175356112393466L62.69635416666667,47.4747226784446L62.839496527777776,53.168156738281255L63.125781249999996,43.916312810724435L63.69835069444445,63.28624744762073L63.84149305555556,53.22131258877841L64.12777777777778,52.869004461115054L64.27092013888888,51.125626886541205L64.4140625,60.560069358132104L64.5572048611111,64.03228615500711L64.70034722222222,63.68366199840198L64.84348958333332,71.95881902521306L64.98663194444445,61.87754827325995L65.27291666666667,54.12880404385654L65.70234375,50.74953591086648L65.8454861111111,51.87660389293325L65.98862847222223,54.49107765891335L66.13177083333333,61.6970830743963L66.41805555555555,45.64393721147017L66.70434027777777,41.198095259232964L66.99062500000001,44.08828413529829L67.27690972222223,43.45858187588778L67.56319444444445,48.65633911132812L67.70633680555555,51.142041792436075L67.84947916666665,44.97341497247869L67.99262152777779,43.9036806418679L68.13576388888889,50.678384898792615L68.42204861111111,40.09862249200994L68.56519097222223,42.46823564009234L68.85147569444445,62.20438465465199L68.99461805555556,46.02688254616478L69.13776041666667,37.527842795632104L69.42404513888889,40.53868419300426L70.13975694444444,32.482353071732945L70.42604166666666,30.292750799005688L70.56918402777778,33.08005515358665L70.85546875,35.962006946910506L70.99861111111112,47.97756991299716L71.14175347222222,44.0502197265625L71.28489583333334,50.06122591885653L71.42803819444444,40.852118030894886L71.57118055555556,47.85083340731534L71.71432291666666,53.30193525834516L71.85746527777778,55.435171786221595L72.0006076388889,58.50726784446022L72.14375000000001,39.76316384055398L72.71631944444444,46.407980957031256L72.85946180555555,49.31173040216619L73.14574652777779,54.76054088245738L73.57517361111111,41.194618696732945L73.71831597222221,57.10644031871449L74.00460069444445,48.481701105291194L74.14774305555557,46.40956121271307L74.29088541666667,48.350125066583814L74.43402777777777,49.93447953657671L74.57717013888889,48.14944247159091L74.86345486111111,47.29279574307528L75.00659722222223,45.58091463955966L75.14973958333334,60.59737326882102L75.29288194444445,45.578475119850864L75.43602430555556,41.835195090553974L75.57916666666667,44.26509499289772L76.00859375,48.93503695401278L76.15173611111112,41.125344238281244L76.43802083333334,48.76118907581676L76.72430555555555,45.813735684481536L77.01059027777778,39.834630903764214L77.296875,45.68656460848721L77.58315972222222,77.8203330300071L77.72630208333334,54.375916526100845L77.86944444444444,45.36486405806107L78.01258680555556,61.505961026278406L78.15572916666667,41.68839921431108L78.29887152777778,42.18068836558949L78.4420138888889,44.33508056640625L78.58515625,38.07427545720881L78.72829861111111,45.71033757990057L79.01458333333333,40.650793457031256L79.30086805555555,37.91894620028409L79.44401041666667,33.03745738636363L79.73029513888889,42.14230790571734L80.0165798611111,40.77810280539774L80.15972222222223,35.637807617187505L80.30286458333333,46.89657626065341L80.44600694444445,38.56998191139915L80.58914930555555,40.13515602805398L80.73229166666667,35.37461603338069L80.87543402777777,40.57304487748579L81.0185763888889,41.70287830699574L81.16171875,38.518919899680405L81.30486111111111,38.034117209694614L81.44800347222223,40.09080022638494L81.73428819444445,42.49329256924715L81.87743055555555,32.1450870028409L82.16371527777778,42.57097201260654L82.45,40.50417535955256L82.5931423611111,44.265499933416194L82.73628472222222,31.759791037819607L82.87942708333333,47.163056751598006L83.02256944444444,38.549300315163364L83.30885416666666,37.90484241832387L83.45199652777778,32.25513205788352L83.73828125,43.432339754971586L83.8814236111111,42.10513239080255L84.02456597222222,29.820817316228702L84.16770833333334,32.79751531427557L84.31085069444445,34.51040383078836L84.59713541666666,38.29356556285512L84.74027777777778,32.2580654074929L84.88342013888888,33.43394353693182L85.0265625,36.56723499644885L85.45598958333333,48.778334849964494L85.74227430555555,41.4655732865767L85.88541666666666,56.84775246360085L86.17170138888889,33.664809015447446L86.31484375000001,36.66297873757103L86.45798611111111,33.395859375L86.74427083333333,35.609639559659094L86.88741319444443,32.41196255770597L87.17369791666667,46.50881114612926L87.45998263888889,44.54231134588067L88.17569444444445,46.47788751775569L88.31883680555556,33.80387151544744L88.74826388888889,42.51727294921875L88.89140624999999,32.51791870117188L89.0345486111111,47.70004738547585L89.17769097222222,52.727640713778406L89.32083333333334,39.46890047940341L89.46397569444444,47.82982588334518L89.75026041666666,47.960848832563926L90.03654513888888,58.572275612571026L90.32282986111112,45.862210027521314L90.60911458333334,49.889057062322436L91.03854166666666,38.44828247070312L91.18168402777778,45.62835193980824L91.46796875,46.024057839133526L91.61111111111111,50.89828735351563L91.75425347222222,48.31598166725851L91.89739583333333,39.02000909978693L92.04053819444444,37.05698586203835L92.32682291666667,49.5163340065696L92.46996527777777,45.1830655184659L92.75625,33.24087579900568L92.89939236111111,26.83507235440342L93.04253472222221,30.642086070667613L93.18567708333335,41.13612948330965L93.32881944444445,46.26319990678267L93.47196180555555,53.60223322088068L93.75824652777777,41.61875932173296L93.90138888888889,48.21277121803976L94.18767361111112,41.67073985706677L94.33081597222223,41.92689930308948L94.47395833333333,41.12684548117899L94.61710069444445,44.93912342418323L94.76024305555555,45.569299760298286L94.90338541666667,49.059729003906256L95.04652777777777,58.88810946377841L95.1896701388889,48.52883223100143L95.3328125,37.20104592063211L95.47595486111112,43.34998868075284L95.61909722222222,43.84556673916904L95.76223958333333,42.00166515003551L95.90538194444444,43.86893477006393L96.04852430555555,39.52135509144177L96.19166666666668,44.53428167169744L96.4779513888889,40.4160761052912L96.62109375,37.45331398703835L97.05052083333332,39.09797496448863L97.19366319444445,38.26444935191762L97.76623263888888,43.84010498046875L98.19565972222223,35.96960205078125L98.33880208333333,44.972832253196025L98.62508680555555,35.619703813032665L98.76822916666667,37.8583730246804L99.05451388888888,48.7587890625L99.19765625000001,36.26856667258524L99.34079861111111,35.44530284534801L99.77022569444445,39.290904430042616L99.91336805555555,43.14663940429688L100.19965277777779,41.456555952592325L100.77222222222223,38.52051990855824L100.91536458333333,39.78986028497869L101.20164930555556,35.43473488547586L101.34479166666667,34.18827858664772L101.48793402777778,37.37755060369318L101.63107638888889,34.67771340110085L101.77421875,48.203190917968755L101.9173611111111,52.05824440696022L102.06050347222222,46.59317704634232L102.34678819444444,42.44677379261365L102.48993055555556,41.653268155184655L102.63307291666666,43.050520352450285L102.77621527777778,36.81506847034801L102.91935763888888,41.318826793323865L103.0625,41.671628750887784L103.20564236111112,43.22987937233665L103.63506944444444,41.093077392578124L103.77821180555556,34.22128617720171L103.92135416666666,38.508006258877835L104.78020833333333,28.165203191583814L105.06649305555555,45.543284801136366L105.20963541666667,36.26322343306107L105.35277777777779,36.61314142400569L105.49592013888889,45.19978659889914L105.6390625,48.4521602006392L105.78220486111111,37.89044233842329L105.92534722222221,33.6373026899858L106.06848958333333,38.836462402343756L106.21163194444445,38.61297474254262L106.35477430555557,29.627315007990063L106.49791666666667,35.27187966086649L106.64105902777777,39.001579367897726L106.78420138888889,27.972145330255685L106.92734374999999,33.920859818892055L107.07048611111111,39.68027943004262L107.21362847222223,38.27432594992897L107.35677083333334,37.552603426846595L107.64305555555556,40.620877241654824L107.78619791666667,33.829995117187494L107.92934027777777,40.13417824485085L108.215625,35.85843106356534L108.50190972222222,40.84495749733664L108.78819444444444,47.499453679865056L108.93133680555555,44.57862759676846L109.3607638888889,51.78007002397016L109.50390625,48.05287897283381L109.64704861111112,47.42176435990766L109.93333333333334,45.58073686079546L110.07647569444444,36.15724753639915L110.21961805555556,44.37179188121449L110.50590277777778,42.384847523082385L110.6490451388889,51.336956454190336L110.7921875,48.45351329456676L110.93532986111111,53.99174649325284L111.22161458333333,51.3066748046875L111.36475694444445,45.91844737659801L111.50789930555555,53.64185813210228L111.65104166666667,46.93051225142046L111.79418402777777,43.55639970259234L111.93732638888889,48.14563998135653L112.08046875,35.99705899325284L112.2236111111111,35.18092606977984L112.36675347222223,42.28971613103694L112.50989583333333,53.76405140269887L112.65303819444445,46.39226728959516L112.79618055555555,37.833809925426145L112.93932291666667,41.244989346590906L113.36875,41.92645485617897L113.51189236111111,54.677755237926135L113.65503472222223,44.511437100497155L113.94131944444445,48.315132279829555L114.08446180555555,55.378509743430406L114.22760416666667,42.46458129882812L114.37074652777778,49.435079234730104L114.65703125,48.65619096235796L114.8001736111111,40.53842740145597L114.94331597222222,37.813632035688926L115.08645833333333,43.487500554865065L115.22960069444444,41.858671764026994L115.51588541666666,42.80364490855824L115.80217013888888,42.67489357688211L116.0884548611111,52.77272738370028L116.23159722222222,64.06012828480114L116.37473958333334,66.54769764293324L116.80416666666666,46.89486760919745L117.37673611111111,50.609377108487216L117.51987847222223,46.673681196732964L117.66302083333333,47.23456332120028L117.80616319444444,43.89856456409801L117.94930555555555,47.08964399857954L118.23559027777777,31.088972500887785L118.37873263888889,38.61718217329545L118.80815972222223,55.88125821200284L118.95130208333333,56.12634599165484L119.23758680555555,35.30367242986506L119.52387152777779,34.632527965198854L119.66701388888889,49.5139734996449L120.09644097222221,52.9470789683949L120.23958333333333,49.0922822709517L120.38272569444445,40.05696300159801L120.52586805555556,39.824635786576714L120.66901041666667,42.16970558860086L120.81215277777778,33.960623002485804L120.95529513888889,29.36317527077414L121.09843749999999,32.105521351207386L121.2415798611111,39.58721224698153L121.38472222222222,32.810828968394894L121.52786458333334,41.751974875710225L121.67100694444444,39.879974365234375L121.81414930555556,38.20354037198154L121.95729166666666,38.43646018288353L122.10043402777778,37.64179898348721L122.24357638888888,29.273130326704543L122.67300347222222,41.01581276633522L122.81614583333334,30.48035677823153L123.10243055555556,35.73804521040482L123.38871527777778,41.08816872336647L123.5318576388889,38.61156238902698L123.675,36.52670143821024L123.81814236111111,50.65371315696024L123.96128472222222,40.92245916193181L124.10442708333333,33.514724232066754L124.24756944444444,36.41532304243607L124.39071180555555,42.66808860085228L124.53385416666667,41.22844604492188L124.82013888888889,44.54063232421875L124.96328125,50.73601484818893L125.10642361111111,63.77039828213778L125.24956597222221,70.75988891601563L125.39270833333335,54.83664994673295L125.67899305555555,38.15997469815341L125.82213541666667,43.72201049804687L125.96527777777777,46.68355779474432L126.10842013888889,36.64280084783381L126.25156249999999,32.62335138494318L126.39470486111112,37.43409412730824L126.53784722222223,44.29805320046164L126.68098958333333,46.85733653675426L126.82413194444445,43.97155262340199L126.96727430555555,41.90317571466619L127.11041666666667,44.54434592507101L127.25355902777777,51.647447065873585L127.3967013888889,52.67248979048296L127.82612847222222,42.65437000621449L128.11241319444446,46.972991499467334L128.39869791666666,42.92862337979404L128.828125,39.75272427645597L128.9712673611111,36.37313021573153L129.1144097222222,32.74305575284091L129.25755208333334,39.23766956676137L129.40069444444444,41.855264337713066L129.54383680555554,39.070261230468745L129.68697916666665,32.178953857421874L129.8301215277778,37.96412175958807L129.9732638888889,35.746657603870744L130.11640625,38.126858465021314L130.25954861111111,30.894018332741474L130.40269097222222,45.98899591619319L130.54583333333335,43.193849542791206L130.97526041666666,31.40545820756392L131.11840277777776,39.61183460582387L131.2615451388889,39.72839821555397L131.5478298611111,36.494691384055386L131.6909722222222,44.79100408380681L131.97725694444446,29.858664439808233L132.12039930555557,23.921614213423293L132.26354166666667,34.26216541637073L132.40668402777777,28.32442382812501L132.5498263888889,38.708382679332395L132.69296875,37.065321710759946L133.12239583333334,45.27747591885653L133.26553819444445,39.37938887162641L133.40868055555555,33.66136208274147L133.98125000000002,35.158506192294034L134.12439236111112,33.99787753018466L134.41067708333333,31.80036410245028L134.55381944444446,30.877583673650562L134.69696180555556,37.93174627130682L134.84010416666666,38.70347401012074L135.1263888888889,36.11881769353694L135.4126736111111,37.3392392800071L135.5558159722222,30.490737082741486L135.6989583333333,30.90921841708097L135.98524305555557,27.274926646839486L136.12838541666667,29.018630149147736L136.27152777777778,24.884533136541197L136.4146701388889,30.036137029474432L136.5578125,29.683196799538344L136.70095486111111,27.709230291193176L136.84409722222222,25.90514126864347L136.98723958333332,31.5925703568892L137.41666666666666,30.46726040926847L137.55980902777776,25.5977519087358L137.84609375,31.807811057350857L137.98923611111113,38.345714000355116L138.13237847222223,36.98269409179687L138.27552083333333,27.25098577325994L138.41866319444446,41.6905918190696L138.56180555555557,40.976059459339496L138.84809027777777,42.648562566583806L138.99123263888887,50.60381658380682L139.134375,36.594731445312505L139.2775173611111,38.071875443892054L139.4206597222222,36.19191439541904L139.56380208333331,36.440231822620746L139.70694444444445,50.64870572176847L139.85008680555555,52.73692471590909L140.27951388888889,52.86924149946732L140.42265625000002,37.79541958895597L140.70894097222222,37.672465820312496L140.85208333333333,44.9538691850142L140.99522569444446,43.077345192649155L141.13836805555556,38.042907381924714L141.42465277777777,41.56921830610796L141.7109375,46.52563099254262L141.8540798611111,40.05804942737926L141.99722222222223,45.01516335227274L142.14036458333334,32.8469871937145L142.28350694444444,34.578147416548305L142.42664930555557,46.23505160245028L142.56979166666667,41.1788358931108L142.71293402777778,51.06899447354403L142.99921875,45.69800170898438L143.14236111111111,36.7648262162642L143.28550347222222,35.51198963512074L143.57178819444442,48.169205544211636L143.85807291666666,41.898573219992905L144.0012152777778,35.338517067649136L144.1443576388889,35.78219360351562L144.28750000000002,51.54471069335938L144.43064236111113,33.862370605468755L144.57378472222223,38.04041847922586L144.86006944444443,30.31026200727984L145.00321180555557,33.779031871448865L145.14635416666667,36.114363347833795L145.43263888888887,31.498604403409097L145.57578124999998,38.80866965553978L145.8620659722222,33.46367209694601L146.29149305555558,34.59369318181818L146.57777777777778,41.98681074662641L146.72092013888889,30.948961847478685L146.8640625,26.480453102805406L147.29348958333333,32.63473910245029L147.43663194444443,30.910127064098006L147.72291666666666,34.90013438831676L147.86605902777777,37.94809204101563L148.15234375,37.04798828125L148.29548611111113,31.780354114879263L148.43862847222223,43.22634355024857L148.72491319444444,33.22402632279829L148.86805555555554,24.711613658558232L149.29748263888888,24.95967429421164L149.44062499999998,28.854234175248582L149.72690972222222,27.886426336115065L149.87005208333332,43.81480113636363L150.01319444444445,35.50673528497869L150.15633680555555,32.573701726740055L150.4426215277778,34.20045643199575L150.5857638888889,34.35118319424716L150.72890625,32.6838554243608L150.87204861111113,26.29624467329545L151.15833333333333,46.83421542080966L151.44461805555554,37.745206964666195L151.73090277777777,36.87509843306107L151.87404513888887,23.612229780717332L152.0171875,33.006247336647725L152.1603298611111,33.79459738991478L152.30347222222224,38.10510031960228L152.87604166666668,22.266918612393457L153.01918402777778,33.1520555530895L153.16232638888889,29.2113818359375L153.30546875,31.58198264382103L153.4486111111111,30.722175403941765L153.73489583333333,27.72299826882102L153.87803819444443,28.133884499289767L154.02118055555556,21.9152919699929L154.1643229166667,22.03555930397727L154.3074652777778,27.010895552201706L154.4506076388889,30.01837890625001L154.59375,37.65505337801847L154.7368923611111,48.91121459960938L154.88003472222223,30.035682705965904L155.02317708333334,53.87542979847301L155.30946180555554,54.374711581143465L155.45260416666667,40.576570822975846L155.59574652777778,34.426995960582396L155.73888888888888,48.54531627308238L155.88203124999998,141.76334338101472L156.02517361111111,145.84509442416103L156.16831597222225,152.98693466880104L156.45460069444445,147.17073634754527L156.59774305555555,138.66805089777168L156.74088541666666,122.61322354403408L156.8840277777778,115.80897344415838L157.0271701388889,122.65322623512961L157.1703125,112.42401145241476L157.45659722222223,110.98784545898437L157.59973958333333,136.36717640269887L158.1723090277778,125.33135220614345L158.3154513888889,127.03599129416726L158.6017361111111,128.85261125044389L158.74487847222224,118.94321799538352L158.88802083333334,118.9320821311257L159.03116319444445,114.32924671519886L159.17430555555555,129.07032603870738L159.31744791666665,120.96400945490056L159.46059027777778,115.43564297762785L159.746875,128.4388904363459L159.8900173611111,117.35948081276632L160.0331597222222,109.17546503240412L160.17630208333335,105.04295321377842L160.46258680555556,113.87218245072796L160.60572916666666,121.81732530073685L160.7488715277778,112.29765025745738L160.8920138888889,120.43270527232778L161.03515625,108.20681768243962L161.1782986111111,102.8655633544922L161.89401041666665,77.63563077059658L162.0371527777778,72.73094182794745L162.1802951388889,64.82831032492898L162.3234375,72.00731312144886L162.46657986111111,69.08156849254262L162.60972222222222,61.22506070223722L162.89600694444445,73.04531394264914L163.18229166666666,59.29539073597302L163.61171875,57.64715443004262L163.7548611111111,53.43121004971591L163.8980034722222,49.80512573242187L164.04114583333333,47.55325150923296L164.47057291666667,42.2546640846946L164.61371527777777,42.54428544477984L164.9,40.488106134588065L165.0431423611111,47.581320800781256L165.1862847222222,38.35755604137074L165.32942708333334,41.67227072975853L165.61571180555555,37.05860562411221L165.75885416666665,39.50769575639205L165.90199652777775,41.45962757457387L166.04513888888889,34.426383611505685L166.18828125000002,32.009352916370744L166.33142361111112,33.870429909446024L166.47456597222222,31.935179665305405L166.61770833333333,32.173847656250004L166.76085069444446,36.58928943980824L167.04713541666666,38.44325528231534L167.19027777777777,31.978923117897732L167.4765625,30.224078813032673L167.7628472222222,33.448402876420445L167.9059895833333,33.86317060990766L168.19227430555557,39.94159446022727L168.47855902777778,41.877052112926144L168.6217013888889,32.80480424360795L168.76484375,29.18115944602273L168.90798611111111,32.901170210404835L169.33741319444445,35.555387406782664L169.48055555555555,26.47687777432528L169.62369791666666,37.79266401811079L169.76684027777776,40.63243286132813L170.053125,31.07841441761363L170.19626736111113,35.00593250621449L170.33940972222223,31.587819713245732L170.48255208333333,27.50269087357955L170.62569444444446,30.168216774680392L171.05512152777777,37.49703768643466L171.34140625,28.587437633167607L171.4845486111111,33.69904130415484L171.77083333333331,44.06524203213778L171.91397569444445,39.29825261896306L172.20026041666668,43.08052545720881L172.34340277777778,32.680043057528415L172.48654513888889,36.14559315074574L172.62968750000002,36.25289251154119L172.91597222222222,36.363056085759936L173.05911458333333,32.31883611505681L173.20225694444446,29.464706698330964L173.48854166666666,35.9508661443537L173.63168402777777,36.976886652166186L173.77482638888887,29.762841685901986L173.91796875,29.330315829190347L174.20425347222223,35.244570867365056L174.34739583333334,45.39236050692471L174.63368055555557,38.91196899414062L175.06310763888888,33.460067138671874L175.34939236111111,30.85457120028409L175.49253472222222,32.31613980379972L175.63567708333332,29.105652854225845L175.77881944444442,26.187503329190342L176.06510416666666,34.092139781605105L176.3513888888889,41.74355013760654L176.49453125000002,38.81910921963779L176.63767361111113,35.18982488458806L176.78081597222223,27.4638067072088L176.92395833333333,32.822374711470175L177.06710069444443,38.40131924715909L177.21024305555557,32.86483420632103L177.35338541666667,44.35009299538353L177.49652777777777,33.43336081764915L177.9259548611111,31.630210071910515L178.0690972222222,30.927341974431812L178.21223958333334,36.21063054865057L178.78480902777778,36.32524846857244L178.92795138888889,35.94963156960226L179.07109375,38.69052579012784L179.21423611111112,29.570583829012783L179.35737847222222,30.23290849165483L179.64366319444443,37.36130359996448L179.78680555555556,38.61150312943893L179.92994791666666,34.72706676136363L180.07309027777777,33.766468838778415L180.2162326388889,31.55180963689631L180.93194444444444,28.88618496981534L181.07508680555554,25.56886285955255L181.21822916666667,27.880954700816762L181.36137152777778,36.95147416548295L181.50451388888888,36.08609652432528L181.64765624999998,42.67857754794034L181.93394097222222,38.159253706498575L182.07708333333332,32.001382501775566L182.22022569444445,34.567352294921875L182.36336805555555,37.1936582253196L182.50651041666669,31.35786288174716L182.6496527777778,38.134848632812506L182.7927951388889,33.6271396706321L182.9359375,35.433411421342335L183.07907986111113,34.493969171697444L183.36536458333333,33.490773481889214L183.50850694444443,36.84654518821022L183.65164930555554,33.5552479137074L183.79479166666667,32.22962080522018L183.93793402777777,31.532510764382106L184.08107638888887,32.98108176491476L184.22421875,27.718395774147734L184.51050347222224,25.706967329545453L184.79678819444445,24.610013094815333L184.93993055555555,30.193184814453115L185.08307291666668,27.268556241122166L185.22621527777778,22.533833673650562L185.36935763888889,21.99056152343751L185.6556423611111,32.92344193892045L185.94192708333333,31.33151211825284L186.08506944444443,25.693821577592338L186.3713541666667,24.946874223188924L186.6576388888889,30.754412619850847L186.80078125,27.206225031072435L186.9439236111111,29.114531915838075L187.23020833333334,32.67654674183238L187.65963541666667,29.07672429865056L187.80277777777778,37.758629261363645L188.23220486111111,35.035463534268466L188.37534722222225,33.99823308771306L188.51848958333335,32.34545354669744L188.94791666666666,38.81824007901279L189.0910590277778,29.362869096235794L189.37734375,32.38557228781961L189.5204861111111,37.74437733043323L189.66362847222223,31.862487903941755L189.80677083333333,27.72205999200995L189.94991319444443,50.62061667702415L190.09305555555554,28.803458584872153L190.23619791666667,31.426831165660502L190.3793402777778,36.66828247070312L190.5224826388889,31.93530806107955L190.665625,40.4740517356179L190.95190972222224,28.621936590021303L191.09505208333334,35.301637850674716L191.23819444444445,30.482411110617893L191.66762152777778,35.58302212801846L191.81076388888889,34.393850097656255L192.0970486111111,34.37203269264915L192.2401909722222,26.89256403142755L192.38333333333335,32.610906871448854L192.52647569444446,26.04259388316761L192.81276041666666,38.36576349431819L192.9559027777778,36.25204312411221L193.2421875,38.51965076793324L193.3853298611111,29.191450861150575L193.5284722222222,38.141495583274136L193.67161458333334,37.71329567649148L193.81475694444444,42.23016024502841L193.95789930555554,42.77233609286221L194.10104166666665,36.09139038085938L194.2441840277778,33.646705211292605L194.3873263888889,40.052340753728686L194.53046875,37.21981145685369L194.67361111111111,40.98041503906251L194.81675347222222,38.1775254128196L194.95989583333335,40.54559781161222L195.10303819444445,31.76976640181107L195.38932291666666,31.04167347301137L195.53246527777776,42.20730579723012L195.6756076388889,34.93529507723722L195.81875,40.02540727095171L196.1050347222222,33.97604037198153L196.24817708333333,35.39950506036932L196.82074652777777,46.77988425514915L197.2501736111111,39.132404785156254L197.53645833333334,39.25015358664772L197.67960069444445,45.58452947443182L197.82274305555555,33.81089377663353L197.96588541666665,38.5574287553267L198.10902777777775,35.625155695134936L198.39531250000002,33.32908369584516L198.53845486111112,41.274026544744316L198.68159722222222,37.461007856889196L198.82473958333333,48.56630404385654L198.96788194444446,43.69850419477984L199.25416666666666,51.79876642400568L199.39730902777777,45.51360562411222L199.5404513888889,35.09715276544745L199.68359375,36.463056640625L199.8267361111111,32.98947687322443L199.9698784722222,32.90829123757103L200.1130208333333,29.152023481889206L200.25616319444444,36.1374745871804L200.39930555555557,38.24839988014914L200.54244791666667,34.98470769708807L200.68559027777778,33.405548317649156L200.971875,31.31743796608665L201.11501736111111,30.170922962535517L201.40130208333332,30.603488325639212L201.54444444444445,34.61843405983665L201.68758680555555,29.84523226651279L201.97387152777776,32.995037397904824L202.1170138888889,39.627617409446025L202.26015625,38.94859141956675L202.40329861111113,29.69100918856534L202.54644097222223,28.495367986505684L202.68958333333333,35.13660977450284L203.26215277777777,39.34931463068182L203.5484375,30.1902119584517L203.97786458333331,34.78002507990057L204.12100694444445,36.54769908558238L204.26414930555555,47.6685410378196L204.40729166666668,34.44971213600852L204.55043402777778,28.336690562855107L204.69357638888889,27.040278431285518L204.97986111111112,25.409286665482956L205.12300347222222,27.806070334694606L205.26614583333333,30.621829168146302L205.40928819444446,39.2229238059304L205.55243055555556,28.643102139559648L205.69557291666666,41.48343017578125L205.83871527777777,30.53372991388494L205.98185763888887,29.599709916548306L206.125,37.474489413174716L206.2681423611111,37.21395463423295L206.55442708333334,33.522309459339496L206.69756944444444,29.900304177024143L206.84071180555557,33.42467928799716L207.12699652777778,26.320462091619323L207.27013888888888,28.071148348721582L207.41328125,33.49010187322443L207.55642361111111,35.544937966086636L207.69956597222222,30.075900213068177L207.84270833333332,29.23789062500001L208.12899305555555,36.16943525834517L208.27213541666666,33.544709583629256L208.4152777777778,35.920821533203124L208.5584201388889,35.64607432972301L208.70156250000002,36.09563731800427L208.84470486111113,38.21193548029119L208.98784722222223,39.909080699573856L209.27413194444443,35.95694025213068L209.41727430555557,31.542150324041188L209.56041666666667,32.747648370916195L209.70355902777777,41.755866255326694L209.84670138888887,37.488909246271305L209.98984374999998,34.126342440518464L210.1329861111111,36.06150379527699L210.2761284722222,33.39285688920455L210.41927083333334,31.478456143465916L210.70555555555558,34.67016768022017L210.84869791666668,43.22660034179688L211.13498263888889,32.464525812322435L211.70755208333333,35.22052135120738L211.85069444444443,33.157072864879254L212.13697916666666,37.31371815074574L212.28012152777777,38.82449196555399L212.4232638888889,36.82459938742899L212.70954861111113,34.01614923650568L212.99583333333334,38.55491022283381L213.13897569444444,32.38963156960228L213.28211805555554,46.769385431463064L213.56840277777778,43.37057151100853L213.71154513888888,38.45162076083097L213.85468749999998,43.59818758877841L213.99782986111111,38.6536366965554L214.28411458333332,42.06615933504971L214.42725694444445,26.730331032492906L214.57039930555555,32.81293268377131L214.71354166666669,31.91567338423295L214.8566840277778,28.5710819868608L215.14296875,38.02088256835937L215.28611111111113,31.909717795632098L215.42925347222223,31.778161510120736L215.71553819444443,39.16612349076704L215.85868055555554,37.493531494140626L216.28810763888887,39.44676702325994L216.43125,30.965831076882107L216.5743923611111,37.62460382634943L216.71753472222224,43.322867542613636L217.00381944444445,40.56471890536222L217.14696180555555,35.84016923384234L217.29010416666668,52.074758078835224L217.43324652777778,63.86571732954545L217.57638888888889,62.91652687766335L217.71953125,50.45937133789063L217.8626736111111,48.06578768643465L218.00581597222222,49.84570867365056L218.29210069444443,37.940457430752836L218.43524305555556,48.72413208007812L218.5783854166667,54.31719027432528L218.7215277777778,49.72604381214488L218.8646701388889,50.528418634588064L219.0078125,68.69710216175426L219.1509548611111,49.46799793590199L219.43723958333334,42.83311667702414L219.58038194444444,46.620633988813914L219.72352430555554,42.05486050692472L219.86666666666667,36.09721757368609L220.00980902777778,34.18941439541903L220.15295138888888,33.87799538352272L220.58237847222225,40.017051669034096L220.86866319444445,38.107026256214496L221.01180555555555,40.8518612393466L221.15494791666666,36.550020086115055L221.2980902777778,38.078848322088064L221.4412326388889,31.2992353959517L221.584375,34.67430597478693L221.7275173611111,34.20655029296876L221.87065972222223,47.1434912109375L222.01380208333333,50.43740578391336L222.15694444444443,49.229270685369315L222.5863715277778,32.72461614435369L222.7295138888889,38.02697642933238L223.15894097222224,25.411271861683247L223.30208333333334,32.55467939897018L223.44522569444445,34.883008367365065L223.58836805555555,34.63223166725853L223.73151041666665,39.95921431107954L223.87465277777778,34.73020751953125L224.1609375,29.694061057350844L224.3040798611111,29.463057306463075L224.4472222222222,27.690524014559667L224.59036458333335,29.53846513227983L224.73350694444446,26.412877419211643L224.87664930555556,26.10657448508523L225.01979166666666,33.72331798206676L225.3060763888889,32.63983542702414L225.44921875,37.1752284934304L225.5923611111111,43.014302867542604L225.87864583333334,39.46879183682528L226.02178819444444,33.53574163263494L226.16493055555554,32.77270530007103L226.4512152777778,34.85816872336649L226.5943576388889,42.603475896661934" style="fill: none;" fill="none"></path></g></g></g></g></g></g><g transform="translate(72, 178)" clip-path="url(#clip_1)"><clipPath id="clip_1"><rect width="257" height="22"></rect></clipPath><g><g><line x1="0" y1="0" x2="0" y2="5" style="visibility: inherit;" fill="rgb(0, 0, 0)" stroke="rgb(204, 204, 204)" stroke-width="1px"></line><line x1="28.62847222222222" y1="0" x2="28.62847222222222" y2="5" style="visibility: inherit;" fill="rgb(0, 0, 0)" stroke="rgb(204, 204, 204)" stroke-width="1px"></line><line x1="57.25694444444444" y1="0" x2="57.25694444444444" y2="5" style="visibility: inherit;" fill="rgb(0, 0, 0)" stroke="rgb(204, 204, 204)" stroke-width="1px"></line><line x1="85.88541666666666" y1="0" x2="85.88541666666666" y2="5" style="visibility: inherit;" fill="rgb(0, 0, 0)" stroke="rgb(204, 204, 204)" stroke-width="1px"></line><line x1="114.51388888888889" y1="0" x2="114.51388888888889" y2="5" style="visibility: inherit;" fill="rgb(0, 0, 0)" stroke="rgb(204, 204, 204)" stroke-width="1px"></line><line x1="143.14236111111111" y1="0" x2="143.14236111111111" y2="5" style="visibility: inherit;" fill="rgb(0, 0, 0)" stroke="rgb(204, 204, 204)" stroke-width="1px"></line><line x1="171.77083333333331" y1="0" x2="171.77083333333331" y2="5" style="visibility: inherit;" fill="rgb(0, 0, 0)" stroke="rgb(204, 204, 204)" stroke-width="1px"></line><line x1="200.39930555555557" y1="0" x2="200.39930555555557" y2="5" style="visibility: inherit;" fill="rgb(0, 0, 0)" stroke="rgb(204, 204, 204)" stroke-width="1px"></line><line x1="229.02777777777777" y1="0" x2="229.02777777777777" y2="5" style="visibility: inherit;" fill="rgb(0, 0, 0)" stroke="rgb(204, 204, 204)" stroke-width="1px"></line><line x1="257.65625" y1="0" x2="257.65625" y2="5" style="visibility: inherit;" fill="rgb(0, 0, 0)" stroke="rgb(204, 204, 204)" stroke-width="1px"></line></g><g transform="translate(0, 8)"><text x="0" y="0" dx="0em" dy="0.95em" style="text-anchor: middle; visibility: hidden; font-family: Roboto, sans-serif; font-size: 12px; font-weight: 200;" fill="rgb(50, 49, 63)" stroke="none" stroke-width="1px">-10M</text><text x="28.62847222222222" y="0" dx="0em" dy="0.95em" style="text-anchor: middle; visibility: inherit; font-family: Roboto, sans-serif; font-size: 12px; font-weight: 200;" fill="rgb(50, 49, 63)" stroke="none" stroke-width="1px">0</text><text x="57.25694444444444" y="0" dx="0em" dy="0.95em" style="text-anchor: middle; visibility: inherit; font-family: Roboto, sans-serif; font-size: 12px; font-weight: 200;" fill="rgb(50, 49, 63)" stroke="none" stroke-width="1px">10M</text><text x="85.88541666666666" y="0" dx="0em" dy="0.95em" style="text-anchor: middle; visibility: inherit; font-family: Roboto, sans-serif; font-size: 12px; font-weight: 200;" fill="rgb(50, 49, 63)" stroke="none" stroke-width="1px">20M</text><text x="114.51388888888889" y="0" dx="0em" dy="0.95em" style="text-anchor: middle; visibility: inherit; font-family: Roboto, sans-serif; font-size: 12px; font-weight: 200;" fill="rgb(50, 49, 63)" stroke="none" stroke-width="1px">30M</text><text x="143.14236111111111" y="0" dx="0em" dy="0.95em" style="text-anchor: middle; visibility: inherit; font-family: Roboto, sans-serif; font-size: 12px; font-weight: 200;" fill="rgb(50, 49, 63)" stroke="none" stroke-width="1px">40M</text><text x="171.77083333333331" y="0" dx="0em" dy="0.95em" style="text-anchor: middle; visibility: inherit; font-family: Roboto, sans-serif; font-size: 12px; font-weight: 200;" fill="rgb(50, 49, 63)" stroke="none" stroke-width="1px">50M</text><text x="200.39930555555557" y="0" dx="0em" dy="0.95em" style="text-anchor: middle; visibility: inherit; font-family: Roboto, sans-serif; font-size: 12px; font-weight: 200;" fill="rgb(50, 49, 63)" stroke="none" stroke-width="1px">60M</text><text x="229.02777777777777" y="0" dx="0em" dy="0.95em" style="text-anchor: middle; visibility: inherit; font-family: Roboto, sans-serif; font-size: 12px; font-weight: 200;" fill="rgb(50, 49, 63)" stroke="none" stroke-width="1px">70M</text><text x="257.65625" y="0" dx="0em" dy="0.95em" style="text-anchor: middle; visibility: hidden; font-family: Roboto, sans-serif; font-size: 12px; font-weight: 200;" fill="rgb(50, 49, 63)" stroke="none" stroke-width="1px">80M</text></g><line x1="0" y1="0" x2="257.65625" y2="0" fill="rgb(0, 0, 0)" stroke="rgb(204, 204, 204)" stroke-width="1px"></line></g></g></g></g></svg>